<svg width="459" height="309" viewBox="0 0 459 309" fill="none" xmlns="http://www.w3.org/2000/svg">
<g clip-path="url(#clip0_774_3047)">
<path fill-rule="evenodd" clip-rule="evenodd" d="M198.016 33.8915V7.53149H222.491V324.963C222.491 327.825 219.516 330.611 213.567 331.986C210.763 332.588 207.862 332.588 205.058 331.986C199.108 330.687 196.134 327.825 196.134 324.963V203.349L198.016 33.8915Z" fill="#27AAE1"/>
<path d="M210.255 15.0629C217.013 15.0629 222.492 11.6909 222.492 7.53143C222.492 3.37194 217.013 0 210.255 0C203.496 0 198.018 3.37194 198.018 7.53143C198.018 11.6909 203.496 15.0629 210.255 15.0629Z" fill="white"/>
<path fill-rule="evenodd" clip-rule="evenodd" d="M25.3789 294.14L207.431 189.02V32.856L25.3789 137.976L64.3498 193.539L25.3789 294.14Z" fill="#E3FFFF"/>
<path d="M198.016 7.53149H196.134V33.8915H198.016V7.53149Z" fill="#081E7A"/>
<path d="M208.371 332.908C206.871 332.912 205.375 332.754 203.909 332.438C197.96 331.138 194.251 328.088 194.251 324.492V203.349H196.134V324.492C196.134 327.128 199.334 329.519 204.323 330.592C206.99 331.176 209.752 331.176 212.419 330.592C217.389 329.519 220.608 327.128 220.608 324.492V7.53149H222.491V324.492C222.491 328.088 218.725 331.138 212.814 332.438C211.354 332.754 209.865 332.912 208.371 332.908Z" fill="#081E7A"/>
<path d="M209.312 16.9456C206.107 17.0106 202.945 16.2036 200.163 14.6109C199.015 14.0314 198.04 13.1617 197.333 12.0881C196.626 11.0145 196.213 9.77458 196.134 8.49161C196.213 7.20863 196.626 5.96868 197.333 4.89511C198.04 3.82154 199.015 2.95177 200.163 2.37231C202.97 0.843014 206.116 0.041748 209.312 0.041748C212.509 0.041748 215.655 0.843014 218.462 2.37231C219.609 2.95177 220.585 3.82154 221.292 4.89511C221.999 5.96868 222.412 7.20863 222.491 8.49161C222.401 9.779 221.975 11.0203 221.255 12.091C220.535 13.1617 219.545 14.0242 218.387 14.5921C215.628 16.1781 212.494 16.9912 209.312 16.9456ZM209.312 1.88277C206.45 1.82876 203.627 2.55098 201.142 3.97274C200.279 4.39768 199.54 5.03575 198.993 5.82654C198.446 6.61732 198.11 7.53463 198.016 8.49161C198.11 9.44858 198.446 10.3659 198.993 11.1567C199.54 11.9475 200.279 12.5855 201.142 13.0105C203.646 14.3733 206.452 15.0873 209.303 15.0873C212.154 15.0873 214.96 14.3733 217.464 13.0105C218.33 12.588 219.074 11.951 219.624 11.16C220.174 10.3691 220.513 9.45049 220.608 8.49161C220.513 7.53273 220.174 6.61413 219.624 5.82318C219.074 5.03223 218.33 4.39523 217.464 3.97274C214.987 2.549 212.169 1.82651 209.312 1.88277Z" fill="#081E7A"/>
<path d="M26.3566 295.081C26.2032 295.083 26.0518 295.046 25.9157 294.975C25.7796 294.905 25.6628 294.802 25.5756 294.675C25.4884 294.549 25.4333 294.403 25.4152 294.251C25.3971 294.099 25.4165 293.944 25.4717 293.801L64.2732 193.671L25.5471 138.503C25.472 138.398 25.4198 138.278 25.3938 138.152C25.3679 138.025 25.3688 137.895 25.3964 137.769C25.4215 137.638 25.475 137.515 25.5531 137.408C25.6312 137.3 25.7319 137.211 25.8483 137.147L207.901 32.0085C208.044 31.9258 208.206 31.8823 208.371 31.8823C208.537 31.8823 208.699 31.9258 208.842 32.0085C208.985 32.095 209.103 32.2166 209.185 32.3616C209.267 32.5065 209.311 32.6702 209.313 32.8369V148.746H207.43V34.475L27.6745 138.277L66.0617 192.993C66.1523 193.12 66.21 193.267 66.2297 193.421C66.2494 193.576 66.2305 193.732 66.1747 193.878L28.2392 291.994L207.524 188.436V165.691H209.407V189.02C209.406 189.184 209.362 189.346 209.279 189.488C209.197 189.63 209.079 189.748 208.936 189.83L26.8837 294.95C26.7262 295.048 26.5418 295.094 26.3566 295.081Z" fill="#081E7A"/>
<path d="M206.862 32.0683L24.79 137.156L25.7311 138.787L207.803 33.699L206.862 32.0683Z" fill="#081E7A"/>
<path d="M134.593 106.174L133.831 115.75C120.878 114.007 108.534 124.033 106.12 137.197C104.828 144.255 105.941 150.902 109.749 157C113.556 163.098 119.063 166.955 126.155 168.521C126.077 168.667 120.217 173.934 117.768 176.137L116.698 175.598C105.774 170.151 99.034 161.363 96.9965 149.42C94.4494 134.486 99.1784 121.992 111.239 112.639C117.721 107.607 125.26 105.55 133.461 106.005C133.718 106.026 133.975 106.046 134.232 106.067C134.355 106.092 134.476 106.128 134.593 106.174Z" fill="#67DAFF"/>
<path d="M158.673 140.304L162.189 136.545C162.918 144.025 161.78 150.932 158.509 157.451C155.238 163.969 150.309 168.987 143.738 172.622L149.325 173.067C145.069 175.918 140.213 177.747 135.136 178.41C130.048 179.097 124.871 178.578 120.02 176.897C120.271 176.729 131.892 168.933 131.892 168.933L132.858 168.891C143.688 167.945 153.053 159.934 155.717 148.409C158.08 136.781 153.239 128.835 153.237 128.633C153.433 128.675 158.139 133.735 158.584 139.75C158.598 139.873 158.628 139.996 158.673 140.304Z" fill="#27AAE1"/>
<path d="M167.399 132.204C167.721 134.547 168.147 136.731 168.288 138.928C168.863 147.368 167.106 155.278 162.68 162.536C160.444 166.212 157.593 169.476 154.252 172.185C153.922 172.47 153.505 172.634 153.069 172.652C150.815 172.525 148.568 172.32 146.106 172.124C146.435 171.87 146.613 171.718 146.794 171.596C155.209 166.278 160.475 158.723 162.66 149.039C163.697 144.395 163.867 139.598 163.159 134.892L163.052 134.113C164.216 133.648 166.056 132.806 167.399 132.204Z" fill="#67DAFF"/>
<path d="M161.368 131.722C164.259 131.952 166.789 129.792 167.02 126.897C167.25 124.002 165.093 121.469 162.202 121.239C159.311 121.009 156.78 123.169 156.55 126.064C156.32 128.959 158.477 131.492 161.368 131.722Z" fill="#27AAE1"/>
<path d="M152.537 119.845C154.701 120.018 156.596 118.4 156.768 116.233C156.941 114.066 155.326 112.169 153.161 111.997C150.997 111.825 149.102 113.442 148.93 115.61C148.758 117.777 150.372 119.673 152.537 119.845Z" fill="#27AAE1"/>
<path d="M142.097 113.654C143.533 113.768 144.79 112.695 144.905 111.257C145.019 109.819 143.948 108.56 142.511 108.446C141.075 108.331 139.817 109.405 139.703 110.843C139.589 112.281 140.66 113.54 142.097 113.654Z" fill="#27AAE1"/>
<path d="M143.223 182.049C143.003 184.61 142.408 191.752 142.255 192.871C141.832 195.988 139.66 198.65 135.681 198.25C134.841 198.164 134.444 198.375 134.132 199.196C133.582 200.708 132.544 201.993 131.181 202.846C129.819 203.699 128.211 204.072 126.613 203.906C123.389 203.597 120.806 201.218 120.19 197.902C120.07 197.253 119.859 196.987 119.194 196.967C115.996 196.87 112.762 194.12 113.278 189.844L114.097 179.54L143.223 182.049ZM115.605 186.686L115.371 189.628C122.869 190.236 131.547 191.002 139.042 191.651L140.221 191.745L140.472 188.823L115.605 186.686ZM140.942 183.9L116.109 181.755L115.867 184.559L140.7 186.703L140.942 183.9ZM135.9 196.372C136.792 196.427 137.678 196.199 138.433 195.719C139.188 195.24 139.773 194.534 140.103 193.703C140.103 193.703 115.823 191.669 115.352 191.627C115.429 191.935 115.527 192.237 115.646 192.532C116.312 193.846 117.348 194.701 118.841 194.841C123.752 195.303 134.809 196.242 135.9 196.372Z" fill="#27AAE1"/>
<path d="M129.959 164.433C142.125 165.401 152.774 156.311 153.743 144.129C154.712 131.947 145.635 121.287 133.468 120.319C121.302 119.351 110.654 128.442 109.685 140.624C108.716 152.806 117.793 163.466 129.959 164.433Z" fill="#27AAE1"/>
<path d="M118.931 141.797L124.452 144.256L124.23 147.049L115.936 142.723L116.124 140.362L124.995 137.401L124.772 140.202L118.931 141.797Z" fill="white"/>
<path d="M129.35 150.089L127.207 149.918L133.805 134.562L135.949 134.732L129.35 150.089Z" fill="white"/>
<path d="M144.576 143.797L138.946 141.31L139.166 138.545L147.559 142.879L147.372 145.224L138.399 148.186L138.621 145.402L144.576 143.797Z" fill="white"/>
</g>
<path d="M440.97 51.6963C440.913 51.1263 440.745 50.573 440.474 50.0679C440.204 49.5629 439.836 49.1161 439.393 48.753C438.949 48.3899 438.439 48.1176 437.89 47.9517C437.341 47.7858 436.765 47.7295 436.194 47.786C435.624 47.8425 435.07 48.0108 434.565 48.2811C434.059 48.5515 433.612 48.9187 433.248 49.3617C432.885 49.8047 432.612 50.315 432.446 50.8632C432.28 51.4115 432.224 51.9871 432.281 52.5571L438.568 117.082L439.998 127.503C437.674 123.483 434.329 120.147 430.301 117.833L390.429 94.7373C390.768 92.3099 390.94 89.8621 390.942 87.4112C390.95 80.1602 389.53 72.9785 386.763 66.2753C386.454 65.3353 386.055 64.4275 385.571 63.5646C381.051 54.091 373.938 46.0903 365.055 40.4891C356.172 34.8879 345.883 31.9154 335.379 31.9158C313.38 31.9158 297.67 40.4141 287.863 58.6378C287.582 58.4163 287.256 58.259 286.909 58.1772C286.561 58.0954 286.199 58.0911 285.849 58.1645C285.499 58.2379 285.17 58.3872 284.884 58.602C284.599 58.8167 284.364 59.0915 284.196 59.4071L281.061 65.5793C280.449 66.7559 280.145 68.0683 280.177 69.3941C280.209 70.72 280.576 72.0161 281.245 73.1618C282.843 75.8095 284.738 78.2672 286.891 80.488C286.616 83.4734 286.359 87.5943 286.359 89.9936C286.173 98.4878 287.553 106.944 290.429 114.939L290.704 116.771C292.975 122.186 296.433 127.024 300.823 130.928L274.719 179.098C271.974 180.21 269.346 181.59 266.873 183.219L219.1 213.109L218.587 212.322C218.401 211.988 218.142 211.701 217.83 211.481C217.518 211.261 217.16 211.114 216.784 211.051C216.407 210.987 216.021 211.009 215.654 211.115C215.287 211.221 214.949 211.408 214.664 211.662C212.555 213.494 209.329 216.314 206.506 218.476C201.831 222.139 193.674 219.922 182.418 228.347C180.898 229.371 179.772 230.88 179.226 232.628C178.679 234.376 178.745 236.257 179.412 237.963C185.938 250.784 195.159 258.11 199.705 257.634C203.646 257.249 207.441 253.971 209.897 251.553C210.961 250.564 211.621 249.831 211.621 249.831L234.829 243.458C235.073 243.386 235.298 243.26 235.487 243.089C235.676 242.918 235.824 242.706 235.919 242.47C236.014 242.234 236.055 241.979 236.037 241.725C236.02 241.471 235.945 241.224 235.819 241.003L283.133 227.835C284.325 229.778 285.622 231.655 287.019 233.457C287.019 233.457 261.116 270.821 259.522 296.041C254.938 301.513 252.409 308.411 252.372 315.547C252.372 321.847 254.609 368.221 261.263 382.507C261.263 382.507 252.812 390.237 247.276 392.856C244.633 393.985 242.284 395.702 240.406 397.877C238.529 400.051 237.173 402.624 236.442 405.402C236.442 405.402 234.774 416.244 234.902 417.508C235.91 428.094 244.984 431.501 254.389 432.05C265.703 432.606 276.914 429.657 286.488 423.607C287.918 422.71 300.621 413.442 306.286 409.468C308.659 407.812 310.52 405.527 311.661 402.869C312.801 400.212 313.174 397.289 312.739 394.431L310.557 380.822C313.215 365.547 309.036 330.345 309.036 330.345C310.099 328.417 310.965 326.385 311.621 324.283C322.618 316.693 332.985 308.228 342.62 298.971C342.051 317.103 342.748 337.562 347.569 348.771C346.457 353.55 346.52 358.527 347.753 363.276C346.469 369.137 349.127 417.563 355.489 433.168C351.747 437.75 347.081 441.495 341.795 444.157C339.154 445.284 336.806 446.999 334.929 449.17C333.051 451.341 331.694 453.911 330.961 456.684C330.961 456.684 329.292 467.527 329.421 468.809C330.429 479.395 339.503 482.802 348.926 483.333C360.241 483.899 371.455 480.949 381.025 474.89C382.436 473.992 395.14 464.743 400.805 460.769C403.182 459.113 405.048 456.825 406.192 454.164C407.336 451.504 407.711 448.576 407.276 445.714L405.039 432.105C407.863 414.98 403.775 369.833 403.775 369.833C405.667 366.276 406.832 362.379 407.203 358.368C407.203 358.368 427.844 320.84 423.701 289.301C426.713 284.551 428.315 279.045 428.321 273.421C430.429 272.341 432.482 271.169 434.462 269.905C435.794 269.059 436.772 267.756 437.212 266.242C441.621 264.511 445.386 261.459 447.991 257.505C451.279 251.826 452.869 245.324 452.574 238.769C452.574 238.769 451.841 230.216 450.961 220.673L453.05 221.003C454.204 220.887 455.265 220.319 456.001 219.423C456.736 218.527 457.086 217.376 456.973 216.223L440.97 51.6963Z" fill="#E3FFFF"/>
<path d="M259.668 295.931C254.886 301.371 252.276 308.38 252.335 315.62C252.335 316.279 252.335 317.067 252.335 317.708C264.783 329.924 308.816 330.4 308.944 330.4C310.007 328.471 310.873 326.44 311.529 324.338C311.529 324.338 269.787 303.898 259.668 295.931Z" fill="#67DAFF"/>
<path d="M276.882 210.344L266.873 183.2C269.196 181.382 271.829 179.999 274.645 179.116L290.099 201.332L276.882 210.344Z" fill="#67DAFF"/>
<path d="M218.587 212.321L235.892 241.15C235.994 241.369 236.047 241.608 236.047 241.849C236.048 242.091 235.996 242.33 235.895 242.549C235.793 242.769 235.646 242.964 235.462 243.121C235.278 243.277 235.062 243.392 234.829 243.457L211.547 249.721C211.547 249.721 202.381 260.033 195.965 256.15C189.549 252.267 171.144 236.681 182.4 228.274C193.655 219.867 201.813 221.974 206.488 218.402C209.311 216.241 212.537 213.457 214.645 211.589C214.935 211.334 215.279 211.148 215.652 211.046C216.024 210.944 216.415 210.927 216.794 210.998C217.174 211.068 217.533 211.224 217.843 211.453C218.154 211.683 218.408 211.98 218.587 212.321Z" fill="#27AAE1"/>
<path d="M179.412 237.963C179.412 237.963 192.061 226.864 198.917 230.838C205.773 234.813 213.674 247.798 211.621 249.813C209.567 251.828 204.764 257.139 199.705 257.615C194.645 258.092 183.078 248.275 179.412 237.963Z" fill="#67DAFF"/>
<path d="M290.649 116.752C294.305 125.846 301.398 133.136 310.392 137.046C318.019 140.808 326.415 142.751 334.92 142.723C342.228 142.835 349.483 141.458 356.24 138.676C356.24 138.676 359.357 133.474 359.357 121.789C359.415 115.842 358.518 109.924 356.698 104.261C356.698 104.261 332.665 109.756 311.034 104.683C288.632 99.4077 286.744 91.8618 286.744 91.8618L290.649 116.752Z" fill="white"/>
<path d="M359.485 94.7006C344.489 97.4113 298.807 102.54 281.171 73.1252C280.503 71.9795 280.135 70.6833 280.103 69.3575C280.071 68.0317 280.376 66.7193 280.988 65.5427L284.123 59.3704C284.318 58.98 284.615 58.6491 284.982 58.4125C285.349 58.1758 285.773 58.0421 286.21 58.0253C286.646 58.0084 287.079 58.1091 287.464 58.3167C287.848 58.5243 288.169 58.8313 288.394 59.2056C293.729 67.8321 315.709 87.1914 363.665 88.7115L359.485 94.7006Z" fill="#27AAE1"/>
<path d="M370.759 90.0302C370.764 92.1554 370.151 94.2364 368.996 96.0211C367.841 97.8057 366.193 99.2175 364.251 100.085C360.328 101.715 356.918 99.8655 356.57 95.9643C356.558 93.8325 357.176 91.7445 358.346 89.9622C359.517 88.1799 361.189 86.7827 363.151 85.9458C367.001 84.2791 370.484 86.129 370.759 90.0302Z" fill="#27AAE1"/>
<path d="M378.495 281.663C360.163 279.74 340.676 273.11 321.483 261.883C273.949 234.117 276.295 208.127 276.717 205.252C276.837 204.4 277.124 203.581 277.562 202.84C277.999 202.1 278.578 201.452 279.266 200.935C279.953 200.418 280.736 200.042 281.57 199.827C282.403 199.612 283.271 199.564 284.123 199.684C284.975 199.804 285.795 200.091 286.536 200.528C287.278 200.965 287.926 201.543 288.443 202.231C288.961 202.918 289.338 203.7 289.552 204.532C289.767 205.365 289.816 206.232 289.696 207.083C289.696 207.761 288.761 227.688 328.101 250.655C348.614 262.652 366.451 267.652 381.263 268.971L378.495 281.663Z" fill="#27AAE1"/>
<path d="M432.445 258.11C433.712 258.387 434.867 259.034 435.764 259.968C436.662 260.903 437.262 262.082 437.487 263.357C437.713 264.633 437.555 265.946 437.033 267.131C436.51 268.317 435.648 269.32 434.554 270.015C430.768 272.408 426.781 274.467 422.638 276.169L432.445 258.11Z" fill="#27AAE1"/>
<path d="M319.155 213.97L302.033 203.823C300.888 203.246 299.959 202.317 299.381 201.173C298.804 200.029 298.609 198.731 298.825 197.468L304.013 167.669C304.105 167.152 304.317 166.663 304.632 166.243C304.946 165.822 305.355 165.481 305.825 165.246C306.295 165.011 306.814 164.889 307.339 164.89C307.865 164.891 308.383 165.015 308.852 165.251L325.974 175.398C327.12 175.973 328.049 176.903 328.623 178.047C329.198 179.192 329.388 180.492 329.164 181.753L324.013 211.552C323.922 212.072 323.709 212.563 323.394 212.985C323.078 213.408 322.667 213.751 322.195 213.986C321.722 214.221 321.201 214.342 320.673 214.339C320.145 214.337 319.625 214.21 319.155 213.97Z" fill="#27AAE1"/>
<path d="M319.155 189.409L309.109 183.566C308.447 183.237 307.911 182.702 307.58 182.041C307.249 181.38 307.143 180.63 307.276 179.903L308.156 174.226C308.21 173.931 308.332 173.652 308.512 173.412C308.692 173.172 308.925 172.977 309.193 172.842C309.462 172.707 309.758 172.636 310.058 172.635C310.358 172.633 310.654 172.701 310.924 172.834L320.988 178.713C321.65 179.042 322.187 179.578 322.517 180.239C322.848 180.899 322.955 181.649 322.821 182.376L321.941 188.035C321.886 188.331 321.762 188.61 321.58 188.85C321.397 189.09 321.162 189.284 320.892 189.418C320.621 189.551 320.324 189.619 320.022 189.618C319.721 189.616 319.424 189.545 319.155 189.409Z" fill="#67DAFF"/>
<path d="M389.879 233.164C383.5 232.89 377.853 230.454 371.052 225.509C355.012 213.787 349.677 188.512 358.678 166.533C367.019 146.24 384.984 136.093 406.763 139.335C408.058 139.693 409.178 140.513 409.91 141.641C410.642 142.768 410.935 144.123 410.734 145.452C410.533 146.78 409.852 147.989 408.82 148.849C407.787 149.71 406.475 150.163 405.131 150.123C381.3 146.57 371.804 163.31 368.761 170.673C361.74 187.761 365.571 207.944 377.505 216.644C379.989 218.52 382.755 219.991 385.699 221.003L389.879 233.164Z" fill="#27AAE1"/>
<path d="M436.479 240.033L389.861 233.164C388.484 235.928 387.691 238.946 387.533 242.029L430.722 259.63C432.998 256.946 434.685 253.815 435.676 250.44C436.668 247.065 436.941 243.52 436.479 240.033Z" fill="#67DAFF"/>
<path d="M376.094 296.847L409.091 303.733C409.343 303.786 409.579 303.897 409.781 304.056C409.982 304.215 410.145 304.419 410.255 304.651C410.365 304.884 410.42 305.138 410.415 305.395C410.41 305.652 410.346 305.905 410.227 306.133L399.008 327.452C399.008 327.452 400.31 341.225 393.16 343.239C386.011 345.254 361.996 348.203 363.463 334.247C364.929 320.29 372.024 315.73 372.629 309.869C372.959 306.334 373.105 302.085 373.16 299.264C373.171 298.905 373.259 298.552 373.418 298.229C373.576 297.906 373.802 297.621 374.079 297.392C374.357 297.163 374.68 296.996 375.027 296.902C375.375 296.808 375.738 296.789 376.094 296.847Z" fill="#27AAE1"/>
<path d="M424.544 169.519C426.14 174.333 426.271 179.512 424.92 184.401C423.57 189.29 420.799 193.668 416.957 196.983C413.116 200.299 408.377 202.401 403.339 203.025C398.302 203.649 393.192 202.767 388.657 200.49C384.121 198.213 380.363 194.643 377.859 190.232C375.354 185.821 374.214 180.766 374.585 175.709C374.955 170.651 376.818 165.816 379.939 161.816C383.059 157.816 387.297 154.83 392.116 153.236C398.577 151.099 405.623 151.614 411.705 154.668C417.787 157.721 422.405 163.063 424.544 169.519Z" fill="#67DAFF"/>
<path d="M407.991 175.05C408.253 177.334 407.729 179.638 406.507 181.585C405.284 183.532 403.435 185.006 401.263 185.764C400.309 186.157 399.278 186.326 398.249 186.261C397.219 186.195 396.218 185.896 395.322 185.385C394.426 184.875 393.658 184.167 393.077 183.315C392.496 182.464 392.117 181.491 391.969 180.471C391.702 178.189 392.222 175.885 393.441 173.937C394.661 171.99 396.508 170.515 398.678 169.757C399.633 169.361 400.666 169.189 401.698 169.253C402.729 169.317 403.733 169.615 404.631 170.126C405.53 170.637 406.3 171.346 406.882 172.199C407.464 173.053 407.843 174.028 407.991 175.05Z" fill="#27AAE1"/>
<path d="M440.97 51.6963C440.913 51.1262 440.745 50.5729 440.474 50.0679C440.204 49.5629 439.836 49.1161 439.393 48.753C438.949 48.3899 438.438 48.1176 437.89 47.9516C437.341 47.7857 436.765 47.7294 436.194 47.7859C435.624 47.8425 435.07 48.0107 434.564 48.2811C434.059 48.5514 433.612 48.9186 433.248 49.3617C432.885 49.8047 432.612 50.3149 432.446 50.8632C432.28 51.4115 432.224 51.987 432.28 52.5571L438.587 117.082L440.053 128.071L442.803 134.573L452.702 221.223H453.142C453.713 221.166 454.267 220.996 454.772 220.725C455.277 220.454 455.724 220.086 456.087 219.642C456.449 219.198 456.721 218.687 456.885 218.138C457.05 217.589 457.105 217.013 457.047 216.442L440.97 51.6963Z" fill="#27AAE1"/>
<path d="M437.688 267.158L436.918 265.491C441.142 263.799 444.753 260.868 447.276 257.084C450.486 251.531 452.032 245.174 451.731 238.769C451.721 238.684 451.721 238.598 451.731 238.513C451.731 238.293 451.731 237.908 451.731 237.908L442.693 139.921C442.568 135.543 441.324 131.27 439.077 127.51C436.831 123.749 433.658 120.625 429.861 118.437L389.201 95.1037L390.117 93.5103L430.759 116.954C434.824 119.288 438.221 122.625 440.625 126.647C443.029 130.668 444.36 135.239 444.489 139.921L453.527 237.725C453.579 238.126 453.579 238.533 453.527 238.934C453.806 245.611 452.178 252.23 448.834 258.018C446.14 262.13 442.25 265.32 437.688 267.158Z" fill="#081E7A"/>
<path d="M251.511 317.616C251.511 316.957 251.511 316.298 251.511 315.62C251.509 308.091 254.238 300.817 259.192 295.144L260.585 296.352C255.919 301.689 253.346 308.534 253.344 315.62C253.344 316.243 253.344 316.884 253.344 317.452L251.511 317.616Z" fill="#081E7A"/>
<path d="M311.694 325.016C311.555 325.011 311.418 324.98 311.291 324.924C309.567 324.1 269.017 304.777 258.935 296.828C258.817 296.736 258.723 296.615 258.662 296.478C258.602 296.341 258.576 296.191 258.587 296.041C260.273 270.876 285.241 234.52 286.304 232.981L287.826 234.025C287.569 234.391 262.4 271.022 260.456 295.693C270.411 303.275 307.056 320.858 311.621 323.056C320.866 316.753 329.398 309.463 337.065 301.316L338.403 302.561C330.53 310.955 321.736 318.439 312.189 324.869C312.04 324.962 311.869 325.012 311.694 325.016Z" fill="#081E7A"/>
<path d="M407.148 359.32C406.671 359.32 360.035 352.214 347.496 349.686C347.348 349.66 347.209 349.598 347.09 349.505C346.972 349.413 346.878 349.293 346.818 349.155C342.583 339.283 340.915 321.463 341.886 296.187H343.72C342.785 320.455 344.379 338.313 348.321 347.91C360.621 350.346 401.171 356.5 406.781 357.342C409.292 352.562 426.689 318.202 422.968 289.392L424.801 289.154C428.871 320.638 408.302 358.405 408.101 358.752C408.029 358.94 407.895 359.098 407.722 359.201C407.55 359.304 407.347 359.346 407.148 359.32Z" fill="#081E7A"/>
<path d="M267.404 183.951L266.268 182.523C268.687 180.617 271.432 179.165 274.37 178.237L274.92 180.068C272.203 180.904 269.658 182.219 267.404 183.951Z" fill="#081E7A"/>
<path d="M284.526 194.867L273.967 179.629C273.878 179.483 273.831 179.315 273.831 179.143C273.831 178.972 273.878 178.804 273.967 178.658L297.963 134.134L299.577 135.013L275.745 178.969L285.993 193.75L284.526 194.867Z" fill="#081E7A"/>
<path d="M223.628 211.369L222.656 209.812L266.378 182.431C266.494 182.358 266.625 182.311 266.761 182.295C266.898 182.28 267.036 182.295 267.166 182.339C267.295 182.384 267.413 182.456 267.511 182.551C267.609 182.646 267.685 182.761 267.734 182.889L273.802 199.373L272.079 200.014L266.396 184.61L223.628 211.369Z" fill="#081E7A"/>
<path d="M276.295 228.201L235.612 240.203L236.131 241.959L276.814 229.958L276.295 228.201Z" fill="#081E7A"/>
<path d="M199.21 258.11C197.917 258.128 196.645 257.779 195.544 257.102C190.227 253.751 178.403 243.769 178 235.344C177.93 233.829 178.252 232.321 178.936 230.967C179.621 229.613 180.643 228.458 181.905 227.615C186.986 223.794 192.906 221.238 199.173 220.16C201.595 219.879 203.927 219.079 206.011 217.816C208.797 215.673 211.951 212.963 214.114 211.039C214.495 210.704 214.946 210.457 215.434 210.315C215.922 210.174 216.436 210.141 216.938 210.22C217.44 210.298 217.918 210.486 218.339 210.771C218.761 211.055 219.114 211.428 219.375 211.864L236.662 240.6C236.864 240.943 236.984 241.329 237.013 241.726C237.041 242.123 236.978 242.521 236.827 242.89C236.682 243.259 236.452 243.589 236.156 243.853C235.86 244.117 235.506 244.308 235.122 244.41L212.116 250.601C210.997 251.864 204.911 258.11 199.21 258.11ZM216.497 211.937C216.1 211.94 215.717 212.083 215.415 212.34C213.234 214.281 210.044 217.029 207.221 219.19C204.943 220.65 202.37 221.588 199.687 221.937C193.7 222.983 188.046 225.431 183.188 229.08C182.134 229.722 181.268 230.631 180.679 231.715C180.09 232.799 179.798 234.019 179.833 235.252C180.182 242.578 190.832 251.992 196.515 255.399C202.198 258.806 210.851 249.227 210.942 249.117C211.058 248.987 211.212 248.898 211.382 248.861L234.664 242.578C234.772 242.55 234.873 242.497 234.959 242.424C235.045 242.351 235.113 242.26 235.159 242.157C235.204 242.053 235.227 241.941 235.227 241.827C235.227 241.714 235.204 241.602 235.159 241.498L217.798 212.724C217.679 212.519 217.515 212.343 217.318 212.21C217.121 212.077 216.897 211.99 216.662 211.955L216.497 211.937Z" fill="#081E7A"/>
<path d="M210.062 245.509C207.918 240.802 202.858 234.153 198.458 231.608C193.307 228.622 183.39 235.655 180.017 238.622L178.807 237.249C179.338 236.773 192.024 225.765 199.375 229.923C204.16 232.688 209.402 239.593 211.731 244.575L210.062 245.509Z" fill="#081E7A"/>
<path d="M411.749 299.795L411.016 298.11C416.515 295.693 421.043 292.25 422.986 288.953C425.898 284.332 427.46 278.991 427.496 273.531H429.329C429.306 279.319 427.661 284.985 424.581 289.887C422.436 293.495 417.633 297.231 411.749 299.795Z" fill="#081E7A"/>
<path d="M372.134 304.154C356.35 302.733 341.045 297.996 327.221 290.253C301.263 275.454 293.105 255.308 290.557 244.611L292.39 244.19C294.865 254.593 302.821 274.209 328.193 288.66C341.777 296.264 356.811 300.925 372.317 302.341L372.134 304.154Z" fill="#081E7A"/>
<path d="M298.158 133.629L292.194 199.839L294.027 200.004L299.991 133.794L298.158 133.629Z" fill="#081E7A"/>
<path d="M371.969 128.828L371.053 130.414L385.944 139.004L386.861 137.418L371.969 128.828Z" fill="#081E7A"/>
<path d="M357.028 139.189L355.452 138.255C355.452 138.255 358.44 133.053 358.44 121.771C358.469 116.19 357.672 110.635 356.075 105.287C351.676 106.184 330.172 110.086 310.832 105.525C288.138 100.195 285.938 92.4113 285.846 92.0817L287.679 91.6421C287.679 91.6421 289.916 98.7667 311.254 103.84C332.592 108.913 356.24 103.474 356.497 103.419C356.715 103.37 356.944 103.403 357.14 103.511C357.335 103.619 357.485 103.794 357.56 104.005C359.424 109.759 360.34 115.778 360.273 121.826C360.273 133.566 357.157 139.06 357.028 139.189Z" fill="#081E7A"/>
<path d="M339.925 157.376C335.479 157.368 331.057 156.714 326.799 155.434C316.259 152.247 310.649 146.277 310.117 137.613L311.951 137.504C312.427 145.306 317.597 150.745 327.331 153.676C334.737 155.996 342.641 156.228 350.171 154.347C357.701 152.467 364.565 148.546 370.007 143.016C372.537 140.196 373.784 137.522 373.16 136.038L374.847 135.306C375.782 137.485 374.517 140.8 371.382 144.244C364.984 151.277 353.362 157.376 339.925 157.376Z" fill="#081E7A"/>
<path d="M335.379 143.676C326.729 143.707 318.192 141.719 310.447 137.87L309.842 137.577C293.6 129.793 285.388 113.767 285.388 89.9569C285.387 87.0194 285.552 84.0843 285.883 81.1655L287.716 81.3853C287.385 84.2305 287.22 87.0925 287.221 89.9569C287.221 113.016 295.085 128.419 310.631 135.928L311.254 136.24C318.753 139.949 327.011 141.868 335.379 141.844C342.561 141.958 349.691 140.605 356.332 137.87L357.047 139.555C350.182 142.395 342.807 143.798 335.379 143.676Z" fill="#081E7A"/>
<path d="M356.698 139.628C356.511 139.637 356.325 139.587 356.167 139.486C356.009 139.384 355.887 139.235 355.819 139.06C355.725 138.836 355.723 138.585 355.812 138.36C355.901 138.134 356.074 137.952 356.295 137.852C364.196 134.463 368.632 126.404 369.127 114.554C369.253 110.416 368.771 106.282 367.698 102.283L369.531 101.825C370.66 106.002 371.16 110.322 371.016 114.646C370.667 122.393 368.706 128.639 365.241 133.163C375.89 126.2 383.777 115.749 387.548 103.605C391.318 91.4613 390.736 78.3845 385.901 66.6233C385.6 65.7158 385.213 64.8389 384.746 64.0042C380.277 54.7009 373.277 46.8429 364.546 41.3299C355.815 35.8169 345.707 32.8717 335.379 32.8315C313.38 32.8315 298.183 41.4214 288.669 59.0774L287.056 58.1982C296.918 39.9012 312.72 31 335.379 31C346.05 31.0395 356.496 34.0805 365.518 39.7748C374.541 45.4692 381.776 53.5868 386.396 63.1983C386.897 64.0986 387.314 65.0427 387.643 66.0189C393.304 79.8305 393.263 95.3193 387.531 109.101C381.798 122.884 370.838 133.839 357.047 139.573C356.934 139.609 356.817 139.628 356.698 139.628Z" fill="#081E7A"/>
<path d="M335.177 97.8142C315.874 97.8142 292.189 93.2903 280.383 73.6197C279.64 72.3406 279.23 70.8954 279.192 69.4169C279.154 67.9384 279.487 66.474 280.163 65.158L283.298 58.9858C283.567 58.4526 283.974 58.0013 284.477 57.6792C284.98 57.357 285.561 57.1757 286.158 57.1542C286.759 57.1216 287.357 57.2548 287.887 57.539C288.417 57.8233 288.859 58.2477 289.164 58.766C294.664 67.7588 314.829 83.9129 354.389 87.3012L354.242 89.1328C313.912 85.6895 293.362 68.9859 287.606 59.8283C287.464 59.5937 287.261 59.4017 287.019 59.2728C286.777 59.1438 286.505 59.0826 286.231 59.0957C285.962 59.1022 285.7 59.1826 285.474 59.3279C285.247 59.4733 285.065 59.6781 284.948 59.9198L281.795 65.9822C281.26 67.0245 280.995 68.184 281.024 69.3549C281.052 70.5258 281.374 71.6709 281.96 72.6856C298.99 101.111 343.72 96.3307 357.028 94.1878L357.303 96.0193C349.987 97.197 342.588 97.7972 335.177 97.8142Z" fill="#081E7A"/>
<path d="M361.465 101.587C359.967 101.622 358.516 101.064 357.427 100.035C356.339 99.0058 355.701 97.589 355.654 96.0926C355.625 93.7696 356.28 91.4894 357.539 89.5355C358.797 87.5817 360.602 86.0405 362.73 85.1035C363.704 84.6369 364.776 84.4086 365.857 84.4372C366.937 84.4659 367.995 84.7507 368.944 85.2683C369.746 85.779 370.412 86.475 370.888 87.2975C371.363 88.12 371.633 89.0448 371.676 89.9936C371.704 92.3167 371.049 94.5969 369.791 96.5507C368.532 98.5046 366.727 100.046 364.599 100.983C363.604 101.387 362.539 101.592 361.465 101.587ZM365.846 86.239C365.014 86.2506 364.192 86.4248 363.426 86.7518C361.646 87.5279 360.134 88.8099 359.078 90.4382C358.022 92.0665 357.468 93.9693 357.487 95.9095C357.502 96.5714 357.676 97.2199 357.995 97.8001C358.314 98.3804 358.769 98.8752 359.32 99.2429C360.025 99.5986 360.803 99.784 361.593 99.784C362.383 99.784 363.161 99.5986 363.866 99.2429C365.648 98.4676 367.163 97.1864 368.222 95.5583C369.281 93.9302 369.838 92.027 369.824 90.0852C369.804 89.4243 369.628 88.7774 369.309 88.1979C368.991 87.6184 368.539 87.1228 367.991 86.7518C367.336 86.3887 366.594 86.2113 365.846 86.239Z" fill="#081E7A"/>
<path d="M378.403 282.579C359.778 280.619 339.907 273.733 321.025 262.689C272.977 234.611 275.379 208.054 275.8 205.124C275.944 204.15 276.278 203.214 276.785 202.369C277.291 201.525 277.96 200.789 278.752 200.203C279.544 199.618 280.444 199.195 281.4 198.958C282.357 198.721 283.35 198.675 284.325 198.823C286.248 199.118 287.981 200.149 289.158 201.697C290.334 203.245 290.863 205.19 290.631 207.12C290.631 207.871 289.732 227.102 328.596 249.795C346.726 260.399 364.471 266.48 381.318 267.909L381.171 269.74C364.05 268.312 346.048 262.139 327.661 251.425C287.808 228.109 288.724 207.798 288.779 206.955C288.964 205.489 288.569 204.01 287.679 202.83C286.789 201.65 285.474 200.863 284.013 200.636C283.281 200.527 282.535 200.564 281.817 200.743C281.099 200.923 280.423 201.242 279.829 201.683C279.235 202.123 278.734 202.677 278.354 203.311C277.974 203.945 277.723 204.649 277.615 205.38C277.193 208.201 274.939 233.641 321.941 261.095C340.64 272.084 360.237 278.824 378.587 280.766L378.403 282.579Z" fill="#081E7A"/>
<path d="M422.986 276.938L422.29 275.253C426.382 273.572 430.32 271.538 434.059 269.172C435 268.574 435.741 267.709 436.189 266.688C436.637 265.668 436.772 264.537 436.575 263.44C436.379 262.342 435.861 261.328 435.086 260.526C434.312 259.724 433.316 259.17 432.226 258.934L432.61 257.103C434.051 257.426 435.364 258.169 436.383 259.237C437.403 260.305 438.082 261.65 438.337 263.104C438.592 264.557 438.411 266.053 437.816 267.404C437.221 268.754 436.239 269.899 434.994 270.692C431.182 273.123 427.165 275.212 422.986 276.938Z" fill="#081E7A"/>
<path d="M320.677 215.252C320.039 215.237 319.413 215.08 318.843 214.794L301.666 204.611C300.343 203.952 299.27 202.881 298.608 201.56C297.947 200.238 297.734 198.738 298 197.285L303.188 167.486C303.299 166.826 303.564 166.202 303.963 165.664C304.361 165.126 304.881 164.69 305.479 164.39C306.075 164.084 306.735 163.924 307.404 163.924C308.074 163.924 308.734 164.084 309.329 164.39L326.488 174.61C327.809 175.272 328.881 176.343 329.542 177.664C330.203 178.984 330.417 180.484 330.154 181.937L324.911 211.699C324.742 212.697 324.223 213.602 323.447 214.253C322.671 214.903 321.689 215.258 320.677 215.252ZM319.613 213.164C319.957 213.337 320.337 213.425 320.722 213.421C321.107 213.417 321.485 213.322 321.826 213.143C322.167 212.964 322.46 212.706 322.68 212.391C322.901 212.076 323.044 211.714 323.096 211.333L328.321 181.589C328.513 180.519 328.353 179.415 327.864 178.444C327.374 177.473 326.583 176.687 325.608 176.204L308.431 166.039C308.098 165.871 307.731 165.784 307.358 165.784C306.986 165.784 306.619 165.871 306.286 166.039C305.939 166.219 305.64 166.479 305.413 166.797C305.187 167.116 305.04 167.484 304.984 167.87L299.76 197.669C299.566 198.737 299.724 199.839 300.209 200.81C300.695 201.781 301.483 202.568 302.455 203.054L319.613 213.164Z" fill="#081E7A"/>
<path d="M319.998 190.526C319.557 190.53 319.122 190.423 318.733 190.215L308.633 184.354C307.809 183.937 307.14 183.268 306.725 182.444C306.309 181.62 306.168 180.685 306.323 179.775L307.203 174.134C307.277 173.683 307.46 173.256 307.734 172.889C308.008 172.523 308.367 172.227 308.779 172.028C309.172 171.821 309.609 171.713 310.053 171.713C310.497 171.713 310.935 171.821 311.327 172.028L321.428 177.889C322.249 178.307 322.913 178.978 323.323 179.803C323.732 180.627 323.865 181.562 323.701 182.468L322.821 188.145C322.749 188.588 322.572 189.008 322.304 189.368C322.036 189.728 321.685 190.018 321.281 190.215C320.887 190.425 320.445 190.532 319.998 190.526ZM319.577 188.695C319.719 188.759 319.873 188.789 320.029 188.784C320.184 188.779 320.337 188.739 320.474 188.667C320.612 188.595 320.732 188.492 320.824 188.367C320.916 188.241 320.978 188.097 321.006 187.944L321.886 182.303C321.983 181.772 321.905 181.225 321.663 180.743C321.422 180.261 321.031 179.87 320.548 179.629L310.466 173.768C310.332 173.7 310.185 173.665 310.035 173.665C309.885 173.665 309.738 173.7 309.604 173.768C309.46 173.837 309.335 173.939 309.239 174.067C309.143 174.194 309.08 174.343 309.054 174.501L308.156 180.068C308.059 180.599 308.138 181.146 308.379 181.628C308.62 182.11 309.011 182.501 309.494 182.742L319.577 188.695Z" fill="#081E7A"/>
<path d="M389.842 234.08C383.463 233.805 377.688 231.461 370.521 226.241C354.132 214.281 348.669 188.512 357.817 166.24C366.323 145.544 384.673 135.104 406.891 138.492C407.75 138.576 408.583 138.833 409.34 139.248C410.096 139.663 410.761 140.226 411.293 140.905C411.825 141.584 412.214 142.363 412.436 143.197C412.658 144.03 412.709 144.9 412.585 145.753C412.46 146.606 412.164 147.425 411.714 148.161C411.264 148.897 410.669 149.533 409.965 150.033C409.262 150.532 408.464 150.883 407.62 151.066C406.777 151.248 405.905 151.257 405.058 151.093C381.978 147.632 372.61 163.914 369.677 171.075C362.803 187.779 366.506 207.505 378.092 215.948C380.494 217.773 383.174 219.201 386.029 220.179L385.461 221.919C382.426 220.875 379.574 219.361 377.01 217.431C364.764 208.512 360.805 187.834 367.973 170.379C371.034 162.87 380.896 145.635 405.314 149.28C405.918 149.4 406.54 149.397 407.143 149.27C407.745 149.143 408.315 148.895 408.819 148.541C409.323 148.187 409.749 147.734 410.072 147.211C410.396 146.687 410.609 146.103 410.7 145.495C410.791 144.886 410.757 144.266 410.6 143.671C410.444 143.076 410.168 142.519 409.789 142.034C409.411 141.549 408.938 141.145 408.399 140.848C407.859 140.551 407.265 140.366 406.653 140.306C385.333 137.119 367.716 147.082 359.558 166.936C350.686 188.512 355.819 213.292 371.602 224.758C378.44 229.758 383.921 231.992 389.934 232.249L389.842 234.08Z" fill="#081E7A"/>
<path d="M388.431 242.414L386.598 242.322C386.762 239.004 387.591 235.753 389.036 232.761L390.686 233.549C389.368 236.331 388.602 239.341 388.431 242.414Z" fill="#081E7A"/>
<path d="M431.437 260.216L430.044 259.026C432.231 256.485 433.852 253.508 434.8 250.294C435.748 247.079 436.002 243.7 435.544 240.381L437.377 240.124C437.869 243.703 437.594 247.344 436.57 250.808C435.546 254.272 433.796 257.479 431.437 260.216Z" fill="#081E7A"/>
<path d="M436.625 240.71H436.479L389.732 234.08C389.562 234.056 389.401 233.984 389.269 233.875C389.136 233.765 389.036 233.62 388.981 233.457L378.862 202.724L380.695 202.156L390.649 232.34L435.562 238.714L426.121 187.431L427.954 187.101L437.615 239.593C437.641 239.737 437.633 239.884 437.592 240.024C437.55 240.164 437.477 240.292 437.377 240.399C437.286 240.507 437.17 240.592 437.039 240.647C436.908 240.701 436.766 240.723 436.625 240.71Z" fill="#081E7A"/>
<path d="M409.842 304.136L408.192 303.33L429.494 260.106L388.229 242.963L376.937 292.689L375.104 292.286L386.634 241.498C386.666 241.369 386.725 241.249 386.807 241.144C386.89 241.04 386.993 240.955 387.111 240.893C387.232 240.839 387.363 240.811 387.496 240.811C387.629 240.811 387.76 240.839 387.881 240.893L431.052 258.824C431.169 258.868 431.276 258.937 431.364 259.025C431.453 259.114 431.521 259.22 431.566 259.337C431.615 259.453 431.64 259.577 431.64 259.703C431.64 259.829 431.615 259.954 431.566 260.07L409.842 304.136Z" fill="#081E7A"/>
<path d="M379.54 345.877C374.15 345.877 368.706 344.979 365.498 342.214C364.336 341.237 363.446 339.977 362.916 338.555C362.386 337.133 362.234 335.598 362.473 334.1C363.116 327.778 365.259 321.7 368.724 316.371C370.135 314.387 371.11 312.128 371.584 309.741C371.914 306.261 372.061 302.085 372.116 299.191C372.132 298.685 372.259 298.188 372.487 297.736C372.716 297.283 373.04 296.886 373.438 296.572C373.837 296.258 374.298 296.035 374.792 295.918C375.285 295.801 375.798 295.793 376.295 295.894L409.292 302.781C409.683 302.853 410.052 303.015 410.37 303.253C410.687 303.492 410.945 303.801 411.123 304.156C411.301 304.511 411.393 304.903 411.394 305.3C411.394 305.697 411.302 306.088 411.126 306.444L399.815 327.708C399.98 329.778 400.566 342.141 393.27 344.192C388.783 345.329 384.169 345.895 379.54 345.877ZM375.58 297.708C375.214 297.703 374.857 297.826 374.572 298.056C374.384 298.202 374.23 298.387 374.123 298.599C374.015 298.812 373.955 299.045 373.949 299.283C373.949 302.213 373.747 306.426 373.417 309.961C372.925 312.597 371.869 315.097 370.319 317.287C366.976 322.382 364.908 328.205 364.288 334.265C364.081 335.468 364.193 336.704 364.611 337.85C365.029 338.997 365.739 340.015 366.671 340.804C372.171 345.492 386.451 344.082 392.83 342.287C399.21 340.492 398.037 327.635 398.037 327.452C397.993 327.284 397.993 327.107 398.037 326.939L409.329 305.73C409.384 305.628 409.412 305.515 409.412 305.4C409.412 305.285 409.384 305.172 409.329 305.07C409.278 304.97 409.206 304.881 409.117 304.812C409.029 304.742 408.926 304.693 408.816 304.667L375.819 297.781C375.742 297.747 375.662 297.722 375.58 297.708Z" fill="#081E7A"/>
<path d="M399.247 204.995C392.566 204.992 386.132 202.476 381.224 197.947C376.317 193.419 373.296 187.21 372.763 180.557C372.23 173.903 374.224 167.294 378.348 162.043C382.473 156.792 388.425 153.286 395.02 152.221C401.615 151.156 408.369 152.612 413.938 156.298C419.508 159.984 423.484 165.63 425.075 172.112C426.667 178.594 425.757 185.438 422.526 191.28C419.296 197.122 413.982 201.535 407.643 203.64C404.935 204.542 402.1 204.999 399.247 204.995ZM399.247 153.712C396.593 153.715 393.956 154.141 391.437 154.976C385.569 156.932 380.653 161.023 377.666 166.435C374.68 171.848 373.843 178.185 375.321 184.187C376.799 190.188 380.484 195.414 385.643 198.824C390.802 202.234 397.057 203.579 403.164 202.591C409.27 201.603 414.78 198.354 418.598 193.491C422.416 188.628 424.262 182.508 423.768 176.347C423.275 170.186 420.478 164.437 415.934 160.243C411.39 156.049 405.433 153.717 399.247 153.712Z" fill="#081E7A"/>
<path d="M398.623 187.138C396.785 187.152 395.004 186.498 393.612 185.299C392.219 184.1 391.31 182.436 391.052 180.618C390.747 178.121 391.308 175.594 392.643 173.461C393.978 171.327 396.004 169.716 398.385 168.896L398.972 170.618C397 171.3 395.321 172.634 394.211 174.399C393.101 176.164 392.627 178.254 392.867 180.325C392.982 181.171 393.283 181.981 393.749 182.697C394.215 183.413 394.834 184.016 395.562 184.464C396.375 184.931 397.282 185.213 398.217 185.289C399.152 185.365 400.092 185.233 400.97 184.904C402.941 184.221 404.62 182.887 405.73 181.122C406.84 179.357 407.314 177.267 407.074 175.196L408.907 174.903C409.213 177.401 408.651 179.927 407.317 182.06C405.982 184.194 403.955 185.805 401.575 186.625C400.627 186.961 399.629 187.134 398.623 187.138Z" fill="#081E7A"/>
<path d="M452.702 221.974V220.142H452.977C453.891 220.054 454.732 219.607 455.317 218.9C455.901 218.193 456.18 217.282 456.093 216.369L440.145 51.7879C440.113 51.3279 439.99 50.879 439.781 50.4677C439.573 50.0563 439.284 49.691 438.932 49.3933C438.58 49.0956 438.171 48.8716 437.731 48.7347C437.29 48.5977 436.826 48.5505 436.367 48.5959C435.908 48.6412 435.463 48.7783 435.057 48.9989C434.652 49.2194 434.296 49.5191 434.008 49.88C433.721 50.2408 433.51 50.6557 433.386 51.0998C433.262 51.544 433.229 52.0084 433.289 52.4655L439.577 116.899L437.743 117.082L431.437 52.6304C431.302 51.2379 431.724 49.8485 432.61 48.7659C433.277 47.9629 434.165 47.3744 435.165 47.0744C436.165 46.7743 437.231 46.776 438.23 47.0793C439.229 47.3826 440.116 47.9739 440.779 48.779C441.443 49.5842 441.853 50.5672 441.96 51.6047L458.037 216.168C458.107 216.859 458.041 217.557 457.84 218.222C457.639 218.887 457.308 219.505 456.867 220.042C456.425 220.578 455.882 221.022 455.268 221.347C454.653 221.672 453.981 221.873 453.289 221.937L452.702 221.974Z" fill="#081E7A"/>
<defs>
<clipPath id="clip0_774_3047">
<rect width="307" height="406.286" rx="14" fill="white"/>
</clipPath>
</defs>
</svg>
