<svg width="487" height="487" viewBox="0 0 487 487" fill="none" xmlns="http://www.w3.org/2000/svg">
<path d="M444.437 52.3118H42.5675C33.6668 52.3118 26.4514 59.5272 26.4514 68.4279V438.061C26.4514 446.962 33.6668 454.177 42.5675 454.177H444.437C453.338 454.177 460.553 446.962 460.553 438.061V68.4279C460.553 59.5272 453.338 52.3118 444.437 52.3118Z" fill="#27AAE1"/>
<g style="mix-blend-mode:multiply" opacity="0.2">
<path d="M238.012 452.148L65.6729 352.647L253.673 245.25L426.012 344.751L238.012 452.148Z" fill="#081F51"/>
</g>
<path d="M254.48 386.394L82.5828 287.15L254.476 187.905L426.373 287.15L254.48 386.394Z" fill="#E3FFFF"/>
<path d="M254.48 359.293L129.52 287.149L254.476 215.006L379.436 287.149L254.48 359.293Z" fill="#193174"/>
<path d="M254.476 219.889L375.207 289.594L379.436 287.149L254.476 215.006L129.52 287.149L133.749 289.589L254.476 219.889Z" fill="white"/>
<path d="M426.373 287.15V343.407L254.48 442.647V386.394L426.373 287.15Z" fill="url(#paint0_linear_396_2003)"/>
<path d="M82.5828 287.15V343.403L254.48 442.647V386.394L82.5828 287.15Z" fill="#193174"/>
<g opacity="0.51">
<path d="M94.2256 312.424V330.136L242.837 415.938V398.222L94.2256 312.424Z" fill="#453C9E"/>
</g>
<path d="M254.48 383.17L85.374 285.535L82.5828 287.149L254.48 386.394L426.373 287.149L423.582 285.54L254.48 383.17Z" fill="white"/>
<path d="M400.589 326.57V336.639L280.264 406.113V396.044L400.589 326.57Z" fill="#193174"/>
<path opacity="0.51" d="M82 287V343.253L253.897 442.497V386.244L82 287Z" fill="#193174"/>
<path d="M204.301 383.404L173.173 365.43L173.169 369.142L204.296 387.115L204.301 383.404Z" fill="#27AAE1"/>
<path d="M168.682 362.878L160.25 358.008L160.246 361.719L168.678 366.589L168.682 362.878Z" fill="#27AAE1"/>
<path d="M129.172 340.075L111.92 330.109L111.916 333.82L129.168 343.786L129.172 340.075Z" fill="#27AAE1"/>
<path d="M144.919 349.165L132.442 341.959L132.437 345.671L144.919 352.876V349.165Z" fill="#27AAE1"/>
<path d="M156.62 355.92L148.188 351.05V354.766L156.62 359.636V355.92Z" fill="#27AAE1"/>
<path d="M254.656 239.775L249.195 236.623L254.656 233.471L260.112 236.623L254.656 239.775Z" fill="#42E8E0"/>
<path opacity="0.1" d="M265.573 246.079L260.112 242.927L265.573 239.775L271.029 242.927L265.573 246.079Z" fill="#42E8E0"/>
<path opacity="0.4" d="M276.49 252.383L271.029 249.231L276.49 246.079L281.946 249.231L276.49 252.383Z" fill="#42E8E0"/>
<path d="M287.407 258.683L281.946 255.531L287.407 252.383L292.863 255.531L287.407 258.683Z" fill="#42E8E0"/>
<path opacity="0.4" d="M298.324 264.987L292.863 261.835L298.324 258.683L303.78 261.835L298.324 264.987Z" fill="#42E8E0"/>
<path d="M309.24 271.291L303.78 268.139L309.24 264.987L314.697 268.139L309.24 271.291Z" fill="#42E8E0"/>
<path d="M320.157 277.594L314.697 274.442L320.157 271.291L325.614 274.442L320.157 277.594Z" fill="#42E8E0"/>
<path d="M331.075 283.894L325.614 280.746L331.075 277.594L336.531 280.746L331.075 283.894Z" fill="#42E8E0"/>
<path opacity="0.1" d="M341.991 290.198L336.531 287.046L341.991 283.894L347.448 287.046L341.991 290.198Z" fill="#42E8E0"/>
<path d="M243.694 246.102L238.233 242.954L243.694 239.802L249.15 242.954L243.694 246.102Z" fill="#42E8E0"/>
<path d="M254.611 252.406L249.15 249.254L254.611 246.102L260.067 249.254L254.611 252.406Z" fill="#42E8E0"/>
<path d="M265.528 258.71L260.067 255.558L265.528 252.406L270.984 255.558L265.528 258.71Z" fill="#42E8E0"/>
<path d="M276.445 265.014L270.984 261.862L276.445 258.71L281.901 261.862L276.445 265.014Z" fill="#42E8E0"/>
<path d="M287.362 271.313L281.901 268.166L287.362 265.014L292.818 268.166L287.362 271.313Z" fill="#42E8E0"/>
<path d="M298.279 277.617L292.818 274.465L298.279 271.318L303.735 274.465L298.279 277.617Z" fill="#42E8E0"/>
<path d="M309.196 283.921L303.735 280.769L309.196 277.617L314.652 280.769L309.196 283.921Z" fill="#42E8E0"/>
<path d="M320.113 290.225L314.652 287.073L320.113 283.921L325.569 287.073L320.113 290.225Z" fill="#42E8E0"/>
<path d="M331.03 296.529L325.569 293.377L331.03 290.225L336.486 293.377L331.03 296.529Z" fill="#42E8E0"/>
<path d="M232.732 252.433L227.276 249.281L232.732 246.129L238.193 249.281L232.732 252.433Z" fill="#42E8E0"/>
<path d="M243.649 258.737L238.193 255.585L243.649 252.433L249.11 255.585L243.649 258.737Z" fill="#42E8E0"/>
<path d="M254.566 265.036L249.109 261.884L254.566 258.737L260.026 261.884L254.566 265.036Z" fill="#42E8E0"/>
<path opacity="0.1" d="M265.483 271.34L260.026 268.188L265.483 265.036L270.943 268.188L265.483 271.34Z" fill="#42E8E0"/>
<path opacity="0.4" d="M276.4 277.644L270.943 274.492L276.4 271.34L281.86 274.492L276.4 277.644Z" fill="#42E8E0"/>
<path opacity="0.4" d="M287.317 283.948L281.86 280.796L287.317 277.644L292.777 280.796L287.317 283.948Z" fill="#42E8E0"/>
<path d="M298.234 290.247L292.777 287.1L298.234 283.948L303.694 287.1L298.234 290.247Z" fill="#42E8E0"/>
<path d="M309.151 296.552L303.694 293.4L309.151 290.248L314.611 293.4L309.151 296.552Z" fill="#42E8E0"/>
<path d="M320.068 302.855L314.611 299.703L320.068 296.551L325.528 299.703L320.068 302.855Z" fill="#42E8E0"/>
<path opacity="0.4" d="M221.77 258.759L216.314 255.607L221.77 252.46L227.231 255.607L221.77 258.759Z" fill="#42E8E0"/>
<path opacity="0.4" d="M232.687 265.063L227.23 261.911L232.687 258.759L238.147 261.911L232.687 265.063Z" fill="#42E8E0"/>
<path opacity="0.1" d="M243.604 271.367L238.147 268.215L243.604 265.063L249.064 268.215L243.604 271.367Z" fill="#42E8E0"/>
<path d="M254.521 277.671L249.064 274.519L254.521 271.367L259.981 274.519L254.521 277.671Z" fill="#42E8E0"/>
<path d="M265.438 283.971L259.981 280.819L265.438 277.671L270.898 280.819L265.438 283.971Z" fill="#42E8E0"/>
<path d="M276.355 290.274L270.898 287.122L276.355 283.97L281.815 287.122L276.355 290.274Z" fill="#42E8E0"/>
<path opacity="0.4" d="M287.272 296.578L281.815 293.426L287.272 290.274L292.732 293.426L287.272 296.578Z" fill="#42E8E0"/>
<path d="M298.189 302.882L292.732 299.73L298.189 296.578L303.649 299.73L298.189 302.882Z" fill="#42E8E0"/>
<path d="M309.105 309.182L303.649 306.034L309.105 302.882L314.566 306.034L309.105 309.182Z" fill="#42E8E0"/>
<path d="M210.808 265.09L205.352 261.938L210.808 258.786L216.268 261.938L210.808 265.09Z" fill="#42E8E0"/>
<path d="M221.725 271.394L216.269 268.242L221.725 265.09L227.185 268.242L221.725 271.394Z" fill="#42E8E0"/>
<path d="M232.642 277.694L227.186 274.542L232.642 271.394L238.102 274.542L232.642 277.694Z" fill="#42E8E0"/>
<path d="M243.559 283.998L238.103 280.846L243.559 277.694L249.019 280.846L243.559 283.998Z" fill="#42E8E0"/>
<path d="M254.48 290.301L249.02 287.15L254.48 283.998L259.936 287.15L254.48 290.301Z" fill="#42E8E0"/>
<path d="M265.393 296.601L259.937 293.454L265.393 290.302L270.853 293.454L265.393 296.601Z" fill="#42E8E0"/>
<path d="M276.31 302.905L270.854 299.753L276.31 296.605L281.77 299.753L276.31 302.905Z" fill="#42E8E0"/>
<path d="M287.231 309.209L281.77 306.057L287.231 302.905L292.687 306.057L287.231 309.209Z" fill="#42E8E0"/>
<path d="M298.143 315.513L292.687 312.361L298.143 309.209L303.604 312.361L298.143 315.513Z" fill="#42E8E0"/>
<path d="M199.85 271.417L194.39 268.265L199.85 265.113L205.307 268.265L199.85 271.417Z" fill="#42E8E0"/>
<path d="M210.767 277.721L205.307 274.569L210.767 271.417L216.224 274.569L210.767 277.721Z" fill="#42E8E0"/>
<path opacity="0.4" d="M221.684 284.025L216.224 280.873L221.684 277.721L227.141 280.873L221.684 284.025Z" fill="#42E8E0"/>
<path d="M232.601 290.329L227.141 287.177L232.601 284.025L238.058 287.177L232.601 290.329Z" fill="#42E8E0"/>
<path opacity="0.1" d="M243.518 296.628L238.058 293.476L243.518 290.329L248.975 293.476L243.518 296.628Z" fill="#42E8E0"/>
<path d="M254.435 302.932L248.974 299.78L254.435 296.628L259.891 299.78L254.435 302.932Z" fill="#42E8E0"/>
<path d="M265.352 309.236L259.891 306.084L265.352 302.932L270.808 306.084L265.352 309.236Z" fill="#42E8E0"/>
<path d="M276.269 315.535L270.808 312.388L276.269 309.236L281.725 312.388L276.269 315.535Z" fill="#42E8E0"/>
<path d="M287.186 321.839L281.725 318.687L287.186 315.54L292.642 318.687L287.186 321.839Z" fill="#42E8E0"/>
<path d="M188.888 277.748L183.432 274.596L188.888 271.444L194.345 274.596L188.888 277.748Z" fill="#42E8E0"/>
<path d="M199.805 284.047L194.345 280.895L199.805 277.748L205.262 280.895L199.805 284.047Z" fill="#42E8E0"/>
<path opacity="0.4" d="M210.722 290.351L205.262 287.199L210.722 284.047L216.179 287.199L210.722 290.351Z" fill="#42E8E0"/>
<path d="M221.639 296.655L216.179 293.503L221.639 290.351L227.096 293.503L221.639 296.655Z" fill="#42E8E0"/>
<path d="M232.556 302.959L227.095 299.807L232.556 296.655L238.012 299.807L232.556 302.959Z" fill="#42E8E0"/>
<path opacity="0.1" d="M243.473 309.258L238.012 306.111L243.473 302.959L248.929 306.111L243.473 309.258Z" fill="#42E8E0"/>
<path opacity="0.4" d="M254.39 315.562L248.929 312.411L254.39 309.259L259.846 312.411L254.39 315.562Z" fill="#42E8E0"/>
<path d="M265.307 321.866L259.846 318.714L265.307 315.562L270.763 318.714L265.307 321.866Z" fill="#42E8E0"/>
<path opacity="0.1" d="M276.224 328.17L270.763 325.018L276.224 321.866L281.68 325.018L276.224 328.17Z" fill="#42E8E0"/>
<path d="M177.926 284.074L172.47 280.922L177.926 277.77L183.387 280.922L177.926 284.074Z" fill="#42E8E0"/>
<path opacity="0.4" d="M188.843 290.378L183.387 287.226L188.843 284.074L194.304 287.226L188.843 290.378Z" fill="#42E8E0"/>
<path d="M199.76 296.678L194.304 293.53L199.76 290.378L205.221 293.53L199.76 296.678Z" fill="#42E8E0"/>
<path d="M210.677 302.982L205.221 299.83L210.677 296.682L216.138 299.83L210.677 302.982Z" fill="#42E8E0"/>
<path d="M221.594 309.285L216.138 306.133L221.594 302.981L227.055 306.133L221.594 309.285Z" fill="#42E8E0"/>
<path d="M232.511 315.59L227.055 312.438L232.511 309.286L237.972 312.438L232.511 315.59Z" fill="#42E8E0"/>
<path d="M243.428 321.893L237.972 318.741L243.428 315.589L248.889 318.741L243.428 321.893Z" fill="#42E8E0"/>
<path opacity="0.4" d="M254.345 328.193L248.889 325.045L254.345 321.893L259.806 325.045L254.345 328.193Z" fill="#42E8E0"/>
<path d="M265.262 334.497L259.806 331.345L265.262 328.193L270.723 331.345L265.262 334.497Z" fill="#42E8E0"/>
<path d="M166.964 290.401L161.508 287.249L166.964 284.101L172.425 287.249L166.964 290.401Z" fill="#42E8E0"/>
<path opacity="0.1" d="M177.881 296.705L172.425 293.553L177.881 290.401L183.342 293.553L177.881 296.705Z" fill="#42E8E0"/>
<path d="M188.798 303.009L183.342 299.857L188.798 296.705L194.259 299.857L188.798 303.009Z" fill="#42E8E0"/>
<path d="M199.715 309.313L194.259 306.161L199.715 303.009L205.176 306.161L199.715 309.313Z" fill="#42E8E0"/>
<path d="M210.632 315.612L205.176 312.464L210.632 309.312L216.093 312.464L210.632 315.612Z" fill="#42E8E0"/>
<path d="M221.549 321.916L216.093 318.764L221.549 315.612L227.01 318.764L221.549 321.916Z" fill="#42E8E0"/>
<path opacity="0.4" d="M232.466 328.22L227.01 325.068L232.466 321.916L237.927 325.068L232.466 328.22Z" fill="#42E8E0"/>
<path d="M243.383 334.524L237.927 331.372L243.383 328.22L248.844 331.372L243.383 334.524Z" fill="#42E8E0"/>
<path d="M254.3 340.828L248.844 337.676L254.3 334.524L259.761 337.676L254.3 340.828Z" fill="#42E8E0"/>
<path d="M387.445 310.259L255.111 386.935L254.994 387.007L254.872 386.935L82.8848 287.844L82.2581 287.483L82.8848 287.122L254.751 187.829L254.99 187.689L255.229 187.829L427.122 287.082L427.352 287.217V287.488L427.338 343.745V344.002L427.113 344.133L255.157 443.274L254.994 443.368L254.827 443.274L83.0517 343.813L83.0111 343.79V343.741L83.0923 289.932L83.1779 343.741L83.1374 343.669L255.157 442.701H254.827L426.662 343.353L426.436 343.745L426.418 287.488L426.653 287.893L254.751 188.658H255.229L83.3042 287.844V287.122L255.111 386.525H254.872L387.445 310.259Z" fill="#081F51"/>
<path d="M255.17 303.378L83.2681 204.134L255.166 104.89L427.063 204.134L255.17 303.378Z" fill="#E3FFFF"/>
<path d="M255.17 276.282L130.205 204.134L255.166 131.99L380.126 204.134L255.17 276.282Z" fill="#193174"/>
<path d="M255.166 136.874L375.897 206.578L380.126 204.134L255.166 131.99L130.205 204.134L134.439 206.578L255.166 136.874Z" fill="white"/>
<path d="M427.063 204.134V260.392L255.17 359.636V303.378L427.063 204.134Z" fill="url(#paint1_linear_396_2003)"/>
<path d="M83.2681 204.134V260.387L255.17 359.636V303.378L83.2681 204.134Z" fill="#193174"/>
<g opacity="0.51">
<path d="M94.9155 229.408V247.125L243.523 332.923V315.206L94.9155 229.408Z" fill="#453C9E"/>
</g>
<path d="M255.17 300.154L86.0638 202.52L83.2681 204.134L255.17 303.378L427.063 204.134L424.272 202.524L255.17 300.154Z" fill="white"/>
<path d="M401.279 243.559V253.628L280.954 323.097V313.028L401.279 243.559Z" fill="#193174"/>
<path opacity="0.51" d="M83 204V260.253L254.902 359.502V303.244L83 204Z" fill="#193174"/>
<path d="M204.991 300.389L173.859 282.415L173.854 286.13L204.986 304.104L204.991 300.389Z" fill="#27AAE1"/>
<path d="M169.372 279.863L160.94 274.993L160.936 278.708L169.368 283.578L169.372 279.863Z" fill="#27AAE1"/>
<path d="M129.862 257.059L112.605 247.094V250.805L129.858 260.77L129.862 257.059Z" fill="#27AAE1"/>
<path d="M145.609 266.15L133.131 258.944L133.127 262.66L145.604 269.861L145.609 266.15Z" fill="#27AAE1"/>
<path d="M157.31 272.909L148.878 268.039L148.873 271.75L157.31 276.62V272.909Z" fill="#27AAE1"/>
<path d="M255.341 156.76L249.885 153.608L255.341 150.456L260.802 153.608L255.341 156.76Z" fill="#42E8E0"/>
<path opacity="0.1" d="M266.263 163.064L260.802 159.912L266.263 156.76L271.719 159.912L266.263 163.064Z" fill="#42E8E0"/>
<path opacity="0.4" d="M277.175 169.368L271.719 166.216L277.175 163.064L282.636 166.216L277.175 169.368Z" fill="#42E8E0"/>
<path d="M288.092 175.667L282.636 172.52L288.092 169.368L293.553 172.52L288.092 175.667Z" fill="#42E8E0"/>
<path opacity="0.4" d="M299.013 181.971L293.553 178.819L299.013 175.667L304.47 178.819L299.013 181.971Z" fill="#42E8E0"/>
<path d="M309.93 188.275L304.47 185.123L309.926 181.971L315.387 185.123L309.93 188.275Z" fill="#42E8E0"/>
<path d="M320.843 194.579L315.387 191.427L320.843 188.275L326.304 191.427L320.843 194.579Z" fill="#42E8E0"/>
<path d="M331.764 200.883L326.304 197.731L331.764 194.579L337.221 197.731L331.764 200.883Z" fill="#42E8E0"/>
<path opacity="0.1" d="M342.681 207.182L337.221 204.03L342.677 200.883L348.138 204.03L342.681 207.182Z" fill="#42E8E0"/>
<path d="M244.384 163.091L238.923 159.939L244.384 156.787L249.84 159.939L244.384 163.091Z" fill="#42E8E0"/>
<path d="M255.301 169.39L249.84 166.243L255.301 163.091L260.757 166.243L255.301 169.39Z" fill="#42E8E0"/>
<path d="M266.218 175.694L260.757 172.542L266.218 169.39L271.674 172.542L266.218 175.694Z" fill="#42E8E0"/>
<path d="M277.135 181.998L271.674 178.846L277.135 175.694L282.591 178.846L277.135 181.998Z" fill="#42E8E0"/>
<path d="M288.052 188.302L282.591 185.15L288.052 181.998L293.508 185.15L288.052 188.302Z" fill="#42E8E0"/>
<path d="M298.969 194.601L293.508 191.454L298.969 188.302L304.425 191.454L298.969 194.601Z" fill="#42E8E0"/>
<path d="M309.886 200.906L304.425 197.754L309.886 194.602L315.342 197.754L309.886 200.906Z" fill="#42E8E0"/>
<path d="M320.803 207.209L315.342 204.057L320.803 200.906L326.259 204.057L320.803 207.209Z" fill="#42E8E0"/>
<path d="M331.719 213.513L326.259 210.361L331.719 207.209L337.176 210.361L331.719 213.513Z" fill="#42E8E0"/>
<path d="M233.422 169.417L227.961 166.265L233.422 163.113L238.878 166.265L233.422 169.417Z" fill="#42E8E0"/>
<path d="M244.339 175.721L238.878 172.569L244.339 169.417L249.795 172.569L244.339 175.721Z" fill="#42E8E0"/>
<path d="M255.256 182.025L249.795 178.873L255.256 175.721L260.712 178.873L255.256 182.025Z" fill="#42E8E0"/>
<path opacity="0.1" d="M266.173 188.325L260.712 185.173L266.173 182.025L271.629 185.173L266.173 188.325Z" fill="#42E8E0"/>
<path opacity="0.4" d="M277.09 194.629L271.629 191.477L277.09 188.325L282.546 191.477L277.09 194.629Z" fill="#42E8E0"/>
<path opacity="0.4" d="M288.007 200.933L282.546 197.781L288.007 194.629L293.463 197.781L288.007 200.933Z" fill="#42E8E0"/>
<path d="M298.924 207.237L293.463 204.085L298.924 200.933L304.38 204.085L298.924 207.237Z" fill="#42E8E0"/>
<path d="M309.841 213.536L304.38 210.384L309.841 207.237L315.297 210.384L309.841 213.536Z" fill="#42E8E0"/>
<path d="M320.757 219.84L315.296 216.688L320.757 213.536L326.213 216.688L320.757 219.84Z" fill="#42E8E0"/>
<path opacity="0.4" d="M222.46 175.748L217.004 172.596L222.46 169.444L227.916 172.596L222.46 175.748Z" fill="#42E8E0"/>
<path opacity="0.4" d="M233.377 182.048L227.92 178.896L233.377 175.748L238.837 178.896L233.377 182.048Z" fill="#42E8E0"/>
<path opacity="0.1" d="M244.294 188.352L238.837 185.2L244.294 182.048L249.754 185.2L244.294 188.352Z" fill="#42E8E0"/>
<path d="M255.211 194.655L249.754 191.504L255.211 188.352L260.671 191.504L255.211 194.655Z" fill="#42E8E0"/>
<path d="M266.128 200.955L260.671 197.807L266.128 194.656L271.588 197.807L266.128 200.955Z" fill="#42E8E0"/>
<path d="M277.045 207.259L271.588 204.107L277.045 200.955L282.505 204.107L277.045 207.259Z" fill="#42E8E0"/>
<path opacity="0.4" d="M287.962 213.563L282.505 210.411L287.962 207.259L293.422 210.411L287.962 213.563Z" fill="#42E8E0"/>
<path d="M298.878 219.867L293.422 216.715L298.878 213.563L304.339 216.715L298.878 219.867Z" fill="#42E8E0"/>
<path d="M309.795 226.166L304.339 223.019L309.795 219.867L315.256 223.019L309.795 226.166Z" fill="#42E8E0"/>
<path d="M211.498 182.075L206.042 178.923L211.498 175.771L216.958 178.923L211.498 182.075Z" fill="#42E8E0"/>
<path d="M222.415 188.379L216.958 185.227L222.415 182.075L227.875 185.227L222.415 188.379Z" fill="#42E8E0"/>
<path d="M233.332 194.678L227.875 191.531L233.332 188.379L238.792 191.531L233.332 194.678Z" fill="#42E8E0"/>
<path d="M244.249 200.982L238.792 197.83L244.249 194.678L249.709 197.83L244.249 200.982Z" fill="#42E8E0"/>
<path d="M255.166 207.286L249.709 204.134L255.166 200.982L260.626 204.134L255.166 207.286Z" fill="#42E8E0"/>
<path d="M266.083 213.59L260.626 210.438L266.083 207.286L271.543 210.438L266.083 213.59Z" fill="#42E8E0"/>
<path d="M276.999 219.89L271.543 216.742L276.999 213.59L282.46 216.742L276.999 219.89Z" fill="#42E8E0"/>
<path d="M287.916 226.193L282.46 223.041L287.916 219.889L293.377 223.041L287.916 226.193Z" fill="#42E8E0"/>
<path d="M298.833 232.497L293.377 229.345L298.833 226.193L304.294 229.345L298.833 232.497Z" fill="#42E8E0"/>
<path d="M200.54 188.401L195.08 185.249L200.54 182.102L205.997 185.249L200.54 188.401Z" fill="#42E8E0"/>
<path d="M211.457 194.705L205.997 191.553L211.457 188.401L216.914 191.553L211.457 194.705Z" fill="#42E8E0"/>
<path opacity="0.4" d="M222.37 201.009L216.914 197.857L222.37 194.705L227.83 197.857L222.37 201.009Z" fill="#42E8E0"/>
<path d="M233.291 207.313L227.831 204.161L233.291 201.009L238.747 204.161L233.291 207.313Z" fill="#42E8E0"/>
<path opacity="0.1" d="M244.208 213.612L238.748 210.465L244.204 207.313L249.664 210.465L244.208 213.612Z" fill="#42E8E0"/>
<path d="M255.12 219.916L249.664 216.765L255.12 213.613L260.581 216.765L255.12 219.916Z" fill="#42E8E0"/>
<path d="M266.042 226.22L260.581 223.068L266.042 219.917L271.498 223.068L266.042 226.22Z" fill="#42E8E0"/>
<path d="M276.959 232.524L271.498 229.372L276.954 226.22L282.415 229.372L276.959 232.524Z" fill="#42E8E0"/>
<path d="M287.871 238.824L282.415 235.672L287.871 232.524L293.332 235.672L287.871 238.824Z" fill="#42E8E0"/>
<path d="M189.578 194.732L184.118 191.58L189.578 188.428L195.035 191.58L189.578 194.732Z" fill="#42E8E0"/>
<path d="M200.495 201.032L195.035 197.884L200.495 194.732L205.952 197.884L200.495 201.032Z" fill="#42E8E0"/>
<path opacity="0.4" d="M211.412 207.336L205.952 204.184L211.412 201.032L216.869 204.184L211.412 207.336Z" fill="#42E8E0"/>
<path d="M222.329 213.64L216.869 210.488L222.329 207.336L227.786 210.488L222.329 213.64Z" fill="#42E8E0"/>
<path d="M233.246 219.944L227.785 216.792L233.246 213.64L238.702 216.792L233.246 219.944Z" fill="#42E8E0"/>
<path opacity="0.1" d="M244.163 226.248L238.702 223.096L244.163 219.944L249.619 223.096L244.163 226.248Z" fill="#42E8E0"/>
<path opacity="0.4" d="M255.08 232.547L249.619 229.395L255.08 226.248L260.536 229.4L255.08 232.547Z" fill="#42E8E0"/>
<path d="M265.997 238.851L260.536 235.699L265.997 232.547L271.453 235.699L265.997 238.851Z" fill="#42E8E0"/>
<path opacity="0.1" d="M276.914 245.155L271.453 242.003L276.914 238.851L282.37 242.003L276.914 245.155Z" fill="#42E8E0"/>
<path d="M178.616 201.059L173.156 197.907L178.616 194.755L184.073 197.907L178.616 201.059Z" fill="#42E8E0"/>
<path opacity="0.4" d="M189.533 207.363L184.073 204.211L189.533 201.059L194.99 204.211L189.533 207.363Z" fill="#42E8E0"/>
<path d="M200.45 213.667L194.989 210.515L200.45 207.363L205.906 210.515L200.45 213.667Z" fill="#42E8E0"/>
<path d="M211.367 219.966L205.906 216.814L211.367 213.667L216.823 216.814L211.367 219.966Z" fill="#42E8E0"/>
<path d="M222.284 226.27L216.823 223.118L222.284 219.966L227.74 223.118L222.284 226.27Z" fill="#42E8E0"/>
<path d="M233.201 232.574L227.74 229.422L233.201 226.27L238.657 229.422L233.201 232.574Z" fill="#42E8E0"/>
<path d="M244.118 238.878L238.657 235.726L244.118 232.574L249.574 235.726L244.118 238.878Z" fill="#42E8E0"/>
<path opacity="0.4" d="M255.035 245.182L249.574 242.03L255.035 238.878L260.491 242.03L255.035 245.182Z" fill="#42E8E0"/>
<path d="M265.952 251.481L260.491 248.329L265.952 245.182L271.408 248.329L265.952 251.481Z" fill="#42E8E0"/>
<path d="M167.654 207.39L162.198 204.238L167.654 201.086L173.115 204.238L167.654 207.39Z" fill="#42E8E0"/>
<path opacity="0.1" d="M178.571 213.689L173.115 210.537L178.571 207.39L184.032 210.537L178.571 213.689Z" fill="#42E8E0"/>
<path d="M189.488 219.993L184.032 216.841L189.488 213.689L194.945 216.841L189.488 219.993Z" fill="#42E8E0"/>
<path d="M200.405 226.297L194.949 223.145L200.405 219.993L205.866 223.145L200.405 226.297Z" fill="#42E8E0"/>
<path d="M211.322 232.601L205.866 229.449L211.322 226.297L216.783 229.449L211.322 232.601Z" fill="#42E8E0"/>
<path d="M222.239 238.9L216.783 235.753L222.239 232.601L227.695 235.753L222.239 238.9Z" fill="#42E8E0"/>
<path opacity="0.4" d="M233.156 245.204L227.695 242.052L233.156 238.9L238.617 242.052L233.156 245.204Z" fill="#42E8E0"/>
<path d="M244.073 251.508L238.617 248.356L244.073 245.204L249.534 248.356L244.073 251.508Z" fill="#42E8E0"/>
<path d="M254.99 257.812L249.534 254.66L254.99 251.508L260.451 254.66L254.99 257.812Z" fill="#42E8E0"/>
<path d="M387.621 226.91L255.287 303.586L255.17 303.653L255.053 303.586L83.0607 204.495L82.4385 204.134L83.0607 203.773L254.927 104.475L255.166 104.34L255.405 104.475L427.298 203.733L427.532 203.868V204.134L427.514 260.392V260.653L427.289 260.779L255.337 359.92L255.17 360.019L255.003 359.92L83.2276 260.459L83.187 260.437V260.387L83.2682 206.578L83.3539 260.387L83.3133 260.315L255.337 359.347H255.003L426.838 259.999L426.612 260.392L426.594 204.134L426.829 204.54L254.927 105.305H255.405L83.4801 204.495V203.773L255.287 303.175H255.053L387.621 226.91Z" fill="#081F51"/>
<path d="M255.17 220.363L83.2727 121.119L255.166 21.8743L427.068 121.123L255.17 220.363Z" fill="#E3FFFF"/>
<path d="M255.17 193.267L130.209 121.119L255.166 48.9751L380.131 121.123L255.17 193.267Z" fill="#193174"/>
<path d="M255.17 53.8586L375.896 123.563L380.131 121.123L255.17 48.9751L130.209 121.119L134.444 123.563L255.17 53.8586Z" fill="white"/>
<path d="M427.067 121.123V177.376L255.17 276.62V220.363L427.067 121.123Z" fill="url(#paint2_linear_396_2003)"/>
<path d="M83.2727 121.119V177.372L255.17 276.62V220.363L83.2727 121.119Z" fill="#193174"/>
<g opacity="0.51">
<path d="M94.9199 146.393V164.11L243.527 249.908V232.195L94.9199 146.393Z" fill="#453C9E"/>
</g>
<path d="M255.17 217.139L86.0684 119.504L83.2727 121.119L255.17 220.363L427.068 121.123L424.272 119.509L255.17 217.139Z" fill="white"/>
<path d="M401.284 160.543V170.612L280.954 240.082V230.013L401.284 160.543Z" fill="#193174"/>
<path opacity="0.51" d="M83 122V178.253L254.897 277.502V221.244L83 122Z" fill="#193174"/>
<path d="M204.991 217.373L173.863 199.404L173.859 203.115L204.986 221.089L204.991 217.373Z" fill="#27AAE1"/>
<path d="M169.377 196.852L160.94 191.982L160.936 195.693L169.372 200.563L169.377 196.852Z" fill="#27AAE1"/>
<path d="M129.867 174.044L112.61 164.078L112.605 167.794L129.862 177.755L129.867 174.044Z" fill="#27AAE1"/>
<path d="M145.613 183.135L133.136 175.929L133.131 179.644L145.608 186.85L145.613 183.135Z" fill="#27AAE1"/>
<path d="M157.315 189.894L148.882 185.024L148.878 188.735L157.31 193.605L157.315 189.894Z" fill="#27AAE1"/>
<path d="M255.346 73.7443L249.89 70.5968L255.346 67.4448L260.807 70.5968L255.346 73.7443Z" fill="#42E8E0"/>
<path opacity="0.1" d="M266.263 80.0483L260.807 76.8964L266.263 73.7444L271.724 76.8964L266.263 80.0483Z" fill="#42E8E0"/>
<path opacity="0.4" d="M277.18 86.3523L271.724 83.2003L277.18 80.0483L282.641 83.2003L277.18 86.3523Z" fill="#42E8E0"/>
<path d="M288.097 92.6562L282.641 89.5043L288.097 86.3523L293.553 89.5043L288.097 92.6562Z" fill="#42E8E0"/>
<path opacity="0.4" d="M299.014 98.9557L293.558 95.8082L299.014 92.6562L304.475 95.8082L299.014 98.9557Z" fill="#42E8E0"/>
<path d="M309.93 105.26L304.474 102.108L309.93 98.9556L315.391 102.108L309.93 105.26Z" fill="#42E8E0"/>
<path d="M320.847 111.563L315.391 108.411L320.847 105.26L326.304 108.411L320.847 111.563Z" fill="#42E8E0"/>
<path d="M331.764 117.867L326.308 114.715L331.764 111.563L337.225 114.715L331.764 117.867Z" fill="#42E8E0"/>
<path opacity="0.1" d="M342.681 124.171L337.225 121.019L342.681 117.867L348.142 121.019L342.681 124.171Z" fill="#42E8E0"/>
<path d="M244.384 80.0754L238.928 76.9235L244.384 73.7715L249.845 76.9235L244.384 80.0754Z" fill="#42E8E0"/>
<path d="M255.301 86.3794L249.845 83.2274L255.301 80.0754L260.762 83.2274L255.301 86.3794Z" fill="#42E8E0"/>
<path d="M266.218 92.6788L260.762 89.5269L266.218 86.3794L271.679 89.5269L266.218 92.6788Z" fill="#42E8E0"/>
<path d="M277.135 98.9827L271.679 95.8307L277.135 92.6787L282.596 95.8307L277.135 98.9827Z" fill="#42E8E0"/>
<path d="M288.051 105.287L282.595 102.135L288.051 98.9827L293.512 102.135L288.051 105.287Z" fill="#42E8E0"/>
<path d="M298.968 111.591L293.512 108.439L298.968 105.287L304.429 108.439L298.968 111.591Z" fill="#42E8E0"/>
<path d="M309.885 117.89L304.429 114.738L309.885 111.591L315.346 114.743L309.885 117.89Z" fill="#42E8E0"/>
<path d="M320.802 124.194L315.346 121.042L320.802 117.89L326.263 121.042L320.802 124.194Z" fill="#42E8E0"/>
<path d="M331.719 130.498L326.263 127.346L331.719 124.194L337.18 127.346L331.719 130.498Z" fill="#42E8E0"/>
<path d="M233.422 86.4018L227.966 83.2499L233.422 80.0979L238.883 83.2499L233.422 86.4018Z" fill="#42E8E0"/>
<path d="M244.344 92.7058L238.883 89.5538L244.344 86.4019L249.8 89.5538L244.344 92.7058Z" fill="#42E8E0"/>
<path d="M255.26 99.0098L249.799 95.8578L255.26 92.7058L260.716 95.8578L255.26 99.0098Z" fill="#42E8E0"/>
<path opacity="0.1" d="M266.173 105.309L260.716 102.162L266.173 99.0098L271.633 102.162L266.173 105.309Z" fill="#42E8E0"/>
<path opacity="0.4" d="M277.094 111.613L271.633 108.461L277.094 105.309L282.55 108.461L277.094 111.613Z" fill="#42E8E0"/>
<path opacity="0.4" d="M288.011 117.917L282.55 114.765L288.007 111.613L293.467 114.765L288.011 117.917Z" fill="#42E8E0"/>
<path d="M298.923 124.221L293.467 121.069L298.923 117.917L304.384 121.069L298.923 124.221Z" fill="#42E8E0"/>
<path d="M309.845 130.525L304.384 127.373L309.845 124.221L315.301 127.373L309.845 130.525Z" fill="#42E8E0"/>
<path d="M320.762 136.824L315.301 133.672L320.757 130.525L326.218 133.672L320.762 136.824Z" fill="#42E8E0"/>
<path opacity="0.4" d="M222.465 92.7329L217.004 89.5809L222.465 86.429L227.921 89.5809L222.465 92.7329Z" fill="#42E8E0"/>
<path opacity="0.4" d="M233.381 99.0323L227.92 95.8804L233.381 92.7329L238.837 95.8804L233.381 99.0323Z" fill="#42E8E0"/>
<path opacity="0.1" d="M244.298 105.336L238.837 102.184L244.298 99.0322L249.754 102.184L244.298 105.336Z" fill="#42E8E0"/>
<path d="M255.215 111.64L249.754 108.488L255.215 105.336L260.671 108.488L255.215 111.64Z" fill="#42E8E0"/>
<path d="M266.132 117.944L260.671 114.792L266.132 111.64L271.588 114.792L266.132 117.944Z" fill="#42E8E0"/>
<path d="M277.049 124.244L271.588 121.096L277.049 117.944L282.505 121.096L277.049 124.244Z" fill="#42E8E0"/>
<path opacity="0.4" d="M287.966 130.548L282.505 127.396L287.966 124.244L293.422 127.396L287.966 130.548Z" fill="#42E8E0"/>
<path d="M298.883 136.852L293.422 133.7L298.883 130.548L304.339 133.7L298.883 136.852Z" fill="#42E8E0"/>
<path d="M309.8 143.155L304.339 140.003L309.8 136.851L315.256 140.003L309.8 143.155Z" fill="#42E8E0"/>
<path d="M211.502 99.0593L206.042 95.9073L211.502 92.7554L216.958 95.9073L211.502 99.0593Z" fill="#42E8E0"/>
<path d="M222.419 105.363L216.958 102.211L222.419 99.0593L227.875 102.211L222.419 105.363Z" fill="#42E8E0"/>
<path d="M233.336 111.667L227.875 108.515L233.336 105.363L238.792 108.515L233.336 111.667Z" fill="#42E8E0"/>
<path d="M244.253 117.967L238.792 114.819L244.253 111.667L249.709 114.819L244.253 117.967Z" fill="#42E8E0"/>
<path d="M255.17 124.271L249.709 121.119L255.17 117.967L260.626 121.119L255.17 124.271Z" fill="#42E8E0"/>
<path d="M266.087 130.574L260.626 127.422L266.087 124.271L271.543 127.422L266.087 130.574Z" fill="#42E8E0"/>
<path d="M277.004 136.878L271.543 133.726L277.004 130.574L282.46 133.726L277.004 136.878Z" fill="#42E8E0"/>
<path d="M287.921 143.178L282.46 140.03L287.921 136.878L293.377 140.03L287.921 143.178Z" fill="#42E8E0"/>
<path d="M298.838 149.482L293.377 146.33L298.838 143.178L304.294 146.33L298.838 149.482Z" fill="#42E8E0"/>
<path d="M200.54 105.386L195.084 102.234L200.54 99.0864L205.996 102.238L200.54 105.386Z" fill="#42E8E0"/>
<path d="M211.457 111.69L206.001 108.538L211.457 105.386L216.918 108.538L211.457 111.69Z" fill="#42E8E0"/>
<path opacity="0.4" d="M222.374 117.994L216.918 114.842L222.374 111.69L227.835 114.842L222.374 117.994Z" fill="#42E8E0"/>
<path d="M233.291 124.298L227.835 121.146L233.291 117.994L238.752 121.146L233.291 124.298Z" fill="#42E8E0"/>
<path opacity="0.1" d="M244.208 130.602L238.752 127.45L244.208 124.298L249.669 127.45L244.208 130.602Z" fill="#42E8E0"/>
<path d="M255.125 136.901L249.669 133.749L255.125 130.602L260.581 133.749L255.125 136.901Z" fill="#42E8E0"/>
<path d="M266.042 143.205L260.586 140.053L266.042 136.901L271.503 140.053L266.042 143.205Z" fill="#42E8E0"/>
<path d="M276.959 149.509L271.502 146.357L276.959 143.205L282.419 146.357L276.959 149.509Z" fill="#42E8E0"/>
<path d="M287.876 155.813L282.419 152.661L287.876 149.509L293.332 152.661L287.876 155.813Z" fill="#42E8E0"/>
<path d="M189.578 111.717L184.122 108.565L189.578 105.413L195.039 108.565L189.578 111.717Z" fill="#42E8E0"/>
<path d="M200.495 118.021L195.039 114.869L200.495 111.717L205.956 114.869L200.495 118.021Z" fill="#42E8E0"/>
<path opacity="0.4" d="M211.412 124.32L205.956 121.173L211.412 118.021L216.873 121.173L211.412 124.32Z" fill="#42E8E0"/>
<path d="M222.329 130.624L216.873 127.472L222.329 124.32L227.79 127.472L222.329 130.624Z" fill="#42E8E0"/>
<path d="M233.246 136.928L227.79 133.776L233.246 130.624L238.707 133.776L233.246 136.928Z" fill="#42E8E0"/>
<path opacity="0.1" d="M244.163 143.232L238.707 140.08L244.163 136.928L249.623 140.08L244.163 143.232Z" fill="#42E8E0"/>
<path opacity="0.4" d="M255.08 149.536L249.624 146.384L255.08 143.232L260.54 146.384L255.08 149.536Z" fill="#42E8E0"/>
<path d="M265.997 155.835L260.541 152.683L265.997 149.536L271.457 152.683L265.997 155.835Z" fill="#42E8E0"/>
<path opacity="0.1" d="M276.914 162.139L271.458 158.987L276.914 155.835L282.374 158.987L276.914 162.139Z" fill="#42E8E0"/>
<path d="M178.621 118.043L173.16 114.891L178.621 111.744L184.077 114.891L178.621 118.043Z" fill="#42E8E0"/>
<path opacity="0.4" d="M189.533 124.347L184.077 121.195L189.533 118.043L194.994 121.195L189.533 124.347Z" fill="#42E8E0"/>
<path d="M200.455 130.651L194.994 127.499L200.45 124.347L205.911 127.499L200.455 130.651Z" fill="#42E8E0"/>
<path d="M211.372 136.955L205.911 133.803L211.372 130.651L216.828 133.803L211.372 136.955Z" fill="#42E8E0"/>
<path d="M222.284 143.255L216.828 140.103L222.284 136.955L227.745 140.103L222.284 143.255Z" fill="#42E8E0"/>
<path d="M233.201 149.559L227.745 146.407L233.201 143.255L238.662 146.407L233.201 149.559Z" fill="#42E8E0"/>
<path d="M244.122 155.863L238.662 152.711L244.122 149.559L249.579 152.711L244.122 155.863Z" fill="#42E8E0"/>
<path opacity="0.4" d="M255.039 162.166L249.579 159.015L255.035 155.863L260.496 159.015L255.039 162.166Z" fill="#42E8E0"/>
<path d="M265.952 168.466L260.496 165.318L265.952 162.167L271.413 165.318L265.952 168.466Z" fill="#42E8E0"/>
<path d="M167.659 124.374L162.198 121.222L167.659 118.07L173.115 121.222L167.659 124.374Z" fill="#42E8E0"/>
<path opacity="0.1" d="M178.576 130.678L173.115 127.526L178.576 124.374L184.032 127.526L178.576 130.678Z" fill="#42E8E0"/>
<path d="M189.493 136.978L184.032 133.826L189.493 130.678L194.949 133.826L189.493 136.978Z" fill="#42E8E0"/>
<path d="M200.409 143.282L194.949 140.13L200.409 136.978L205.866 140.13L200.409 143.282Z" fill="#42E8E0"/>
<path d="M211.326 149.586L205.866 146.434L211.326 143.282L216.783 146.434L211.326 149.586Z" fill="#42E8E0"/>
<path d="M222.243 155.885L216.783 152.738L222.243 149.586L227.7 152.738L222.243 155.885Z" fill="#42E8E0"/>
<path opacity="0.4" d="M233.16 162.189L227.7 159.037L233.16 155.885L238.617 159.037L233.16 162.189Z" fill="#42E8E0"/>
<path d="M244.077 168.493L238.617 165.341L244.077 162.189L249.534 165.341L244.077 168.493Z" fill="#42E8E0"/>
<path d="M254.994 174.797L249.534 171.645L254.994 168.493L260.451 171.645L254.994 174.797Z" fill="#42E8E0"/>
<path d="M387.625 143.895L255.292 220.57L255.17 220.638L255.053 220.57L83.0653 121.479L82.4385 121.119L83.0653 120.758L254.927 21.4595L255.166 21.3242L255.405 21.4595L427.298 120.717L427.532 120.853V121.123L427.519 177.376V177.638L427.293 177.768L255.337 276.909L255.17 277.004L255.008 276.909L83.2321 177.444L83.187 177.421V177.372L83.2727 123.563L83.3584 177.372L83.3133 177.3L255.337 276.332H255.008L426.842 176.988L426.617 177.376L426.599 121.123L426.833 121.524L254.927 22.2892H255.405L83.4801 121.479V120.758L255.292 220.16H255.053L387.625 143.895Z" fill="#081F51"/>
<path d="M83 121V177.253" stroke="#081F51" stroke-width="1.11" stroke-miterlimit="10"/>
<defs>
<linearGradient id="paint0_linear_396_2003" x1="269.708" y1="501.732" x2="434.841" y2="182.219" gradientUnits="userSpaceOnUse">
<stop stop-color="#27AAE1"/>
<stop offset="0.05" stop-color="#38B2E4"/>
<stop offset="0.23" stop-color="#6CC9EC"/>
<stop offset="0.4" stop-color="#97DCF3"/>
<stop offset="0.57" stop-color="#B8EBF8"/>
<stop offset="0.73" stop-color="#D0F6FC"/>
<stop offset="0.88" stop-color="#DEFDFE"/>
<stop offset="1" stop-color="#E3FFFF"/>
</linearGradient>
<linearGradient id="paint1_linear_396_2003" x1="270.398" y1="418.716" x2="435.531" y2="99.2036" gradientUnits="userSpaceOnUse">
<stop stop-color="#27AAE1"/>
<stop offset="0.05" stop-color="#38B2E4"/>
<stop offset="0.23" stop-color="#6CC9EC"/>
<stop offset="0.4" stop-color="#97DCF3"/>
<stop offset="0.57" stop-color="#B8EBF8"/>
<stop offset="0.73" stop-color="#D0F6FC"/>
<stop offset="0.88" stop-color="#DEFDFE"/>
<stop offset="1" stop-color="#E3FFFF"/>
</linearGradient>
<linearGradient id="paint2_linear_396_2003" x1="270.402" y1="335.701" x2="435.531" y2="16.1881" gradientUnits="userSpaceOnUse">
<stop stop-color="#27AAE1"/>
<stop offset="0.05" stop-color="#38B2E4"/>
<stop offset="0.23" stop-color="#6CC9EC"/>
<stop offset="0.4" stop-color="#97DCF3"/>
<stop offset="0.57" stop-color="#B8EBF8"/>
<stop offset="0.73" stop-color="#D0F6FC"/>
<stop offset="0.88" stop-color="#DEFDFE"/>
<stop offset="1" stop-color="#E3FFFF"/>
</linearGradient>
</defs>
</svg>
