<svg width="1497" height="1055" viewBox="0 0 1497 1055" fill="none" xmlns="http://www.w3.org/2000/svg">
<rect width="1497" height="1055" fill="#1E1E1E"/>
<g clip-path="url(#clip0_0_1)">
<path d="M1497 0H0V1055H1497V0Z" fill="#F9F9F9"/>
<path opacity="0.08" fill-rule="evenodd" clip-rule="evenodd" d="M1113.6 393.108L1125.94 386.089C1134.66 381.088 1148.87 381.088 1157.69 386.089L1345.39 493.95C1354.2 498.969 1354.2 507.111 1345.39 512.147L1309.78 517.218C1302.58 518.25 1295.23 516.821 1288.95 513.164L1113.6 411.392C1104.85 406.286 1104.85 398.144 1113.6 393.108Z" fill="#EEEEEE"/>
<path d="M1095.84 311.374C1098.42 311.799 1100.98 312.385 1103.49 313.128V175.981C1103.93 162.365 1122.59 147.064 1124.07 145.274C1127.39 141.238 1133.26 140.641 1139.84 144.502L1321.12 248.573C1331.44 254.504 1339.81 268.875 1339.81 280.684V488.09C1339.81 493.845 1337.84 497.916 1334.52 499.934C1331.21 501.952 1309.14 504.479 1304.88 504.952C1301.79 506.093 1297.82 505.567 1293.54 503.092L1161.85 427.377C1157.04 444.924 1152.71 460.594 1152.34 461.295C1150.98 463.609 1149 465.499 1146.61 466.753C1138.17 471.595 1124.78 471.894 1115.75 467.63V481.667C1115.75 481.667 1123.16 505.18 1139.72 515.165C1157.35 525.851 1179.79 524.745 1204.41 511.971C1227.98 499.688 1248.71 497.126 1265.97 504.215C1289.11 513.691 1296.83 537.046 1297.15 538.029C1297.47 538.876 1297.61 539.778 1297.56 540.68C1297.52 541.582 1297.29 542.466 1296.89 543.279C1296.5 544.091 1295.94 544.815 1295.25 545.406C1294.56 545.998 1293.76 546.445 1292.9 546.72C1292.04 546.996 1291.12 547.094 1290.22 547.008C1289.32 546.923 1288.44 546.657 1287.64 546.225C1286.84 545.793 1286.14 545.205 1285.58 544.496C1285.02 543.787 1284.6 542.971 1284.37 542.099C1284.37 541.906 1278.28 523.71 1260.86 516.568C1247.42 511.059 1230.52 513.498 1210.61 523.833C1173.97 542.836 1148.04 535.818 1132.75 526.588C1113.86 515.2 1103.41 481.667 1103.41 481.667V460.453L1095.75 456.154L1095.84 311.374Z" fill="#E3FFFF"/>
<path d="M1311.6 492.827V295.511C1311.6 284.281 1303.62 270.594 1293.8 264.962L1121.27 165.856C1116.74 163.242 1111.06 162.628 1107.9 164.014C1111.66 159.118 1122.59 147.064 1124.07 145.274C1127.39 141.238 1133.26 140.641 1139.84 144.502L1321.12 248.573C1331.44 254.504 1339.81 268.875 1339.81 280.684V488.002C1339.81 493.74 1337.84 497.793 1334.65 499.794C1331.45 501.794 1309.36 504.321 1305.11 504.812C1309.07 503.356 1311.6 499.144 1311.6 492.827Z" fill="#27AAE1"/>
<path d="M1213.17 255.346C1251.42 277.28 1282.3 330.5 1282.3 374.104C1282.3 417.709 1251.42 435.378 1213.17 413.445C1201.06 406.236 1190.28 397.033 1181.27 386.229L1144.06 351.837V294.686C1144.06 251.03 1174.99 233.412 1213.17 255.346Z" fill="#67DAFF"/>
<path d="M1231.63 353.579C1227.79 347.168 1227.71 340.173 1231.46 337.957C1235.2 335.741 1241.34 339.142 1245.18 345.554C1249.01 351.965 1249.09 358.96 1245.35 361.176C1241.61 363.392 1235.47 359.991 1231.63 353.579Z" fill="#27AAE1"/>
<path d="M1180.49 323.759C1176.65 317.347 1176.57 310.353 1180.31 308.137C1184.05 305.921 1190.2 309.322 1194.03 315.733C1197.87 322.145 1197.95 329.139 1194.21 331.355C1190.47 333.571 1184.32 330.17 1180.49 323.759Z" fill="#27AAE1"/>
<path d="M1101.73 460.12V481.632C1101.73 494.758 1113.07 515.165 1131.96 526.553C1147.25 535.782 1173.17 542.801 1209.82 523.798C1229.73 513.463 1246.63 511.024 1260.06 516.498C1277.49 523.64 1283.5 541.836 1283.57 542.029C1284 543.379 1284.85 544.559 1286 545.395C1287.15 546.231 1288.53 546.681 1289.96 546.679C1291.02 546.682 1292.07 546.434 1293.02 545.954C1293.97 545.475 1294.79 544.778 1295.41 543.921C1296.04 543.065 1296.45 542.073 1296.61 541.027C1296.78 539.981 1296.69 538.911 1296.36 537.906C1296.04 536.923 1288.32 513.568 1265.18 504.093C1247.91 497.074 1227.19 499.636 1203.61 511.848C1178.92 524.623 1156.63 525.728 1138.92 515.042C1122.36 505.058 1115.2 488.019 1115.84 481.545V467.051L1101.73 460.12Z" fill="#27AAE1"/>
<path d="M1057.04 363.664C1057.04 363.664 1073.97 439.642 1074.45 440.748C1075.74 443.399 1077.86 445.56 1080.5 446.907L1115.05 466.752C1123.99 471.894 1138.5 471.894 1147.46 466.752C1149.83 465.494 1151.81 463.613 1153.17 461.313C1153.84 460.05 1171.13 396.529 1171.13 396.529L1057.04 363.664Z" fill="#67DAFF"/>
<path d="M1047.25 332.027L1177.76 358.856L1181.11 365.366V381.685C1181.11 389.651 1173.58 397.635 1158.55 401.793C1150.97 403.823 1143.06 404.329 1135.27 403.284C1127.49 402.239 1120 399.662 1113.23 395.705L1058.22 364.12C1050.59 359.733 1046.85 353.943 1047.02 348.187C1047.18 342.783 1047.25 332.027 1047.25 332.027Z" fill="#27AAE1"/>
<path d="M1058.86 317.147C1063.72 314.381 1069.04 312.492 1074.57 311.567L1092.03 310.865C1099.25 311.43 1106.27 313.517 1112.61 316.989L1169.7 350.135C1183.51 358.154 1184.09 372.174 1170.53 380.597C1155.85 389.721 1131.2 389.897 1116.12 381.141L1059.05 348.047C1044.59 339.607 1044.47 325.675 1058.86 317.147Z" fill="white"/>
<path d="M1135.24 365.085V306.022C1135.19 303.945 1135.87 301.917 1137.16 300.28C1138.44 298.643 1140.26 297.498 1142.29 297.038C1143.58 296.776 1144.91 296.804 1146.18 297.12C1147.46 297.435 1148.65 298.03 1149.66 298.861C1150.68 299.692 1151.49 300.737 1152.05 301.922C1152.6 303.106 1152.88 304.399 1152.87 305.706V365.366C1152.64 367.121 1150.9 368.875 1147.35 369.84C1145.18 370.384 1142.91 370.384 1140.74 369.84C1137.21 368.945 1135.45 367.173 1135.27 365.366C1135.24 365.366 1135.24 365.085 1135.24 365.085Z" fill="#67DAFF"/>
<path d="M1075.28 272.367C1075.27 271.06 1075.55 269.767 1076.1 268.582C1076.66 267.398 1077.47 266.352 1078.49 265.522C1079.5 264.691 1080.69 264.096 1081.97 263.78C1083.24 263.465 1084.57 263.437 1085.86 263.699C1087.89 264.162 1089.7 265.308 1090.99 266.944C1092.27 268.58 1092.95 270.607 1092.91 272.683V332.027C1092.91 333.939 1091.15 335.887 1087.52 336.852C1085.26 337.449 1082.89 337.449 1080.64 336.852C1076.97 335.887 1075.21 333.939 1075.35 332.027C1075.28 332.027 1075.28 272.367 1075.28 272.367Z" fill="#67DAFF"/>
<path d="M1301.98 506.198C1304.93 505.847 1330.75 502.689 1334.22 500.548C1337.7 498.407 1339.81 493.845 1339.81 488.002V280.684C1339.81 268.629 1331.22 253.872 1320.68 247.818L1139.4 143.677C1132.57 139.764 1126.26 140.168 1122.5 144.712L1106.35 164.54L1107.73 165.628L1123.86 145.835C1127.04 141.975 1132.5 141.747 1138.52 145.204L1319.8 249.345C1329.85 255.048 1338.05 269.173 1338.05 280.684V488.002C1338.05 493.266 1336.29 497.144 1333.29 499.056C1330.91 500.53 1313.15 503.092 1301.79 504.461L1301.98 506.198Z" fill="#081E7A"/>
<path d="M1300.8 506.268C1302.58 506.289 1304.34 505.835 1305.88 504.952C1309.5 502.882 1311.51 498.565 1311.51 492.827V295.511C1311.51 284.018 1303.33 269.963 1293.27 264.19L1120.74 165.084C1115.7 162.189 1110.9 161.75 1107.25 163.838C1103.6 165.927 1101.64 170.226 1101.64 175.981V303.951H1103.41V175.981C1103.41 170.892 1105.08 167.12 1108.13 165.365C1111.18 163.61 1115.38 164.031 1119.86 166.611L1292.48 265.716C1302.04 271.209 1309.83 284.579 1309.83 295.546V492.827C1309.83 497.916 1308.07 501.689 1305.09 503.443C1302.11 505.198 1297.84 504.759 1293.36 502.198L1166.77 429.518L1165.89 431.027L1292.48 503.707C1294.99 505.262 1297.85 506.144 1300.8 506.268V506.268Z" fill="#081E7A"/>
<path d="M1286.54 475.421C1287.48 475.431 1288.41 475.189 1289.23 474.719C1290.25 474.027 1291.06 473.078 1291.58 471.97C1292.1 470.863 1292.31 469.637 1292.2 468.419V296.617C1292.03 293.49 1291.12 290.446 1289.55 287.731C1287.98 285.015 1285.8 282.704 1283.17 280.982L1132.87 194.686C1131.86 193.974 1130.67 193.542 1129.43 193.435C1128.19 193.327 1126.95 193.547 1125.82 194.072C1124.8 194.761 1123.99 195.71 1123.47 196.818C1122.95 197.926 1122.74 199.153 1122.86 200.371V314.427H1124.62V200.371C1124.52 199.465 1124.66 198.548 1125.03 197.711C1125.39 196.875 1125.97 196.147 1126.7 195.599C1127.56 195.226 1128.5 195.087 1129.43 195.195C1130.36 195.303 1131.24 195.654 1131.99 196.213L1282.21 282.509C1284.59 284.046 1286.57 286.117 1288 288.555C1289.43 290.993 1290.26 293.73 1290.43 296.546V468.419C1290.53 469.326 1290.39 470.243 1290.03 471.08C1289.66 471.916 1289.08 472.644 1288.35 473.192C1287.5 473.567 1286.55 473.709 1285.63 473.604C1284.7 473.5 1283.81 473.152 1283.06 472.596L1174.04 409.97L1173.15 411.479L1282.21 474.105C1283.51 474.916 1285 475.37 1286.54 475.421Z" fill="#081E7A"/>
<path d="M1143.67 294.687H1145.43C1145.43 273.981 1152.49 258.54 1165.13 251.258C1177.78 243.976 1194.99 245.625 1213.22 256.101L1214.11 254.592C1195.31 243.783 1177.6 242.063 1164.25 249.731C1150.9 257.399 1143.67 273.314 1143.67 294.687Z" fill="#081E7A"/>
<path d="M1244.65 423.78C1251.11 423.864 1257.47 422.241 1263.1 419.077C1276.38 411.444 1283.68 395.477 1283.68 374.104H1281.91C1281.91 394.827 1274.86 410.251 1262.22 417.551C1249.57 424.85 1232.36 423.166 1214.11 412.69C1202.07 405.523 1191.33 396.38 1182.36 385.65L1181.02 386.791C1190.1 397.665 1200.96 406.937 1213.14 414.217C1224.32 420.569 1235 423.78 1244.65 423.78Z" fill="#081E7A"/>
<path d="M1243.63 361.857C1244.68 361.866 1245.71 361.599 1246.63 361.084C1247.73 360.329 1248.62 359.293 1249.19 358.084C1249.76 356.875 1249.99 355.536 1249.87 354.206C1249.67 350.737 1248.64 347.365 1246.88 344.366C1245.11 341.368 1242.66 338.829 1239.71 336.957C1238.59 336.169 1237.28 335.692 1235.91 335.574C1234.55 335.457 1233.17 335.704 1231.93 336.29C1230.83 337.047 1229.95 338.084 1229.38 339.293C1228.81 340.502 1228.58 341.84 1228.71 343.169C1228.91 346.636 1229.93 350.007 1231.7 353.005C1233.46 356.003 1235.91 358.543 1238.85 360.418C1240.29 361.306 1241.94 361.803 1243.63 361.857V361.857ZM1234.93 337.291C1236.32 337.347 1237.67 337.764 1238.85 338.501C1241.54 340.216 1243.78 342.542 1245.39 345.288C1247 348.033 1247.93 351.12 1248.11 354.294C1248.21 355.3 1248.04 356.314 1247.63 357.237C1247.21 358.16 1246.56 358.96 1245.74 359.558C1244.77 359.983 1243.7 360.146 1242.64 360.029C1241.58 359.912 1240.57 359.519 1239.71 358.891C1237.02 357.175 1234.79 354.849 1233.18 352.103C1231.57 349.357 1230.64 346.271 1230.47 343.099C1230.37 342.094 1230.53 341.081 1230.94 340.158C1231.36 339.235 1232 338.435 1232.82 337.835C1233.46 337.46 1234.19 337.266 1234.93 337.273V337.291Z" fill="#081E7A"/>
<path d="M1192.48 332.027C1193.53 332.036 1194.57 331.769 1195.48 331.254C1196.59 330.499 1197.47 329.463 1198.04 328.254C1198.61 327.045 1198.85 325.706 1198.73 324.376C1198.52 320.907 1197.5 317.535 1195.73 314.536C1193.97 311.538 1191.51 308.999 1188.57 307.127C1187.45 306.339 1186.14 305.862 1184.77 305.745C1183.4 305.627 1182.03 305.874 1180.79 306.461C1179.69 307.217 1178.8 308.254 1178.24 309.463C1177.67 310.672 1177.44 312.01 1177.56 313.339C1177.77 316.806 1178.79 320.177 1180.55 323.175C1182.32 326.173 1184.77 328.713 1187.7 330.588C1189.14 331.476 1190.79 331.973 1192.48 332.027V332.027ZM1183.79 307.461C1185.18 307.517 1186.53 307.934 1187.7 308.671C1190.39 310.386 1192.64 312.712 1194.25 315.458C1195.86 318.204 1196.79 321.29 1196.96 324.464C1197.06 325.47 1196.9 326.484 1196.48 327.407C1196.07 328.33 1195.42 329.13 1194.6 329.728C1193.62 330.153 1192.55 330.316 1191.49 330.199C1190.44 330.082 1189.43 329.689 1188.57 329.061C1185.88 327.345 1183.64 325.019 1182.04 322.273C1180.43 319.527 1179.5 316.441 1179.33 313.269C1179.23 312.264 1179.39 311.251 1179.8 310.328C1180.21 309.405 1180.86 308.605 1181.67 308.005C1182.31 307.63 1183.05 307.436 1183.79 307.443V307.461Z" fill="#081E7A"/>
<path d="M1290.84 547.592C1291.62 547.592 1292.4 547.468 1293.15 547.223C1294.1 546.924 1294.98 546.441 1295.75 545.801C1296.51 545.162 1297.14 544.379 1297.6 543.497C1298.06 542.615 1298.34 541.651 1298.42 540.662C1298.5 539.672 1298.39 538.676 1298.09 537.73C1297.75 536.73 1289.92 513.006 1266.34 503.373C1248.83 496.179 1227.86 498.811 1204.04 511.164C1179.7 523.78 1157.64 524.903 1140.21 514.393C1124.18 504.724 1116.93 487.984 1117.53 481.72V467.139H1115.77V481.632C1115.1 488.388 1122.4 505.707 1139.28 515.884C1157.27 526.728 1179.84 525.64 1204.83 512.726C1228.18 500.618 1248.65 498.021 1265.66 504.987C1288.42 514.322 1296.02 537.291 1296.32 538.327C1296.56 539.051 1296.64 539.815 1296.58 540.573C1296.52 541.331 1296.3 542.07 1295.95 542.746C1295.6 543.422 1295.12 544.023 1294.54 544.514C1293.95 545.006 1293.28 545.378 1292.55 545.609C1291.98 545.795 1291.39 545.89 1290.79 545.89C1289.55 545.889 1288.35 545.497 1287.35 544.772C1286.35 544.047 1285.61 543.025 1285.23 541.854C1285.23 541.661 1279.06 523.078 1261.23 515.779C1247.54 510.164 1230.38 512.62 1210.24 523.061C1173.95 541.889 1148.34 534.975 1133.25 525.851C1114.66 514.638 1103.49 494.582 1103.44 481.685V460.12H1101.68V481.632C1101.68 495.021 1113.21 515.761 1132.33 527.255C1147.81 536.607 1174.05 543.714 1211.05 524.517C1230.72 514.322 1247.37 511.883 1260.56 517.288C1277.54 524.307 1283.49 542.099 1283.49 542.275C1283.97 543.834 1284.94 545.196 1286.27 546.155C1287.6 547.114 1289.2 547.618 1290.84 547.592V547.592Z" fill="#081E7A"/>
<path d="M1131.25 471.473C1137.05 471.581 1142.78 470.216 1147.9 467.507C1150.42 466.17 1152.51 464.166 1153.95 461.716C1154.64 460.436 1169.08 407.321 1171.97 396.793L1170.21 396.336C1165.47 413.743 1153.01 459.295 1152.29 460.962C1151.03 463.103 1149.2 464.858 1147 466.033C1138.31 471.016 1124.07 471.016 1115.47 466.033L1080.92 446.187C1078.45 444.926 1076.46 442.908 1075.24 440.432C1074.73 438.905 1063.67 389.546 1057.89 363.523L1056.12 363.892C1058.96 376.596 1073.09 439.993 1073.58 441.099C1074.95 443.929 1077.2 446.24 1080 447.679L1114.55 467.524C1119.69 470.236 1125.44 471.596 1131.25 471.473V471.473Z" fill="#081E7A"/>
<path d="M1144.3 404.706C1149.49 404.71 1154.65 404.019 1159.65 402.653C1174.18 398.617 1182.86 390.774 1182.86 381.597V365.278H1181.09V381.597C1181.09 389.739 1172.7 397.126 1159.17 400.899C1151.7 402.884 1143.91 403.375 1136.25 402.345C1128.59 401.315 1121.21 398.784 1114.53 394.897L1059.53 363.313C1052.47 359.242 1048.59 353.855 1048.77 348.187C1048.95 342.52 1048.77 330.272 1048.77 330.149H1047.01C1047.01 330.272 1047.09 342.695 1047.01 348.117C1046.81 354.469 1050.96 360.4 1058.65 364.822L1113.65 396.407C1122.97 401.786 1133.53 404.648 1144.3 404.706V404.706Z" fill="#081E7A"/>
<path d="M1091.57 367.91L1092.47 366.401L1059.49 347.257C1052.76 343.344 1049.03 338.133 1049.02 332.588C1049 327.043 1052.65 321.849 1059.3 317.901C1064.08 315.195 1069.3 313.343 1074.73 312.427L1074.41 310.672C1068.78 311.616 1063.36 313.54 1058.4 316.357C1051.19 320.639 1047.22 326.394 1047.25 332.553C1047.29 338.712 1051.31 344.502 1058.61 348.731L1091.57 367.91Z" fill="#081E7A"/>
<path d="M1142.86 388.493C1153.1 388.493 1163.33 386.106 1171.07 381.334C1177.78 377.175 1181.43 371.525 1181.34 365.419C1181.25 359.312 1177.19 353.434 1170.23 349.381L1154.36 340.116L1153.46 341.625L1169.33 350.89C1175.75 354.627 1179.49 359.926 1179.58 365.454C1179.66 370.981 1176.29 375.982 1170.14 379.86C1155.89 388.633 1131.34 388.949 1116.63 380.386L1108.43 375.631L1107.55 377.14L1115.63 381.913C1123.98 386.403 1133.36 388.669 1142.86 388.493Z" fill="#081E7A"/>
<path d="M1134.5 330.71L1135.4 329.201L1113.05 316.234C1106.6 312.687 1099.45 310.562 1092.1 310.005L1091.94 311.76C1099.01 312.31 1105.88 314.35 1112.1 317.743L1134.5 330.71Z" fill="#081E7A"/>
<path d="M1143.16 371.121C1144.35 371.126 1145.53 370.978 1146.68 370.683C1150.32 369.77 1152.57 367.858 1152.86 365.419V305.759C1152.86 304.321 1152.55 302.899 1151.94 301.597C1151.32 300.295 1150.42 299.146 1149.31 298.234C1148.19 297.321 1146.88 296.667 1145.48 296.321C1144.08 295.974 1142.61 295.944 1141.2 296.231C1138.96 296.729 1136.97 297.982 1135.56 299.776C1134.15 301.571 1133.41 303.796 1133.46 306.075V365.138C1133.43 365.295 1133.43 365.454 1133.46 365.612C1133.76 367.963 1135.96 369.823 1139.58 370.735C1140.75 371.018 1141.95 371.148 1143.16 371.121V371.121ZM1143.16 297.74C1144.99 297.723 1146.78 298.343 1148.2 299.494C1149.12 300.244 1149.86 301.186 1150.36 302.255C1150.87 303.323 1151.13 304.49 1151.13 305.671V365.331C1150.93 366.84 1149.12 368.226 1146.28 368.945C1144.25 369.454 1142.12 369.454 1140.09 368.945C1137.23 368.226 1135.43 366.84 1135.29 365.243C1135.3 365.179 1135.3 365.114 1135.29 365.05V306.022C1135.23 304.955 1135.39 303.887 1135.77 302.884C1136.14 301.881 1136.71 300.964 1137.45 300.189C1138.19 299.414 1139.08 298.797 1140.07 298.376C1141.05 297.955 1142.12 297.738 1143.19 297.74H1143.16Z" fill="#081E7A"/>
<path d="M1083.19 338.186C1084.43 338.186 1085.67 338.027 1086.86 337.712C1090.72 336.694 1092.98 334.553 1092.91 331.991V272.683C1092.96 270.403 1092.21 268.177 1090.8 266.383C1089.38 264.589 1087.39 263.336 1085.15 262.839C1083.74 262.551 1082.27 262.582 1080.87 262.928C1079.47 263.275 1078.16 263.929 1077.05 264.842C1075.93 265.755 1075.04 266.904 1074.43 268.206C1073.81 269.508 1073.5 270.93 1073.51 272.367V322.692C1073.51 328.342 1073.51 330.868 1073.67 331.991H1073.53C1073.42 334.536 1075.68 336.677 1079.54 337.712C1080.73 338.028 1081.96 338.187 1083.19 338.186ZM1083.19 264.488C1083.73 264.489 1084.26 264.541 1084.78 264.646C1086.62 265.066 1088.25 266.105 1089.4 267.585C1090.56 269.066 1091.16 270.897 1091.11 272.77V332.114C1091.11 333.869 1089.35 335.308 1086.39 336.097C1084.28 336.659 1082.06 336.659 1079.95 336.097C1076.99 335.308 1075.19 333.799 1075.26 332.132C1075.26 330.904 1075.26 273.034 1075.26 272.472C1075.25 271.29 1075.51 270.122 1076.02 269.053C1076.52 267.985 1077.27 267.042 1078.19 266.295C1079.59 265.09 1081.38 264.418 1083.23 264.4L1083.19 264.488Z" fill="#081E7A"/>
</g>
<defs>
<clipPath id="clip0_0_1">
<rect width="1497" height="1055" fill="white"/>
</clipPath>
</defs>
</svg>
