<svg width="558" height="563" viewBox="0 0 558 563" fill="none" xmlns="http://www.w3.org/2000/svg">
<rect x="38" y="113" width="429" height="397" rx="14" fill="#797EF6"/>
<path opacity="0.2" d="M170.277 225.072L85.7381 274.076C84.6123 274.729 83.181 275.076 81.8062 275.104C80.556 275.132 79.3509 274.894 78.4627 274.377L41.848 253.15C40.9937 252.655 40.5807 251.985 40.592 251.286V247.56L40.6147 247.571C40.6373 246.759 41.22 245.907 42.3741 245.237L126.913 196.233C129.068 194.983 132.327 194.847 134.188 195.932L170.803 217.159C171.64 217.642 172.031 218.295 172.036 218.971L172.059 218.96V222.658C172.07 223.498 171.465 224.384 170.277 225.072Z" fill="#212121"/>
<path opacity="0.2" d="M6.4834 336.656V349.244C6.4834 349.942 6.89639 350.584 7.75631 351.09L238.624 484.918C239.433 485.384 240.502 485.628 241.645 485.651H241.826C243.28 485.651 244.807 485.304 246.001 484.606L417.754 385.047C418.948 384.348 419.565 383.445 419.553 382.61V370.034L419.531 370.045C419.548 369.335 419.152 368.653 418.275 368.148L405.789 360.911L403.481 359.57L408.148 356.867L206.857 240.181L202.19 242.885L199.882 241.55L187.396 234.314C185.506 233.217 182.208 233.354 180.03 234.62L8.2768 334.185C7.0548 334.889 6.47208 335.798 6.50037 336.656H6.4834Z" fill="#212121"/>
<path d="M177.077 215.955L144.479 197.062C142.612 195.983 139.353 196.119 137.203 197.363L92.1024 223.51L55.9968 244.441L50.8826 241.613V245.339C50.8712 246.038 51.2842 246.702 52.1385 247.202L88.7532 268.43C89.6414 268.946 90.8465 269.179 92.0968 269.157C93.4715 269.128 94.9028 268.782 96.0287 268.128L180.567 219.124C181.755 218.437 182.361 217.551 182.349 216.716V213.018L177.077 215.955Z" fill="#67DAFF" stroke="#193174" stroke-width="1.2277" stroke-miterlimit="10"/>
<path d="M52.6705 239.284L137.209 190.28C139.365 189.03 142.623 188.894 144.485 189.978L181.099 211.206C182.966 212.285 182.729 214.177 180.579 215.426L96.0402 264.431C93.8847 265.68 90.626 265.817 88.7648 264.732L52.15 243.504C50.2831 242.419 50.515 240.533 52.6705 239.284Z" fill="#E3FFFF" stroke="#193174" stroke-width="1.2277" stroke-miterlimit="10"/>
<path d="M107.496 211.649L124.208 201.964" stroke="#193174" stroke-width="1.2277" stroke-miterlimit="10"/>
<path d="M124.208 201.964L137.622 194.188L173.835 215.176L99.2196 258.426L63.0122 237.438L107.496 211.649" fill="white"/>
<path d="M124.208 201.964L137.622 194.188L173.835 215.176L99.2196 258.426L63.0122 237.438L107.496 211.649" stroke="#193174" stroke-width="1.2277" stroke-miterlimit="10"/>
<path d="M73.0764 249.451C74.8075 248.452 77.4213 248.338 78.9148 249.207C80.414 250.076 80.2217 251.593 78.4962 252.593C76.765 253.592 74.1513 253.706 72.6577 252.837C71.1585 251.968 71.3452 250.457 73.0764 249.451Z" fill="white" stroke="#193174" stroke-width="1.2277" stroke-miterlimit="10"/>
<path d="M153.944 199.555C154.295 199.351 154.821 199.334 155.121 199.504L164.653 205.031C164.953 205.207 164.919 205.514 164.568 205.713C164.218 205.917 163.691 205.934 163.392 205.764L153.859 200.237C153.559 200.061 153.599 199.754 153.944 199.555Z" fill="#193174"/>
<path d="M137.277 194.347L99.2192 258.012L173.162 215.148L137.277 194.347Z" fill="white"/>
<path d="M419.649 369.647L253.678 460.18L251.941 467.071V445.184L37.2596 330.027L35.2286 328.942L16.7798 330.697V343.285C16.7798 343.984 17.1928 344.626 18.0527 345.131L248.926 478.96C249.735 479.425 250.804 479.67 251.947 479.692H252.128C253.582 479.692 255.109 479.346 256.303 478.647L428.056 379.088C429.25 378.389 429.867 377.486 429.855 376.651V364.075L419.649 369.647Z" fill="#67DAFF" stroke="#193174" stroke-width="1.2277" stroke-miterlimit="10"/>
<path d="M197.698 228.355L428.571 362.189C430.461 363.285 430.223 365.194 428.045 366.461L256.292 466.025C254.114 467.286 250.816 467.428 248.926 466.332L18.0472 332.492C16.1576 331.396 16.3953 329.487 18.5734 328.221L190.327 228.656C192.51 227.395 195.809 227.259 197.698 228.355Z" fill="#E3FFFF" stroke="#193174" stroke-width="1.2277" stroke-miterlimit="10"/>
<path d="M199.435 247.123L396.2 361.184C397.45 361.911 397.292 363.172 395.849 364.013L309.981 413.789C308.538 414.624 306.354 414.715 305.104 413.994L108.34 299.933C107.089 299.206 107.248 297.945 108.69 297.104L194.558 247.322C196.001 246.487 198.185 246.396 199.435 247.123Z" fill="#27AAE1" fill-opacity="0.37"/>
<path d="M373.712 354.163L387.923 362.399L382.073 365.785L367.868 357.548L373.712 354.163Z" fill="#27AAE1" stroke="#193174" stroke-width="1.2277" stroke-miterlimit="10"/>
<path d="M366.097 360.888L378.311 367.966L363.358 376.634L351.144 369.557L366.097 360.888Z" fill="#27AAE1" stroke="#193174" stroke-width="1.2277" stroke-miterlimit="10"/>
<path d="M345.521 366.296L333.307 359.218L348.259 350.544L360.473 357.628L345.521 366.296Z" fill="#27AAE1" stroke="#193174" stroke-width="1.2277" stroke-miterlimit="10"/>
<path d="M327.683 355.958L315.469 348.874L330.421 340.206L342.641 347.29L327.683 355.958Z" fill="#27AAE1" stroke="#193174" stroke-width="1.2277" stroke-miterlimit="10"/>
<path d="M312.589 329.868L324.803 336.952L309.845 345.62L297.631 338.536L312.589 329.868Z" fill="#27AAE1" stroke="#193174" stroke-width="1.2277" stroke-miterlimit="10"/>
<path d="M294.751 319.53L306.966 326.607L292.013 335.276L279.799 328.198L294.751 319.53Z" fill="#27AAE1" stroke="#193174" stroke-width="1.2277" stroke-miterlimit="10"/>
<path d="M276.913 309.186L289.128 316.269L274.175 324.938L261.961 317.86L276.913 309.186Z" fill="#27AAE1" stroke="#193174" stroke-width="1.2277" stroke-miterlimit="10"/>
<path d="M256.337 314.599L244.123 307.516L259.076 298.848L271.29 305.931L256.337 314.599Z" fill="#27AAE1" stroke="#193174" stroke-width="1.2277" stroke-miterlimit="10"/>
<path d="M238.499 304.261L226.285 297.178L241.243 288.51L253.458 295.593L238.499 304.261Z" fill="#27AAE1" stroke="#193174" stroke-width="1.2277" stroke-miterlimit="10"/>
<path d="M220.667 293.917L208.453 286.84L223.406 278.171L235.62 285.249L220.667 293.917Z" fill="#27AAE1" stroke="#193174" stroke-width="1.2277" stroke-miterlimit="10"/>
<path d="M202.829 283.579L172.777 266.157L187.73 257.489L217.782 274.911L202.829 283.579Z" fill="#27AAE1" stroke="#193174" stroke-width="1.2277" stroke-miterlimit="10"/>
<path d="M344.638 387.489L314.586 370.068L329.544 361.4L359.591 378.821L344.638 387.489Z" fill="#27AAE1" stroke="#193174" stroke-width="1.2277" stroke-miterlimit="10"/>
<path d="M308.968 366.807L296.748 359.73L311.706 351.056L323.921 358.139L308.968 366.807Z" fill="#27AAE1" stroke="#193174" stroke-width="1.2277" stroke-miterlimit="10"/>
<path d="M293.869 340.718L306.083 347.801L291.13 356.469L278.916 349.386L293.869 340.718Z" fill="#27AAE1" stroke="#193174" stroke-width="1.2277" stroke-miterlimit="10"/>
<path d="M276.031 330.379L288.245 337.463L273.292 346.131L261.078 339.048L276.031 330.379Z" fill="#27AAE1" stroke="#193174" stroke-width="1.2277" stroke-miterlimit="10"/>
<path d="M258.193 320.041L270.413 327.119L255.455 335.787L243.241 328.709L258.193 320.041Z" fill="#27AAE1" stroke="#193174" stroke-width="1.2277" stroke-miterlimit="10"/>
<path d="M237.617 325.449L225.403 318.371L240.361 309.697L252.575 316.781L237.617 325.449Z" fill="#27AAE1" stroke="#193174" stroke-width="1.2277" stroke-miterlimit="10"/>
<path d="M219.785 315.111L207.57 308.027L222.523 299.359L234.737 306.442L219.785 315.111Z" fill="#27AAE1" stroke="#193174" stroke-width="1.2277" stroke-miterlimit="10"/>
<path d="M201.947 304.772L189.733 297.689L204.685 289.021L216.9 296.104L201.947 304.772Z" fill="#27AAE1" stroke="#193174" stroke-width="1.2277" stroke-miterlimit="10"/>
<path d="M328.662 382.587L340.876 389.671L325.918 398.339L313.704 391.255L328.662 382.587Z" fill="#27AAE1" stroke="#193174" stroke-width="1.2277" stroke-miterlimit="10"/>
<path d="M308.086 388.001L295.872 380.917L310.824 372.249L323.038 379.332L308.086 388.001Z" fill="#27AAE1" stroke="#193174" stroke-width="1.2277" stroke-miterlimit="10"/>
<path d="M290.248 377.657L278.034 370.579L292.986 361.911L305.201 368.989L290.248 377.657Z" fill="#27AAE1" stroke="#193174" stroke-width="1.2277" stroke-miterlimit="10"/>
<path d="M275.148 351.567L287.363 358.65L272.41 367.318L260.196 360.241L275.148 351.567Z" fill="#27AAE1" stroke="#193174" stroke-width="1.2277" stroke-miterlimit="10"/>
<path d="M257.316 341.229L269.53 348.312L254.572 356.98L242.358 349.897L257.316 341.229Z" fill="#27AAE1" stroke="#193174" stroke-width="1.2277" stroke-miterlimit="10"/>
<path d="M239.478 330.891L251.693 337.968L236.74 346.642L224.526 339.559L239.478 330.891Z" fill="#27AAE1" stroke="#193174" stroke-width="1.2277" stroke-miterlimit="10"/>
<path d="M218.902 336.298L206.688 329.22L221.641 320.552L233.855 327.63L218.902 336.298Z" fill="#27AAE1" stroke="#193174" stroke-width="1.2277" stroke-miterlimit="10"/>
<path d="M201.064 325.96L188.85 318.882L203.803 310.208L216.017 317.292L201.064 325.96Z" fill="#27AAE1" stroke="#193174" stroke-width="1.2277" stroke-miterlimit="10"/>
<path d="M183.227 315.622L171.012 308.538L185.97 299.87L198.185 306.954L183.227 315.622Z" fill="#27AAE1" stroke="#193174" stroke-width="1.2277" stroke-miterlimit="10"/>
<path d="M165.395 305.284L153.175 298.2L168.133 289.532L180.347 296.61L165.395 305.284Z" fill="#27AAE1" stroke="#193174" stroke-width="1.2277" stroke-miterlimit="10"/>
<path d="M307.203 409.188L277.151 391.767L292.103 383.098L322.156 400.52L307.203 409.188Z" fill="#27AAE1" stroke="#193174" stroke-width="1.2277" stroke-miterlimit="10"/>
<path d="M271.527 388.512L259.313 381.428L274.266 372.76L286.486 379.844L271.527 388.512Z" fill="#27AAE1" stroke="#193174" stroke-width="1.2277" stroke-miterlimit="10"/>
<path d="M182.344 336.809L170.13 329.732L185.088 321.063L197.302 328.141L182.344 336.809Z" fill="#27AAE1" stroke="#193174" stroke-width="1.2277" stroke-miterlimit="10"/>
<path d="M164.512 326.471L152.298 319.394L167.25 310.72L179.465 317.803L164.512 326.471Z" fill="#27AAE1" stroke="#193174" stroke-width="1.2277" stroke-miterlimit="10"/>
<path d="M146.674 316.133L116.622 298.711L131.575 290.043L161.627 307.465L146.674 316.133Z" fill="#27AAE1" stroke="#193174" stroke-width="1.2277" stroke-miterlimit="10"/>
<path d="M253.69 378.168L187.968 340.07L202.92 331.402L268.648 369.5L253.69 378.168Z" fill="#27AAE1" stroke="#193174" stroke-width="1.2277" stroke-miterlimit="10"/>
<path d="M362.476 354.424L348.27 346.188L354.114 342.802L368.326 351.039L362.476 354.424Z" fill="#27AAE1" stroke="#193174" stroke-width="1.2277" stroke-miterlimit="10"/>
<path d="M342.884 343.063L328.673 334.827L334.517 331.441L348.728 339.678L342.884 343.063Z" fill="#27AAE1" stroke="#193174" stroke-width="1.2277" stroke-miterlimit="10"/>
<path d="M314.925 320.081L329.131 328.317L323.287 331.703L309.076 323.466L314.925 320.081Z" fill="#27AAE1" stroke="#193174" stroke-width="1.2277" stroke-miterlimit="10"/>
<path d="M295.328 308.72L309.534 316.957L303.69 320.348L289.479 312.111L295.328 308.72Z" fill="#27AAE1" stroke="#193174" stroke-width="1.2277" stroke-miterlimit="10"/>
<path d="M275.731 297.36L289.937 305.596L284.093 308.987L269.881 300.751L275.731 297.36Z" fill="#27AAE1" stroke="#193174" stroke-width="1.2277" stroke-miterlimit="10"/>
<path d="M256.134 285.999L270.34 294.235L264.496 297.626L250.284 289.39L256.134 285.999Z" fill="#27AAE1" stroke="#193174" stroke-width="1.2277" stroke-miterlimit="10"/>
<path d="M236.536 274.638L250.742 282.875L244.898 286.266L230.692 278.029L236.536 274.638Z" fill="#27AAE1" stroke="#193174" stroke-width="1.2277" stroke-miterlimit="10"/>
<path d="M216.939 263.278L231.145 271.514L225.301 274.905L211.095 266.669L216.939 263.278Z" fill="#27AAE1" stroke="#193174" stroke-width="1.2277" stroke-miterlimit="10"/>
<path d="M211.548 260.153L205.704 263.545L191.498 255.308L197.342 251.923L211.548 260.153Z" fill="#27AAE1" stroke="#193174" stroke-width="1.2277" stroke-miterlimit="10"/>
<path d="M184.109 294.429L166.271 284.09L147.557 294.94L135.342 287.862L169.015 268.339L199.067 285.76L184.109 294.429Z" fill="#27AAE1" stroke="#193174" stroke-width="1.2277" stroke-miterlimit="10"/>
<path d="M162.187 337.911L239.574 382.775C241.277 383.763 241.068 385.49 239.099 386.632L184.675 418.18C182.706 419.322 179.73 419.447 178.022 418.458L100.634 373.595C98.9312 372.607 99.1406 370.88 101.109 369.738L155.534 338.19C157.508 337.048 160.484 336.923 162.187 337.911Z" fill="#27AAE1" fill-opacity="0.37" stroke="#193174" stroke-width="1.2277" stroke-miterlimit="10"/>
<path d="M407.56 388.512L421.171 380.622V373.203L407.56 381.093V388.512Z" fill="#193174"/>
<path d="M391.267 397.941L404.873 390.051V382.633L391.267 390.523V397.941Z" fill="#193174"/>
<path d="M363.042 412.363L369.757 408.472V404.814L363.042 408.705V412.363Z" fill="#193174"/>
<path d="M357.282 413.744C357.282 414.681 357.848 415.113 358.549 414.709C359.251 414.3 359.817 413.215 359.817 412.278C359.817 411.341 359.251 410.909 358.549 411.312C357.854 411.716 357.282 412.806 357.282 413.744Z" fill="#193174"/>
<path d="M437.849 151.222C437.221 149.779 436.248 148.535 435.157 147.904L204.278 14.0645C203.542 13.6328 202.858 13.5589 202.303 13.7748L201.245 14.7688L198.462 17.4216L200.866 18.8984L423.808 155.402L433.974 153.619L423.808 169.376L433.884 355.446L434.116 359.684L437.346 356.401C438.098 355.986 438.585 354.992 438.585 353.589V154.465C438.585 153.403 438.319 152.267 437.849 151.222Z" fill="#27AAE1"/>
<path fill-rule="evenodd" clip-rule="evenodd" d="M204.679 13.3692L204.681 13.3704L435.555 147.207C436.84 147.949 437.908 149.353 438.58 150.894C439.089 152.028 439.385 153.275 439.385 154.465V353.589C439.385 355.088 438.88 356.401 437.84 357.041L434.815 360.058L422.995 169.158L432.306 154.727L423.649 156.246L197.154 17.5601L200.699 14.1816L201.87 13.0814L202.015 13.0252C202.853 12.6987 203.794 12.8503 204.679 13.3692ZM202.717 14.4861L201.794 15.3539L199.77 17.2828L423.967 154.559L435.643 152.51L424.621 169.594L434.682 355.402L434.815 357.83L436.859 355.752L436.962 355.696C437.352 355.481 437.785 354.844 437.785 353.589V154.465C437.785 153.531 437.55 152.508 437.121 151.552L437.117 151.544C436.533 150.201 435.656 149.119 434.758 148.601L203.875 14.7584C203.373 14.4638 202.987 14.425 202.717 14.4861Z" fill="#193174"/>
<path d="M431.796 151.278L200.923 17.4443C199.033 16.348 197.506 17.5124 197.506 20.0402V219.17C197.506 221.697 199.039 224.634 200.923 225.731L217.929 235.586C217.624 235.682 217.329 235.802 217.064 235.955L213.601 237.96L210.088 235.927L205.143 238.795C202.699 240.21 202.433 242.357 204.549 243.584L405.274 359.945C407.39 361.172 411.09 361.019 413.534 359.599L418.479 356.73L414.886 354.651L418.348 352.646C418.614 352.493 418.812 352.322 418.982 352.146L431.79 359.57C433.68 360.667 435.208 359.502 435.208 356.974V157.839C435.213 155.311 433.686 152.375 431.796 151.278Z" fill="#E3FFFF" stroke="#193174" stroke-width="1.2277" stroke-miterlimit="10"/>
<path d="M255.941 70.2543L423.802 167.558V336.923L208.917 212.359V42.9944L233.855 57.4508" fill="white"/>
<path d="M255.941 70.2543L423.802 167.558V336.923L208.917 212.359V42.9944L233.855 57.4508" stroke="#193174" stroke-width="1.2277" stroke-miterlimit="10"/>
<path d="M314.297 99.0933C314.297 100.621 315.22 102.394 316.362 103.052C317.499 103.711 318.427 103.013 318.427 101.485C318.427 99.9567 317.505 98.1844 316.362 97.5255C315.22 96.8666 314.297 97.5709 314.297 99.0933Z" fill="#091E7A"/>
<path d="M418.388 356.452L413.477 359.269C411.05 360.661 407.367 360.797 405.257 359.576L204.9 243.43C202.784 242.203 203.044 240.085 205.471 238.687L210.382 235.87L418.388 356.452Z" fill="#27AAE1" fill-opacity="0.37"/>
<path d="M209.76 235.347L346.364 314.531" stroke="#193174" stroke-width="1.2277" stroke-miterlimit="10" stroke-linecap="round" stroke-linejoin="round"/>
<path d="M418.388 356.452L385.27 337.252" stroke="#193174" stroke-width="1.2277" stroke-miterlimit="10" stroke-linecap="round" stroke-linejoin="round"/>
<path d="M224.648 72.8206L404.801 174.987V201.072L224.648 98.9055V72.8206Z" fill="#D9D9D9"/>
<path d="M224.648 111.948L320.694 166.291V173.899L224.648 119.556V111.948Z" fill="#D9D9D9"/>
<path d="M224.648 124.99L320.694 179.334V186.942L224.648 132.598V124.99Z" fill="#D9D9D9"/>
<path d="M224.648 136.946L320.694 191.29V198.898L224.648 144.554V136.946Z" fill="#D9D9D9"/>
<path d="M224.648 156.51L320.694 210.853V253.241L224.648 198.898V156.51Z" fill="#D9D9D9"/>
<path d="M331.003 172.269L402.088 210.853V298.347L331.003 259.763V172.269Z" fill="#D9D9D9"/>
<path d="M137.285 196.724L169.3 215.201L160.618 220.092L129.146 201.615L137.285 196.724Z" fill="#D9D9D9"/>
<path d="M125.89 204.332L141.083 213.57L132.944 217.918L118.293 208.68L125.89 204.332Z" fill="#D9D9D9"/>
<path d="M115.037 210.853L130.231 220.092L122.091 224.439L107.44 215.201L115.037 210.853Z" fill="#D9D9D9"/>
<path d="M104.185 217.375L119.378 226.613L111.239 230.96L96.5879 221.722L104.185 217.375Z" fill="#D9D9D9"/>
<path d="M90.6189 223.896L105.813 233.134L84.65 245.09L69.999 235.851L90.6189 223.896Z" fill="#D9D9D9"/>
<path d="M144.339 215.201L155.735 222.265L99.8438 254.328L88.9912 247.263L144.339 215.201Z" fill="#D9D9D9"/>
</svg>
