<svg width="206" height="262" viewBox="0 0 206 262" fill="none" xmlns="http://www.w3.org/2000/svg">
<g clip-path="url(#clip0_803_2258)">
<path opacity="0.08" d="M96.1593 256.471C108.993 263.839 129.822 263.839 142.667 256.471C155.512 249.102 155.501 237.157 142.667 229.789C129.833 222.42 108.993 222.42 96.1593 229.789C83.3255 237.157 83.3143 249.102 96.1593 256.471Z" fill="black"/>
<path d="M171.802 230.398C197.314 221.445 205.744 197.589 205.744 159.992V117.454C205.677 117.428 205.613 117.394 205.554 117.354C192.508 109.875 181.927 91.6696 181.927 76.7108C181.92 74.742 182.14 72.7789 182.585 70.8603L121.76 5.25224L60.5121 0.554077L52.6178 5.07495L55.4611 9.59582L53.7774 23.7235L50.2094 24.0781C46.5632 24.6211 42.2593 23.6792 37.6319 21.0199L29.7376 25.5408L43.2962 31.2029L57.6019 28.3774L171.802 230.398Z" fill="#67DAFF"/>
<path d="M58.5163 168.69C62.1289 175.258 66.0464 181.703 70.2686 188.026L113.286 252.98L157.597 238.121C183.109 229.168 197.938 202.109 197.938 164.513V121.997L197.749 121.908C184.703 114.418 174.122 96.2125 174.122 81.2537C174.114 79.2849 174.335 77.3218 174.779 75.4032L113.955 9.77299L52.707 5.07483C53.16 7.35636 53.3989 9.67476 53.4206 12.0002C53.4206 26.9589 42.8502 33.0533 29.8045 25.5406C29.7376 25.5406 29.7376 67.8352 29.7376 67.8352C29.9037 85.1172 32.5814 102.285 37.6877 118.806L58.5163 168.69Z" fill="#E3FFFF"/>
<path d="M57.2229 135.105C48.0351 112.058 42.9506 88.7442 42.9506 68.0346V42.4164C54.7141 41.1643 63.3332 32.5879 65.7862 20.0558L106.908 23.2027L159.693 80.1568C159.693 80.5778 159.693 80.9878 159.693 81.4089C159.693 98.6281 169.528 117.809 183.432 129.055V164.38C183.432 195.971 172.07 218.077 152.278 225.024L118.192 236.459L81.1066 180.414C76.4939 173.515 72.2364 166.389 68.3508 159.061L57.2229 135.105Z" fill="white"/>
<path d="M78.0514 119.604C77.1132 115.449 76.6272 111.207 76.6019 106.95C76.6019 83.5253 93.2269 74.0736 113.732 85.8965C134.237 97.7195 150.873 126.197 150.873 149.621C150.873 173.045 134.248 182.442 113.732 170.641C105.559 165.954 97.9991 158.585 91.8665 149.953L78.0514 119.604Z" fill="#67DAFF"/>
<path d="M97.2075 143.028L105.124 138.252L91.755 115.227L48.3473 139.925L21.7094 94.1405L13.8374 99.0824L40.1519 148.746L97.2075 143.028Z" fill="#27AAE1"/>
<path d="M97.2075 143.028L83.9053 120.202L40.4641 144.834L13.8374 99.0824L0.568665 106.617L40.4752 175.195L97.2075 143.028Z" fill="#67DAFF"/>
<path d="M29.9718 26.0282L29.4142 25.0642L37.3086 20.5433C37.3933 20.4947 37.4895 20.4691 37.5873 20.4691C37.6852 20.4691 37.7813 20.4947 37.8661 20.5433C42.2258 23.0476 46.4406 24.078 50.0756 23.5351L50.2428 24.6432C46.4406 25.2083 42.0697 24.1888 37.5873 21.6736L29.9718 26.0282Z" fill="#081E7A"/>
<path d="M171.434 230.919L171.055 229.877C194.582 221.622 204.629 200.713 204.629 159.992V117.809C191.482 110.218 180.812 91.8136 180.812 76.7329C180.811 74.8187 181.013 72.9097 181.414 71.0375L120.946 5.78404L60.0773 1.10805L52.3391 5.54027L51.7816 4.57626L59.6759 0.0775532C59.7732 0.0196018 59.886 -0.00745764 59.9993 -1.07833e-05L121.247 4.69815C121.388 4.71088 121.518 4.7739 121.615 4.87544L182.44 70.5056C182.499 70.5727 182.543 70.6527 182.566 70.7392C182.589 70.8258 182.592 70.9165 182.573 71.0043C182.141 72.8834 181.924 74.8052 181.927 76.7329C181.927 91.4922 192.408 109.52 205.275 116.9L205.454 117C205.541 117.046 205.614 117.114 205.665 117.198C205.716 117.282 205.743 117.378 205.744 117.476V159.992C205.744 201.267 195.485 222.476 171.434 230.919Z" fill="#081E7A"/>
<path d="M113.844 253.534C113.75 253.535 113.658 253.512 113.576 253.468C113.494 253.423 113.425 253.358 113.375 253.28L70.3689 188.37C66.1764 182.109 62.207 175.594 58.5832 169.001L59.5532 168.469C63.177 175.04 67.1242 181.522 71.2944 187.76L114.067 252.36L157.976 237.645C183.365 228.725 197.938 202.087 197.938 164.513V122.329C184.803 114.739 174.122 96.3344 174.122 81.2537C174.121 79.3395 174.322 77.4305 174.724 75.5583L114.256 10.3049L53.9447 5.68426C54.3217 7.76909 54.5194 9.88203 54.5356 12.0002C54.5356 19.4463 51.9822 25.0088 47.3437 27.6681C42.8837 30.2166 37.0856 29.7956 30.8972 26.4825C30.8972 31.3579 30.8972 54.9041 30.8972 67.8352C30.8972 84.0682 33.484 100.678 38.825 118.617L37.71 118.928C32.3356 100.9 29.7376 84.2122 29.7376 67.8352C29.7376 67.8352 29.7376 57.2754 29.7376 46.7045C29.7376 25.2415 29.7376 25.2415 30.0832 25.0642C30.1659 25.0154 30.2603 24.9897 30.3564 24.9897C30.4526 24.9897 30.5469 25.0154 30.6296 25.0642C36.7957 28.5767 42.5046 29.164 46.8308 26.7152C51.1571 24.2664 53.4652 19.0253 53.4652 12.0002C53.4456 9.71186 53.2104 7.43038 52.7627 5.18564C52.7445 5.10139 52.7472 5.014 52.7705 4.931C52.7938 4.84801 52.8371 4.77188 52.8965 4.70917C52.954 4.6462 53.0248 4.59665 53.1039 4.56408C53.1829 4.53151 53.2682 4.51673 53.3537 4.5208L114.602 9.21896C114.742 9.23169 114.873 9.29471 114.97 9.39625L175.794 75.0265C175.854 75.0935 175.897 75.1735 175.92 75.26C175.944 75.3466 175.946 75.4374 175.928 75.5251C175.495 77.4042 175.278 79.326 175.281 81.2537C175.281 96.013 185.762 114.041 198.63 121.421L198.451 121.953L198.808 121.521C198.895 121.567 198.968 121.635 199.019 121.719C199.07 121.803 199.097 121.899 199.098 121.997V164.513C199.098 202.542 184.257 229.556 158.389 238.642L114.067 253.501C113.996 253.529 113.919 253.54 113.844 253.534Z" fill="#081E7A"/>
<path d="M118.783 237.013C118.691 237.013 118.601 236.99 118.519 236.948C118.438 236.905 118.368 236.844 118.315 236.77L81.2069 180.713C76.585 173.803 72.3165 166.665 68.4176 159.327L69.3989 158.807C73.2903 166.12 77.572 173.278 82.1324 180.104L119.017 235.806L152.669 224.514C172.226 217.645 183.443 195.705 183.443 164.391V129.321C169.238 117.72 159.704 98.4952 159.704 81.409C159.704 81.0544 159.704 80.7109 159.704 80.3674L107.243 23.7457L66.8232 20.6431C64.2029 33.009 55.5392 41.4857 44.0656 42.904V68.0347C44.0656 88.434 48.9828 111.548 58.3044 134.895L57.2674 135.305C47.9459 111.836 42.9506 88.567 42.9506 68.0347V42.4164C42.9496 42.2803 42.9991 42.1486 43.0895 42.0464C43.18 41.9442 43.3052 41.8787 43.4412 41.8624C54.8144 40.6546 63.3889 32.2666 65.7862 19.945C65.8082 19.8097 65.882 19.6881 65.9921 19.6055C66.1022 19.5229 66.2402 19.4858 66.3771 19.5018L107.499 22.6487C107.639 22.6614 107.77 22.7245 107.867 22.826L160.697 79.7801C160.747 79.8335 160.785 79.8964 160.81 79.9649C160.835 80.0334 160.846 80.1063 160.842 80.179C160.842 80.589 160.842 80.999 160.842 81.409C160.842 98.2625 170.297 117.243 184.369 128.634C184.435 128.685 184.489 128.751 184.525 128.826C184.562 128.901 184.581 128.983 184.58 129.066V164.391C184.58 196.237 173.085 218.531 153.059 225.567L118.984 236.991L118.783 237.013Z" fill="#081E7A"/>
<path d="M205.438 117.016L197.368 121.697L197.93 122.654L206 117.973L205.438 117.016Z" fill="#081E7A"/>
<path d="M182.282 70.3893L174.381 74.9171L174.938 75.877L182.839 71.3492L182.282 70.3893Z" fill="#081E7A"/>
<path d="M62.207 131.227C53.2534 107.825 48.5257 84.2124 48.5257 62.8823V44.7766H49.6407V62.8823C49.6407 84.0572 54.3461 107.559 63.2551 130.828L62.207 131.227Z" fill="#081E7A"/>
<path d="M122.507 231.506L86.0238 176.391C81.7461 169.998 77.8048 163.389 74.2158 156.591L75.2081 156.081C78.7888 162.843 82.7151 169.419 86.9716 175.782L123.466 230.897L122.507 231.506Z" fill="#081E7A"/>
<path d="M130.368 176.303C125.172 176.303 119.408 174.574 113.442 171.15C105.447 166.563 97.8319 159.361 91.3982 150.308L92.3014 149.665C98.6458 158.585 106.15 165.688 114 170.198C123.778 175.804 132.955 176.724 139.768 172.801C146.581 168.879 150.305 160.613 150.305 149.532C150.305 126.319 133.802 97.9744 113.442 86.3177C103.675 80.7109 94.4868 79.7801 87.6852 83.7137C80.8836 87.6473 77.1483 95.9024 77.1483 106.983C77.1767 111.2 77.6627 115.402 78.5978 119.515L77.4828 119.748C76.5292 115.558 76.0357 111.278 76.0109 106.983C76.0109 95.4813 79.9469 86.8939 87.1611 82.783C94.3753 78.6721 103.886 79.5807 114.033 85.398C134.661 97.232 151.453 126.03 151.453 149.599C151.453 161.1 147.506 169.688 140.303 173.799C137.272 175.49 133.844 176.354 130.368 176.303Z" fill="#081E7A"/>
<path d="M97.4862 143.504L96.9064 142.551L104.355 138.053L91.532 115.98L48.6149 140.358C48.4862 140.429 48.3341 140.447 48.192 140.408C48.0499 140.369 47.9293 140.275 47.8567 140.147L21.5088 94.9161L14.1162 99.5478L13.5252 98.617L21.3973 93.6862C21.4611 93.6458 21.5328 93.619 21.6076 93.6075C21.6825 93.5961 21.7589 93.6002 21.8321 93.6197C21.9043 93.6361 21.9724 93.6672 22.0319 93.7111C22.0914 93.7549 22.141 93.8106 22.1778 93.8745L48.5368 139.172L91.4651 114.795C91.5944 114.726 91.7455 114.709 91.8868 114.748C92.0281 114.788 92.1487 114.88 92.2233 115.005L105.604 138.031C105.677 138.154 105.699 138.302 105.663 138.441C105.627 138.58 105.538 138.699 105.414 138.773L97.4862 143.504Z" fill="#081E7A"/>
<path d="M40.4641 175.749C40.3668 175.748 40.2714 175.722 40.1872 175.674C40.1031 175.625 40.0333 175.556 39.9846 175.472L0.0780541 106.894C0.0478713 106.828 0.0322571 106.756 0.0322571 106.684C0.0322571 106.611 0.0478713 106.539 0.0780541 106.473C0.118548 106.334 0.210087 106.216 0.334509 106.141L13.5475 98.6171C13.6768 98.5482 13.8279 98.5317 13.9692 98.5709C14.1105 98.6101 14.2311 98.7021 14.3057 98.8276L40.6536 144.047L83.6265 119.67C83.7558 119.601 83.9069 119.585 84.0482 119.624C84.1895 119.663 84.3101 119.755 84.3847 119.881L97.6869 142.707C97.7261 142.769 97.7514 142.838 97.761 142.911C97.7707 142.984 97.7644 143.058 97.7427 143.128C97.7254 143.198 97.6937 143.263 97.6496 143.321C97.6054 143.378 97.5498 143.425 97.4862 143.46L40.754 175.594C40.6728 175.67 40.5728 175.723 40.4641 175.749ZM1.31573 106.828L40.6648 174.419L96.4158 142.806L83.6934 120.956L40.7317 145.333C40.603 145.405 40.4509 145.423 40.3088 145.383C40.1667 145.344 40.0461 145.25 39.9735 145.122L13.6144 99.836L1.31573 106.828Z" fill="#081E7A"/>
</g>
<defs>
<clipPath id="clip0_803_2258">
<rect width="206" height="262" fill="white"/>
</clipPath>
</defs>
</svg>
