<?xml version="1.0" encoding="utf-8"?>
<!-- Generator: Adobe Illustrator 25.4.1, SVG Export Plug-In . SVG Version: 6.00 Build 0)  -->
<svg version="1.1" id="Capa_1" xmlns="http://www.w3.org/2000/svg" xmlns:xlink="http://www.w3.org/1999/xlink" x="0px" y="0px"
	 viewBox="0 0 289 330" style="enable-background:new 0 0 289 330;" xml:space="preserve">
<style type="text/css">
	.st0{fill:#249DCF;}
	.st1{fill:#E0FCFD;}
	.st2{fill:#67DAFF;}
	.st3{fill:#27AAE1;}
	.st4{fill:none;stroke:#09227D;stroke-linecap:round;stroke-miterlimit:10;}
	.st5{fill:none;stroke:#09227D;stroke-width:1.2554;stroke-linecap:round;stroke-miterlimit:10;}
	.st6{fill:#797EF6;}
	.st7{fill:#193174;}
	.st8{fill:#081F51;}
	.st9{fill:#E3FFFF;}
	.st10{fill:#081E7A;}
	.st11{opacity:0.1;}
	.st12{fill:#D268CC;}
	.st13{fill:#FFFFFF;}
	.st14{opacity:0.5;fill:#27AAE1;}
	.st15{opacity:0.3;fill:#27AAE1;}
	.st16{opacity:0.5;fill:#FFFFFF;}
	.st17{fill:#284785;}
	.st18{fill:#FAFAFA;}
	.st19{fill:#E1E1E1;}
	.st20{opacity:0.3;}
	.st21{fill:#FFFFFF;stroke:#E1E1E1;stroke-width:1.8258;stroke-miterlimit:10;}
	.st22{fill:none;stroke:#081E7A;stroke-width:4.0449;stroke-miterlimit:10;}
	.st23{fill:none;stroke:#081E7A;stroke-width:1.2481;stroke-miterlimit:10;}
	.st24{fill:#67DAFF;stroke:#1D3582;stroke-width:1.5428;stroke-miterlimit:10;}
	.st25{fill:#DFFFFF;stroke:#1D3582;stroke-width:0.9257;stroke-miterlimit:10;}
	.st26{fill:#DFFFFF;}
	.st27{fill:none;stroke:#1D3582;stroke-width:1.5428;stroke-linecap:round;stroke-linejoin:round;stroke-miterlimit:10;}
	.st28{fill:#67DAFF;stroke:#1D3582;stroke-width:1.5428;stroke-linecap:round;stroke-linejoin:round;stroke-miterlimit:10;}
	.st29{clip-path:url(#SVGID_00000035508197296149864600000007176552501751840406_);}
	.st30{fill:#E1FDFD;}
	.st31{fill:#FBFCFD;}
	.st32{fill:#66D8FD;}
	.st33{fill:#18398B;}
	.st34{fill:#1E3C8D;}
	.st35{fill:#27A9E0;}
	.st36{fill:#27A8DF;}
	.st37{fill:#09227D;}
	.st38{fill:none;stroke:#09227D;stroke-width:0.6171;stroke-linecap:round;stroke-miterlimit:10;}
	
		.st39{clip-path:url(#SVGID_00000035508197296149864600000007176552501751840406_);fill:none;stroke:#09227D;stroke-width:0.6171;stroke-linecap:round;stroke-miterlimit:10;}
	.st40{fill:#5DD4FC;stroke:#1D3582;stroke-width:0.9257;stroke-miterlimit:10;}
	.st41{fill:none;stroke:#081E7A;stroke-width:2.5702;stroke-miterlimit:10;}
	.st42{fill:none;stroke:#09227D;stroke-width:1.2495;stroke-linecap:round;stroke-miterlimit:10;}
	.st43{fill:none;stroke:#09227D;stroke-width:0.901;stroke-linecap:round;stroke-miterlimit:10;}
	.st44{fill:url(#SVGID_00000116922232656561566710000014158817399960810142_);}
	.st45{fill:#FDFDFD;}
	.st46{fill:#E4FBFD;}
	.st47{fill:#233282;}
	.st48{fill:#3A639A;}
	.st49{fill:#4EA7DD;}
	.st50{fill:#7ED6FB;}
	.st51{fill:none;stroke:#081E7A;stroke-width:1.4534;stroke-miterlimit:10;}
	.st52{opacity:0.15;}
	.st53{opacity:0.3;fill:#FFFFFF;}
	.st54{fill:#27AAE1;stroke:#081E7A;stroke-width:1.078;stroke-miterlimit:10;}
	.st55{fill:#E3FFFF;stroke:#081E7A;stroke-width:1.078;stroke-miterlimit:10;}
	.st56{fill:none;stroke:#081E7A;stroke-width:1.078;stroke-linecap:round;stroke-linejoin:round;stroke-miterlimit:10;}
	.st57{opacity:0.4;fill:#193174;}
	.st58{fill:#D268CC;stroke:#193174;stroke-width:0.3593;stroke-miterlimit:10;}
	.st59{fill:#FFFFFF;stroke:#193174;stroke-width:0.3593;stroke-miterlimit:10;}
	.st60{fill:#67DAFF;stroke:#193174;stroke-width:0.3593;stroke-miterlimit:10;}
	.st61{fill:#93D5F0;stroke:#193174;stroke-width:0.0991;stroke-miterlimit:10;}
	.st62{enable-background:new    ;}
	.st63{clip-path:url(#SVGID_00000032635018169599265430000008249286409437131196_);}
	.st64{fill:#B3EDFF;}
	.st65{clip-path:url(#SVGID_00000170995846688752364250000004177711975489537461_);}
	.st66{clip-path:url(#SVGID_00000134937592430856110030000007441320134467272351_);}
	.st67{fill:#93D5F0;stroke:#193174;stroke-width:0.1806;stroke-miterlimit:10;}
	.st68{clip-path:url(#SVGID_00000010279250827661043580000011203064182950772369_);}
	.st69{clip-path:url(#SVGID_00000131354218562045935650000004124617591958665386_);}
	.st70{fill:#6F74E2;}
	.st71{fill:#27AAE1;stroke:#081E7A;stroke-width:3;stroke-miterlimit:10;}
	.st72{fill:#E3FFFF;stroke:#081E7A;stroke-width:3;stroke-miterlimit:10;}
	.st73{fill:none;stroke:#081E7A;stroke-width:3;stroke-linecap:round;stroke-linejoin:round;stroke-miterlimit:10;}
	.st74{clip-path:url(#SVGID_00000055673261556974583810000005337575685602449282_);}
	.st75{opacity:0.47;fill-opacity:0.07;enable-background:new    ;}
	.st76{fill:#091E7A;}
	.st77{fill:#FFFFFF;stroke:#091E7A;stroke-width:0.8723;stroke-miterlimit:10;}
	.st78{fill-rule:evenodd;clip-rule:evenodd;fill:#081E7A;}
	.st79{fill:#0B267F;}
	.st80{fill-rule:evenodd;clip-rule:evenodd;fill:#091E7A;}
	.st81{fill-rule:evenodd;clip-rule:evenodd;fill:#27AAE1;stroke:#091E7A;stroke-miterlimit:10;}
	.st82{fill-rule:evenodd;clip-rule:evenodd;fill:#27AAE1;}
	.st83{fill-rule:evenodd;clip-rule:evenodd;fill:#091E7A;stroke:#091E7A;stroke-miterlimit:10;}
	.st84{fill-rule:evenodd;clip-rule:evenodd;fill:#4F2F5B;}
	.st85{fill-rule:evenodd;clip-rule:evenodd;fill:#FFFFFF;stroke:#091E7A;stroke-width:0.8723;stroke-miterlimit:10;}
	.st86{fill-rule:evenodd;clip-rule:evenodd;fill:#321255;}
	.st87{fill-rule:evenodd;clip-rule:evenodd;fill:url(#SVGID_00000027585977550526758590000004279340872298793379_);}
	
		.st88{fill-rule:evenodd;clip-rule:evenodd;fill:url(#SVGID_00000126289928883113476200000015566148160374096831_);stroke:#091E7A;stroke-miterlimit:10;}
	.st89{fill-rule:evenodd;clip-rule:evenodd;fill:url(#SVGID_00000106828880855969280710000006715420931325010338_);}
	.st90{fill-rule:evenodd;clip-rule:evenodd;fill:#FFFFFF;}
	.st91{opacity:0.5;fill-rule:evenodd;clip-rule:evenodd;fill:#FFFFFF;}
	.st92{fill-rule:evenodd;clip-rule:evenodd;fill:url(#SVGID_00000067205367951386961270000010159369004537831068_);}
	.st93{fill-rule:evenodd;clip-rule:evenodd;fill:url(#SVGID_00000071521504933148410340000013410873906744346240_);}
	.st94{fill-rule:evenodd;clip-rule:evenodd;fill:#FFFFFF;stroke:#091E7A;stroke-miterlimit:10;}
	.st95{fill-rule:evenodd;clip-rule:evenodd;fill:#E3FFFF;}
	.st96{fill-rule:evenodd;clip-rule:evenodd;fill:url(#SVGID_00000065071391961293032840000010695165787075966102_);}
	.st97{fill-rule:evenodd;clip-rule:evenodd;fill:url(#SVGID_00000090973367388383642540000005112764380828017055_);}
	.st98{fill-rule:evenodd;clip-rule:evenodd;fill:url(#SVGID_00000088837787084332634680000009533700975402329779_);}
	.st99{fill-rule:evenodd;clip-rule:evenodd;fill:#31165F;}
	.st100{fill-rule:evenodd;clip-rule:evenodd;fill:url(#SVGID_00000054227579099471713760000012003094822768720809_);}
	.st101{fill:#53345F;}
	.st102{fill-rule:evenodd;clip-rule:evenodd;fill:#53345F;}
	.st103{fill-rule:evenodd;clip-rule:evenodd;fill:url(#SVGID_00000065794890929293811480000010775395986087993260_);}
	.st104{opacity:0.5;fill-rule:evenodd;clip-rule:evenodd;fill:url(#SVGID_00000108308920686195049760000008468582209505184191_);}
	.st105{opacity:0.5;fill-rule:evenodd;clip-rule:evenodd;fill:url(#SVGID_00000000222853270461752750000010677086344224763300_);}
	.st106{fill-rule:evenodd;clip-rule:evenodd;fill:url(#SVGID_00000054252509449485627050000009013293737522076294_);}
	.st107{fill-rule:evenodd;clip-rule:evenodd;fill:#A6345F;}
	.st108{fill-rule:evenodd;clip-rule:evenodd;fill:url(#SVGID_00000089547483633682267480000013290977104452599458_);}
	.st109{fill-rule:evenodd;clip-rule:evenodd;fill:url(#SVGID_00000080168948278374010050000000124449729887752868_);}
	.st110{opacity:0.5;fill-rule:evenodd;clip-rule:evenodd;fill:#31165F;}
	.st111{opacity:0.5;fill-rule:evenodd;clip-rule:evenodd;fill:url(#SVGID_00000046305234903523830760000006932591957933017006_);}
	.st112{fill-rule:evenodd;clip-rule:evenodd;fill:url(#SVGID_00000142138309418523732120000005492089045880455092_);}
	.st113{fill-rule:evenodd;clip-rule:evenodd;fill:url(#SVGID_00000170255047234454450450000002512949673975320740_);}
	.st114{fill-rule:evenodd;clip-rule:evenodd;fill:url(#SVGID_00000148643796157292822460000013195509518747018676_);}
	.st115{fill-rule:evenodd;clip-rule:evenodd;fill:url(#SVGID_00000025422959253068845320000006240899327347628677_);}
	.st116{fill-rule:evenodd;clip-rule:evenodd;fill:url(#SVGID_00000128461338200882936990000015803540709603250568_);}
	.st117{fill-rule:evenodd;clip-rule:evenodd;fill:url(#SVGID_00000138534910012360337770000000551300786585600445_);}
	.st118{fill-rule:evenodd;clip-rule:evenodd;fill:url(#SVGID_00000117674297258196199710000018296251567240386483_);}
	.st119{fill-rule:evenodd;clip-rule:evenodd;fill:url(#SVGID_00000068677026297658435930000005588020912034907576_);}
	.st120{fill-rule:evenodd;clip-rule:evenodd;fill:url(#SVGID_00000048500338342148893420000008989443634870689982_);}
	.st121{fill-rule:evenodd;clip-rule:evenodd;fill:url(#SVGID_00000124145250282538321060000015878129381278747063_);}
	.st122{fill-rule:evenodd;clip-rule:evenodd;fill:url(#SVGID_00000158724551067797068150000011824239417699683722_);}
	.st123{fill-rule:evenodd;clip-rule:evenodd;fill:url(#SVGID_00000142872145054551257920000007277928469140807836_);}
	.st124{fill-rule:evenodd;clip-rule:evenodd;fill:#6F2561;}
	.st125{fill-rule:evenodd;clip-rule:evenodd;fill:url(#SVGID_00000060739386107485955090000016056678336106914953_);}
	.st126{fill-rule:evenodd;clip-rule:evenodd;fill:#FF4C61;}
	.st127{fill-rule:evenodd;clip-rule:evenodd;fill:url(#SVGID_00000058568436611270258430000006635899700921063815_);}
	.st128{fill-rule:evenodd;clip-rule:evenodd;fill:url(#SVGID_00000085230754279493734850000014928187827575238547_);}
	.st129{opacity:0.36;}
	.st130{fill-rule:evenodd;clip-rule:evenodd;fill:url(#SVGID_00000178204022030370376990000008533419775063776414_);}
	.st131{fill-rule:evenodd;clip-rule:evenodd;fill:url(#SVGID_00000140015357051130615760000004868697637876009130_);}
	.st132{fill-rule:evenodd;clip-rule:evenodd;fill:url(#SVGID_00000032619707009664126270000008434815645450942640_);}
	.st133{fill:url(#SVGID_00000102511911609731722930000007661956348838597810_);}
	.st134{fill:url(#SVGID_00000159434863883498152170000017041212116142398386_);}
	.st135{fill:url(#SVGID_00000074433565068709831400000003535640560379998625_);}
	.st136{fill:url(#SVGID_00000113338097146014049840000009784400727523273093_);}
	.st137{fill:url(#SVGID_00000117636733916716226250000016535385052300954246_);}
	.st138{fill:url(#SVGID_00000093879731727492730880000011117488616648294834_);}
	.st139{fill-rule:evenodd;clip-rule:evenodd;fill:url(#SVGID_00000025423603966977527740000002265644909161782194_);}
	.st140{fill-rule:evenodd;clip-rule:evenodd;fill:url(#SVGID_00000117644676477485475450000018407661694121190809_);}
	.st141{fill-rule:evenodd;clip-rule:evenodd;fill:url(#SVGID_00000006688019633085634000000013246577805949643455_);}
	.st142{fill:#3C107B;}
	.st143{fill-rule:evenodd;clip-rule:evenodd;fill:#0054B5;}
	.st144{fill-rule:evenodd;clip-rule:evenodd;fill:#31C7FF;}
	.st145{fill-rule:evenodd;clip-rule:evenodd;fill:url(#SVGID_00000103250236042100534330000013372572727763396536_);}
	.st146{fill-rule:evenodd;clip-rule:evenodd;fill:url(#SVGID_00000088132392714258251980000007233559529087121036_);}
	.st147{fill-rule:evenodd;clip-rule:evenodd;fill:url(#SVGID_00000090975616024137546330000013564636961670860463_);}
	.st148{fill-rule:evenodd;clip-rule:evenodd;fill:url(#SVGID_00000168105216245168123240000015642166280121649851_);}
	.st149{fill-rule:evenodd;clip-rule:evenodd;fill:url(#SVGID_00000013894460986761349960000002107145787892211111_);}
	.st150{fill:#77439F;}
	.st151{fill-rule:evenodd;clip-rule:evenodd;fill:#FF935F;}
	.st152{fill-rule:evenodd;clip-rule:evenodd;fill:url(#SVGID_00000132792775703306457590000013634981021485423547_);}
	.st153{fill-rule:evenodd;clip-rule:evenodd;fill:url(#SVGID_00000062154107952807502640000014600802047315563675_);}
	.st154{fill:url(#SVGID_00000001646248356172194600000002186933171697793189_);}
	.st155{fill-rule:evenodd;clip-rule:evenodd;fill:url(#SVGID_00000054231094990812126330000017541978048047919289_);}
	.st156{fill:url(#SVGID_00000096059017383454478370000013587890212644391846_);}
	.st157{fill-rule:evenodd;clip-rule:evenodd;fill:url(#SVGID_00000033355177398413545420000004256157904181416845_);}
	.st158{fill:url(#SVGID_00000052106535820507668720000004856557860608846014_);}
	.st159{fill:url(#SVGID_00000040566243702229881120000018171239113065790378_);}
	.st160{fill:url(#SVGID_00000041274299045206596720000001252466856597260198_);}
	.st161{fill:url(#SVGID_00000000921964325353586810000016492284237219147960_);}
	.st162{fill:url(#SVGID_00000134224890028249361540000004513467363761705141_);}
	.st163{fill:url(#SVGID_00000013166838721791784120000012105221169784368043_);}
	.st164{fill:url(#SVGID_00000045601628020892060030000000916472265117666998_);}
	.st165{fill:url(#SVGID_00000093873261930636592670000017589632231342194332_);}
	.st166{fill-rule:evenodd;clip-rule:evenodd;fill:none;stroke:#091E7A;stroke-miterlimit:10;}
</style>
<g>
	<path class="st81" d="M280.77,325.62h4.67l-31.61-68.68l0.87-0.3l-3.06-8.48l-1.58,0.59l-33.21-72.17h0l3.95-16.35h4.79
		l-4.23-10.64l-27.97-2.33l-2.66,0.02l0.91-8.44l-0.01,0l4.99-0.19l2.43-10.92l-17.11,1.19l-1.55,10.3h0l1.55-10.3l-3.57,0.25
		l-0.21-2.85l-7.31,0.41l1.41,12.54h6.85l0.81,8.08l-32.16,0.19v12.7h5.36l0.99,6.89l0,0l-36.78,83.53l-1.63-0.86l-3.8,9.15
		l1.51,0.63l-29.09,66.07h2.14h1.58l23.57-46.15l107.78-0.79l-1.4-4.37l-104.58,1.63l7.08-13.86l1.23,0.39l3.92-6.64l-1.45-1
		l39.1-76.58l-0.17-0.2l23.84-0.66l23.96,74.88l-2.11,1.38l2.91,9.44h2.66l0,0l20.01,62.54h3.44h2.49L229.2,278.4l25.07-1.13
		L280.77,325.62z M228.04,273.48l-3.1-13.15l3.1-1.38l-2.45-9.56l-3.34-0.5l-12.39-52.63l30.7,56l-1.32,0.49l4.32,7.76l1.28-0.45
		l7.35,13.41H228.04z"/>
	<polygon class="st82" points="180.38,139.23 172.27,139.23 170.85,126.69 178.16,126.28 178.37,129.14 181.94,128.89 	"/>
	<polygon class="st83" points="153.13,160.21 155.73,178.25 216.84,176.56 220.79,160.21 	"/>
	<polygon class="st82" points="154.12,167.09 84.31,325.62 88.03,325.62 163.28,178.25 	"/>
	<polygon class="st82" points="186.96,177.39 194.13,167.09 205.29,176.88 240.32,325.62 234.39,325.62 	"/>
	<g>
		<polygon class="st83" points="285.44,325.62 216.84,176.56 204.93,176.56 194.13,167.09 237.83,325.62 240.32,325.62 
			209.86,196.27 280.77,325.62 		"/>
		<polygon class="st83" points="196.62,138.62 199.05,127.7 181.94,128.89 180.39,139.19 179.12,139.23 180.38,151.83 
			190.23,151.83 191.63,138.81 191.63,138.81 		"/>
		<polygon class="st83" points="221.36,149.56 193.39,147.24 193.39,160.21 225.58,160.21 		"/>
		<polygon class="st83" points="86.45,325.62 88.03,325.62 163.28,178.25 160.45,174.8 		"/>
	</g>
	<polygon class="st82" points="217.98,274.31 111.87,275.97 110.41,279.48 219.37,278.68 	"/>
	<polygon class="st83" points="228.04,273.48 259.17,273.48 262.73,276.89 228.04,278.45 	"/>
	<polygon class="st84" points="121.67,54.8 121.67,48.5 151.94,54.1 150.72,59 	"/>
	<path class="st83" d="M118.31,21.38l54.07,11.55c4.01,3.8,2.59,20.67-6.13,24.46l-50.17-7.01
		C116.07,50.38,123.66,38.63,118.31,21.38z"/>
	<path class="st85" d="M117.5,21.21c-5.81,1.92-10.39,21.52-1.43,29.16c0,0,4.96-3.54,5.51-14.28
		C122.15,24.97,117.5,21.21,117.5,21.21z"/>
	<path class="st86" d="M119.92,36.4c-0.33,4.84-1.86,7.29-2.84,8.39c-0.48,0.54-0.83,0.75-0.83,0.75
		c-3.66-1.8-5.05-14.32,0.99-19.77c0,0,0.43,0.45,0.94,1.38C119.07,28.76,120.24,31.8,119.92,36.4z"/>
	
		<linearGradient id="SVGID_00000166676181330294889370000001474653922096629389_" gradientUnits="userSpaceOnUse" x1="115.0334" y1="35.9676" x2="119.9721" y2="35.9676">
		<stop  offset="0" style="stop-color:#007CDE"/>
		<stop  offset="1" style="stop-color:#0F4AA4"/>
	</linearGradient>
	<path style="fill-rule:evenodd;clip-rule:evenodd;fill:url(#SVGID_00000166676181330294889370000001474653922096629389_);" d="
		M119.92,36.4c-0.33,4.84-1.86,7.29-2.84,8.39c-3.57-3.71-2-15.11,1.1-17.64C119.07,28.76,120.24,31.8,119.92,36.4z"/>
	<g>
		<path class="st82" d="M243.6,80.5l16.07,3.62c5.47,3.69,8.62,26.78-1.18,33.27l-18.16,3.74L243.6,80.5z"/>
		<path class="st76" d="M243.6,80.5l16.13,3.35l0.05,0.01l0.04,0.03c1.33,0.95,2.12,2.35,2.78,3.73c0.65,1.4,1.13,2.86,1.51,4.35
			c0.75,2.97,1.13,6.03,1.14,9.1c-0.01,3.06-0.34,6.15-1.27,9.11c-0.93,2.92-2.55,5.82-5.23,7.62l-0.08,0.05l-0.09,0.02
			c-6.05,1.27-12.11,2.46-18.17,3.7l-0.59,0.12l0.05-0.6c0.56-6.83,1.18-13.65,1.82-20.43L243.6,80.5z M243.6,80.5l-1.37,20.46
			c-0.46,6.77-0.92,13.49-1.46,20.2l-0.54-0.48c6.05-1.26,12.1-2.55,18.16-3.77l-0.17,0.07c2.43-1.6,3.99-4.28,4.9-7.08
			c0.91-2.83,1.26-5.84,1.28-8.83c-0.01-3-0.3-6-0.98-8.93c-0.34-1.46-0.79-2.9-1.39-4.26c-0.61-1.34-1.36-2.69-2.51-3.54l0.09,0.04
			L243.6,80.5z"/>
	</g>
	
		<linearGradient id="SVGID_00000078730788407601723400000009763194846801391540_" gradientUnits="userSpaceOnUse" x1="142.9661" y1="139.6307" x2="142.9661" y2="37.9844">
		<stop  offset="0" style="stop-color:#67DAFF"/>
		<stop  offset="1" style="stop-color:#FFFFFF"/>
	</linearGradient>
	
		<path style="fill-rule:evenodd;clip-rule:evenodd;fill:url(#SVGID_00000078730788407601723400000009763194846801391540_);stroke:#091E7A;stroke-miterlimit:10;" d="
		M36.7,37.98l204.24,35.74c9.15,2.16,14.05,40.13-3.26,50.75l-200.7,15.16C36.97,139.63,46.98,97.87,36.7,37.98z"/>
	<path class="st83" d="M34.51,34.2l60.33,9.48c19.83,13.65,28.18,78.45-7.13,96.26L28.83,145C28.83,145,63.08,97.49,34.51,34.2z"/>
	<path class="st85" d="M33.67,34.09C0.98,45.42-12.15,117.01,28.83,145c0,0,23.12-16.89,23.89-56.68
		C53.51,47.11,33.67,34.09,33.67,34.09z"/>
	<path class="st80" d="M50.37,90.46c-1.03,24.1-10.27,39.79-16.28,45.34c-2.98,2.76-5.17,3.83-5.17,3.83
		C5.01,131.16-6.78,65.84,30.68,37.98c0,0,2.84,2.19,6.38,6.75C43.18,52.62,51.36,67.58,50.37,90.46z"/>
	
		<linearGradient id="SVGID_00000098933767631733379630000014152764696840249522_" gradientUnits="userSpaceOnUse" x1="24.2049" y1="79.2549" x2="24.2049" y2="-11.8532" gradientTransform="matrix(0.9998 0.0179 -0.0179 0.9998 11.2446 56.1235)">
		<stop  offset="0" style="stop-color:#007CDE"/>
		<stop  offset="1" style="stop-color:#0F4AA4"/>
	</linearGradient>
	<path style="fill-rule:evenodd;clip-rule:evenodd;fill:url(#SVGID_00000098933767631733379630000014152764696840249522_);" d="
		M50.37,90.46c-1.03,24.1-10.27,39.79-16.28,45.34c-23.77-17.93-16.3-78.09,2.97-91.07C43.18,52.62,51.36,67.58,50.37,90.46z"/>
	<path class="st13" d="M29.04,60.36c0,0-3.46,5.89-3.56,11.31l6.11,0.11l3.77-11.31L29.04,60.36z"/>
	<path class="st80" d="M174.06,62.02l3.4-1.67c6.3-0.01,16.67,45.9,0.91,72.25l-5.42-3.23l4.51-0.34c0,0,16.67-32.55-0.36-66.41
		L174.06,62.02z"/>
	<path class="st82" d="M177.46,60.34c9.28,5.51,12.99,52.84,0.91,72.25l22.1-1.72c11.12-9.02,15.2-50.72,2.43-66.61L177.46,60.34z"
		/>
	<polygon class="st90" points="208.81,253.64 217.23,248.14 220.5,259.13 211.72,263.07 	"/>
	<polygon class="st82" points="228.04,258.96 220.5,259.13 217.23,248.14 225.59,249.4 	"/>
	<polygon class="st80" points="228.04,258.96 224.95,260.34 219.84,260.34 214.38,263.07 211.72,263.07 220.5,259.13 	"/>
	<polygon class="st90" points="115.7,249.76 120.61,252.36 116.21,260.72 111.9,258.92 	"/>
	<polygon class="st82" points="120.61,252.36 125.63,255.83 121.71,262.47 116.21,260.72 	"/>
	<polygon class="st82" points="239.24,252.76 251.64,248.14 254.7,256.63 243.56,260.52 	"/>
	<path class="st91" d="M41.93,42.54c0,0,38.14,7.78,40.23,10.08c2.09,2.3-33.17,4.7-33.17,4.7S43.92,45.32,41.93,42.54z"/>
	<g>
		
			<rect x="146.44" y="72.99" transform="matrix(0.027 -0.9996 0.9996 0.027 33.1009 253.2806)" class="st76" width="0.41" height="73.3"/>
	</g>
	<g>
		
			<rect x="227.09" y="58.67" transform="matrix(0.1099 -0.9939 0.9939 0.1099 125.082 295.0808)" class="st76" width="0.41" height="38.05"/>
	</g>
	
		<linearGradient id="SVGID_00000159459495605284638800000000120041948203187623_" gradientUnits="userSpaceOnUse" x1="94.3741" y1="92.2072" x2="178.369" y2="92.2072">
		<stop  offset="0" style="stop-color:#9579A7"/>
		<stop  offset="1" style="stop-color:#FFFFFF"/>
	</linearGradient>
	<path style="fill-rule:evenodd;clip-rule:evenodd;fill:url(#SVGID_00000159459495605284638800000000120041948203187623_);" d="
		M100.34,49.12l3.08,0.45c0,0,19.78,35.5,3.31,82.31l71.63-2.74l-0.91-0.12l-83.08,6.28C94.37,135.29,127.67,103.09,100.34,49.12z"
		/>
	
		<linearGradient id="SVGID_00000068635908545199929100000016742994769045031304_" gradientUnits="userSpaceOnUse" x1="154.4858" y1="56.5304" x2="154.4858" y2="28.1658">
		<stop  offset="0" style="stop-color:#67DAFF"/>
		<stop  offset="1" style="stop-color:#FFFFFF"/>
	</linearGradient>
	<path style="fill-rule:evenodd;clip-rule:evenodd;fill:url(#SVGID_00000068635908545199929100000016742994769045031304_);" d="
		M142.97,54.14c0,0,12.08-6.69,7.1-25.97l13.87,2.96c0,0,6.63,13.6-3.84,25.4L142.97,54.14z"/>
	<path class="st91" d="M33.79,133.25c-0.22,0.47,3.25-9.87,13.59-29.82C47.38,103.43,43.82,124.33,33.79,133.25z"/>
	<polygon class="st90" points="112.6,57.71 131.85,60.34 134.72,63.19 113.1,61.7 	"/>
	<polygon class="st90" points="209.06,71.66 217.63,73.63 218.77,75.61 210.8,74.48 	"/>
	<polygon class="st82" points="147.77,147.51 193.39,147.24 193.39,160.21 147.77,160.21 	"/>
	<path class="st94" d="M224.55,137.66c-6.83-2.35-12.82,0-12.83,0c-0.31,0.08-0.62,0.17-0.92,0.29l0,0c0,0-4.2,0.86-6.99,6.94
		c-2.15,4.05-3.45,9.43-3.45,15.34c0,11.48,4.94,20.97,11.37,22.57v0c5.54,2.11,10.91,0.24,10.91,0.24
		c7.34,0,13.29-10.21,13.29-22.81C235.92,148.75,230.98,139.25,224.55,137.66z"/>
	<ellipse class="st95" cx="213.64" cy="160.21" rx="13.29" ry="22.81"/>
	<path class="st95" d="M211.72,137.64c0,0,5.99-2.35,12.83,0l-1.92,45.37c0,0-5.37,1.87-10.91-0.24
		C211.72,182.77,200.21,155.45,211.72,137.64z"/>
	<g>
		<ellipse class="st82" cx="222.63" cy="160.21" rx="13.29" ry="22.81"/>
		<path class="st76" d="M235.92,160.21c-0.03,4.79-0.77,9.65-2.76,14.06c-0.99,2.19-2.26,4.29-3.99,6.01
			c-1.71,1.71-4.04,2.92-6.54,2.99c-2.5-0.01-4.89-1.17-6.67-2.86c-1.79-1.69-3.15-3.78-4.18-5.99c-2.06-4.45-2.86-9.35-2.94-14.21
			c0.07-4.85,0.88-9.76,2.94-14.21c1.03-2.21,2.39-4.3,4.18-5.99c1.78-1.69,4.17-2.85,6.67-2.86c2.5,0.07,4.83,1.28,6.54,2.99
			c1.73,1.71,3,3.82,3.99,6.01C235.15,150.55,235.89,155.41,235.92,160.21z M235.92,160.21c-0.07-4.79-0.87-9.64-2.89-14
			c-1.01-2.17-2.34-4.2-4.07-5.84c-1.72-1.63-3.98-2.71-6.32-2.72c-2.34,0.08-4.54,1.2-6.19,2.85c-1.67,1.65-2.91,3.7-3.88,5.85
			c-1.95,4.32-2.69,9.12-2.72,13.85c0.03,4.73,0.76,9.53,2.71,13.85c0.97,2.15,2.21,4.2,3.88,5.85c1.65,1.65,3.86,2.78,6.2,2.85
			c2.34-0.01,4.6-1.09,6.32-2.72c1.73-1.63,3.06-3.67,4.07-5.84C235.05,169.84,235.85,165,235.92,160.21z"/>
	</g>
	<path class="st83" d="M230.74,160.07c0,4.89-2.31,8.85-5.15,8.85c-2.85,0-5.15-3.96-5.15-8.85c0-4.89,2.31-8.85,5.15-8.85
		C228.43,151.23,230.74,155.19,230.74,160.07z"/>
	<path class="st90" d="M227.92,160.21c0,3.55-1.68,6.43-3.74,6.43s-3.74-2.88-3.74-6.43c0-3.55,1.68-6.43,3.74-6.43
		S227.92,156.66,227.92,160.21z"/>
	<path class="st90" d="M203.77,144.95c0,0,3.98,0.97,7.51-1.11c3.54-2.08-0.48-5.92-0.48-5.92S206.56,138.79,203.77,144.95z"/>
</g>
<path class="st166" d="M174.35,61.88l3.11-1.53l25.44,3.91c0,0,8.83,10.51,7.91,33.49c-0.92,22.98-7.88,31.14-10.33,33.12
	l-19.43,1.51l-1.09,6.82"/>
</svg>
