<svg width="30" height="30" viewBox="0 0 30 30" fill="none" xmlns="http://www.w3.org/2000/svg">
<path d="M29.8549 30H15.0221C12.1241 29.9986 9.28979 29.1413 6.86828 27.5337C4.44677 25.9261 2.54381 23.6385 1.3938 20.9525C0.243789 18.2665 -0.103051 15.2995 0.396001 12.4169C0.895054 9.53436 2.2182 6.86215 4.20247 4.72943C6.18674 2.59671 8.74547 1.09661 11.5635 0.413923C14.3815 -0.268769 17.3358 -0.104245 20.0623 0.887232C22.7889 1.87871 25.1688 3.65383 26.9087 5.99396C28.6487 8.33409 29.6728 11.137 29.8549 14.0575V14.1363V30ZM15.0221 2.5C11.7389 2.5 8.5902 3.81696 6.26865 6.16117C3.94709 8.50537 2.64285 11.6848 2.64285 15C2.64285 18.3152 3.94709 21.4946 6.26865 23.8388C8.5902 26.183 11.7389 27.5 15.0221 27.5H27.379V14.1763C27.1668 11.0116 25.7731 8.04628 23.4795 5.87904C21.1859 3.71179 18.1633 2.50415 15.0221 2.5Z" fill="#193174"/>
<path d="M16.2383 8.74982H8.81079V11.2498H16.2383V8.74982Z" fill="#193174"/>
<path d="M21.19 13.7502H8.81079V16.2503H21.19V13.7502Z" fill="#193174"/>
<path d="M21.19 18.7501H8.81079V21.2501H21.19V18.7501Z" fill="#193174"/>
</svg>
