<svg width="30" height="30" viewBox="0 0 30 30" fill="none" xmlns="http://www.w3.org/2000/svg">
<g clip-path="url(#clip0_349_78)">
<path d="M29.8259 30H14.9708C12.0327 30 9.16067 29.1203 6.71777 27.472C4.27486 25.8238 2.37085 23.4811 1.2465 20.7403C0.122159 17.9994 -0.172021 14.9834 0.401165 12.0737C0.974352 9.16394 2.38916 6.49119 4.46668 4.3934C6.5442 2.29562 9.19112 0.867006 12.0727 0.288228C14.9543 -0.290551 17.9412 0.00649929 20.6556 1.14181C23.37 2.27713 25.69 4.19972 27.3223 6.66645C28.9546 9.13319 29.8259 12.0333 29.8259 15V30ZM14.9708 2.50001C11.6876 2.50001 8.53892 3.81697 6.21737 6.16117C3.89581 8.50538 2.59157 11.6848 2.59157 15C2.59157 18.3152 3.89581 21.4946 6.21737 23.8388C8.53892 26.183 11.6876 27.5 14.9708 27.5H27.35V15C27.3464 11.6859 26.041 8.50861 23.7203 6.16519C21.3995 3.82178 18.2529 2.50365 14.9708 2.50001ZM14.8582 20.5238L23.2649 12.14L21.5318 10.36L13.1065 18.735L8.40981 14.1063L6.67672 15.8938L11.3623 20.5188C11.8263 20.9855 12.4546 21.2476 13.1096 21.2476C13.7646 21.2476 14.3929 20.9855 14.8569 20.5188L14.8582 20.5238Z" fill="#193174"/>
</g>
<defs>
<clipPath id="clip0_349_78">
<rect width="29.7101" height="30" fill="white" transform="translate(0.115723)"/>
</clipPath>
</defs>
</svg>
