<svg width="30" height="30" viewBox="0 0 30 30" fill="none" xmlns="http://www.w3.org/2000/svg">
<g clip-path="url(#clip0_350_117)">
<path d="M6.33496 23.7497H11.7992L28.6881 6.69594C29.4116 5.96366 29.8178 4.97154 29.8178 3.93719C29.8178 2.90285 29.4116 1.91073 28.6881 1.17844C27.9524 0.468311 26.9738 0.0720062 25.956 0.0720062C24.9383 0.0720062 23.9597 0.468311 23.2239 1.17844L6.33496 18.2322V23.7497ZM8.81081 19.2672L24.9744 2.94594C25.2388 2.69089 25.5904 2.54856 25.956 2.54856C26.3217 2.54856 26.6733 2.69089 26.9377 2.94594C27.1976 3.20909 27.3435 3.56556 27.3435 3.93719C27.3435 4.30883 27.1976 4.6653 26.9377 4.92844L10.7742 21.2497H8.81081V19.2672Z" fill="#193174"/>
<path d="M29.386 9.5275L27.3793 11.5538V20H19.9518V27.5H2.62086V3.75C2.62086 3.41848 2.75129 3.10054 2.98344 2.86612C3.2156 2.6317 3.53047 2.5 3.85879 2.5H18.4143L20.421 0.47375C20.6017 0.30453 20.7923 0.146333 20.9916 0L3.85879 0C2.87384 0 1.92922 0.395088 1.23276 1.09835C0.53629 1.80161 0.14502 2.75544 0.14502 3.75L0.14502 30H22.9401L29.8552 23.0175V8.95125C29.7099 9.15233 29.5533 9.34474 29.386 9.5275ZM22.4276 26.9825V22.5H26.8668L22.4276 26.9825Z" fill="#193174"/>
</g>
<defs>
<clipPath id="clip0_350_117">
<rect width="29.7101" height="30" fill="white" transform="translate(0.14502)"/>
</clipPath>
</defs>
</svg>
