<?xml version="1.0" encoding="UTF-8"?>
<svg width="134px" height="105px" viewBox="0 0 134 105" version="1.1" xmlns="http://www.w3.org/2000/svg" xmlns:xlink="http://www.w3.org/1999/xlink">
    <!-- Generator: Sketch 51.3 (57544) - http://www.bohemiancoding.com/sketch -->
    <title>quotationmark</title>
    <desc>Created with Sketch.</desc>
    <defs></defs>
    <g id="Reference-Page" stroke="none" stroke-width="1" fill="none" fill-rule="evenodd">
        <g id="Artboard" transform="translate(-962.000000, -692.000000)" fill="#E7EEFF" fill-rule="nonzero">
            <path d="M1022.1877,773.068389 C1022.1877,785.572225 1010.64887,797 996.223629,797 C972.387476,797 962,779.383298 962,755.867549 C962,728.87625 989.232937,702.846033 1013.94058,692.000029 L1020.54078,702.61968 C1000.18318,712.474832 984.967396,725.836876 982.811161,748.239342 L991.232945,748.239342 C1000.25135,748.239342 1009.62002,749.691804 1015.87447,756.166684 C1020.33364,760.789974 1022.1877,766.676186 1022.1877,773.068389 Z M1096,773.068389 C1096,785.572225 1084.46117,797 1070.03593,797 C1046.19977,797 1035.81227,779.383269 1035.81227,755.86752 C1035.81227,728.876221 1063.04521,702.846004 1087.75285,692 L1094.35305,702.619651 C1073.99545,712.474803 1058.77966,725.836847 1056.62346,748.239312 C1065.80875,748.239312 1073.42904,747.906826 1080.21693,750.33332 C1090.7881,754.112255 1096,762.275641 1096,773.068389 Z" id="quotationmark" transform="translate(1029.000000, 744.500000) scale(-1, -1) translate(-1029.000000, -744.500000) "></path>
        </g>
    </g>
</svg>