<?xml version="1.0" encoding="utf-8"?>
<!-- Generator: Adobe Illustrator 25.4.1, SVG Export Plug-In . SVG Version: 6.00 Build 0)  -->
<svg version="1.1" id="Capa_1" xmlns="http://www.w3.org/2000/svg" xmlns:xlink="http://www.w3.org/1999/xlink" x="0px" y="0px"
	 viewBox="0 0 289 330" style="enable-background:new 0 0 289 330;" xml:space="preserve">
<style type="text/css">
	.st0{fill:#797EF6;}
	.st1{fill:#193174;}
	.st2{fill:#081F51;}
	.st3{fill:#27AAE1;}
	.st4{fill:#E3FFFF;}
	.st5{fill:#081E7A;}
	.st6{opacity:0.1;}
	.st7{fill:#D268CC;}
	.st8{fill:#FFFFFF;}
	.st9{opacity:0.5;fill:#27AAE1;}
	.st10{opacity:0.3;fill:#27AAE1;}
	.st11{opacity:0.5;fill:#FFFFFF;}
	.st12{fill:#284785;}
	.st13{fill:#FAFAFA;}
	.st14{fill:#E1E1E1;}
	.st15{opacity:0.3;}
	.st16{fill:#FFFFFF;stroke:#E1E1E1;stroke-width:1.8258;stroke-miterlimit:10;}
	.st17{fill:none;stroke:#081E7A;stroke-width:4.0449;stroke-miterlimit:10;}
	.st18{fill:none;stroke:#081E7A;stroke-width:1.2481;stroke-miterlimit:10;}
	.st19{fill:#6F74E2;}
	.st20{opacity:0.15;}
	.st21{opacity:0.3;fill:#FFFFFF;}
	.st22{fill:#27AAE1;stroke:#081E7A;stroke-width:3;stroke-miterlimit:10;}
	.st23{fill:#E3FFFF;stroke:#081E7A;stroke-width:3;stroke-miterlimit:10;}
	.st24{fill:#67DAFF;}
	.st25{fill:none;stroke:#081E7A;stroke-width:3;stroke-linecap:round;stroke-linejoin:round;stroke-miterlimit:10;}
	.st26{opacity:0.4;fill:#193174;}
	.st27{fill:#67DAFF;stroke:#1D3582;stroke-width:1.5428;stroke-miterlimit:10;}
	.st28{fill:#DFFFFF;stroke:#1D3582;stroke-width:0.9257;stroke-miterlimit:10;}
	.st29{fill:#DFFFFF;}
	.st30{fill:none;stroke:#1D3582;stroke-width:1.5428;stroke-linecap:round;stroke-linejoin:round;stroke-miterlimit:10;}
	.st31{fill:#67DAFF;stroke:#1D3582;stroke-width:1.5428;stroke-linecap:round;stroke-linejoin:round;stroke-miterlimit:10;}
	.st32{clip-path:url(#SVGID_00000140000858649101662330000005378793211630740638_);}
	.st33{fill:#E1FDFD;}
	.st34{fill:#E0FCFD;}
	.st35{fill:#FBFCFD;}
	.st36{fill:#66D8FD;}
	.st37{fill:#18398B;}
	.st38{fill:#1E3C8D;}
	.st39{fill:#27A9E0;}
	.st40{fill:#27A8DF;}
	.st41{fill:#09227D;}
	.st42{fill:none;stroke:#09227D;stroke-width:0.6171;stroke-linecap:round;stroke-miterlimit:10;}
	
		.st43{clip-path:url(#SVGID_00000140000858649101662330000005378793211630740638_);fill:none;stroke:#09227D;stroke-width:0.6171;stroke-linecap:round;stroke-miterlimit:10;}
	.st44{fill:#5DD4FC;stroke:#1D3582;stroke-width:0.9257;stroke-miterlimit:10;}
</style>
<g>
	<path class="st27" d="M146.87,143.21C54.7,110.59,12.5,163.16,2.1,142.23c15.61,41.07,60.83,79.63,120.95,97.83
		c60.52,18.32,119.92,11.11,155.62-14.83C259.23,237.5,266.41,185.51,146.87,143.21z"/>
	<path class="st28" d="M2.1,142.23c-0.59-1.56-1.14-3.12-1.65-4.69C0.75,139.06,1.3,140.62,2.1,142.23z"/>
	<path class="st28" d="M281.2,223.33c-0.83,0.64-1.67,1.28-2.53,1.9C279.61,224.64,280.45,224.01,281.2,223.33z"/>
	<path class="st3" d="M188.58,226.05c0,0-15.54,22.1-87.09,5.89c0,0,48.06,21.8,104.5,17.21c0,0,38.56-1.87,69.83-22.77
		L188.58,226.05z"/>
	<path class="st29" d="M284.75,217.97c6.25-20.63-52.28-56.62-130.73-80.37S6.92,111.33,0.67,131.96c-0.53,1.76-0.59,3.62-0.21,5.59
		c0.51,1.56,1.05,3.13,1.65,4.69c10.4,20.92,62.66,49.92,129.29,70.1c67.55,20.45,127.84,25.17,147.27,12.91
		c0.86-0.62,1.7-1.26,2.53-1.9C282.94,221.76,284.14,219.98,284.75,217.97z"/>
	<path class="st30" d="M268.53,231.74c0,0,8.41-5.14,8.97-5.5c0.86-0.62,2.65-1.98,3.48-2.63c1.74-1.57,2.94-3.36,3.54-5.36
		c6.25-20.63-52.28-56.62-130.73-80.37S6.7,111.61,0.46,132.24c-0.53,1.76-0.59,3.62-0.21,5.59c0.51,1.56,3.68,8.66,4.27,10.22"/>
	<path class="st30" d="M39.06,174.24c23.36,13.58,55.58,27.3,92.13,38.37c50.66,15.34,97.24,21.83,125.56,18.94"/>
</g>
<path class="st8" d="M172.04,69.34C123.13,54.24,71.09,82.09,55.81,131.56c-0.69,2.24-1.29,4.48-1.81,6.73c0,0,0.02,0.01,0.03,0.01
	c-0.27,0.87-0.09,1.31-0.13,1.32c0.61,10.2,36.92,28.79,83.83,42.59c47.12,13.86,87.78,17.84,93.39,9.41
	c0.22-0.58,0.43-1.17,0.64-1.76c0.42-1.19,0.82-2.38,1.2-3.59C248.23,136.8,220.96,84.45,172.04,69.34z"/>
<path class="st31" d="M2.1,142.23c0,0,6.32,9.9,15.17,16.9"/>
<g>
	<defs>
		<path id="SVGID_1_" d="M202.19,174.99c-14.06,9.14-40.26,3.83-59.52-1.62c-21.69-6.14-45.19-16.02-59.99-30.46
			c-6.66-6.5-11.73-13.88-11.6-21.22c0.08-5.27,3.93-12.85,6.89-17.08c7.35-9.77,13.45-17.37,24.66-23.82
			c13.39-7.71,29.54-11.07,46.76-9.9c15.51,1.06,32.88,4.36,45.33,14.08c0.27,0.21,0.52,0.43,0.78,0.64
			c0.66,0.49,1.29,0.99,1.9,1.52c15.48,13.46,19.2,31.27,19.93,46.14C218.02,147.9,216.38,165.78,202.19,174.99z"/>
	</defs>
	<clipPath id="SVGID_00000011031392724122319590000001558349784760545693_">
		<use xlink:href="#SVGID_1_"  style="overflow:visible;"/>
	</clipPath>
	<g style="clip-path:url(#SVGID_00000011031392724122319590000001558349784760545693_);">
		<path class="st33" d="M118.3,138.05c1.35-0.54,2.71-1.03,4.07-1.53c-0.72,1.25-1.64,2.17-2.47,3.17c-3.97,4.73-4.57,9.09-1.8,14.1
			c1.22,2.21,2.64,4.33,4.97,5.59c2.39,2.11,8.95,5.47,9.45,5.71c9.49,3.86,16.86,5.54,25.95,5.51c5.3-0.02,9.09-0.09,13.87-2.64
			c5.52-2.95,8.69-8.97,5.85-14.51l0,0c0.17-0.46,0.07-0.83-0.37-1.09l-0.02-0.02c0.03-0.3,0.22-0.73-0.4-0.47l-0.04-0.09
			l-0.09,0.05c0.12,0.01,0.23,0.23,0.37,0.01c0.2-0.31-0.02-0.44-0.24-0.58l0.01-0.01c0.17-0.47-0.02-0.81-0.4-1.08l0-0.01
			c0.1-0.23,0.06-0.38-0.22-0.4l0.06-0.01c0-0.19-0.01-0.39-0.01-0.58c1.41,0.44,2.06,1.73,3.01,2.68c-0.25,0.6,0.26,0.87,0.55,1.21
			c1.22,1.48,2.38,2.99,3.36,4.64c1.95,3.3,3.53,6.75,3.87,10.65c-0.22,2.05-0.47,3.57-0.83,5.38c-0.6,0.2-0.6,1.1-0.76,1.58
			c-0.66,1.92-2.33,3.11-3.83,4.41c-3.62,3.14-7.99,4.47-12.55,5.49c-1.74,0.39-2.76,0.31-3.44-1.62c-0.66-1.89-2.64-2.73-4.37-2.27
			c-1.93,0.51-3,2.18-2.79,4.38c-0.21,0.54-0.65,0.4-1.08,0.4c-4.33,0-8.62-0.52-12.86-1.33c-6.04-1.16-11.9-2.94-17.57-5.32
			c-5.9-2.74-11.56-5.88-16.29-10.44c-3.3-3.18-6.04-6.69-6.97-11.36c-0.3-1.5,0.04-2.97-0.18-4.44c0.42-1.69,0.84-3.39,1.25-5.08
			c2.3-3.84,5.84-6.28,9.57-8.52C115.35,139.37,117.7,138.28,118.3,138.05z"/>
		<path class="st34" d="M174.15,207.52c-0.24-0.37-0.49-0.74-0.73-1.1c0.19-0.48,0.1-0.78-0.49-0.76c-0.01-0.14,0.04-0.34-0.03-0.4
			c-2.06-1.82-4.12-3.63-6.19-5.43c-0.21-0.18-0.23,0.11-0.33,0.18l-0.01,0.09c0,0,0.09,0.01,0.09,0.01
			c0.55-0.71-0.13-0.66-0.5-0.81c0,0-0.01-0.02-0.01-0.02c-0.06-0.63-0.36-1.06-0.99-1.23c0,0-0.03-0.03-0.03-0.02
			c-0.49-0.89-0.64-2.06-1.9-2.31l-0.12-0.03l-0.06,0.1c0.94-0.67,0-0.98-0.27-1.42c0.03-0.34,0.07-0.69-0.42-0.3
			c0.51-0.52,0.09-0.63-0.32-0.75l0-0.01c0.14-0.63,0.17-1.19-0.72-1.19l0.03,0.07c0.61-0.84,0.01-1.32-0.53-1.81
			c0,0-0.01-0.03-0.01-0.03c0.13-1.59-0.79-2.96-0.97-4.49c0.05-2.38,0.89-3.63,2.66-3.96c1.55-0.29,3.04,0.58,3.67,2.41
			c2.21,6.41,6.46,11.19,11.87,15.07c3.65,2.62,7.09,5.5,9.54,9.34c2.76,4.32,3.27,8.26-0.81,12.06c0,0,0.02-0.01,0.02-0.01
			c-0.13,0.07-0.26,0.15-0.39,0.22c-0.63-0.29-1.63,0.08-1.8-1.02c-0.23-0.59,0.13-1.13,0.19-1.69l0.01,0.08l-0.04-0.05l0.01,0.01
			c0.23-4.05-1.52-7.28-4.16-10.15c-1.17-1.27-2.59-1.63-4.23-1.28c-0.36,0.13-0.72,0.26-1.08,0.38
			C174.77,207.34,174.46,207.43,174.15,207.52z"/>
		<path class="st35" d="M139.88,106.58c-0.05-0.3-0.18-0.33-0.38-0.11c0.1-0.12,0.38-0.08,0.27-0.38c-0.09-0.24-0.29-0.19-0.46-0.24
			c0,0,0.01,0,0.01,0c0.18-0.29,0.09-0.41-0.24-0.4l-0.08,0.06c0,0,0.09-0.06,0.09-0.06c0.17-0.28,0.1-0.41-0.24-0.39l-0.08,0.05
			c0,0,0.09-0.05,0.09-0.05c0.17-0.28,0.1-0.41-0.24-0.39l-0.08,0.05c0,0,0.09-0.05,0.09-0.05c0.17-0.28,0.1-0.41-0.24-0.39
			l-0.08,0.05c0,0,0.09-0.05,0.09-0.05c0.17-0.28,0.1-0.41-0.24-0.39c0,0,0.03,0.02,0.03,0.02c0.03-0.02,0.09-0.03,0.09-0.06
			c0.01-0.06-0.01-0.12-0.01-0.19c-0.73-2.12-2.67-3.99,0.01-10.18c0.29,0.86,1.5,4.44,1.8,5.31c0.09,1.37,1.29,1.47,2.3,2.03
			c2.97,1.63,4.11,0.26,6.5-2.91c2.51-3.33,1.34-4.98-1.22-7.44c-0.54-0.53-1.46-1.64-2.37-1.38c-0.79-0.2-3.25,0.48-4.05,0.27
			c10.95-6.03,19,1.5,18.72,8.4c-0.02,0.59-0.26,1.35,0.68,1.54c0.1,0.64,0.19,1.28,0.29,1.92c-5.2,1.25-8.59,4.36-9.88,9.63
			c-0.63-0.15-1.26-0.31-1.88-0.46c-2.6-0.4-5.12-1.04-7.45-2.31c0,0-0.04-0.02-0.04-0.02c-0.16-0.36-0.2-0.91-0.84-0.58
			c0,0,0.05,0.07,0.05,0.07c0.3-0.38,0.1-0.44-0.26-0.4c0,0-0.01,0-0.01,0C140.6,106.68,140.44,106.38,139.88,106.58z"/>
		<path class="st35" d="M171.69,122c-1.35,1.44-2.93,2.49-4.87,2.96c-0.49-0.37-0.97-0.06-1.44,0.03
			c-8.75,1.67-15.87-5.48-14.11-14.16c0.94-4.61,4.77-8.29,9.52-9.13c4.79-0.85,9.79,1.51,12.34,5.81
			c2.36,3.99,1.98,9.55-0.88,13.18C171.97,121.04,171.21,121.28,171.69,122z"/>
		<path class="st36" d="M175.09,207.25c0.36-0.13,0.72-0.26,1.08-0.38c1.95,0.33,3.59,1.2,4.79,2.82c1.65,2.21,2.72,4.66,3.1,7.39
			c0.06,0.46-0.07,0.98,0.5,1.22c0,0-0.01-0.01-0.01-0.01c0,0,0.03-0.03,0.03-0.03c-0.07,0.56-0.42,1.1-0.19,1.69
			c-1.67,0.56-3.49,0.01-4.5-1.36c-1.39-1.89-1.76-1.94-3.66-0.49c-0.7,0.53-1.3-0.07-1.95-0.13c0.28-0.44,0.94-0.74,0.56-1.44
			c0.19-1.06,0.14-2.05-0.67-2.88c-0.93-1.09-1.58-2.22-0.54-3.7c0.14,1.1,0.2,2.23,1.43,2.6c0.59,0.18,1.28,0.24,1.54-0.61
			c0.68-0.93,0.88-1.97,0.74-3.1C177.26,207.35,175.62,208.08,175.09,207.25z M179.21,211.74c-1.49,0.28-2.19,1.39-1.78,2.86
			c0.37,1.35,1.73,2.13,2.96,1.7c1.31-0.46,1.74-1.64,1.04-2.82C181.09,212.38,180.33,211.83,179.21,211.74z"/>
		<path class="st37" d="M175.09,207.25c0.54,0.83,2.18,0.09,2.24,1.59c-0.87-0.08-1.82-0.93-2.55,0.26
			c-0.4,0.66-0.54,1.37-0.25,2.13c0.4,1.06,1.36,0.51,2.06,0.71c-0.26,0.85-0.95,0.79-1.54,0.61c-1.22-0.37-1.29-1.49-1.43-2.6
			c-1.03,1.48-0.38,2.61,0.54,3.7c-0.59-0.07-1.3-0.52-1.63,0.34c-0.4,1.02-0.11,1.99,0.55,2.79c0.65,0.79,1.2,0.09,1.75-0.25
			c0.38,0.7-0.28,1-0.56,1.44c-2.34-0.65-3.14-2.32-2.15-4.57c0.25-0.56,0.23-1.12,0.28-1.7c0.13-1.57,0.72-2.97,1.74-4.18
			C174.46,207.43,174.77,207.34,175.09,207.25z"/>
		<path class="st37" d="M166.8,139.19c0.06-0.16,0.13-0.31,0.19-0.47c3.69,2.19,6.66,5.1,8.79,8.84c-0.19-0.02-0.39-0.03-0.58-0.05
			C172.98,144.14,170.07,141.48,166.8,139.19z"/>
		<path class="st37" d="M166.38,200c0.11-0.07,0.12-0.36,0.33-0.18c2.07,1.8,4.14,3.61,6.19,5.43c0.07,0.06,0.02,0.26,0.03,0.4
			c-1.19-0.07-1.71-1.12-2.48-1.77C169.02,202.68,167.3,201.75,166.38,200z"/>
		<path class="st38" d="M176.86,149.17c0,0.19,0.01,0.39,0.01,0.58c-0.96-0.22-1.03-1.15-1.43-1.81c0.13-0.09,0.26-0.17,0.39-0.26
			c0.27,0.37,0.55,0.75,0.82,1.12c-0.01,0.19,0.02,0.35,0.23,0.41L176.86,149.17z"/>
		<path class="st37" d="M164.95,198.04c0.64,0.16,0.93,0.6,0.99,1.23C165.13,199.25,164.76,198.88,164.95,198.04z"/>
		<path class="st37" d="M172.94,205.66c0.59-0.02,0.68,0.28,0.48,0.75C173.03,206.32,172.71,206.17,172.94,205.66z"/>
		<path class="st37" d="M165.96,199.3c0.36,0.15,1.04,0.1,0.5,0.81C166.09,199.95,165.68,199.84,165.96,199.3z"/>
		<path class="st38" d="M175.19,147.51c0.19,0.02,0.39,0.03,0.58,0.05c0,0,0.06,0.12,0.07,0.12c-0.13,0.09-0.26,0.17-0.39,0.26
			C175.36,147.8,175.28,147.65,175.19,147.51z"/>
		<path class="st37" d="M137.72,103.57c0.18,0.03,0.37,0.07,0.55,0.1c0.01,0.06,0.02,0.13,0.01,0.19c0,0.02-0.06,0.04-0.09,0.06
			C137.91,103.97,137.8,103.79,137.72,103.57z"/>
		<path class="st37" d="M139.31,105.85c0.17,0.05,0.36,0,0.46,0.24c0.12,0.3-0.17,0.26-0.27,0.38
			C139.34,106.3,139.19,106.12,139.31,105.85z"/>
		<path class="st33" d="M176.89,149.21c-0.21-0.06-0.24-0.22-0.23-0.41C176.86,148.87,177.08,148.92,176.89,149.21z"/>
		<path class="st38" d="M186.19,220.97c0.13-0.07,0.26-0.15,0.39-0.22C186.45,220.83,186.32,220.9,186.19,220.97z"/>
		<path class="st39" d="M132.23,153.62c0.74,0.19,1.89,0.16,3.03-0.2c0.61-0.19,0.86-0.55,0.28-0.99c-2.39-1.83-3.77-4.43-5.34-6.89
			c-0.48-0.75-1.09-1.56-2.17-1.28c-1.12,0.29-1.79,1.12-2.04,2.23c-0.26,1.21,0.11,2.32,0.77,3.33
			C127.99,151.67,129.72,152.84,132.23,153.62z M118.77,154.63c-2.61-4.17-2.3-9.53,0.56-13.54c4.17-5.82,14.53-12.91,33.83-7.81
			c27.42,7.25,26.19,24.78,25.09,29.03c-1.3,5.04-10.35,11.41-34.16,7.16C129.39,166.85,122.25,160.2,118.77,154.63z"/>
		<path class="st36" d="M163.02,195.7c0.72,1.22,0.15,1.53-1.04,1.75c-8.98,1.69-17.81,1.03-26.58-1.39
			c-7.54-2.08-14.42-5.44-20.52-10.33c-6.48-5.19-11.45-11.48-13.28-19.79c-1.29-5.87-0.35-11.45,2.79-16.61
			c0.27-0.45,0.47-0.97,1-1.21c-0.42,1.69-0.84,3.39-1.25,5.08c0,0-0.1,0.91-0.11,1.45c-0.1,3.69,0.5,7.03,2.62,10.02
			c3.39,4.78,7.87,8.33,12.85,11.27c2.31,1.37,4.54,2.99,7.31,3.43c-0.04,0.01-0.09,0.03-0.13,0.04c0.01,0.04,0.02,0.1,0.05,0.11
			c0.04,0.02,0.1,0,0.15,0c0.09,0.28,0.32,0.37,0.57,0.44c2.73,1.33,5.6,2.32,8.5,3.19c7.12,2.12,14.36,3.5,21.82,3.58
			c1.06,0.01,1.62,0.29,1.82,1.46c0.12,0.72,0.04,1.73,1.02,2.12c0,0,0.01,0.03,0.01,0.03c-0.53,0.81,0.09,1.29,0.53,1.81
			c0,0-0.03-0.07-0.03-0.07c-0.01,0.55,0.01,1.08,0.72,1.19c0,0,0,0.01,0,0.01c-0.28,0.41-0.07,0.62,0.32,0.75
			c0.49-0.39,0.45-0.04,0.42,0.3c-0.67,0.62,0.13,0.95,0.27,1.42l0.06-0.1L163.02,195.7z"/>
		<path class="st36" d="M187.65,168.34c1.23,7.32-1.04,13.56-5.93,18.95c-2.28,2.51-5.03,4.44-7.99,6.07
			c-0.84,0.46-1.4,0.45-2.03-0.35c-1.62-2.05-3.15-4.15-4.23-6.72c2.99-0.64,5.93-1.14,8.69-2.26c3.98-1.62,7.56-3.75,9.63-7.74
			c0.41-0.79,1.23-1.61,1.05-2.58C187.18,171.91,187.24,170.3,187.65,168.34z"/>
		<path class="st37" d="M127.44,179.98c0.05-0.18,0.09-0.35,0.14-0.53c5.67,2.38,11.53,4.16,17.57,5.32
			c4.24,0.81,8.53,1.34,12.86,1.33c0.43,0,0.87,0.14,1.08-0.4c0.18,0.05,0.36,0.09,0.54,0.14c0.18,1.53,1.1,2.89,0.97,4.49
			c-0.97-0.39-0.89-1.4-1.02-2.12c-0.2-1.17-0.76-1.45-1.82-1.46c-7.45-0.08-14.7-1.46-21.82-3.58
			C133.04,182.3,130.18,181.31,127.44,179.98z"/>
		<path class="st38" d="M184.56,218.3c-0.57-0.24-0.43-0.77-0.5-1.22c-0.39-2.73-1.45-5.18-3.1-7.39c-1.21-1.62-2.84-2.48-4.79-2.82
			c1.65-0.35,3.07,0.01,4.23,1.28C183.05,211.02,184.8,214.25,184.56,218.3z"/>
		<path class="st37" d="M161.14,192.18c-0.44-0.53-1.06-1-0.53-1.81C161.15,190.86,161.75,191.34,161.14,192.18z"/>
		<path class="st37" d="M161.83,193.29c-0.71-0.11-0.73-0.64-0.72-1.19C162,192.1,161.97,192.66,161.83,193.29z"/>
		<path class="st37" d="M162.85,195.78c-0.14-0.46-0.95-0.8-0.27-1.42C162.85,194.8,163.79,195.1,162.85,195.78z"/>
		<path class="st37" d="M162.15,194.06c-0.39-0.13-0.6-0.34-0.32-0.75C162.24,193.43,162.66,193.54,162.15,194.06z"/>
		<polygon class="st38" points="184.58,218.26 184.56,218.29 184.59,218.34 		"/>
		<path class="st34" d="M151.29,117.63c-0.42,1-0.14,2.07-0.26,3.1c-0.87,0.8-0.45,1.88-0.57,2.82c-0.5,3.88-1.21,7.7-2.75,11.31
			c-0.31,0.73-0.72,1.43-1.16,2.09c-0.68,1.05-1.66,1.38-2.77,0.79c-1.07-0.57-1.22-1.54-0.76-2.62c0.97-2.31,2.04-4.57,2.9-6.93
			c1.88-5.18,2.8-10.49,2.45-16c-0.05-0.82-0.48-1.49,0.22-1.89c0.63,0.15,2.2,0.01,3.04-0.48c-0.26,1.98-0.76,4.97-0.36,6.93
			c-0.17,0.31-0.23,0.61,0.1,0.87L151.29,117.63z"/>
		<path class="st40" d="M167.8,116.57c-0.38,0.42-0.77,0.83-1.15,1.25c-0.41,0.12-1.04,0.01-0.81,0.79c0,0-0.03,0.02-0.03,0.02
			c-1.5,0.02-2.88,0.5-4.21,1.15c-0.23-0.03-0.46-0.06-0.69-0.09c-1.15-0.29-2.18-0.83-3.17-1.45c-3.42-2.13-4.54-6.49-2.55-9.94
			c2.02-3.52,6.48-4.83,10.01-2.95c3.55,1.9,4.9,6.11,3.14,9.77C168.11,115.58,167.62,115.96,167.8,116.57z M159.79,111.52
			c1.02,0.2,1.8-0.16,2.11-1.18c0.34-1.12-0.22-1.94-1.27-2.2c-0.96-0.24-1.83,0.2-2.08,1.26
			C158.3,110.43,158.75,111.16,159.79,111.52z"/>
		<path class="st34" d="M159.03,124.98c0.34-0.35,0.82-0.23,1.46-0.13c0.57,0.09,0.78,0.3,0.83,0.57"/>
		<path class="st40" d="M179.21,211.74c1.12,0.09,1.88,0.65,2.22,1.74c-0.06,0.2-0.13,0.41-0.17,0.61c-0.16,0.84-0.5,1.55-1.45,1.65
			c-0.71,0.08-1.24-0.35-1.56-0.92c-0.43-0.78-0.26-1.55,0.29-2.22C178.77,212.32,179.13,212.14,179.21,211.74z"/>
		<path class="st40" d="M176.59,211.94c-0.7-0.21-1.66,0.35-2.06-0.71c-0.28-0.75-0.15-1.46,0.25-2.13c0.73-1.2,1.68-0.34,2.55-0.26
			C177.47,209.97,177.27,211.01,176.59,211.94z"/>
		<path class="st40" d="M174.84,216.53c-0.55,0.34-1.1,1.04-1.75,0.25c-0.66-0.8-0.95-1.78-0.55-2.79c0.34-0.86,1.05-0.41,1.63-0.34
			C174.98,214.48,175.04,215.47,174.84,216.53z"/>
		<path class="st37" d="M179.21,211.74c-0.08,0.4-0.44,0.58-0.67,0.86c-0.55,0.67-0.73,1.44-0.29,2.22c0.32,0.57,0.85,1,1.56,0.92
			c0.95-0.11,1.29-0.81,1.45-1.65c0.04-0.21,0.11-0.41,0.17-0.61c0.7,1.18,0.26,2.36-1.04,2.82c-1.23,0.43-2.58-0.35-2.96-1.7
			C177.02,213.13,177.72,212.02,179.21,211.74z"/>
		<path class="st41" d="M132.23,153.62c-2.52-0.77-4.24-1.94-5.46-3.8c-0.66-1.01-1.03-2.11-0.77-3.33
			c0.24-1.12,0.92-1.94,2.04-2.23c1.08-0.28,1.69,0.52,2.17,1.28c1.57,2.46,2.95,5.06,5.34,6.89c0.58,0.44,0.33,0.8-0.28,0.99
			C134.12,153.78,132.97,153.8,132.23,153.62z"/>
		<path class="st37" d="M126.81,179.39c0.01,0.03,0.04,0.08,0.06,0.15c-0.05,0-0.11,0.01-0.15,0c-0.03-0.01-0.03-0.07-0.05-0.11
			C126.72,179.41,126.76,179.4,126.81,179.39z"/>
		<path class="st41" d="M142.42,91.78c1.11,0.36,1.56,1.14,1.32,2.13c-0.24,1.01-1.07,1.52-2.08,1.28c-1.09-0.26-1.61-1.11-1.3-2.2
			C140.65,92,141.45,91.59,142.42,91.78z"/>
		<path class="st41" d="M159.79,111.52c-1.04-0.37-1.49-1.1-1.24-2.12c0.25-1.06,1.12-1.5,2.08-1.26c1.05,0.25,1.61,1.08,1.27,2.2
			C161.59,111.36,160.81,111.72,159.79,111.52z"/>
		
			<ellipse transform="matrix(0.3498 -0.9368 0.9368 0.3498 4.291 197.5183)" class="st40" cx="144.44" cy="95.67" rx="6.89" ry="6.32"/>
		<circle class="st41" cx="142.38" cy="93.53" r="1.79"/>
		<path class="st42" d="M160.24,98.83c0,0,1.43-9.09-9.1-11.48c-10.53-2.39-16.7,8.01-13.67,15.68s11.03,7.56,11.03,7.56"/>
		<path class="st42" d="M147.7,89.36c1.11,0.43,2.14,1.5,2.64,2.84c1.86,5.04-1.83,9.57-5.15,9.88c-1.43,0.13-3.31,0.06-5.1-1.17"/>
		<circle class="st39" cx="161.65" cy="112.13" r="7.78"/>
		<circle class="st41" cx="160.24" cy="109.83" r="1.79"/>
		<path class="st42" d="M165.28,119.01c-1.48,0.78-3.22,1.09-5,0.78c-4.23-0.76-7.05-4.8-6.29-9.03s4.8-7.05,9.03-6.29
			c4.23,0.76,7.05,4.8,6.29,9.03c-0.16,0.9-0.47,1.73-0.89,2.48"/>
		<path class="st42" d="M130.5,164.99c11.55,5.13,23.53,7.53,37.97,4.63c14.43-2.9,9.74-16.17,9.74-16.17s-2.77-16.01-27.45-20.84"
			/>
		<path class="st42" d="M104.14,153.21c0,0-4.78,24.77,47.17,32.91c0,0,29.12,4.62,35.33-12.21"/>
	</g>
	
		<path style="clip-path:url(#SVGID_00000011031392724122319590000001558349784760545693_);fill:none;stroke:#09227D;stroke-width:0.6171;stroke-linecap:round;stroke-miterlimit:10;" d="
		M179.98,152.4c0,0,11.9,11.61,6.97,27.16"/>
	
		<path style="clip-path:url(#SVGID_00000011031392724122319590000001558349784760545693_);fill:none;stroke:#09227D;stroke-width:0.6171;stroke-linecap:round;stroke-miterlimit:10;" d="
		M124.51,136.04c0,0-18.4,4.99-23.02,20.85"/>
</g>
<path class="st44" d="M171.79,69.57C122.88,54.46,70.84,82.32,55.56,131.79c-0.69,2.24-1.29,4.48-1.81,6.73c0,0,0.02,0.01,0.03,0.01
	c-0.27,0.87-0.09,1.31-0.13,1.32c0.61,10.2,36.92,28.79,83.83,42.59c47.12,13.86,87.78,17.84,93.39,9.41
	c0.22-0.58,0.43-1.17,0.64-1.76c0.42-1.19,0.82-2.38,1.2-3.59C247.98,137.03,220.71,84.68,171.79,69.57z M200.98,174.83
	c-14.06,9.14-40.26,3.83-59.52-1.62c-21.69-6.14-45.19-16.02-59.99-30.46c-6.66-6.5-11.73-13.88-11.6-21.22
	c0.08-5.27,3.93-12.85,6.89-17.08c7.35-9.77,13.45-17.37,24.66-23.82c13.39-7.71,29.54-11.07,46.76-9.9
	c15.51,1.06,32.88,4.36,45.33,14.08c0.27,0.21,0.52,0.43,0.78,0.64c0.66,0.49,1.29,0.99,1.9,1.52
	c15.48,13.46,19.2,31.27,19.93,46.14C216.81,147.74,215.17,165.62,200.98,174.83z"/>
<path class="st42" d="M166.09,125.26c-0.94,0.23-1.93,0.36-2.94,0.36c-6.76,0-12.24-5.48-12.24-12.24c0-6.76,5.48-12.24,12.24-12.24
	c6.76,0,12.24,5.48,12.24,12.24c0,3.14-1.18,6.01-3.13,8.17"/>
<path class="st42" d="M144.26,131.85c0,0-17.44-3.52-26.36,11.13c0,0-5.12,8.57,4.92,16.29"/>
<path class="st42" d="M147.79,110.7c0,0,2.17,10.03-4.44,23.27c0,0-1.89,2.94,0.5,4.12c2.39,1.18,3.36-1.26,3.36-1.26
	s3.34-5.65,3.7-15.26"/>
<path class="st34" d="M161.31,125.8c0.05,0.27-0.06,0.6-0.14,0.93c-0.25,1.04-0.52,2.07-0.78,3.11c-1.2,4.68-2.91,9.14-5.68,13.14
	c-0.68,0.99-1.36,2.09-2.86,1.95c-1.72-0.16-2.47-1.45-1.57-2.92c1.41-2.31,3.13-4.42,4.46-6.8c1.61-2.9,3.01-5.87,3.82-9.1
	c0.1-0.38,0.09-0.82,0.25-0.97"/>
<path class="st42" d="M158.38,125.13c0,0-1.84,9-8.14,16.94c0,0-1.74,1.91,0.47,2.87s3.53-1.28,3.53-1.28s5.72-7.71,7.4-17.83"/>
</svg>
