<svg width="514" height="418" viewBox="0 0 514 418" fill="none" xmlns="http://www.w3.org/2000/svg">
<g filter="url(#filter0_d_64_31310)">
<path d="M90 104C90 96.268 96.268 90 104 90H390C397.732 90 404 96.268 404 104V293.932C404 301.664 397.732 307.932 390 307.932H104C96.268 307.932 90 301.664 90 293.932V104Z" fill="#00A1FB"/>
</g>
<path fill-rule="evenodd" clip-rule="evenodd" d="M335 177.5H179V174.5H335V177.5Z" fill="white"/>
<circle cx="338" cy="175" r="10" fill="white"/>
<circle cx="338" cy="175" r="10" fill="white"/>
<path fill-rule="evenodd" clip-rule="evenodd" d="M222.5 226.5V142H225.5V226.5H222.5ZM301 192V176H304V192H301ZM229 208H255V211H229V208Z" fill="white"/>
<rect x="159" y="171" width="32" height="8" rx="4" fill="white" stroke="white" stroke-width="2"/>
<rect x="285" y="171" width="32" height="8" rx="4" fill="white" stroke="white" stroke-width="2"/>
<rect x="285" y="188" width="32" height="8" rx="4" fill="white" stroke="white" stroke-width="2"/>
<rect x="249" y="205" width="32" height="8" rx="4" fill="white" stroke="white" stroke-width="2"/>
<rect x="206" y="171" width="32" height="8" rx="4" fill="white" stroke="white" stroke-width="2"/>
<rect x="206" y="137" width="32" height="8" rx="4" fill="#43C56F" stroke="white" stroke-width="2"/>
<rect x="206" y="154" width="32" height="8" rx="4" fill="#43C56F" stroke="white" stroke-width="2"/>
<rect x="206.5" y="188.5" width="31" height="7" rx="3.5" fill="#43C56F" stroke="white" stroke-width="3"/>
<rect x="206.5" y="205.5" width="31" height="7" rx="3.5" fill="#43C56F" stroke="white" stroke-width="3"/>
<rect x="206.5" y="222.5" width="31" height="7" rx="3.5" fill="#43C56F" stroke="white" stroke-width="3"/>
<path d="M90 260.812H404V295.11C404 302.842 397.732 309.11 390 309.11H104C96.268 309.11 90 302.842 90 295.11V260.812Z" fill="white"/>
<path d="M205.938 276.435H208.188V287.978C208.188 289.259 207.902 290.326 207.332 291.177C206.762 292.029 206.004 292.669 205.059 293.099C204.121 293.521 203.102 293.732 202 293.732C200.844 293.732 199.797 293.521 198.859 293.099C197.93 292.669 197.191 292.029 196.645 291.177C196.105 290.326 195.836 289.259 195.836 287.978V276.435H198.074V287.978C198.074 288.869 198.238 289.603 198.566 290.181C198.895 290.759 199.352 291.189 199.938 291.47C200.531 291.751 201.219 291.892 202 291.892C202.789 291.892 203.477 291.751 204.062 291.47C204.656 291.189 205.117 290.759 205.445 290.181C205.773 289.603 205.938 288.869 205.938 287.978V276.435ZM218.793 290.134C218.793 289.822 218.723 289.533 218.582 289.267C218.449 288.994 218.172 288.748 217.75 288.529C217.336 288.302 216.711 288.107 215.875 287.943C215.172 287.794 214.535 287.619 213.965 287.416C213.402 287.212 212.922 286.966 212.523 286.677C212.133 286.388 211.832 286.048 211.621 285.658C211.41 285.267 211.305 284.81 211.305 284.287C211.305 283.787 211.414 283.314 211.633 282.869C211.859 282.423 212.176 282.029 212.582 281.685C212.996 281.341 213.492 281.072 214.07 280.876C214.648 280.681 215.293 280.583 216.004 280.583C217.02 280.583 217.887 280.763 218.605 281.123C219.324 281.482 219.875 281.962 220.258 282.564C220.641 283.158 220.832 283.818 220.832 284.544H218.664C218.664 284.193 218.559 283.853 218.348 283.525C218.145 283.189 217.844 282.912 217.445 282.693C217.055 282.474 216.574 282.365 216.004 282.365C215.402 282.365 214.914 282.458 214.539 282.646C214.172 282.826 213.902 283.056 213.73 283.337C213.566 283.619 213.484 283.916 213.484 284.228C213.484 284.462 213.523 284.673 213.602 284.861C213.688 285.041 213.836 285.208 214.047 285.365C214.258 285.513 214.555 285.654 214.938 285.787C215.32 285.919 215.809 286.052 216.402 286.185C217.441 286.419 218.297 286.701 218.969 287.029C219.641 287.357 220.141 287.759 220.469 288.236C220.797 288.712 220.961 289.291 220.961 289.97C220.961 290.525 220.844 291.033 220.609 291.494C220.383 291.955 220.051 292.353 219.613 292.689C219.184 293.017 218.668 293.275 218.066 293.462C217.473 293.642 216.805 293.732 216.062 293.732C214.945 293.732 214 293.533 213.227 293.134C212.453 292.736 211.867 292.22 211.469 291.587C211.07 290.955 210.871 290.287 210.871 289.583H213.051C213.082 290.177 213.254 290.65 213.566 291.001C213.879 291.345 214.262 291.591 214.715 291.74C215.168 291.88 215.617 291.951 216.062 291.951C216.656 291.951 217.152 291.873 217.551 291.716C217.957 291.56 218.266 291.345 218.477 291.072C218.688 290.798 218.793 290.486 218.793 290.134ZM229.07 293.732C228.188 293.732 227.387 293.583 226.668 293.287C225.957 292.982 225.344 292.556 224.828 292.009C224.32 291.462 223.93 290.814 223.656 290.064C223.383 289.314 223.246 288.494 223.246 287.603V287.111C223.246 286.08 223.398 285.162 223.703 284.357C224.008 283.544 224.422 282.857 224.945 282.294C225.469 281.732 226.062 281.306 226.727 281.017C227.391 280.728 228.078 280.583 228.789 280.583C229.695 280.583 230.477 280.74 231.133 281.052C231.797 281.365 232.34 281.802 232.762 282.365C233.184 282.919 233.496 283.576 233.699 284.333C233.902 285.083 234.004 285.904 234.004 286.794V287.767H224.535V285.998H231.836V285.833C231.805 285.271 231.688 284.724 231.484 284.193C231.289 283.662 230.977 283.224 230.547 282.88C230.117 282.537 229.531 282.365 228.789 282.365C228.297 282.365 227.844 282.47 227.43 282.681C227.016 282.884 226.66 283.189 226.363 283.595C226.066 284.001 225.836 284.498 225.672 285.083C225.508 285.669 225.426 286.345 225.426 287.111V287.603C225.426 288.205 225.508 288.771 225.672 289.302C225.844 289.826 226.09 290.287 226.41 290.685C226.738 291.083 227.133 291.396 227.594 291.623C228.062 291.849 228.594 291.962 229.188 291.962C229.953 291.962 230.602 291.806 231.133 291.494C231.664 291.181 232.129 290.763 232.527 290.24L233.84 291.283C233.566 291.697 233.219 292.091 232.797 292.466C232.375 292.841 231.855 293.146 231.238 293.38C230.629 293.615 229.906 293.732 229.07 293.732ZM238.703 282.81V293.498H236.535V280.818H238.645L238.703 282.81ZM242.664 280.748L242.652 282.763C242.473 282.724 242.301 282.701 242.137 282.693C241.98 282.677 241.801 282.669 241.598 282.669C241.098 282.669 240.656 282.748 240.273 282.904C239.891 283.06 239.566 283.279 239.301 283.56C239.035 283.841 238.824 284.177 238.668 284.568C238.52 284.951 238.422 285.373 238.375 285.833L237.766 286.185C237.766 285.419 237.84 284.701 237.988 284.029C238.145 283.357 238.383 282.763 238.703 282.248C239.023 281.724 239.43 281.318 239.922 281.029C240.422 280.732 241.016 280.583 241.703 280.583C241.859 280.583 242.039 280.603 242.242 280.642C242.445 280.673 242.586 280.708 242.664 280.748ZM253.211 276.435V293.498H250.949V276.435H253.211ZM260.359 284.111V285.962H252.719V284.111H260.359ZM261.52 276.435V278.287H252.719V276.435H261.52ZM266.242 275.498V293.498H264.062V275.498H266.242ZM269.148 287.298V287.029C269.148 286.115 269.281 285.267 269.547 284.486C269.812 283.697 270.195 283.013 270.695 282.435C271.195 281.849 271.801 281.396 272.512 281.076C273.223 280.748 274.02 280.583 274.902 280.583C275.793 280.583 276.594 280.748 277.305 281.076C278.023 281.396 278.633 281.849 279.133 282.435C279.641 283.013 280.027 283.697 280.293 284.486C280.559 285.267 280.691 286.115 280.691 287.029V287.298C280.691 288.212 280.559 289.06 280.293 289.841C280.027 290.623 279.641 291.306 279.133 291.892C278.633 292.47 278.027 292.923 277.316 293.251C276.613 293.572 275.816 293.732 274.926 293.732C274.035 293.732 273.234 293.572 272.523 293.251C271.812 292.923 271.203 292.47 270.695 291.892C270.195 291.306 269.812 290.623 269.547 289.841C269.281 289.06 269.148 288.212 269.148 287.298ZM271.316 287.029V287.298C271.316 287.931 271.391 288.529 271.539 289.091C271.688 289.646 271.91 290.138 272.207 290.568C272.512 290.998 272.891 291.337 273.344 291.587C273.797 291.83 274.324 291.951 274.926 291.951C275.52 291.951 276.039 291.83 276.484 291.587C276.938 291.337 277.312 290.998 277.609 290.568C277.906 290.138 278.129 289.646 278.277 289.091C278.434 288.529 278.512 287.931 278.512 287.298V287.029C278.512 286.404 278.434 285.814 278.277 285.259C278.129 284.697 277.902 284.201 277.598 283.771C277.301 283.333 276.926 282.99 276.473 282.74C276.027 282.49 275.504 282.365 274.902 282.365C274.309 282.365 273.785 282.49 273.332 282.74C272.887 282.99 272.512 283.333 272.207 283.771C271.91 284.201 271.688 284.697 271.539 285.259C271.391 285.814 271.316 286.404 271.316 287.029ZM286.621 291.248L289.879 280.818H291.309L291.027 282.892L287.711 293.498H286.316L286.621 291.248ZM284.43 280.818L287.207 291.365L287.406 293.498H285.941L282.262 280.818H284.43ZM294.426 291.283L297.074 280.818H299.23L295.551 293.498H294.098L294.426 291.283ZM291.625 280.818L294.812 291.072L295.176 293.498H293.793L290.383 282.869L290.102 280.818H291.625Z" fill="#081E7A"/>
<circle cx="263.5" cy="176.5" r="4.5" fill="white"/>
<circle cx="263.5" cy="176.5" r="4.5" fill="white"/>
<defs>
<filter id="filter0_d_64_31310" x="0" y="0" width="514" height="417.932" filterUnits="userSpaceOnUse" color-interpolation-filters="sRGB">
<feFlood flood-opacity="0" result="BackgroundImageFix"/>
<feColorMatrix in="SourceAlpha" type="matrix" values="0 0 0 0 0 0 0 0 0 0 0 0 0 0 0 0 0 0 127 0" result="hardAlpha"/>
<feOffset dx="10" dy="10"/>
<feGaussianBlur stdDeviation="50"/>
<feComposite in2="hardAlpha" operator="out"/>
<feColorMatrix type="matrix" values="0 0 0 0 0 0 0 0 0 0 0 0 0 0 0 0 0 0 0.06 0"/>
<feBlend mode="normal" in2="BackgroundImageFix" result="effect1_dropShadow_64_31310"/>
<feBlend mode="normal" in="SourceGraphic" in2="effect1_dropShadow_64_31310" result="shape"/>
</filter>
</defs>
</svg>
