<svg width="514" height="418" viewBox="0 0 514 418" fill="none" xmlns="http://www.w3.org/2000/svg">
<g filter="url(#filter0_d_64_31275)">
<path d="M90 104C90 96.268 96.268 90 104 90H390C397.732 90 404 96.268 404 104V293.932C404 301.664 397.732 307.932 390 307.932H104C96.268 307.932 90 301.664 90 293.932V104Z" fill="#00A1FB"/>
</g>
<rect x="206" y="167" width="32" height="8" rx="4" fill="white" stroke="white" stroke-width="2"/>
<path fill-rule="evenodd" clip-rule="evenodd" d="M245.5 158V149H248.5V158H318.5V202H315.5V161H273V202H270V161H224.5V219H221.5V161H176V191.5H173V158H245.5Z" fill="white"/>
<rect x="158" y="167" width="32" height="8" rx="4" fill="white" stroke="white" stroke-width="2"/>
<rect x="158" y="184" width="32" height="8" rx="4" fill="white" stroke="white" stroke-width="2"/>
<rect x="254" y="167" width="32" height="8" rx="4" fill="white" stroke="white" stroke-width="2"/>
<rect x="254" y="184" width="32" height="8" rx="4" fill="white" stroke="white" stroke-width="2"/>
<rect x="254" y="201" width="32" height="8" rx="4" fill="white" stroke="white" stroke-width="2"/>
<rect x="302" y="167" width="32" height="8" rx="4" fill="white" stroke="white" stroke-width="2"/>
<rect x="302" y="184" width="32" height="8" rx="4" fill="#43C56F" stroke="white" stroke-width="2"/>
<rect x="302" y="201" width="32" height="8" rx="4" fill="#43C56F" stroke="white" stroke-width="2"/>
<rect x="206.5" y="184.5" width="31" height="7" rx="3.5" fill="#43C56F" stroke="white" stroke-width="3"/>
<rect x="206.5" y="201.5" width="31" height="7" rx="3.5" fill="#43C56F" stroke="white" stroke-width="3"/>
<rect x="206.5" y="218.5" width="31" height="7" rx="3.5" fill="#43C56F" stroke="white" stroke-width="3"/>
<rect x="230" y="142" width="32" height="8" rx="4" fill="white" stroke="white" stroke-width="2"/>
<path d="M90 260.812H404V295.11C404 302.842 397.732 309.11 390 309.11H104C96.268 309.11 90 302.842 90 295.11V260.812Z" fill="white"/>
<path d="M184.27 276.435V293.498H182.008V276.435H184.27ZM191.418 284.111V285.962H183.777V284.111H191.418ZM192.578 276.435V278.287H183.777V276.435H192.578ZM199.949 293.732C199.066 293.732 198.266 293.583 197.547 293.287C196.836 292.982 196.223 292.556 195.707 292.009C195.199 291.462 194.809 290.814 194.535 290.064C194.262 289.314 194.125 288.494 194.125 287.603V287.111C194.125 286.08 194.277 285.162 194.582 284.357C194.887 283.544 195.301 282.857 195.824 282.294C196.348 281.732 196.941 281.306 197.605 281.017C198.27 280.728 198.957 280.583 199.668 280.583C200.574 280.583 201.355 280.74 202.012 281.052C202.676 281.365 203.219 281.802 203.641 282.365C204.062 282.919 204.375 283.576 204.578 284.333C204.781 285.083 204.883 285.904 204.883 286.794V287.767H195.414V285.998H202.715V285.833C202.684 285.271 202.566 284.724 202.363 284.193C202.168 283.662 201.855 283.224 201.426 282.88C200.996 282.537 200.41 282.365 199.668 282.365C199.176 282.365 198.723 282.47 198.309 282.681C197.895 282.884 197.539 283.189 197.242 283.595C196.945 284.001 196.715 284.498 196.551 285.083C196.387 285.669 196.305 286.345 196.305 287.111V287.603C196.305 288.205 196.387 288.771 196.551 289.302C196.723 289.826 196.969 290.287 197.289 290.685C197.617 291.083 198.012 291.396 198.473 291.623C198.941 291.849 199.473 291.962 200.066 291.962C200.832 291.962 201.48 291.806 202.012 291.494C202.543 291.181 203.008 290.763 203.406 290.24L204.719 291.283C204.445 291.697 204.098 292.091 203.676 292.466C203.254 292.841 202.734 293.146 202.117 293.38C201.508 293.615 200.785 293.732 199.949 293.732ZM214.891 291.33V284.802C214.891 284.302 214.789 283.869 214.586 283.501C214.391 283.126 214.094 282.837 213.695 282.634C213.297 282.431 212.805 282.33 212.219 282.33C211.672 282.33 211.191 282.423 210.777 282.611C210.371 282.798 210.051 283.044 209.816 283.349C209.59 283.654 209.477 283.982 209.477 284.333H207.309C207.309 283.88 207.426 283.431 207.66 282.986C207.895 282.541 208.23 282.138 208.668 281.779C209.113 281.412 209.645 281.123 210.262 280.912C210.887 280.693 211.582 280.583 212.348 280.583C213.27 280.583 214.082 280.74 214.785 281.052C215.496 281.365 216.051 281.837 216.449 282.47C216.855 283.095 217.059 283.88 217.059 284.826V290.732C217.059 291.154 217.094 291.603 217.164 292.08C217.242 292.556 217.355 292.966 217.504 293.31V293.498H215.242C215.133 293.248 215.047 292.916 214.984 292.501C214.922 292.08 214.891 291.689 214.891 291.33ZM215.266 285.81L215.289 287.333H213.098C212.48 287.333 211.93 287.384 211.445 287.486C210.961 287.58 210.555 287.724 210.227 287.919C209.898 288.115 209.648 288.361 209.477 288.658C209.305 288.947 209.219 289.287 209.219 289.677C209.219 290.076 209.309 290.439 209.488 290.767C209.668 291.095 209.938 291.357 210.297 291.552C210.664 291.74 211.113 291.833 211.645 291.833C212.309 291.833 212.895 291.693 213.402 291.412C213.91 291.13 214.312 290.787 214.609 290.38C214.914 289.974 215.078 289.58 215.102 289.197L216.027 290.24C215.973 290.568 215.824 290.931 215.582 291.33C215.34 291.728 215.016 292.111 214.609 292.478C214.211 292.837 213.734 293.138 213.18 293.38C212.633 293.615 212.016 293.732 211.328 293.732C210.469 293.732 209.715 293.564 209.066 293.228C208.426 292.892 207.926 292.443 207.566 291.88C207.215 291.31 207.039 290.673 207.039 289.97C207.039 289.291 207.172 288.693 207.438 288.177C207.703 287.654 208.086 287.22 208.586 286.876C209.086 286.525 209.688 286.259 210.391 286.08C211.094 285.9 211.879 285.81 212.746 285.81H215.266ZM225.777 280.818V282.482H218.922V280.818H225.777ZM221.242 277.736H223.41V290.357C223.41 290.787 223.477 291.111 223.609 291.33C223.742 291.548 223.914 291.693 224.125 291.763C224.336 291.833 224.562 291.869 224.805 291.869C224.984 291.869 225.172 291.853 225.367 291.822C225.57 291.783 225.723 291.751 225.824 291.728L225.836 293.498C225.664 293.552 225.438 293.603 225.156 293.65C224.883 293.705 224.551 293.732 224.16 293.732C223.629 293.732 223.141 293.626 222.695 293.416C222.25 293.205 221.895 292.853 221.629 292.361C221.371 291.861 221.242 291.189 221.242 290.345V277.736ZM236.078 290.568V280.818H238.258V293.498H236.184L236.078 290.568ZM236.488 287.896L237.391 287.873C237.391 288.716 237.301 289.498 237.121 290.216C236.949 290.927 236.668 291.544 236.277 292.068C235.887 292.591 235.375 293.001 234.742 293.298C234.109 293.587 233.34 293.732 232.434 293.732C231.816 293.732 231.25 293.642 230.734 293.462C230.227 293.283 229.789 293.005 229.422 292.63C229.055 292.255 228.77 291.767 228.566 291.166C228.371 290.564 228.273 289.841 228.273 288.998V280.818H230.441V289.021C230.441 289.591 230.504 290.064 230.629 290.439C230.762 290.806 230.938 291.099 231.156 291.318C231.383 291.529 231.633 291.677 231.906 291.763C232.188 291.849 232.477 291.892 232.773 291.892C233.695 291.892 234.426 291.716 234.965 291.365C235.504 291.005 235.891 290.525 236.125 289.923C236.367 289.314 236.488 288.638 236.488 287.896ZM243.73 282.81V293.498H241.562V280.818H243.672L243.73 282.81ZM247.691 280.748L247.68 282.763C247.5 282.724 247.328 282.701 247.164 282.693C247.008 282.677 246.828 282.669 246.625 282.669C246.125 282.669 245.684 282.748 245.301 282.904C244.918 283.06 244.594 283.279 244.328 283.56C244.062 283.841 243.852 284.177 243.695 284.568C243.547 284.951 243.449 285.373 243.402 285.833L242.793 286.185C242.793 285.419 242.867 284.701 243.016 284.029C243.172 283.357 243.41 282.763 243.73 282.248C244.051 281.724 244.457 281.318 244.949 281.029C245.449 280.732 246.043 280.583 246.73 280.583C246.887 280.583 247.066 280.603 247.27 280.642C247.473 280.673 247.613 280.708 247.691 280.748ZM254.723 293.732C253.84 293.732 253.039 293.583 252.32 293.287C251.609 292.982 250.996 292.556 250.48 292.009C249.973 291.462 249.582 290.814 249.309 290.064C249.035 289.314 248.898 288.494 248.898 287.603V287.111C248.898 286.08 249.051 285.162 249.355 284.357C249.66 283.544 250.074 282.857 250.598 282.294C251.121 281.732 251.715 281.306 252.379 281.017C253.043 280.728 253.73 280.583 254.441 280.583C255.348 280.583 256.129 280.74 256.785 281.052C257.449 281.365 257.992 281.802 258.414 282.365C258.836 282.919 259.148 283.576 259.352 284.333C259.555 285.083 259.656 285.904 259.656 286.794V287.767H250.188V285.998H257.488V285.833C257.457 285.271 257.34 284.724 257.137 284.193C256.941 283.662 256.629 283.224 256.199 282.88C255.77 282.537 255.184 282.365 254.441 282.365C253.949 282.365 253.496 282.47 253.082 282.681C252.668 282.884 252.312 283.189 252.016 283.595C251.719 284.001 251.488 284.498 251.324 285.083C251.16 285.669 251.078 286.345 251.078 287.111V287.603C251.078 288.205 251.16 288.771 251.324 289.302C251.496 289.826 251.742 290.287 252.062 290.685C252.391 291.083 252.785 291.396 253.246 291.623C253.715 291.849 254.246 291.962 254.84 291.962C255.605 291.962 256.254 291.806 256.785 291.494C257.316 291.181 257.781 290.763 258.18 290.24L259.492 291.283C259.219 291.697 258.871 292.091 258.449 292.466C258.027 292.841 257.508 293.146 256.891 293.38C256.281 293.615 255.559 293.732 254.723 293.732ZM269.184 276.435H271.375L276.965 290.345L282.543 276.435H284.746L277.809 293.498H276.098L269.184 276.435ZM268.469 276.435H270.402L270.719 286.841V293.498H268.469V276.435ZM283.516 276.435H285.449V293.498H283.199V286.841L283.516 276.435ZM296.57 291.33V284.802C296.57 284.302 296.469 283.869 296.266 283.501C296.07 283.126 295.773 282.837 295.375 282.634C294.977 282.431 294.484 282.33 293.898 282.33C293.352 282.33 292.871 282.423 292.457 282.611C292.051 282.798 291.73 283.044 291.496 283.349C291.27 283.654 291.156 283.982 291.156 284.333H288.988C288.988 283.88 289.105 283.431 289.34 282.986C289.574 282.541 289.91 282.138 290.348 281.779C290.793 281.412 291.324 281.123 291.941 280.912C292.566 280.693 293.262 280.583 294.027 280.583C294.949 280.583 295.762 280.74 296.465 281.052C297.176 281.365 297.73 281.837 298.129 282.47C298.535 283.095 298.738 283.88 298.738 284.826V290.732C298.738 291.154 298.773 291.603 298.844 292.08C298.922 292.556 299.035 292.966 299.184 293.31V293.498H296.922C296.812 293.248 296.727 292.916 296.664 292.501C296.602 292.08 296.57 291.689 296.57 291.33ZM296.945 285.81L296.969 287.333H294.777C294.16 287.333 293.609 287.384 293.125 287.486C292.641 287.58 292.234 287.724 291.906 287.919C291.578 288.115 291.328 288.361 291.156 288.658C290.984 288.947 290.898 289.287 290.898 289.677C290.898 290.076 290.988 290.439 291.168 290.767C291.348 291.095 291.617 291.357 291.977 291.552C292.344 291.74 292.793 291.833 293.324 291.833C293.988 291.833 294.574 291.693 295.082 291.412C295.59 291.13 295.992 290.787 296.289 290.38C296.594 289.974 296.758 289.58 296.781 289.197L297.707 290.24C297.652 290.568 297.504 290.931 297.262 291.33C297.02 291.728 296.695 292.111 296.289 292.478C295.891 292.837 295.414 293.138 294.859 293.38C294.312 293.615 293.695 293.732 293.008 293.732C292.148 293.732 291.395 293.564 290.746 293.228C290.105 292.892 289.605 292.443 289.246 291.88C288.895 291.31 288.719 290.673 288.719 289.97C288.719 289.291 288.852 288.693 289.117 288.177C289.383 287.654 289.766 287.22 290.266 286.876C290.766 286.525 291.367 286.259 292.07 286.08C292.773 285.9 293.559 285.81 294.426 285.81H296.945ZM304.316 283.255V298.373H302.137V280.818H304.129L304.316 283.255ZM312.859 287.052V287.298C312.859 288.22 312.75 289.076 312.531 289.865C312.312 290.646 311.992 291.326 311.57 291.904C311.156 292.482 310.645 292.931 310.035 293.251C309.426 293.572 308.727 293.732 307.938 293.732C307.133 293.732 306.422 293.599 305.805 293.333C305.188 293.068 304.664 292.681 304.234 292.173C303.805 291.666 303.461 291.056 303.203 290.345C302.953 289.634 302.781 288.833 302.688 287.943V286.63C302.781 285.693 302.957 284.853 303.215 284.111C303.473 283.369 303.812 282.736 304.234 282.212C304.664 281.681 305.184 281.279 305.793 281.005C306.402 280.724 307.105 280.583 307.902 280.583C308.699 280.583 309.406 280.74 310.023 281.052C310.641 281.357 311.16 281.794 311.582 282.365C312.004 282.935 312.32 283.619 312.531 284.416C312.75 285.205 312.859 286.083 312.859 287.052ZM310.68 287.298V287.052C310.68 286.419 310.613 285.826 310.48 285.271C310.348 284.708 310.141 284.216 309.859 283.794C309.586 283.365 309.234 283.029 308.805 282.787C308.375 282.537 307.863 282.412 307.27 282.412C306.723 282.412 306.246 282.505 305.84 282.693C305.441 282.88 305.102 283.134 304.82 283.455C304.539 283.767 304.309 284.126 304.129 284.533C303.957 284.931 303.828 285.345 303.742 285.775V288.81C303.898 289.357 304.117 289.873 304.398 290.357C304.68 290.833 305.055 291.22 305.523 291.517C305.992 291.806 306.582 291.951 307.293 291.951C307.879 291.951 308.383 291.83 308.805 291.587C309.234 291.337 309.586 290.998 309.859 290.568C310.141 290.138 310.348 289.646 310.48 289.091C310.613 288.529 310.68 287.931 310.68 287.298Z" fill="#081E7A"/>
<defs>
<filter id="filter0_d_64_31275" x="0" y="0" width="514" height="417.932" filterUnits="userSpaceOnUse" color-interpolation-filters="sRGB">
<feFlood flood-opacity="0" result="BackgroundImageFix"/>
<feColorMatrix in="SourceAlpha" type="matrix" values="0 0 0 0 0 0 0 0 0 0 0 0 0 0 0 0 0 0 127 0" result="hardAlpha"/>
<feOffset dx="10" dy="10"/>
<feGaussianBlur stdDeviation="50"/>
<feComposite in2="hardAlpha" operator="out"/>
<feColorMatrix type="matrix" values="0 0 0 0 0 0 0 0 0 0 0 0 0 0 0 0 0 0 0.06 0"/>
<feBlend mode="normal" in2="BackgroundImageFix" result="effect1_dropShadow_64_31275"/>
<feBlend mode="normal" in="SourceGraphic" in2="effect1_dropShadow_64_31275" result="shape"/>
</filter>
</defs>
</svg>
