<svg width="514" height="418" viewBox="0 0 514 418" fill="none" xmlns="http://www.w3.org/2000/svg">
<g filter="url(#filter0_d_64_31291)">
<path d="M90 104C90 96.268 96.268 90 104 90H390C397.732 90 404 96.268 404 104V293.932C404 301.664 397.732 307.932 390 307.932H104C96.268 307.932 90 301.664 90 293.932V104Z" fill="#00A1FB"/>
</g>
<path d="M90 260.812H404V295.11C404 302.842 397.732 309.11 390 309.11H104C96.268 309.11 90 302.842 90 295.11V260.812Z" fill="white"/>
<path d="M191.969 288.341L195.355 276.435H196.996L196.047 281.064L192.402 293.498H190.773L191.969 288.341ZM188.465 276.435L191.16 288.107L191.969 293.498H190.352L186.215 276.435H188.465ZM201.379 288.095L204.016 276.435H206.277L202.152 293.498H200.535L201.379 288.095ZM197.242 276.435L200.535 288.341L201.73 293.498H200.102L196.586 281.064L195.625 276.435H197.242ZM210.812 280.818V293.498H208.633V280.818H210.812ZM208.469 277.455C208.469 277.103 208.574 276.806 208.785 276.564C209.004 276.322 209.324 276.201 209.746 276.201C210.16 276.201 210.477 276.322 210.695 276.564C210.922 276.806 211.035 277.103 211.035 277.455C211.035 277.791 210.922 278.08 210.695 278.322C210.477 278.556 210.16 278.673 209.746 278.673C209.324 278.673 209.004 278.556 208.785 278.322C208.574 278.08 208.469 277.791 208.469 277.455ZM216.461 282.81V293.498H214.293V280.818H216.402L216.461 282.81ZM220.422 280.748L220.41 282.763C220.23 282.724 220.059 282.701 219.895 282.693C219.738 282.677 219.559 282.669 219.355 282.669C218.855 282.669 218.414 282.748 218.031 282.904C217.648 283.06 217.324 283.279 217.059 283.56C216.793 283.841 216.582 284.177 216.426 284.568C216.277 284.951 216.18 285.373 216.133 285.833L215.523 286.185C215.523 285.419 215.598 284.701 215.746 284.029C215.902 283.357 216.141 282.763 216.461 282.248C216.781 281.724 217.188 281.318 217.68 281.029C218.18 280.732 218.773 280.583 219.461 280.583C219.617 280.583 219.797 280.603 220 280.642C220.203 280.673 220.344 280.708 220.422 280.748ZM227.453 293.732C226.57 293.732 225.77 293.583 225.051 293.287C224.34 292.982 223.727 292.556 223.211 292.009C222.703 291.462 222.312 290.814 222.039 290.064C221.766 289.314 221.629 288.494 221.629 287.603V287.111C221.629 286.08 221.781 285.162 222.086 284.357C222.391 283.544 222.805 282.857 223.328 282.294C223.852 281.732 224.445 281.306 225.109 281.017C225.773 280.728 226.461 280.583 227.172 280.583C228.078 280.583 228.859 280.74 229.516 281.052C230.18 281.365 230.723 281.802 231.145 282.365C231.566 282.919 231.879 283.576 232.082 284.333C232.285 285.083 232.387 285.904 232.387 286.794V287.767H222.918V285.998H230.219V285.833C230.188 285.271 230.07 284.724 229.867 284.193C229.672 283.662 229.359 283.224 228.93 282.88C228.5 282.537 227.914 282.365 227.172 282.365C226.68 282.365 226.227 282.47 225.812 282.681C225.398 282.884 225.043 283.189 224.746 283.595C224.449 284.001 224.219 284.498 224.055 285.083C223.891 285.669 223.809 286.345 223.809 287.111V287.603C223.809 288.205 223.891 288.771 224.055 289.302C224.227 289.826 224.473 290.287 224.793 290.685C225.121 291.083 225.516 291.396 225.977 291.623C226.445 291.849 226.977 291.962 227.57 291.962C228.336 291.962 228.984 291.806 229.516 291.494C230.047 291.181 230.512 290.763 230.91 290.24L232.223 291.283C231.949 291.697 231.602 292.091 231.18 292.466C230.758 292.841 230.238 293.146 229.621 293.38C229.012 293.615 228.289 293.732 227.453 293.732ZM238.152 293.498H235.984V279.482C235.984 278.568 236.148 277.798 236.477 277.173C236.812 276.541 237.293 276.064 237.918 275.744C238.543 275.416 239.285 275.251 240.145 275.251C240.395 275.251 240.645 275.267 240.895 275.298C241.152 275.33 241.402 275.376 241.645 275.439L241.527 277.208C241.363 277.169 241.176 277.142 240.965 277.126C240.762 277.111 240.559 277.103 240.355 277.103C239.895 277.103 239.496 277.197 239.16 277.384C238.832 277.564 238.582 277.83 238.41 278.181C238.238 278.533 238.152 278.966 238.152 279.482V293.498ZM240.848 280.818V282.482H233.98V280.818H240.848ZM245.43 282.81V293.498H243.262V280.818H245.371L245.43 282.81ZM249.391 280.748L249.379 282.763C249.199 282.724 249.027 282.701 248.863 282.693C248.707 282.677 248.527 282.669 248.324 282.669C247.824 282.669 247.383 282.748 247 282.904C246.617 283.06 246.293 283.279 246.027 283.56C245.762 283.841 245.551 284.177 245.395 284.568C245.246 284.951 245.148 285.373 245.102 285.833L244.492 286.185C244.492 285.419 244.566 284.701 244.715 284.029C244.871 283.357 245.109 282.763 245.43 282.248C245.75 281.724 246.156 281.318 246.648 281.029C247.148 280.732 247.742 280.583 248.43 280.583C248.586 280.583 248.766 280.603 248.969 280.642C249.172 280.673 249.312 280.708 249.391 280.748ZM258.402 291.33V284.802C258.402 284.302 258.301 283.869 258.098 283.501C257.902 283.126 257.605 282.837 257.207 282.634C256.809 282.431 256.316 282.33 255.73 282.33C255.184 282.33 254.703 282.423 254.289 282.611C253.883 282.798 253.562 283.044 253.328 283.349C253.102 283.654 252.988 283.982 252.988 284.333H250.82C250.82 283.88 250.938 283.431 251.172 282.986C251.406 282.541 251.742 282.138 252.18 281.779C252.625 281.412 253.156 281.123 253.773 280.912C254.398 280.693 255.094 280.583 255.859 280.583C256.781 280.583 257.594 280.74 258.297 281.052C259.008 281.365 259.562 281.837 259.961 282.47C260.367 283.095 260.57 283.88 260.57 284.826V290.732C260.57 291.154 260.605 291.603 260.676 292.08C260.754 292.556 260.867 292.966 261.016 293.31V293.498H258.754C258.645 293.248 258.559 292.916 258.496 292.501C258.434 292.08 258.402 291.689 258.402 291.33ZM258.777 285.81L258.801 287.333H256.609C255.992 287.333 255.441 287.384 254.957 287.486C254.473 287.58 254.066 287.724 253.738 287.919C253.41 288.115 253.16 288.361 252.988 288.658C252.816 288.947 252.73 289.287 252.73 289.677C252.73 290.076 252.82 290.439 253 290.767C253.18 291.095 253.449 291.357 253.809 291.552C254.176 291.74 254.625 291.833 255.156 291.833C255.82 291.833 256.406 291.693 256.914 291.412C257.422 291.13 257.824 290.787 258.121 290.38C258.426 289.974 258.59 289.58 258.613 289.197L259.539 290.24C259.484 290.568 259.336 290.931 259.094 291.33C258.852 291.728 258.527 292.111 258.121 292.478C257.723 292.837 257.246 293.138 256.691 293.38C256.145 293.615 255.527 293.732 254.84 293.732C253.98 293.732 253.227 293.564 252.578 293.228C251.938 292.892 251.438 292.443 251.078 291.88C250.727 291.31 250.551 290.673 250.551 289.97C250.551 289.291 250.684 288.693 250.949 288.177C251.215 287.654 251.598 287.22 252.098 286.876C252.598 286.525 253.199 286.259 253.902 286.08C254.605 285.9 255.391 285.81 256.258 285.81H258.777ZM266.137 283.337V293.498H263.957V280.818H266.02L266.137 283.337ZM265.691 286.677L264.684 286.642C264.691 285.775 264.805 284.974 265.023 284.24C265.242 283.498 265.566 282.853 265.996 282.306C266.426 281.759 266.961 281.337 267.602 281.041C268.242 280.736 268.984 280.583 269.828 280.583C270.422 280.583 270.969 280.669 271.469 280.841C271.969 281.005 272.402 281.267 272.77 281.626C273.137 281.986 273.422 282.447 273.625 283.009C273.828 283.572 273.93 284.251 273.93 285.048V293.498H271.762V285.154C271.762 284.49 271.648 283.958 271.422 283.56C271.203 283.162 270.891 282.873 270.484 282.693C270.078 282.505 269.602 282.412 269.055 282.412C268.414 282.412 267.879 282.525 267.449 282.751C267.02 282.978 266.676 283.291 266.418 283.689C266.16 284.087 265.973 284.544 265.855 285.06C265.746 285.568 265.691 286.107 265.691 286.677ZM273.906 285.482L272.453 285.927C272.461 285.232 272.574 284.564 272.793 283.923C273.02 283.283 273.344 282.712 273.766 282.212C274.195 281.712 274.723 281.318 275.348 281.029C275.973 280.732 276.688 280.583 277.492 280.583C278.172 280.583 278.773 280.673 279.297 280.853C279.828 281.033 280.273 281.31 280.633 281.685C281 282.052 281.277 282.525 281.465 283.103C281.652 283.681 281.746 284.369 281.746 285.166V293.498H279.566V285.142C279.566 284.431 279.453 283.88 279.227 283.49C279.008 283.091 278.695 282.814 278.289 282.658C277.891 282.494 277.414 282.412 276.859 282.412C276.383 282.412 275.961 282.494 275.594 282.658C275.227 282.822 274.918 283.048 274.668 283.337C274.418 283.619 274.227 283.943 274.094 284.31C273.969 284.677 273.906 285.068 273.906 285.482ZM290.289 293.732C289.406 293.732 288.605 293.583 287.887 293.287C287.176 292.982 286.562 292.556 286.047 292.009C285.539 291.462 285.148 290.814 284.875 290.064C284.602 289.314 284.465 288.494 284.465 287.603V287.111C284.465 286.08 284.617 285.162 284.922 284.357C285.227 283.544 285.641 282.857 286.164 282.294C286.688 281.732 287.281 281.306 287.945 281.017C288.609 280.728 289.297 280.583 290.008 280.583C290.914 280.583 291.695 280.74 292.352 281.052C293.016 281.365 293.559 281.802 293.98 282.365C294.402 282.919 294.715 283.576 294.918 284.333C295.121 285.083 295.223 285.904 295.223 286.794V287.767H285.754V285.998H293.055V285.833C293.023 285.271 292.906 284.724 292.703 284.193C292.508 283.662 292.195 283.224 291.766 282.88C291.336 282.537 290.75 282.365 290.008 282.365C289.516 282.365 289.062 282.47 288.648 282.681C288.234 282.884 287.879 283.189 287.582 283.595C287.285 284.001 287.055 284.498 286.891 285.083C286.727 285.669 286.645 286.345 286.645 287.111V287.603C286.645 288.205 286.727 288.771 286.891 289.302C287.062 289.826 287.309 290.287 287.629 290.685C287.957 291.083 288.352 291.396 288.812 291.623C289.281 291.849 289.812 291.962 290.406 291.962C291.172 291.962 291.82 291.806 292.352 291.494C292.883 291.181 293.348 290.763 293.746 290.24L295.059 291.283C294.785 291.697 294.438 292.091 294.016 292.466C293.594 292.841 293.074 293.146 292.457 293.38C291.848 293.615 291.125 293.732 290.289 293.732ZM305.137 290.134C305.137 289.822 305.066 289.533 304.926 289.267C304.793 288.994 304.516 288.748 304.094 288.529C303.68 288.302 303.055 288.107 302.219 287.943C301.516 287.794 300.879 287.619 300.309 287.416C299.746 287.212 299.266 286.966 298.867 286.677C298.477 286.388 298.176 286.048 297.965 285.658C297.754 285.267 297.648 284.81 297.648 284.287C297.648 283.787 297.758 283.314 297.977 282.869C298.203 282.423 298.52 282.029 298.926 281.685C299.34 281.341 299.836 281.072 300.414 280.876C300.992 280.681 301.637 280.583 302.348 280.583C303.363 280.583 304.23 280.763 304.949 281.123C305.668 281.482 306.219 281.962 306.602 282.564C306.984 283.158 307.176 283.818 307.176 284.544H305.008C305.008 284.193 304.902 283.853 304.691 283.525C304.488 283.189 304.188 282.912 303.789 282.693C303.398 282.474 302.918 282.365 302.348 282.365C301.746 282.365 301.258 282.458 300.883 282.646C300.516 282.826 300.246 283.056 300.074 283.337C299.91 283.619 299.828 283.916 299.828 284.228C299.828 284.462 299.867 284.673 299.945 284.861C300.031 285.041 300.18 285.208 300.391 285.365C300.602 285.513 300.898 285.654 301.281 285.787C301.664 285.919 302.152 286.052 302.746 286.185C303.785 286.419 304.641 286.701 305.312 287.029C305.984 287.357 306.484 287.759 306.812 288.236C307.141 288.712 307.305 289.291 307.305 289.97C307.305 290.525 307.188 291.033 306.953 291.494C306.727 291.955 306.395 292.353 305.957 292.689C305.527 293.017 305.012 293.275 304.41 293.462C303.816 293.642 303.148 293.732 302.406 293.732C301.289 293.732 300.344 293.533 299.57 293.134C298.797 292.736 298.211 292.22 297.812 291.587C297.414 290.955 297.215 290.287 297.215 289.583H299.395C299.426 290.177 299.598 290.65 299.91 291.001C300.223 291.345 300.605 291.591 301.059 291.74C301.512 291.88 301.961 291.951 302.406 291.951C303 291.951 303.496 291.873 303.895 291.716C304.301 291.56 304.609 291.345 304.82 291.072C305.031 290.798 305.137 290.486 305.137 290.134Z" fill="#081E7A"/>
<rect x="204.5" y="136.5" width="85" height="97" rx="3.5" stroke="white" stroke-width="3"/>
<rect x="214" y="147" width="35" height="7" rx="3.5" fill="white"/>
<rect x="214" y="160" width="68" height="27" rx="6" fill="white"/>
<path fill-rule="evenodd" clip-rule="evenodd" d="M237 194H219C217.895 194 217 194.895 217 196V217C217 218.105 217.895 219 219 219H237C238.105 219 239 218.105 239 217V196C239 194.895 238.105 194 237 194ZM219 191C216.239 191 214 193.239 214 196V217C214 219.761 216.239 222 219 222H237C239.761 222 242 219.761 242 217V196C242 193.239 239.761 191 237 191H219Z" fill="white"/>
<rect x="247" y="193" width="35" height="6" rx="3" fill="white"/>
<rect x="248" y="204" width="35" height="6" rx="3" fill="white"/>
<rect x="248" y="215" width="35" height="6" rx="3" fill="white"/>
<defs>
<filter id="filter0_d_64_31291" x="0" y="0" width="514" height="417.932" filterUnits="userSpaceOnUse" color-interpolation-filters="sRGB">
<feFlood flood-opacity="0" result="BackgroundImageFix"/>
<feColorMatrix in="SourceAlpha" type="matrix" values="0 0 0 0 0 0 0 0 0 0 0 0 0 0 0 0 0 0 127 0" result="hardAlpha"/>
<feOffset dx="10" dy="10"/>
<feGaussianBlur stdDeviation="50"/>
<feComposite in2="hardAlpha" operator="out"/>
<feColorMatrix type="matrix" values="0 0 0 0 0 0 0 0 0 0 0 0 0 0 0 0 0 0 0.06 0"/>
<feBlend mode="normal" in2="BackgroundImageFix" result="effect1_dropShadow_64_31291"/>
<feBlend mode="normal" in="SourceGraphic" in2="effect1_dropShadow_64_31291" result="shape"/>
</filter>
</defs>
</svg>
