<svg width="305" height="411" viewBox="0 0 305 411" fill="none" xmlns="http://www.w3.org/2000/svg">
<path opacity="0.08" fill-rule="evenodd" clip-rule="evenodd" d="M66.599 252.108L78.9441 245.089C87.6562 240.088 101.871 240.088 110.689 245.089L298.387 352.95C307.204 357.969 307.204 366.111 298.387 371.147L262.78 376.218C255.576 377.25 248.234 375.821 241.952 372.164L66.599 270.392C57.8516 265.286 57.8516 257.144 66.599 252.108Z" fill="#EEEEEE"/>
<path d="M48.8393 170.374C51.4249 170.799 53.9812 171.385 56.4932 172.128V34.981C56.9341 21.3645 75.5928 6.06354 77.0742 4.27375C80.3898 0.237934 86.2625 -0.358665 92.8407 3.50168L274.119 107.573C284.436 113.504 292.813 127.875 292.813 139.684V347.09C292.813 352.845 290.838 356.916 287.522 358.934C284.207 360.952 262.145 363.479 257.877 363.952C254.79 365.093 250.822 364.567 246.537 362.092L114.85 286.377C110.036 303.924 105.715 319.594 105.344 320.295C103.981 322.609 101.996 324.499 99.6128 325.753C91.1653 330.596 77.7797 330.894 68.7501 326.63V340.667C68.7501 340.667 76.1572 364.181 92.7172 374.165C110.353 384.851 132.786 383.745 157.405 370.971C180.984 358.688 201.707 356.126 218.972 363.215C242.11 372.691 249.835 396.046 250.152 397.029C250.468 397.876 250.608 398.778 250.563 399.68C250.519 400.582 250.291 401.466 249.894 402.279C249.496 403.091 248.937 403.815 248.251 404.406C247.565 404.998 246.765 405.445 245.9 405.72C245.035 405.996 244.123 406.094 243.219 406.009C242.315 405.923 241.438 405.657 240.64 405.225C239.843 404.793 239.141 404.205 238.579 403.496C238.016 402.787 237.603 401.972 237.366 401.099C237.366 400.906 231.282 382.71 213.858 375.569C200.419 370.059 183.524 372.498 163.613 382.833C126.966 401.836 101.041 394.818 85.7511 385.588C66.8631 374.2 56.4051 340.667 56.4051 340.667V319.453L48.7511 315.154L48.8393 170.374Z" fill="#E3FFFF"/>
<path d="M264.596 351.827V154.511C264.596 143.281 256.625 129.595 246.801 123.962L74.2701 24.8564C69.7377 22.2419 64.059 21.6277 60.9022 23.014C64.6586 18.1183 75.5928 6.06354 77.0742 4.27375C80.3898 0.237934 86.2625 -0.358665 92.8407 3.50168L274.119 107.573C284.436 113.504 292.813 127.875 292.813 139.684V347.002C292.813 352.74 290.838 356.793 287.646 358.794C284.454 360.794 262.356 363.321 258.106 363.812C262.074 362.356 264.596 358.144 264.596 351.827Z" fill="#27AAE1"/>
<path d="M166.171 114.346C204.423 136.28 235.303 189.5 235.303 233.104C235.303 276.709 204.423 294.378 166.171 272.445C154.064 265.236 143.277 256.033 134.268 245.229L97.056 210.837V153.686C97.056 110.03 127.989 92.4123 166.171 114.346Z" fill="#67DAFF"/>
<path d="M184.629 212.579C180.792 206.168 180.714 199.173 184.455 196.957C188.196 194.741 194.339 198.142 198.176 204.554C202.013 210.965 202.091 217.96 198.35 220.176C194.609 222.392 188.466 218.991 184.629 212.579Z" fill="#27AAE1"/>
<path d="M133.486 182.759C129.65 176.347 129.572 169.353 133.313 167.137C137.054 164.921 143.197 168.322 147.033 174.733C150.87 181.145 150.948 188.139 147.207 190.355C143.466 192.571 137.323 189.17 133.486 182.759Z" fill="#27AAE1"/>
<path d="M54.7297 319.12V340.632C54.7297 353.758 66.0695 374.165 84.9575 385.553C100.248 394.782 126.172 401.801 162.82 382.798C182.73 372.463 199.626 370.024 213.064 375.498C230.488 382.64 236.502 400.836 236.573 401.029C237.001 402.379 237.851 403.559 238.999 404.395C240.147 405.231 241.534 405.681 242.957 405.679C244.021 405.682 245.07 405.434 246.019 404.954C246.967 404.475 247.788 403.778 248.413 402.921C249.038 402.065 249.45 401.073 249.614 400.027C249.778 398.981 249.691 397.911 249.359 396.906C249.041 395.923 241.317 372.568 218.178 363.093C200.913 356.074 180.191 358.636 156.612 370.848C131.922 383.623 109.63 384.728 91.9236 374.042C75.3636 364.058 68.2035 347.019 68.8383 340.545V326.051L54.7297 319.12Z" fill="#27AAE1"/>
<path d="M10.0414 222.664C10.0414 222.664 26.9718 298.642 27.448 299.748C28.7405 302.399 30.8634 304.56 33.4971 305.907L68.0456 325.752C76.987 330.894 91.5013 330.894 100.46 325.752C102.83 324.494 104.807 322.613 106.174 320.313C106.844 319.05 124.128 255.529 124.128 255.529L10.0414 222.664Z" fill="#67DAFF"/>
<path d="M0.252618 191.027L130.758 217.856L134.109 224.366V240.685C134.109 248.651 126.578 256.635 111.552 260.794C103.97 262.823 96.0565 263.329 88.2749 262.284C80.4932 261.239 72.9987 258.662 66.2282 254.705L11.2221 223.12C3.58579 218.733 -0.152988 212.943 0.0233701 207.187C0.182093 201.783 0.252618 191.027 0.252618 191.027Z" fill="#27AAE1"/>
<path d="M11.8576 176.147C16.7246 173.381 22.044 171.492 27.5711 170.567L45.0306 169.865C52.25 170.43 59.2658 172.517 65.6116 175.989L122.699 209.135C136.508 217.154 137.09 231.174 123.528 239.597C108.855 248.721 84.1997 248.897 69.1211 240.141L12.0516 207.047C-2.40978 198.607 -2.53323 184.675 11.8576 176.147Z" fill="white"/>
<path d="M88.2383 224.085V165.022C88.1946 162.945 88.8726 160.917 90.1579 159.28C91.4431 157.643 93.2569 156.498 95.2927 156.038C96.5798 155.776 97.9094 155.804 99.1843 156.12C100.459 156.435 101.647 157.03 102.661 157.861C103.676 158.692 104.49 159.737 105.046 160.922C105.602 162.106 105.885 163.399 105.874 164.706V224.366C105.645 226.121 103.899 227.875 100.354 228.84C98.1835 229.384 95.9113 229.384 93.7407 228.84C90.2135 227.945 88.45 226.173 88.2736 224.366C88.2383 224.366 88.2383 224.085 88.2383 224.085Z" fill="#67DAFF"/>
<path d="M28.2763 131.367C28.2655 130.06 28.5484 128.767 29.1043 127.582C29.6601 126.398 30.4749 125.352 31.4891 124.521C32.5033 123.691 33.6913 123.096 34.9662 122.78C36.2411 122.465 37.5707 122.437 38.8578 122.698C40.892 123.162 42.7039 124.308 43.9886 125.944C45.2734 127.58 45.9526 129.607 45.9122 131.683V191.027C45.9122 192.939 44.1486 194.887 40.5156 195.852C38.2622 196.449 35.8911 196.449 33.6376 195.852C29.9694 194.887 28.2058 192.939 28.3469 191.027C28.2763 191.027 28.2763 131.367 28.2763 131.367Z" fill="#67DAFF"/>
<path d="M254.984 365.198C257.93 364.847 283.748 361.689 287.223 359.548C290.697 357.407 292.813 352.845 292.813 347.002V139.684C292.813 127.629 284.225 112.872 273.678 106.818L92.3998 2.67692C85.5747 -1.23606 79.2611 -0.832482 75.5046 3.71219L59.3503 23.5403L60.7258 24.6282L76.8626 4.8352C80.037 0.97486 85.5042 0.746749 91.518 4.20351L272.797 108.345C282.849 114.048 291.05 128.173 291.05 139.684V347.002C291.05 352.266 289.286 356.144 286.288 358.056C283.907 359.53 266.148 362.092 254.79 363.461L254.984 365.198Z" fill="#081E7A"/>
<path d="M253.804 365.268C255.585 365.289 257.338 364.835 258.883 363.952C262.498 361.882 264.509 357.565 264.509 351.827V154.511C264.509 143.018 256.326 128.963 246.273 123.19L73.7421 24.0842C68.6982 21.189 63.9013 20.7503 60.2507 22.8384C56.6 24.9265 54.6425 29.2255 54.6425 34.9809V162.951H56.4061V34.9809C56.4061 29.8923 58.0815 26.1197 61.1325 24.365C64.1835 22.6103 68.3808 23.0314 72.8603 25.6108L245.48 124.716C255.038 130.209 262.833 143.579 262.833 154.546V351.827C262.833 356.916 261.07 360.689 258.089 362.443C255.109 364.198 250.841 363.759 246.361 361.197L119.772 288.518L118.89 290.027L245.48 362.707C247.985 364.262 250.853 365.144 253.804 365.268V365.268Z" fill="#081E7A"/>
<path d="M239.535 334.421C240.482 334.431 241.413 334.189 242.234 333.719C243.247 333.027 244.056 332.078 244.577 330.97C245.098 329.863 245.312 328.637 245.196 327.419V155.617C245.025 152.49 244.119 149.446 242.551 146.731C240.983 144.015 238.796 141.704 236.167 139.982L85.8745 53.6861C84.8574 52.9742 83.6692 52.5424 82.4304 52.4345C81.1915 52.3267 79.9461 52.5466 78.8202 53.0719C77.8042 53.7613 76.9931 54.7098 76.4719 55.818C75.9507 56.9262 75.7384 58.1535 75.8574 59.3713V173.427H77.6209V59.3713C77.5225 58.4646 77.6626 57.5479 78.0274 56.7113C78.3922 55.8746 78.9693 55.1466 79.7019 54.5985C80.5596 54.2262 81.5012 54.0869 82.4307 54.1948C83.3601 54.3027 84.2442 54.6539 84.9927 55.2127L235.215 141.509C237.592 143.046 239.575 145.117 241.002 147.555C242.429 149.993 243.262 152.73 243.433 155.546V327.419C243.531 328.326 243.391 329.243 243.026 330.08C242.662 330.916 242.085 331.644 241.352 332.192C240.496 332.567 239.555 332.709 238.626 332.604C237.696 332.5 236.811 332.152 236.061 331.596L127.036 268.97L126.155 270.479L235.215 333.105C236.512 333.916 238.003 334.37 239.535 334.421Z" fill="#081E7A"/>
<path d="M96.6677 153.687H98.4313C98.4313 132.981 105.486 117.54 118.131 110.258C130.775 102.976 147.988 104.625 166.223 115.101L167.105 113.592C148.305 102.783 130.599 101.063 117.249 108.731C103.898 116.399 96.6677 132.314 96.6677 153.687Z" fill="#081E7A"/>
<path d="M197.65 282.78C204.109 282.864 210.475 281.241 216.098 278.077C229.377 270.444 236.679 254.477 236.679 233.104H234.915C234.915 253.827 227.861 269.251 215.216 276.551C202.571 283.85 185.358 282.166 167.105 271.69C155.067 264.523 144.334 255.38 135.361 244.65L134.02 245.791C143.099 256.665 153.956 265.937 166.135 273.217C177.316 279.569 188.004 282.78 197.65 282.78Z" fill="#081E7A"/>
<path d="M196.627 220.857C197.678 220.866 198.712 220.599 199.626 220.084C200.732 219.329 201.616 218.293 202.187 217.084C202.757 215.875 202.993 214.536 202.871 213.206C202.668 209.737 201.642 206.365 199.876 203.366C198.11 200.368 195.655 197.829 192.712 195.957C191.592 195.169 190.281 194.692 188.915 194.574C187.548 194.457 186.174 194.704 184.935 195.291C183.83 196.047 182.948 197.084 182.381 198.293C181.814 199.502 181.581 200.84 181.708 202.169C181.91 205.636 182.934 209.007 184.696 212.005C186.459 215.003 188.91 217.543 191.848 219.418C193.287 220.306 194.935 220.803 196.627 220.857V220.857ZM187.933 196.291C189.322 196.347 190.672 196.764 191.848 197.501C194.538 199.216 196.78 201.542 198.389 204.288C199.999 207.033 200.931 210.12 201.107 213.294C201.206 214.3 201.04 215.314 200.626 216.237C200.211 217.16 199.563 217.96 198.744 218.558C197.768 218.983 196.697 219.146 195.638 219.029C194.579 218.912 193.57 218.519 192.712 217.891C190.025 216.175 187.786 213.849 186.179 211.103C184.572 208.357 183.644 205.271 183.471 202.099C183.37 201.094 183.533 200.081 183.945 199.158C184.356 198.235 185.001 197.435 185.817 196.835C186.458 196.46 187.19 196.266 187.933 196.273V196.291Z" fill="#081E7A"/>
<path d="M145.484 191.027C146.534 191.036 147.568 190.769 148.482 190.254C149.589 189.499 150.473 188.463 151.043 187.254C151.614 186.045 151.85 184.706 151.727 183.376C151.524 179.907 150.498 176.535 148.732 173.536C146.966 170.538 144.511 167.999 141.569 166.127C140.449 165.339 139.138 164.862 137.771 164.745C136.404 164.627 135.03 164.874 133.791 165.461C132.686 166.217 131.805 167.254 131.237 168.463C130.67 169.672 130.437 171.01 130.564 172.339C130.766 175.806 131.79 179.177 133.553 182.175C135.315 185.173 137.766 187.713 140.704 189.588C142.143 190.476 143.791 190.973 145.484 191.027V191.027ZM136.789 166.461C138.178 166.517 139.528 166.934 140.704 167.671C143.394 169.386 145.636 171.712 147.246 174.458C148.855 177.204 149.787 180.29 149.963 183.464C150.062 184.47 149.896 185.484 149.482 186.407C149.068 187.33 148.419 188.13 147.6 188.728C146.624 189.153 145.553 189.316 144.495 189.199C143.436 189.082 142.427 188.689 141.569 188.061C138.881 186.345 136.642 184.019 135.035 181.273C133.429 178.527 132.501 175.441 132.327 172.269C132.227 171.264 132.39 170.251 132.801 169.328C133.212 168.405 133.857 167.605 134.673 167.005C135.314 166.63 136.046 166.436 136.789 166.443V166.461Z" fill="#081E7A"/>
<path d="M243.839 406.592C244.624 406.592 245.404 406.468 246.15 406.223C247.101 405.924 247.984 405.441 248.748 404.801C249.511 404.162 250.141 403.379 250.599 402.497C251.058 401.615 251.337 400.651 251.421 399.662C251.505 398.672 251.392 397.676 251.088 396.73C250.753 395.73 242.922 372.006 219.343 362.373C201.831 355.179 180.862 357.811 157.036 370.164C132.698 382.78 110.636 383.903 93.2118 373.393C77.1808 363.724 69.9325 346.984 70.5321 340.72V326.139H68.7685V340.632C68.0983 347.388 75.3996 364.707 92.2771 374.884C110.266 385.728 132.839 384.64 157.829 371.726C181.179 359.618 201.654 357.021 218.655 363.987C241.423 373.322 249.024 396.291 249.324 397.327C249.557 398.051 249.644 398.815 249.581 399.573C249.517 400.331 249.304 401.07 248.954 401.746C248.603 402.422 248.122 403.023 247.538 403.514C246.954 404.006 246.279 404.378 245.55 404.609C244.981 404.795 244.386 404.89 243.786 404.89C242.55 404.889 241.346 404.497 240.348 403.772C239.349 403.047 238.608 402.025 238.231 400.854C238.231 400.661 232.059 382.078 214.229 374.779C200.543 369.164 183.384 371.62 163.244 382.061C126.949 400.889 101.342 393.975 86.2456 384.851C67.6574 373.638 56.494 353.582 56.4411 340.685V319.12H54.6775V340.632C54.6775 354.021 66.2113 374.761 85.3285 386.255C100.813 395.607 127.055 402.714 164.055 383.517C183.719 373.322 200.367 370.883 213.559 376.288C230.542 383.307 236.485 401.099 236.485 401.275C236.966 402.834 237.944 404.196 239.27 405.155C240.597 406.114 242.2 406.618 243.839 406.592V406.592Z" fill="#081E7A"/>
<path d="M84.2522 330.473C90.0503 330.581 95.7804 329.216 100.9 326.507C103.416 325.17 105.51 323.166 106.95 320.716C107.637 319.436 122.081 266.321 124.973 255.793L123.21 255.336C118.466 272.743 106.015 318.295 105.292 319.962C104.029 322.103 102.199 323.858 100.001 325.033C91.3066 330.016 77.0744 330.016 68.4682 325.033L33.9196 305.187C31.454 303.926 29.4626 301.908 28.2409 299.432C27.7294 297.905 16.6717 248.546 10.8872 222.523L9.12361 222.892C11.963 235.596 26.0893 298.993 26.5831 300.099C27.9454 302.929 30.1995 305.24 33.0025 306.679L67.5511 326.524C72.6885 329.236 78.4378 330.596 84.2522 330.473V330.473Z" fill="#081E7A"/>
<path d="M97.3033 263.706C102.487 263.71 107.648 263.019 112.646 261.653C127.178 257.617 135.855 249.774 135.855 240.597V224.278H134.092V240.597C134.092 248.739 125.697 256.126 112.17 259.899C104.701 261.884 96.9099 262.375 89.2482 261.345C81.5865 260.315 74.2062 257.784 67.5341 253.897L12.528 222.313C5.47364 218.242 1.59375 212.855 1.77011 207.187C1.94647 201.52 1.77011 189.272 1.77011 189.149H0.00652926C0.00652926 189.272 0.0947083 201.695 0.00652926 207.117C-0.187465 213.469 3.95696 219.4 11.6462 223.822L66.6523 255.407C75.9666 260.786 86.5335 263.648 97.3033 263.706V263.706Z" fill="#081E7A"/>
<path d="M44.5715 226.91L45.4709 225.401L12.492 206.257C5.75508 202.344 2.03391 197.133 2.01628 191.588C1.99864 186.043 5.64926 180.849 12.298 176.901C17.0818 174.195 22.3042 172.343 27.7293 171.427L27.4119 169.672C21.7797 170.616 16.359 172.54 11.3985 175.357C4.1855 179.639 0.217422 185.394 0.252694 191.553C0.287966 197.712 4.30894 203.502 11.6102 207.731L44.5715 226.91Z" fill="#081E7A"/>
<path d="M95.8573 247.493C106.104 247.493 116.333 245.106 124.075 240.334C130.776 236.175 134.427 230.525 134.339 224.419C134.251 218.312 130.194 212.434 123.228 208.381L107.356 199.116L106.456 200.625L122.329 209.89C128.748 213.627 132.487 218.926 132.575 224.454C132.663 229.981 129.295 234.982 123.14 238.86C108.89 247.633 84.3412 247.949 69.6329 239.386L61.4322 234.631L60.5504 236.14L68.6276 240.913C76.9831 245.403 86.3627 247.67 95.8573 247.493Z" fill="#081E7A"/>
<path d="M87.4972 189.71L88.3966 188.201L66.052 175.234C59.598 171.687 52.4526 169.562 45.1007 169.005L44.942 170.76C52.0114 171.31 58.8825 173.35 65.0997 176.743L87.4972 189.71Z" fill="#081E7A"/>
<path d="M96.1562 230.121C97.3459 230.126 98.5313 229.978 99.6833 229.683C103.316 228.77 105.574 226.858 105.856 224.419V164.759C105.864 163.321 105.55 161.899 104.936 160.597C104.322 159.295 103.424 158.146 102.307 157.234C101.19 156.321 99.8828 155.667 98.4801 155.321C97.0774 154.974 95.6148 154.944 94.1986 155.231C91.9637 155.729 89.9712 156.982 88.5598 158.776C87.1484 160.571 86.4052 162.796 86.4565 165.075V224.138C86.4349 224.295 86.4349 224.454 86.4565 224.612C86.7563 226.963 88.9608 228.823 92.5761 229.735C93.7475 230.018 94.951 230.148 96.1562 230.121V230.121ZM96.1562 156.74C97.9915 156.723 99.7753 157.343 101.2 158.494C102.118 159.244 102.856 160.186 103.363 161.255C103.869 162.323 104.13 163.49 104.128 164.671V224.331C103.934 225.84 102.117 227.226 99.2777 227.945C97.246 228.454 95.1192 228.454 93.0875 227.945C90.2305 227.226 88.4317 225.84 88.2906 224.243C88.3005 224.179 88.3005 224.114 88.2906 224.05V165.022C88.2331 163.955 88.3948 162.887 88.766 161.884C89.1372 160.881 89.7101 159.964 90.4496 159.189C91.189 158.414 92.0796 157.797 93.0669 157.376C94.0541 156.955 95.1173 156.738 96.1914 156.74H96.1562Z" fill="#081E7A"/>
<path d="M36.1945 197.186C37.4326 197.186 38.6656 197.027 39.8627 196.712C43.725 195.694 45.9823 193.553 45.9118 190.991V131.683C45.9589 129.403 45.2119 127.177 43.7976 125.383C42.3832 123.589 40.3886 122.336 38.152 121.839C36.7367 121.551 35.2748 121.582 33.8729 121.928C32.4711 122.275 31.1647 122.929 30.0492 123.842C28.9338 124.755 28.0373 125.904 27.4254 127.206C26.8135 128.508 26.5016 129.93 26.5124 131.367V181.692C26.5124 187.342 26.5124 189.868 26.6711 190.991H26.53C26.4242 193.536 28.6816 195.677 32.5438 196.712C33.7347 197.028 34.962 197.187 36.1945 197.186ZM36.1945 123.488C36.7275 123.489 37.2591 123.541 37.7817 123.646C39.6166 124.066 41.2493 125.105 42.4031 126.585C43.5569 128.066 44.1609 129.897 44.1129 131.77V191.114C44.1129 192.869 42.3494 194.308 39.3865 195.097C37.2779 195.659 35.0581 195.659 32.9495 195.097C29.9867 194.308 28.1878 192.799 28.2583 191.132C28.2583 189.904 28.2583 132.034 28.2583 131.472C28.2519 130.29 28.5114 129.122 29.018 128.053C29.5246 126.985 30.2654 126.042 31.1859 125.295C32.5887 124.09 34.376 123.418 36.2297 123.4L36.1945 123.488Z" fill="#081E7A"/>
</svg>
