<svg width="545" height="585" viewBox="0 0 545 585" fill="none" xmlns="http://www.w3.org/2000/svg">
<ellipse cx="274.475" cy="283.527" rx="107.918" ry="257.111" transform="rotate(-53.1602 274.475 283.527)" stroke="#797EF6" stroke-width="3" stroke-linecap="round" stroke-linejoin="round" stroke-dasharray="8 8"/>
<g filter="url(#filter0_d_56_364)">
<circle cx="45" cy="128" r="33" fill="white"/>
</g>
<g filter="url(#filter1_d_56_364)">
<circle cx="163" cy="482" r="33" fill="white"/>
</g>
<g filter="url(#filter2_d_56_364)">
<circle cx="451" cy="538" r="33" fill="white"/>
</g>
<g filter="url(#filter3_d_56_364)">
<circle cx="30.5" cy="282.5" r="23.5" fill="white"/>
</g>
<g filter="url(#filter4_d_56_364)">
<circle cx="146" cy="34" r="28" fill="white"/>
</g>
<path d="M146.395 465.754H181.468V500.803H146.395V465.754Z" fill="#F0DB4F"/>
<path d="M178.597 492.444C178.34 490.845 177.297 489.502 174.206 488.249C173.133 487.756 171.936 487.403 171.579 486.59C171.452 486.117 171.436 485.85 171.516 485.564C171.746 484.634 172.856 484.344 173.736 484.611C174.303 484.801 174.84 485.237 175.163 485.934C176.677 484.954 176.673 484.961 177.73 484.288C177.343 483.688 177.137 483.412 176.883 483.155C175.973 482.139 174.733 481.616 172.749 481.656C172.406 481.699 172.059 481.746 171.716 481.789C170.726 482.039 169.782 482.559 169.229 483.255C167.568 485.137 168.042 488.432 170.062 489.789C172.052 491.281 174.976 491.621 175.35 493.017C175.713 494.726 174.093 495.279 172.483 495.083C171.296 494.836 170.636 494.233 169.922 493.137C168.609 493.897 168.609 493.897 167.258 494.673C167.578 495.372 167.915 495.689 168.452 496.295C170.992 498.871 177.35 498.744 178.49 494.846C178.537 494.713 178.844 493.82 178.597 492.444ZM165.461 481.862H162.181C162.181 484.694 162.167 487.506 162.167 490.338C162.167 492.141 162.261 493.793 161.967 494.3C161.487 495.296 160.244 495.173 159.677 494.979C159.1 494.696 158.807 494.293 158.467 493.723C158.373 493.56 158.303 493.433 158.28 493.423C157.39 493.966 156.503 494.513 155.613 495.056C156.056 495.965 156.71 496.755 157.546 497.268C158.797 498.018 160.477 498.248 162.234 497.845C163.378 497.511 164.364 496.822 164.881 495.772C165.628 494.396 165.468 492.73 165.461 490.888C165.478 487.883 165.461 484.878 165.461 481.862Z" fill="#323330"/>
<path d="M24.5839 283.843C24.5839 284.204 24.6238 284.496 24.6937 284.71C24.7736 284.924 24.8735 285.157 25.0133 285.411C25.0632 285.488 25.0832 285.566 25.0832 285.634C25.0832 285.732 25.0232 285.829 24.8934 285.926L24.2644 286.335C24.1745 286.394 24.0846 286.423 24.0048 286.423C23.9049 286.423 23.8051 286.374 23.7052 286.287C23.5654 286.141 23.4456 285.985 23.3457 285.829C23.2459 285.664 23.146 285.479 23.0362 285.255C22.2574 286.15 21.2788 286.598 20.1006 286.598C19.2618 286.598 18.5928 286.364 18.1035 285.897C17.6143 285.43 17.3646 284.807 17.3646 284.028C17.3646 283.201 17.6642 282.529 18.2733 282.023C18.8824 281.517 19.6912 281.264 20.7196 281.264C21.0591 281.264 21.4086 281.293 21.7781 281.342C22.1475 281.391 22.527 281.468 22.9264 281.556V280.845C22.9264 280.106 22.7666 279.59 22.4571 279.288C22.1375 278.986 21.5983 278.84 20.8295 278.84C20.48 278.84 20.1205 278.879 19.7511 278.967C19.3816 279.054 19.0222 279.162 18.6727 279.298C18.5129 279.366 18.3931 279.405 18.3232 279.424C18.2533 279.444 18.2034 279.454 18.1634 279.454C18.0236 279.454 17.9537 279.356 17.9537 279.152V278.675C17.9537 278.519 17.9737 278.402 18.0236 278.334C18.0736 278.266 18.1634 278.198 18.3032 278.13C18.6527 277.955 19.0721 277.809 19.5614 277.692C20.0506 277.565 20.5699 277.507 21.119 277.507C22.3073 277.507 23.176 277.77 23.7352 278.295C24.2843 278.821 24.5639 279.619 24.5639 280.69V283.843H24.5839ZM20.5299 285.323C20.8594 285.323 21.1989 285.265 21.5584 285.148C21.9179 285.031 22.2374 284.817 22.507 284.525C22.6667 284.34 22.7866 284.135 22.8465 283.902C22.9064 283.668 22.9463 283.386 22.9463 283.055V282.646C22.6568 282.578 22.3472 282.52 22.0277 282.481C21.7082 282.442 21.3986 282.422 21.0891 282.422C20.4201 282.422 19.9308 282.549 19.6013 282.812C19.2718 283.074 19.112 283.444 19.112 283.931C19.112 284.389 19.2319 284.729 19.4815 284.963C19.7211 285.206 20.0706 285.323 20.5299 285.323ZM28.548 286.374C28.3683 286.374 28.2485 286.345 28.1686 286.277C28.0887 286.218 28.0188 286.082 27.9589 285.897L25.6124 278.373C25.5525 278.178 25.5225 278.052 25.5225 277.984C25.5225 277.828 25.6024 277.74 25.7621 277.74H26.7407C26.9304 277.74 27.0602 277.77 27.1301 277.838C27.21 277.896 27.2699 278.032 27.3298 278.217L29.0073 284.661L30.565 278.217C30.6149 278.023 30.6749 277.896 30.7547 277.838C30.8346 277.779 30.9744 277.74 31.1541 277.74H31.953C32.1427 277.74 32.2725 277.77 32.3524 277.838C32.4322 277.896 32.5021 278.032 32.5421 278.217L34.1197 284.739L35.8472 278.217C35.9071 278.023 35.977 277.896 36.0469 277.838C36.1268 277.779 36.2566 277.74 36.4363 277.74H37.3649C37.5247 277.74 37.6145 277.818 37.6145 277.984C37.6145 278.032 37.6046 278.081 37.5946 278.139C37.5846 278.198 37.5646 278.276 37.5247 278.383L35.1183 285.907C35.0583 286.102 34.9884 286.228 34.9086 286.287C34.8287 286.345 34.6989 286.384 34.5291 286.384H33.6704C33.4807 286.384 33.3509 286.355 33.271 286.287C33.1911 286.218 33.1212 286.092 33.0813 285.897L31.5336 279.619L29.9959 285.888C29.9459 286.082 29.886 286.209 29.8061 286.277C29.7263 286.345 29.5865 286.374 29.4067 286.374H28.548ZM41.379 286.637C40.8597 286.637 40.3405 286.579 39.8412 286.462C39.342 286.345 38.9526 286.218 38.6929 286.072C38.5332 285.985 38.4233 285.888 38.3834 285.8C38.3435 285.712 38.3235 285.615 38.3235 285.527V285.031C38.3235 284.827 38.4034 284.729 38.5532 284.729C38.6131 284.729 38.673 284.739 38.7329 284.758C38.7928 284.778 38.8827 284.817 38.9825 284.856C39.322 285.002 39.6915 285.119 40.0809 285.196C40.4803 285.274 40.8697 285.313 41.2691 285.313C41.8982 285.313 42.3875 285.206 42.7269 284.992C43.0664 284.778 43.2462 284.466 43.2462 284.067C43.2462 283.795 43.1563 283.571 42.9766 283.386C42.7968 283.201 42.4573 283.036 41.9681 282.88L40.5202 282.442C39.7913 282.218 39.2521 281.887 38.9226 281.449C38.5931 281.021 38.4233 280.544 38.4233 280.038C38.4233 279.629 38.5132 279.269 38.6929 278.957C38.8727 278.646 39.1123 278.373 39.4119 278.159C39.7114 277.935 40.0509 277.77 40.4503 277.653C40.8497 277.536 41.2691 277.487 41.7085 277.487C41.9281 277.487 42.1578 277.497 42.3775 277.526C42.6071 277.555 42.8168 277.594 43.0265 277.633C43.2262 277.682 43.4159 277.731 43.5957 277.789C43.7754 277.847 43.9152 277.906 44.015 277.964C44.1548 278.042 44.2547 278.12 44.3146 278.208C44.3745 278.285 44.4045 278.393 44.4045 278.529V278.986C44.4045 279.191 44.3246 279.298 44.1748 279.298C44.0949 279.298 43.9651 279.259 43.7954 279.181C43.2262 278.928 42.5872 278.801 41.8782 278.801C41.3091 278.801 40.8597 278.889 40.5502 279.074C40.2406 279.259 40.0809 279.541 40.0809 279.94C40.0809 280.213 40.1807 280.446 40.3804 280.631C40.5801 280.816 40.9496 281.001 41.4788 281.167L42.8967 281.605C43.6156 281.829 44.1349 282.14 44.4444 282.539C44.7539 282.938 44.9037 283.396 44.9037 283.902C44.9037 284.32 44.8139 284.7 44.6441 285.031C44.4644 285.362 44.2247 285.654 43.9152 285.888C43.6056 286.131 43.2362 286.306 42.8068 286.433C42.3575 286.569 41.8882 286.637 41.379 286.637Z" fill="#252F3E"/>
<path d="M43.2661 291.368C39.9809 293.733 35.208 294.989 31.1041 294.989C25.3527 294.989 20.1704 292.915 16.2562 289.47C15.9466 289.197 16.2262 288.827 16.5957 289.041C20.8294 291.436 26.0516 292.886 31.4536 292.886C35.0982 292.886 39.1022 292.146 42.7868 290.628C43.3359 290.385 43.8052 290.978 43.2661 291.368Z" fill="#FF9900"/>
<path d="M44.634 289.849C44.2146 289.324 41.8581 289.596 40.7897 289.723C40.4702 289.762 40.4203 289.489 40.7099 289.285C42.5871 288 45.6725 288.37 46.0319 288.798C46.3914 289.236 45.9321 292.244 44.1747 293.684C43.9051 293.908 43.6455 293.791 43.7653 293.499C44.1647 292.536 45.0534 290.365 44.634 289.849Z" fill="#FF9900"/>
<g filter="url(#filter5_d_56_364)">
<circle cx="252" cy="128" r="40" fill="white"/>
</g>
<g filter="url(#filter6_d_56_364)">
<circle cx="363.45" cy="97.5" r="24.5" fill="white"/>
</g>
<g filter="url(#filter7_d_56_364)">
<ellipse cx="430" cy="226.5" rx="29" ry="29.5" fill="white"/>
</g>
<g filter="url(#filter8_d_56_364)">
<circle cx="312.5" cy="459.5" r="34.5" fill="white"/>
</g>
<g filter="url(#filter9_d_56_364)">
<circle cx="475.5" cy="380.5" r="51.5" fill="white"/>
</g>
<g filter="url(#filter10_d_56_364)">
<circle cx="126.5" cy="351.5" r="51.5" fill="white"/>
</g>
<g filter="url(#filter11_d_56_364)">
<rect x="165.95" y="187.317" width="225" height="189" rx="11" fill="white"/>
</g>
<path d="M165.95 198.317C165.95 192.242 170.875 187.317 176.95 187.317H379.95C386.025 187.317 390.95 192.242 390.95 198.317V214.317H165.95V198.317Z" fill="#141414"/>
<circle cx="184.95" cy="203.317" r="5" fill="white"/>
<circle cx="204.95" cy="203.317" r="5" fill="white"/>
<circle cx="224.95" cy="203.317" r="5" fill="white"/>
<path d="M278.95 340.317C246.15 322.717 234.617 282.984 232.95 265.317L249.95 247.317H302.95L323.45 265.317C321.05 303.717 292.784 331.317 278.95 340.317Z" fill="#0183EC"/>
<path d="M255.95 292.817L269.95 305.317L300.95 276.317" stroke="#FEB00B" stroke-width="12" stroke-linecap="round" stroke-linejoin="round"/>
<path d="M146.896 19.1218C138.319 19.1218 131.363 26.0718 131.363 34.6438C131.363 41.5019 135.813 47.32 141.986 49.3728C142.761 49.5164 143.013 49.0352 143.013 48.6265V45.7368C138.692 46.6759 137.792 43.9052 137.792 43.9052C137.086 42.1111 136.067 41.6338 136.067 41.6338C134.657 40.6702 136.174 40.6909 136.174 40.6909C137.734 40.7995 138.555 42.2909 138.555 42.2909C139.94 44.6632 142.188 43.9776 143.075 43.5805C143.213 42.5781 143.616 41.8925 144.061 41.5058C140.612 41.1113 136.985 39.7803 136.985 33.8341C136.985 32.1383 137.592 30.7542 138.585 29.6677C138.424 29.2758 137.892 27.6964 138.736 25.5596C138.736 25.5596 140.041 25.1431 143.009 27.1506C144.247 26.8065 145.575 26.6345 146.896 26.628C148.216 26.6345 149.545 26.8065 150.786 27.1506C153.752 25.1431 155.054 25.5596 155.054 25.5596C155.899 27.6977 155.367 29.2771 155.207 29.6677C156.203 30.7542 156.805 32.1396 156.805 33.8341C156.805 39.7958 153.172 41.1087 149.713 41.4928C150.27 41.974 150.779 42.9183 150.779 44.367V48.6265C150.779 49.0391 151.027 49.5242 151.816 49.3715C157.983 47.3162 162.428 41.4993 162.428 34.6438C162.428 26.0718 155.473 19.1218 146.896 19.1218Z" fill="black"/>
<mask id="mask0_56_364" style="mask-type:luminance" maskUnits="userSpaceOnUse" x="428" y="528" width="47" height="24">
<path d="M428.801 539.85C428.801 546.391 439.028 551.693 451.642 551.693C464.257 551.693 474.483 546.391 474.483 539.85C474.483 533.309 464.257 528.007 451.642 528.007C439.028 528.007 428.801 533.309 428.801 539.85Z" fill="white"/>
</mask>
<g mask="url(#mask0_56_364)">
<path d="M428.801 539.85C428.801 546.391 439.028 551.693 451.642 551.693C464.257 551.693 474.483 546.391 474.483 539.85C474.483 533.309 464.257 528.007 451.642 528.007C439.028 528.007 428.801 533.309 428.801 539.85Z" fill="url(#paint0_radial_56_364)"/>
</g>
<mask id="mask1_56_364" style="mask-type:luminance" maskUnits="userSpaceOnUse" x="427" y="526" width="49" height="28">
<path d="M427.849 526.658H475.435V553.042H427.849V526.658Z" fill="white"/>
</mask>
<g mask="url(#mask1_56_364)">
<path d="M451.642 550.814C463.764 550.814 473.591 545.905 473.591 539.85C473.591 533.795 463.764 528.886 451.642 528.886C439.52 528.886 429.693 533.795 429.693 539.85C429.693 545.905 439.52 550.814 451.642 550.814Z" fill="#777BB3"/>
</g>
<mask id="mask2_56_364" style="mask-type:luminance" maskUnits="userSpaceOnUse" x="427" y="526" width="49" height="28">
<path d="M427.849 526.658H475.435V553.042H427.849V526.658Z" fill="white"/>
</mask>
<g mask="url(#mask2_56_364)">
<path d="M441.211 541.209C442.207 541.209 442.952 541.028 443.422 540.671C443.888 540.318 444.21 539.705 444.378 538.851C444.536 538.052 444.476 537.495 444.2 537.194C443.919 536.887 443.31 536.731 442.392 536.731H440.799L439.916 541.21H441.211L441.211 541.209ZM436.001 546.726C435.927 546.726 435.857 546.694 435.81 546.637C435.786 546.61 435.77 546.577 435.761 546.542C435.752 546.507 435.751 546.471 435.758 546.436L438.098 534.567C438.109 534.511 438.139 534.461 438.184 534.425C438.228 534.389 438.284 534.369 438.341 534.369H443.385C444.97 534.369 446.15 534.793 446.892 535.63C447.637 536.472 447.868 537.648 447.576 539.125C447.457 539.728 447.253 540.287 446.97 540.787C446.685 541.289 446.31 541.752 445.854 542.166C445.307 542.67 444.688 543.036 444.017 543.251C443.355 543.463 442.506 543.571 441.493 543.571H439.451L438.867 546.529C438.856 546.585 438.826 546.635 438.782 546.671C438.737 546.707 438.682 546.727 438.624 546.727H436.001V546.726Z" fill="black"/>
<path d="M441.004 536.975H442.392C443.501 536.975 443.886 537.215 444.017 537.358C444.234 537.595 444.275 538.095 444.135 538.805C443.979 539.598 443.688 540.161 443.271 540.478C442.845 540.801 442.152 540.965 441.211 540.965H440.217L441.004 536.975ZM443.385 534.125H438.341C438.226 534.125 438.115 534.164 438.026 534.237C437.937 534.309 437.877 534.409 437.855 534.52L435.515 546.389C435.501 546.46 435.503 546.533 435.521 546.602C435.539 546.672 435.572 546.737 435.619 546.793C435.665 546.849 435.724 546.893 435.79 546.924C435.856 546.955 435.928 546.971 436.001 546.971H438.624C438.739 546.971 438.851 546.931 438.939 546.859C439.028 546.787 439.089 546.687 439.111 546.575L439.655 543.815H441.493C442.533 543.815 443.408 543.704 444.094 543.483C444.799 543.257 445.449 542.874 446.023 542.345C446.498 541.914 446.891 541.43 447.186 540.907C447.482 540.384 447.696 539.8 447.82 539.172C448.127 537.616 447.877 536.371 447.079 535.47C446.288 534.577 445.045 534.125 443.385 534.125M439.616 541.454H441.211C442.268 541.454 443.056 541.258 443.574 540.865C444.091 540.472 444.441 539.816 444.622 538.898C444.795 538.016 444.717 537.393 444.385 537.03C444.053 536.668 443.389 536.486 442.392 536.486H440.595L439.616 541.454M443.386 534.614C444.903 534.614 446.01 535.006 446.706 535.791C447.401 536.576 447.611 537.672 447.333 539.079C447.219 539.658 447.026 540.188 446.754 540.668C446.482 541.148 446.126 541.588 445.686 541.986C445.162 542.469 444.581 542.814 443.94 543.019C443.3 543.224 442.485 543.327 441.493 543.327H439.246L438.624 546.482H436.001L438.341 534.614H443.385" fill="white"/>
<path d="M453.59 543.571C453.516 543.571 453.446 543.538 453.399 543.482C453.352 543.426 453.333 543.352 453.347 543.28L454.382 538.029C454.481 537.529 454.457 537.171 454.314 537.019C454.227 536.927 453.965 536.771 453.19 536.771H451.314L450.013 543.373C450.002 543.429 449.972 543.479 449.927 543.515C449.883 543.551 449.827 543.571 449.77 543.571H447.167C447.131 543.571 447.095 543.563 447.062 543.547C447.029 543.532 446.999 543.51 446.976 543.482C446.953 543.454 446.936 543.422 446.927 543.387C446.918 543.352 446.917 543.315 446.924 543.28L449.264 531.411C449.275 531.356 449.306 531.306 449.35 531.269C449.394 531.233 449.45 531.214 449.508 531.214H452.11C452.146 531.214 452.183 531.222 452.216 531.237C452.249 531.252 452.278 531.275 452.301 531.303C452.324 531.33 452.341 531.363 452.35 531.398C452.359 531.433 452.36 531.469 452.353 531.505L451.788 534.369H453.806C455.343 534.369 456.385 534.636 456.992 535.186C457.612 535.746 457.804 536.643 457.566 537.85L456.477 543.373C456.467 543.429 456.436 543.479 456.392 543.515C456.347 543.551 456.292 543.571 456.234 543.571H453.591L453.59 543.571Z" fill="black"/>
<path d="M452.11 530.969H449.507C449.392 530.969 449.281 531.009 449.192 531.081C449.103 531.153 449.043 531.253 449.021 531.365L446.681 543.233C446.667 543.304 446.669 543.377 446.687 543.447C446.705 543.517 446.738 543.582 446.785 543.637C446.831 543.693 446.89 543.738 446.956 543.768C447.022 543.799 447.094 543.815 447.167 543.815H449.77C449.885 543.815 449.996 543.776 450.085 543.704C450.174 543.631 450.234 543.531 450.256 543.42L451.519 537.016H453.19C453.963 537.016 454.126 537.178 454.132 537.185C454.179 537.235 454.241 537.466 454.139 537.982L453.104 543.233C453.09 543.304 453.092 543.377 453.11 543.447C453.128 543.517 453.162 543.582 453.208 543.637C453.255 543.693 453.313 543.738 453.379 543.768C453.445 543.799 453.517 543.815 453.591 543.815H456.234C456.349 543.815 456.461 543.776 456.55 543.704C456.638 543.631 456.699 543.531 456.721 543.42L457.81 537.897C458.065 536.6 457.847 535.628 457.16 535.006C456.505 534.413 455.408 534.125 453.806 534.125H452.089L452.597 531.551C452.611 531.48 452.609 531.408 452.591 531.338C452.573 531.268 452.539 531.203 452.493 531.147C452.446 531.092 452.388 531.047 452.322 531.016C452.255 530.985 452.183 530.969 452.11 530.969M452.11 531.458L451.488 534.613H453.806C455.265 534.613 456.271 534.864 456.825 535.366C457.379 535.867 457.545 536.68 457.323 537.804L456.234 543.327H453.591L454.626 538.075C454.744 537.478 454.7 537.07 454.496 536.853C454.291 536.636 453.856 536.527 453.19 536.527H451.11L449.77 543.327H447.167L449.508 531.458H452.11" fill="white"/>
<path d="M461.684 541.209C462.681 541.209 463.425 541.028 463.895 540.671C464.361 540.318 464.683 539.705 464.852 538.851C465.009 538.052 464.949 537.495 464.674 537.194C464.392 536.887 463.784 536.731 462.865 536.731H461.272L460.389 541.21H461.684L461.684 541.209ZM456.474 546.726C456.4 546.726 456.33 546.694 456.283 546.637C456.26 546.61 456.243 546.577 456.234 546.542C456.225 546.507 456.224 546.471 456.231 546.436L458.571 534.567C458.582 534.511 458.612 534.461 458.657 534.425C458.701 534.389 458.757 534.369 458.814 534.369H463.858C465.444 534.369 466.623 534.793 467.365 535.63C468.111 536.472 468.341 537.647 468.049 539.125C467.93 539.728 467.726 540.287 467.443 540.787C467.159 541.289 466.783 541.752 466.327 542.166C465.78 542.67 465.161 543.036 464.49 543.251C463.828 543.463 462.979 543.571 461.966 543.571H459.923L459.34 546.529C459.329 546.585 459.299 546.635 459.255 546.671C459.21 546.707 459.154 546.727 459.097 546.727H456.474L456.474 546.726Z" fill="black"/>
<path d="M461.476 536.975H462.865C463.974 536.975 464.359 537.215 464.49 537.358C464.707 537.595 464.748 538.095 464.608 538.804C464.452 539.598 464.161 540.161 463.744 540.478C463.318 540.801 462.625 540.965 461.684 540.965H460.69L461.476 536.975ZM463.858 534.125H458.814C458.699 534.125 458.588 534.164 458.499 534.237C458.41 534.309 458.35 534.409 458.328 534.52L455.988 546.389C455.974 546.46 455.976 546.533 455.994 546.602C456.012 546.672 456.045 546.737 456.092 546.793C456.138 546.849 456.197 546.893 456.263 546.924C456.329 546.955 456.401 546.971 456.474 546.971H459.097C459.212 546.971 459.324 546.931 459.412 546.859C459.501 546.787 459.562 546.687 459.584 546.575L460.128 543.815H461.966C463.005 543.815 463.881 543.704 464.567 543.483C465.272 543.257 465.922 542.874 466.496 542.344C466.971 541.914 467.363 541.43 467.659 540.907C467.956 540.384 468.169 539.8 468.293 539.172C468.6 537.616 468.35 536.371 467.552 535.47C466.761 534.577 465.518 534.125 463.858 534.125M460.089 541.454H461.684C462.741 541.454 463.529 541.258 464.047 540.865C464.564 540.472 464.914 539.816 465.095 538.898C465.269 538.016 465.19 537.393 464.858 537.03C464.526 536.668 463.862 536.486 462.865 536.486H461.068L460.089 541.454M463.858 534.614C465.376 534.614 466.483 535.006 467.179 535.791C467.874 536.576 468.084 537.672 467.806 539.079C467.692 539.658 467.499 540.188 467.227 540.668C466.955 541.148 466.599 541.588 466.159 541.986C465.635 542.469 465.053 542.814 464.413 543.019C463.773 543.224 462.958 543.327 461.966 543.327H459.719L459.097 546.482H456.474L458.815 534.614H463.859" fill="white"/>
</g>
<path d="M312.741 440.958L293.336 447.874L296.296 473.515L312.741 482.617L329.187 473.515L332.146 447.874L312.741 440.958Z" fill="#DD0031"/>
<path d="M312.741 440.958V445.583V445.562V466.662V482.617L329.187 473.515L332.146 447.874L312.741 440.958Z" fill="#C3002F"/>
<path d="M312.741 445.562L300.61 472.744H305.133L307.572 466.662H317.869L320.307 472.744H324.83L312.741 445.562ZM316.284 462.913H309.198L312.741 454.394L316.284 462.913Z" fill="white"/>
<path d="M98.7271 373.665H95.6298V370.851H98.9013C100.098 370.851 100.698 371.327 100.698 372.28C100.698 373.203 100.043 373.665 98.7331 373.665M100.963 370.825C100.538 370.481 99.9432 370.31 99.1786 370.31L94.7341 370.332V377.069H95.6298L95.6218 374.204H98.9286C99.7577 374.204 100.411 374.032 100.887 373.689C101.362 373.345 101.602 372.87 101.602 372.26C101.602 371.651 101.389 371.175 100.963 370.831V370.825ZM106.76 375.644C106.671 375.868 106.524 376.066 106.335 376.217C105.934 376.569 105.322 376.745 104.499 376.745C103.756 376.745 103.185 376.573 102.788 376.23C102.39 375.886 102.191 375.428 102.191 374.853C102.191 374.553 102.243 374.287 102.347 374.055C102.449 373.827 102.604 373.625 102.799 373.468C103.211 373.129 103.777 372.96 104.499 372.96C106.098 372.96 106.897 373.591 106.897 374.852C106.897 375.152 106.851 375.415 106.761 375.642M106.923 373.158C106.378 372.709 105.569 372.485 104.499 372.485C103.489 372.485 102.707 372.714 102.156 373.172C101.659 373.586 101.41 374.146 101.41 374.849C101.41 375.553 101.667 376.113 102.181 376.542C102.472 376.778 102.81 376.949 103.173 377.045C103.55 377.149 103.993 377.2 104.501 377.2C105.565 377.2 106.376 376.978 106.932 376.534C107.43 376.129 107.678 375.567 107.678 374.849C107.678 374.125 107.427 373.561 106.924 373.156L106.923 373.158ZM113.696 375.838C113.696 376.744 112.796 377.197 110.994 377.197C110.444 377.197 109.98 377.165 109.603 377.102C109.226 377.04 108.921 376.935 108.686 376.789C108.504 376.678 108.353 376.534 108.254 376.355C108.141 376.147 108.07 375.918 108.045 375.683L108.883 375.676C108.883 376.033 109.03 376.295 109.324 376.464C109.638 376.667 110.196 376.768 110.996 376.768C112.255 376.768 112.884 376.484 112.884 375.909C112.884 375.577 112.673 375.348 112.251 375.223C112.165 375.198 111.657 375.135 110.724 375.024L108.98 374.747C108.484 374.569 108.236 374.248 108.236 373.785C108.236 373.332 108.458 372.995 108.902 372.773C109.121 372.681 109.395 372.611 109.724 372.56C110.054 372.509 110.435 372.484 110.868 372.484C112.602 372.484 113.461 372.974 113.461 373.955H112.663C112.663 373.266 112.054 372.921 110.835 372.921C110.215 372.921 109.752 372.991 109.448 373.131C109.143 373.27 108.991 373.485 108.991 373.774C108.991 374.038 109.191 374.239 109.608 374.359C109.849 374.422 110.402 374.495 111.268 374.576C112.043 374.639 112.574 374.728 112.864 374.843C113.414 375.036 113.689 375.364 113.689 375.826L113.696 375.838ZM116.986 377.065L116.645 377.108L116.432 377.123C115.887 377.123 115.493 377.052 115.252 376.909C115.011 376.766 114.89 376.516 114.89 376.159V373.088H113.896V372.636H114.882L114.89 371.185H115.655V372.636H116.985V373.095L115.655 373.088V376.077C115.655 376.299 115.72 376.453 115.852 376.538C115.984 376.622 116.218 376.664 116.553 376.664C116.601 376.669 116.655 376.668 116.713 376.66C116.771 376.652 116.859 376.633 116.978 376.606L116.986 377.067L116.986 377.065ZM122.27 376.047C122.055 376.205 121.813 376.324 121.557 376.401C121.29 376.483 120.983 376.524 120.635 376.524C119.038 376.524 118.239 375.929 118.239 374.74C118.239 374.187 118.443 373.753 118.852 373.441C119.261 373.128 119.836 372.978 120.579 372.978C121.327 372.978 121.895 373.137 122.281 373.451C122.667 373.765 122.862 374.189 122.862 374.719C122.862 375.297 122.665 375.743 122.269 376.055M123.626 372.647H122.864L122.856 373.407C122.52 373.098 122.279 372.904 122.135 372.822C121.707 372.61 121.154 372.505 120.475 372.505C119.48 372.505 118.722 372.703 118.198 373.119C117.7 373.495 117.452 374.039 117.452 374.752C117.452 375.103 117.515 375.417 117.641 375.694C117.765 375.969 117.953 376.21 118.19 376.398C118.722 376.793 119.456 376.991 120.415 376.991C121.566 376.991 122.384 376.707 122.865 376.132V376.925C122.865 377.427 122.689 377.814 122.333 378.089C121.977 378.363 121.407 378.501 120.604 378.501C119.85 378.501 119.313 378.407 118.992 378.22C118.752 378.076 118.593 377.826 118.495 377.472H117.709C117.795 377.967 118.028 378.326 118.407 378.548C118.846 378.803 119.586 378.931 120.629 378.931C122.624 378.931 123.622 378.263 123.622 376.926V372.633L123.626 372.647ZM127.76 373.093C127.547 373.061 127.333 373.044 127.119 373.043C125.863 373.043 125.235 373.664 125.235 374.906V377.064H124.48L124.472 372.647L125.237 372.654V373.442H125.277C125.393 373.145 125.608 372.896 125.886 372.736C126.19 372.581 126.644 372.503 127.249 372.503H127.761V373.094L127.76 373.093ZM128.47 374.569C128.566 374.067 128.782 373.678 129.119 373.403C129.338 373.244 129.586 373.124 129.863 373.044C130.141 372.964 130.454 372.925 130.794 372.925C131.473 372.925 132.027 373.093 132.457 373.429C132.886 373.764 133.102 374.144 133.102 374.569H128.46M133.176 373.207C132.909 372.965 132.578 372.786 132.181 372.67C131.785 372.555 131.317 372.496 130.794 372.496C129.796 372.496 129.036 372.703 128.49 373.118C127.944 373.533 127.672 374.097 127.672 374.811C127.672 375.525 127.934 376.091 128.458 376.511C129.025 376.973 129.825 377.204 130.857 377.204C131.269 377.204 131.649 377.162 132.001 377.072C132.352 376.982 132.657 376.869 132.918 376.715C133.378 376.418 133.67 376.05 133.793 375.614H132.967C132.683 376.369 131.978 376.746 130.85 376.746C130.054 376.746 129.441 376.561 129.015 376.192C128.646 375.874 128.462 375.465 128.462 374.961H133.914C133.914 374.212 133.671 373.624 133.184 373.199L133.176 373.207Z" fill="#231F20"/>
<path d="M141.987 375.252C141.987 376.563 140.814 377.219 138.466 377.219C137.06 377.219 136.034 376.993 135.388 376.542C134.858 376.17 134.594 375.604 134.594 374.843H135.538C135.538 376.067 136.513 376.679 138.466 376.679C139.401 376.679 140.078 376.547 140.496 376.303C140.848 376.081 141.025 375.734 141.025 375.262C141.025 374.795 140.784 374.468 140.303 374.28C140.037 374.179 139.364 374.052 138.305 373.897C136.974 373.714 136.111 373.531 135.714 373.349C135.142 373.079 134.85 372.622 134.85 371.976C134.85 371.382 135.093 370.919 135.58 370.633C136.104 370.31 137.003 370.149 138.276 370.149C140.576 370.149 141.725 370.837 141.725 372.214H140.772C140.772 371.182 139.919 370.667 138.211 370.667C137.355 370.667 136.728 370.771 136.332 370.977C135.957 371.199 135.77 371.524 135.77 371.954C135.77 372.403 136.011 372.718 136.492 372.901C136.749 373.007 137.503 373.154 138.754 373.342C139.931 373.501 140.725 373.687 141.137 373.899C141.699 374.159 141.98 374.61 141.98 375.252L141.987 375.252ZM149.66 375.921C149.298 376.181 148.893 376.375 148.464 376.495C148.019 376.623 147.521 376.694 146.97 376.694C145.84 376.694 144.938 376.421 144.244 375.875C143.55 375.328 143.211 374.593 143.211 373.684C143.211 372.736 143.555 371.997 144.242 371.468C144.929 370.938 145.841 370.674 146.976 370.674C148.127 370.674 149.032 370.951 149.69 371.504C150.019 371.754 150.284 372.078 150.462 372.45C150.635 372.811 150.71 373.223 150.71 373.685C150.71 374.628 150.363 375.374 149.667 375.922M150.169 376.369C150.661 376.055 151.025 375.676 151.26 375.231C151.496 374.786 151.614 374.271 151.614 373.689C151.614 372.644 151.228 371.806 150.458 371.175C150.046 370.828 149.549 370.571 148.966 370.402C148.384 370.234 147.716 370.149 146.969 370.149C145.514 370.149 144.372 370.466 143.543 371.103C142.714 371.74 142.3 372.6 142.3 373.689C142.287 374.185 142.394 374.677 142.612 375.123C142.831 375.569 143.154 375.957 143.554 376.253C144.39 376.903 145.535 377.228 146.984 377.228C147.48 377.233 147.976 377.198 148.466 377.124C148.888 377.055 149.247 376.949 149.542 376.806L150.938 377.678L151.52 377.196L150.169 376.37L150.169 376.369ZM158.682 377.055H152.228V370.318L153.115 370.304V376.493H158.69L158.682 377.055Z" fill="#367FAF"/>
<path d="M136.194 354.347C136.448 352.243 136.372 351.935 137.949 352.276L138.349 352.311C139.562 352.366 141.142 352.117 142.081 351.687C144.088 350.762 145.277 349.218 143.299 349.623C138.786 350.548 138.476 349.03 138.476 349.03C143.241 342.006 145.233 333.089 143.514 330.906C138.823 324.953 130.705 327.768 130.569 327.841L130.526 327.849C129.633 327.665 128.636 327.556 127.515 327.537C125.474 327.504 123.923 328.069 122.747 328.955C122.747 328.955 108.265 323.027 108.938 336.409C109.082 339.249 113.046 357.95 117.774 352.303C119.502 350.238 121.171 348.492 121.171 348.492C122.001 349.04 122.993 349.317 124.035 349.218L124.114 349.15C124.089 349.407 124.101 349.658 124.146 349.954C122.928 351.306 123.287 351.543 120.851 352.041C118.387 352.546 119.835 353.444 120.78 353.678C121.925 353.962 124.577 354.365 126.367 351.875L126.295 352.159C126.774 352.539 126.741 354.888 126.809 356.566C126.877 358.245 126.99 359.812 127.341 360.736C127.692 361.66 128.092 364.038 131.292 363.356C133.967 362.787 136.012 361.967 136.2 354.345" fill="#231F20"/>
<path d="M136.194 354.347C136.448 352.243 136.372 351.935 137.949 352.276L138.349 352.311C139.562 352.366 141.142 352.117 142.081 351.687C144.088 350.762 145.277 349.218 143.299 349.623C138.786 350.548 138.476 349.03 138.476 349.03C143.241 342.006 145.233 333.089 143.514 330.906C138.823 324.953 130.705 327.768 130.569 327.841L130.526 327.849C129.633 327.665 128.636 327.556 127.515 327.537C125.474 327.504 123.923 328.069 122.747 328.955C122.747 328.955 108.265 323.027 108.938 336.409C109.082 339.249 113.046 357.95 117.774 352.303C119.502 350.238 121.171 348.492 121.171 348.492C122.001 349.04 122.993 349.317 124.035 349.218L124.114 349.15C124.089 349.407 124.101 349.658 124.146 349.954C122.928 351.306 123.287 351.543 120.851 352.041C118.387 352.546 119.835 353.444 120.78 353.678C121.925 353.962 124.577 354.365 126.367 351.875L126.295 352.159C126.774 352.539 126.741 354.888 126.809 356.566C126.877 358.245 126.99 359.812 127.341 360.736C127.692 361.66 128.092 364.038 131.292 363.356C133.967 362.787 136.012 361.967 136.2 354.345" stroke="#231F20" stroke-width="5.046"/>
<path d="M143.3 349.623C138.786 350.548 138.476 349.03 138.476 349.03C143.241 342.006 145.233 333.089 143.515 330.906C138.824 324.953 130.705 327.768 130.57 327.841L130.526 327.849C129.633 327.665 128.636 327.556 127.514 327.537C125.472 327.504 123.923 328.069 122.746 328.955C122.746 328.955 108.262 323.028 108.935 336.409C109.078 339.249 113.043 357.95 117.771 352.304C119.5 350.239 121.162 348.492 121.162 348.492C121.991 349.041 122.984 349.318 124.025 349.219L124.106 349.151C124.081 349.407 124.093 349.658 124.14 349.955C122.921 351.307 123.279 351.544 120.844 352.042C118.38 352.547 119.827 353.444 120.772 353.679C121.918 353.963 124.569 354.366 126.359 351.876L126.288 352.16C126.765 352.539 127.101 354.63 127.044 356.524C126.988 358.419 126.951 359.72 127.327 360.736C127.702 361.753 128.078 364.039 131.279 363.357C133.954 362.788 135.34 361.312 135.533 358.851C135.67 357.101 135.978 357.36 135.998 355.796L136.247 355.056C136.533 352.685 136.292 351.918 137.94 352.275L138.341 352.31C139.554 352.365 141.14 352.117 142.073 351.686C144.079 350.761 145.269 349.217 143.291 349.623L143.3 349.623Z" fill="#417BA2"/>
<path d="M126.561 350.983C126.437 355.397 126.593 359.834 127.027 360.921C127.461 362.008 128.393 364.102 131.595 363.421C134.269 362.852 135.243 361.75 135.664 359.317C135.976 357.533 136.575 352.556 136.652 351.537M122.731 328.857C122.731 328.857 108.238 322.978 108.912 336.354C109.056 339.194 113.02 357.895 117.756 352.248C119.484 350.183 121.047 348.564 121.047 348.564M130.554 327.783C130.052 327.939 138.616 324.673 143.483 330.85C145.202 333.033 143.217 341.949 138.444 348.975" stroke="white" stroke-width="1.682" stroke-linecap="round" stroke-linejoin="round"/>
<path d="M138.444 348.974C138.444 348.974 138.754 350.493 143.268 349.567C145.246 349.161 144.055 350.706 142.05 351.631C140.403 352.391 136.713 352.584 136.653 351.536C136.497 348.831 138.594 349.652 138.444 348.974ZM138.444 348.974C138.307 348.364 137.369 347.765 136.748 346.27C136.206 344.966 129.319 334.963 138.659 336.449C139.001 336.379 136.223 327.624 127.482 327.482C118.742 327.34 119.038 338.157 119.038 338.157" stroke="white" stroke-width="1.682" stroke-linecap="round" stroke-linejoin="bevel"/>
<path d="M124.116 349.9C122.898 351.252 123.257 351.489 120.821 351.987C118.357 352.492 119.805 353.389 120.749 353.624C121.895 353.908 124.546 354.312 126.336 351.821C126.881 351.062 126.333 349.852 125.585 349.543C125.223 349.395 124.739 349.208 124.116 349.9Z" stroke="white" stroke-width="1.682" stroke-linejoin="round"/>
<path d="M124.036 349.876C123.914 349.082 124.299 348.136 124.712 347.029C125.333 345.37 126.767 343.708 125.62 338.443C124.765 334.518 119.034 337.626 119.03 338.159C119.026 338.692 119.296 340.856 118.935 343.377C118.471 346.666 121.042 349.449 124.003 349.165" stroke="white" stroke-width="1.682" stroke-linecap="round" stroke-linejoin="round"/>
<path d="M122.673 338.077C122.646 338.259 123.008 338.745 123.477 338.809C123.947 338.874 124.348 338.496 124.375 338.314C124.402 338.132 124.04 337.932 123.57 337.867C123.101 337.801 122.698 337.896 122.673 338.077Z" fill="white" stroke="white" stroke-width="0.561"/>
<path d="M136.978 337.707C137.003 337.889 136.642 338.367 136.173 338.439C135.704 338.51 135.302 338.125 135.275 337.943C135.249 337.762 135.611 337.562 136.081 337.496C136.551 337.431 136.952 337.526 136.979 337.708L136.978 337.707Z" fill="white" stroke="white" stroke-width="0.28"/>
<path d="M138.658 336.449C138.735 337.874 138.349 338.846 138.3 340.364C138.227 342.57 139.358 345.094 137.656 347.623" stroke="white" stroke-width="1.682" stroke-linecap="round" stroke-linejoin="round"/>
<path d="M424.318 236.05C424.598 235.921 424.882 235.804 425.169 235.693C425.492 235.568 425.818 235.451 426.148 235.348C426.559 235.221 426.974 235.106 427.394 235.014C427.961 234.89 428.534 234.799 429.111 234.742C428.785 235.793 428.428 236.834 428.042 237.863C428.057 238.064 428.068 238.266 428.072 238.467C428.867 238.306 429.676 238.224 430.486 238.224C431.313 238.224 432.12 238.309 432.901 238.467C432.905 238.266 432.916 238.064 432.931 237.863C432.545 236.834 432.188 235.793 431.862 234.742C432.439 234.799 433.012 234.891 433.579 235.014C433.999 235.106 434.414 235.221 434.825 235.348C435.155 235.451 435.481 235.568 435.804 235.693C436.091 235.804 436.375 235.922 436.655 236.05C438.679 236.975 440.483 238.343 441.939 240.059C445.663 236.754 448.023 231.869 448.023 226.415C448.023 216.46 440.172 208.39 430.486 208.39C420.801 208.39 412.95 216.46 412.95 226.415C412.95 231.869 415.31 236.754 419.034 240.059C420.49 238.343 422.294 236.975 424.318 236.05Z" fill="#A5DBE8"/>
<path d="M436.655 236.05L437.744 239.898L438.052 239.912C438.253 239.912 438.394 239.967 438.394 240.173C438.394 240.515 438.411 240.9 438.443 241.236C438.714 241.473 439.045 241.74 439.295 241.999C440.233 241.438 441.118 240.788 441.939 240.059C440.483 238.343 438.679 236.975 436.655 236.05ZM434.526 236.011L435.805 235.693C435.481 235.568 435.155 235.451 434.825 235.349C434.414 235.221 433.999 235.106 433.579 235.014C433.012 234.89 432.439 234.799 431.862 234.742C432.188 235.793 432.545 236.834 432.932 237.863C432.916 238.064 432.905 238.266 432.901 238.467C433.807 238.651 434.697 238.97 435.521 239.344L434.526 236.011Z" fill="#525353"/>
<path d="M421.678 241.999C421.882 242.121 422.087 242.24 422.296 242.354C422.37 241.993 422.487 241.492 422.522 241.12C422.251 241.357 421.929 241.74 421.678 241.999ZM435.499 239.311C434.666 238.932 433.795 238.649 432.901 238.467C432.106 238.306 431.297 238.224 430.487 238.224C429.66 238.224 428.853 238.309 428.072 238.467C427.167 238.651 426.222 238.929 425.399 239.303L425.311 239.864H435.662L435.499 239.311Z" fill="black"/>
<path d="M422.49 241.227C422.522 240.891 422.545 240.592 422.545 240.249C422.545 240.043 422.682 239.911 422.883 239.911L423.212 239.899L424.318 236.05C422.294 236.975 420.49 238.343 419.034 240.059C419.855 240.788 420.74 241.438 421.678 241.999C421.929 241.739 422.19 241.491 422.461 241.254" fill="#525353"/>
<path d="M438.577 241.912C438.648 242.278 438.664 242.351 438.677 242.354C438.885 242.24 439.091 242.122 439.294 241.999C439.041 241.737 438.778 241.485 438.504 241.246L438.577 241.912Z" fill="black"/>
<path d="M435.499 239.311L435.662 239.864H437.779L436.655 236.05C436.375 235.922 436.091 235.803 435.804 235.693L434.526 236.011L435.499 239.311Z" fill="#AA9678"/>
<path d="M423.231 240.634C423.242 240.626 423.253 240.618 423.264 240.61H423.232C423.232 240.618 423.231 240.626 423.231 240.634Z" fill="#C4B6A1"/>
<path d="M437.741 240.61H437.709L437.742 240.634C437.742 240.626 437.741 240.618 437.741 240.61Z" fill="#AA9678"/>
<path d="M437.704 240.554L430.471 240.563L430.487 244.441C433.178 244.441 435.728 243.815 438.007 242.701C437.858 242.029 437.843 241.305 437.819 240.601C437.808 240.593 437.704 240.554 437.704 240.554Z" fill="#AA9678"/>
<path d="M430.475 240.579C430.475 240.579 423.202 240.569 423.191 240.577C423.167 241.282 423.025 242.118 422.966 242.701C425.245 243.815 427.795 244.441 430.487 244.441L430.491 240.591L430.475 240.579Z" fill="#C4B6A1"/>
<path d="M430.486 240.237H430.487V240.609H430.486V240.237Z" fill="#786453"/>
<path d="M441.956 226.298C441.956 226.303 441.957 226.307 441.958 226.312C441.958 226.315 441.959 226.317 441.96 226.32V226.321C441.968 226.39 441.971 226.462 441.973 226.535C441.973 226.548 441.975 226.561 441.975 226.574L441.975 226.579L441.975 226.584C441.975 226.598 441.973 226.612 441.973 226.626C441.972 226.696 441.967 226.766 441.96 226.835V226.836L441.958 226.847C441.957 226.852 441.956 226.857 441.955 226.862C441.946 226.934 441.933 227.005 441.916 227.076L441.915 227.077L441.918 227.074L441.919 227.071V227.071L442.378 226.577L441.915 226.079L441.915 226.08C441.933 226.15 441.946 226.223 441.956 226.298Z" fill="#676A6A"/>
<path d="M441.954 226.862C441.955 226.853 441.958 226.845 441.959 226.835C441.967 226.768 441.97 226.697 441.972 226.626C441.972 226.61 441.974 226.595 441.974 226.579C441.974 226.564 441.972 226.55 441.972 226.535C441.971 226.463 441.967 226.392 441.959 226.321C441.958 226.313 441.956 226.306 441.955 226.298C441.945 226.225 441.932 226.152 441.914 226.08C441.908 226.056 441.9 226.034 441.893 226.011C441.852 225.87 441.795 225.745 441.728 225.642C441.702 225.603 441.674 225.565 441.644 225.529C441.616 225.498 441.586 225.469 441.553 225.443C441.541 225.433 441.528 225.427 441.516 225.418C441.478 225.393 441.437 225.373 441.395 225.358C441.354 225.344 441.312 225.337 441.269 225.336C441.226 225.336 441.184 225.345 441.143 225.358C441.1 225.372 441.06 225.393 441.022 225.418C441.01 225.427 440.997 225.433 440.985 225.442C440.929 225.488 440.879 225.541 440.838 225.601C440.828 225.615 440.819 225.628 440.81 225.642C440.743 225.745 440.686 225.87 440.645 226.011L440.64 226.028C440.621 226.093 440.607 226.161 440.595 226.231C440.592 226.252 440.587 226.273 440.584 226.295C440.573 226.373 440.567 226.455 440.566 226.539C440.566 226.55 440.564 226.561 440.564 226.573H440.567C440.567 227.259 440.883 227.816 441.272 227.816C441.339 227.816 441.404 227.798 441.465 227.767C441.502 227.748 441.537 227.726 441.569 227.7C441.582 227.689 441.595 227.675 441.608 227.663C441.639 227.633 441.668 227.599 441.696 227.562C441.716 227.535 441.735 227.509 441.753 227.48C441.764 227.461 441.774 227.441 441.785 227.421C441.805 227.383 441.823 227.344 441.84 227.303C441.847 227.288 441.853 227.273 441.859 227.258C441.88 227.2 441.899 227.14 441.915 227.076C441.932 227.008 441.944 226.936 441.954 226.862ZM441.294 226.413C441.148 226.413 441.03 226.204 441.03 225.947C441.03 225.69 441.148 225.481 441.294 225.481C441.44 225.481 441.559 225.69 441.559 225.947C441.559 226.204 441.44 226.413 441.294 226.413Z" fill="black"/>
<path d="M441.295 225.481C441.149 225.481 441.03 225.69 441.03 225.947C441.03 226.205 441.149 226.413 441.295 226.413C441.441 226.413 441.559 226.205 441.559 225.947C441.559 225.69 441.441 225.481 441.295 225.481Z" fill="white"/>
<path d="M440.645 226.011C440.687 225.87 440.743 225.746 440.81 225.642C440.819 225.628 440.828 225.615 440.838 225.601C440.879 225.541 440.929 225.488 440.985 225.442C440.997 225.433 441.01 225.427 441.022 225.418C441.06 225.393 441.101 225.372 441.144 225.358C441.184 225.345 441.226 225.336 441.269 225.336C441.312 225.336 441.354 225.345 441.395 225.358C441.438 225.373 441.479 225.393 441.516 225.418C441.529 225.427 441.541 225.433 441.553 225.443C441.585 225.467 441.615 225.497 441.644 225.529C441.674 225.565 441.702 225.603 441.728 225.642C441.795 225.745 441.852 225.87 441.893 226.011V226.011L441.269 223.071L440.645 226.011Z" fill="#909393"/>
<path d="M432.994 226.551C432.993 226.492 432.989 226.434 432.983 226.376C432.982 226.376 432.982 226.375 432.982 226.374C432.976 226.318 432.966 226.262 432.955 226.207L432.954 226.202C432.942 226.149 432.927 226.095 432.911 226.043L432.909 226.039C432.893 225.987 432.873 225.936 432.851 225.886C432.851 225.885 432.85 225.884 432.85 225.883C432.676 225.485 432.36 225.17 431.968 225.004L431.963 225.002C431.867 224.962 431.768 224.932 431.667 224.911C431.665 224.91 431.662 224.91 431.66 224.91C431.555 224.888 431.449 224.878 431.343 224.878C431.236 224.878 431.132 224.889 431.031 224.909L431.021 224.91C430.92 224.931 430.823 224.961 430.73 224.999L430.723 225.002C430.629 225.042 430.538 225.09 430.453 225.146C430.368 225.203 430.288 225.267 430.214 225.338L430.212 225.344L430.206 225.345C430.088 225.461 429.987 225.593 429.906 225.739L429.903 225.744C429.878 225.789 429.856 225.835 429.835 225.882C429.833 225.888 429.831 225.892 429.828 225.897C429.81 225.941 429.794 225.987 429.778 226.032C429.776 226.041 429.772 226.05 429.769 226.059C429.756 226.101 429.745 226.145 429.735 226.189C429.732 226.201 429.728 226.214 429.726 226.226C429.717 226.269 429.711 226.314 429.705 226.358C429.704 226.372 429.701 226.385 429.7 226.399C429.682 226.567 429.69 226.738 429.722 226.904C429.722 226.906 429.722 226.909 429.723 226.911C429.744 227.017 429.774 227.119 429.813 227.217C429.814 227.218 429.814 227.22 429.815 227.221C429.894 227.418 430.008 227.597 430.151 227.751C430.263 227.871 430.393 227.974 430.535 228.057L430.537 228.058C430.581 228.084 430.627 228.107 430.674 228.128C430.678 228.13 430.682 228.132 430.686 228.134C430.729 228.153 430.774 228.17 430.819 228.186C430.826 228.188 430.834 228.192 430.841 228.194C430.883 228.208 430.926 228.219 430.969 228.229C430.981 228.232 430.992 228.236 431.004 228.238C431.046 228.247 431.089 228.253 431.132 228.259C431.145 228.26 431.158 228.264 431.171 228.265C431.557 228.307 431.945 228.207 432.266 227.984C432.442 227.862 432.594 227.706 432.713 227.525C432.897 227.245 432.995 226.914 432.995 226.576C432.995 226.572 432.994 226.568 432.994 226.564C432.994 226.56 432.994 226.556 432.994 226.551ZM431.343 226.352C431.261 226.352 431.18 226.336 431.105 226.304C431.03 226.272 430.961 226.225 430.904 226.165C430.846 226.106 430.8 226.036 430.769 225.958C430.738 225.881 430.722 225.798 430.722 225.714C430.722 225.631 430.738 225.548 430.769 225.47C430.8 225.393 430.846 225.322 430.904 225.263C430.961 225.204 431.03 225.157 431.105 225.125C431.181 225.093 431.261 225.076 431.343 225.076C431.507 225.076 431.665 225.144 431.782 225.263C431.898 225.383 431.963 225.545 431.963 225.714C431.963 225.884 431.898 226.046 431.782 226.166C431.665 226.285 431.507 226.352 431.343 226.352Z" fill="black"/>
<path d="M431.342 225.076C431.178 225.076 431.02 225.144 430.904 225.263C430.787 225.383 430.722 225.545 430.722 225.714C430.722 225.883 430.787 226.046 430.904 226.165C431.02 226.285 431.178 226.352 431.342 226.352C431.507 226.352 431.664 226.285 431.781 226.165C431.897 226.046 431.962 225.883 431.962 225.714C431.962 225.545 431.897 225.383 431.781 225.263C431.664 225.144 431.507 225.076 431.342 225.076Z" fill="white"/>
<path d="M430.206 225.345L430.212 225.344L430.214 225.338L431.352 221.761V220.924L431.352 220.914C430.709 220.778 430.055 220.708 429.399 220.707C429.177 220.707 428.956 220.717 428.736 220.732C428.704 220.735 428.672 220.737 428.64 220.739C427.498 220.828 426.373 221.134 425.332 221.623C424.439 222.042 423.609 222.594 422.863 223.249L422.862 223.25C422.662 223.426 422.469 223.609 422.282 223.799C422.247 223.834 422.211 223.869 422.177 223.905C422 224.088 421.829 224.277 421.665 224.471C421.629 224.513 421.594 224.557 421.558 224.599C421.392 224.8 421.232 225.006 421.079 225.217C421.066 225.234 421.054 225.253 421.041 225.271C420.896 225.475 420.756 225.684 420.623 225.897C420.596 225.939 420.57 225.98 420.544 226.022C420.436 226.198 420.335 226.379 420.235 226.561H425.419L430.206 225.345Z" fill="#BBBCBD"/>
<path d="M434.582 224.943C434.593 224.803 434.601 224.664 434.608 224.524C434.618 224.335 434.624 224.146 434.628 223.957C434.631 223.81 434.63 223.663 434.629 223.516C434.629 223.474 434.63 223.431 434.63 223.389C434.626 223.009 434.612 222.63 434.589 222.252L434.586 222.25L434.585 222.247C434.448 222.166 434.311 222.086 434.173 222.005L434.164 222L434.057 221.937L434.055 221.936L433.98 221.893L433.966 221.885C433.948 221.875 433.93 221.865 433.911 221.855C433.673 221.728 433.43 221.61 433.183 221.503C432.593 221.247 431.799 221.023 431.352 220.914V221.761L432.48 225.344L432.481 225.347C432.597 225.461 432.698 225.592 432.778 225.737C432.804 225.784 432.828 225.833 432.85 225.883C432.851 225.884 432.851 225.885 432.851 225.886C432.873 225.936 432.892 225.987 432.909 226.039L432.911 226.043C432.927 226.095 432.942 226.148 432.954 226.202L432.955 226.207C432.966 226.261 432.976 226.317 432.982 226.374C432.982 226.375 432.982 226.376 432.983 226.376C432.989 226.434 432.993 226.492 432.994 226.551L432.998 226.561H434.379C434.472 226.04 434.538 225.514 434.579 224.986C434.579 224.972 434.581 224.957 434.582 224.943Z" fill="#E3DDDB"/>
<path d="M436.388 223.676C436.387 223.677 436.387 223.679 436.386 223.68L436.388 223.676Z" fill="#FCB03F"/>
<path d="M430.214 225.338C430.288 225.267 430.368 225.202 430.454 225.146C430.539 225.089 430.629 225.041 430.723 225.002C430.725 225.001 430.728 225 430.73 224.999C430.824 224.96 430.921 224.931 431.021 224.91L431.031 224.909C431.134 224.888 431.238 224.878 431.343 224.877C431.451 224.877 431.557 224.889 431.66 224.909C431.662 224.91 431.665 224.91 431.667 224.911C431.77 224.932 431.871 224.963 431.968 225.004C432.158 225.085 432.332 225.201 432.481 225.347L432.48 225.344L431.352 221.761L430.214 225.338Z" fill="#909393"/>
<path d="M429.813 227.217C429.774 227.118 429.743 227.016 429.723 226.911C429.722 226.908 429.722 226.906 429.722 226.904C429.69 226.738 429.682 226.567 429.7 226.399C429.701 226.385 429.704 226.372 429.705 226.358C429.711 226.314 429.717 226.269 429.726 226.226C429.728 226.214 429.732 226.201 429.735 226.189C429.745 226.145 429.756 226.101 429.769 226.058C429.772 226.05 429.775 226.041 429.778 226.032C429.794 225.987 429.81 225.941 429.828 225.897C429.831 225.892 429.833 225.888 429.835 225.882C429.856 225.835 429.878 225.789 429.903 225.744L429.906 225.739C429.987 225.593 430.088 225.461 430.206 225.345L425.419 226.561H425.41L430.151 227.75C430.008 227.597 429.894 227.418 429.815 227.221C429.814 227.22 429.814 227.218 429.813 227.217Z" fill="#676A6A"/>
<path d="M440.584 226.295C440.587 226.273 440.592 226.253 440.595 226.231C440.607 226.161 440.621 226.093 440.64 226.028C440.642 226.021 440.643 226.013 440.645 226.005L441.269 223.066L441.269 221.389C440.759 220.956 440.213 220.719 439.644 220.719C438.925 220.719 438.254 221.127 437.753 221.631C437.204 222.183 436.78 222.877 436.438 223.577C436.422 223.609 436.406 223.64 436.39 223.673C436.496 223.767 436.6 223.862 436.703 223.959C436.937 224.179 437.166 224.404 437.391 224.632C437.496 224.739 437.599 224.848 437.702 224.956C437.812 225.071 437.921 225.185 438.029 225.302C438.227 225.515 438.421 225.731 438.613 225.949C438.778 226.136 438.941 226.324 439.102 226.514L439.102 226.514C439.129 226.543 439.148 226.564 439.155 226.573H440.564C440.564 226.561 440.566 226.55 440.566 226.539C440.567 226.455 440.573 226.373 440.584 226.295ZM436.39 223.681L436.388 223.676L436.386 223.681L436.392 223.687C436.391 223.685 436.391 223.683 436.39 223.681Z" fill="#E3DDDB"/>
<path d="M419.386 228.411L419.398 228.379C419.588 227.874 419.806 227.382 420.052 226.904C420.09 226.829 420.127 226.755 420.166 226.681C420.188 226.64 420.213 226.601 420.235 226.561C420.335 226.379 420.436 226.198 420.544 226.022C420.57 225.979 420.596 225.939 420.623 225.897C420.756 225.684 420.896 225.475 421.041 225.271C421.054 225.253 421.066 225.234 421.079 225.217C421.232 225.006 421.392 224.8 421.558 224.599C421.594 224.557 421.629 224.513 421.665 224.471C421.829 224.277 422 224.088 422.177 223.905C422.211 223.869 422.247 223.834 422.282 223.799C422.469 223.609 422.662 223.426 422.862 223.25L422.863 223.249C423.651 220.536 426.195 218.869 429.048 218.869C430.196 218.869 431.337 219.209 432.316 219.824C433.32 220.455 434.004 221.072 434.535 222.15L434.543 222.166C434.557 222.193 434.572 222.219 434.585 222.247L434.586 222.25L434.589 222.252C435.036 222.536 435.461 222.853 435.861 223.202C435.996 223.319 436.128 223.438 436.257 223.561C436.3 223.602 436.344 223.64 436.386 223.681C436.387 223.679 436.388 223.678 436.389 223.676C436.389 223.675 436.389 223.674 436.39 223.673C436.405 223.642 436.419 223.611 436.433 223.581C436.835 220.973 438.113 219.551 439.432 219.551C440.427 219.551 441.151 220.161 441.697 221.802L441.703 221.82L441.704 221.822C441.865 222.003 442.015 222.193 442.154 222.392L442.154 222.392C442.157 222.396 442.16 222.4 442.163 222.404C442.171 222.427 442.177 222.452 442.185 222.476L442.164 222.39C440.522 217.393 435.924 213.796 430.509 213.796C423.716 213.796 418.21 219.456 418.21 226.438C418.21 227.814 418.424 229.14 418.821 230.373L418.823 230.365C418.962 229.7 419.151 229.047 419.386 228.411Z" fill="#525353"/>
<path d="M442.348 226.578L441.919 227.071V227.071L441.918 227.074C441.902 227.139 441.882 227.2 441.86 227.258C441.854 227.273 441.847 227.288 441.841 227.303C441.825 227.343 441.806 227.382 441.786 227.421C441.775 227.441 441.765 227.461 441.754 227.48C441.736 227.509 441.717 227.536 441.697 227.562C441.67 227.598 441.641 227.632 441.608 227.663C441.596 227.675 441.583 227.689 441.57 227.7C441.538 227.726 441.503 227.748 441.466 227.767C441.404 227.798 441.34 227.816 441.273 227.816C440.883 227.816 440.567 227.259 440.567 226.573H439.151L439.152 226.574C439.418 226.89 439.68 227.21 439.937 227.533C440.185 227.844 440.429 228.158 440.671 228.474L440.706 228.52C440.935 228.82 441.162 229.122 441.386 229.426L441.452 229.513C441.69 229.836 441.928 230.16 442.163 230.486C442.578 229.224 442.795 227.904 442.808 226.573L442.41 226.557L442.348 226.578Z" fill="white"/>
<path d="M428.64 220.739C428.672 220.737 428.704 220.735 428.736 220.732C428.957 220.716 429.178 220.708 429.399 220.707C430.066 220.707 430.718 220.781 431.352 220.914C431.799 221.023 432.593 221.247 433.183 221.503C433.43 221.61 433.673 221.728 433.911 221.855L433.966 221.885L433.98 221.893C434.002 221.906 434.026 221.92 434.055 221.936L434.057 221.937L434.164 222L434.173 222.005C434.325 222.094 434.493 222.193 434.557 222.23L434.573 222.24L434.585 222.247C434.572 222.219 434.557 222.193 434.543 222.166L434.535 222.15C434.004 221.072 433.186 220.148 432.182 219.517C431.204 218.901 430.062 218.561 428.914 218.561C426.061 218.561 423.651 220.536 422.863 223.249C423.609 222.594 424.439 222.042 425.332 221.623C426.373 221.134 427.498 220.828 428.64 220.739Z" fill="black"/>
<path d="M442.163 222.404C442.16 222.4 442.157 222.396 442.154 222.392L442.154 222.392C442.015 222.193 441.865 222.003 441.704 221.822L441.7 221.817C441.631 221.741 441.56 221.666 441.487 221.594C441.46 221.567 441.432 221.544 441.405 221.519C441.36 221.477 441.315 221.433 441.27 221.394V223.071L441.894 226.012C441.901 226.034 441.909 226.056 441.915 226.079L442.348 226.578L442.352 226.573H442.805C442.805 226.53 442.808 226.487 442.808 226.444V226.443C442.808 225.095 442.597 223.755 442.185 222.476C442.177 222.452 442.17 222.427 442.163 222.404Z" fill="#BBBCBD"/>
<path d="M437.753 221.631C438.254 221.127 438.925 220.719 439.644 220.719C440.213 220.719 440.759 220.956 441.269 221.389L441.27 221.394C441.315 221.433 441.36 221.477 441.405 221.519C441.432 221.544 441.46 221.567 441.487 221.594C441.56 221.666 441.631 221.741 441.7 221.817L441.704 221.822C441.704 221.821 441.703 221.821 441.703 221.82L441.703 221.82L441.697 221.803C441.151 220.161 440.269 219.095 439.275 219.095C437.955 219.095 436.835 220.973 436.433 223.581L436.438 223.577C436.781 222.877 437.204 222.183 437.753 221.631ZM435.969 237.658C435.969 237.658 435.792 237.513 435.566 237.246C435.461 237.123 435.363 236.993 435.273 236.858C435.244 236.815 435.216 236.77 435.187 236.724C435.102 236.585 435.034 236.416 434.959 236.25C434.872 236.056 434.872 235.928 434.822 235.748C434.785 235.615 434.756 235.481 434.734 235.345C434.7 235.125 434.686 234.902 434.693 234.679C434.697 234.55 434.71 234.417 434.728 234.282C434.747 234.147 434.773 234.014 434.805 233.882C434.904 233.473 435.076 233.038 435.344 232.578L435.413 232.421C435.5 232.27 435.52 232.277 435.603 232.132C436.776 230.097 437.409 228.558 437.1 226.188C437.066 225.945 437.027 225.703 436.984 225.462C436.957 225.637 436.929 225.812 436.898 225.986C436.887 226.04 436.855 226.099 436.843 226.135C436.333 227.686 435.531 228.826 434.376 230.114C434.216 230.293 434.053 230.47 433.888 230.644C433.594 230.957 433.297 231.266 432.997 231.572C432.872 231.7 432.745 231.83 432.615 231.962C432.496 232.083 432.348 232.342 432.171 232.533C432.062 232.847 431.938 233.201 431.834 233.573C431.786 233.555 431.741 233.538 431.693 233.519C429.451 232.627 427.949 231.436 427.949 231.436C427.949 231.436 429.104 232.982 431.051 234.434C431.23 234.567 431.415 234.69 431.607 234.804C431.527 236.11 432.087 237.364 434.618 237.738C435.046 237.801 435.484 237.798 435.925 237.747C435.921 237.734 435.95 237.734 435.947 237.726C435.945 237.719 435.971 237.699 435.971 237.699" fill="black"/>
<path d="M434.616 234.295C436.862 234.668 440.187 234.607 443.639 232.946C443.722 232.906 443.814 233.011 443.897 232.969C443.897 232.969 441.538 235.446 438.72 236.846C438.638 236.887 438.557 236.93 438.474 236.969C438.202 237.097 437.925 237.209 437.647 237.311C437.101 237.513 436.549 237.665 436.001 237.736C435.975 237.739 435.95 237.744 435.925 237.747C435.922 237.737 435.918 237.726 435.915 237.715L435.911 237.704C435.911 237.704 435.733 237.559 435.508 237.292C435.403 237.168 435.305 237.039 435.215 236.903C435.089 236.716 434.979 236.517 434.886 236.311C434.807 236.136 434.742 235.955 434.69 235.77C434.594 235.423 434.55 235.062 434.561 234.701C434.566 234.568 434.578 234.436 434.597 234.304L434.616 234.295Z" fill="#9F2254"/>
<path d="M433.005 231.666C433.306 231.36 433.603 231.051 433.897 230.738C434.061 230.563 434.224 230.387 434.385 230.208C435.539 228.92 436.386 227.715 436.896 226.165C436.908 226.128 436.92 226.079 436.932 226.025L436.937 226C436.949 225.942 436.961 225.877 436.973 225.805C436.977 225.755 437.13 225.654 437.134 225.607C437.006 224.932 436.712 224.222 436.39 223.68C436.391 223.683 436.392 223.685 436.392 223.687L436.386 223.681C436.344 223.64 436.3 223.602 436.257 223.561C436.128 223.438 435.996 223.319 435.861 223.202C435.461 222.853 435.036 222.536 434.589 222.252C434.612 222.631 434.626 223.01 434.63 223.389C434.631 223.431 434.63 223.474 434.63 223.516C434.63 223.663 434.631 223.81 434.628 223.957C434.624 224.146 434.618 224.335 434.608 224.524C434.601 224.664 434.593 224.803 434.582 224.943C434.581 224.957 434.58 224.972 434.579 224.986C434.538 225.514 434.472 226.04 434.379 226.561L434.217 227.349C433.878 228.761 433.19 230.042 432.624 231.364C432.474 231.715 432.332 232.07 432.207 232.431L432.171 232.533C432.32 232.372 432.471 232.213 432.624 232.056C432.753 231.924 432.881 231.794 433.005 231.666Z" fill="#FCB03F"/>
<path d="M425.582 239.26C426.405 238.886 427.167 238.651 428.072 238.467C428.068 238.266 428.058 238.064 428.042 237.863C428.428 236.834 428.785 235.793 429.111 234.742C428.534 234.799 427.961 234.89 427.394 235.014C426.974 235.106 426.559 235.221 426.148 235.349C425.818 235.451 425.492 235.568 425.169 235.693L426.447 236.011L425.418 239.33L425.582 239.26Z" fill="#525353"/>
<path d="M441.386 229.426C441.162 229.122 440.935 228.82 440.706 228.52L440.671 228.474C440.426 228.154 440.179 227.836 439.928 227.522C439.673 227.202 439.414 226.886 439.152 226.574C439.135 226.554 439.118 226.534 439.102 226.514C438.885 226.258 438.665 226.006 438.442 225.756C438.306 225.603 438.168 225.452 438.029 225.302C437.921 225.186 437.812 225.07 437.702 224.956C437.599 224.848 437.496 224.739 437.391 224.632C437.166 224.404 436.936 224.179 436.703 223.959C436.6 223.862 436.496 223.767 436.39 223.673C436.389 223.674 436.389 223.675 436.388 223.676C436.611 224.333 436.864 224.997 436.991 225.682C437.024 225.86 437.052 226.033 437.074 226.203C437.383 228.572 436.645 230.119 435.471 232.155C435.386 232.303 435.299 232.452 435.213 232.6C434.944 233.06 434.773 233.496 434.673 233.904C434.641 234.036 434.615 234.17 434.597 234.304C436.897 234.686 440.357 234.757 443.897 232.969C443.897 232.969 443.203 231.92 442.158 230.479C441.924 230.156 441.689 229.834 441.452 229.513C441.43 229.484 441.408 229.455 441.386 229.426Z" fill="#DF0067"/>
<path d="M425.296 239.923L426.447 236.011L425.169 235.693C424.882 235.804 424.598 235.922 424.318 236.05L423.179 239.923L424.451 239.944L425.296 239.923Z" fill="#AA9678"/>
<path d="M426.105 238.231C426.217 238.275 426.332 238.315 426.446 238.356C427.751 238.827 429.125 239.067 430.509 239.067C432.083 239.068 433.643 238.757 435.102 238.152C435.178 238.121 435.251 238.087 435.325 238.054C435.446 238.002 435.565 237.947 435.684 237.891C435.79 237.84 435.896 237.79 436.001 237.736C435.975 237.739 435.95 237.744 435.925 237.747C435.484 237.798 435.046 237.801 434.618 237.738C432.087 237.364 431.526 236.11 431.607 234.804C431.415 234.69 431.23 234.567 431.051 234.434C429.104 232.982 427.949 231.436 427.949 231.436C427.949 231.436 429.451 232.627 431.693 233.519C431.741 233.538 431.786 233.555 431.834 233.573C431.938 233.201 432.062 232.847 432.171 232.533L432.207 232.431C432.332 232.07 432.474 231.715 432.624 231.364C433.19 230.042 433.878 228.761 434.217 227.349L434.379 226.561H432.995L432.995 226.561L432.995 226.564L432.994 226.564C432.994 226.568 432.995 226.572 432.995 226.576C432.995 226.914 432.897 227.245 432.713 227.525C432.533 227.798 432.281 228.012 431.986 228.141C431.729 228.252 431.448 228.295 431.171 228.265C431.158 228.263 431.145 228.261 431.132 228.259C431.089 228.253 431.046 228.247 431.004 228.238C430.992 228.235 430.981 228.232 430.969 228.229C430.926 228.219 430.883 228.208 430.841 228.194C430.834 228.191 430.826 228.188 430.819 228.185C430.774 228.17 430.729 228.153 430.686 228.134C430.682 228.132 430.678 228.13 430.674 228.128C430.627 228.107 430.582 228.083 430.537 228.058L430.535 228.057C430.393 227.974 430.264 227.871 430.151 227.75L425.41 226.561H420.235C420.213 226.601 420.188 226.64 420.166 226.681C420.127 226.755 420.09 226.829 420.052 226.904C419.924 227.151 419.805 227.401 419.693 227.656C419.588 227.894 419.49 228.135 419.398 228.379L419.386 228.411C419.151 229.047 418.962 229.7 418.823 230.365C419.637 232.919 421.222 235.114 423.294 236.661C423.354 236.706 423.418 236.746 423.479 236.79C423.83 237.043 424.193 237.277 424.567 237.491C425.063 237.774 425.576 238.021 426.105 238.231Z" fill="white"/>
<path d="M438.512 241.254C438.479 240.916 438.462 240.577 438.461 240.237C438.461 240.138 438.422 240.043 438.354 239.973C438.286 239.903 438.194 239.864 438.098 239.864H422.875C422.779 239.864 422.687 239.903 422.619 239.973C422.55 240.043 422.512 240.138 422.512 240.237C422.512 240.579 422.493 240.918 422.461 241.254C422.425 241.624 422.37 241.991 422.296 242.354C422.517 242.474 422.74 242.591 422.966 242.701C423.117 242.022 423.206 241.33 423.231 240.634C423.231 240.626 423.232 240.618 423.232 240.61H437.741C437.741 240.618 437.742 240.626 437.742 240.634C437.767 241.33 437.856 242.022 438.007 242.701C438.233 242.59 438.456 242.474 438.677 242.354C438.603 241.991 438.548 241.624 438.512 241.254Z" fill="#8B7460"/>
<path fill-rule="evenodd" clip-rule="evenodd" d="M476.135 364.725C482.173 364.725 487.781 365.59 492.01 367.045C497.105 368.798 500.238 371.455 500.238 373.861C500.238 376.369 496.918 379.191 491.446 381.003C487.31 382.373 481.866 383.088 476.135 383.088C470.259 383.088 464.695 382.417 460.512 380.988C455.219 379.18 452.031 376.321 452.031 373.861C452.031 371.475 455.022 368.838 460.046 367.088C464.291 365.609 470.038 364.725 476.134 364.725H476.135Z" stroke="#00D8FF" stroke-width="1.66272"/>
<path fill-rule="evenodd" clip-rule="evenodd" d="M468.176 369.319C471.192 364.093 474.744 359.67 478.118 356.736C482.183 353.201 486.052 351.816 488.137 353.018C490.311 354.271 491.099 358.555 489.936 364.197C489.058 368.462 486.957 373.531 484.094 378.493C481.158 383.58 477.797 388.061 474.469 390.968C470.258 394.647 466.187 395.978 464.055 394.75C461.986 393.558 461.195 389.651 462.187 384.427C463.026 380.014 465.13 374.597 468.175 369.319L468.176 369.319Z" stroke="#00D8FF" stroke-width="1.66272"/>
<path fill-rule="evenodd" clip-rule="evenodd" d="M468.184 378.506C465.159 373.286 463.099 368 462.24 363.614C461.205 358.329 461.937 354.288 464.02 353.083C466.192 351.827 470.3 353.284 474.61 357.108C477.869 360 481.215 364.349 484.086 369.306C487.03 374.388 489.237 379.537 490.095 383.869C491.181 389.353 490.302 393.542 488.172 394.774C486.106 395.97 482.324 394.704 478.291 391.236C474.884 388.306 471.238 383.779 468.184 378.506V378.506Z" stroke="#00D8FF" stroke-width="1.66272"/>
<path d="M476.135 378.355C478.619 378.355 480.632 376.343 480.632 373.861C480.632 371.38 478.619 369.368 476.135 369.368C473.652 369.368 471.638 371.38 471.638 373.861C471.638 376.343 473.652 378.355 476.135 378.355Z" fill="#00D8FF"/>
<path fill-rule="evenodd" clip-rule="evenodd" d="M466.53 408.494L464.059 404.453C465.308 404.334 466.433 403.354 466.433 401.565C466.433 399.744 465.239 398.579 463.565 398.579H459.888V408.486H461.027V404.55H462.852L465.185 408.486L466.53 408.494ZM463.428 403.473H461.027V399.685H463.428C464.513 399.685 465.254 400.457 465.254 401.572C465.254 402.686 464.512 403.474 463.428 403.474V403.473ZM470.77 408.672C471.855 408.672 472.746 408.285 473.405 407.573L472.911 406.844C472.389 407.424 471.621 407.75 470.866 407.75C469.44 407.75 468.561 406.622 468.479 405.27H473.844V404.988C473.844 402.834 472.663 401.14 470.659 401.14C468.766 401.14 467.394 402.819 467.394 404.899C467.394 407.142 468.807 408.666 470.77 408.666L470.77 408.672ZM472.829 404.452H468.479C468.534 403.354 469.233 402.06 470.647 402.06C472.157 402.06 472.815 403.382 472.829 404.452ZM480.679 408.493V403.561C480.679 401.823 479.513 401.14 478.113 401.14C477.028 401.14 476.178 401.526 475.465 402.328L475.945 403.1C476.535 402.417 477.18 402.105 477.976 402.105C478.936 402.105 479.65 402.655 479.65 403.62V404.913C479.115 404.244 478.361 403.932 477.455 403.932C476.329 403.932 475.135 404.69 475.135 406.294C475.135 407.853 476.328 408.671 477.455 408.671C478.347 408.671 479.102 408.329 479.65 407.676V408.492L480.679 408.493ZM477.825 407.869C476.865 407.869 476.192 407.216 476.192 406.31C476.192 405.388 476.865 404.735 477.825 404.735C478.553 404.735 479.252 405.032 479.65 405.626V406.978C479.253 407.572 478.553 407.869 477.825 407.869ZM485.655 408.672C486.863 408.672 487.576 408.137 488.084 407.424L487.398 406.741C486.959 407.379 486.396 407.676 485.716 407.676C484.303 407.676 483.425 406.488 483.425 404.899C483.425 403.31 484.303 402.136 485.716 402.136C486.402 402.136 486.965 402.419 487.398 403.072L488.084 402.388C487.577 401.675 486.863 401.141 485.655 401.141C483.679 401.141 482.348 402.775 482.348 404.899C482.348 407.038 483.679 408.667 485.655 408.667V408.672ZM491.2 408.672C491.803 408.672 492.174 408.478 492.435 408.211L492.134 407.379C491.996 407.543 491.728 407.676 491.434 407.676C490.981 407.676 490.761 407.29 490.761 406.755V402.299H492.107V401.319H490.761V399.358H489.731V401.319H488.633V402.299H489.731V406.994C489.731 408.064 490.226 408.673 491.2 408.673V408.672Z" fill="#00D8FF"/>
<path fill-rule="evenodd" clip-rule="evenodd" d="M358.787 106.428C358.787 106.375 358.819 106.332 358.883 106.297C358.947 106.262 359.014 106.245 359.084 106.245C359.181 106.245 359.241 106.278 359.265 106.344L360.289 109.442L361.308 106.344C361.336 106.278 361.394 106.245 361.483 106.245C361.557 106.245 361.626 106.264 361.69 106.302C361.754 106.341 361.786 106.384 361.786 106.433C361.786 106.436 361.785 106.441 361.783 106.448C361.781 106.455 361.78 106.462 361.78 106.469L360.598 109.938C360.555 110.039 360.453 110.089 360.289 110.089C360.126 110.089 360.027 110.039 359.993 109.938L358.799 106.469C358.791 106.448 358.787 106.435 358.787 106.428ZM361.832 109.098V107.742C361.832 107.7 361.856 107.664 361.904 107.632C361.953 107.601 362.01 107.585 362.076 107.585C362.138 107.585 362.194 107.602 362.242 107.635C362.291 107.668 362.315 107.704 362.315 107.742V109.098C362.315 109.254 362.381 109.395 362.513 109.52C362.645 109.646 362.802 109.708 362.984 109.708C363.163 109.708 363.318 109.646 363.45 109.523C363.582 109.4 363.648 109.258 363.648 109.098V107.737C363.648 107.698 363.672 107.664 363.721 107.632C363.77 107.601 363.827 107.585 363.893 107.585C363.963 107.585 364.02 107.6 364.065 107.63C364.109 107.659 364.131 107.695 364.131 107.737V109.098C364.131 109.366 364.018 109.6 363.791 109.799C363.564 109.999 363.295 110.099 362.984 110.099C362.67 110.099 362.399 109.999 362.172 109.799C361.945 109.6 361.832 109.366 361.832 109.098ZM364.527 109.088V108.54C364.527 108.272 364.64 108.041 364.867 107.846C365.094 107.651 365.367 107.554 365.685 107.554C365.988 107.554 366.25 107.645 366.471 107.828C366.692 108.01 366.803 108.239 366.803 108.514C366.803 108.615 366.79 108.695 366.762 108.756C366.735 108.817 366.693 108.861 366.637 108.887C366.581 108.913 366.528 108.929 366.48 108.936C366.431 108.943 366.366 108.947 366.285 108.947H365.01V109.103C365.01 109.294 365.086 109.447 365.24 109.562C365.393 109.677 365.592 109.734 365.837 109.734C365.965 109.734 366.076 109.717 366.171 109.682C366.266 109.647 366.343 109.613 366.401 109.58C366.46 109.547 366.506 109.531 366.541 109.531C366.595 109.531 366.642 109.553 366.681 109.596C366.72 109.64 366.739 109.684 366.739 109.729C366.739 109.809 366.651 109.891 366.474 109.974C366.298 110.058 366.079 110.099 365.819 110.099C365.439 110.099 365.128 110.006 364.888 109.82C364.647 109.634 364.527 109.39 364.527 109.088ZM365.01 108.655H366.087C366.188 108.655 366.256 108.643 366.291 108.621C366.326 108.598 366.343 108.554 366.343 108.488C366.343 108.331 366.279 108.194 366.151 108.076C366.023 107.957 365.866 107.898 365.679 107.898C365.497 107.898 365.34 107.953 365.208 108.063C365.076 108.172 365.01 108.307 365.01 108.467L365.01 108.655ZM367.047 109.818C367.047 109.741 367.076 109.676 367.134 109.622C367.192 109.568 367.264 109.541 367.35 109.541C367.431 109.541 367.501 109.568 367.559 109.622C367.617 109.676 367.647 109.741 367.647 109.818C367.647 109.891 367.617 109.954 367.559 110.008C367.501 110.062 367.431 110.089 367.35 110.089C367.264 110.089 367.192 110.062 367.134 110.008C367.076 109.954 367.047 109.891 367.047 109.818ZM367.477 111.064C367.477 111.009 367.496 110.963 367.535 110.926C367.574 110.89 367.621 110.871 367.675 110.871C367.826 110.871 367.925 110.821 367.972 110.72C368.019 110.619 368.042 110.468 368.042 110.266V107.737C368.042 107.691 368.064 107.655 368.109 107.627C368.153 107.599 368.211 107.585 368.281 107.585C368.35 107.585 368.409 107.599 368.455 107.627C368.502 107.655 368.525 107.691 368.525 107.737V110.266C368.525 110.569 368.459 110.809 368.327 110.986C368.195 111.163 367.995 111.252 367.727 111.252C367.56 111.252 367.477 111.189 367.477 111.064ZM367.978 106.657C367.978 106.591 368.007 106.534 368.065 106.485C368.123 106.436 368.195 106.412 368.28 106.412C368.362 106.412 368.432 106.436 368.49 106.485C368.548 106.534 368.577 106.591 368.577 106.657C368.577 106.723 368.548 106.781 368.49 106.832C368.432 106.882 368.362 106.907 368.28 106.907C368.199 106.907 368.128 106.882 368.068 106.832C368.008 106.781 367.978 106.723 367.978 106.657ZM368.885 109.703C368.885 109.658 368.902 109.613 368.935 109.57C368.968 109.526 369.008 109.505 369.054 109.505C369.085 109.505 369.13 109.526 369.188 109.567C369.246 109.609 369.33 109.65 369.438 109.69C369.547 109.73 369.675 109.75 369.823 109.75C370.017 109.75 370.157 109.719 370.245 109.656C370.332 109.593 370.376 109.515 370.376 109.421C370.376 109.307 370.327 109.215 370.23 109.147C370.133 109.08 370.015 109.028 369.875 108.994C369.735 108.959 369.596 108.921 369.456 108.879C369.316 108.837 369.198 108.768 369.101 108.67C369.004 108.573 368.955 108.444 368.955 108.284C368.955 108.086 369.034 107.915 369.191 107.771C369.348 107.626 369.588 107.554 369.91 107.554C370.116 107.554 370.304 107.583 370.475 107.64C370.646 107.698 370.731 107.763 370.731 107.836C370.731 107.877 370.712 107.924 370.676 107.977C370.639 108.029 370.593 108.055 370.539 108.055C370.523 108.055 370.449 108.03 370.315 107.979C370.181 107.929 370.048 107.904 369.916 107.904C369.737 107.904 369.604 107.941 369.517 108.016C369.43 108.09 369.386 108.175 369.386 108.269C369.386 108.366 369.434 108.442 369.532 108.498C369.629 108.554 369.748 108.597 369.89 108.629C370.031 108.66 370.172 108.698 370.312 108.743C370.451 108.788 370.57 108.866 370.667 108.975C370.764 109.085 370.812 109.227 370.812 109.4C370.812 109.616 370.727 109.786 370.556 109.912C370.385 110.037 370.147 110.099 369.84 110.099C369.576 110.099 369.351 110.057 369.165 109.972C368.978 109.886 368.885 109.797 368.885 109.703Z" fill="#010101"/>
<path fill-rule="evenodd" clip-rule="evenodd" d="M370.061 87.2181H373.819L364.33 104.242L354.779 87.2181H358.622L364.33 97.467L370.061 87.2181Z" fill="#41B883"/>
<path fill-rule="evenodd" clip-rule="evenodd" d="M366.376 87.2181H369.81L364.277 97.2323L358.787 87.2181H362.168L364.277 91.0734L366.376 87.2181Z" fill="#35495E"/>
<path d="M273.66 122.272C273.66 119.59 270.251 117.049 265.026 115.473C266.232 110.225 265.696 106.049 263.334 104.713C262.789 104.399 262.153 104.25 261.458 104.25V106.091C261.843 106.091 262.153 106.165 262.413 106.305C263.552 106.949 264.046 109.399 263.66 112.552C263.568 113.327 263.418 114.144 263.233 114.977C261.592 114.581 259.8 114.276 257.916 114.078C256.785 112.552 255.613 111.165 254.432 109.952C257.162 107.452 259.724 106.082 261.466 106.082V104.242C259.163 104.242 256.149 105.859 253.1 108.665C250.052 105.876 247.037 104.275 244.734 104.275V106.115C246.468 106.115 249.038 107.477 251.769 109.961C250.596 111.174 249.424 112.552 248.31 114.078C246.417 114.276 244.625 114.581 242.984 114.986C242.791 114.161 242.649 113.36 242.548 112.593C242.155 109.441 242.64 106.99 243.771 106.338C244.022 106.19 244.349 106.124 244.734 106.124V104.283C244.03 104.283 243.394 104.432 242.841 104.746C240.488 106.082 239.961 110.249 241.175 115.481C235.966 117.065 232.574 119.598 232.574 122.272C232.574 124.954 235.983 127.495 241.208 129.071C240.002 134.319 240.538 138.494 242.9 139.831C243.444 140.145 244.081 140.293 244.784 140.293C247.087 140.293 250.102 138.676 253.15 135.87C256.199 138.66 259.214 140.26 261.517 140.26C262.22 140.26 262.856 140.112 263.409 139.798C265.762 138.461 266.29 134.294 265.076 129.063C270.268 127.487 273.66 124.945 273.66 122.272ZM262.756 116.768C262.446 117.833 262.061 118.93 261.625 120.027C261.282 119.367 260.922 118.707 260.528 118.047C260.143 117.387 259.733 116.743 259.322 116.116C260.512 116.289 261.659 116.504 262.756 116.768ZM258.92 125.556C258.267 126.67 257.597 127.726 256.902 128.708C255.654 128.815 254.39 128.873 253.117 128.873C251.852 128.873 250.588 128.815 249.348 128.716C248.653 127.734 247.975 126.686 247.322 125.581C246.685 124.5 246.107 123.402 245.58 122.297C246.099 121.191 246.685 120.085 247.313 119.004C247.967 117.89 248.636 116.834 249.332 115.852C250.579 115.745 251.844 115.687 253.117 115.687C254.381 115.687 255.646 115.745 256.885 115.844C257.581 116.826 258.259 117.874 258.912 118.98C259.549 120.06 260.126 121.158 260.654 122.264C260.126 123.369 259.549 124.475 258.92 125.556ZM261.625 124.483C262.065 125.559 262.451 126.655 262.781 127.767C261.684 128.031 260.528 128.254 259.331 128.428C259.741 127.792 260.151 127.14 260.537 126.472C260.922 125.812 261.282 125.143 261.625 124.483ZM253.134 133.288C252.355 132.495 251.576 131.613 250.806 130.647C251.559 130.68 252.33 130.705 253.108 130.705C253.896 130.705 254.675 130.689 255.437 130.647C254.718 131.568 253.949 132.449 253.134 133.288ZM246.903 128.428C245.714 128.254 244.566 128.04 243.469 127.776C243.779 126.711 244.165 125.614 244.6 124.516C244.943 125.176 245.304 125.837 245.697 126.497C246.091 127.157 246.493 127.8 246.903 128.428ZM253.092 111.256C253.871 112.048 254.649 112.931 255.42 113.897C254.666 113.864 253.896 113.839 253.117 113.839C252.33 113.839 251.551 113.855 250.789 113.897C251.508 112.976 252.276 112.095 253.092 111.256ZM246.895 116.116C246.484 116.752 246.074 117.403 245.689 118.072C245.304 118.732 244.943 119.392 244.6 120.052C244.16 118.977 243.775 117.881 243.444 116.768C244.541 116.512 245.697 116.289 246.895 116.116ZM239.316 126.447C236.351 125.201 234.433 123.567 234.433 122.272C234.433 120.976 236.351 119.334 239.316 118.097C240.036 117.791 240.823 117.519 241.635 117.263C242.113 118.88 242.741 120.564 243.52 122.288C242.749 124.005 242.129 125.68 241.66 127.289C240.831 127.033 240.044 126.753 239.316 126.447ZM243.821 138.239C242.682 137.595 242.188 135.144 242.573 131.992C242.666 131.217 242.816 130.4 243 129.566C244.642 129.962 246.434 130.268 248.318 130.466C249.449 131.992 250.621 133.378 251.802 134.591C249.072 137.092 246.509 138.461 244.767 138.461C244.391 138.453 244.072 138.379 243.821 138.239ZM263.686 131.951C264.079 135.103 263.594 137.554 262.463 138.206C262.212 138.354 261.885 138.42 261.5 138.42C259.766 138.42 257.195 137.059 254.465 134.575C255.638 133.362 256.81 131.984 257.924 130.457C259.817 130.259 261.609 129.954 263.25 129.55C263.443 130.383 263.594 131.184 263.686 131.951ZM266.91 126.447C266.19 126.753 265.402 127.025 264.59 127.281C264.113 125.663 263.485 123.98 262.706 122.255C263.476 120.539 264.096 118.864 264.565 117.255C265.394 117.511 266.181 117.791 266.918 118.097C269.883 119.342 271.801 120.976 271.801 122.272C271.792 123.567 269.874 125.209 266.91 126.447Z" fill="#61DAFB"/>
<path d="M252.939 125.938C255.024 125.938 256.714 124.22 256.714 122.1C256.714 119.98 255.024 118.262 252.939 118.262C250.854 118.262 249.164 119.98 249.164 122.1C249.164 124.22 250.854 125.938 252.939 125.938ZM234.524 147.05H233.277V149.232H232.574V143.838H234.33C234.928 143.838 235.387 143.976 235.708 144.253C236.031 144.529 236.193 144.932 236.193 145.46C236.193 145.796 236.103 146.089 235.923 146.339C235.746 146.588 235.498 146.774 235.18 146.898L236.426 149.187V149.232H235.675L234.524 147.05ZM233.277 146.468H234.352C234.7 146.468 234.975 146.377 235.18 146.194C235.386 146.011 235.489 145.767 235.489 145.46C235.489 145.127 235.391 144.872 235.194 144.694C235 144.516 234.718 144.426 234.349 144.423H233.277V146.468ZM238.707 149.306C238.172 149.306 237.738 149.128 237.402 148.772C237.067 148.414 236.899 147.936 236.899 147.339V147.213C236.899 146.815 236.974 146.461 237.122 146.15C237.272 145.836 237.481 145.591 237.749 145.416C238.018 145.238 238.31 145.149 238.623 145.149C239.136 145.149 239.534 145.321 239.818 145.664C240.103 146.007 240.245 146.499 240.245 147.139V147.424H237.574C237.583 147.819 237.696 148.139 237.912 148.383C238.131 148.625 238.408 148.746 238.743 148.746C238.981 148.746 239.183 148.697 239.348 148.598C239.513 148.499 239.658 148.369 239.782 148.206L240.194 148.532C239.863 149.048 239.368 149.306 238.707 149.306ZM238.623 145.712C238.351 145.712 238.123 145.814 237.938 146.016C237.753 146.216 237.639 146.498 237.595 146.861H239.571V146.809C239.551 146.461 239.459 146.192 239.294 146.001C239.128 145.809 238.905 145.712 238.623 145.712ZM243.462 149.232C243.423 149.153 243.392 149.012 243.368 148.809C243.054 149.14 242.68 149.306 242.245 149.306C241.856 149.306 241.537 149.195 241.287 148.972C241.039 148.748 240.915 148.464 240.915 148.12C240.915 147.703 241.071 147.379 241.382 147.15C241.695 146.918 242.135 146.801 242.701 146.801H243.357V146.487C243.357 146.247 243.286 146.057 243.145 145.916C243.004 145.773 242.797 145.701 242.522 145.701C242.282 145.701 242.08 145.763 241.917 145.887C241.755 146.01 241.673 146.159 241.673 146.335H240.995C240.995 146.135 241.065 145.942 241.203 145.757C241.344 145.569 241.533 145.421 241.771 145.312C242.012 145.204 242.275 145.149 242.562 145.149C243.017 145.149 243.372 145.265 243.63 145.498C243.887 145.727 244.021 146.045 244.031 146.45V148.294C244.031 148.662 244.077 148.955 244.169 149.172V149.232H243.462ZM242.344 148.709C242.555 148.709 242.755 148.654 242.945 148.543C243.134 148.432 243.271 148.287 243.357 148.109V147.287H242.828C242.002 147.287 241.589 147.533 241.589 148.024C241.589 148.239 241.66 148.407 241.8 148.528C241.941 148.649 242.122 148.709 242.344 148.709ZM246.669 148.746C246.909 148.746 247.12 148.672 247.299 148.524C247.479 148.376 247.579 148.191 247.598 147.968H248.236C248.224 148.198 248.146 148.417 248.003 148.624C247.859 148.832 247.667 148.997 247.427 149.121C247.189 149.244 246.936 149.306 246.669 149.306C246.132 149.306 245.704 149.124 245.386 148.761C245.07 148.396 244.913 147.897 244.913 147.265V147.15C244.913 146.76 244.983 146.413 245.124 146.109C245.265 145.805 245.466 145.569 245.729 145.401C245.994 145.233 246.306 145.149 246.665 145.149C247.107 145.149 247.474 145.284 247.766 145.553C248.06 145.822 248.216 146.172 248.236 146.601H247.598C247.579 146.342 247.481 146.13 247.307 145.964C247.134 145.796 246.92 145.712 246.665 145.712C246.323 145.712 246.057 145.838 245.867 146.09C245.68 146.34 245.587 146.702 245.587 147.176V147.305C245.587 147.767 245.68 148.123 245.867 148.372C246.054 148.622 246.322 148.746 246.669 148.746ZM249.908 144.253V145.223H250.644V145.753H249.908V148.239C249.908 148.399 249.941 148.52 250.007 148.602C250.072 148.681 250.184 148.721 250.342 148.721C250.42 148.721 250.527 148.706 250.663 148.676V149.232C250.485 149.281 250.313 149.306 250.145 149.306C249.844 149.306 249.617 149.213 249.464 149.028C249.311 148.843 249.234 148.58 249.234 148.239V145.753H248.516V145.223H249.234V144.253H249.908ZM257.47 149.232H256.766L254.095 145.075V149.232H253.392V143.838H254.095L256.774 148.013V143.838H257.47V149.232ZM261.041 149.232C261.002 149.153 260.97 149.012 260.946 148.809C260.632 149.14 260.258 149.306 259.824 149.306C259.435 149.306 259.115 149.195 258.865 148.972C258.618 148.748 258.494 148.464 258.494 148.12C258.494 147.703 258.649 147.379 258.96 147.15C259.273 146.918 259.713 146.801 260.279 146.801H260.935V146.487C260.935 146.247 260.864 146.057 260.724 145.916C260.583 145.773 260.375 145.701 260.1 145.701C259.86 145.701 259.658 145.763 259.496 145.887C259.333 146.01 259.251 146.159 259.251 146.335H258.574C258.574 146.135 258.643 145.942 258.781 145.757C258.922 145.569 259.112 145.421 259.35 145.312C259.59 145.204 259.854 145.149 260.141 145.149C260.595 145.149 260.951 145.265 261.208 145.498C261.466 145.727 261.599 146.045 261.609 146.45V148.294C261.609 148.662 261.655 148.955 261.748 149.172V149.232H261.041ZM259.922 148.709C260.133 148.709 260.334 148.654 260.523 148.543C260.713 148.432 260.85 148.287 260.935 148.109V147.287H260.407C259.581 147.287 259.168 147.533 259.168 148.024C259.168 148.239 259.238 148.407 259.379 148.528C259.52 148.649 259.701 148.709 259.922 148.709ZM263.58 144.253V145.223H264.317V145.753H263.58V148.239C263.58 148.399 263.613 148.52 263.679 148.602C263.744 148.681 263.856 148.721 264.014 148.721C264.092 148.721 264.199 148.706 264.335 148.676V149.232C264.157 149.281 263.985 149.306 263.817 149.306C263.516 149.306 263.289 149.213 263.136 149.028C262.983 148.843 262.906 148.58 262.906 148.239V145.753H262.189V145.223H262.906V144.253H263.58ZM265.84 149.232H265.166V145.223H265.84V149.232ZM265.111 144.16C265.111 144.049 265.144 143.955 265.209 143.879C265.277 143.802 265.377 143.764 265.508 143.764C265.639 143.764 265.739 143.802 265.807 143.879C265.875 143.955 265.909 144.049 265.909 144.16C265.909 144.271 265.875 144.364 265.807 144.438C265.739 144.512 265.639 144.549 265.508 144.549C265.377 144.549 265.277 144.512 265.209 144.438C265.144 144.364 265.111 144.271 265.111 144.16ZM268.223 148.302L269.199 145.223H269.888L268.474 149.232H267.96L266.532 145.223H267.221L268.223 148.302ZM272.122 149.306C271.587 149.306 271.153 149.128 270.817 148.772C270.482 148.414 270.315 147.936 270.315 147.339V147.213C270.315 146.815 270.389 146.461 270.537 146.15C270.687 145.836 270.896 145.591 271.164 145.416C271.433 145.238 271.725 145.149 272.038 145.149C272.551 145.149 272.949 145.321 273.233 145.664C273.517 146.007 273.66 146.499 273.66 147.139V147.424H270.989C270.998 147.819 271.111 148.139 271.328 148.383C271.546 148.625 271.823 148.746 272.158 148.746C272.396 148.746 272.598 148.697 272.763 148.598C272.928 148.499 273.073 148.369 273.197 148.206L273.609 148.532C273.278 149.048 272.783 149.306 272.122 149.306ZM272.038 145.712C271.766 145.712 271.538 145.814 271.353 146.016C271.168 146.216 271.054 146.498 271.011 146.861H272.985V146.809C272.966 146.461 272.874 146.192 272.709 146.001C272.543 145.809 272.32 145.712 272.038 145.712Z" fill="#61DAFB"/>
<path d="M53.8317 114.257C53.7874 114.257 53.7439 114.268 53.7055 114.29C53.6673 114.313 53.6355 114.344 53.6134 114.383C53.5913 114.421 53.5795 114.465 53.5793 114.509V120.943C53.5793 121.006 53.5498 121.063 53.4951 121.095C53.4682 121.11 53.4377 121.118 53.4067 121.118C53.3756 121.118 53.3451 121.11 53.3183 121.095L52.2662 120.489C52.1895 120.445 52.1024 120.421 52.0138 120.421C51.9251 120.421 51.838 120.445 51.7613 120.489L47.5616 122.911C47.4046 123.002 47.3089 123.176 47.3089 123.357V128.201C47.3088 128.29 47.3321 128.377 47.3765 128.454C47.4208 128.531 47.4846 128.595 47.5615 128.639L51.7613 131.061C51.838 131.106 51.9251 131.129 52.0138 131.129C52.1024 131.129 52.1895 131.106 52.2662 131.061L56.466 128.639C56.5429 128.595 56.6067 128.531 56.6511 128.454C56.6954 128.377 56.7187 128.29 56.7186 128.201V116.124C56.7186 115.94 56.6182 115.768 56.4577 115.678L53.9581 114.282C53.9188 114.26 53.8752 114.256 53.8317 114.257ZM26.8151 120.304C26.735 120.307 26.6598 120.321 26.5878 120.363L22.3882 122.785C22.3112 122.829 22.2474 122.893 22.203 122.97C22.1587 123.046 22.1355 123.134 22.1357 123.222L22.1443 129.724C22.1443 129.814 22.1911 129.898 22.2706 129.943C22.3486 129.989 22.4454 129.989 22.523 129.943L25.0143 128.513C25.1722 128.419 25.2751 128.256 25.2751 128.075V125.039C25.2751 124.858 25.3705 124.692 25.5278 124.602L26.5883 123.988C26.6649 123.943 26.7521 123.92 26.8407 123.921C26.9294 123.92 27.0166 123.943 27.0933 123.988L28.1533 124.602C28.3104 124.692 28.4057 124.858 28.4057 125.039V128.075C28.4057 128.256 28.511 128.42 28.6666 128.512L31.1578 129.942C31.2362 129.989 31.3327 129.989 31.4102 129.942C31.4875 129.898 31.5366 129.814 31.5366 129.723L31.545 123.222C31.5455 123.133 31.5224 123.046 31.478 122.969C31.4337 122.892 31.3697 122.829 31.2926 122.785L27.0929 120.363C27.0219 120.321 26.9464 120.307 26.8656 120.304H26.8153L26.8151 120.304ZM64.5541 120.363C64.4655 120.362 64.3784 120.386 64.3016 120.43L60.1018 122.852C59.9451 122.943 59.8492 123.109 59.8492 123.29V128.134C59.8492 128.316 59.9519 128.481 60.11 128.571L64.2761 130.944C64.4299 131.032 64.6177 131.039 64.7727 130.953L67.2976 129.548C67.3777 129.503 67.4319 129.42 67.4321 129.329C67.4323 129.238 67.385 129.156 67.3058 129.111L63.0806 126.688C63.0015 126.643 62.9461 126.552 62.9461 126.461V124.946C62.9461 124.856 63.0022 124.773 63.0806 124.728L64.3935 123.971C64.4717 123.926 64.5676 123.926 64.6462 123.971L65.9597 124.728C65.9982 124.75 66.0301 124.782 66.0523 124.82C66.0744 124.858 66.0861 124.902 66.0859 124.946V126.141C66.0858 126.185 66.0974 126.229 66.1196 126.267C66.1418 126.305 66.1737 126.337 66.2122 126.359C66.2909 126.405 66.3862 126.405 66.4648 126.359L68.9812 124.896C69.1374 124.805 69.2339 124.639 69.2339 124.459V123.29C69.2339 123.201 69.2105 123.114 69.1662 123.037C69.1219 122.961 69.0581 122.897 68.9813 122.853L64.8068 120.43C64.7301 120.386 64.6429 120.363 64.5543 120.363L64.5541 120.363ZM51.9969 123.98C52.0204 123.979 52.0435 123.985 52.0642 123.996L53.5034 124.829C53.5424 124.851 53.5708 124.893 53.5708 124.938V126.604C53.5708 126.649 53.5427 126.69 53.5034 126.713L52.0642 127.545C52.025 127.568 51.9772 127.568 51.9379 127.545L50.4987 126.713C50.4596 126.69 50.4314 126.649 50.4314 126.604V124.938C50.4314 124.893 50.4597 124.851 50.4987 124.829L51.9379 123.996C51.9575 123.985 51.9749 123.98 51.9969 123.98Z" fill="#404137"/>
<path d="M39.4314 120.337C39.3427 120.337 39.2556 120.36 39.1788 120.405L34.979 122.819C34.822 122.909 34.7266 123.083 34.7266 123.264V128.109C34.7263 128.198 34.7496 128.285 34.7939 128.362C34.8382 128.438 34.9021 128.502 34.979 128.546L39.1788 130.968C39.2555 131.013 39.3426 131.036 39.4313 131.036C39.5199 131.036 39.607 131.013 39.6837 130.968L43.8835 128.546C43.9604 128.502 44.0242 128.438 44.0686 128.361C44.1129 128.285 44.1362 128.197 44.1361 128.109V123.264C44.1361 123.083 44.0406 122.909 43.8834 122.819L39.6836 120.405C39.6069 120.36 39.5197 120.337 39.431 120.337L39.4314 120.337ZM64.546 124.661C64.5293 124.661 64.5107 124.661 64.4955 124.669L63.6875 125.14C63.6725 125.148 63.6599 125.16 63.651 125.175C63.6422 125.19 63.6373 125.207 63.637 125.224V126.149C63.637 126.184 63.6573 126.216 63.6875 126.233L64.4955 126.696C64.5094 126.704 64.5254 126.709 64.5417 126.709C64.558 126.709 64.574 126.704 64.5879 126.696L65.3959 126.233C65.4258 126.216 65.4464 126.184 65.4464 126.149V125.224C65.4464 125.189 65.4259 125.157 65.3959 125.14L64.5879 124.669C64.5729 124.66 64.5626 124.66 64.5458 124.66L64.546 124.661Z" fill="#83CD29"/>
<path d="M46.1851 132.754C46.0327 132.754 45.8847 132.782 45.7536 132.848L41.6069 134.97C41.3385 135.107 41.1754 135.366 41.1754 135.641V139.879C41.1754 140.154 41.3385 140.412 41.6069 140.55L42.6898 141.103C43.216 141.333 43.4101 141.329 43.6495 141.329C44.4285 141.329 44.8732 140.91 44.8732 140.182V136.002C44.8732 135.942 44.8154 135.9 44.75 135.9H44.2305C44.1639 135.9 44.1073 135.944 44.1073 136.002V140.184C44.1073 140.507 43.728 140.832 43.1125 140.559L41.9867 139.974C41.9469 139.954 41.9162 139.919 41.9162 139.88V135.643C41.9162 135.602 41.9466 135.561 41.9867 135.541L46.1247 133.426C46.1635 133.407 46.2097 133.407 46.248 133.426L50.386 135.541C50.4254 135.562 50.4565 135.601 50.4565 135.643V139.88C50.4565 139.92 50.4336 139.962 50.3948 139.981L46.2481 142.096C46.2114 142.115 46.1624 142.115 46.1249 142.096L45.0595 141.534C45.0277 141.518 44.9845 141.519 44.9539 141.534C44.6599 141.682 44.6046 141.699 44.3289 141.784C44.261 141.805 44.1576 141.838 44.3641 141.94L45.7552 142.667C45.8876 142.735 46.0352 142.768 46.1866 142.768C46.3402 142.768 46.4856 142.736 46.6181 142.667L50.7648 140.552C51.0332 140.414 51.1963 140.156 51.1963 139.881V135.644C51.1963 135.368 51.0332 135.11 50.7648 134.973L46.6181 132.85C46.4882 132.784 46.3391 132.756 46.1866 132.756L46.1851 132.754ZM47.2944 135.782C46.1136 135.782 45.4104 136.227 45.4104 136.968C45.4104 137.771 46.1083 137.992 47.2417 138.092C48.5975 138.209 48.7032 138.386 48.7032 138.622C48.7032 139.033 48.3342 139.208 47.4618 139.208C46.3659 139.208 46.125 138.965 46.0443 138.481C46.0348 138.429 45.9898 138.387 45.9299 138.387H45.3915C45.3591 138.388 45.3281 138.4 45.3052 138.42C45.2822 138.44 45.269 138.468 45.2683 138.497C45.2683 139.115 45.6479 139.847 47.4606 139.847C48.7727 139.847 49.5296 139.391 49.5296 138.59C49.5296 137.798 48.9182 137.584 47.6455 137.435C46.3607 137.283 46.2368 137.211 46.2368 136.943C46.2368 136.723 46.3408 136.428 47.2933 136.428C48.1441 136.428 48.4586 136.591 48.5876 137.099C48.5988 137.147 48.6463 137.186 48.702 137.186H49.2404C49.2734 137.186 49.3055 137.168 49.3285 137.147C49.351 137.125 49.3669 137.099 49.3637 137.069C49.2805 136.193 48.6217 135.781 47.2948 135.781L47.2944 135.782Z" fill="#83CD29"/>
<defs>
<filter id="filter0_d_56_364" x="5" y="89" width="86" height="86" filterUnits="userSpaceOnUse" color-interpolation-filters="sRGB">
<feFlood flood-opacity="0" result="BackgroundImageFix"/>
<feColorMatrix in="SourceAlpha" type="matrix" values="0 0 0 0 0 0 0 0 0 0 0 0 0 0 0 0 0 0 127 0" result="hardAlpha"/>
<feMorphology radius="7" operator="erode" in="SourceAlpha" result="effect1_dropShadow_56_364"/>
<feOffset dx="3" dy="4"/>
<feGaussianBlur stdDeviation="8.5"/>
<feComposite in2="hardAlpha" operator="out"/>
<feColorMatrix type="matrix" values="0 0 0 0 0 0 0 0 0 0 0 0 0 0 0 0 0 0 0.25 0"/>
<feBlend mode="normal" in2="BackgroundImageFix" result="effect1_dropShadow_56_364"/>
<feBlend mode="normal" in="SourceGraphic" in2="effect1_dropShadow_56_364" result="shape"/>
</filter>
<filter id="filter1_d_56_364" x="123" y="443" width="86" height="86" filterUnits="userSpaceOnUse" color-interpolation-filters="sRGB">
<feFlood flood-opacity="0" result="BackgroundImageFix"/>
<feColorMatrix in="SourceAlpha" type="matrix" values="0 0 0 0 0 0 0 0 0 0 0 0 0 0 0 0 0 0 127 0" result="hardAlpha"/>
<feMorphology radius="7" operator="erode" in="SourceAlpha" result="effect1_dropShadow_56_364"/>
<feOffset dx="3" dy="4"/>
<feGaussianBlur stdDeviation="8.5"/>
<feComposite in2="hardAlpha" operator="out"/>
<feColorMatrix type="matrix" values="0 0 0 0 0 0 0 0 0 0 0 0 0 0 0 0 0 0 0.25 0"/>
<feBlend mode="normal" in2="BackgroundImageFix" result="effect1_dropShadow_56_364"/>
<feBlend mode="normal" in="SourceGraphic" in2="effect1_dropShadow_56_364" result="shape"/>
</filter>
<filter id="filter2_d_56_364" x="411" y="499" width="86" height="86" filterUnits="userSpaceOnUse" color-interpolation-filters="sRGB">
<feFlood flood-opacity="0" result="BackgroundImageFix"/>
<feColorMatrix in="SourceAlpha" type="matrix" values="0 0 0 0 0 0 0 0 0 0 0 0 0 0 0 0 0 0 127 0" result="hardAlpha"/>
<feMorphology radius="7" operator="erode" in="SourceAlpha" result="effect1_dropShadow_56_364"/>
<feOffset dx="3" dy="4"/>
<feGaussianBlur stdDeviation="8.5"/>
<feComposite in2="hardAlpha" operator="out"/>
<feColorMatrix type="matrix" values="0 0 0 0 0 0 0 0 0 0 0 0 0 0 0 0 0 0 0.25 0"/>
<feBlend mode="normal" in2="BackgroundImageFix" result="effect1_dropShadow_56_364"/>
<feBlend mode="normal" in="SourceGraphic" in2="effect1_dropShadow_56_364" result="shape"/>
</filter>
<filter id="filter3_d_56_364" x="0" y="253" width="67" height="67" filterUnits="userSpaceOnUse" color-interpolation-filters="sRGB">
<feFlood flood-opacity="0" result="BackgroundImageFix"/>
<feColorMatrix in="SourceAlpha" type="matrix" values="0 0 0 0 0 0 0 0 0 0 0 0 0 0 0 0 0 0 127 0" result="hardAlpha"/>
<feMorphology radius="7" operator="erode" in="SourceAlpha" result="effect1_dropShadow_56_364"/>
<feOffset dx="3" dy="4"/>
<feGaussianBlur stdDeviation="8.5"/>
<feComposite in2="hardAlpha" operator="out"/>
<feColorMatrix type="matrix" values="0 0 0 0 0 0 0 0 0 0 0 0 0 0 0 0 0 0 0.25 0"/>
<feBlend mode="normal" in2="BackgroundImageFix" result="effect1_dropShadow_56_364"/>
<feBlend mode="normal" in="SourceGraphic" in2="effect1_dropShadow_56_364" result="shape"/>
</filter>
<filter id="filter4_d_56_364" x="111" y="0" width="76" height="76" filterUnits="userSpaceOnUse" color-interpolation-filters="sRGB">
<feFlood flood-opacity="0" result="BackgroundImageFix"/>
<feColorMatrix in="SourceAlpha" type="matrix" values="0 0 0 0 0 0 0 0 0 0 0 0 0 0 0 0 0 0 127 0" result="hardAlpha"/>
<feMorphology radius="7" operator="erode" in="SourceAlpha" result="effect1_dropShadow_56_364"/>
<feOffset dx="3" dy="4"/>
<feGaussianBlur stdDeviation="8.5"/>
<feComposite in2="hardAlpha" operator="out"/>
<feColorMatrix type="matrix" values="0 0 0 0 0 0 0 0 0 0 0 0 0 0 0 0 0 0 0.25 0"/>
<feBlend mode="normal" in2="BackgroundImageFix" result="effect1_dropShadow_56_364"/>
<feBlend mode="normal" in="SourceGraphic" in2="effect1_dropShadow_56_364" result="shape"/>
</filter>
<filter id="filter5_d_56_364" x="205" y="82" width="100" height="100" filterUnits="userSpaceOnUse" color-interpolation-filters="sRGB">
<feFlood flood-opacity="0" result="BackgroundImageFix"/>
<feColorMatrix in="SourceAlpha" type="matrix" values="0 0 0 0 0 0 0 0 0 0 0 0 0 0 0 0 0 0 127 0" result="hardAlpha"/>
<feMorphology radius="7" operator="erode" in="SourceAlpha" result="effect1_dropShadow_56_364"/>
<feOffset dx="3" dy="4"/>
<feGaussianBlur stdDeviation="8.5"/>
<feComposite in2="hardAlpha" operator="out"/>
<feColorMatrix type="matrix" values="0 0 0 0 0 0 0 0 0 0 0 0 0 0 0 0 0 0 0.25 0"/>
<feBlend mode="normal" in2="BackgroundImageFix" result="effect1_dropShadow_56_364"/>
<feBlend mode="normal" in="SourceGraphic" in2="effect1_dropShadow_56_364" result="shape"/>
</filter>
<filter id="filter6_d_56_364" x="331.95" y="67" width="69" height="69" filterUnits="userSpaceOnUse" color-interpolation-filters="sRGB">
<feFlood flood-opacity="0" result="BackgroundImageFix"/>
<feColorMatrix in="SourceAlpha" type="matrix" values="0 0 0 0 0 0 0 0 0 0 0 0 0 0 0 0 0 0 127 0" result="hardAlpha"/>
<feMorphology radius="7" operator="erode" in="SourceAlpha" result="effect1_dropShadow_56_364"/>
<feOffset dx="3" dy="4"/>
<feGaussianBlur stdDeviation="8.5"/>
<feComposite in2="hardAlpha" operator="out"/>
<feColorMatrix type="matrix" values="0 0 0 0 0 0 0 0 0 0 0 0 0 0 0 0 0 0 0.25 0"/>
<feBlend mode="normal" in2="BackgroundImageFix" result="effect1_dropShadow_56_364"/>
<feBlend mode="normal" in="SourceGraphic" in2="effect1_dropShadow_56_364" result="shape"/>
</filter>
<filter id="filter7_d_56_364" x="394" y="191" width="78" height="79" filterUnits="userSpaceOnUse" color-interpolation-filters="sRGB">
<feFlood flood-opacity="0" result="BackgroundImageFix"/>
<feColorMatrix in="SourceAlpha" type="matrix" values="0 0 0 0 0 0 0 0 0 0 0 0 0 0 0 0 0 0 127 0" result="hardAlpha"/>
<feMorphology radius="7" operator="erode" in="SourceAlpha" result="effect1_dropShadow_56_364"/>
<feOffset dx="3" dy="4"/>
<feGaussianBlur stdDeviation="8.5"/>
<feComposite in2="hardAlpha" operator="out"/>
<feColorMatrix type="matrix" values="0 0 0 0 0 0 0 0 0 0 0 0 0 0 0 0 0 0 0.25 0"/>
<feBlend mode="normal" in2="BackgroundImageFix" result="effect1_dropShadow_56_364"/>
<feBlend mode="normal" in="SourceGraphic" in2="effect1_dropShadow_56_364" result="shape"/>
</filter>
<filter id="filter8_d_56_364" x="271" y="419" width="89" height="89" filterUnits="userSpaceOnUse" color-interpolation-filters="sRGB">
<feFlood flood-opacity="0" result="BackgroundImageFix"/>
<feColorMatrix in="SourceAlpha" type="matrix" values="0 0 0 0 0 0 0 0 0 0 0 0 0 0 0 0 0 0 127 0" result="hardAlpha"/>
<feMorphology radius="7" operator="erode" in="SourceAlpha" result="effect1_dropShadow_56_364"/>
<feOffset dx="3" dy="4"/>
<feGaussianBlur stdDeviation="8.5"/>
<feComposite in2="hardAlpha" operator="out"/>
<feColorMatrix type="matrix" values="0 0 0 0 0 0 0 0 0 0 0 0 0 0 0 0 0 0 0.25 0"/>
<feBlend mode="normal" in2="BackgroundImageFix" result="effect1_dropShadow_56_364"/>
<feBlend mode="normal" in="SourceGraphic" in2="effect1_dropShadow_56_364" result="shape"/>
</filter>
<filter id="filter9_d_56_364" x="417" y="323" width="123" height="123" filterUnits="userSpaceOnUse" color-interpolation-filters="sRGB">
<feFlood flood-opacity="0" result="BackgroundImageFix"/>
<feColorMatrix in="SourceAlpha" type="matrix" values="0 0 0 0 0 0 0 0 0 0 0 0 0 0 0 0 0 0 127 0" result="hardAlpha"/>
<feMorphology radius="7" operator="erode" in="SourceAlpha" result="effect1_dropShadow_56_364"/>
<feOffset dx="3" dy="4"/>
<feGaussianBlur stdDeviation="8.5"/>
<feComposite in2="hardAlpha" operator="out"/>
<feColorMatrix type="matrix" values="0 0 0 0 0 0 0 0 0 0 0 0 0 0 0 0 0 0 0.25 0"/>
<feBlend mode="normal" in2="BackgroundImageFix" result="effect1_dropShadow_56_364"/>
<feBlend mode="normal" in="SourceGraphic" in2="effect1_dropShadow_56_364" result="shape"/>
</filter>
<filter id="filter10_d_56_364" x="68" y="294" width="123" height="123" filterUnits="userSpaceOnUse" color-interpolation-filters="sRGB">
<feFlood flood-opacity="0" result="BackgroundImageFix"/>
<feColorMatrix in="SourceAlpha" type="matrix" values="0 0 0 0 0 0 0 0 0 0 0 0 0 0 0 0 0 0 127 0" result="hardAlpha"/>
<feMorphology radius="7" operator="erode" in="SourceAlpha" result="effect1_dropShadow_56_364"/>
<feOffset dx="3" dy="4"/>
<feGaussianBlur stdDeviation="8.5"/>
<feComposite in2="hardAlpha" operator="out"/>
<feColorMatrix type="matrix" values="0 0 0 0 0 0 0 0 0 0 0 0 0 0 0 0 0 0 0.25 0"/>
<feBlend mode="normal" in2="BackgroundImageFix" result="effect1_dropShadow_56_364"/>
<feBlend mode="normal" in="SourceGraphic" in2="effect1_dropShadow_56_364" result="shape"/>
</filter>
<filter id="filter11_d_56_364" x="156.25" y="178.617" width="250.4" height="214.4" filterUnits="userSpaceOnUse" color-interpolation-filters="sRGB">
<feFlood flood-opacity="0" result="BackgroundImageFix"/>
<feColorMatrix in="SourceAlpha" type="matrix" values="0 0 0 0 0 0 0 0 0 0 0 0 0 0 0 0 0 0 127 0" result="hardAlpha"/>
<feMorphology radius="5" operator="erode" in="SourceAlpha" result="effect1_dropShadow_56_364"/>
<feOffset dx="3" dy="4"/>
<feGaussianBlur stdDeviation="8.85"/>
<feComposite in2="hardAlpha" operator="out"/>
<feColorMatrix type="matrix" values="0 0 0 0 0 0 0 0 0 0 0 0 0 0 0 0 0 0 0.25 0"/>
<feBlend mode="normal" in2="BackgroundImageFix" result="effect1_dropShadow_56_364"/>
<feBlend mode="normal" in="SourceGraphic" in2="effect1_dropShadow_56_364" result="shape"/>
</filter>
<radialGradient id="paint0_radial_56_364" cx="0" cy="0" r="1" gradientUnits="userSpaceOnUse" gradientTransform="translate(442.515 532.171) scale(29.9935 29.5642)">
<stop stop-color="#AEB2D5"/>
<stop offset="0.3" stop-color="#AEB2D5"/>
<stop offset="0.75" stop-color="#484C89"/>
<stop offset="1" stop-color="#484C89"/>
</radialGradient>
</defs>
</svg>
