<svg width="405" height="260" viewBox="0 0 405 260" fill="none" xmlns="http://www.w3.org/2000/svg">
<path d="M0 110C0 102.268 6.26801 96 14 96H391C398.732 96 405 102.268 405 110V260H0V110Z" fill="#27AAE1"/>
<path opacity="0.08" d="M201.09 223.131L127.588 180.526C127.415 180.424 127.273 180.278 127.174 180.104C127.075 179.93 127.023 179.733 127.023 179.533C127.023 179.333 127.075 179.136 127.174 178.962C127.273 178.788 127.415 178.642 127.588 178.54L240.048 113.55L242.494 112.096C243.238 111.662 244.084 111.433 244.945 111.433C245.806 111.433 246.652 111.662 247.395 112.096L320.401 154.241C323.543 156.046 323.886 158.808 321.16 160.379L211.723 223.564C208.997 225.144 204.231 224.945 201.09 223.131Z" fill="black"/>
<path d="M97.2045 66.1789L209.376 1.73918C209.974 1.39341 210.641 1.18595 211.33 1.13203C212.018 1.07812 212.71 1.17912 213.354 1.42761C213.998 1.67611 214.578 2.06578 215.052 2.568C215.526 3.07022 215.881 3.67222 216.092 4.32977L245.581 96.0474C246.091 97.6217 246.105 99.3146 245.621 100.897C245.136 102.479 244.177 103.874 242.873 104.893L243.442 104.659C244.162 104.236 244.981 104.013 245.816 104.013C246.651 104.013 247.47 104.236 248.19 104.659L318.488 145.774C320.067 146.677 320.907 147.832 320.997 148.942V154.304C320.964 154.864 320.778 155.404 320.46 155.865C320.142 156.326 319.703 156.692 319.192 156.922L213.348 218.031C210.712 219.547 206.127 219.358 203.067 217.598L133.563 177.312C132.907 176.934 132.362 176.389 131.984 175.733C131.605 175.077 131.406 174.333 131.406 173.576V167.781C130.222 168.097 129.014 168.318 127.795 168.44C125.511 168.34 123.363 168.665 122.614 166.282L93.7293 74.9256C93.2234 73.2899 93.2922 71.5305 93.9244 69.9394C94.5566 68.3483 95.714 67.0214 97.2045 66.1789V66.1789Z" fill="#E3FFFF"/>
<path d="M106.367 68.1829L208.258 9.25831C208.576 9.06799 208.933 8.95205 209.303 8.91914C209.673 8.88623 210.045 8.93719 210.392 9.06822C210.739 9.19926 211.052 9.40699 211.308 9.6759C211.563 9.94482 211.755 10.268 211.868 10.6213L239.543 95.19C239.788 95.9452 239.767 96.7614 239.485 97.5033C239.203 98.2453 238.676 98.8685 237.991 99.27L135.306 158.953C135.058 159.098 134.781 159.185 134.495 159.208C134.209 159.231 133.921 159.189 133.653 159.086C133.385 158.983 133.144 158.821 132.947 158.612C132.751 158.403 132.603 158.152 132.517 157.879L104.878 71.974C104.657 71.267 104.684 70.5057 104.955 69.8162C105.226 69.1267 105.724 68.5504 106.367 68.1829V68.1829Z" fill="white"/>
<path d="M219.395 118.478L222.256 120.193C223.276 120.78 223.385 121.664 222.5 122.179L172.575 151C172.03 151.246 171.435 151.361 170.838 151.336C170.241 151.311 169.658 151.146 169.136 150.856L166.284 149.15L219.395 118.478Z" fill="#67DAFF"/>
<path d="M132.028 170.985L203.283 212.29C206.334 214.095 210.946 214.24 213.591 212.714L319.264 151.723C319.807 151.491 320.269 151.103 320.59 150.608C320.912 150.113 321.078 149.533 321.069 148.942C321.069 148.942 321.069 154.304 321.069 154.304C321.036 154.864 320.85 155.403 320.532 155.865C320.213 156.326 319.775 156.692 319.264 156.922L213.42 218.031C210.784 219.547 206.198 219.358 203.138 217.598L133.635 177.312C132.979 176.934 132.434 176.389 132.055 175.733C131.677 175.077 131.477 174.333 131.478 173.576V170.118C131.491 170.297 131.549 170.469 131.645 170.62C131.741 170.772 131.872 170.897 132.028 170.985V170.985Z" fill="#67DAFF"/>
<path d="M245.898 186.438L275.613 169.288C276.516 168.783 276.38 167.889 275.36 167.302L258.752 157.725C258.229 157.435 257.646 157.271 257.049 157.246C256.452 157.22 255.857 157.335 255.312 157.581L225.606 174.731C224.704 175.245 224.83 176.13 225.85 176.717L242.459 186.312C242.982 186.601 243.566 186.764 244.163 186.786C244.761 186.808 245.355 186.689 245.898 186.438V186.438Z" fill="white"/>
<path d="M188.741 189.959L281.713 136.287C282.616 135.782 282.481 134.897 281.461 134.311L248.595 115.355C248.073 115.065 247.49 114.901 246.893 114.875C246.296 114.85 245.701 114.965 245.156 115.211L152.184 168.882C151.281 169.387 151.408 170.281 152.428 170.868L185.302 189.823C185.824 190.115 186.408 190.28 187.005 190.304C187.603 190.327 188.198 190.209 188.741 189.959V189.959Z" fill="#67DAFF"/>
<path d="M203.952 142.624L246.412 118.117L249.833 120.094L207.382 144.61L203.952 142.624Z" fill="#27AAE1"/>
<path d="M252.884 129.77L259.735 125.808L263.165 127.784L256.305 131.747L252.884 129.77Z" fill="#27AAE1"/>
<path d="M251.169 134.708L173.487 179.56L170.066 177.583L247.739 132.731L251.169 134.708Z" fill="#27AAE1"/>
<path d="M188.579 174.586L266.396 129.653L269.826 131.63L192 176.563L188.579 174.586Z" fill="#27AAE1"/>
<path d="M186.72 179.614L180.157 183.405L176.727 181.429L183.29 177.638L186.72 179.614Z" fill="#27AAE1"/>
<path d="M273.057 133.507L276.487 135.484L270.205 139.113L266.784 137.127L273.057 133.507Z" fill="#27AAE1"/>
<path d="M267.335 140.774L261.053 144.393L257.623 142.416L263.905 138.788L267.335 140.774Z" fill="#27AAE1"/>
<path d="M257.271 146.577L207.463 175.336L204.033 173.359L253.849 144.601L257.271 146.577Z" fill="#27AAE1"/>
<path d="M180.347 156.254L199.194 145.377L202.615 147.354L183.768 158.24L180.347 156.254Z" fill="#27AAE1"/>
<path d="M175.582 159.007L179.012 160.984L160.165 171.87L156.734 169.884L175.582 159.007Z" fill="#27AAE1"/>
<path d="M203.004 177.908L186.82 187.251L183.39 185.274L199.574 175.932L203.004 177.908Z" fill="#27AAE1"/>
<path d="M197.47 158.023L166.825 175.715L163.404 173.738L194.04 156.046L197.47 158.023Z" fill="#27AAE1"/>
<path d="M198.824 153.284L252.973 122.017L256.403 123.993L202.254 155.261L198.824 153.284Z" fill="#27AAE1"/>
<path d="M97.2054 65.6554L101.006 63.48C97.9727 65.2311 97.6477 68.6251 98.7038 71.9648L127.841 164.233C128.672 166.842 131.389 168.846 133.844 168.196C131.947 168.996 129.937 169.495 127.886 169.676C126.709 169.668 125.567 169.277 124.632 168.562C123.697 167.847 123.021 166.847 122.705 165.713L93.8205 74.3568C93.3182 72.7374 93.3794 70.9955 93.9941 69.4152C94.6088 67.835 95.7408 66.5097 97.2054 65.6554V65.6554Z" fill="#67DAFF"/>
<path d="M208.509 219.493C210.14 219.54 211.755 219.17 213.203 218.419L319.047 157.31C319.623 157.037 320.114 156.612 320.467 156.081C320.82 155.549 321.022 154.932 321.051 154.295L321.195 149.141H320.293L320.13 154.313C320.103 154.793 319.943 155.256 319.669 155.651C319.395 156.046 319.018 156.358 318.578 156.552L212.734 217.661C210.224 219.114 205.81 218.915 202.904 217.236L133.4 176.942C132.814 176.604 132.327 176.117 131.988 175.531C131.649 174.945 131.47 174.28 131.469 173.603V169.73H130.566V173.603C130.567 174.439 130.788 175.26 131.206 175.984C131.624 176.708 132.225 177.309 132.949 177.728L202.452 218.022C204.314 219.017 206.398 219.523 208.509 219.493V219.493Z" fill="#081E7A"/>
<path d="M209.114 214.186C210.749 214.234 212.368 213.861 213.817 213.102L319.209 152.111C319.777 151.839 320.26 151.421 320.61 150.898C320.959 150.376 321.161 149.769 321.195 149.141C321.195 147.76 320.193 146.388 318.487 145.386L248.415 104.234C247.627 103.771 246.73 103.526 245.815 103.526C244.901 103.526 244.004 103.771 243.216 104.234L240.86 105.679L131.839 168.674C131.6 168.811 131.403 169.008 131.265 169.246C131.127 169.484 131.055 169.754 131.055 170.028C131.055 170.303 131.127 170.573 131.265 170.81C131.403 171.048 131.6 171.245 131.839 171.382L203.093 212.687C204.941 213.689 207.013 214.204 209.114 214.186ZM245.825 104.469C246.569 104.47 247.301 104.666 247.946 105.038L318.018 146.162C319.48 147.011 320.311 148.094 320.311 149.141C320.271 149.612 320.106 150.063 319.833 150.449C319.56 150.834 319.189 151.14 318.758 151.334L213.365 212.326C210.856 213.77 206.433 213.581 203.509 211.893L132.254 170.597C132.155 170.539 132.073 170.455 132.016 170.356C131.959 170.256 131.929 170.143 131.929 170.028C131.928 169.913 131.957 169.8 132.014 169.7C132.072 169.6 132.154 169.517 132.254 169.46L241.284 106.455L243.658 105.047C244.315 104.663 245.064 104.463 245.825 104.469V104.469Z" fill="#081E7A"/>
<path d="M244.399 187.242C244.999 187.256 245.593 187.116 246.123 186.835L275.838 169.685C276.074 169.571 276.274 169.394 276.417 169.175C276.56 168.955 276.641 168.701 276.65 168.439C276.626 168.114 276.515 167.801 276.327 167.534C276.14 167.267 275.883 167.056 275.585 166.923L258.977 157.337C258.387 157.003 257.726 156.815 257.049 156.79C256.372 156.765 255.699 156.903 255.086 157.193L225.38 174.343C225.142 174.457 224.94 174.635 224.795 174.856C224.65 175.077 224.569 175.333 224.559 175.597C224.584 175.921 224.697 176.232 224.884 176.498C225.072 176.763 225.327 176.973 225.624 177.105L242.233 186.7C242.898 187.059 243.643 187.245 244.399 187.242V187.242ZM245.672 186.05C245.196 186.257 244.679 186.352 244.161 186.327C243.643 186.302 243.137 186.158 242.684 185.906L226.075 176.32C225.696 176.103 225.461 175.814 225.461 175.588C225.461 175.363 225.687 175.2 225.832 175.119L255.538 157.969C256.014 157.764 256.53 157.67 257.048 157.695C257.566 157.72 258.071 157.863 258.525 158.113L275.161 167.699C275.54 167.916 275.775 168.196 275.775 168.43C275.775 168.665 275.549 168.819 275.414 168.9L245.699 186.05H245.672Z" fill="#081E7A"/>
<path d="M187.243 190.753C187.844 190.772 188.438 190.632 188.967 190.347L281.94 136.684C282.175 136.568 282.375 136.39 282.518 136.169C282.661 135.948 282.742 135.693 282.752 135.43C282.723 135.106 282.609 134.796 282.422 134.529C282.235 134.263 281.981 134.051 281.687 133.913L248.822 114.958C248.231 114.628 247.57 114.443 246.894 114.417C246.217 114.392 245.545 114.528 244.931 114.813L151.959 168.485C151.721 168.599 151.518 168.777 151.374 168.998C151.229 169.219 151.147 169.475 151.137 169.739C151.163 170.063 151.275 170.374 151.463 170.639C151.65 170.905 151.906 171.115 152.203 171.247L185.077 190.202C185.739 190.569 186.486 190.759 187.243 190.753ZM246.637 115.301C247.238 115.297 247.831 115.442 248.361 115.725L281.226 134.681C281.606 134.897 281.84 135.177 281.84 135.412C281.84 135.646 281.615 135.8 281.479 135.881L188.507 189.552C188.032 189.757 187.517 189.851 187.001 189.826C186.484 189.801 185.981 189.658 185.528 189.408L152.654 170.452C152.275 170.227 152.04 169.947 152.04 169.721C152.04 169.496 152.266 169.324 152.41 169.243L245.373 115.581C245.764 115.382 246.199 115.286 246.637 115.301V115.301Z" fill="#081E7A"/>
<path d="M207.156 144.998L207.607 144.212L204.899 142.624L246.421 118.641L249.616 120.446L250.067 119.67L246.646 117.693C246.578 117.653 246.5 117.632 246.421 117.632C246.341 117.632 246.264 117.653 246.195 117.693L203.771 142.2C203.703 142.239 203.646 142.296 203.606 142.364C203.567 142.432 203.546 142.509 203.545 142.588C203.546 142.668 203.567 142.746 203.606 142.816C203.646 142.885 203.702 142.943 203.771 142.985L207.156 144.998Z" fill="#081E7A"/>
<path d="M256.305 132.198C256.385 132.201 256.464 132.179 256.531 132.135L263.427 128.182L262.975 127.396L256.341 131.224L253.787 129.743L259.961 126.133L259.509 125.356L252.658 129.31C252.589 129.349 252.531 129.406 252.491 129.475C252.451 129.544 252.429 129.623 252.429 129.703C252.429 129.782 252.451 129.861 252.491 129.93C252.531 129.999 252.589 130.056 252.658 130.095L256.079 132.072C256.139 132.137 256.218 132.181 256.305 132.198V132.198Z" fill="#081E7A"/>
<path d="M173.487 180.011C173.567 180.014 173.646 179.992 173.713 179.948L251.394 135.105C251.464 135.066 251.522 135.008 251.562 134.939C251.602 134.87 251.623 134.792 251.623 134.712C251.623 134.632 251.602 134.554 251.562 134.485C251.522 134.416 251.464 134.359 251.394 134.32L247.964 132.343C247.896 132.303 247.818 132.282 247.739 132.282C247.659 132.282 247.582 132.303 247.513 132.343L169.84 177.195C169.77 177.232 169.712 177.288 169.672 177.357C169.632 177.426 169.612 177.504 169.615 177.583C169.613 177.662 169.634 177.74 169.673 177.809C169.713 177.877 169.771 177.934 169.84 177.971L173.261 179.948C173.329 179.99 173.407 180.012 173.487 180.011V180.011ZM250.266 134.717L173.487 179.037L170.969 177.583L247.739 133.254L250.266 134.717Z" fill="#081E7A"/>
<path d="M192.235 176.952L270.052 132.027C270.122 131.988 270.18 131.93 270.22 131.861C270.26 131.792 270.281 131.714 270.281 131.634C270.281 131.554 270.26 131.476 270.22 131.407C270.18 131.338 270.122 131.281 270.052 131.242L266.622 129.265C266.554 129.225 266.476 129.204 266.397 129.204C266.318 129.204 266.24 129.225 266.171 129.265L188.354 174.198L188.805 174.975L266.433 130.176L268.96 131.639L191.82 176.175L192.235 176.952Z" fill="#081E7A"/>
<path d="M180.157 183.902C180.236 183.902 180.315 183.88 180.382 183.839L186.945 180.048C187.014 180.009 187.072 179.953 187.113 179.885C187.153 179.817 187.175 179.739 187.175 179.659C187.175 179.58 187.153 179.502 187.113 179.434C187.072 179.365 187.014 179.309 186.945 179.271L183.524 177.294C183.455 177.255 183.377 177.234 183.298 177.234C183.219 177.234 183.141 177.255 183.072 177.294L176.501 181.086C176.431 181.124 176.373 181.18 176.333 181.248C176.292 181.316 176.271 181.394 176.271 181.474C176.271 181.553 176.292 181.631 176.333 181.699C176.373 181.768 176.431 181.824 176.501 181.862L179.931 183.839C179.998 183.882 180.077 183.905 180.157 183.902V183.902ZM185.816 179.659L180.157 182.927L177.629 181.474L183.298 178.206L185.816 179.659Z" fill="#081E7A"/>
<path d="M270.205 139.564C270.284 139.561 270.361 139.54 270.43 139.501L276.749 135.89C276.818 135.852 276.876 135.796 276.916 135.728C276.956 135.659 276.976 135.581 276.975 135.502C276.976 135.422 276.955 135.343 276.916 135.273C276.876 135.203 276.818 135.145 276.749 135.105L273.328 133.128C273.259 133.088 273.181 133.068 273.102 133.068C273.023 133.068 272.945 133.088 272.877 133.128L266.558 136.739C266.489 136.778 266.431 136.835 266.391 136.904C266.35 136.973 266.329 137.051 266.329 137.131C266.329 137.211 266.35 137.29 266.391 137.359C266.431 137.428 266.489 137.485 266.558 137.524L269.979 139.501C270.049 139.538 270.126 139.56 270.205 139.564V139.564ZM275.621 135.484L270.205 138.589L267.686 137.127L273.102 134.022L275.621 135.484Z" fill="#081E7A"/>
<path d="M260.827 144.79L261.278 144.005L258.525 142.38L263.941 139.275L267.145 141.126L267.597 140.34L264.167 138.363C264.098 138.324 264.02 138.303 263.941 138.303C263.862 138.303 263.784 138.324 263.715 138.363L257.397 141.974C257.329 142.013 257.272 142.07 257.232 142.138C257.193 142.206 257.172 142.283 257.171 142.362C257.171 142.441 257.191 142.519 257.231 142.587C257.271 142.655 257.328 142.712 257.397 142.75L260.827 144.79Z" fill="#081E7A"/>
<path d="M207.463 175.778C207.543 175.78 207.621 175.758 207.688 175.715L257.496 146.966C257.566 146.928 257.624 146.871 257.665 146.803C257.705 146.735 257.727 146.657 257.727 146.577C257.727 146.498 257.705 146.42 257.665 146.352C257.624 146.284 257.566 146.227 257.496 146.189L254.075 144.185C254.007 144.146 253.929 144.125 253.85 144.125C253.77 144.125 253.693 144.146 253.624 144.185L203.807 172.935C203.739 172.976 203.682 173.034 203.643 173.104C203.603 173.173 203.582 173.252 203.581 173.332C203.582 173.411 203.603 173.488 203.643 173.556C203.682 173.624 203.739 173.681 203.807 173.72L207.237 175.697C207.302 175.746 207.381 175.774 207.463 175.778V175.778ZM256.368 146.577L207.463 174.812L204.935 173.359L253.85 145.088L256.368 146.577Z" fill="#081E7A"/>
<path d="M183.995 158.628L202.851 147.742C202.921 147.704 202.979 147.648 203.019 147.579C203.06 147.511 203.081 147.433 203.081 147.354C203.081 147.274 203.06 147.196 203.019 147.128C202.979 147.06 202.921 147.004 202.851 146.966L199.421 144.989C199.352 144.949 199.274 144.928 199.195 144.928C199.116 144.928 199.038 144.949 198.969 144.989L180.122 155.866L180.574 156.651L199.195 145.9L201.723 147.354L183.543 157.842L183.995 158.628Z" fill="#081E7A"/>
<path d="M160.164 172.321C160.243 172.317 160.32 172.295 160.389 172.258L179.237 161.336C179.306 161.298 179.364 161.242 179.405 161.173C179.445 161.105 179.467 161.027 179.467 160.948C179.467 160.868 179.445 160.79 179.405 160.722C179.364 160.654 179.306 160.598 179.237 160.559L175.807 158.583C175.738 158.543 175.66 158.522 175.581 158.522C175.502 158.522 175.424 158.543 175.355 158.583L156.508 169.414C156.439 169.454 156.381 169.511 156.341 169.58C156.3 169.649 156.279 169.727 156.279 169.807C156.279 169.887 156.3 169.965 156.341 170.034C156.381 170.103 156.439 170.16 156.508 170.2L159.938 172.177C159.999 172.244 160.077 172.294 160.164 172.321V172.321ZM178.108 160.984L160.164 171.346L157.636 169.884L175.581 159.53L178.108 160.984Z" fill="#081E7A"/>
<path d="M186.82 187.702C186.899 187.701 186.976 187.683 187.046 187.648L203.23 178.305C203.299 178.264 203.355 178.206 203.395 178.136C203.434 178.067 203.455 177.988 203.456 177.908C203.456 177.83 203.435 177.752 203.395 177.684C203.355 177.616 203.299 177.56 203.23 177.52L199.8 175.543C199.732 175.504 199.654 175.483 199.575 175.483C199.495 175.483 199.418 175.504 199.349 175.543L183.165 184.886C183.096 184.925 183.04 184.982 183 185.05C182.961 185.118 182.939 185.195 182.939 185.274C182.939 185.353 182.959 185.43 182.999 185.499C183.039 185.567 183.096 185.623 183.165 185.662L186.595 187.648C186.664 187.685 186.742 187.704 186.82 187.702V187.702ZM202.102 177.908L186.82 186.736L184.293 185.274L199.575 176.455L202.102 177.908Z" fill="#081E7A"/>
<path d="M166.601 176.103L167.052 175.327L164.344 173.738L194.086 156.588L197.291 158.393L197.742 157.617L194.312 155.631C194.244 155.591 194.166 155.571 194.086 155.571C194.007 155.571 193.929 155.591 193.861 155.631L163.216 173.323C163.147 173.362 163.089 173.419 163.049 173.488C163.008 173.557 162.987 173.636 162.987 173.716C162.987 173.795 163.008 173.874 163.049 173.943C163.089 174.012 163.147 174.069 163.216 174.108L166.601 176.103Z" fill="#081E7A"/>
<path d="M202.254 155.712C202.334 155.713 202.412 155.691 202.48 155.649L256.639 124.39C256.707 124.349 256.764 124.291 256.803 124.221C256.842 124.152 256.864 124.073 256.864 123.993C256.864 123.915 256.843 123.837 256.803 123.769C256.764 123.701 256.707 123.645 256.639 123.605L253.209 121.628C253.14 121.589 253.062 121.568 252.983 121.568C252.904 121.568 252.826 121.589 252.757 121.628L198.599 152.896C198.528 152.933 198.47 152.989 198.43 153.058C198.39 153.126 198.37 153.205 198.373 153.284C198.371 153.363 198.392 153.441 198.432 153.51C198.471 153.578 198.529 153.634 198.599 153.672L202.047 155.649C202.108 155.689 202.18 155.711 202.254 155.712V155.712ZM255.51 123.993L202.254 154.737L199.727 153.284L252.974 122.522L255.51 123.993Z" fill="#081E7A"/>
<path d="M127.867 170.696V169.793C126.794 169.744 125.762 169.368 124.91 168.714C124.058 168.06 123.427 167.161 123.101 166.138L94.2166 74.7901C93.725 73.2577 93.7761 71.6026 94.3613 70.1034C94.9465 68.6041 96.0302 67.3522 97.43 66.558L104.561 62.8482L104.146 62.0538L96.9877 65.7727C95.4128 66.6729 94.1948 68.0866 93.5375 69.7774C92.8803 71.4682 92.8236 73.3334 93.3771 75.0609L122.262 166.418C122.646 167.618 123.39 168.672 124.392 169.437C125.395 170.202 126.607 170.642 127.867 170.696V170.696Z" fill="#081E7A"/>
<path d="M132.344 168.476C133.419 168.472 134.474 168.186 135.404 167.645L134.943 166.86C134.313 167.238 133.606 167.472 132.873 167.544C132.141 167.616 131.402 167.524 130.71 167.275C130.131 167.056 129.61 166.707 129.187 166.255C128.765 165.803 128.452 165.259 128.273 164.666L99.1446 72.344C98.6587 70.8208 98.71 69.177 99.2899 67.687C99.8698 66.1971 100.943 64.9511 102.331 64.157L209.601 2.1273C210.141 1.81591 210.744 1.6292 211.365 1.58085C211.986 1.5325 212.611 1.62373 213.192 1.84787C213.774 2.072 214.298 2.42336 214.726 2.87622C215.154 3.32908 215.476 3.87198 215.667 4.46515L245.156 96.1919C245.682 97.8496 245.629 99.6368 245.006 101.26C244.382 102.884 243.226 104.248 241.726 105.128L242.178 105.904C243.854 104.919 245.147 103.395 245.844 101.579C246.541 99.764 246.601 97.7659 246.014 95.912L216.488 4.19436C216.256 3.47732 215.867 2.82106 215.349 2.27329C214.831 1.72552 214.198 1.30001 213.495 1.0277C212.792 0.755388 212.038 0.643115 211.286 0.699044C210.534 0.754973 209.805 0.977698 209.15 1.35103L101.853 63.3808C100.282 64.2713 99.0656 65.6753 98.4081 67.3569C97.7506 69.0384 97.6919 70.8951 98.2419 72.6148L127.415 164.946C127.633 165.668 128.014 166.331 128.529 166.882C129.044 167.433 129.679 167.858 130.385 168.124C131.011 168.361 131.675 168.48 132.344 168.476V168.476Z" fill="#081E7A"/>
<path d="M134.348 159.666C134.767 159.665 135.178 159.553 135.54 159.341L238.215 99.658C238.987 99.2014 239.579 98.4958 239.896 97.6575C240.213 96.8191 240.234 95.8979 239.958 95.0455L212.246 10.4767C212.111 10.0663 211.886 9.69121 211.588 9.37873C211.289 9.06624 210.925 8.82424 210.521 8.67033C210.117 8.51643 209.684 8.45449 209.253 8.48904C208.823 8.52358 208.405 8.65374 208.031 8.87003L144.377 45.6708L144.828 46.4561L208.482 9.69144C208.74 9.54059 209.028 9.44954 209.326 9.42498C209.624 9.40042 209.923 9.44299 210.202 9.54955C210.481 9.65611 210.732 9.82394 210.938 10.0407C211.143 10.2574 211.297 10.5174 211.389 10.8017L239.109 95.3253C239.322 95.9814 239.304 96.6904 239.06 97.3352C238.815 97.9801 238.358 98.5224 237.764 98.8727L135.079 158.565C134.89 158.675 134.678 158.742 134.459 158.759C134.24 158.776 134.02 158.744 133.816 158.664C133.607 158.59 133.418 158.471 133.262 158.315C133.106 158.159 132.987 157.969 132.913 157.761L105.274 71.8836C105.082 71.2715 105.103 70.6123 105.334 70.0138C105.566 69.4154 105.993 68.913 106.547 68.589L131.676 54.0564L131.225 53.2801L106.095 67.8037C105.362 68.2315 104.796 68.8964 104.491 69.6889C104.185 70.4813 104.159 71.3541 104.416 72.1634L132.055 158.041C132.161 158.377 132.341 158.686 132.581 158.944C132.822 159.201 133.117 159.402 133.446 159.53C133.736 159.629 134.042 159.675 134.348 159.666V159.666Z" fill="#081E7A"/>
</svg>