<svg width="314" height="314" viewBox="0 0 314 314" fill="none" xmlns="http://www.w3.org/2000/svg">
<g clip-path="url(#clip0_1_179)">
<path d="M300 22.647H14C6.26801 22.647 0 28.915 0 36.647V299.559C0 307.291 6.26801 313.559 14 313.559H300C307.732 313.559 314 307.291 314 299.559V36.647C314 28.915 307.732 22.647 300 22.647Z" fill="#797EF6"/>
</g>
<path opacity="0.08" d="M149.7 246.338L68.3027 199.157C68.1121 199.044 67.9543 198.883 67.8447 198.69C67.735 198.498 67.6774 198.28 67.6774 198.058C67.6774 197.836 67.735 197.618 67.8447 197.425C67.9543 197.233 68.1121 197.072 68.3027 196.958L192.843 124.987L195.552 123.378C196.375 122.897 197.312 122.643 198.265 122.643C199.219 122.643 200.156 122.897 200.979 123.378L281.827 170.049C285.305 172.048 285.685 175.107 282.666 176.846L161.475 246.818C158.456 248.568 153.179 248.348 149.7 246.338Z" fill="black"/>
<path d="M34.6563 72.5287L158.876 1.16748C159.538 0.784575 160.277 0.554829 161.04 0.495121C161.802 0.435413 162.568 0.547262 163.281 0.822448C163.995 1.09763 164.637 1.52916 165.162 2.08533C165.687 2.64149 166.08 3.30815 166.313 4.03632L198.97 105.605C199.535 107.349 199.55 109.224 199.014 110.976C198.477 112.728 197.415 114.273 195.971 115.401L196.601 115.142C197.398 114.673 198.306 114.426 199.23 114.426C200.154 114.426 201.062 114.673 201.859 115.142L279.708 160.673C281.457 161.673 282.387 162.952 282.487 164.182V170.119C282.45 170.739 282.244 171.337 281.892 171.848C281.539 172.359 281.054 172.764 280.487 173.018L163.275 240.691C160.356 242.37 155.278 242.16 151.889 240.211L74.92 195.599C74.1936 195.18 73.5904 194.577 73.171 193.85C72.7516 193.124 72.5309 192.3 72.531 191.461V185.043C71.22 185.394 69.8829 185.638 68.5326 185.773C66.0036 185.663 63.6246 186.023 62.7949 183.384L30.8078 82.2148C30.2476 80.4035 30.3238 78.4551 31.0239 76.6931C31.7239 74.9311 33.0057 73.4616 34.6563 72.5287Z" fill="#E3FFFF"/>
<path d="M44.803 74.748L157.638 9.49427C157.99 9.28351 158.386 9.15512 158.795 9.11867C159.205 9.08222 159.617 9.13866 160.001 9.28377C160.386 9.42888 160.732 9.65891 161.015 9.95672C161.298 10.2545 161.511 10.6124 161.636 11.0037L192.284 104.656C192.555 105.492 192.532 106.396 192.219 107.218C191.907 108.039 191.323 108.73 190.564 109.174L76.8501 175.268C76.5756 175.428 76.2686 175.524 75.9518 175.55C75.6349 175.575 75.3164 175.529 75.0198 175.415C74.7232 175.301 74.4561 175.121 74.2382 174.89C74.0204 174.659 73.8574 174.381 73.7613 174.078L43.1537 78.9463C42.9089 78.1633 42.9389 77.3202 43.2389 76.5567C43.5389 75.7931 44.0907 75.155 44.803 74.748Z" fill="white"/>
<path d="M169.972 130.445L173.14 132.344C174.27 132.994 174.39 133.974 173.41 134.544L118.122 166.461C117.519 166.733 116.86 166.86 116.199 166.832C115.538 166.804 114.892 166.622 114.314 166.301L111.155 164.412L169.972 130.445Z" fill="#67DAFF"/>
<path d="M73.2202 188.592L152.129 234.333C155.507 236.333 160.615 236.493 163.544 234.803L280.567 167.26C281.168 167.004 281.68 166.574 282.036 166.026C282.392 165.478 282.577 164.835 282.566 164.182V170.119C282.529 170.739 282.324 171.337 281.971 171.848C281.619 172.359 281.133 172.764 280.567 173.018L163.354 240.691C160.435 242.37 155.357 242.16 151.969 240.211L74.9995 195.599C74.2731 195.18 73.6699 194.576 73.2505 193.85C72.8311 193.123 72.6104 192.299 72.6105 191.461V187.632C72.6257 187.83 72.6893 188.021 72.7956 188.188C72.9019 188.355 73.0477 188.494 73.2202 188.592Z" fill="#67DAFF"/>
<path d="M199.321 205.705L232.228 186.713C233.227 186.153 233.077 185.163 231.948 184.513L213.555 173.908C212.977 173.586 212.331 173.404 211.67 173.377C211.009 173.349 210.35 173.476 209.747 173.748L176.85 192.74C175.85 193.31 175.99 194.29 177.12 194.939L195.513 205.565C196.092 205.886 196.738 206.065 197.4 206.09C198.062 206.114 198.72 205.982 199.321 205.705Z" fill="white"/>
<path d="M136.025 209.603L238.984 150.167C239.983 149.608 239.833 148.628 238.704 147.978L202.308 126.987C201.73 126.665 201.084 126.483 200.423 126.456C199.762 126.428 199.103 126.555 198.5 126.827L95.5413 186.263C94.5417 186.823 94.6816 187.812 95.8112 188.462L132.217 209.453C132.795 209.777 133.441 209.959 134.103 209.985C134.765 210.012 135.423 209.881 136.025 209.603Z" fill="#67DAFF"/>
<path d="M152.869 157.185L199.89 130.046L203.679 132.235L156.668 159.384L152.869 157.185Z" fill="#27AAE1"/>
<path d="M207.057 142.95L214.644 138.562L218.443 140.751L210.846 145.139L207.057 142.95Z" fill="#27AAE1"/>
<path d="M205.158 148.418L119.133 198.088L115.345 195.899L201.36 146.229L205.158 148.418Z" fill="#27AAE1"/>
<path d="M135.846 192.58L222.021 142.82L225.82 145.009L139.634 194.769L135.846 192.58Z" fill="#27AAE1"/>
<path d="M133.787 198.148L126.519 202.346L122.721 200.157L129.988 195.959L133.787 198.148Z" fill="#27AAE1"/>
<path d="M229.398 147.089L233.196 149.278L226.239 153.296L222.45 151.097L229.398 147.089Z" fill="#27AAE1"/>
<path d="M223.061 155.135L216.104 159.144L212.305 156.955L219.262 152.936L223.061 155.135Z" fill="#27AAE1"/>
<path d="M211.915 161.563L156.757 193.41L152.959 191.221L208.127 159.374L211.915 161.563Z" fill="#27AAE1"/>
<path d="M126.729 172.278L147.601 160.233L151.389 162.422L130.518 174.478L126.729 172.278Z" fill="#27AAE1"/>
<path d="M121.452 175.327L125.251 177.516L104.379 189.571L100.581 187.372L121.452 175.327Z" fill="#27AAE1"/>
<path d="M151.82 196.259L133.897 206.605L130.099 204.416L148.021 194.07L151.82 196.259Z" fill="#27AAE1"/>
<path d="M145.691 174.238L111.755 193.83L107.966 191.641L141.893 172.048L145.691 174.238Z" fill="#27AAE1"/>
<path d="M147.19 168.99L207.156 134.364L210.955 136.553L150.989 171.179L147.19 168.99Z" fill="#27AAE1"/>
<path d="M34.6574 71.9488L38.8657 69.5398C35.5071 71.479 35.1472 75.2375 36.3168 78.936L68.5837 181.115C69.5033 184.004 72.5121 186.223 75.2311 185.503C73.1306 186.389 70.9047 186.942 68.6337 187.142C67.3304 187.134 66.0654 186.701 65.0301 185.909C63.9949 185.117 63.2457 184.01 62.896 182.754L30.9089 81.5849C30.3527 79.7915 30.4204 77.8625 31.1012 76.1126C31.7819 74.3626 33.0355 72.8949 34.6574 71.9488Z" fill="#67DAFF"/>
<path d="M157.916 242.31C159.722 242.362 161.511 241.953 163.114 241.121L280.327 173.448C280.965 173.146 281.509 172.675 281.9 172.087C282.291 171.499 282.514 170.815 282.546 170.11L282.706 164.402H281.706L281.526 170.13C281.496 170.661 281.32 171.174 281.016 171.611C280.713 172.049 280.294 172.394 279.807 172.609L162.594 240.281C159.815 241.891 154.927 241.671 151.709 239.811L74.7396 195.189C74.0902 194.815 73.5508 194.275 73.1753 193.626C72.7999 192.977 72.6017 192.241 72.6005 191.491V187.203H71.6009V191.491C71.6024 192.417 71.8469 193.326 72.31 194.128C72.7731 194.929 73.4386 195.595 74.2398 196.059L151.209 240.681C153.271 241.783 155.579 242.344 157.916 242.31Z" fill="#081E7A"/>
<path d="M158.586 236.433C160.396 236.486 162.19 236.073 163.794 235.233L280.507 167.69C281.135 167.39 281.67 166.926 282.057 166.347C282.444 165.769 282.668 165.097 282.706 164.402C282.706 162.872 281.596 161.353 279.707 160.243L202.108 114.672C201.236 114.158 200.242 113.888 199.23 113.888C198.217 113.888 197.223 114.158 196.351 114.672L193.742 116.271L73.0103 186.033C72.7466 186.184 72.5275 186.403 72.3752 186.666C72.2228 186.929 72.1426 187.228 72.1426 187.532C72.1426 187.836 72.2228 188.135 72.3752 188.399C72.5275 188.662 72.7466 188.88 73.0103 189.032L151.919 234.773C153.965 235.882 156.259 236.453 158.586 236.433ZM199.24 114.932C200.064 114.932 200.874 115.149 201.589 115.561L279.187 161.103C280.807 162.043 281.726 163.242 281.726 164.402C281.682 164.923 281.499 165.423 281.197 165.85C280.895 166.277 280.484 166.615 280.007 166.831L163.294 234.373C160.515 235.973 155.617 235.763 152.378 233.894L73.4702 188.162C73.3605 188.098 73.2696 188.006 73.2065 187.895C73.1433 187.785 73.1102 187.66 73.1103 187.532C73.1092 187.405 73.1419 187.279 73.2051 187.169C73.2683 187.058 73.3598 186.966 73.4702 186.903L194.212 117.131L196.841 115.571C197.568 115.146 198.397 114.925 199.24 114.932Z" fill="#081E7A"/>
<path d="M197.661 206.595C198.325 206.611 198.983 206.456 199.57 206.145L232.477 187.153C232.738 187.026 232.96 186.831 233.118 186.588C233.277 186.345 233.366 186.063 233.377 185.773C233.35 185.413 233.227 185.066 233.019 184.771C232.811 184.475 232.527 184.241 232.197 184.094L213.805 173.478C213.152 173.108 212.42 172.9 211.67 172.872C210.92 172.844 210.175 172.997 209.496 173.318L176.6 192.311C176.336 192.438 176.112 192.634 175.952 192.879C175.791 193.124 175.701 193.408 175.69 193.7C175.718 194.059 175.843 194.403 176.05 194.697C176.258 194.991 176.541 195.223 176.869 195.369L195.262 205.995C195.999 206.393 196.824 206.599 197.661 206.595ZM199.07 205.275C198.544 205.505 197.971 205.61 197.397 205.582C196.824 205.554 196.264 205.394 195.762 205.115L177.369 194.5C176.949 194.26 176.689 193.94 176.689 193.69C176.689 193.44 176.939 193.26 177.099 193.17L209.996 174.178C210.523 173.951 211.096 173.847 211.669 173.875C212.242 173.902 212.802 174.061 213.305 174.338L231.727 184.953C232.147 185.193 232.407 185.503 232.407 185.763C232.407 186.023 232.157 186.193 232.007 186.283L199.1 205.275H199.07Z" fill="#081E7A"/>
<path d="M134.366 210.483C135.031 210.504 135.69 210.349 136.275 210.033L239.234 150.607C239.495 150.478 239.716 150.281 239.875 150.036C240.033 149.792 240.123 149.509 240.134 149.218C240.101 148.859 239.975 148.515 239.768 148.221C239.561 147.926 239.28 147.691 238.954 147.538L202.559 126.547C201.904 126.181 201.173 125.976 200.424 125.949C199.675 125.921 198.93 126.071 198.25 126.387L95.2918 185.823C95.0282 185.95 94.8042 186.147 94.644 186.391C94.4837 186.636 94.3932 186.92 94.3822 187.213C94.4104 187.571 94.5349 187.916 94.7425 188.209C94.9501 188.503 95.2331 188.735 95.5617 188.882L131.967 209.873C132.701 210.28 133.527 210.49 134.366 210.483ZM200.14 126.927C200.805 126.922 201.462 127.084 202.049 127.397L238.444 148.388C238.864 148.628 239.124 148.938 239.124 149.198C239.124 149.458 238.874 149.628 238.724 149.718L135.766 209.154C135.24 209.381 134.67 209.484 134.098 209.457C133.526 209.429 132.968 209.271 132.467 208.994L96.0615 188.002C95.6417 187.752 95.3818 187.442 95.3818 187.193C95.3818 186.943 95.6317 186.753 95.7916 186.663L198.74 127.237C199.173 127.017 199.655 126.91 200.14 126.927Z" fill="#081E7A"/>
<path d="M156.418 159.813L156.917 158.944L153.919 157.184L199.9 130.625L203.439 132.624L203.938 131.765L200.15 129.576C200.074 129.532 199.988 129.509 199.9 129.509C199.812 129.509 199.726 129.532 199.65 129.576L152.669 156.715C152.594 156.758 152.531 156.821 152.487 156.896C152.443 156.972 152.42 157.057 152.419 157.144C152.42 157.233 152.443 157.32 152.487 157.397C152.531 157.474 152.593 157.538 152.669 157.584L156.418 159.813Z" fill="#081E7A"/>
<path d="M210.846 145.639C210.934 145.642 211.022 145.618 211.096 145.569L218.733 141.191L218.233 140.321L210.886 144.56L208.057 142.92L214.894 138.922L214.394 138.062L206.807 142.44C206.73 142.484 206.667 142.547 206.622 142.624C206.577 142.7 206.554 142.787 206.554 142.875C206.554 142.964 206.577 143.051 206.622 143.127C206.667 143.203 206.73 143.267 206.807 143.31L210.596 145.499C210.663 145.571 210.75 145.62 210.846 145.639Z" fill="#081E7A"/>
<path d="M119.133 198.588C119.221 198.591 119.308 198.566 119.383 198.518L205.408 148.858C205.485 148.814 205.549 148.751 205.593 148.675C205.638 148.598 205.661 148.511 205.661 148.423C205.661 148.335 205.638 148.248 205.593 148.171C205.549 148.095 205.485 148.032 205.408 147.988L201.609 145.799C201.534 145.755 201.447 145.732 201.36 145.732C201.272 145.732 201.186 145.755 201.11 145.799L115.094 195.469C115.017 195.51 114.952 195.572 114.908 195.648C114.864 195.724 114.842 195.811 114.844 195.899C114.843 195.987 114.865 196.073 114.909 196.149C114.953 196.225 115.017 196.287 115.094 196.329L118.883 198.518C118.958 198.564 119.044 198.588 119.133 198.588ZM204.158 148.428L119.133 197.508L116.344 195.899L201.36 146.809L204.158 148.428Z" fill="#081E7A"/>
<path d="M139.895 195.199L226.07 145.449C226.147 145.406 226.211 145.343 226.255 145.266C226.3 145.19 226.323 145.103 226.323 145.015C226.323 144.926 226.3 144.839 226.255 144.763C226.211 144.686 226.147 144.623 226.07 144.58L222.272 142.391C222.196 142.347 222.109 142.324 222.022 142.324C221.934 142.324 221.848 142.347 221.772 142.391L135.596 192.151L136.096 193.01L222.062 143.4L224.861 145.02L139.435 194.34L139.895 195.199Z" fill="#081E7A"/>
<path d="M126.519 202.896C126.607 202.897 126.693 202.872 126.768 202.826L134.036 198.628C134.113 198.586 134.177 198.523 134.222 198.448C134.267 198.372 134.29 198.286 134.29 198.198C134.29 198.11 134.267 198.024 134.222 197.948C134.177 197.872 134.113 197.81 134.036 197.768L130.247 195.579C130.171 195.535 130.085 195.512 129.997 195.512C129.909 195.512 129.823 195.535 129.747 195.579L122.47 199.777C122.393 199.82 122.329 199.882 122.284 199.957C122.239 200.033 122.215 200.119 122.215 200.207C122.215 200.295 122.239 200.381 122.284 200.457C122.329 200.533 122.393 200.595 122.47 200.637L126.269 202.826C126.343 202.875 126.43 202.899 126.519 202.896ZM132.786 198.198L126.519 201.817L123.72 200.207L129.997 196.589L132.786 198.198Z" fill="#081E7A"/>
<path d="M226.239 153.796C226.326 153.793 226.412 153.769 226.489 153.726L233.486 149.728C233.563 149.686 233.627 149.623 233.671 149.548C233.715 149.472 233.737 149.385 233.736 149.298C233.737 149.209 233.714 149.121 233.67 149.044C233.626 148.967 233.563 148.902 233.486 148.858L229.697 146.669C229.621 146.625 229.535 146.602 229.447 146.602C229.36 146.602 229.273 146.625 229.197 146.669L222.2 150.667C222.123 150.711 222.059 150.774 222.015 150.85C221.97 150.927 221.947 151.014 221.947 151.102C221.947 151.191 221.97 151.277 222.015 151.354C222.059 151.43 222.123 151.493 222.2 151.537L225.989 153.726C226.066 153.768 226.151 153.792 226.239 153.796ZM232.236 149.278L226.239 152.716L223.45 151.097L229.447 147.658L232.236 149.278Z" fill="#081E7A"/>
<path d="M215.854 159.584L216.353 158.714L213.305 156.915L219.302 153.476L222.851 155.525L223.351 154.656L219.552 152.466C219.476 152.423 219.39 152.4 219.302 152.4C219.214 152.4 219.128 152.423 219.052 152.466L212.055 156.465C211.98 156.508 211.917 156.571 211.873 156.647C211.829 156.722 211.806 156.807 211.805 156.895C211.805 156.982 211.828 157.068 211.872 157.144C211.915 157.219 211.979 157.282 212.055 157.325L215.854 159.584Z" fill="#081E7A"/>
<path d="M156.758 193.9C156.846 193.901 156.933 193.877 157.008 193.83L212.165 161.993C212.243 161.95 212.307 161.888 212.352 161.813C212.397 161.737 212.42 161.651 212.42 161.563C212.42 161.475 212.397 161.388 212.352 161.313C212.307 161.237 212.243 161.175 212.165 161.133L208.377 158.914C208.301 158.87 208.215 158.847 208.127 158.847C208.039 158.847 207.953 158.87 207.877 158.914L152.709 190.751C152.634 190.797 152.571 190.861 152.527 190.938C152.484 191.015 152.46 191.102 152.459 191.191C152.46 191.278 152.483 191.364 152.527 191.439C152.571 191.514 152.634 191.577 152.709 191.621L156.508 193.81C156.58 193.864 156.667 193.896 156.758 193.9ZM210.916 161.563L156.758 192.83L153.959 191.221L208.127 159.913L210.916 161.563Z" fill="#081E7A"/>
<path d="M130.769 174.907L151.65 162.852C151.727 162.81 151.792 162.748 151.837 162.672C151.882 162.596 151.905 162.51 151.905 162.422C151.905 162.334 151.882 162.248 151.837 162.172C151.792 162.097 151.727 162.035 151.65 161.992L147.852 159.803C147.776 159.759 147.69 159.736 147.602 159.736C147.514 159.736 147.428 159.759 147.352 159.803L126.48 171.848L126.98 172.718L147.602 160.813L150.401 162.422L130.269 174.038L130.769 174.907Z" fill="#081E7A"/>
<path d="M104.378 190.071C104.466 190.067 104.551 190.043 104.628 190.001L125.5 177.906C125.577 177.864 125.641 177.802 125.686 177.726C125.731 177.651 125.755 177.564 125.755 177.476C125.755 177.388 125.731 177.302 125.686 177.226C125.641 177.151 125.577 177.089 125.5 177.046L121.701 174.857C121.625 174.813 121.539 174.79 121.451 174.79C121.363 174.79 121.277 174.813 121.201 174.857L100.33 186.853C100.253 186.896 100.189 186.959 100.144 187.036C100.1 187.112 100.076 187.199 100.076 187.287C100.076 187.376 100.1 187.463 100.144 187.539C100.189 187.615 100.253 187.679 100.33 187.722L104.128 189.911C104.195 189.987 104.282 190.042 104.378 190.071ZM124.25 177.516L104.378 188.992L101.579 187.372L121.451 175.907L124.25 177.516Z" fill="#081E7A"/>
<path d="M133.898 207.105C133.985 207.104 134.07 207.083 134.148 207.045L152.071 196.699C152.146 196.653 152.209 196.588 152.253 196.511C152.296 196.434 152.32 196.347 152.321 196.259C152.32 196.172 152.297 196.086 152.253 196.011C152.209 195.935 152.146 195.873 152.071 195.829L148.272 193.64C148.196 193.596 148.11 193.573 148.022 193.573C147.935 193.573 147.848 193.596 147.772 193.64L129.85 203.986C129.774 204.029 129.711 204.092 129.667 204.167C129.624 204.243 129.6 204.328 129.6 204.416C129.599 204.503 129.622 204.589 129.666 204.665C129.71 204.74 129.773 204.803 129.85 204.845L133.648 207.045C133.725 207.086 133.811 207.106 133.898 207.105ZM150.821 196.259L133.898 206.035L131.099 204.416L148.022 194.65L150.821 196.259Z" fill="#081E7A"/>
<path d="M111.507 194.26L112.007 193.4L109.008 191.641L141.944 172.648L145.493 174.648L145.993 173.788L142.194 171.589C142.118 171.545 142.032 171.522 141.944 171.522C141.857 171.522 141.771 171.545 141.695 171.589L107.758 191.181C107.681 191.225 107.617 191.288 107.573 191.364C107.528 191.441 107.505 191.527 107.505 191.616C107.505 191.704 107.528 191.791 107.573 191.867C107.617 191.944 107.681 192.007 107.758 192.051L111.507 194.26Z" fill="#081E7A"/>
<path d="M150.99 171.679C151.078 171.679 151.164 171.655 151.24 171.609L211.215 136.993C211.291 136.947 211.354 136.882 211.397 136.805C211.441 136.728 211.465 136.641 211.465 136.553C211.465 136.466 211.441 136.38 211.398 136.305C211.354 136.229 211.291 136.167 211.215 136.123L207.417 133.934C207.341 133.89 207.255 133.867 207.167 133.867C207.079 133.867 206.993 133.89 206.917 133.934L146.941 168.56C146.864 168.601 146.799 168.663 146.755 168.739C146.711 168.815 146.689 168.902 146.691 168.99C146.69 169.077 146.712 169.164 146.756 169.24C146.8 169.315 146.864 169.378 146.941 169.42L150.76 171.609C150.828 171.653 150.908 171.678 150.99 171.679ZM209.966 136.553L150.99 170.599L148.191 168.99L207.157 134.924L209.966 136.553Z" fill="#081E7A"/>
<path d="M68.6126 188.272V187.272C67.4246 187.218 66.2817 186.801 65.338 186.077C64.3944 185.353 63.6952 184.357 63.3348 183.224L31.3477 82.0645C30.8032 80.3674 30.8598 78.5346 31.5079 76.8744C32.156 75.2141 33.356 73.8276 34.9062 72.9482L42.803 68.8398L42.3432 67.9602L34.4164 72.0785C32.6723 73.0754 31.3235 74.641 30.5956 76.5134C29.8678 78.3858 29.8051 80.4513 30.418 82.3644L62.4051 183.534C62.8311 184.863 63.6546 186.031 64.7646 186.878C65.8745 187.725 67.2176 188.212 68.6126 188.272Z" fill="#081E7A"/>
<path d="M73.5699 185.813C74.7606 185.809 75.9294 185.492 76.9585 184.893L76.4487 184.024C75.7502 184.443 74.9672 184.702 74.1564 184.781C73.3456 184.861 72.5273 184.759 71.7606 184.484C71.1193 184.241 70.5423 183.855 70.0743 183.354C69.6063 182.853 69.2598 182.251 69.0617 181.595L36.8047 79.3559C36.2667 77.669 36.3235 75.8487 36.9657 74.1987C37.6079 72.5487 38.7965 71.1688 40.3333 70.2895L159.126 1.59715C159.723 1.25231 160.391 1.04555 161.079 0.992007C161.767 0.938463 162.458 1.0395 163.102 1.2877C163.746 1.53591 164.327 1.92502 164.801 2.42652C165.275 2.92802 165.631 3.52923 165.843 4.18611L198.5 105.765C199.082 107.601 199.023 109.58 198.333 111.378C197.643 113.176 196.362 114.686 194.701 115.661L195.201 116.521C197.058 115.43 198.489 113.742 199.261 111.731C200.033 109.721 200.099 107.508 199.449 105.455L166.752 3.88623C166.495 3.09218 166.064 2.36543 165.491 1.75882C164.917 1.15222 164.216 0.681007 163.438 0.379445C162.66 0.0778837 161.824 -0.0464487 160.991 0.0154877C160.159 0.077424 159.351 0.324072 158.626 0.737501L39.8035 69.4298C38.0642 70.4161 36.7173 71.9709 35.9892 73.8331C35.2611 75.6952 35.1961 77.7513 35.8051 79.6557L68.1121 181.905C68.3532 182.704 68.7753 183.438 69.3456 184.048C69.916 184.658 70.6192 185.129 71.4008 185.423C72.0935 185.686 72.829 185.818 73.5699 185.813Z" fill="#081E7A"/>
<path d="M75.7894 176.057C76.2534 176.056 76.7087 175.932 77.1089 175.697L190.813 109.604C191.667 109.098 192.324 108.317 192.674 107.388C193.025 106.46 193.049 105.44 192.742 104.496L162.055 10.8436C161.905 10.3891 161.656 9.97368 161.325 9.62763C160.995 9.28158 160.591 9.01359 160.144 8.84315C159.697 8.67271 159.217 8.60413 158.74 8.64238C158.263 8.68064 157.801 8.82477 157.387 9.0643L86.895 49.8179L87.3948 50.6875L157.886 9.97393C158.172 9.80688 158.491 9.70605 158.821 9.67885C159.15 9.65166 159.482 9.6988 159.791 9.8168C160.1 9.93481 160.378 10.1207 160.606 10.3607C160.833 10.6006 161.004 10.8887 161.105 11.2034L191.803 104.806C192.038 105.532 192.019 106.317 191.748 107.032C191.477 107.746 190.971 108.346 190.313 108.734L76.5991 174.838C76.3893 174.96 76.1544 175.034 75.912 175.053C75.6696 175.072 75.4261 175.036 75.1997 174.947C74.969 174.866 74.7596 174.734 74.5866 174.561C74.4136 174.388 74.2816 174.179 74.2001 173.948L43.5924 78.8462C43.3797 78.1683 43.4033 77.4383 43.6593 76.7756C43.9153 76.1128 44.3887 75.5565 45.0018 75.1977L72.8306 59.1041L72.3308 58.2445L44.502 74.328C43.6897 74.8018 43.0629 75.5381 42.7249 76.4157C42.387 77.2933 42.358 78.2598 42.6428 79.1561L73.2505 174.258C73.3673 174.63 73.5662 174.972 73.8327 175.257C74.0991 175.543 74.4262 175.765 74.7899 175.907C75.1114 176.016 75.45 176.067 75.7894 176.057Z" fill="#081E7A"/>
<defs>
<clipPath id="clip0_1_179">
<rect width="314" height="292" fill="white" transform="translate(0 22)"/>
</clipPath>
</defs>
</svg>
