<svg width="223" height="432" viewBox="0 0 223 432" fill="none" xmlns="http://www.w3.org/2000/svg">
<path opacity="0.08" d="M104.726 431.671C135.195 431.671 159.896 417.415 159.896 399.828C159.896 382.242 135.195 367.985 104.726 367.985C74.2561 367.985 49.5555 382.242 49.5555 399.828C49.5555 417.415 74.2561 431.671 104.726 431.671Z" fill="black"/>
<path d="M215.546 348.854V153.669L217.324 153.082V152.638V152.851C217.055 150.805 216.204 148.879 214.87 147.304C214.403 146.632 213.886 145.996 213.324 145.401L186.085 111.869L176.431 123.764V104.597C176.324 83.7941 171.822 63.2485 163.221 44.3065H162.225C161.707 42.7639 161.052 41.2704 160.269 39.8438C157.78 34.7055 134.524 0.888672 122.345 0.888672C110.166 0.888672 86.9283 34.67 84.4214 39.8438C83.7458 41.2129 83.0879 42.5997 82.4656 44.0043C80.3609 48.644 78.5033 53.3918 76.9006 58.228L72.4379 59.6681L51.9736 33.9588L25.0197 67.9001C23.8883 69.1542 23.0166 70.6202 22.4551 72.2132C21.8936 73.8062 21.6533 75.4946 21.7482 77.181V178.987L24.6641 177.974C13.9963 190.117 4.53754 205.301 1.08829 229.535C-0.387415 239.882 7.13337 254.426 17.09 260.027L23.6151 262.925V272.028L21.5704 271.21C18.099 274.55 16.0862 279.125 15.9698 283.94L16.5032 283.834V297.115C16.6137 299.414 17.2246 301.662 18.2932 303.701C19.3619 305.74 20.8625 307.521 22.6905 308.921L22.5839 309.952C21.56 312.005 20.9556 314.241 20.8059 316.53C20.8059 321.153 23.8284 325.776 29.8202 329.349L29.6246 329.687C27.061 333.919 25.6227 338.736 25.4464 343.68V354.881L30.7803 357.832C30.8692 357.832 78.7853 330.15 78.7853 330.15V329.812L79.1764 329.936C81.582 331.11 84.0869 332.068 86.6616 332.799L81.79 348.143C75.7094 342.044 47.1197 344.213 47.1197 368.393C47.1227 373.126 48.5717 377.745 51.2726 381.631C53.9736 385.517 57.7976 388.486 62.2324 390.138C63.3284 397.412 66.4533 404.229 71.2484 409.808C76.0434 415.386 82.3144 419.499 89.3412 421.675C96.3681 423.851 103.866 424.001 110.975 422.109C118.083 420.216 124.514 416.357 129.528 410.976C135.218 410.425 145.406 406.691 154.58 397.943C156.358 403.135 161.976 407.989 171.524 410.922C181.401 413.936 191.977 413.762 201.749 410.425C212.417 406.762 217.751 400.592 217.751 394.423C217.558 391.99 216.881 389.62 215.759 387.453H215.137C215.137 387.453 222.142 379.097 220.969 374.741V362.295C222.622 357.583 215.546 348.854 215.546 348.854ZM125.581 349.796C124.302 349.81 123.026 349.905 121.759 350.08L117.065 332.87C121.853 331.876 126.463 330.161 130.737 327.785L131.466 327.287L155.362 341.066L155.095 341.902V348.338H154.189C151.139 351.183 149.241 355.049 148.855 359.201L138.187 352.57C134.234 350.748 129.934 349.802 125.581 349.796Z" fill="#E3FFFF"/>
<path d="M149.21 359.895L138.543 353.263C133.4 350.854 127.671 349.977 122.043 350.739L117.349 333.528L101.917 335.004L85.9149 332.532L81.1678 347.823C75.0871 341.724 46.4975 343.893 46.4975 368.074C46.4977 372.802 47.9415 377.418 50.6358 381.304C53.3301 385.189 57.1465 388.16 61.5746 389.818C62.6598 397.1 65.7782 403.928 70.5711 409.517C75.364 415.105 81.637 419.228 88.6686 421.41C95.7001 423.592 103.205 423.746 110.32 421.853C117.435 419.96 123.871 416.097 128.888 410.709C136.16 409.998 153.353 401.41 160.678 390.138C160.678 390.138 152.091 384.804 149.815 378.759C148.161 374.297 149.21 359.895 149.21 359.895Z" fill="#27AAE1"/>
<path d="M21.8905 310.006C20.8667 312.059 20.2622 314.295 20.1125 316.584C20.1125 321.296 23.224 326.025 29.4646 329.617L36.3276 316.958L21.8905 310.006Z" fill="#27AAE1"/>
<path d="M26.4954 298.289C19.508 294.253 16.4855 289.043 16.4855 283.763V283.887V297.169C16.4855 302.627 20.0414 308.067 27.2955 312.228C30.4077 314.09 33.7819 315.475 37.3054 316.335L44.4528 304.031C38.1268 303.416 32.0048 301.458 26.4954 298.289Z" fill="#67DAFF"/>
<path d="M80.0121 69.3404C79.5507 68.6689 79.0396 68.033 78.4831 67.438L51.9736 33.959L25.0019 67.9003C19.4547 74.3899 21.3216 82.4796 30.6914 87.8846C42.4438 94.6764 61.5035 94.6764 73.2558 87.8846C81.9145 82.8885 84.1548 75.5989 80.0121 69.3404Z" fill="#67DAFF"/>
<path d="M162.225 44.0043C161.772 42.5323 161.114 41.1317 160.269 39.8438C157.762 34.7055 134.524 0.888672 122.345 0.888672C110.166 0.888672 86.9283 34.67 84.4214 39.8438C83.7458 41.2129 83.0879 42.5997 82.4657 44.0043C80.2788 51.2406 84.0125 58.9747 93.7024 64.5575L116.816 71.2071C128.906 72.1494 141.707 69.9447 150.935 64.5575C160.678 58.9747 164.412 51.2406 162.225 44.0043Z" fill="#27AAE1"/>
<path d="M215.137 387.134C215.137 387.134 200.611 396.024 185.587 396.024C170.155 396.024 155.362 387.134 155.362 387.134C154.235 389.3 153.552 391.67 153.353 394.103C153.353 398.815 156.464 403.527 162.705 407.136C175.151 414.248 195.384 414.248 207.848 407.136C214.07 403.58 217.182 398.815 217.182 394.103C216.973 391.667 216.278 389.297 215.137 387.134Z" fill="#27AAE1"/>
<path d="M211.955 375.808C197.553 384.111 174.209 384.111 159.807 375.808C152.926 371.825 149.886 366.509 149.762 361.229V374.741C149.762 381.853 155.86 388.84 168.057 393.018C179.828 397.054 192.609 397.054 204.381 393.018C216.56 388.84 222.658 381.782 222.658 374.741V362.295C222.071 367.167 218.498 372.021 211.955 375.808Z" fill="#67DAFF"/>
<path d="M213.359 146.985C212.903 146.308 212.398 145.667 211.848 145.064L185.268 111.55L158.243 145.491C151.308 153.599 155.931 164.16 172.217 168.925C180.535 171.361 189.369 171.41 197.713 169.067C213.448 164.64 219.831 155.145 213.359 146.985Z" fill="#67DAFF"/>
<path d="M103.819 53.4629L79.2299 87.2442C79.2299 87.2442 74.536 105.326 103.57 105.877C130.097 106.393 128.462 85.5373 128.462 85.5373L103.819 53.4629Z" fill="white"/>
<path d="M209.803 339.146C200.736 265.076 150.917 205.799 142.365 149.082L131.395 155.145L146.828 204.466C164.999 246.781 192.326 292.226 198.815 345.209C199.58 351.361 197.998 355.877 194.957 358.082L195.082 358.473C195.082 358.473 202.425 354.17 205.341 352.428C208.754 350.401 210.586 345.689 209.803 339.146Z" fill="white"/>
<path d="M30.638 346.703C30.8197 341.759 32.2577 336.944 34.8162 332.71L78.643 257.022V257.147V257.022L73.3091 254.035L29.4823 329.741C26.9187 333.972 25.4804 338.789 25.3041 343.733V354.614L30.638 357.566V346.703Z" fill="white"/>
<path d="M101.917 184.482C101.49 194.367 94.0047 198.705 85.186 194.065C76.3673 189.424 69.5755 177.708 70.0022 167.804C70.4289 157.901 77.9141 153.581 86.7151 158.239C95.516 162.897 102.343 174.578 101.917 184.482Z" fill="#27AAE1"/>
<path d="M119.91 376.448C120.774 372.735 120.321 368.836 118.629 365.419C116.936 362.003 114.109 359.28 110.632 357.718C107.154 356.155 103.241 355.85 99.5626 356.853C95.8842 357.857 92.6689 360.108 90.4666 363.22H90.0221C88.9868 361.564 87.5963 360.158 85.9511 359.106C84.3059 358.053 82.4472 357.379 80.5096 357.133C78.5719 356.887 76.6038 357.075 74.7477 357.683C72.8917 358.291 71.194 359.305 69.7777 360.65C68.3614 361.995 67.2619 363.638 66.5587 365.46C65.8556 367.282 65.5664 369.238 65.7121 371.186C65.8578 373.133 66.4348 375.024 67.4013 376.722C68.3677 378.419 69.6995 379.88 71.3001 381C70.655 386.188 72.0222 391.427 75.1204 395.638C78.2187 399.85 82.8126 402.715 87.958 403.644C93.1033 404.572 98.409 403.495 102.784 400.633C107.16 397.77 110.272 393.34 111.482 388.254C111.482 387.88 111.624 387.525 111.678 387.169C113.732 386.069 115.529 384.544 116.949 382.696C118.368 380.847 119.378 378.717 119.91 376.448Z" fill="#67DAFF"/>
<path d="M130.364 91.6894C130.062 91.0849 129.742 90.4982 129.404 89.9115C128.918 89.0462 128.42 88.175 127.91 87.2979C128.408 91.2449 126.132 95.2809 120.799 98.2857C111.233 103.815 95.7471 103.815 86.1817 98.2857C80.9545 95.2809 78.6609 91.1738 79.0698 87.2979C78.572 88.1691 78.0564 89.0758 77.5763 89.9115C77.2563 90.516 76.9363 91.1027 76.634 91.6894C74.3938 97.0233 76.7763 102.695 83.8881 106.802C94.6626 113.025 112.158 113.025 123.003 106.802C130.204 102.695 132.604 96.9344 130.364 91.6894Z" fill="#67DAFF"/>
<path d="M103.588 112.349C96.6159 112.488 89.7243 110.842 83.5679 107.567C76.3672 103.406 73.4336 97.1832 75.9405 91.3337C76.2783 90.6759 76.5983 90.0714 76.9361 89.5558C77.274 89.0402 77.8607 87.9023 78.3407 87.0844L78.4296 86.9244C78.5317 86.7463 78.6923 86.609 78.8842 86.5359C79.076 86.4627 79.2872 86.4582 79.482 86.5232C79.6768 86.5881 79.843 86.7184 79.9526 86.892C80.0622 87.0656 80.1083 87.2718 80.0831 87.4756C79.6209 91.2093 82.0211 94.9074 86.6794 97.5922C95.9781 102.926 111.109 102.926 120.461 97.5922C125.119 94.9074 127.573 91.2093 127.057 87.4756C127.032 87.2718 127.078 87.0656 127.187 86.892C127.297 86.7184 127.463 86.5881 127.658 86.5232C127.853 86.4582 128.064 86.4627 128.256 86.5359C128.448 86.609 128.608 86.7463 128.71 86.9244L128.799 87.0844C129.279 87.9023 129.759 88.7201 130.204 89.5558C130.648 90.3914 130.862 90.7648 131.182 91.3337C133.706 97.2366 130.791 103.459 123.572 107.62C117.421 110.871 110.543 112.498 103.588 112.349ZM78.5185 90.3559C78.1985 90.9248 77.8785 91.5115 77.5762 92.1338C75.4604 97.1121 78.0207 102.339 84.4925 106.073C95.018 112.154 112.14 112.154 122.665 106.073C129.119 102.339 131.697 97.1832 129.564 92.0983C129.262 91.5293 128.959 90.9604 128.639 90.3203C128.084 92.1937 127.148 93.9326 125.891 95.4284C124.634 96.9242 123.082 98.145 121.332 99.0145C111.535 104.668 95.6225 104.668 85.7726 99.0145C84.0319 98.1493 82.4889 96.9335 81.2406 95.4434C79.9922 93.9533 79.0655 92.2212 78.5185 90.3559Z" fill="#081E7A"/>
<path d="M144.605 357.37L138.134 353.992C134.29 352.21 130.102 351.293 125.866 351.308C124.623 351.318 123.382 351.407 122.15 351.574C121.94 351.599 121.728 351.548 121.552 351.431C121.376 351.314 121.247 351.138 121.19 350.934L117.634 338.24L119.412 337.742L122.79 349.725C123.846 349.603 124.909 349.538 125.972 349.53C130.48 349.516 134.935 350.493 139.023 352.392L145.53 355.806L144.605 357.37Z" fill="#081E7A"/>
<path d="M100.299 423.99C90.8228 423.945 81.6667 420.559 74.4407 414.429C67.2148 408.299 62.3819 399.817 60.7922 390.476C56.3206 388.667 52.4896 385.566 49.7884 381.569C47.0871 377.573 45.638 372.862 45.6262 368.038C45.4182 363.373 46.6789 358.761 49.2306 354.85C51.7823 350.94 55.4964 347.928 59.8499 346.24C67.7796 342.969 76.5628 343.627 80.6521 346.24L83.2835 336.941L85.0614 337.421L82.0567 348C82.019 348.152 81.9414 348.29 81.832 348.401C81.7225 348.512 81.5852 348.592 81.4344 348.632C81.2837 348.672 81.1249 348.671 80.9748 348.629C80.8247 348.586 80.6887 348.504 80.581 348.391C77.6473 345.458 68.473 344.604 60.5967 347.876C56.5587 349.425 53.1111 352.207 50.7431 355.826C48.3751 359.445 47.2068 363.718 47.4042 368.038C47.4206 372.582 48.8142 377.015 51.4011 380.751C53.988 384.486 57.6468 387.35 61.8946 388.965C62.0434 389.018 62.1749 389.11 62.2751 389.232C62.3754 389.355 62.4405 389.502 62.4635 389.658C63.5393 396.766 66.5968 403.427 71.2852 408.877C75.9737 414.326 82.1032 418.344 88.9709 420.469C95.8385 422.595 103.166 422.741 110.113 420.892C117.06 419.043 123.346 415.274 128.248 410.016C128.321 409.936 128.408 409.871 128.506 409.825C128.604 409.78 128.709 409.754 128.817 409.749C133.009 409.343 137.07 408.069 140.743 406.009C144.416 403.949 147.62 401.148 150.153 397.783L151.575 398.85C148.933 402.372 145.592 405.311 141.762 407.484C137.931 409.656 133.694 411.014 129.315 411.474C125.575 415.412 121.075 418.551 116.088 420.703C111.101 422.854 105.73 423.972 100.299 423.99Z" fill="#081E7A"/>
<path d="M28.9669 330.381C22.6551 326.825 19.1703 321.846 19.1703 316.584C19.3271 314.161 19.9743 311.796 21.0727 309.632L22.6907 310.379C21.6944 312.309 21.0901 314.418 20.9127 316.584C20.9127 321.171 24.0775 325.474 29.8025 328.852L28.9669 330.381Z" fill="#081E7A"/>
<path d="M36.1319 317.206C32.5221 316.301 29.0696 314.856 25.8908 312.921C18.6367 308.743 14.6363 303.107 14.6363 297.097V284.26H16.4143V297.097C16.4143 302.431 20.0946 307.534 26.7798 311.321C29.8187 313.161 33.123 314.522 36.5763 315.357L36.1319 317.206Z" fill="#081E7A"/>
<path d="M43.6882 304.867C37.2686 304.25 31.0551 302.267 25.4641 299.053C19.4546 295.586 15.8809 291.017 15.1164 285.825C14.3518 280.633 16.3965 275.335 20.8236 270.641L22.1215 271.868C18.0678 276.153 16.2187 281.007 16.8766 285.558C17.5344 290.11 20.8236 294.324 26.3531 297.506C31.7338 300.594 37.7094 302.503 43.8838 303.107L43.6882 304.867Z" fill="#081E7A"/>
<path d="M23.5261 76.3105H21.7482V174.098H23.5261V76.3105Z" fill="#081E7A"/>
<path d="M48.0087 298.982C42.068 298.55 36.2895 296.846 31.0647 293.986C24.9308 290.43 21.5526 285.452 21.8015 280.26V266.57H23.5795V280.313C23.3662 284.865 26.4065 289.203 31.9537 292.475C36.959 295.197 42.4867 296.821 48.1687 297.24L48.0087 298.982Z" fill="#081E7A"/>
<path d="M51.9737 93.8408C44.4007 93.9997 36.9136 92.2122 30.2292 88.6492C25.0909 85.6977 21.8728 81.7329 21.1438 77.4836C20.8679 75.6594 21.0093 73.7964 21.5575 72.0349C22.1056 70.2733 23.0463 68.659 24.3086 67.3136L51.2803 33.4079C51.3636 33.304 51.4692 33.2202 51.5892 33.1627C51.7092 33.1051 51.8406 33.0752 51.9737 33.0752C52.1068 33.0752 52.2382 33.1051 52.3583 33.1627C52.4783 33.2202 52.5838 33.304 52.6671 33.4079L79.1943 66.8513C79.76 67.462 80.2772 68.1159 80.7411 68.8071C81.6686 70.1444 82.3059 71.6611 82.6121 73.2595C82.9184 74.8579 82.8867 76.5026 82.5191 78.0881C81.5768 82.1063 78.4831 85.7333 73.6293 88.5603C66.9764 92.1312 59.5236 93.9485 51.9737 93.8408ZM51.9737 35.3814L25.7132 68.4515C24.6176 69.6005 23.7972 70.9832 23.3137 72.4954C22.8301 74.0076 22.6961 75.6098 22.9218 77.1813C23.5619 80.8972 26.4777 84.4176 31.1538 87.1201C42.6394 93.7519 61.3791 93.7519 72.8114 87.1201C77.2741 84.5421 80.0655 81.3062 80.9012 77.768C81.2001 76.4173 81.2137 75.0191 80.9413 73.6628C80.6688 72.3066 80.1162 71.0221 79.3188 69.8917V69.785C78.8864 69.1601 78.4112 68.566 77.8964 68.007L51.9737 35.3814Z" fill="#081E7A"/>
<path d="M93.2757 65.3405C83.5681 59.7399 79.2298 51.668 81.6123 43.7383L83.3903 44.2539C81.2567 51.3657 85.3105 58.6376 94.2358 63.8115L93.2757 65.3405Z" fill="#081E7A"/>
<path d="M122.434 72.3096C120.656 72.3096 118.683 72.3096 116.798 72.0784L116.94 70.3005C129.386 71.2783 141.672 68.8959 150.544 63.7753C159.416 58.6548 163.523 51.3296 161.372 44.2178L163.15 43.7021C165.55 51.6319 161.194 59.7038 151.504 65.3044C142.576 70.095 132.565 72.5074 122.434 72.3096Z" fill="#081E7A"/>
<path d="M77.7362 58.6726L76.0472 58.1214C77.6667 53.2225 79.536 48.4098 81.6478 43.7021L83.2657 44.4311C81.1775 49.0794 79.3319 53.833 77.7362 58.6726Z" fill="#081E7A"/>
<path d="M176.431 118.982H174.653V104.278C174.552 83.6607 170.175 63.2887 161.798 44.4495L163.434 43.7383C171.916 62.8305 176.341 83.4756 176.431 104.367V118.982Z" fill="#081E7A"/>
<path d="M83.2836 44.4491L81.6478 43.7201C82.2879 42.3155 82.9457 40.9287 83.6214 39.5419C85.7727 35.0614 109.366 0 122.345 0C135.325 0 158.936 35.0614 161.069 39.453C161.945 40.7756 162.621 42.2192 163.079 43.7379L161.301 44.2535C160.905 42.863 160.306 41.5388 159.523 40.3242C156.962 35.0614 133.76 1.77796 122.345 1.77796C110.931 1.77796 87.7285 35.0614 85.2215 40.2353C84.5459 41.6043 83.9058 42.9734 83.2836 44.4491Z" fill="#081E7A"/>
<path d="M185.267 413.394C177.256 413.551 169.337 411.66 162.261 407.9C155.949 404.344 152.464 399.348 152.464 394.103C152.646 391.536 153.36 389.036 154.562 386.76L156.162 387.525C155.089 389.567 154.436 391.804 154.242 394.103C154.242 398.69 157.407 402.993 163.132 406.353C175.329 413.465 195.135 413.465 207.385 406.353C213.128 403.046 216.275 398.69 216.275 394.103C216.082 391.802 215.422 389.564 214.337 387.525L215.955 386.76C217.157 389.036 217.871 391.536 218.053 394.103C218.053 399.437 214.497 404.255 208.256 407.9C201.185 411.656 193.273 413.547 185.267 413.394Z" fill="#081E7A"/>
<path d="M185.321 396.93C179.049 396.928 172.82 395.895 166.883 393.872C155.042 389.801 147.984 382.653 147.984 374.741V360.784H149.762V374.741C149.762 381.853 156.376 388.378 167.541 392.183C179.123 396.152 191.697 396.152 203.278 392.183C214.355 388.378 221.058 381.853 221.058 374.741V360.784H222.836V374.741C222.836 382.653 215.724 389.801 203.954 393.872C197.955 395.914 191.658 396.948 185.321 396.93Z" fill="#081E7A"/>
<path d="M185.268 382.902C176.036 383.082 166.912 380.903 158.758 376.572C151.06 372.127 148.873 366.651 148.375 362.829C148.124 360.177 148.488 357.503 149.437 355.015C150.387 352.527 151.897 350.291 153.851 348.481L155.096 349.743C153.328 351.373 151.96 353.389 151.1 355.634C150.239 357.879 149.909 360.293 150.135 362.686C150.775 367.594 154.064 371.896 159.647 375.132C173.782 383.293 196.771 383.293 210.906 375.132C217.058 371.576 220.578 367.131 221.093 362.278C221.556 357.939 219.476 353.388 215.244 349.636L216.435 348.303C221.093 352.517 223.387 357.548 222.854 362.526C222.285 367.967 218.462 372.874 211.795 376.75C203.618 381.021 194.489 383.138 185.268 382.902Z" fill="#081E7A"/>
<path d="M156.874 154.54H155.096V182.987H156.874V154.54Z" fill="#081E7A"/>
<path d="M186.494 378.048C182.733 378.045 178.985 377.597 175.329 376.715C162.474 373.621 155.096 367.292 155.096 359.362V343.005H156.874V359.362C156.874 366.474 163.754 372.092 175.755 374.99C184.713 377.2 194.139 376.528 202.692 373.07C211.101 369.514 215.635 364.66 215.475 359.344V152.763H217.253V359.309C217.449 365.389 212.524 370.865 203.385 374.706C198.032 376.93 192.291 378.066 186.494 378.048Z" fill="#081E7A"/>
<path d="M185.285 171.698C180.8 171.699 176.339 171.052 172.039 169.778C162.794 167.129 156.464 162.204 154.775 156.461C154.224 154.459 154.199 152.349 154.7 150.335C155.201 148.32 156.213 146.468 157.638 144.958L184.574 111.034C184.659 110.93 184.766 110.846 184.888 110.789C185.009 110.731 185.142 110.701 185.276 110.701C185.411 110.701 185.543 110.731 185.665 110.789C185.786 110.846 185.893 110.93 185.978 111.034L212.488 144.478C213.055 145.098 213.578 145.757 214.053 146.451C215.273 147.826 216.117 149.494 216.503 151.291C216.89 153.088 216.805 154.955 216.257 156.71C214.479 162.364 207.776 167.2 198.033 169.956C193.883 171.117 189.594 171.703 185.285 171.698ZM185.285 113.026L159.007 146.042C157.762 147.324 156.872 148.908 156.426 150.639C155.981 152.369 155.994 154.186 156.464 155.91C158.011 161.102 163.861 165.529 172.466 168.071C180.624 170.482 189.297 170.532 197.482 168.214C206.656 165.618 212.843 161.208 214.497 156.123C214.955 154.661 215.027 153.105 214.706 151.607C214.385 150.108 213.682 148.718 212.666 147.571L212.559 147.411C212.127 146.786 211.652 146.192 211.137 145.634L185.285 113.026Z" fill="#081E7A"/>
<path d="M103.534 335.857C94.7439 336.008 86.0314 334.185 78.0385 330.523L78.8208 328.923C93.8623 336.337 116.602 335.804 130.577 327.732L131.466 329.279C122.863 333.801 113.252 336.064 103.534 335.857Z" fill="#081E7A"/>
<path d="M66.1972 259.44H64.4192V117.683C64.434 108.875 67.3453 100.316 72.7045 93.3252L103.73 52.9299C103.815 52.8257 103.922 52.7418 104.044 52.6842C104.165 52.6266 104.298 52.5967 104.432 52.5967C104.567 52.5967 104.699 52.6266 104.821 52.6842C104.942 52.7418 105.049 52.8257 105.135 52.9299L136.16 93.3252C141.507 100.321 144.411 108.878 144.428 117.683V147.429H142.65V117.683C142.636 109.268 139.856 101.09 134.738 94.4097L104.423 54.9212L74.198 94.4097C69.0797 101.09 66.2996 109.268 66.286 117.683L66.1972 259.44Z" fill="#081E7A"/>
<path d="M195.384 358.899L194.548 357.317C194.548 357.317 202.033 353.388 204.896 351.681C208.167 349.707 209.643 345.191 208.914 339.235C203.989 299.089 187.33 263.85 171.204 229.748C158.136 202.137 145.797 176.018 141.672 150.469L131.804 155.927L130.951 154.38L141.921 148.3C142.047 148.234 142.187 148.2 142.33 148.2C142.472 148.2 142.612 148.234 142.738 148.3C142.868 148.362 142.98 148.455 143.067 148.569C143.153 148.683 143.211 148.816 143.236 148.958C147.112 174.649 159.594 201.07 172.822 228.966C188.983 263.174 205.714 298.555 210.674 338.986C211.492 345.654 209.714 350.81 205.803 353.21C202.887 354.935 195.686 358.739 195.384 358.899Z" fill="#081E7A"/>
<path d="M189.783 360.553C187.054 360.458 184.398 359.642 182.085 358.188L130.648 328.496C130.513 328.42 130.4 328.309 130.322 328.175C130.244 328.04 130.203 327.887 130.204 327.732V155.145C130.203 154.921 130.287 154.705 130.439 154.54C130.59 154.376 130.799 154.274 131.022 154.256C131.249 154.24 131.473 154.31 131.651 154.451C131.829 154.593 131.947 154.796 131.982 155.021C135.858 180.712 148.339 207.115 161.567 235.029C177.729 269.237 194.459 304.618 199.42 345.067C200.202 351.503 198.549 356.588 194.868 359.024C193.362 360.025 191.592 360.557 189.783 360.553ZM131.982 327.145L182.974 356.588C187.223 359.042 191.099 359.362 193.891 357.513C196.984 355.468 198.353 351.006 197.66 345.263C192.735 305.17 176.022 269.93 160.02 235.847C148.339 211.133 137.227 187.629 132.053 164.728L131.982 327.145Z" fill="#081E7A"/>
<path d="M29.3756 358.384L24.0417 355.397C23.9027 355.318 23.7867 355.205 23.7055 355.068C23.6244 354.93 23.5809 354.774 23.5795 354.614V343.733C23.7471 338.631 25.2292 333.658 27.8821 329.296L71.6556 253.591C71.7743 253.389 71.9679 253.242 72.1943 253.182C72.4207 253.122 72.6615 253.154 72.8646 253.27L78.1985 256.24L77.3273 257.804L72.7046 255.244L29.3578 330.185C26.8813 334.285 25.4865 338.947 25.3041 343.733V354.099L30.229 356.819L29.3756 358.384Z" fill="#081E7A"/>
<path d="M29.749 358.491C29.5935 358.483 29.4416 358.44 29.3045 358.366C29.1702 358.289 29.0585 358.177 28.9805 358.043C28.9025 357.909 28.861 357.757 28.86 357.602V346.703C29.0301 341.601 30.512 336.629 33.1627 332.266L76.9895 256.578C77.0885 256.411 77.2393 256.281 77.4191 256.208C77.5988 256.135 77.7975 256.123 77.9848 256.173C78.1722 256.223 78.3379 256.334 78.4568 256.487C78.5756 256.64 78.641 256.828 78.643 257.022V329.919C78.6526 330.074 78.6196 330.229 78.5475 330.367C78.4755 330.505 78.3671 330.621 78.2341 330.701L30.2291 358.366C30.0834 358.451 29.9174 358.494 29.749 358.491ZM76.865 260.329L34.6918 333.226C32.2289 337.306 30.8346 341.941 30.638 346.703V356.055L76.865 329.386V260.329Z" fill="#081E7A"/>
<path d="M91.9955 196.803C89.4676 196.737 86.9921 196.067 84.777 194.847C75.7094 190.1 68.7753 177.956 69.1132 167.768C69.3265 162.683 71.3356 158.879 74.7493 156.834C78.163 154.789 82.5901 155.056 87.195 157.438C96.2626 162.186 103.286 174.329 102.859 184.517C102.646 189.602 100.636 193.407 97.2227 195.469C95.6299 196.37 93.8255 196.831 91.9955 196.803ZM80.0121 157.261C78.5117 157.245 77.0337 157.625 75.7272 158.363C72.7758 160.016 71.1223 163.395 70.8911 167.857C70.4822 177.423 77.0784 188.819 85.6126 193.264C89.5953 195.362 93.4001 195.594 96.2804 193.922C99.1607 192.251 100.832 188.891 101.028 184.446C101.437 174.88 94.8403 163.466 86.3061 159.021C84.379 157.939 82.2206 157.336 80.0121 157.261Z" fill="#081E7A"/>
<path d="M91.6223 404.966C89.9757 404.971 88.3343 404.78 86.7329 404.397C81.6637 403.238 77.1963 400.259 74.1779 396.025C71.1596 391.791 69.8002 386.596 70.3578 381.426C68.7633 380.199 67.4508 378.644 66.5093 376.867C65.5679 375.089 65.0193 373.129 64.9007 371.121C64.7822 369.113 65.0965 367.102 65.8223 365.226C66.5481 363.35 67.6685 361.651 69.1077 360.245C70.5469 358.84 72.2713 357.759 74.1641 357.078C76.057 356.396 78.0742 356.129 80.0792 356.295C82.0841 356.461 84.0301 357.055 85.7854 358.038C87.5407 359.021 89.0644 360.37 90.2532 361.993C91.8346 359.985 93.8407 358.351 96.1276 357.208C98.4145 356.066 100.926 355.444 103.481 355.386C106.037 355.328 108.574 355.837 110.91 356.874C113.246 357.912 115.324 359.454 116.995 361.388C118.665 363.323 119.887 365.604 120.573 368.066C121.259 370.529 121.391 373.113 120.961 375.633C120.531 378.153 119.549 380.546 118.086 382.642C116.622 384.738 114.713 386.484 112.496 387.756C112.496 387.987 112.407 388.218 112.353 388.467C111.263 393.151 108.622 397.33 104.859 400.325C101.096 403.32 96.4317 404.955 91.6223 404.966ZM78.8565 357.975C76.2421 357.96 73.6912 358.781 71.576 360.317C69.4608 361.854 67.8918 364.026 67.0978 366.517C66.3039 369.008 66.3265 371.688 67.1624 374.165C67.9983 376.642 69.6038 378.787 71.7446 380.288C71.875 380.381 71.9772 380.509 72.0399 380.656C72.1027 380.803 72.1235 380.965 72.1002 381.124C71.4248 386.117 72.7022 391.178 75.6663 395.252C78.6305 399.326 83.0525 402.099 88.0109 402.993C92.9693 403.887 98.0814 402.833 102.282 400.051C106.482 397.268 109.447 392.972 110.558 388.058C110.558 387.827 110.646 387.596 110.682 387.364V387.027C110.706 386.894 110.76 386.769 110.84 386.661C110.92 386.553 111.024 386.465 111.144 386.404C113.213 385.294 115.003 383.731 116.382 381.831C117.76 379.93 118.69 377.743 119.103 375.432C119.516 373.121 119.4 370.747 118.765 368.487C118.13 366.227 116.992 364.14 115.436 362.383C113.879 360.625 111.946 359.243 109.779 358.339C107.613 357.435 105.27 357.033 102.926 357.163C100.582 357.293 98.2981 357.952 96.2451 359.09C94.192 360.228 92.4232 361.816 91.0711 363.735C90.992 363.843 90.8907 363.931 90.7741 363.996C90.6575 364.06 90.5283 364.099 90.3955 364.109H89.9688C89.8064 364.119 89.6444 364.085 89.5001 364.01C89.3559 363.935 89.2351 363.821 89.1509 363.682C87.4077 360.979 84.6767 359.065 81.5412 358.348C80.6626 358.126 79.7623 358.001 78.8565 357.975Z" fill="#081E7A"/>
<path d="M53.3426 281.949L16.5566 260.738C6.29774 254.817 -1.3475 240.149 0.19933 229.357C5.15985 194.669 21.8549 178.632 37.9988 163.128C46.6753 154.789 54.8539 146.931 60.5789 136.583L62.1436 137.436C56.2941 148.104 47.9198 155.981 39.2434 164.408C23.2417 179.716 6.83113 195.54 1.90617 229.606C0.483804 239.598 7.86235 253.697 17.3922 259.209L54.1072 280.402L53.3426 281.949Z" fill="#081E7A"/>
</svg>
