<svg width="473" height="294" viewBox="0 0 473 294" fill="none" xmlns="http://www.w3.org/2000/svg">
<path opacity="0.23" d="M289.576 281.196L17.4216 123.448C15.5261 122.351 15.5261 120.568 17.4216 119.471L176.884 27.0191C178.779 25.922 181.853 25.922 183.748 27.0191L455.937 184.776C457.832 185.873 457.832 187.656 455.937 188.753L296.449 281.196C294.545 282.293 291.471 282.293 289.576 281.196Z" fill="#E6E6E6"/>
<path d="M315.864 84.9277L253.58 66.8849L189.042 12.2163C187.428 10.8449 184.628 10.5963 182.792 11.6592L28.5379 101.051C26.7023 102.113 26.5315 104.085 28.1452 105.456L92.6832 160.125L154.967 178.168L222.425 235.322L291.437 258.182C293.444 258.851 296.56 258.525 298.396 257.462L305.465 253.373L452.65 168.071C454.486 167.008 454.34 165.611 452.325 164.942L383.314 142.082L315.864 84.9277Z" fill="#64A8DE"/>
<path d="M253.58 66.885L92.6918 160.125L154.976 178.176L315.864 84.9279L253.58 66.885Z" fill="#64A8DE"/>
<path d="M222.425 235.322L291.437 258.182C293.443 258.851 296.56 258.525 298.395 257.462L452.641 168.062C454.477 166.999 454.332 165.602 452.317 164.933L383.305 142.073L222.425 235.322Z" fill="#64A8DE"/>
<path d="M243.189 72.902L184.158 22.8877L44.0427 104.102L103.074 154.116L243.189 72.902Z" fill="#E0E0E0"/>
<path d="M305.473 90.945L165.358 172.159L103.074 154.116L243.189 72.9021L305.473 90.945Z" fill="#E0E0E0"/>
<g opacity="0.5">
<path d="M305.473 90.945L165.358 172.159L103.074 154.116L243.189 72.9021L305.473 90.945Z" fill="#E0E0E0"/>
</g>
<path d="M372.931 148.099L232.816 229.313L165.358 172.159L305.473 90.9448L372.931 148.099Z" fill="#E0E0E0"/>
<path d="M432.381 167.779L292.265 248.993L232.816 229.313L372.931 148.099L432.381 167.779Z" fill="#E0E0E0"/>
<g opacity="0.5">
<path d="M432.381 167.779L292.265 248.993L232.816 229.313L372.931 148.099L432.381 167.779Z" fill="#E0E0E0"/>
</g>
<path d="M78.22 133.056L97.8913 121.022L66.7536 90.9448L44.0427 104.102L78.22 133.056Z" fill="white"/>
<path d="M103.074 118.013L71.936 87.9363L118.647 60.7649L149.785 90.9449L103.074 118.013Z" fill="white"/>
<path d="M123.838 57.8591L154.976 87.9362L170.54 78.9105L165.349 33.7905L123.838 57.8591Z" fill="white"/>
<path d="M175.731 75.902L170.54 30.782L184.158 22.8877L234.762 65.7534L175.731 75.902Z" fill="white"/>
<path d="M121.242 143.582L105.669 128.539L86.2114 139.828L103.074 154.116L121.242 143.582Z" fill="white"/>
<path d="M110.86 125.53L126.433 140.573L173.085 113.53L157.554 98.4705L110.86 125.53Z" fill="white"/>
<path d="M178.327 110.496L162.754 95.4535L177.012 87.1906L206.869 81.9192V93.9535L178.327 110.496Z" fill="white"/>
<path d="M212.06 90.9448V81.002L236.726 76.6477L212.06 90.9448Z" fill="white"/>
<path d="M238.007 99.9622C232.269 98.2993 224.141 98.9765 219.838 101.462C215.535 103.948 216.705 107.325 222.434 108.988C228.163 110.651 236.299 109.974 240.602 107.488C244.905 104.994 243.744 101.625 238.007 99.9622Z" fill="#E0E0E0"/>
<path d="M221.144 96.7136C219.958 97.1079 218.873 97.5879 217.926 98.1365C213.401 100.751 213.29 104.162 213.452 105.508C213.529 106.134 213.717 106.922 214.178 107.762L201.67 114.996L178.318 110.496L206.861 93.9536L221.144 96.7136Z" fill="#E0E0E0"/>
<path d="M212.06 90.945L228.06 93.7221L236.265 94.8621L263.945 78.9107L243.189 72.9021L212.06 90.945Z" fill="#E0E0E0"/>
<path d="M305.465 90.9364L266.498 113.522L243.283 110.325C247.049 107.788 247.125 104.711 246.989 103.434C246.912 102.816 246.724 102.036 246.272 101.188L277.794 82.9136L305.465 90.9364Z" fill="#E0E0E0"/>
<path d="M261.811 116.248L243.198 127.031L211.975 121.014L224.978 113.522C225.012 113.496 225.046 113.488 225.081 113.462C225.098 113.462 225.098 113.462 225.098 113.462C226.506 113.651 227.983 113.754 229.495 113.754C232.688 113.754 235.744 113.334 238.374 112.536H238.391L261.811 116.248Z" fill="#E0E0E0"/>
<path d="M173.085 113.531L126.434 140.574L149.785 145.082L196.453 118.031L173.085 113.531Z" fill="#E0E0E0"/>
<path d="M243.198 127.039L212 121.031L165.332 148.091L196.487 154.108L243.198 127.039Z" fill="#E0E0E0"/>
<path d="M121.243 143.582L103.074 154.117L123.838 160.125L144.594 148.099L121.243 143.582Z" fill="#E0E0E0"/>
<path d="M191.296 157.125L160.141 151.099L137.669 164.137L165.358 172.159L191.296 157.125Z" fill="#E0E0E0"/>
<path d="M274.336 127.039L291.676 159.096L336.611 133.056L295.091 115.005L274.336 127.039Z" fill="white"/>
<path d="M191.296 157.125L196.487 166.142L194.873 197.162L165.358 172.159L191.296 157.125Z" fill="white"/>
<path d="M196.487 154.108L201.678 163.134L266.763 125.411L261.819 116.248L196.487 154.108Z" fill="white"/>
<path d="M266.498 113.531L271.732 122.531L313.9 98.0848L305.473 90.9448L266.498 113.531Z" fill="white"/>
<path d="M269.145 130.048L204.265 167.65L202.6 203.71L207.518 207.876L286.528 162.079L269.145 130.048Z" fill="white"/>
<path d="M300.282 111.996L318.118 101.659L347.634 126.662L341.794 130.048L300.282 111.996Z" fill="white"/>
<path d="M215.953 215.025L238.007 202.236L248.38 220.288L232.816 229.313L215.953 215.025Z" fill="white"/>
<path d="M263.942 187.201L243.188 199.231L253.565 217.276L274.32 205.246L263.942 187.201Z" fill="white"/>
<path d="M269.145 184.193L291.497 171.233L301.435 189.542L279.527 202.236L269.145 184.193Z" fill="white"/>
<path d="M306.541 186.576L296.628 168.259L341.794 142.082L364.496 140.95L372.931 148.099L306.541 186.576Z" fill="white"/>
<path d="M351.851 130.236L341.794 136.065L357.99 135.439L351.851 130.236Z" fill="white"/>
<path d="M331.745 196.408C326.007 194.745 317.879 195.422 313.576 197.908C309.273 200.393 310.443 203.771 316.172 205.433C321.9 207.096 330.037 206.419 334.34 203.933C338.635 201.439 337.474 198.071 331.745 196.408Z" fill="#E0E0E0"/>
<path d="M248.381 220.288L269.145 226.305L252.632 235.87L232.816 229.313L248.381 220.288Z" fill="#E0E0E0"/>
<path d="M253.572 217.279L274.336 223.296L295.091 211.262L274.336 205.245L253.572 217.279Z" fill="#E0E0E0"/>
<path d="M279.527 202.236L300.283 208.253L307.198 204.251C307.198 204.251 303.92 196.888 313.636 193.811L301.435 189.542L279.527 202.236Z" fill="#E0E0E0"/>
<path d="M306.541 186.576L319.322 191.205C319.322 191.205 323.446 190.536 329.704 191.205L367.749 169.15L346.993 163.133L306.541 186.576Z" fill="#E0E0E0"/>
<path d="M352.176 160.125L372.931 166.142L392.748 154.656L372.931 148.099L352.176 160.125Z" fill="#E0E0E0"/>
<path d="M405.956 159.036L372.932 178.176L398.878 187.202L432.381 167.779L405.956 159.036Z" fill="#E0E0E0"/>
<path d="M367.749 181.185L340.47 196.999C340.47 196.999 343.817 202.228 339.54 206.351L357.375 211.262L393.704 190.211L368.381 181.553" fill="#E0E0E0"/>
<path d="M352.176 214.271L333.743 209.599C333.743 209.599 324.855 213.088 317.384 210.371L289.9 226.296L284.709 246.491L292.257 248.993L352.176 214.271Z" fill="#E0E0E0"/>
<path d="M284.709 229.313L280.364 245.059L265.841 240.251L284.709 229.313Z" fill="#E0E0E0"/>
<path d="M261.811 181.228C261.375 181.228 260.948 181.005 260.709 180.593C260.351 179.985 260.556 179.196 261.162 178.836L288.483 162.662L263.125 116.171L239.262 112.399C238.733 112.313 238.314 111.911 238.212 111.379C238.109 110.848 238.34 110.316 238.801 110.033C242.336 107.873 244.112 105.816 243.958 104.093C243.813 102.439 241.755 100.699 238.468 99.422C233.55 97.5191 223.407 98.1449 219.027 101.556C215.202 104.539 217.507 108.131 217.601 108.285C217.798 108.576 217.857 108.936 217.781 109.271C217.704 109.613 217.49 109.905 217.191 110.085L204.035 118.073C203.77 118.236 203.454 118.296 203.147 118.236L175.501 113.256C175.245 113.213 175.006 113.085 174.818 112.896L146.916 84.6877C146.421 84.182 146.421 83.3763 146.925 82.8706C147.42 82.3734 148.231 82.3734 148.735 82.8791L176.355 110.796L203.13 115.613L214.852 108.499C213.913 106.202 213.665 102.473 217.456 99.5163C222.528 95.5649 233.747 94.8363 239.382 97.0134C241.9 97.982 246.169 100.168 246.502 103.845C246.699 106.022 245.452 108.199 242.805 110.342L264.15 113.719C264.543 113.779 264.884 114.019 265.072 114.371L291.326 162.499C291.659 163.108 291.446 163.871 290.857 164.222L262.468 181.031C262.255 181.168 262.033 181.228 261.811 181.228Z" fill="#182377"/>
<g opacity="0.99">
<path d="M156.222 44.685L151.851 42.165C149.768 40.7593 146.865 40.8193 143.663 42.6793C137.302 46.365 132.154 55.7164 132.154 63.5764V65.3678C132.154 73.2278 142.673 81.765 142.673 81.765L146.976 84.2078C146.976 84.2078 144.389 81.2507 144.688 80.6421C147.505 74.8393 155.181 58.4421 155.181 52.0221V50.2307C155.181 48.7993 155.01 47.5136 154.685 46.3907L155.181 46.6736L156.222 44.685ZM143.663 62.6936C140.487 64.5364 137.908 63.045 137.908 59.3593C139.616 59.085 143.919 51.7136 143.663 49.3478C146.839 47.505 149.418 48.9964 149.418 52.6821C149.418 56.3678 146.839 60.8507 143.663 62.6936Z" fill="#273472"/>
<path d="M156.222 44.685L151.851 42.165C149.768 40.7593 146.865 40.8193 143.663 42.6793C137.302 46.365 132.154 55.7164 132.154 63.5764V65.3678C132.154 73.2278 142.673 81.765 142.673 81.765L146.976 84.2078C146.976 84.2078 144.389 81.2507 144.688 80.6421C147.505 74.8393 155.181 58.4421 155.181 52.0221V50.2307C155.181 48.7993 155.01 47.5136 154.685 46.3907L155.181 46.6736L156.222 44.685ZM143.663 62.6936C140.487 64.5364 137.908 63.045 137.908 59.3593C139.616 59.085 143.919 51.7136 143.663 49.3478C146.839 47.505 149.418 48.9964 149.418 52.6821C149.418 56.3678 146.839 60.8507 143.663 62.6936Z" fill="#273472"/>
<g opacity="0.2">
<path d="M156.222 44.685L151.851 42.165C149.768 40.7593 146.865 40.8193 143.663 42.6793C137.302 46.365 132.154 55.7164 132.154 63.5764V65.3678C132.154 73.2278 142.673 81.765 142.673 81.765L146.976 84.2078C146.976 84.2078 144.389 81.2507 144.688 80.6421C147.505 74.8393 155.181 58.4421 155.181 52.0221V50.2307C155.181 48.7993 155.01 47.5136 154.685 46.3907L155.181 46.6736L156.222 44.685ZM143.663 62.6936C140.487 64.5364 137.908 63.045 137.908 59.3593C139.616 59.085 143.919 51.7136 143.663 49.3478C146.839 47.505 149.418 48.9964 149.418 52.6821C149.418 56.3678 146.839 60.8507 143.663 62.6936Z" fill="#273472"/>
</g>
</g>
<path d="M159.774 52.8964C159.774 45.0364 154.617 41.6593 148.265 45.345C141.913 49.0307 136.756 58.3907 136.756 66.2422V68.0336C136.756 74.085 143.586 81.105 146.72 84.0107C147.488 84.7222 148.709 84.4907 149.17 83.5564C151.885 77.985 159.783 61.2022 159.783 54.6879V52.8964H159.774ZM148.265 65.3593C145.089 67.2022 142.51 65.7107 142.51 62.025C142.51 58.3393 145.089 53.8564 148.265 52.0136C151.441 50.1707 154.02 51.6622 154.02 55.3479C154.02 59.0422 151.441 63.5164 148.265 65.3593Z" fill="#93D9FE"/>
<path d="M269.93 142.159L265.559 139.639C263.475 138.233 260.573 138.293 257.371 140.153C251.01 143.839 245.862 153.191 245.862 161.051V162.842C245.862 170.702 256.38 179.239 256.38 179.239L260.684 181.682C260.684 181.682 258.097 178.725 258.395 178.116C261.213 172.313 268.889 155.916 268.889 149.496V147.705C268.889 146.273 268.718 144.988 268.393 143.865L268.889 144.148L269.93 142.159ZM257.362 160.168C254.186 162.011 251.608 160.519 251.608 156.833C253.315 156.559 257.619 149.188 257.362 146.822C260.538 144.979 263.117 146.471 263.117 150.156C263.117 153.851 260.547 158.325 257.362 160.168Z" fill="#273472"/>
<path d="M269.93 142.159L265.559 139.639C263.475 138.233 260.573 138.293 257.371 140.153C251.01 143.839 245.862 153.191 245.862 161.051V162.842C245.862 170.702 256.38 179.239 256.38 179.239L260.684 181.682C260.684 181.682 258.097 178.725 258.395 178.116C261.213 172.313 268.889 155.916 268.889 149.496V147.705C268.889 146.273 268.718 144.988 268.393 143.865L268.889 144.148L269.93 142.159ZM257.362 160.168C254.186 162.011 251.608 160.519 251.608 156.833C253.315 156.559 257.619 149.188 257.362 146.822C260.538 144.979 263.117 146.471 263.117 150.156C263.117 153.851 260.547 158.325 257.362 160.168Z" fill="#273472"/>
<g opacity="0.2">
<path d="M269.93 142.159L265.559 139.639C263.475 138.233 260.573 138.293 257.371 140.153C251.01 143.839 245.862 153.191 245.862 161.051V162.842C245.862 170.702 256.38 179.239 256.38 179.239L260.684 181.682C260.684 181.682 258.097 178.725 258.395 178.116C261.213 172.313 268.889 155.916 268.889 149.496V147.705C268.889 146.273 268.718 144.988 268.393 143.865L268.889 144.148L269.93 142.159ZM257.362 160.168C254.186 162.011 251.608 160.519 251.608 156.833C253.315 156.559 257.619 149.188 257.362 146.822C260.538 144.979 263.117 146.471 263.117 150.156C263.117 153.851 260.547 158.325 257.362 160.168Z" fill="#273472"/>
</g>
<path d="M273.482 150.379C273.482 142.519 268.325 139.142 261.973 142.828C255.612 146.513 250.464 155.865 250.464 163.725V165.516C250.464 171.568 257.294 178.588 260.427 181.493C261.196 182.205 262.417 181.973 262.878 181.039C265.593 175.468 273.49 158.685 273.49 152.171V150.379H273.482ZM261.973 162.842C258.797 164.685 256.218 163.193 256.218 159.508C256.218 155.822 258.797 151.339 261.973 149.496C265.149 147.653 267.727 149.145 267.727 152.831C267.727 156.516 265.149 160.999 261.973 162.842Z" fill="#93D9FE"/>
</svg>
