<svg width="473" height="295" viewBox="0 0 473 295" fill="none" xmlns="http://www.w3.org/2000/svg">
<rect x="100" y="0.646973" width="314" height="290.912" rx="14" fill="#797EF6"/>
<path opacity="0.23" d="M289.576 282.196L17.4216 124.448C15.5261 123.351 15.5261 121.568 17.4216 120.471L176.884 28.0191C178.779 26.922 181.853 26.922 183.748 28.0191L455.937 185.776C457.832 186.873 457.832 188.656 455.937 189.753L296.449 282.196C294.545 283.293 291.471 283.293 289.576 282.196Z" fill="#E6E6E6"/>
<path d="M315.864 85.9277L253.58 67.8849L189.042 13.2163C187.428 11.8449 184.628 11.5963 182.792 12.6592L28.5379 102.051C26.7023 103.113 26.5315 105.085 28.1452 106.456L92.6832 161.125L154.967 179.168L222.425 236.322L291.437 259.182C293.444 259.851 296.56 259.525 298.396 258.462L305.465 254.373L452.65 169.071C454.486 168.008 454.34 166.611 452.325 165.942L383.314 143.082L315.864 85.9277Z" fill="#64A8DE"/>
<path d="M253.58 67.885L92.6918 161.125L154.976 179.176L315.864 85.9279L253.58 67.885Z" fill="#64A8DE"/>
<path d="M222.425 236.322L291.437 259.182C293.443 259.851 296.56 259.525 298.395 258.462L452.641 169.062C454.477 167.999 454.332 166.602 452.317 165.933L383.305 143.073L222.425 236.322Z" fill="#64A8DE"/>
<path d="M243.189 73.902L184.158 23.8877L44.0427 105.102L103.074 155.116L243.189 73.902Z" fill="#E0E0E0"/>
<path d="M305.473 91.945L165.358 173.159L103.074 155.116L243.189 73.9021L305.473 91.945Z" fill="#E0E0E0"/>
<g opacity="0.5">
<path d="M305.473 91.945L165.358 173.159L103.074 155.116L243.189 73.9021L305.473 91.945Z" fill="#E0E0E0"/>
</g>
<path d="M372.931 149.099L232.816 230.313L165.358 173.159L305.473 91.9448L372.931 149.099Z" fill="#E0E0E0"/>
<path d="M432.381 168.779L292.265 249.993L232.816 230.313L372.931 149.099L432.381 168.779Z" fill="#E0E0E0"/>
<g opacity="0.5">
<path d="M432.381 168.779L292.265 249.993L232.816 230.313L372.931 149.099L432.381 168.779Z" fill="#E0E0E0"/>
</g>
<path d="M78.22 134.056L97.8913 122.022L66.7536 91.9448L44.0427 105.102L78.22 134.056Z" fill="white"/>
<path d="M103.074 119.013L71.936 88.9363L118.647 61.7649L149.785 91.9449L103.074 119.013Z" fill="white"/>
<path d="M123.838 58.8591L154.976 88.9362L170.54 79.9105L165.349 34.7905L123.838 58.8591Z" fill="white"/>
<path d="M175.731 76.902L170.54 31.782L184.158 23.8877L234.762 66.7534L175.731 76.902Z" fill="white"/>
<path d="M121.242 144.582L105.669 129.539L86.2114 140.828L103.074 155.116L121.242 144.582Z" fill="white"/>
<path d="M110.86 126.53L126.433 141.573L173.085 114.53L157.554 99.4705L110.86 126.53Z" fill="white"/>
<path d="M178.327 111.496L162.754 96.4535L177.012 88.1906L206.869 82.9192V94.9535L178.327 111.496Z" fill="white"/>
<path d="M212.06 91.9448V82.002L236.726 77.6477L212.06 91.9448Z" fill="white"/>
<path d="M238.007 100.962C232.269 99.2993 224.141 99.9765 219.838 102.462C215.535 104.948 216.705 108.325 222.434 109.988C228.163 111.651 236.299 110.974 240.602 108.488C244.905 105.994 243.744 102.625 238.007 100.962Z" fill="#E0E0E0"/>
<path d="M221.144 97.7136C219.958 98.1079 218.873 98.5879 217.926 99.1365C213.401 101.751 213.29 105.162 213.452 106.508C213.529 107.134 213.717 107.922 214.178 108.762L201.67 115.996L178.318 111.496L206.861 94.9536L221.144 97.7136Z" fill="#E0E0E0"/>
<path d="M212.06 91.945L228.06 94.7221L236.265 95.8621L263.945 79.9107L243.189 73.9021L212.06 91.945Z" fill="#E0E0E0"/>
<path d="M305.465 91.9364L266.498 114.522L243.283 111.325C247.049 108.788 247.125 105.711 246.989 104.434C246.912 103.816 246.724 103.036 246.272 102.188L277.794 83.9136L305.465 91.9364Z" fill="#E0E0E0"/>
<path d="M261.811 117.248L243.198 128.031L211.975 122.014L224.978 114.522C225.012 114.496 225.046 114.488 225.081 114.462C225.098 114.462 225.098 114.462 225.098 114.462C226.506 114.651 227.983 114.754 229.495 114.754C232.688 114.754 235.744 114.334 238.374 113.536H238.391L261.811 117.248Z" fill="#E0E0E0"/>
<path d="M173.085 114.531L126.434 141.574L149.785 146.082L196.453 119.031L173.085 114.531Z" fill="#E0E0E0"/>
<path d="M243.198 128.039L212 122.031L165.332 149.091L196.487 155.108L243.198 128.039Z" fill="#E0E0E0"/>
<path d="M121.243 144.582L103.074 155.117L123.838 161.125L144.594 149.099L121.243 144.582Z" fill="#E0E0E0"/>
<path d="M191.296 158.125L160.141 152.099L137.669 165.137L165.358 173.159L191.296 158.125Z" fill="#E0E0E0"/>
<path d="M274.336 128.039L291.676 160.096L336.611 134.056L295.091 116.005L274.336 128.039Z" fill="white"/>
<path d="M191.296 158.125L196.487 167.142L194.873 198.162L165.358 173.159L191.296 158.125Z" fill="white"/>
<path d="M196.487 155.108L201.678 164.134L266.763 126.411L261.819 117.248L196.487 155.108Z" fill="white"/>
<path d="M266.498 114.531L271.732 123.531L313.9 99.0848L305.473 91.9448L266.498 114.531Z" fill="white"/>
<path d="M269.145 131.048L204.265 168.65L202.6 204.71L207.518 208.876L286.528 163.079L269.145 131.048Z" fill="white"/>
<path d="M300.282 112.996L318.118 102.659L347.634 127.662L341.794 131.048L300.282 112.996Z" fill="white"/>
<path d="M215.953 216.025L238.007 203.236L248.38 221.288L232.816 230.313L215.953 216.025Z" fill="white"/>
<path d="M263.942 188.201L243.188 200.231L253.565 218.276L274.32 206.246L263.942 188.201Z" fill="white"/>
<path d="M269.145 185.193L291.497 172.233L301.435 190.542L279.527 203.236L269.145 185.193Z" fill="white"/>
<path d="M306.541 187.576L296.628 169.259L341.794 143.082L364.496 141.95L372.931 149.099L306.541 187.576Z" fill="white"/>
<path d="M351.851 131.236L341.794 137.065L357.99 136.439L351.851 131.236Z" fill="white"/>
<path d="M331.745 197.408C326.007 195.745 317.879 196.422 313.576 198.908C309.273 201.393 310.443 204.771 316.172 206.433C321.9 208.096 330.037 207.419 334.34 204.933C338.635 202.439 337.474 199.071 331.745 197.408Z" fill="#E0E0E0"/>
<path d="M248.381 221.288L269.145 227.305L252.632 236.87L232.816 230.313L248.381 221.288Z" fill="#E0E0E0"/>
<path d="M253.572 218.279L274.336 224.296L295.091 212.262L274.336 206.245L253.572 218.279Z" fill="#E0E0E0"/>
<path d="M279.527 203.236L300.283 209.253L307.198 205.251C307.198 205.251 303.92 197.888 313.636 194.811L301.435 190.542L279.527 203.236Z" fill="#E0E0E0"/>
<path d="M306.541 187.576L319.322 192.205C319.322 192.205 323.446 191.536 329.704 192.205L367.749 170.15L346.993 164.133L306.541 187.576Z" fill="#E0E0E0"/>
<path d="M352.176 161.125L372.931 167.142L392.748 155.656L372.931 149.099L352.176 161.125Z" fill="#E0E0E0"/>
<path d="M405.956 160.036L372.932 179.176L398.878 188.202L432.381 168.779L405.956 160.036Z" fill="#E0E0E0"/>
<path d="M367.749 182.185L340.47 197.999C340.47 197.999 343.817 203.228 339.54 207.351L357.375 212.262L393.704 191.211L368.381 182.553" fill="#E0E0E0"/>
<path d="M352.176 215.271L333.743 210.599C333.743 210.599 324.855 214.088 317.384 211.371L289.9 227.296L284.709 247.491L292.257 249.993L352.176 215.271Z" fill="#E0E0E0"/>
<path d="M284.709 230.313L280.364 246.059L265.841 241.251L284.709 230.313Z" fill="#E0E0E0"/>
<path d="M261.811 182.228C261.375 182.228 260.948 182.005 260.709 181.593C260.351 180.985 260.556 180.196 261.162 179.836L288.483 163.662L263.125 117.171L239.262 113.399C238.733 113.313 238.314 112.911 238.212 112.379C238.109 111.848 238.34 111.316 238.801 111.033C242.336 108.873 244.112 106.816 243.958 105.093C243.813 103.439 241.755 101.699 238.468 100.422C233.55 98.5191 223.407 99.1449 219.027 102.556C215.202 105.539 217.507 109.131 217.601 109.285C217.798 109.576 217.857 109.936 217.781 110.271C217.704 110.613 217.49 110.905 217.191 111.085L204.035 119.073C203.77 119.236 203.454 119.296 203.147 119.236L175.501 114.256C175.245 114.213 175.006 114.085 174.818 113.896L146.916 85.6877C146.421 85.182 146.421 84.3763 146.925 83.8706C147.42 83.3734 148.231 83.3734 148.735 83.8791L176.355 111.796L203.13 116.613L214.852 109.499C213.913 107.202 213.665 103.473 217.456 100.516C222.528 96.5649 233.747 95.8363 239.382 98.0134C241.9 98.982 246.169 101.168 246.502 104.845C246.699 107.022 245.452 109.199 242.805 111.342L264.15 114.719C264.543 114.779 264.884 115.019 265.072 115.371L291.326 163.499C291.659 164.108 291.446 164.871 290.857 165.222L262.468 182.031C262.255 182.168 262.033 182.228 261.811 182.228Z" fill="#182377"/>
<g opacity="0.99">
<path d="M156.222 45.685L151.851 43.165C149.768 41.7593 146.865 41.8193 143.663 43.6793C137.302 47.365 132.154 56.7164 132.154 64.5764V66.3678C132.154 74.2278 142.673 82.765 142.673 82.765L146.976 85.2078C146.976 85.2078 144.389 82.2507 144.688 81.6421C147.505 75.8393 155.181 59.4421 155.181 53.0221V51.2307C155.181 49.7993 155.01 48.5136 154.685 47.3907L155.181 47.6736L156.222 45.685ZM143.663 63.6936C140.487 65.5364 137.908 64.045 137.908 60.3593C139.616 60.085 143.919 52.7136 143.663 50.3478C146.839 48.505 149.418 49.9964 149.418 53.6821C149.418 57.3678 146.839 61.8507 143.663 63.6936Z" fill="#273472"/>
<path d="M156.222 45.685L151.851 43.165C149.768 41.7593 146.865 41.8193 143.663 43.6793C137.302 47.365 132.154 56.7164 132.154 64.5764V66.3678C132.154 74.2278 142.673 82.765 142.673 82.765L146.976 85.2078C146.976 85.2078 144.389 82.2507 144.688 81.6421C147.505 75.8393 155.181 59.4421 155.181 53.0221V51.2307C155.181 49.7993 155.01 48.5136 154.685 47.3907L155.181 47.6736L156.222 45.685ZM143.663 63.6936C140.487 65.5364 137.908 64.045 137.908 60.3593C139.616 60.085 143.919 52.7136 143.663 50.3478C146.839 48.505 149.418 49.9964 149.418 53.6821C149.418 57.3678 146.839 61.8507 143.663 63.6936Z" fill="#273472"/>
<g opacity="0.2">
<path d="M156.222 45.685L151.851 43.165C149.768 41.7593 146.865 41.8193 143.663 43.6793C137.302 47.365 132.154 56.7164 132.154 64.5764V66.3678C132.154 74.2278 142.673 82.765 142.673 82.765L146.976 85.2078C146.976 85.2078 144.389 82.2507 144.688 81.6421C147.505 75.8393 155.181 59.4421 155.181 53.0221V51.2307C155.181 49.7993 155.01 48.5136 154.685 47.3907L155.181 47.6736L156.222 45.685ZM143.663 63.6936C140.487 65.5364 137.908 64.045 137.908 60.3593C139.616 60.085 143.919 52.7136 143.663 50.3478C146.839 48.505 149.418 49.9964 149.418 53.6821C149.418 57.3678 146.839 61.8507 143.663 63.6936Z" fill="#273472"/>
</g>
</g>
<path d="M159.774 53.8964C159.774 46.0364 154.617 42.6593 148.265 46.345C141.913 50.0307 136.756 59.3907 136.756 67.2422V69.0336C136.756 75.085 143.586 82.105 146.72 85.0107C147.488 85.7222 148.709 85.4907 149.17 84.5564C151.885 78.985 159.783 62.2022 159.783 55.6879V53.8964H159.774ZM148.265 66.3593C145.089 68.2022 142.51 66.7107 142.51 63.025C142.51 59.3393 145.089 54.8564 148.265 53.0136C151.441 51.1707 154.02 52.6622 154.02 56.3479C154.02 60.0422 151.441 64.5164 148.265 66.3593Z" fill="#93D9FE"/>
<path d="M269.93 143.159L265.559 140.639C263.475 139.233 260.573 139.293 257.371 141.153C251.01 144.839 245.862 154.191 245.862 162.051V163.842C245.862 171.702 256.38 180.239 256.38 180.239L260.684 182.682C260.684 182.682 258.097 179.725 258.395 179.116C261.213 173.313 268.889 156.916 268.889 150.496V148.705C268.889 147.273 268.718 145.988 268.393 144.865L268.889 145.148L269.93 143.159ZM257.362 161.168C254.186 163.011 251.608 161.519 251.608 157.833C253.315 157.559 257.619 150.188 257.362 147.822C260.538 145.979 263.117 147.471 263.117 151.156C263.117 154.851 260.547 159.325 257.362 161.168Z" fill="#273472"/>
<path d="M269.93 143.159L265.559 140.639C263.475 139.233 260.573 139.293 257.371 141.153C251.01 144.839 245.862 154.191 245.862 162.051V163.842C245.862 171.702 256.38 180.239 256.38 180.239L260.684 182.682C260.684 182.682 258.097 179.725 258.395 179.116C261.213 173.313 268.889 156.916 268.889 150.496V148.705C268.889 147.273 268.718 145.988 268.393 144.865L268.889 145.148L269.93 143.159ZM257.362 161.168C254.186 163.011 251.608 161.519 251.608 157.833C253.315 157.559 257.619 150.188 257.362 147.822C260.538 145.979 263.117 147.471 263.117 151.156C263.117 154.851 260.547 159.325 257.362 161.168Z" fill="#273472"/>
<g opacity="0.2">
<path d="M269.93 143.159L265.559 140.639C263.475 139.233 260.573 139.293 257.371 141.153C251.01 144.839 245.862 154.191 245.862 162.051V163.842C245.862 171.702 256.38 180.239 256.38 180.239L260.684 182.682C260.684 182.682 258.097 179.725 258.395 179.116C261.213 173.313 268.889 156.916 268.889 150.496V148.705C268.889 147.273 268.718 145.988 268.393 144.865L268.889 145.148L269.93 143.159ZM257.362 161.168C254.186 163.011 251.608 161.519 251.608 157.833C253.315 157.559 257.619 150.188 257.362 147.822C260.538 145.979 263.117 147.471 263.117 151.156C263.117 154.851 260.547 159.325 257.362 161.168Z" fill="#273472"/>
</g>
<path d="M273.482 151.379C273.482 143.519 268.325 140.142 261.973 143.828C255.612 147.513 250.464 156.865 250.464 164.725V166.516C250.464 172.568 257.294 179.588 260.427 182.493C261.196 183.205 262.417 182.973 262.878 182.039C265.593 176.468 273.49 159.685 273.49 153.171V151.379H273.482ZM261.973 163.842C258.797 165.685 256.218 164.193 256.218 160.508C256.218 156.822 258.797 152.339 261.973 150.496C265.149 148.653 267.727 150.145 267.727 153.831C267.727 157.516 265.149 161.999 261.973 163.842Z" fill="#93D9FE"/>
</svg>
