<?xml version="1.0" encoding="utf-8"?>
<!-- Generator: Adobe Illustrator 25.4.1, SVG Export Plug-In . SVG Version: 6.00 Build 0)  -->
<svg version="1.1" id="Capa_1" xmlns="http://www.w3.org/2000/svg" xmlns:xlink="http://www.w3.org/1999/xlink" x="0px" y="0px"
	 viewBox="0 0 289 330" style="enable-background:new 0 0 289 330;" xml:space="preserve">
<style type="text/css">
	.st0{fill:#249DCF;}
	.st1{fill:#E0FCFD;}
	.st2{fill:#67DAFF;}
	.st3{fill:#27AAE1;}
	.st4{fill:none;stroke:#09227D;stroke-linecap:round;stroke-miterlimit:10;}
	.st5{fill:none;stroke:#09227D;stroke-width:1.2554;stroke-linecap:round;stroke-miterlimit:10;}
	.st6{fill:#797EF6;}
	.st7{fill:#193174;}
	.st8{fill:#081F51;}
	.st9{fill:#E3FFFF;}
	.st10{fill:#081E7A;}
	.st11{opacity:0.1;}
	.st12{fill:#D268CC;}
	.st13{fill:#FFFFFF;}
	.st14{opacity:0.5;fill:#27AAE1;}
	.st15{opacity:0.3;fill:#27AAE1;}
	.st16{opacity:0.5;fill:#FFFFFF;}
	.st17{fill:#284785;}
	.st18{fill:#FAFAFA;}
	.st19{fill:#E1E1E1;}
	.st20{opacity:0.3;}
	.st21{fill:#FFFFFF;stroke:#E1E1E1;stroke-width:1.8258;stroke-miterlimit:10;}
	.st22{fill:none;stroke:#081E7A;stroke-width:4.0449;stroke-miterlimit:10;}
	.st23{fill:none;stroke:#081E7A;stroke-width:1.2481;stroke-miterlimit:10;}
	.st24{fill:#6F74E2;}
	.st25{opacity:0.15;}
	.st26{opacity:0.3;fill:#FFFFFF;}
	.st27{fill:#27AAE1;stroke:#081E7A;stroke-width:3;stroke-miterlimit:10;}
	.st28{fill:#E3FFFF;stroke:#081E7A;stroke-width:3;stroke-miterlimit:10;}
	.st29{fill:none;stroke:#081E7A;stroke-width:3;stroke-linecap:round;stroke-linejoin:round;stroke-miterlimit:10;}
	.st30{opacity:0.4;fill:#193174;}
	.st31{fill:#67DAFF;stroke:#1D3582;stroke-width:1.5428;stroke-miterlimit:10;}
	.st32{fill:#DFFFFF;stroke:#1D3582;stroke-width:0.9257;stroke-miterlimit:10;}
	.st33{fill:#DFFFFF;}
	.st34{fill:none;stroke:#1D3582;stroke-width:1.5428;stroke-linecap:round;stroke-linejoin:round;stroke-miterlimit:10;}
	.st35{fill:#67DAFF;stroke:#1D3582;stroke-width:1.5428;stroke-linecap:round;stroke-linejoin:round;stroke-miterlimit:10;}
	.st36{clip-path:url(#SVGID_00000092422780773388799850000014056325225716237224_);}
	.st37{fill:#E1FDFD;}
	.st38{fill:#FBFCFD;}
	.st39{fill:#66D8FD;}
	.st40{fill:#18398B;}
	.st41{fill:#1E3C8D;}
	.st42{fill:#27A9E0;}
	.st43{fill:#27A8DF;}
	.st44{fill:#09227D;}
	.st45{fill:none;stroke:#09227D;stroke-width:0.6171;stroke-linecap:round;stroke-miterlimit:10;}
	
		.st46{clip-path:url(#SVGID_00000092422780773388799850000014056325225716237224_);fill:none;stroke:#09227D;stroke-width:0.6171;stroke-linecap:round;stroke-miterlimit:10;}
	.st47{fill:#5DD4FC;stroke:#1D3582;stroke-width:0.9257;stroke-miterlimit:10;}
	.st48{fill:none;stroke:#081E7A;stroke-width:2.5702;stroke-miterlimit:10;}
	.st49{fill:none;stroke:#09227D;stroke-width:1.2495;stroke-linecap:round;stroke-miterlimit:10;}
	.st50{fill:none;stroke:#09227D;stroke-width:0.901;stroke-linecap:round;stroke-miterlimit:10;}
</style>
<ellipse class="st0" cx="159.9" cy="295.17" rx="45.83" ry="30.77"/>
<g>
	<path class="st1" d="M65.14,82.19c0,0,8.99-4.28,15.89,1.97c6.89,6.26,9.19,23.74,4.21,40.34s3.19,33.32,3.19,33.32l-10.74,11.49
		c0,0-11.49-15.45-9.89-30.13s2.88-24.62,2.88-24.62L65.14,82.19z"/>
	<path class="st2" d="M56.82,92.46c0,0,1.28-9.93,10.02-8.35c8.73,1.58,12.44,21.11,9.25,26.22c-3.19,5.11-6.46,6.89-12.87,3.06
		C56.81,109.57,55.31,98.97,56.82,92.46z"/>
	<path class="st3" d="M59.62,91.23c0,0,0.85-7.09,5.36-5.12c4.51,1.97-0.6,7.16-0.6,7.16s-1.53,1.19-3.4,0.6
		C59.11,93.27,59.62,91.23,59.62,91.23z"/>
	<path class="st3" d="M57.76,102.36c-0.57,0.38-1.31,0.45-1.96,0.21c-0.61-0.23-1.28-0.68-1.46-1.55c-0.34-1.7,0-6.72,2.55-6.47
		C59.26,94.78,60.97,100.2,57.76,102.36z"/>
	<path class="st3" d="M72.72,98.37c0,0,0.51,4.52-4.6,4.43s-2.7-7.32-0.32-8C70.19,94.12,72.13,95.64,72.72,98.37z"/>
	<path class="st3" d="M61.23,108.65c0,0-1.87-3.13,0.68-5s6.21,2.74,5.87,4.86c-0.34,2.12-2.47,3.31-3.6,2.89
		C62.3,110.69,61.23,108.65,61.23,108.65z"/>
	<path class="st4" d="M64.82,92.78c0,0,4.5-4.96,0.16-6.67c-5.23-2.07-5.36,5.12-5.36,5.12"/>
	<path class="st4" d="M54.43,101.89c0,0-2.34-6.03,1.85-7.36c3.56-1.13,4.1,5.12,2.83,6.9"/>
	<path class="st4" d="M68.13,102.8c0,0-3.96-0.09-3.21-4.13c0.97-5.2,4.78-4.13,4.78-4.13s3.45,0.76,3.02,3.83"/>
	<path class="st4" d="M60.13,106.25c0,0,0.34-3.83,4.06-3.03c3.72,0.8,4.66,5.46,3.62,6.74c-1.04,1.28-1.92,1.87-3.62,1.45"/>
	<path class="st5" d="M56.88,89.9c0,0,2.36-7.07,9-5.95c6.64,1.11,10.53,9.32,10.91,15.76"/>
	<path class="st5" d="M76.78,109.59c0,0-2.14,5.76-7.99,5.87c-5.86,0.11-10.93-5-11.97-11.25"/>
	<path class="st5" d="M69.78,121.95c0,0-4.05,18.53-1.81,27.14c2.24,8.61,6.91,15.87,6.91,15.87"/>
	<path class="st5" d="M63.2,83.29c0,0,10.39-7.04,17.83,0.87c7.44,7.91,8.3,23.16,5.65,34.54c-2.65,11.38-5.74,20.83,0.13,35.08"/>
</g>
<g>
	<path class="st37" d="M88.01,156.31c2.37-1.76,4.79-3.45,7.19-5.16c-0.75,2.83-2.07,5.13-3.18,7.53
		c-5.31,11.39-4.19,20.27,3.9,28.65c3.57,3.69,7.47,7.11,12.72,8.36c5.81,2.89,20.46,6.03,21.58,6.24
		c20.67,2.58,36.05,2.01,53.9-2.85c10.41-2.83,17.81-4.96,25.85-12.49c9.29-8.7,12.35-22.2,3.86-31.59l0-0.01
		c0.1-1-0.31-1.67-1.3-1.95l-0.05-0.02c-0.09-0.61,0.04-1.55-1.04-0.71l-0.12-0.16l-0.14,0.15c0.25-0.05,0.58,0.34,0.74-0.17
		c0.23-0.72-0.26-0.86-0.77-1.01l0.01-0.03c0.08-1.01-0.46-1.58-1.35-1.91l-0.01-0.01c0.07-0.5-0.09-0.79-0.65-0.67l0.12-0.05
		c-0.11-0.38-0.22-0.76-0.33-1.14c3,0.11,4.95,2.31,7.33,3.67c-0.18,1.3,0.98,1.57,1.71,2.09c3.17,2.26,6.26,4.62,9.04,7.34
		c5.58,5.46,10.49,11.41,13.22,18.88c0.66,4.14,0.97,7.26,1.21,11c-1.08,0.71-0.6,2.48-0.67,3.51c-0.29,4.12-2.11,7.82-4.37,11.17
		c-5.45,8.07-13.8,13.81-22.21,18.21c-3.21,1.68-21.56,7.48-22.4,7.71c-8.51,2.29-17.64,2.44-26.4,3.08
		c-12.47,0.9-24.92,0.49-37.32-1.2c-13.05-2.28-25.81-5.46-37.52-11.93c-8.15-4.51-15.38-9.96-19.68-18.64
		c-1.38-2.79-1.48-5.86-2.69-8.63c-0.07-3.55-0.14-7.1-0.22-10.65c2.5-8.75,8.17-15.42,14.31-21.79
		C82.91,160.46,86.95,157.09,88.01,156.31z"/>
	<path class="st38" d="M113.84,83.1c-0.25-0.57-0.52-0.56-0.8-0.02c0.13-0.28,0.71-0.36,0.32-0.89c-0.31-0.42-0.67-0.22-1.03-0.23
		c0,0,0.03,0,0.03,0c0.21-0.66-0.04-0.86-0.67-0.66l-0.13,0.16c0,0,0.14-0.15,0.14-0.15c0.19-0.65-0.03-0.87-0.67-0.65l-0.14,0.15
		c0,0,0.15-0.14,0.15-0.14c0.19-0.65-0.03-0.87-0.67-0.65l-0.14,0.15c0,0,0.15-0.14,0.15-0.14c0.19-0.65-0.03-0.87-0.67-0.65
		l-0.14,0.15c0,0,0.15-0.14,0.15-0.14c0.19-0.65-0.03-0.87-0.67-0.65c0,0,0.06,0.03,0.06,0.03c0.05-0.05,0.16-0.11,0.15-0.16
		c-0.01-0.12-0.08-0.24-0.12-0.36c-2.55-3.77-7.34-6.44-5.34-20.01c1.03,1.54,5.29,7.94,6.32,9.48c0.89,2.65,3.32,2.21,5.59,2.77
		c6.7,1.64,8.21-1.66,11.23-9.15c3.17-7.87,0.01-10.48-6.32-13.98c-1.35-0.75-3.74-2.44-5.39-1.46c-1.67,0.02-6.14,2.65-7.81,2.67
		c18.34-17.61,38.12-7.07,41.21,6.65c0.26,1.16,0.2,2.78,2.15,2.66c0.53,1.21,1.06,2.42,1.59,3.63c-9.57,5.2-14.58,13.1-14.33,24.13
		c-1.31,0.03-2.63,0.06-3.94,0.08c-5.31,0.58-10.61,0.65-15.85-0.61c0,0-0.09-0.01-0.09-0.01c-0.51-0.63-0.87-1.69-1.95-0.69
		c0,0,0.13,0.1,0.13,0.1c0.39-0.91-0.04-0.92-0.72-0.65c0,0-0.02,0-0.02,0C115.31,82.92,114.82,82.42,113.84,83.1z"/>
	<path class="st38" d="M184.47,96.63c-1.89,3.54-4.44,6.45-8.01,8.38c-1.15-0.46-1.93,0.39-2.81,0.81
		c-16.31,7.89-34.08-2.4-35.19-20.39c-0.59-9.56,5.01-18.81,13.9-22.96c8.97-4.19,20.03-2.2,27.31,4.91
		c6.75,6.59,8.92,17.71,5.22,26.36C184.51,94.62,183.14,95.47,184.47,96.63z"/>
	<path class="st40" d="M183.91,133c0.04-0.34,0.08-0.68,0.12-1.03c8.41,2.36,15.77,6.51,21.92,12.74c-0.39,0.07-0.78,0.14-1.16,0.21
		C198.67,139.47,191.55,135.78,183.91,133z"/>
	<path class="st41" d="M208.94,147.3c0.11,0.38,0.22,0.76,0.33,1.14c-2.01,0.07-2.62-1.72-3.76-2.81c0.21-0.24,0.42-0.48,0.63-0.72
		c0.73,0.59,1.47,1.18,2.2,1.77c0.07,0.38,0.22,0.68,0.67,0.68L208.94,147.3z"/>
	<path class="st41" d="M204.79,144.92c0.39-0.07,0.78-0.14,1.16-0.21c0,0,0.19,0.2,0.19,0.2c-0.21,0.24-0.42,0.47-0.63,0.71
		C205.27,145.39,205.03,145.16,204.79,144.92z"/>
	<path class="st40" d="M108,78.34c0.38-0.03,0.76-0.06,1.14-0.09c0.04,0.12,0.1,0.24,0.12,0.36c0.01,0.05-0.1,0.11-0.15,0.16
		C108.59,79.02,108.28,78.73,108,78.34z"/>
	<path class="st40" d="M112.34,81.98c0.36,0,0.72-0.2,1.03,0.23c0.39,0.52-0.19,0.6-0.32,0.89
		C112.62,82.83,112.23,82.57,112.34,81.98z"/>
	<path class="st37" d="M209.01,147.36c-0.45,0-0.6-0.3-0.67-0.68C208.77,146.71,209.24,146.69,209.01,147.36z"/>
	<path class="st42" d="M123.6,179.56c1.55-0.02,3.8-0.68,5.85-2c1.09-0.7,1.39-1.53,0.03-2.09c-5.66-2.34-9.73-6.71-14.11-10.72
		c-1.34-1.23-2.97-2.49-4.94-1.37c-2.04,1.16-2.93,3.14-2.82,5.46c0.12,2.53,1.43,4.51,3.26,6.13
		C114.23,177.98,118.24,179.37,123.6,179.56z M97.68,188.64c-7.33-6.83-9.55-17.52-6.02-26.89c5.13-13.62,21.74-33.02,62.36-33.17
		c57.69-0.21,64.51,34.88,64.6,43.82c0.11,10.59-14.32,27.88-63.35,32.07C124.98,207.05,107.45,197.74,97.68,188.64z"/>
	<path class="st39" d="M225.57,234.78c2.06,2.02-18.2,14.17-20.41,15.23c-16.75,8.05-34.45,11.42-52.96,11.29
		c-15.91-0.11-31.9-2.11-46.46-8.5c-15.47-6.79-27.86-17.52-35.83-32.86c-5.63-10.84-6.72-22.31-3.27-34.12
		c0.3-1.02,0.42-2.15,1.32-2.91c0.07,3.55,0.15,7.1,0.22,10.65c0,0,0.28,1.84,0.54,2.91c1.76,7.31,4.68,13.55,10.43,18.31
		c9.18,7.6,19.86,12.23,31.2,15.38c5.27,1.46,10.5,3.49,16.16,2.89c-0.08,0.05-0.16,0.1-0.24,0.14c0.05,0.06,0.09,0.18,0.15,0.18
		c0.1,0.01,0.2-0.05,0.3-0.07c0.32,0.5,0.83,0.56,1.36,0.57c6.07,1.17,12.23,1.6,18.39,1.78c15.1,0.42,30.07-0.69,44.75-4.45
		c2.08-0.53,27.53-9.58,28.54-7.4c0.63,1.36-7.92,1.13-5.81,1.38c0,0,3.22,0.01,3.22,0.01c-0.61,1.87-3.59-0.85-2.45-0.04
		c0,0-2.12,1.18-2.12,1.18c0.27,1.08,0.93-0.05,2.38-0.2c0,0,17.04-11.84,4.17,2.56c0.67-0.75-2.95-1.76-2.11-1.71
		c0.76-1.01,1.87,0.26,1.99,0.94c-0.99,1.57,2.37,0.22,2.89,1.05l2.94,1.21L225.57,234.78z"/>
	<path class="st39" d="M240.24,179.28c6.28,13.74,5.1,27.2-1.66,40.36c-3.15,6.13-7.54,11.37-12.5,16.15
		c-1.4,1.35-2.51,1.62-4.17,0.39c-4.27-3.18-8.38-6.5-11.86-10.97c5.54-2.84,11.04-5.36,15.87-9.02
		c6.96-5.29,12.87-11.36,14.83-20.28c0.39-1.76,1.58-3.81,0.7-5.61C241.2,186.54,240.47,183.34,240.24,179.28z"/>
	<path class="st1" d="M142.08,98.8c-0.3,2.2,0.82,4.13,1.12,6.22c-1.28,2.02,0.12,3.94,0.37,5.85c1.06,7.88,1.68,15.76,0.55,23.68
		c-0.23,1.6-0.67,3.18-1.17,4.72c-0.78,2.41-2.54,3.58-5.02,3.01c-2.4-0.55-3.2-2.38-2.88-4.74c0.69-5.04,1.61-10.05,2.05-15.14
		c0.95-11.17-0.03-22.09-3.61-32.73c-0.53-1.59-1.73-2.67-0.56-3.84c1.31-0.03,4.33-1.13,5.72-2.54c0.52,4.02,1.12,10.17,2.94,13.8
		c-0.17,0.71-0.12,1.33,0.65,1.66L142.08,98.8z"/>
	<path class="st43" d="M173.95,88.03c-0.53,1.02-1.07,2.04-1.6,3.07c-0.73,0.46-2.04,0.57-1.18,1.97c0,0-0.04,0.05-0.04,0.04
		c-2.94,0.84-5.4,2.5-7.67,4.48c-0.46,0.06-0.93,0.13-1.39,0.19c-2.41,0.04-4.71-0.48-7-1.18c-7.83-2.39-12.33-10.35-10.25-18.19
		c2.12-7.98,10.19-12.91,18.11-11.07c7.98,1.86,12.85,9.42,11.33,17.54C174.06,85.92,173.29,86.91,173.95,88.03z M155.56,82.33
		c2.1-0.15,3.45-1.27,3.52-3.44c0.08-2.39-1.46-3.7-3.65-3.65c-2.02,0.05-3.49,1.36-3.43,3.57
		C152.06,80.96,153.33,82.16,155.56,82.33z"/>
	<path class="st1" d="M161.17,109.17c0.48-0.86,1.49-0.88,2.79-1.02c1.16-0.12,1.68,0.18,1.93,0.68"/>
	<path class="st44" d="M123.6,179.56c-5.35-0.19-9.37-1.58-12.73-4.58c-1.83-1.63-3.14-3.61-3.26-6.13
		c-0.11-2.33,0.78-4.3,2.82-5.46c1.97-1.12,3.6,0.14,4.94,1.37c4.38,4.01,8.46,8.38,14.11,10.72c1.36,0.56,1.06,1.4-0.03,2.09
		C127.39,178.88,125.15,179.54,123.6,179.56z"/>
	<path class="st40" d="M126.52,233.05c0.05,0.05,0.11,0.14,0.2,0.26c-0.1,0.02-0.2,0.08-0.3,0.07c-0.05-0.01-0.1-0.12-0.15-0.18
		C126.36,233.15,126.44,233.1,126.52,233.05z"/>
	<path class="st44" d="M111.03,52.68c2.38,0.13,3.66,1.42,3.72,3.49c0.06,2.12-1.31,3.55-3.42,3.61c-2.28,0.07-3.75-1.34-3.71-3.63
		C107.66,54.06,109.01,52.84,111.03,52.68z"/>
	<path class="st44" d="M155.56,82.33c-2.23-0.17-3.5-1.37-3.56-3.51c-0.06-2.21,1.41-3.53,3.43-3.57c2.19-0.05,3.73,1.27,3.65,3.65
		C159,81.06,157.66,82.18,155.56,82.33z"/>
	
		<ellipse transform="matrix(0.0952 -0.9955 0.9955 0.0952 46.9106 170.1373)" class="st43" cx="117.04" cy="59.26" rx="14.02" ry="12.85"/>
	<circle class="st44" cx="111.87" cy="56.14" r="3.65"/>
	<path class="st5" d="M149.75,57.15c0,0-1.98-18.62-23.93-17.76S97.25,63.93,107.24,77.4s25.66,9.05,25.66,9.05"/>
	<path class="st5" d="M120.12,45.16c2.42,0.27,5,1.81,6.68,4.18c6.32,8.92,1.45,19.77-4.92,22.13c-2.74,1.02-6.48,1.86-10.64,0.4"/>
	<circle class="st42" cx="159.54" cy="82.54" r="15.83"/>
	<circle class="st44" cx="155.55" cy="78.76" r="3.65"/>
	<path class="st5" d="M170.3,94.15c-2.5,2.31-5.75,3.85-9.41,4.16c-8.71,0.75-16.37-5.71-17.12-14.42s5.71-16.37,14.42-17.12
		c8.71-0.75,16.37,5.71,17.12,14.42c0.16,1.85-0.01,3.64-0.45,5.34"/>
	<path class="st5" d="M126.18,202.81c25.39,3.99,50.21,2.39,77.04-10.92c26.83-13.31,10.61-36.91,10.61-36.91s-13.88-30-64.92-26.48
		"/>
	<path class="st5" d="M68.19,193.56c0,0,3.66,51.19,110.03,39.8c0,0,59.64-6.28,62.99-42.62"/>
</g>
<path class="st5" d="M99.17,149.09c0,0-25.7,13.84-32.98,39.45c-2.2,7.75-2,15.96,0.51,23.62c5.46,16.69,23.17,46.61,80.16,48.99
	c62.62,2.61,85.52-29.07,93.27-46.09c3.2-7.03,4.35-14.83,3.38-22.49c-3.52-27.86-26.73-40.56-26.73-40.56"/>
<path class="st5" d="M175.19,105.99c-1.73,0.95-3.6,1.72-5.6,2.25c-13.28,3.56-26.93-4.32-30.49-17.6s4.32-26.93,17.6-30.49
	c13.28-3.56,26.93,4.32,30.49,17.6c1.66,6.17,0.84,12.43-1.84,17.71"/>
<path class="st5" d="M135.77,130.46c0,0-36.13,2.28-45.94,35.76c0,0-5.54,19.53,18.24,29.42"/>
<path class="st5" d="M131.55,87.03c0,0,9.56,18.56,3.53,48.06c0,0-2.16,6.78,3.15,7.84s5.94-4.25,5.94-4.25s3.58-12.85-0.77-31.93"
	/>
<path class="st1" d="M166.07,109.59c0.24,0.5,0.2,1.2,0.21,1.89c0.06,2.17,0.07,4.34,0.1,6.51c0.1,9.82-0.9,19.5-4.24,28.81
	c-0.82,2.3-1.58,4.83-4.59,5.34c-3.46,0.59-5.62-1.55-4.63-4.91c1.56-5.29,3.83-10.34,5.17-15.71c1.64-6.54,2.82-13.12,2.71-19.88
	c-0.01-0.8-0.24-1.66-0.03-2.04"/>
<path class="st5" d="M159.96,109.8c0,0,1.14,18.66-7.07,37.57c0,0-2.41,4.66,2.43,5.4c4.84,0.73,6.26-4.38,6.26-4.38
	s7.17-18.17,5.14-38.94"/>
<g>
	<path class="st39" d="M231.09,257.88c0.64-0.44,1.29-0.88,1.93-1.32c4.01-0.37,7.68,0.46,10.9,3c4.4,3.47,7.79,7.72,9.99,12.89
		c0.37,0.87,0.37,1.97,1.63,2.14c0,0-0.02-0.01-0.02-0.01c0,0,0.04-0.07,0.04-0.07c0.17,1.14-0.25,2.37,0.52,3.42
		c-2.99,1.97-6.86,1.86-9.56-0.29c-3.73-2.97-4.49-2.88-7.44,0.95c-1.09,1.41-2.6,0.54-3.9,0.77c0.32-1.02,1.45-1.96,0.34-3.13
		c-0.18-2.18-0.81-4.11-2.84-5.3c-2.4-1.65-4.27-3.54-3.02-6.99c0.85,2.1,1.57,4.28,4.17,4.36c1.26,0.04,2.64-0.21,2.7-2.01
		c0.84-2.19,0.68-4.34-0.18-6.48C235.42,256.91,232.59,259.21,231.09,257.88z M241.56,264.51c-2.78,1.34-3.56,3.89-2,6.55
		c1.45,2.46,4.53,3.28,6.71,1.79c2.33-1.6,2.56-4.15,0.56-6.1C245.59,264.8,243.81,264.1,241.56,264.51z"/>
	<path class="st41" d="M260.15,278.98c0.22-0.21,0.43-0.43,0.65-0.64C260.58,278.55,260.36,278.77,260.15,278.98z"/>
	<path class="st41" d="M255.54,274.58c-1.25-0.18-1.26-1.27-1.63-2.14c-2.2-5.17-5.59-9.42-9.99-12.89c-3.22-2.54-6.89-3.38-10.9-3
		c3.05-1.56,6.04-1.6,8.99,0.28C248.72,261.08,253.86,266.51,255.54,274.58z"/>
	<polygon class="st41" points="255.56,274.51 255.52,274.57 255.62,274.66 	"/>
	<path class="st43" d="M241.56,264.51c2.25-0.41,4.03,0.28,5.27,2.24c0,0.43-0.04,0.87,0,1.29c0.13,1.74-0.18,3.3-1.99,4.01
		c-1.36,0.53-2.62-0.03-3.55-0.99c-1.26-1.3-1.33-2.91-0.59-4.52C241.01,265.88,241.62,265.34,241.56,264.51z"/>
	<path class="st43" d="M236.52,266.29c-1.48-0.04-3.08,1.57-4.43-0.31c-0.95-1.33-1.06-2.8-0.62-4.31c0.8-2.73,3.12-1.56,4.87-1.86
		C237.21,261.95,237.36,264.11,236.52,266.29z"/>
	<path class="st43" d="M235.51,276.23c-0.9,0.96-1.62,2.63-3.31,1.42c-1.72-1.23-2.8-2.99-2.56-5.19c0.21-1.87,1.84-1.35,3.03-1.52
		C234.69,272.12,235.33,274.05,235.51,276.23z"/>
	<path class="st40" d="M241.56,264.51c0.06,0.83-0.55,1.37-0.86,2.04c-0.74,1.6-0.67,3.22,0.59,4.52c0.93,0.96,2.19,1.52,3.55,0.99
		c1.81-0.71,2.11-2.27,1.99-4.01c-0.03-0.43,0-0.86,0-1.29c2,1.95,1.76,4.5-0.56,6.1c-2.18,1.5-5.26,0.68-6.71-1.79
		C238,268.41,238.78,265.86,241.56,264.51z"/>
	<path class="st1" d="M229.4,258.89c0,0-3.79-4.09-12.13-7.99c-8.35-3.9-20.13-8.17-27.83-26.95c0,0-2.15-6.57,3.15-9.18
		c5.29-2.61,8.28,2.57,9.14,3.76c0.86,1.18,12.49,16.85,30.59,22.39s38.05,14.99,31.04,37.85c0,0-3.79,8.25-12.94,10.7
		c-1.02,0.27,5.42-12.34,5.21-14.81C255.02,267.51,239.52,248.53,229.4,258.89z"/>
	<path class="st39" d="M228.19,268.02c0,0-2.55-8.81,4.83-11.47c7.38-2.66,22.27,7.78,23.24,20.8
		c0.97,13.02-10.24,13.29-10.24,13.29S233.35,292.9,228.19,268.02z"/>
	<path class="st5" d="M228.13,268.04c0,0-2.55-8.81,4.83-11.47c7.38-2.66,22.27,7.78,23.24,20.8c0.97,13.02-10.24,13.29-10.24,13.29
		"/>
	<path class="st41" d="M259.4,280.04c0.23-0.2,0.45-0.4,0.68-0.6C259.85,279.64,259.63,279.84,259.4,280.04z"/>
	<polygon class="st41" points="255.07,275.36 255.03,275.42 255.13,275.51 	"/>
	<path class="st43" d="M242.34,265.01c2.26-0.29,3.52,0.03,4.65,2.04c-0.03,0.43,0.41,1.26,0.42,1.69c0.04,1.73-0.32,3.35-2.16,3.96
		c-1.38,0.46-3.63-0.09-4.51-1.1c-1.19-1.36-1.7-2.97-0.89-4.53C240.2,266.42,240.21,265.58,242.34,265.01z"/>
	<path class="st43" d="M236.6,267.01c-1.47-0.11-4.09,0.71-5.33-1.23c-0.87-1.37-0.71-4.73-0.19-6.21c0.94-2.67,5.46-2.26,5.66,0.18
		C237.49,261.91,237.55,264.88,236.6,267.01z"/>
	<path class="st49" d="M235.56,258.5c0,0-3.51-1.54-4.82,1.75c-1.69,4.25,1.68,8.81,5.64,6.78"/>
	<path class="st50" d="M240.46,265.97c0,0-1.85,1.5-0.7,4.58c1.15,3.09,9.82,4.09,7.22-3.5"/>
	<path class="st43" d="M246.8,280.84c0.46,8.45-9.2,3.52-8.99,0.05c0.22-3.47,2.64-4.11,2.64-4.11S246.56,276.45,246.8,280.84z"/>
	<path class="st50" d="M240.45,277.08c0,0-2.42,0.65-2.64,4.11c-0.22,3.47,8.23,8.38,8.99-0.05"/>
	<path class="st43" d="M234.83,278.89c-2.27,1.98-6.55,0.02-7.06-4.98c-0.5-5,4.31-4.13,4.31-4.13s3.01,0.6,3.4,5.46
		C235.48,275.25,235.84,278.01,234.83,278.89z"/>
	<path class="st50" d="M231.88,270.1c0,0-4.69-0.86-4.2,4.09c0.49,4.95,4.48,6.66,6.87,4.92"/>
	<path class="st5" d="M226.28,255.92c-1.98-1.46-4.86-3.29-8.71-5.09c-8.35-3.9-20.13-8.17-27.83-26.95c0,0-2.15-6.57,3.15-9.18
		c5.29-2.61,8.28,2.57,9.14,3.76c0.86,1.18,12.49,16.85,30.59,22.39s38.05,14.99,31.04,37.85c0,0-3.79,8.25-12.94,10.7"/>
</g>
<path class="st1" d="M172.43,260.17c0,0,5.47,9.33,6.49,13.23l0.77,3.37l13.02,2.65l-9.45-21.14L172.43,260.17z"/>
<ellipse class="st39" cx="181.73" cy="283.88" rx="12.89" ry="9.38"/>
<polygon class="st1" points="143.42,260.97 142.67,278.34 152.37,288.28 155.95,261.21 "/>
<ellipse transform="matrix(0.1434 -0.9897 0.9897 0.1434 -163.897 383.5486)" class="st39" cx="139.62" cy="286.45" rx="9.38" ry="12.89"/>
<path class="st5" d="M143.42,260.97c0,0-0.07,9.49-0.75,14.46"/>
<path class="st5" d="M155.95,261.21l-3.1,23.46c0,0,0.68,10-9.43,11.03c-10.11,1.04-16.41-4.57-16.58-9.26
	c-0.17-4.69,2.89-10.09,11.57-9.69c0,0,5.79,0.15,9.78,3.27"/>
<path class="st5" d="M171.58,260.28c0,0,5.85,7.49,6.98,11.99"/>
<path class="st5" d="M183.27,258.28l10.61,21.63c0.85,1.74,1.14,3.73,0.64,5.6c-0.8,2.98-3.54,6.69-11.94,7.72
	c0,0-13.09,0.76-13.73-9.35c-0.64-10.11,13.88-10.88,18.24-8.53"/>
</svg>
