<svg width="289" height="330" viewBox="0 0 289 330" fill="none" xmlns="http://www.w3.org/2000/svg">
<g clip-path="url(#clip0_728_4549)">
<g clip-path="url(#clip1_728_4549)">
<path opacity="0.08" d="M164.179 368.641C192.185 368.641 214.889 355.536 214.889 339.37C214.889 323.203 192.185 310.098 164.179 310.098C136.172 310.098 113.468 323.203 113.468 339.37C113.468 355.536 136.172 368.641 164.179 368.641Z" fill="black"/>
<path d="M287.292 311.184C287.151 310.86 286.996 310.493 286.784 310.084C284.229 304.96 276.199 294.05 251.824 284.764C246.604 282.794 241.6 280.292 236.892 277.297L237.499 276.888C252.615 264.101 261.704 247.63 261.704 229.664C261.704 204.612 244.019 182.482 216.992 169.144C208.072 160.351 194.043 152.264 172.11 150.006C173.072 141.672 173.261 133.267 172.675 124.898C176.62 124.28 180.385 122.812 183.707 120.596C187.03 118.38 189.832 115.469 191.919 112.064C194.006 108.659 195.328 104.841 195.795 100.875C196.262 96.9083 195.861 92.8878 194.622 89.0914C193.449 85.2894 191.434 81.8008 188.727 78.8855C186.019 75.9703 182.689 73.7034 178.984 72.2537C175.426 70.8095 171.607 70.1189 167.769 70.2258C163.93 70.3327 160.156 71.2347 156.684 72.8747L154.525 67.3422C153.717 63.6402 152.154 60.1447 149.933 57.0745C147.713 54.0042 144.883 51.4253 141.62 49.4991C138.357 47.5729 134.731 46.3408 130.971 45.88C127.21 45.4191 123.394 45.7394 119.763 46.8209C115.45 48.0324 111.512 50.3109 108.313 53.4462C105.113 56.5814 102.756 60.4722 101.457 64.7594C100.148 68.8841 99.8304 73.2592 100.529 77.5298C101.227 81.8004 102.922 85.8463 105.476 89.3394C108.03 92.8325 111.372 95.6745 115.23 97.6348C119.087 99.5951 123.353 100.619 127.68 100.622C129.482 100.624 131.278 100.444 133.044 100.086C137.532 111.56 140.891 131.291 135.203 158.22C135.472 155.812 135.887 153.423 136.445 151.065C115.627 154.424 102.883 162.144 95.0636 170.386C88.4617 173.814 82.2648 177.97 76.5888 182.778L74.8387 178.981C72.6495 168.162 72.9002 156.99 75.5726 146.28C81.5144 120.875 76.9839 108.173 74.1612 103.163C73.9072 102.739 73.7096 102.401 73.512 102.104C71.2442 98.5448 67.781 95.9112 63.745 94.6772C59.709 93.4431 55.3652 93.6895 51.4946 95.372L51.6499 96.5011C46.6113 96.6422 42.3913 101.695 41.0364 108.568V109.218C40.3523 109.472 39.7485 109.905 39.2871 110.47C38.8257 111.036 38.5234 111.714 38.4112 112.435C37.9897 113.891 38.0143 115.44 38.4818 116.881C39.1592 119.012 40.4295 119.986 41.6856 119.902V120.579C44.5083 128.934 49.6598 133.648 56.3074 134.396C56.6127 140.318 56.21 146.255 55.1077 152.081C52.4058 166.237 54.5225 180.89 61.1201 193.702L63.4066 197.089C56.5607 206.581 52.8234 217.961 52.7084 229.664C52.7084 267.291 92.5937 298.313 144.137 302.843C144.518 307.642 144.701 321.375 143.615 327.768C139.987 326.578 136.055 326.718 132.521 328.163C129.724 329.303 127.335 331.259 125.666 333.777C123.997 336.295 123.125 339.257 123.164 342.277V343.956C123.164 347.033 126.805 350.11 134.074 351.451C137.131 352.001 140.261 352.001 143.318 351.451C150.587 350.039 154.214 347.033 154.214 343.956V342.545L160.071 303.45C165.182 303.355 170.284 302.993 175.356 302.363C178.391 307.36 184.94 319.13 186.647 324.282C183.185 325.217 180.153 327.321 178.066 330.238C176.349 332.669 175.393 335.554 175.317 338.529C175.242 341.504 176.051 344.434 177.643 346.949L178.334 348.078C179.845 350.533 184.149 351.281 190.444 349.023C193.931 347.768 197.111 345.786 199.773 343.208C204.402 338.763 205.63 334.74 204.247 332.299L190.133 299.71C200.291 297.358 210.111 293.735 219.363 288.927L219.589 288.772C224.358 292.752 229.684 296.014 235.396 298.454C239.034 299.993 242.537 301.835 245.868 303.958L248.79 307.063C246.983 310.225 246.659 314.783 248 319.512L248.254 319.949C247.761 320.491 247.417 321.152 247.256 321.867C247.096 322.582 247.123 323.327 247.336 324.028C247.622 325.514 248.339 326.883 249.397 327.966C250.978 329.603 252.587 329.885 253.631 329.208L254.111 330.012C260.942 336.702 270.539 337.196 275.013 334.98C277.132 334.626 279.157 333.841 280.96 332.673C282.764 331.505 284.309 329.98 285.5 328.191C287.212 325.739 288.275 322.893 288.588 319.919C288.902 316.945 288.456 313.94 287.292 311.184V311.184ZM154.341 149.583C151.914 149.583 149.585 149.667 147.454 149.794C147.96 137.816 146.627 125.831 143.502 114.256L141.639 105.788C145.873 113.423 155.95 124.136 165.053 125.124C164.883 133.403 163.751 141.635 161.68 149.653C159.521 149.597 156.557 149.583 154.341 149.583Z" fill="#E3FFFF"/>
<path d="M167.947 70.2218C164.002 70.0402 160.076 70.8711 156.543 72.6352L154.045 66.1711C151.321 53.737 140.383 45.7063 127.215 45.7063C123.556 45.6233 119.918 46.2722 116.514 47.6149C113.11 48.9575 110.009 50.9668 107.392 53.5247C104.776 56.0827 102.697 59.1377 101.277 62.5103C99.8579 65.883 99.1267 69.5053 99.1267 73.1645C99.1267 76.8237 99.8579 80.4459 101.277 83.8186C102.697 87.1913 104.776 90.2463 107.392 92.8042C110.009 95.3621 113.11 97.3714 116.514 98.7141C119.918 100.057 123.556 100.706 127.215 100.623C129.851 100.622 132.474 100.247 135.005 99.5077L140.467 98.7032C140.658 104.099 142.433 109.32 145.571 113.714C148.709 118.108 153.07 121.482 158.112 123.415C163.154 125.347 168.653 125.753 173.924 124.582C179.195 123.411 184.005 120.715 187.754 116.829C191.503 112.943 194.025 108.04 195.007 102.73C195.988 97.4208 195.386 91.9399 193.274 86.9705C191.162 82.0012 187.634 77.7632 183.131 74.7849C178.627 71.8066 173.346 70.2196 167.947 70.2218V70.2218Z" fill="white"/>
<path d="M129.98 73.75C126.142 82.9944 116.784 87.8637 109.106 84.7022C101.428 81.5407 98.2952 71.4212 102.134 62.1203C105.973 52.8194 115.33 48.0066 123.008 51.1539C130.686 54.3013 133.819 64.4914 129.98 73.75Z" fill="#27AAE1"/>
<path d="M109.135 69.1628C111.473 69.1628 113.369 67.2671 113.369 64.9287C113.369 62.5903 111.473 60.6946 109.135 60.6946C106.797 60.6946 104.901 62.5903 104.901 64.9287C104.901 67.2671 106.797 69.1628 109.135 69.1628Z" fill="#081E7A"/>
<path d="M134.864 327.443C131.516 328.315 128.554 330.279 126.45 333.025C124.345 335.771 123.219 339.142 123.248 342.602V343.9C123.248 346.723 126.424 349.658 132.775 351.112C136.729 352.001 140.832 352.001 144.786 351.112C151.137 349.701 154.298 346.779 154.298 343.9V342.489C154.302 340.115 153.76 337.772 152.717 335.641C151.673 333.509 150.154 331.645 148.277 330.192C146.4 328.739 144.215 327.736 141.89 327.259C139.565 326.783 137.161 326.846 134.864 327.443Z" fill="#67DAFF"/>
<path d="M182.272 325.976C180.574 327.019 179.098 328.386 177.929 330C176.76 331.614 175.92 333.442 175.457 335.381C174.994 337.319 174.918 339.33 175.233 341.298C175.547 343.265 176.246 345.152 177.29 346.85L178.01 348.021C179.026 349.672 181.313 350.562 184.615 350.265C188.284 349.743 191.807 348.47 194.963 346.528C198.12 344.586 200.843 342.014 202.963 338.974C204.713 336.152 204.953 333.724 203.937 332.073L203.217 330.887C202.167 329.187 200.791 327.711 199.169 326.543C197.547 325.375 195.71 324.54 193.764 324.083C191.818 323.627 189.802 323.559 187.83 323.884C185.858 324.209 183.969 324.919 182.272 325.976V325.976Z" fill="#67DAFF"/>
<path d="M256.355 222.537C256.355 235.239 246.631 248.026 227.182 257.821C224.571 259.134 221.833 260.361 219.01 261.491L201.961 267.009C164.56 276.465 117.646 273.402 86.3979 257.75C66.9492 248.026 57.2249 235.281 57.2249 222.466L57.9024 205.812C57.9024 205.812 53.3154 213.998 52.3557 229.594C49.8434 270.255 99.1285 303.366 156.797 303.366C180.155 303.366 201.721 297.946 219.123 288.801L237.047 276.818C252.163 264.031 261.817 247.546 261.267 229.594C260.885 217.639 255.706 205.812 255.706 205.812L256.355 222.537Z" fill="#67DAFF"/>
<path d="M231.769 197.047C231.749 196.819 231.716 196.593 231.67 196.37C231.523 195.413 231.301 194.469 231.007 193.547C228.184 183.413 216.427 154.607 171.292 149.992C171.292 149.992 169.584 181.988 156.317 175.721C155.546 175.078 154.945 174.255 154.566 173.325C154.187 172.394 154.042 171.385 154.143 170.386C155.117 167.366 160.904 153.718 161.581 149.639C159.464 149.639 157.051 149.639 154.369 149.639C151.688 149.639 149.091 149.738 146.762 149.907C147.067 152.872 146.852 155.866 146.127 158.757C145.407 161.354 144.08 164.586 141.244 165.418C140.603 165.665 139.917 165.772 139.231 165.734C138.546 165.696 137.876 165.513 137.266 165.196C136.657 164.88 136.121 164.439 135.695 163.9C135.269 163.362 134.961 162.739 134.794 162.073C134.088 158.912 135.993 151.121 135.993 151.121C82.5447 159.688 82.1636 197.245 82.1636 197.245C81.3168 207.392 88.4442 217.865 103.616 225.938C132.578 241.378 180.564 240.63 209.935 225.938C225.785 218.006 233.067 207.421 231.769 197.047Z" fill="#27AAE1"/>
<path d="M105.282 190.484C110.377 183.978 115.359 199.291 128.993 204.104C118.394 212.587 97.8724 199.955 105.282 190.484Z" fill="#081E7A"/>
<path d="M177.08 108.894C184.281 101.698 184.343 90.0853 177.219 82.9561C170.095 75.8269 158.482 75.881 151.281 83.0768C144.08 90.2726 144.018 101.885 151.142 109.014C158.266 116.144 169.879 116.09 177.08 108.894Z" fill="#27AAE1"/>
<path d="M274.788 334.924C276.907 334.571 278.932 333.787 280.736 332.619C282.54 331.451 284.085 329.925 285.274 328.135C286.937 325.67 287.95 322.825 288.219 319.864C288.488 316.903 288.004 313.923 286.813 311.199C286.686 310.874 286.516 310.507 286.319 310.098C283.75 304.974 275.719 294.065 251.345 284.778C231.586 277.241 221.226 265.442 216.061 257.186C214.936 255.433 213.195 254.165 211.182 253.632C209.168 253.099 207.029 253.34 205.184 254.308C203.34 255.275 201.925 256.899 201.218 258.858C200.512 260.817 200.566 262.97 201.368 264.892C207.949 279.942 220.008 291.926 235.1 298.412C238.734 299.951 242.232 301.792 245.558 303.916L274.788 334.924Z" fill="#E3FFFF"/>
<path d="M40.5847 108.512C41.9961 101.54 46.2302 96.4304 51.3958 96.4304C57.6199 96.4304 62.4186 104.151 64.3945 113.197C66.7515 123.938 64.0417 134.368 57.8175 134.453C50.2526 134.523 44.3672 129.682 41.2339 120.579L40.5847 108.512Z" fill="#67DAFF"/>
<path d="M43.5063 118.391C43.3021 118.86 42.9656 119.258 42.5382 119.538C42.1107 119.818 41.6109 119.967 41.0999 119.967C40.5889 119.967 40.0891 119.818 39.6616 119.538C39.2342 119.258 38.8977 118.86 38.6935 118.391C38.0407 117.23 37.6978 115.92 37.6978 114.588C37.6978 113.255 38.0407 111.945 38.6935 110.784C38.895 110.315 39.2297 109.915 39.6561 109.634C40.0826 109.353 40.5821 109.203 41.0928 109.203C41.6036 109.203 42.1031 109.353 42.5296 109.634C42.956 109.915 43.2907 110.315 43.4922 110.784C44.1445 111.945 44.4884 113.254 44.4909 114.586C44.4933 115.918 44.1543 117.228 43.5063 118.391V118.391Z" fill="#27AAE1"/>
<path d="M49.7023 108.37C49.2384 108.668 48.7066 108.843 48.1566 108.88C47.6066 108.916 47.0564 108.812 46.5573 108.578C46.0583 108.344 45.6267 107.988 45.303 107.542C44.9792 107.096 44.7738 106.575 44.706 106.028C44.4881 104.734 44.67 103.404 45.2273 102.217C45.7846 101.029 46.6909 100.039 47.8252 99.3801C48.2887 99.0857 48.8192 98.9132 49.3673 98.8786C49.9153 98.8439 50.4633 98.9483 50.9602 99.182C51.4572 99.4157 51.8871 99.7712 52.21 100.215C52.5329 100.66 52.7383 101.178 52.8073 101.723C53.0265 103.015 52.8468 104.344 52.2921 105.531C51.7373 106.719 50.834 107.709 49.7023 108.37V108.37Z" fill="#27AAE1"/>
<path d="M54.3456 126.479C54.3899 127.024 54.2934 127.571 54.0653 128.068C53.8372 128.565 53.4851 128.995 53.043 129.316C52.6009 129.638 52.0834 129.841 51.5404 129.905C50.9974 129.969 50.4471 129.892 49.9422 129.683C48.7244 129.223 47.6712 128.411 46.9171 127.35C46.1629 126.289 45.742 125.028 45.708 123.727C45.6675 123.184 45.7671 122.64 45.9973 122.147C46.2276 121.654 46.5807 121.228 47.0228 120.91C47.4649 120.593 47.9811 120.395 48.522 120.334C49.0629 120.274 49.6102 120.353 50.1115 120.565C51.3238 121.02 52.3735 121.826 53.1273 122.878C53.8812 123.931 54.3052 125.184 54.3456 126.479V126.479Z" fill="#27AAE1"/>
<path d="M60.2733 114.539C60.3386 115.829 59.8896 117.094 59.0244 118.054C58.1593 119.014 56.9488 119.592 55.6581 119.662C54.4011 119.514 53.2421 118.91 52.401 117.964C51.5599 117.019 51.0952 115.797 51.0952 114.531C51.0952 113.266 51.5599 112.044 52.401 111.099C53.2421 110.153 54.4011 109.549 55.6581 109.401C56.95 109.474 58.1606 110.055 59.0253 111.018C59.8901 111.98 60.3387 113.246 60.2733 114.539Z" fill="#27AAE1"/>
<path d="M247.731 319.455C245.769 312.525 247.378 305.92 251.965 303.62C257.611 300.797 265.317 305.624 271.146 312.864C278.062 321.473 280.32 332.143 274.731 334.924C270.257 337.14 260.617 336.646 253.828 329.956L247.731 319.455Z" fill="#67DAFF"/>
<path d="M254.69 326.808C254.714 327.321 254.588 327.829 254.327 328.271C254.066 328.712 253.681 329.068 253.22 329.293C252.759 329.518 252.242 329.603 251.733 329.538C251.224 329.473 250.746 329.26 250.357 328.925C249.255 328.165 248.365 327.136 247.772 325.936C247.18 324.735 246.903 323.403 246.969 322.066C246.949 321.554 247.078 321.046 247.341 320.606C247.604 320.165 247.99 319.811 248.451 319.587C248.912 319.362 249.429 319.277 249.938 319.341C250.446 319.406 250.926 319.617 251.316 319.949C252.422 320.705 253.313 321.734 253.904 322.936C254.495 324.137 254.765 325.471 254.69 326.808Z" fill="#27AAE1"/>
<path d="M255.762 315.08C255.478 315.556 255.078 315.953 254.599 316.232C254.12 316.512 253.578 316.665 253.024 316.678C252.469 316.69 251.921 316.562 251.43 316.305C250.938 316.048 250.521 315.67 250.215 315.207C249.442 314.142 249.011 312.866 248.981 311.55C248.951 310.233 249.322 308.939 250.046 307.84C250.33 307.366 250.73 306.972 251.208 306.695C251.685 306.418 252.225 306.265 252.777 306.253C253.329 306.24 253.876 306.367 254.366 306.623C254.855 306.878 255.273 307.253 255.578 307.713C256.354 308.776 256.787 310.051 256.82 311.368C256.853 312.684 256.484 313.979 255.762 315.08Z" fill="#27AAE1"/>
<path d="M268.083 329.25C268.362 329.722 268.515 330.257 268.528 330.805C268.541 331.352 268.413 331.894 268.157 332.378C267.9 332.863 267.524 333.273 267.064 333.57C266.604 333.868 266.075 334.042 265.529 334.077C264.224 334.222 262.905 333.972 261.743 333.361C260.581 332.75 259.629 331.805 259.008 330.648C258.729 330.178 258.575 329.645 258.562 329.099C258.548 328.553 258.674 328.012 258.929 327.529C259.184 327.046 259.559 326.637 260.018 326.34C260.476 326.043 261.004 325.869 261.549 325.835C262.854 325.686 264.175 325.932 265.34 326.541C266.504 327.149 267.46 328.093 268.083 329.25V329.25Z" fill="#27AAE1"/>
<path d="M268.069 315.856C268.387 316.702 268.453 317.622 268.258 318.505C268.064 319.388 267.618 320.195 266.973 320.829C266.329 321.463 265.515 321.897 264.63 322.078C263.744 322.258 262.825 322.178 261.984 321.847C261.143 321.516 260.416 320.947 259.892 320.211C259.367 319.475 259.067 318.603 259.029 317.7C258.99 316.797 259.214 315.902 259.674 315.124C260.134 314.346 260.809 313.718 261.619 313.316C262.812 312.804 264.159 312.783 265.366 313.259C266.574 313.735 267.545 314.668 268.069 315.856Z" fill="#27AAE1"/>
<path d="M159.944 95.979C162.283 95.979 164.178 94.0833 164.178 91.7448C164.178 89.4064 162.283 87.5107 159.944 87.5107C157.606 87.5107 155.71 89.4064 155.71 91.7448C155.71 94.0833 157.606 95.979 159.944 95.979Z" fill="#081E7A"/>
<path d="M114.004 86.3817C112.115 86.3911 110.245 85.9998 108.517 85.2334C106.79 84.4671 105.245 83.3432 103.984 81.9359L105.028 80.9903C106.233 82.3199 107.718 83.3659 109.375 84.0529C116.686 87.0874 125.634 82.3452 129.332 73.4677C133.03 64.5902 130.066 54.8799 122.741 51.8596C121.746 51.4522 120.702 51.1769 119.636 51.041L119.819 49.6296C121.013 49.7735 122.182 50.0822 123.291 50.547C131.322 53.892 134.582 64.4067 130.63 74.004C127.469 81.6113 120.68 86.3817 114.004 86.3817Z" fill="#081E7A"/>
<path d="M144.264 326.046L142.853 325.665C144.476 320.02 143.375 305.821 142.853 302.984L144.264 302.716C144.73 305.087 146.056 319.879 144.264 326.046Z" fill="#081E7A"/>
<path d="M138.082 352.481C136.007 352.484 133.938 352.252 131.915 351.79C125.606 350.378 121.837 347.4 121.837 343.9V342.658C121.794 339.418 122.723 336.239 124.504 333.532C126.284 330.824 128.835 328.712 131.827 327.468C134.819 326.224 138.116 325.905 141.291 326.553C144.466 327.2 147.375 328.783 149.641 331.099L148.625 332.087C146.556 329.964 143.897 328.512 140.993 327.917C138.089 327.323 135.073 327.614 132.336 328.753C129.599 329.891 127.267 331.826 125.642 334.305C124.017 336.784 123.173 339.694 123.221 342.658V343.9C123.221 346.723 126.664 349.15 132.197 350.42C136.048 351.295 140.046 351.295 143.897 350.42C149.43 349.15 152.859 346.666 152.859 343.9L158.956 303.281L160.368 303.492L154.313 343.999C154.313 347.386 150.559 350.336 144.25 351.775C142.227 352.243 140.158 352.48 138.082 352.481V352.481Z" fill="#081E7A"/>
<path d="M185.194 322.419C184.629 318.27 175.978 305.116 174.468 303.295L175.554 302.406C176.796 303.902 185.97 317.592 186.591 322.235L185.194 322.419Z" fill="#081E7A"/>
<path d="M183.401 351.028C180.578 351.028 178.475 350.11 177.417 348.389L176.683 347.217C174.9 344.304 174.103 340.894 174.41 337.492C174.717 334.09 176.111 330.878 178.388 328.331C180.664 325.784 183.7 324.038 187.046 323.352C190.392 322.666 193.87 323.076 196.964 324.522L196.372 325.807C193.552 324.481 190.38 324.101 187.327 324.723C184.274 325.345 181.503 326.936 179.427 329.259C177.352 331.582 176.081 334.514 175.805 337.617C175.53 340.721 176.263 343.83 177.897 346.483L178.617 347.655C179.534 349.137 181.637 349.828 184.544 349.56C188.09 349.051 191.494 347.821 194.546 345.944C197.597 344.068 200.231 341.585 202.285 338.65C203.838 336.166 204.176 333.978 203.259 332.497L189.145 299.668L190.444 299.118L204.557 331.847C205.715 333.724 205.376 336.434 203.527 339.398C201.349 342.511 198.556 345.144 195.32 347.134C192.084 349.125 188.474 350.431 184.714 350.971C184.234 351.014 183.782 351.028 183.401 351.028Z" fill="#081E7A"/>
<path d="M237.414 277.424L236.511 276.352C251.966 263.268 260.504 246.713 260.504 229.664C260.504 209.552 249.129 190.809 228.48 176.893L229.271 175.721C250.314 189.835 261.916 209.072 261.916 229.664C261.944 247.108 253.25 264.073 237.414 277.424Z" fill="#081E7A"/>
<path d="M156.769 304.142C98.7754 304.142 51.6074 270.735 51.6074 229.664C51.6074 205.572 68.1769 182.863 95.9244 168.975L96.5595 170.231C69.2919 183.95 53.0188 206.193 53.0188 229.735C53.0188 270.015 99.594 302.801 156.769 302.801C179.35 302.801 200.747 297.791 218.77 288.32L219.419 289.563C201.213 299.047 179.548 304.142 156.769 304.142Z" fill="#081E7A"/>
<path d="M219.278 262.069L218.756 260.77C221.579 259.627 224.303 258.413 226.871 257.115C245.431 247.842 255.649 235.563 255.649 222.536H257.06C257.06 236.128 246.56 248.858 227.506 258.385C224.895 259.684 222.129 260.94 219.278 262.069Z" fill="#081E7A"/>
<path d="M156.754 273.078C130.856 273.078 105.324 268.025 86.0448 258.385C66.7654 248.746 56.4766 236.128 56.4766 222.536H57.8879C57.8879 235.563 68.1062 247.842 86.6658 257.115C117.137 272.358 163.402 276.027 201.791 266.246L202.13 267.658C187.285 271.325 172.045 273.145 156.754 273.078Z" fill="#081E7A"/>
<path d="M161.539 150.345C159.436 150.345 157.023 150.345 154.341 150.345V148.934C157.037 148.934 159.45 148.934 161.567 148.934L161.539 150.345Z" fill="#081E7A"/>
<path d="M155.936 237.949C145.433 237.994 134.96 236.815 124.731 234.434L125.055 233.023C153 239.699 186.972 236.594 209.61 225.274C224.543 217.808 232.376 207.534 231.092 197.047C231.092 196.976 231.091 196.779 230.993 196.412C230.853 195.455 230.636 194.511 230.343 193.589C227.21 182.115 215.171 155.016 171.235 150.528L171.376 149.117C217.444 153.831 229.243 184.048 231.698 193.194C232.002 194.149 232.233 195.126 232.39 196.116C232.437 196.358 232.47 196.603 232.489 196.849C233.9 207.886 225.742 218.683 210.246 226.488C195.37 234.011 175.653 237.949 155.936 237.949Z" fill="#081E7A"/>
<path d="M103.334 226.573C88.557 218.698 80.611 207.985 81.5142 197.188C81.5142 196.864 82.5163 158.983 135.908 150.373L136.134 151.785C83.9136 160.253 82.9256 196.948 82.9256 197.287C82.0647 207.548 89.7425 217.752 103.997 225.345L103.334 226.573Z" fill="#081E7A"/>
<path d="M120.44 207.618C115.211 207.552 110.203 205.504 106.425 201.888C102.558 198.063 101.923 193.632 104.731 190.047C105.064 189.535 105.507 189.104 106.027 188.784C106.546 188.464 107.131 188.264 107.738 188.198C110.01 188.057 112.268 190.357 115.133 193.265C118.633 196.821 122.995 201.239 129.247 203.441C129.366 203.483 129.472 203.557 129.554 203.653C129.635 203.75 129.69 203.866 129.713 203.991C129.734 204.114 129.722 204.241 129.677 204.358C129.633 204.475 129.557 204.577 129.459 204.654C126.882 206.649 123.697 207.695 120.44 207.618V207.618ZM105.846 190.908C102.501 195.142 105.846 199.376 107.427 200.886C112.31 205.713 121.456 208.084 127.511 204.287C121.64 201.874 117.504 197.668 114.131 194.253C111.52 191.599 109.431 189.51 107.822 189.609C107.419 189.67 107.033 189.817 106.692 190.042C106.351 190.266 106.062 190.561 105.846 190.908V190.908Z" fill="#081E7A"/>
<path d="M139.889 166.491H139.719C138.787 166.48 137.868 166.262 137.028 165.855C136.189 165.448 135.45 164.86 134.864 164.134C134.336 163.463 133.964 162.683 133.776 161.85C133.588 161.018 133.589 160.154 133.778 159.321C140.03 130.741 136.05 111.772 131.562 100.89L132.874 100.354C137.419 111.419 141.498 130.684 135.147 159.632C134.996 160.261 134.991 160.916 135.133 161.547C135.275 162.178 135.56 162.769 135.965 163.273C136.417 163.839 136.99 164.296 137.643 164.611C138.295 164.927 139.009 165.091 139.734 165.094C140.353 165.117 140.971 165.015 141.551 164.795C142.131 164.574 142.66 164.239 143.107 163.809C146.466 161.156 148.569 142.469 144.518 122.089L145.93 121.821C149.91 142.06 148.174 161.607 144.01 164.966C142.873 165.968 141.404 166.511 139.889 166.491Z" fill="#081E7A"/>
<path d="M159.337 177.359H158.688C157.821 177.291 156.983 177.014 156.245 176.552C155.508 176.09 154.893 175.456 154.454 174.705C153.973 173.877 153.693 172.947 153.64 171.99C153.586 171.034 153.758 170.078 154.144 169.201C160.904 153.549 164.348 138.8 164.376 125.35H165.787C165.787 138.998 162.273 153.93 155.442 169.765C155.15 170.443 155.024 171.18 155.073 171.916C155.122 172.653 155.345 173.367 155.724 174C156.046 174.55 156.494 175.017 157.031 175.36C157.569 175.704 158.18 175.915 158.815 175.975C160.089 176.039 161.361 175.822 162.541 175.34C166.775 173.703 173.536 150.19 171.447 125.66L172.858 125.547C174.834 148.75 168.907 174.423 162.979 176.653C161.817 177.103 160.584 177.342 159.337 177.359V177.359Z" fill="#081E7A"/>
<path d="M127.214 101.328C121.881 101.344 116.652 99.8479 112.134 97.014C107.616 94.1802 103.993 90.1242 101.685 85.3159C99.3766 80.5076 98.4781 75.1439 99.0931 69.846C99.7081 64.548 101.812 59.5328 105.16 55.3811C108.508 51.2295 112.964 48.1113 118.011 46.3879C123.058 44.6644 128.491 44.4062 133.679 45.6432C138.867 46.8801 143.598 49.5616 147.325 53.377C151.052 57.1924 153.621 61.9856 154.736 67.2013L153.325 67.4977C152.259 62.5468 149.812 57.9991 146.269 54.3808C142.725 50.7625 138.23 48.2215 133.302 47.052C128.375 45.8825 123.217 46.1323 118.425 47.7723C113.634 49.4124 109.405 52.3758 106.228 56.3195C103.05 60.2632 101.055 65.026 100.472 70.0568C99.8891 75.0875 100.743 80.1804 102.934 84.7462C105.125 89.3119 108.565 93.1638 112.854 95.8561C117.144 98.5484 122.108 99.9709 127.172 99.9592C129.742 99.9603 132.299 99.5944 134.765 98.8724L135.16 100.284C132.575 101.008 129.899 101.36 127.214 101.328Z" fill="#081E7A"/>
<path d="M167.947 125.97C161.731 125.977 155.688 123.932 150.754 120.153C145.82 116.374 142.271 111.072 140.658 105.07C139.044 99.0678 139.457 92.7011 141.832 86.9576C144.207 81.2141 148.411 76.415 153.791 73.3047C159.172 70.1944 165.429 68.9469 171.591 69.7557C177.753 70.5646 183.476 73.3846 187.872 77.7781C192.268 82.1717 195.091 87.8933 195.903 94.055C196.715 100.217 195.471 106.474 192.363 111.857L191.135 111.151C194.41 105.469 195.489 98.7833 194.167 92.3594C192.846 85.9355 189.216 80.2185 183.965 76.2898C178.714 72.3611 172.204 70.493 165.669 71.0389C159.133 71.5849 153.024 74.5069 148.498 79.2525C143.971 83.998 141.34 90.2379 141.103 96.792C140.865 103.346 143.038 109.76 147.21 114.82C151.382 119.881 157.264 123.237 163.743 124.254C170.222 125.271 176.849 123.878 182.371 120.339L183.133 121.525C178.598 124.424 173.329 125.967 167.947 125.97Z" fill="#081E7A"/>
<path d="M164.249 114.679C161.771 114.683 159.317 114.204 157.023 113.268C154.724 112.332 152.636 110.946 150.882 109.191C149.127 107.436 147.741 105.348 146.804 103.05C145.83 100.733 145.328 98.245 145.328 95.7317C145.328 93.2184 145.83 90.7304 146.804 88.4137C148.757 83.7475 152.47 80.0388 157.138 78.0917C161.806 76.1446 167.054 76.1159 171.743 78.0119C174.042 78.95 176.131 80.3367 177.888 82.0912C179.645 83.8456 181.035 85.9327 181.976 88.2303C182.947 90.5479 183.447 93.0355 183.447 95.5482C183.447 98.0609 182.947 100.549 181.976 102.866L180.663 102.316C181.568 100.172 182.034 97.8682 182.034 95.5412C182.034 93.2141 181.568 90.9107 180.663 88.7666C179.794 86.6428 178.51 84.7138 176.887 83.0925C175.263 81.4712 173.332 80.1902 171.207 79.3245C166.862 77.5689 162.001 77.5963 157.676 79.4007C153.351 81.2051 149.912 84.6412 148.103 88.9642C147.202 91.109 146.737 93.4122 146.737 95.7387C146.737 98.0653 147.202 100.368 148.103 102.513C148.971 104.639 150.254 106.571 151.878 108.194C153.502 109.818 155.433 111.102 157.559 111.969C161.205 113.456 165.242 113.687 169.034 112.627C172.826 111.566 176.158 109.274 178.504 106.112L179.633 106.959C177.845 109.353 175.524 111.297 172.853 112.637C170.183 113.977 167.237 114.677 164.249 114.679Z" fill="#081E7A"/>
<path d="M73.6957 179.08C71.4943 168.157 71.745 156.882 74.4296 146.068C80.2303 121.298 76.095 108.737 73.1029 103.459C72.8771 103.049 72.6654 102.711 72.4819 102.428C70.3155 98.9905 66.9853 96.446 63.0988 95.2593C59.2123 94.0726 55.0287 94.3229 51.3114 95.9644L50.7468 94.6801C53.0889 93.6669 55.6191 93.1618 58.1706 93.1981C61.2623 93.1873 64.3066 93.9579 67.0207 95.4383C69.7349 96.9188 72.031 99.0611 73.6957 101.666C73.9356 102.022 74.157 102.389 74.359 102.767C77.4499 108.229 81.7405 121.115 75.841 146.393C73.1881 157.024 72.9374 168.113 75.1071 178.854L73.6957 179.08Z" fill="#081E7A"/>
<path d="M60.1041 194.027C53.4345 181.075 51.293 166.264 54.0211 151.954C54.6832 148.578 55.0983 145.158 55.2631 141.721H56.6744C56.5097 145.261 56.09 148.785 55.4183 152.264C52.737 166.266 54.8292 180.762 61.3602 193.434L60.1041 194.027Z" fill="#081E7A"/>
<path d="M274.914 335.615L274.674 334.204C276.696 333.865 278.628 333.115 280.349 332.001C282.07 330.887 283.544 329.432 284.681 327.726C286.283 325.36 287.26 322.627 287.522 319.781C287.783 316.936 287.321 314.071 286.177 311.453C286.036 311.128 285.881 310.775 285.683 310.38C282.959 304.946 274.858 294.46 251.09 285.399C231.331 277.862 220.802 266.077 215.51 257.524C214.483 255.912 212.889 254.745 211.043 254.253C209.196 253.762 207.232 253.981 205.54 254.869C203.848 255.757 202.552 257.248 201.907 259.047C201.262 260.845 201.317 262.821 202.059 264.581C208.554 279.472 220.48 291.328 235.41 297.734C239.082 299.291 242.618 301.151 245.981 303.295L245.219 304.48C241.92 302.385 238.455 300.563 234.86 299.033C219.592 292.492 207.386 280.387 200.719 265.174C199.843 263.089 199.781 260.752 200.546 258.623C201.31 256.495 202.845 254.731 204.847 253.68C206.849 252.628 209.172 252.366 211.358 252.944C213.544 253.523 215.433 254.9 216.653 256.804C221.847 265.174 232.178 276.705 251.556 284.114C275.775 293.345 284.018 304.156 286.84 309.787C287.052 310.196 287.221 310.578 287.377 310.916C288.615 313.753 289.116 316.857 288.832 319.939C288.548 323.021 287.489 325.981 285.754 328.544C284.519 330.394 282.921 331.975 281.058 333.19C279.195 334.405 277.105 335.23 274.914 335.615V335.615Z" fill="#081E7A"/>
<path d="M57.7892 135.215C49.8432 135.215 43.7461 130.092 40.627 120.791L42.0383 120.353C44.9457 129.019 50.5065 133.804 57.8598 133.804C60.6825 133.804 62.8278 131.32 63.9145 127.001L65.3259 127.34C64.0698 132.336 61.3741 135.201 57.9303 135.215H57.7892Z" fill="#081E7A"/>
<path d="M64.2109 116.232C64.0839 115.286 63.9145 114.341 63.7028 113.409C61.9386 105.336 57.4363 97.2207 51.3957 97.2207C47.9237 97.2207 44.6634 99.8176 42.6452 104.278L41.3608 103.699C43.619 98.7167 47.345 95.8093 51.3957 95.8093C57.4081 95.8093 62.7713 102.612 65.086 113.127C65.2977 114.101 65.467 115.089 65.6082 116.077L64.2109 116.232Z" fill="#081E7A"/>
<path d="M44.0568 118.744L42.8571 117.982C43.434 116.931 43.7365 115.751 43.7365 114.552C43.7365 113.353 43.434 112.174 42.8571 111.123C42.6863 110.797 42.4392 110.518 42.1368 110.309C41.8344 110.1 41.4859 109.968 41.1211 109.923C40.7407 109.958 40.3754 110.089 40.0595 110.304C39.7435 110.519 39.4872 110.81 39.3146 111.151C38.7287 112.202 38.4212 113.385 38.4212 114.588C38.4212 115.791 38.7287 116.974 39.3146 118.024L38.1149 118.772C37.3899 117.497 37.0087 116.055 37.0087 114.588C37.0087 113.12 37.3899 111.678 38.1149 110.403C38.4051 109.854 38.834 109.39 39.359 109.059C39.8839 108.727 40.4866 108.538 41.107 108.512C41.7166 108.545 42.3076 108.734 42.8238 109.06C43.34 109.386 43.7644 109.839 44.0568 110.375C44.7818 111.65 45.163 113.092 45.163 114.559C45.163 116.027 44.7818 117.469 44.0568 118.744V118.744Z" fill="#081E7A"/>
<path d="M49.9705 109.006L49.3072 107.75C50.3111 107.17 51.1123 106.296 51.6022 105.246C52.092 104.195 52.2467 103.02 52.0452 101.878C51.9838 101.45 51.8246 101.041 51.5799 100.684C51.3351 100.326 51.0114 100.03 50.6339 99.8178C50.2205 99.6511 49.7735 99.5846 49.3295 99.6239C48.8854 99.6631 48.457 99.807 48.0793 100.044C47.0863 100.628 46.2925 101.498 45.8015 102.54C45.3106 103.583 45.1452 104.749 45.3271 105.887L43.9157 106.169C43.6655 104.727 43.8643 103.243 44.4853 101.918C45.1063 100.592 46.1195 99.4898 47.3877 98.7593C47.9524 98.4241 48.589 98.2288 49.2445 98.1895C49.9 98.1502 50.5554 98.2682 51.1561 98.5335C51.7458 98.8263 52.2571 99.2556 52.6474 99.7859C53.0377 100.316 53.2958 100.932 53.4002 101.582C53.6595 103.022 53.4695 104.507 52.856 105.835C52.2424 107.163 51.235 108.27 49.9705 109.006V109.006Z" fill="#081E7A"/>
<path d="M51.2121 130.557C50.6991 130.559 50.1892 130.478 49.7019 130.317L50.1394 128.906C50.542 129.061 50.9756 129.119 51.4048 129.075C51.8341 129.031 52.2468 128.886 52.6093 128.652C52.946 128.383 53.2137 128.038 53.3905 127.646C53.5672 127.253 53.6478 126.824 53.6255 126.394C53.5731 125.252 53.1849 124.152 52.5094 123.231C51.834 122.309 50.9015 121.608 49.8289 121.214C49.4259 121.057 48.9911 121 48.5613 121.047C48.1314 121.093 47.719 121.243 47.359 121.482C47.0218 121.747 46.7533 122.089 46.5764 122.48C46.3995 122.871 46.3194 123.298 46.3429 123.726H44.9315C44.9064 123.075 45.0381 122.428 45.3157 121.838C45.5933 121.249 46.0085 120.734 46.5263 120.339C47.0628 119.96 47.6816 119.714 48.3318 119.62C48.982 119.527 49.6451 119.59 50.2665 119.803C51.6407 120.296 52.8335 121.193 53.6875 122.377C54.5416 123.561 55.017 124.976 55.051 126.436C55.0738 127.085 54.941 127.73 54.6635 128.316C54.386 128.903 53.972 129.415 53.4562 129.809C52.8073 130.292 52.0208 130.554 51.2121 130.557V130.557Z" fill="#081E7A"/>
<path d="M55.6582 120.368C54.1962 120.243 52.8343 119.574 51.8418 118.493C50.8493 117.413 50.2986 115.999 50.2986 114.532C50.2986 113.064 50.8493 111.65 51.8418 110.57C52.8343 109.489 54.1962 108.82 55.6582 108.696C57.1358 108.776 58.5228 109.433 59.5206 110.526C60.5184 111.619 61.0472 113.06 60.9932 114.539H59.5818C59.6365 113.436 59.2584 112.356 58.5281 111.528C57.7978 110.7 56.7731 110.19 55.6723 110.107C54.595 110.243 53.6045 110.768 52.8865 111.583C52.1685 112.397 51.7723 113.446 51.7723 114.532C51.7723 115.617 52.1685 116.666 52.8865 117.481C53.6045 118.295 54.595 118.82 55.6723 118.956L55.6582 120.368Z" fill="#081E7A"/>
<path d="M268.775 336.801C263.019 336.766 257.502 334.493 253.391 330.464L254.379 329.448C260.942 335.869 270.271 336.377 274.477 334.289C275.15 333.939 275.731 333.436 276.175 332.821C276.619 332.206 276.912 331.495 277.031 330.746C278.005 326.286 275.451 319.272 270.652 313.316C265.458 306.852 257.766 301.545 252.304 304.241C248.07 306.344 246.475 312.511 248.381 319.272L246.969 319.653C244.88 312.243 246.786 305.384 251.613 302.984C257.018 300.289 264.894 304.001 271.668 312.427C276.721 318.707 279.388 326.187 278.33 331.057C278.159 332.009 277.771 332.91 277.196 333.688C276.621 334.467 275.874 335.102 275.013 335.545C273.053 336.421 270.922 336.85 268.775 336.801V336.801Z" fill="#081E7A"/>
<path d="M252.22 330.224C251.425 330.203 250.652 329.958 249.99 329.518C248.769 328.693 247.784 327.564 247.133 326.243C246.482 324.921 246.188 323.452 246.278 321.981C246.296 321.359 246.476 320.751 246.8 320.219C247.124 319.687 247.581 319.248 248.127 318.947C248.704 318.702 249.334 318.61 249.957 318.68C250.58 318.749 251.174 318.977 251.683 319.342L250.935 320.542C250.647 320.276 250.285 320.104 249.897 320.047C249.509 319.991 249.113 320.053 248.76 320.225C248.408 320.397 248.116 320.672 247.922 321.013C247.729 321.354 247.643 321.746 247.675 322.137C247.626 323.341 247.881 324.539 248.416 325.619C248.951 326.7 249.75 327.628 250.738 328.318C251.026 328.584 251.388 328.757 251.776 328.813C252.165 328.87 252.561 328.808 252.913 328.635C253.265 328.463 253.557 328.188 253.751 327.847C253.945 327.506 254.031 327.114 253.998 326.724L255.409 326.879C255.39 327.501 255.21 328.108 254.886 328.64C254.562 329.172 254.105 329.611 253.561 329.913C253.143 330.118 252.685 330.224 252.22 330.224V330.224Z" fill="#081E7A"/>
<path d="M252.939 317.395C252.293 317.377 251.659 317.211 251.086 316.91C250.514 316.609 250.018 316.181 249.637 315.659C248.76 314.477 248.27 313.053 248.235 311.583C248.2 310.112 248.62 308.667 249.439 307.444C249.787 306.879 250.271 306.411 250.847 306.08C251.422 305.75 252.071 305.569 252.735 305.554C253.398 305.538 254.055 305.689 254.645 305.992C255.235 306.295 255.741 306.741 256.115 307.289L255 308.164C254.74 307.809 254.403 307.516 254.014 307.309C253.626 307.101 253.196 306.983 252.756 306.964C252.317 306.997 251.893 307.131 251.515 307.356C251.138 307.582 250.818 307.892 250.582 308.263C249.95 309.24 249.627 310.386 249.658 311.549C249.688 312.713 250.069 313.84 250.752 314.783C250.988 315.158 251.318 315.466 251.709 315.676C252.099 315.885 252.538 315.99 252.981 315.98C253.425 315.97 253.858 315.846 254.239 315.619C254.62 315.392 254.935 315.07 255.155 314.685L256.312 315.503C255.949 316.053 255.463 316.509 254.892 316.838C254.321 317.166 253.681 317.357 253.024 317.395H252.939Z" fill="#081E7A"/>
<path d="M264.724 334.839C263.414 334.824 262.132 334.456 261.014 333.773C259.896 333.09 258.983 332.117 258.373 330.958C258.071 330.378 257.914 329.734 257.914 329.081C257.914 328.427 258.071 327.783 258.373 327.203C258.695 326.632 259.148 326.146 259.696 325.785C260.243 325.424 260.869 325.199 261.52 325.129L261.732 326.54C261.3 326.585 260.884 326.73 260.517 326.963C260.149 327.195 259.841 327.509 259.615 327.881C259.433 328.273 259.347 328.703 259.364 329.135C259.382 329.567 259.501 329.988 259.714 330.365C260.265 331.39 261.112 332.225 262.143 332.764C263.175 333.302 264.344 333.519 265.5 333.385C265.932 333.349 266.348 333.21 266.714 332.979C267.08 332.748 267.385 332.432 267.603 332.058C267.78 331.665 267.864 331.237 267.849 330.807C267.834 330.376 267.721 329.955 267.519 329.574L268.789 328.953C269.084 329.535 269.238 330.178 269.238 330.831C269.238 331.483 269.084 332.126 268.789 332.708C268.468 333.28 268.015 333.767 267.467 334.127C266.92 334.488 266.294 334.713 265.642 334.782C265.338 334.829 265.031 334.848 264.724 334.839V334.839Z" fill="#081E7A"/>
<path d="M264.315 323.69C263.639 323.686 262.969 323.557 262.339 323.309C260.935 322.739 259.793 321.668 259.135 320.302C258.424 319.001 258.253 317.472 258.66 316.046C259.067 314.62 260.018 313.411 261.309 312.681L261.93 313.951C260.974 314.514 260.277 315.43 259.989 316.502C259.702 317.573 259.846 318.715 260.392 319.681C260.903 320.73 261.782 321.553 262.861 321.996C263.344 322.199 263.864 322.297 264.388 322.282C264.911 322.267 265.425 322.141 265.896 321.911C266.852 321.348 267.549 320.432 267.837 319.361C268.124 318.289 267.98 317.147 267.434 316.181L268.705 315.546C269.42 316.849 269.593 318.381 269.187 319.81C268.78 321.24 267.825 322.451 266.531 323.181C265.84 323.516 265.083 323.689 264.315 323.69Z" fill="#081E7A"/>
</g>
</g>
<defs>
<clipPath id="clip0_728_4549">
<rect width="289" height="330" fill="white"/>
</clipPath>
<clipPath id="clip1_728_4549">
<rect width="252" height="323.655" fill="white" transform="translate(37 45)"/>
</clipPath>
</defs>
</svg>
