<svg id="Capa_1" data-name="Capa 1" xmlns="http://www.w3.org/2000/svg" xmlns:xlink="http://www.w3.org/1999/xlink" viewBox="0 0 379.17 330"><defs><style>.cls-1{fill:none;}.cls-2{opacity:0.1;}.cls-3{fill:#e1e1e1;}.cls-10,.cls-11,.cls-14,.cls-15,.cls-16,.cls-26,.cls-28,.cls-29,.cls-30,.cls-31,.cls-32,.cls-33,.cls-34,.cls-35,.cls-36,.cls-37,.cls-39,.cls-4,.cls-40,.cls-42,.cls-43,.cls-45,.cls-46,.cls-48,.cls-49,.cls-5,.cls-50,.cls-51,.cls-53,.cls-54,.cls-55,.cls-57,.cls-58,.cls-59,.cls-60,.cls-61,.cls-62,.cls-63,.cls-65,.cls-67,.cls-68,.cls-69,.cls-7,.cls-70,.cls-73,.cls-74,.cls-75,.cls-76,.cls-77,.cls-78,.cls-79,.cls-80,.cls-81,.cls-82,.cls-83,.cls-84,.cls-85,.cls-86,.cls-87,.cls-9,.cls-90,.cls-91{stroke:#091e7a;}.cls-10,.cls-14,.cls-15,.cls-26,.cls-28,.cls-29,.cls-30,.cls-31,.cls-32,.cls-33,.cls-34,.cls-35,.cls-37,.cls-4,.cls-40,.cls-42,.cls-43,.cls-45,.cls-46,.cls-48,.cls-49,.cls-5,.cls-50,.cls-51,.cls-53,.cls-54,.cls-55,.cls-57,.cls-58,.cls-59,.cls-60,.cls-61,.cls-62,.cls-63,.cls-64,.cls-65,.cls-67,.cls-68,.cls-69,.cls-7,.cls-70,.cls-73,.cls-74,.cls-75,.cls-76,.cls-77,.cls-78,.cls-79,.cls-80,.cls-81,.cls-82,.cls-83,.cls-84,.cls-85,.cls-86,.cls-87,.cls-88,.cls-9,.cls-90,.cls-91{stroke-miterlimit:10;}.cls-4{fill:url(#Degradado_sin_nombre_12);}.cls-5{fill:url(#Degradado_sin_nombre_12-2);}.cls-6{fill:#d9d9da;}.cls-7{fill:url(#Degradado_sin_nombre_12-3);}.cls-37,.cls-8{fill:#fff;}.cls-9{fill:url(#Degradado_sin_nombre_12-4);}.cls-10,.cls-16,.cls-52{fill:#091e7a;}.cls-11,.cls-57,.cls-71{fill:#e3ffff;}.cls-11,.cls-16,.cls-36,.cls-39{stroke-linejoin:round;}.cls-12{clip-path:url(#clip-path);}.cls-13{fill:#99e5ff;}.cls-14,.cls-19,.cls-23,.cls-27,.cls-33,.cls-42,.cls-45,.cls-48,.cls-59{opacity:0.35;}.cls-14{fill:url(#Degradado_sin_nombre_12-5);}.cls-15{fill:url(#Degradado_sin_nombre_12-6);}.cls-17{fill:#cfcfd1;}.cls-18{clip-path:url(#clip-path-2);}.cls-19{fill:url(#linear-gradient);}.cls-20,.cls-24{opacity:0.5;}.cls-20{fill:url(#linear-gradient-2);}.cls-21{fill:#782412;}.cls-22{clip-path:url(#clip-path-3);}.cls-23{fill:url(#linear-gradient-3);}.cls-24{fill:url(#linear-gradient-4);}.cls-25{fill:#c5c5c7;}.cls-26{fill:url(#Degradado_sin_nombre_12-7);}.cls-28{fill:url(#Degradado_sin_nombre_12-8);}.cls-29{fill:url(#Degradado_sin_nombre_12-9);}.cls-30{fill:url(#Degradado_sin_nombre_12-10);}.cls-31{fill:url(#Degradado_sin_nombre_12-11);}.cls-32{fill:url(#Degradado_sin_nombre_12-12);}.cls-33{fill:url(#Degradado_sin_nombre_12-13);}.cls-34{fill:url(#Degradado_sin_nombre_12-14);}.cls-35{fill:url(#Degradado_sin_nombre_12-15);}.cls-36,.cls-39,.cls-55,.cls-64,.cls-72,.cls-88{fill:#27aae1;}.cls-36{stroke-linecap:round;}.cls-38{fill:#f26c4f;}.cls-40{fill:url(#Degradado_sin_nombre_12-16);}.cls-41{clip-path:url(#clip-path-4);}.cls-42{fill:url(#Degradado_sin_nombre_12-17);}.cls-43{fill:url(#Degradado_sin_nombre_12-18);}.cls-44{clip-path:url(#clip-path-5);}.cls-45{fill:url(#Degradado_sin_nombre_12-19);}.cls-46{fill:url(#Degradado_sin_nombre_12-20);}.cls-47{clip-path:url(#clip-path-6);}.cls-48{fill:url(#Degradado_sin_nombre_12-21);}.cls-49{fill:url(#Degradado_sin_nombre_12-22);}.cls-50{fill:url(#Degradado_sin_nombre_12-23);}.cls-51{fill:url(#Degradado_sin_nombre_12-24);}.cls-53{fill:url(#Degradado_sin_nombre_12-25);}.cls-54{fill:url(#Degradado_sin_nombre_12-26);}.cls-56{fill:url(#Degradado_sin_nombre_3);}.cls-58,.cls-59{fill:url(#Degradado_sin_nombre_12-27);}.cls-60{fill:url(#Degradado_sin_nombre_12-29);}.cls-61{fill:url(#Degradado_sin_nombre_12-30);}.cls-62{fill:url(#Degradado_sin_nombre_12-31);}.cls-63{fill:url(#Degradado_sin_nombre_12-32);}.cls-64,.cls-88{stroke:#081e7a;}.cls-64{stroke-width:1.08px;}.cls-65{fill:url(#Degradado_sin_nombre_12-33);}.cls-66{fill:url(#Degradado_sin_nombre_3-2);}.cls-67{fill:url(#Degradado_sin_nombre_12-34);}.cls-68{fill:url(#Degradado_sin_nombre_12-35);}.cls-69{fill:url(#Degradado_sin_nombre_12-36);}.cls-70{fill:url(#Degradado_sin_nombre_12-37);}.cls-73{fill:url(#Degradado_sin_nombre_12-38);}.cls-74{fill:url(#Degradado_sin_nombre_12-39);}.cls-75{fill:url(#Degradado_sin_nombre_12-40);}.cls-76{fill:url(#Degradado_sin_nombre_12-41);}.cls-77{fill:url(#Degradado_sin_nombre_12-42);}.cls-78{fill:url(#Degradado_sin_nombre_12-43);}.cls-79{fill:url(#Degradado_sin_nombre_12-44);}.cls-80{fill:url(#Degradado_sin_nombre_12-45);}.cls-81{fill:url(#Degradado_sin_nombre_12-46);}.cls-82{fill:url(#Degradado_sin_nombre_12-47);}.cls-83{fill:url(#Degradado_sin_nombre_12-48);}.cls-84{fill:url(#Degradado_sin_nombre_12-49);}.cls-85{fill:url(#Degradado_sin_nombre_12-50);}.cls-86{fill:url(#Degradado_sin_nombre_12-51);}.cls-87{fill:url(#Degradado_sin_nombre_12-52);}.cls-88{stroke-width:0.5px;}.cls-89{fill:url(#Degradado_sin_nombre_3-3);}.cls-90{fill:url(#Degradado_sin_nombre_12-53);}.cls-91{fill:url(#Degradado_sin_nombre_12-54);}</style><linearGradient id="Degradado_sin_nombre_12" x1="265.77" y1="159.37" x2="350.49" y2="105.19" gradientUnits="userSpaceOnUse"><stop offset="0" stop-color="#67daff"/><stop offset="1" stop-color="#fff"/></linearGradient><linearGradient id="Degradado_sin_nombre_12-2" x1="124.36" y1="178.85" x2="49.99" y2="112.6" xlink:href="#Degradado_sin_nombre_12"/><linearGradient id="Degradado_sin_nombre_12-3" x1="27.76" y1="101.01" x2="53.09" y2="101.01" xlink:href="#Degradado_sin_nombre_12"/><linearGradient id="Degradado_sin_nombre_12-4" x1="48.95" y1="109.17" x2="58.8" y2="85.53" xlink:href="#Degradado_sin_nombre_12"/><clipPath id="clip-path"><path class="cls-1" d="M80.34,179.08v0c-3-1.71-7-1.54-11.27.94-9.57,5.53-17.33,20.36-17.33,33.13,0,7,2.31,11.84,6,14v0l21.37,12.48,22.69-48Z"/></clipPath><linearGradient id="Degradado_sin_nombre_12-5" x1="60.75" y1="228.76" x2="87.72" y2="183.51" xlink:href="#Degradado_sin_nombre_12"/><linearGradient id="Degradado_sin_nombre_12-6" x1="84.28" y1="227.3" x2="119.75" y2="154.15" gradientTransform="translate(253 48.21) rotate(66.95)" xlink:href="#Degradado_sin_nombre_12"/><clipPath id="clip-path-2"><path class="cls-1" d="M133.38,148.61v0c-3-1.71-7-1.55-11.26.94-9.58,5.53-17.34,20.36-17.34,33.13,0,7,2.31,11.84,6,14v0l21.37,12.48,22.69-48Z"/></clipPath><linearGradient id="linear-gradient" x1="113.79" y1="198.29" x2="140.76" y2="153.03" gradientUnits="userSpaceOnUse"><stop offset="0" stop-color="#ef4723"/><stop offset="0.5" stop-color="#ef4723" stop-opacity="0"/><stop offset="1" stop-color="#ef4723"/></linearGradient><linearGradient id="linear-gradient-2" x1="137.33" y1="196.83" x2="172.79" y2="123.68" gradientTransform="translate(257.24 -19.14) rotate(66.95)" gradientUnits="userSpaceOnUse"><stop offset="0" stop-color="#ef4723"/><stop offset="1" stop-color="#ef4723" stop-opacity="0"/></linearGradient><clipPath id="clip-path-3"><path class="cls-1" d="M186.67,117.91h0c-3-1.71-7-1.54-11.26.94-9.58,5.53-17.34,20.36-17.34,33.13,0,7,2.31,11.84,6,14v0l21.37,12.47,22.69-48Z"/></clipPath><linearGradient id="linear-gradient-3" x1="167.07" y1="167.58" x2="194.04" y2="122.33" xlink:href="#linear-gradient"/><linearGradient id="linear-gradient-4" x1="190.61" y1="166.12" x2="226.07" y2="92.98" gradientTransform="translate(261.4 -86.85) rotate(66.95)" xlink:href="#linear-gradient-2"/><linearGradient id="Degradado_sin_nombre_12-7" x1="87.25" y1="180.1" x2="136.67" y2="180.1" xlink:href="#Degradado_sin_nombre_12"/><linearGradient id="Degradado_sin_nombre_12-8" x1="64.05" y1="250.03" x2="150.86" y2="123.32" xlink:href="#Degradado_sin_nombre_12"/><linearGradient id="Degradado_sin_nombre_12-9" x1="135.03" y1="164.56" x2="168.81" y2="164.56" xlink:href="#Degradado_sin_nombre_12"/><linearGradient id="Degradado_sin_nombre_12-10" x1="127.51" y1="146.6" x2="207.23" y2="146.6" xlink:href="#Degradado_sin_nombre_12"/><linearGradient id="Degradado_sin_nombre_12-11" x1="110.95" y1="160.43" x2="131.13" y2="160.43" xlink:href="#Degradado_sin_nombre_12"/><linearGradient id="Degradado_sin_nombre_12-12" x1="110.94" y1="157.76" x2="131.13" y2="157.76" xlink:href="#Degradado_sin_nombre_12"/><linearGradient id="Degradado_sin_nombre_12-13" x1="110.68" y1="168.11" x2="137.05" y2="141.74" xlink:href="#Degradado_sin_nombre_12"/><linearGradient id="Degradado_sin_nombre_12-14" x1="115.05" y1="147.57" x2="127.03" y2="147.57" xlink:href="#Degradado_sin_nombre_12"/><linearGradient id="Degradado_sin_nombre_12-15" x1="105.11" y1="163.77" x2="134.44" y2="134.44" xlink:href="#Degradado_sin_nombre_12"/><linearGradient id="Degradado_sin_nombre_12-16" x1="286.53" y1="227.29" x2="160.29" y2="210.81" xlink:href="#Degradado_sin_nombre_12"/><clipPath id="clip-path-4"><path class="cls-1" d="M284.92,171.83v0c-3-1.71-7-1.54-11.26.94-9.57,5.53-17.34,20.36-17.34,33.13,0,7,2.32,11.84,6,14v0l21.37,12.48,22.69-48Z"/></clipPath><linearGradient id="Degradado_sin_nombre_12-17" x1="265.32" y1="221.51" x2="292.29" y2="176.26" xlink:href="#Degradado_sin_nombre_12"/><linearGradient id="Degradado_sin_nombre_12-18" x1="288.86" y1="220.05" x2="324.33" y2="146.9" gradientTransform="translate(370.81 -144.44) rotate(66.95)" xlink:href="#Degradado_sin_nombre_12"/><clipPath id="clip-path-5"><path class="cls-1" d="M233.58,201.11v0c-3-1.71-7-1.55-11.26.94C212.73,207.6,205,222.43,205,235.19c0,7,2.31,11.85,6,14v0l21.37,12.48,22.69-48Z"/></clipPath><linearGradient id="Degradado_sin_nombre_12-19" x1="213.98" y1="250.79" x2="240.95" y2="205.53" xlink:href="#Degradado_sin_nombre_12"/><linearGradient id="Degradado_sin_nombre_12-20" x1="237.52" y1="249.33" x2="272.98" y2="176.18" gradientTransform="translate(366.5 -79.38) rotate(66.95)" xlink:href="#Degradado_sin_nombre_12"/><clipPath id="clip-path-6"><path class="cls-1" d="M176.45,234.78v0c-3-1.71-7-1.54-11.26.94-9.58,5.53-17.34,20.36-17.34,33.13,0,6.95,2.32,11.84,6,14v0l21.37,12.48,22.7-48Z"/></clipPath><linearGradient id="Degradado_sin_nombre_12-21" x1="156.85" y1="284.46" x2="183.82" y2="239.21" xlink:href="#Degradado_sin_nombre_12"/><linearGradient id="Degradado_sin_nombre_12-22" x1="180.39" y1="283" x2="215.85" y2="209.85" gradientTransform="translate(362.73 -6.33) rotate(66.95)" xlink:href="#Degradado_sin_nombre_12"/><linearGradient id="Degradado_sin_nombre_12-23" x1="204.87" y1="185.13" x2="216.82" y2="169" xlink:href="#Degradado_sin_nombre_12"/><linearGradient id="Degradado_sin_nombre_12-24" x1="207.7" y1="188.64" x2="220.08" y2="164.81" xlink:href="#Degradado_sin_nombre_12"/><linearGradient id="Degradado_sin_nombre_12-25" x1="239.71" y1="179.86" x2="251.65" y2="163.73" xlink:href="#Degradado_sin_nombre_12"/><linearGradient id="Degradado_sin_nombre_12-26" x1="242.54" y1="183.36" x2="254.92" y2="159.54" xlink:href="#Degradado_sin_nombre_12"/><linearGradient id="Degradado_sin_nombre_3" x1="123.29" y1="206.92" x2="129.1" y2="219.24" gradientUnits="userSpaceOnUse"><stop offset="0.12" stop-color="#007cde"/><stop offset="0.2" stop-color="#0780df"/><stop offset="0.32" stop-color="#198ae2"/><stop offset="0.47" stop-color="#389be6"/><stop offset="0.62" stop-color="#63b2ec"/><stop offset="0.8" stop-color="#9ad0f4"/><stop offset="0.98" stop-color="#dcf4fe"/><stop offset="1" stop-color="#e5f9ff"/></linearGradient><linearGradient id="Degradado_sin_nombre_12-27" x1="166.35" y1="103.48" x2="190.34" y2="103.48" xlink:href="#Degradado_sin_nombre_12"/><linearGradient id="Degradado_sin_nombre_12-29" x1="166.34" y1="76.7" x2="190.34" y2="76.7" xlink:href="#Degradado_sin_nombre_12"/><linearGradient id="Degradado_sin_nombre_12-30" x1="144.08" y1="76.41" x2="214.56" y2="76.41" xlink:href="#Degradado_sin_nombre_12"/><linearGradient id="Degradado_sin_nombre_12-31" x1="134.19" y1="58.06" x2="210.02" y2="113.47" xlink:href="#Degradado_sin_nombre_12"/><linearGradient id="Degradado_sin_nombre_12-32" x1="150.53" y1="82.58" x2="179.34" y2="82.58" xlink:href="#Degradado_sin_nombre_12"/><linearGradient id="Degradado_sin_nombre_12-33" x1="147.28" y1="86.39" x2="167.26" y2="86.39" xlink:href="#Degradado_sin_nombre_12"/><linearGradient id="Degradado_sin_nombre_3-2" x1="147.33" y1="71.49" x2="167.25" y2="101.36" xlink:href="#Degradado_sin_nombre_3"/><linearGradient id="Degradado_sin_nombre_12-34" x1="218.73" y1="115.16" x2="227.41" y2="115.16" xlink:href="#Degradado_sin_nombre_12"/><linearGradient id="Degradado_sin_nombre_12-35" x1="216.96" y1="120.51" x2="235.69" y2="95.48" xlink:href="#Degradado_sin_nombre_12"/><linearGradient id="Degradado_sin_nombre_12-36" x1="254.84" y1="109.55" x2="221.78" y2="87.72" gradientTransform="translate(83.91 -107.8) rotate(31.07)" xlink:href="#Degradado_sin_nombre_12"/><linearGradient id="Degradado_sin_nombre_12-37" x1="225.17" y1="111.3" x2="270.44" y2="66.03" xlink:href="#Degradado_sin_nombre_12"/><linearGradient id="Degradado_sin_nombre_12-38" x1="190.57" y1="181" x2="153.68" y2="175.26" xlink:href="#Degradado_sin_nombre_12"/><linearGradient id="Degradado_sin_nombre_12-39" x1="140" y1="163.62" x2="169.27" y2="163.62" xlink:href="#Degradado_sin_nombre_12"/><linearGradient id="Degradado_sin_nombre_12-40" x1="138.55" y1="174.67" x2="153.1" y2="160.12" xlink:href="#Degradado_sin_nombre_12"/><linearGradient id="Degradado_sin_nombre_12-41" x1="183.71" y1="188.48" x2="195.65" y2="172.34" xlink:href="#Degradado_sin_nombre_12"/><linearGradient id="Degradado_sin_nombre_12-42" x1="186.54" y1="191.98" x2="198.91" y2="168.15" xlink:href="#Degradado_sin_nombre_12"/><linearGradient id="Degradado_sin_nombre_12-43" x1="157.83" y1="190.12" x2="165.94" y2="179.17" xlink:href="#Degradado_sin_nombre_12"/><linearGradient id="Degradado_sin_nombre_12-44" x1="159.75" y1="192.5" x2="168.16" y2="176.32" xlink:href="#Degradado_sin_nombre_12"/><linearGradient id="Degradado_sin_nombre_12-45" x1="106.22" y1="142.91" x2="114.33" y2="131.95" xlink:href="#Degradado_sin_nombre_12"/><linearGradient id="Degradado_sin_nombre_12-46" x1="108.14" y1="145.29" x2="116.55" y2="129.1" gradientTransform="translate(197.87 -14.02) rotate(66.95)" xlink:href="#Degradado_sin_nombre_12"/><linearGradient id="Degradado_sin_nombre_12-47" x1="-6012.14" y1="141.96" x2="-6004.03" y2="131" gradientTransform="matrix(-1, 0, 0, 1, -5694.25, 0)" xlink:href="#Degradado_sin_nombre_12"/><linearGradient id="Degradado_sin_nombre_12-48" x1="-6010.22" y1="144.34" x2="-6001.82" y2="128.15" gradientTransform="matrix(-0.92, -0.39, -0.39, 0.92, -5159, -2341.47)" xlink:href="#Degradado_sin_nombre_12"/><linearGradient id="Degradado_sin_nombre_12-49" x1="39.43" y1="128.69" x2="47.55" y2="117.73" xlink:href="#Degradado_sin_nombre_12"/><linearGradient id="Degradado_sin_nombre_12-50" x1="41.36" y1="131.07" x2="49.76" y2="114.88" xlink:href="#Degradado_sin_nombre_12"/><linearGradient id="Degradado_sin_nombre_12-51" x1="94.49" y1="218.41" x2="106.44" y2="202.27" xlink:href="#Degradado_sin_nombre_12"/><linearGradient id="Degradado_sin_nombre_12-52" x1="97.32" y1="221.91" x2="109.7" y2="198.08" xlink:href="#Degradado_sin_nombre_12"/><linearGradient id="Degradado_sin_nombre_3-3" x1="178.35" y1="101.85" x2="183.66" y2="101.85" xlink:href="#Degradado_sin_nombre_3"/><linearGradient id="Degradado_sin_nombre_12-53" x1="304.47" y1="105.81" x2="331.97" y2="105.81" xlink:href="#Degradado_sin_nombre_12"/><linearGradient id="Degradado_sin_nombre_12-54" x1="322.62" y1="100.95" x2="333.37" y2="100.95" xlink:href="#Degradado_sin_nombre_12"/></defs><path class="cls-2" d="M374,252.58l-37.27-21.51-13.93,8-12.62-7.29,4.45-2.57a11.85,11.85,0,0,0,0-20.52L197,140.82a28.14,28.14,0,0,0-28.15,0L77.39,193.64,50.6,178.17a11.55,11.55,0,0,0-10.05-.73l-23.2-13.39L-1.28,174.8,36,196.32l9.51-5.49,18.37,10.61L47.38,211a11.85,11.85,0,0,0,0,20.53l116.15,67.05-2.76,1.59-13.93-8-37.27,21.52,18.64,10.76,22.09-12.76a19.08,19.08,0,0,0,18.31-.4l14.45-8.34a28,28,0,0,0,10.09-3.48l103.52-59.77L315,250.19a19.09,19.09,0,0,0,18.31.4l22.1,12.75Z"/><polygon class="cls-2" points="924.21 -243.17 89.7 238.64 63.2 223.88 910.06 -265.05 924.21 -243.17"/><polygon class="cls-2" points="187.61 152.15 213.64 167.14 208.8 169.94 182.73 154.97 187.61 152.15"/><polygon class="cls-2" points="197.36 146.54 223.38 161.53 218.54 164.32 192.48 149.36 197.36 146.54"/><polygon class="cls-2" points="207.08 140.91 233.1 155.9 228.26 158.69 202.2 143.73 207.08 140.91"/><polygon class="cls-2" points="216.82 135.3 242.84 150.29 238.01 153.09 211.94 138.12 216.82 135.3"/><polygon class="cls-2" points="148.64 174.6 174.66 189.59 169.82 192.39 143.76 177.42 148.64 174.6"/><polygon class="cls-2" points="158.38 168.99 184.41 183.99 179.57 186.78 153.5 171.81 158.38 168.99"/><polygon class="cls-2" points="168.1 163.36 194.13 178.35 189.29 181.15 163.22 166.18 168.1 163.36"/><polygon class="cls-2" points="177.85 157.75 203.87 172.74 199.03 175.54 172.97 160.57 177.85 157.75"/><polygon class="cls-2" points="109.8 197.03 135.82 212.03 130.98 214.82 104.92 199.85 109.8 197.03"/><polygon class="cls-2" points="119.54 191.42 145.56 206.42 140.72 209.21 114.66 194.24 119.54 191.42"/><polygon class="cls-2" points="129.26 185.79 155.28 200.79 150.45 203.58 124.38 188.61 129.26 185.79"/><polygon class="cls-2" points="139 180.18 165.03 195.18 160.19 197.97 134.12 183 139 180.18"/><polygon class="cls-2" points="70.82 219.49 96.84 234.48 92.01 237.27 65.94 222.31 70.82 219.49"/><polygon class="cls-2" points="80.57 213.88 106.59 228.87 101.75 231.66 75.68 216.69 80.57 213.88"/><polygon class="cls-2" points="90.29 208.25 116.31 223.24 111.47 226.03 85.41 211.06 90.29 208.25"/><polygon class="cls-2" points="100.03 202.64 126.05 217.63 121.22 220.42 95.15 205.45 100.03 202.64"/><polygon class="cls-2" points="343.4 62.26 369.43 77.25 364.59 80.04 338.52 65.08 343.4 62.26"/><polygon class="cls-2" points="353.15 56.65 379.17 71.64 374.33 74.43 348.27 59.47 353.15 56.65"/><polygon class="cls-2" points="362.87 51.02 388.89 66.01 384.05 68.8 357.99 53.84 362.87 51.02"/><polygon class="cls-2" points="372.61 45.41 398.63 60.4 393.8 63.19 367.73 48.23 372.61 45.41"/><polygon class="cls-2" points="304.43 84.71 330.45 99.7 325.62 102.5 299.55 87.53 304.43 84.71"/><polygon class="cls-2" points="314.18 79.1 340.2 94.09 335.36 96.89 309.29 81.92 314.18 79.1"/><polygon class="cls-2" points="323.89 73.47 349.92 88.46 345.08 91.25 319.01 76.29 323.89 73.47"/><polygon class="cls-2" points="333.64 67.86 359.66 82.85 354.82 85.64 328.76 70.68 333.64 67.86"/><polygon class="cls-2" points="265.59 107.14 291.61 122.14 286.77 124.93 260.71 109.96 265.59 107.14"/><polygon class="cls-2" points="275.33 101.53 301.35 116.53 296.52 119.32 270.45 104.35 275.33 101.53"/><polygon class="cls-2" points="285.05 95.9 311.07 110.89 306.24 113.69 280.17 98.72 285.05 95.9"/><polygon class="cls-2" points="294.8 90.29 320.82 105.28 315.98 108.08 289.91 93.11 294.8 90.29"/><polygon class="cls-2" points="226.61 129.59 252.64 144.59 247.8 147.38 221.73 132.41 226.61 129.59"/><polygon class="cls-2" points="236.36 123.98 262.38 138.98 257.54 141.77 231.48 126.8 236.36 123.98"/><polygon class="cls-2" points="246.08 118.35 272.1 133.35 267.26 136.14 241.2 121.17 246.08 118.35"/><polygon class="cls-2" points="255.82 112.74 281.84 127.74 277.01 130.53 250.94 115.56 255.82 112.74"/><polygon class="cls-2" points="382.16 39.73 408.18 54.72 403.35 57.51 377.28 42.54 382.16 39.73"/><polygon class="cls-2" points="1021.19 -187.39 186.67 294.42 160.18 279.67 1007.04 -209.27 1021.19 -187.39"/><polygon class="cls-2" points="284.59 207.93 310.61 222.92 305.77 225.72 279.71 210.75 284.59 207.93"/><polygon class="cls-2" points="294.33 202.32 320.35 217.31 315.52 220.11 289.45 205.14 294.33 202.32"/><polygon class="cls-2" points="304.05 196.69 330.07 211.68 325.24 214.48 299.17 199.51 304.05 196.69"/><polygon class="cls-2" points="313.8 191.08 339.82 206.07 334.98 208.87 308.91 193.9 313.8 191.08"/><polygon class="cls-2" points="245.61 230.38 271.63 245.38 266.8 248.17 240.73 233.2 245.61 230.38"/><polygon class="cls-2" points="255.36 224.77 281.38 239.76 276.54 242.56 250.47 227.59 255.36 224.77"/><polygon class="cls-2" points="265.08 219.14 291.1 234.14 286.26 236.93 260.2 221.96 265.08 219.14"/><polygon class="cls-2" points="274.82 213.53 300.84 228.53 296.01 231.32 269.94 216.35 274.82 213.53"/><polygon class="cls-2" points="206.77 252.82 232.79 267.81 227.96 270.6 201.89 255.63 206.77 252.82"/><polygon class="cls-2" points="216.51 247.21 242.54 262.2 237.7 264.99 211.63 250.02 216.51 247.21"/><polygon class="cls-2" points="226.24 241.57 252.26 256.57 247.42 259.36 221.35 244.39 226.24 241.57"/><polygon class="cls-2" points="235.98 235.97 262 250.96 257.16 253.75 231.1 238.78 235.98 235.97"/><polygon class="cls-2" points="167.8 275.27 193.82 290.26 188.98 293.05 162.91 278.09 167.8 275.27"/><polygon class="cls-2" points="177.54 269.66 203.56 284.65 198.72 287.44 172.66 272.48 177.54 269.66"/><polygon class="cls-2" points="187.26 264.03 213.28 279.02 208.44 281.81 182.38 266.85 187.26 264.03"/><polygon class="cls-2" points="197 258.42 223.03 273.41 218.19 276.2 192.12 261.24 197 258.42"/><polygon class="cls-2" points="362.56 162.92 388.58 177.92 383.75 180.71 357.68 165.74 362.56 162.92"/><polygon class="cls-2" points="372.31 157.31 398.33 172.31 393.49 175.1 367.42 160.13 372.31 157.31"/><polygon class="cls-2" points="382.03 151.68 408.05 166.68 403.21 169.47 377.14 154.5 382.03 151.68"/><polygon class="cls-2" points="323.59 185.38 349.61 200.37 344.77 203.16 318.71 188.19 323.59 185.38"/><polygon class="cls-2" points="333.33 179.76 359.35 194.76 354.52 197.55 328.45 182.58 333.33 179.76"/><polygon class="cls-2" points="343.05 174.13 369.07 189.13 364.24 191.92 338.17 176.95 343.05 174.13"/><polygon class="cls-2" points="352.8 168.52 378.82 183.52 373.98 186.31 347.91 171.34 352.8 168.52"/><path class="cls-3" d="M249.53,160.86a3.7,3.7,0,0,1-.82-7.3l65.82-15.06V110.22a3.7,3.7,0,0,1,7.39,0v31.22a3.69,3.69,0,0,1-2.87,3.6l-68.69,15.73A4,4,0,0,1,249.53,160.86Z"/><path class="cls-4" d="M249.53,160.86a3.7,3.7,0,0,1-.82-7.3l65.82-15.06V110.22a3.7,3.7,0,0,1,7.39,0v31.22a3.69,3.69,0,0,1-2.87,3.6l-68.69,15.73A4,4,0,0,1,249.53,160.86Z"/><path class="cls-3" d="M109.6,137.82c-43.6-8.77-59.5-12-65.43-13.12v-20a3.7,3.7,0,1,0-7.39,0v22.83c0,.06,0,.12,0,.18a3.67,3.67,0,0,0,1.1,2.61h0a2.59,2.59,0,0,0,.51.42l.06,0a5.21,5.21,0,0,0,.52.28l.13.06a4.28,4.28,0,0,0,.51.15l.2.05.12,0c2.23.41,45.27,9.06,65.25,13.07V172a3.7,3.7,0,0,0,7.39,0V141.44A3.69,3.69,0,0,0,109.6,137.82Z"/><path class="cls-5" d="M109.6,137.82c-43.6-8.77-59.5-12-65.43-13.12v-20a3.7,3.7,0,1,0-7.39,0v22.83c0,.06,0,.12,0,.18a3.67,3.67,0,0,0,1.1,2.61h0a2.59,2.59,0,0,0,.51.42l.06,0a5.21,5.21,0,0,0,.52.28l.13.06a4.28,4.28,0,0,0,.51.15l.2.05.12,0c2.23.41,45.27,9.06,65.25,13.07V172a3.7,3.7,0,0,0,7.39,0V141.44A3.69,3.69,0,0,0,109.6,137.82Z"/><path class="cls-6" d="M31.42,93.54h0a3.22,3.22,0,0,0-2.59,1.95c-1.56,2.83-1.42,7.73.31,10.92.94,1.74,2.16,2.61,3.33,2.6h0l20.61-.53L52.05,93Z"/><path class="cls-7" d="M31.42,93.54h0a3.22,3.22,0,0,0-2.59,1.95c-1.56,2.83-1.42,7.73.31,10.92.94,1.74,2.16,2.61,3.33,2.6h0l20.61-.53L52.05,93Z"/><path class="cls-8" d="M55.28,95.61c1.73,3.2,1.87,8.09.31,10.92s-4.22,2.55-6-.65S47.77,97.8,49.32,95,53.55,92.41,55.28,95.61Z"/><path class="cls-9" d="M55.28,95.61c1.73,3.2,1.87,8.09.31,10.92s-4.22,2.55-6-.65S47.77,97.8,49.32,95,53.55,92.41,55.28,95.61Z"/><path class="cls-10" d="M53.91,98.11a6.54,6.54,0,0,1,.16,5.61c-.8,1.45-2.17,1.31-3.06-.34a6.54,6.54,0,0,1-.16-5.61C51.65,96.32,53,96.47,53.91,98.11Z"/><path class="cls-11" d="M80.34,179.08v0c-3-1.71-7-1.54-11.27.94-9.57,5.53-17.33,20.36-17.33,33.13,0,7,2.31,11.84,6,14v0l21.37,12.48,22.69-48Z"/><g class="cls-12"><polygon class="cls-13" points="38.27 209.8 113.27 253.19 112.97 247.44 37.97 204.06 38.27 209.8"/><polygon class="cls-13" points="36.76 197.91 111.76 241.29 111.46 235.54 36.45 192.16 36.76 197.91"/><polygon class="cls-13" points="37.06 187.06 112.06 230.44 111.76 224.69 36.76 181.31 37.06 187.06"/><polygon class="cls-13" points="41.15 178.49 116.15 221.87 115.84 216.13 40.84 172.74 41.15 178.49"/><polygon class="cls-13" points="46.21 170.37 121.21 213.75 120.9 208 45.9 164.62 46.21 170.37"/></g><path class="cls-14" d="M80.34,179.08v0c-3-1.71-7-1.54-11.27.94-9.57,5.53-17.33,20.36-17.33,33.13,0,7,2.31,11.84,6,14v0l21.37,12.48,22.69-48Z"/><ellipse class="cls-8" cx="90.05" cy="215.41" rx="26.62" ry="15.06" transform="translate(-143.43 213.93) rotate(-66.95)"/><ellipse class="cls-15" cx="90.05" cy="215.41" rx="26.62" ry="15.06" transform="translate(-143.43 213.93) rotate(-66.95)"/><ellipse class="cls-16" cx="90.05" cy="215.41" rx="13.67" ry="7.73" transform="translate(-143.43 213.93) rotate(-66.95)"/><path class="cls-17" d="M133.38,148.61v0c-3-1.71-7-1.55-11.26.94-9.58,5.53-17.34,20.36-17.34,33.13,0,7,2.31,11.84,6,14v0l21.37,12.48,22.69-48Z"/><g class="cls-18"><polygon class="cls-3" points="91.31 179.33 166.31 222.72 166.01 216.97 91.01 173.59 91.31 179.33"/><polygon class="cls-3" points="89.8 167.44 164.8 210.82 164.5 205.07 89.5 161.69 89.8 167.44"/><polygon class="cls-3" points="90.11 156.59 165.11 199.97 164.8 194.22 89.8 150.84 90.11 156.59"/><polygon class="cls-3" points="94.19 148.02 169.19 191.4 168.88 185.65 93.88 142.27 94.19 148.02"/><polygon class="cls-3" points="99.25 139.9 174.25 183.28 173.94 177.53 98.94 134.15 99.25 139.9"/></g><path class="cls-19" d="M133.38,148.61v0c-3-1.71-7-1.55-11.26.94-9.58,5.53-17.34,20.36-17.34,33.13,0,7,2.31,11.84,6,14v0l21.37,12.48,22.69-48Z"/><ellipse class="cls-8" cx="143.09" cy="184.94" rx="26.62" ry="15.06" transform="translate(-83.11 244.19) rotate(-66.95)"/><ellipse class="cls-20" cx="143.09" cy="184.94" rx="26.62" ry="15.06" transform="translate(-83.11 244.19) rotate(-66.95)"/><path class="cls-21" d="M152,179.8c0,6.56-4,14.18-8.9,17s-8.91-.17-8.91-6.73,4-14.17,8.91-17S152,173.24,152,179.8Z"/><path class="cls-17" d="M186.67,117.91h0c-3-1.71-7-1.54-11.26.94-9.58,5.53-17.34,20.36-17.34,33.13,0,7,2.31,11.84,6,14v0l21.37,12.47,22.69-48Z"/><g class="cls-22"><polygon class="cls-3" points="144.59 148.63 219.59 192.01 219.29 186.26 144.29 142.88 144.59 148.63"/><polygon class="cls-3" points="143.08 136.73 218.08 180.11 217.78 174.37 142.78 130.98 143.08 136.73"/><polygon class="cls-3" points="143.39 125.88 218.39 169.26 218.08 163.52 143.08 120.13 143.39 125.88"/><polygon class="cls-3" points="147.47 117.31 222.47 160.69 222.17 154.95 147.16 111.56 147.47 117.31"/><polygon class="cls-3" points="152.53 109.19 227.53 152.57 227.23 146.83 152.22 103.44 152.53 109.19"/></g><path class="cls-23" d="M186.67,117.91h0c-3-1.71-7-1.54-11.26.94-9.58,5.53-17.34,20.36-17.34,33.13,0,7,2.31,11.84,6,14v0l21.37,12.47,22.69-48Z"/><ellipse class="cls-8" cx="196.37" cy="154.24" rx="26.62" ry="15.06" transform="translate(-22.44 274.53) rotate(-66.95)"/><ellipse class="cls-24" cx="196.37" cy="154.24" rx="26.62" ry="15.06" transform="translate(-22.44 274.53) rotate(-66.95)"/><ellipse class="cls-21" cx="196.37" cy="154.24" rx="13.67" ry="7.73" transform="translate(-22.44 274.54) rotate(-66.95)"/><path class="cls-25" d="M90.06,222.54a5.84,5.84,0,0,1-2.59-.6A5.9,5.9,0,0,1,84.76,214l37.6-76.67A5.91,5.91,0,0,1,133,142.57L95.38,219.23A5.91,5.91,0,0,1,90.06,222.54Z"/><path class="cls-10" d="M90.06,222.54a5.84,5.84,0,0,1-2.59-.6A5.9,5.9,0,0,1,84.76,214l37.6-76.67A5.91,5.91,0,0,1,133,142.57L95.38,219.23A5.91,5.91,0,0,1,90.06,222.54Z"/><path class="cls-10" d="M137.85,194.05a5.9,5.9,0,0,1-5.43-8.25l22-50.77a5.91,5.91,0,1,1,10.85,4.69l-22,50.77A5.9,5.9,0,0,1,137.85,194.05Z"/><path class="cls-10" d="M198.22,159.62a5.86,5.86,0,0,1-2.65-.63l-33.33-16.75-31,4.84a5.91,5.91,0,0,1-1.83-11.68L164.17,130l36.71,18.45a5.91,5.91,0,0,1-2.66,11.19Z"/><path class="cls-26" d="M93.16,224.34a5.91,5.91,0,0,1-5.31-8.51l37.6-76.66a5.91,5.91,0,1,1,10.62,5.2L98.47,221A5.91,5.91,0,0,1,93.16,224.34Z"/><g class="cls-27"><path class="cls-28" d="M93.16,224.34a5.91,5.91,0,0,1-5.31-8.51l37.6-76.66a5.91,5.91,0,1,1,10.62,5.2L98.47,221A5.91,5.91,0,0,1,93.16,224.34Z"/></g><path class="cls-29" d="M140.94,195.86a5.92,5.92,0,0,1-5.42-8.26l21.95-50.77a5.91,5.91,0,1,1,10.85,4.69l-21.95,50.77A5.93,5.93,0,0,1,140.94,195.86Z"/><path class="cls-30" d="M201.31,161.42a5.89,5.89,0,0,1-2.65-.63L165.34,144l-31,4.84a5.91,5.91,0,1,1-1.82-11.68l34.75-5.42L204,150.23a5.91,5.91,0,0,1-2.66,11.19Z"/><polygon class="cls-8" points="98.6 159.78 121.04 146.82 152.34 164.89 129.9 177.85 98.6 159.78"/><polygon class="cls-11" points="98.6 159.78 121.04 146.82 152.34 164.89 129.9 177.85 98.6 159.78"/><polygon class="cls-6" points="121.04 125.27 121.04 146.88 147.81 162.34 147.81 140.73 121.04 125.27"/><polygon class="cls-16" points="121.04 125.27 121.04 146.88 147.81 162.34 147.81 140.73 121.04 125.27"/><path class="cls-31" d="M131.13,156.87l-1.2.11a6.1,6.1,0,0,0-1.26-.95c-3.65-2.11-10-1.85-14.24.59a8.52,8.52,0,0,0-2.42,2l-1.06.09v2.68h0a4.27,4.27,0,0,0,2.46,3.47c3.65,2.1,10,1.84,14.24-.59,2.32-1.35,3.5-3.07,3.47-4.7h0Z"/><path class="cls-10" d="M131.13,156.87l-1.2.11a6.1,6.1,0,0,0-1.26-.95c-3.65-2.11-10-1.85-14.24.59a8.52,8.52,0,0,0-2.42,2l-1.06.09v2.68h0a4.27,4.27,0,0,0,2.46,3.47c3.65,2.1,10,1.84,14.24-.59,2.32-1.35,3.5-3.07,3.47-4.7h0Z"/><path class="cls-32" d="M127.65,161.57c-4.22,2.44-10.59,2.7-14.24.59s-3.19-5.78,1-8.22,10.59-2.7,14.24-.59S131.86,159.14,127.65,161.57Z"/><path class="cls-33" d="M127.65,161.57c-4.22,2.44-10.59,2.7-14.24.59s-3.19-5.78,1-8.22,10.59-2.7,14.24-.59S131.86,159.14,127.65,161.57Z"/><path class="cls-34" d="M120.59,133.94h0a6,6,0,0,0-5.54,6v18.24a2.46,2.46,0,0,0,1.46,2.22c2.16,1.25,5.95,1.1,8.45-.35,1.39-.8,2.09-1.83,2.07-2.8h0v-17.3A6,6,0,0,0,120.59,133.94Z"/><g class="cls-27"><path class="cls-35" d="M120.59,133.94h0a6,6,0,0,0-5.54,6v18.24a2.46,2.46,0,0,0,1.46,2.22c2.16,1.25,5.95,1.1,8.45-.35,1.39-.8,2.09-1.83,2.07-2.8h0v-17.3A6,6,0,0,0,120.59,133.94Z"/></g><polygon class="cls-8" points="121.04 125.27 191.63 84.52 259.34 123.61 166.6 177.16 125.66 153.52 147.81 140.73 121.04 125.27"/><polygon class="cls-11" points="121.04 125.27 191.63 84.52 259.34 123.61 166.6 177.16 125.66 153.52 147.81 140.73 121.04 125.27"/><polygon class="cls-6" points="286.54 104.53 259.34 150.09 259.34 123.61 249.07 117.68 235.93 125.27 261.42 82.58 286.54 104.53"/><polygon class="cls-36" points="286.54 104.53 259.34 150.09 259.34 123.61 249.07 117.68 235.93 125.27 261.42 82.58 286.54 104.53"/><polygon class="cls-17" points="182.83 94.6 235.93 125.27 261.42 82.58 209.59 51.41 182.83 94.6"/><polygon class="cls-37" points="182.83 94.6 235.93 125.27 261.42 82.58 209.59 51.41 182.83 94.6"/><polygon class="cls-17" points="166.6 226.62 259.34 173.07 259.34 123.61 166.6 177.16 166.6 226.62"/><polygon class="cls-3" points="254.59 161.09 233.5 173.27 233.5 145.14 254.59 132.96 254.59 161.09"/><polygon class="cls-38" points="227.41 158.45 206.32 170.63 206.32 160.86 227.41 148.68 227.41 158.45"/><polygon class="cls-39" points="166.6 226.62 259.34 173.07 259.34 123.61 166.6 177.16 166.6 226.62"/><polygon class="cls-6" points="166.6 226.62 98.6 187.39 98.6 159.77 125.66 175.36 125.66 153.52 166.6 177.16 166.6 226.62"/><polygon class="cls-17" points="102.88 183.72 114.85 190.63 114.85 174.68 102.88 167.76 102.88 183.72"/><polygon class="cls-3" points="116.5 181.66 130.05 189.48 130.05 183.21 116.5 175.39 116.5 181.66"/><polygon class="cls-3" points="116.5 191.54 130.05 199.36 130.05 193.08 116.5 185.26 116.5 191.54"/><polygon class="cls-17" points="129.04 174.84 161.9 193.62 161.9 177.66 129.04 158.88 129.04 174.84"/><polygon class="cls-6" points="120.08 199.78 120.08 220.65 139.29 231.75 139.29 210.86 120.08 199.78"/><polygon class="cls-11" points="166.6 177.16 125.66 153.52 125.66 175.36 98.6 159.77 98.6 187.39 120.08 199.78 120.08 220.65 139.29 231.75 139.29 210.87 166.6 226.62 166.6 177.16"/><polygon class="cls-16" points="139.29 231.75 157.39 221.3 139.29 210.86 139.29 231.75"/><path class="cls-25" d="M214.9,232.91a5.92,5.92,0,0,1-5.43-8.26l22-50.77a5.91,5.91,0,1,1,10.85,4.7l-22,50.76A5.91,5.91,0,0,1,214.9,232.91Z"/><path class="cls-16" d="M214.9,232.91a5.92,5.92,0,0,1-5.43-8.26l22-50.77a5.91,5.91,0,1,1,10.85,4.7l-22,50.76A5.91,5.91,0,0,1,214.9,232.91Z"/><path class="cls-25" d="M277.93,187.28l-36.71-18.45L208.09,174a5,5,0,0,0-.77-.49,5.92,5.92,0,0,0-7.91,2.71l-37.6,76.66a5.91,5.91,0,1,0,10.62,5.21L207.8,186c.16,0,.32,0,.49,0l31-4.84,33.33,16.75a5.88,5.88,0,0,0,2.65.64,5.91,5.91,0,0,0,2.66-11.2Z"/><path class="cls-16" d="M277.93,187.28l-36.71-18.45L208.09,174a5,5,0,0,0-.77-.49,5.92,5.92,0,0,0-7.91,2.71l-37.6,76.66a5.91,5.91,0,1,0,10.62,5.21L207.8,186c.16,0,.32,0,.49,0l31-4.84,33.33,16.75a5.88,5.88,0,0,0,2.65.64,5.91,5.91,0,0,0,2.66-11.2Z"/><path class="cls-3" d="M170.21,263.2a5.93,5.93,0,0,1-5.31-8.52L202.5,178a5.91,5.91,0,1,1,10.62,5.2l-37.6,76.67A5.92,5.92,0,0,1,170.21,263.2Z"/><path class="cls-3" d="M218,234.71a5.92,5.92,0,0,1-5.42-8.26l22-50.77a5.91,5.91,0,0,1,10.85,4.7l-22,50.76A5.92,5.92,0,0,1,218,234.71Z"/><path class="cls-3" d="M278.36,200.28a6,6,0,0,1-2.65-.63l-33.32-16.76-31,4.84a5.91,5.91,0,1,1-1.82-11.68l34.75-5.42L281,189.08a5.91,5.91,0,0,1-2.66,11.2Z"/><path class="cls-40" d="M281,189.08l-36.71-18.45-33.1,5.16a7.06,7.06,0,0,0-.8-.48A5.92,5.92,0,0,0,202.5,178l-37.59,76.66a5.91,5.91,0,1,0,10.61,5.21l35.36-72.11a4.23,4.23,0,0,0,.5-.05l19.23-3-18,41.72a5.91,5.91,0,1,0,10.85,4.69L244,183.68l31.76,16a6,6,0,0,0,2.65.63,5.91,5.91,0,0,0,2.66-11.2Z"/><path class="cls-11" d="M284.92,171.83v0c-3-1.71-7-1.54-11.26.94-9.57,5.53-17.34,20.36-17.34,33.13,0,7,2.32,11.84,6,14v0l21.37,12.48,22.69-48Z"/><g class="cls-41"><polygon class="cls-13" points="242.85 202.55 317.85 245.94 317.54 240.19 242.54 196.81 242.85 202.55"/><polygon class="cls-13" points="241.34 190.66 316.34 234.04 316.03 228.29 241.03 184.91 241.34 190.66"/><polygon class="cls-13" points="241.64 179.81 316.64 223.19 316.34 217.45 241.34 174.06 241.64 179.81"/><polygon class="cls-13" points="245.72 171.24 320.73 214.62 320.42 208.88 245.42 165.49 245.72 171.24"/><polygon class="cls-13" points="250.78 163.12 325.79 206.5 325.48 200.75 250.48 157.37 250.78 163.12"/></g><path class="cls-42" d="M284.92,171.83v0c-3-1.71-7-1.54-11.26.94-9.57,5.53-17.34,20.36-17.34,33.13,0,7,2.32,11.84,6,14v0l21.37,12.48,22.69-48Z"/><ellipse class="cls-8" cx="294.62" cy="208.16" rx="26.62" ry="15.06" transform="translate(-12.28 397.76) rotate(-66.95)"/><ellipse class="cls-43" cx="294.62" cy="208.16" rx="26.62" ry="15.06" transform="translate(-12.28 397.76) rotate(-66.95)"/><ellipse class="cls-16" cx="294.62" cy="208.16" rx="13.67" ry="7.73" transform="translate(-12.28 397.76) rotate(-66.95)"/><path class="cls-11" d="M233.58,201.11v0c-3-1.71-7-1.55-11.26.94C212.73,207.6,205,222.43,205,235.19c0,7,2.31,11.85,6,14v0l21.37,12.48,22.69-48Z"/><g class="cls-44"><polygon class="cls-13" points="191.5 231.83 266.5 275.21 266.2 269.47 191.2 226.08 191.5 231.83"/><polygon class="cls-13" points="189.99 219.93 264.99 263.32 264.69 257.57 189.69 214.19 189.99 219.93"/><polygon class="cls-13" points="190.3 209.09 265.3 252.47 264.99 246.72 189.99 203.34 190.3 209.09"/><polygon class="cls-13" points="194.38 200.51 269.38 243.9 269.07 238.15 194.07 194.77 194.38 200.51"/><polygon class="cls-13" points="199.44 192.4 274.44 235.78 274.14 230.03 199.13 186.65 199.44 192.4"/></g><path class="cls-45" d="M233.58,201.11v0c-3-1.71-7-1.55-11.26.94C212.73,207.6,205,222.43,205,235.19c0,7,2.31,11.85,6,14v0l21.37,12.48,22.69-48Z"/><ellipse class="cls-8" cx="243.28" cy="237.44" rx="26.62" ry="15.06" transform="translate(-70.46 368.32) rotate(-66.95)"/><ellipse class="cls-46" cx="243.28" cy="237.44" rx="26.62" ry="15.06" transform="translate(-70.46 368.32) rotate(-66.95)"/><ellipse class="cls-16" cx="243.28" cy="237.44" rx="13.67" ry="7.73" transform="translate(-70.46 368.33) rotate(-66.95)"/><path class="cls-11" d="M176.45,234.78v0c-3-1.71-7-1.54-11.26.94-9.58,5.53-17.34,20.36-17.34,33.13,0,6.95,2.32,11.84,6,14v0l21.37,12.48,22.7-48Z"/><g class="cls-47"><polygon class="cls-13" points="134.38 265.5 209.38 308.89 209.07 303.14 134.07 259.76 134.38 265.5"/><polygon class="cls-13" points="132.86 253.61 207.87 296.99 207.56 291.24 132.56 247.86 132.86 253.61"/><polygon class="cls-13" points="133.17 242.76 208.17 286.14 207.87 280.4 132.86 237.01 133.17 242.76"/><polygon class="cls-13" points="137.25 234.19 212.25 277.57 211.95 271.82 136.95 228.44 137.25 234.19"/><polygon class="cls-13" points="142.31 226.07 217.31 269.45 217.01 263.7 142.01 220.32 142.31 226.07"/></g><path class="cls-48" d="M176.45,234.78v0c-3-1.71-7-1.54-11.26.94-9.58,5.53-17.34,20.36-17.34,33.13,0,6.95,2.32,11.84,6,14v0l21.37,12.48,22.7-48Z"/><ellipse class="cls-8" cx="186.15" cy="271.11" rx="26.62" ry="15.06" transform="translate(-136.2 336.25) rotate(-66.95)"/><ellipse class="cls-49" cx="186.15" cy="271.11" rx="26.62" ry="15.06" transform="translate(-136.2 336.25) rotate(-66.95)"/><ellipse class="cls-16" cx="186.15" cy="271.11" rx="13.67" ry="7.73" transform="translate(-136.2 336.25) rotate(-66.95)"/><path class="cls-6" d="M209.47,175.3h0a3.3,3.3,0,0,0-3.35.28c-2.86,1.65-5.17,6.07-5.17,9.88,0,2.07.69,3.53,1.77,4.16h0l3.76,2.28,6.77-14.33Z"/><path class="cls-50" d="M209.47,175.3h0a3.3,3.3,0,0,0-3.35.28c-2.86,1.65-5.17,6.07-5.17,9.88,0,2.07.69,3.53,1.77,4.16h0l3.76,2.28,6.77-14.33Z"/><path class="cls-8" d="M214.92,181.71c0,3.81-2.32,8.23-5.17,9.88s-5.17-.1-5.17-3.91,2.31-8.23,5.17-9.88S214.92,177.9,214.92,181.71Z"/><path class="cls-51" d="M214.92,181.71c0,3.81-2.32,8.23-5.17,9.88s-5.17-.1-5.17-3.91,2.31-8.23,5.17-9.88S214.92,177.9,214.92,181.71Z"/><path class="cls-52" d="M212.4,183.16a6.36,6.36,0,0,1-2.65,5.08c-1.47.84-2.66-.06-2.66-2a6.36,6.36,0,0,1,2.66-5.08C211.22,180.31,212.4,181.21,212.4,183.16Z"/><path class="cls-6" d="M244.31,170h0a3.3,3.3,0,0,0-3.35.29c-2.86,1.64-5.17,6.07-5.17,9.87,0,2.08.69,3.54,1.77,4.17h0l3.76,2.28,6.77-14.33Z"/><path class="cls-53" d="M244.31,170h0a3.3,3.3,0,0,0-3.35.29c-2.86,1.64-5.17,6.07-5.17,9.87,0,2.08.69,3.54,1.77,4.17h0l3.76,2.28,6.77-14.33Z"/><path class="cls-8" d="M249.76,176.44c0,3.8-2.32,8.23-5.17,9.88s-5.17-.11-5.17-3.91,2.31-8.23,5.17-9.88S249.76,172.63,249.76,176.44Z"/><path class="cls-54" d="M249.76,176.44c0,3.8-2.32,8.23-5.17,9.88s-5.17-.11-5.17-3.91,2.31-8.23,5.17-9.88S249.76,172.63,249.76,176.44Z"/><path class="cls-52" d="M247.24,177.89a6.36,6.36,0,0,1-2.65,5.07c-1.47.85-2.66-.05-2.66-2a6.36,6.36,0,0,1,2.66-5.07C246.05,175,247.24,175.93,247.24,177.89Z"/><path class="cls-17" d="M127.33,205.49h0a3.32,3.32,0,0,1,3.36.28c2.86,1.65,5.17,6.07,5.17,9.88,0,2.07-.69,3.53-1.77,4.17h0l-3.76,2.28-6.77-14.32Z"/><path class="cls-55" d="M127.33,205.49h0a3.32,3.32,0,0,1,3.36.28c2.86,1.65,5.17,6.07,5.17,9.88,0,2.07-.69,3.53-1.77,4.17h0l-3.76,2.28-6.77-14.32Z"/><path class="cls-8" d="M121.88,211.9c0,3.81,2.31,8.23,5.17,9.88s5.17-.1,5.17-3.91-2.31-8.23-5.17-9.88S121.88,208.09,121.88,211.9Z"/><path class="cls-10" d="M121.88,211.9c0,3.81,2.31,8.23,5.17,9.88s5.17-.1,5.17-3.91-2.31-8.23-5.17-9.88S121.88,208.09,121.88,211.9Z"/><path class="cls-56" d="M124.4,213.35a6.36,6.36,0,0,0,2.65,5.08c1.47.84,2.66-.06,2.66-2a6.33,6.33,0,0,0-2.66-5.07C125.58,210.5,124.4,211.4,124.4,213.35Z"/><polygon class="cls-6" points="172.03 116.5 172.03 109.61 160.08 116.5 160.08 123.4 172.03 116.5"/><polygon class="cls-39" points="172.03 116.5 172.03 109.61 160.08 116.5 160.08 123.4 172.03 116.5"/><polygon class="cls-3" points="172.03 109.61 156.18 100.46 144.24 107.36 160.08 116.5 172.03 109.61"/><polygon class="cls-11" points="172.03 109.61 156.18 100.46 144.24 107.36 160.08 116.5 172.03 109.61"/><polygon class="cls-17" points="160.08 123.4 144.24 114.25 144.24 107.36 160.08 116.5 160.08 123.4"/><polygon class="cls-39" points="160.08 123.4 144.24 114.25 144.24 107.36 160.08 116.5 160.08 123.4"/><path class="cls-17" d="M198.55,122.56l-2.4.22a12.23,12.23,0,0,0-2.53-1.91c-7.31-4.22-20.07-3.69-28.51,1.18a17.45,17.45,0,0,0-4.85,4l-2.13.19v5.35h0c.08,2.61,1.69,5.09,4.92,6.95,7.31,4.22,20.07,3.69,28.51-1.18,4.66-2.69,7-6.14,7-9.4h0Z"/><path class="cls-55" d="M198.55,122.56l-2.4.22a12.23,12.23,0,0,0-2.53-1.91c-7.31-4.22-20.07-3.69-28.51,1.18a17.45,17.45,0,0,0-4.85,4l-2.13.19v5.35h0c.08,2.61,1.69,5.09,4.92,6.95,7.31,4.22,20.07,3.69,28.51-1.18,4.66-2.69,7-6.14,7-9.4h0Z"/><ellipse class="cls-6" cx="178.34" cy="124.34" rx="20.31" ry="11.49" transform="translate(-13.73 22.49) rotate(-6.95)"/><ellipse class="cls-57" cx="178.34" cy="124.34" rx="20.31" ry="11.49" transform="translate(-13.73 22.49) rotate(-6.95)"/><path class="cls-58" d="M190.34,75.7l-24,1.78v47.64c-.09,1.67.86,3.27,2.91,4.45,4.34,2.51,11.91,2.19,16.92-.7,2.78-1.6,4.18-3.66,4.14-5.61h0Z"/><path class="cls-59" d="M190.34,75.7l-24,1.78v47.64c-.09,1.67.86,3.27,2.91,4.45,4.34,2.51,11.91,2.19,16.92-.7,2.78-1.6,4.18-3.66,4.14-5.61h0Z"/><path class="cls-60" d="M186.19,81.23c-5,2.89-12.58,3.21-16.92.7s-3.8-6.88,1.21-9.77,12.59-3.2,16.93-.7S191.2,78.34,186.19,81.23Z"/><path class="cls-6" d="M211.39,66.81C197.31,52,181.6,42.88,167.51,41.48a2.62,2.62,0,0,0-1.91.52L144.08,54.51,192,111.35l21.1-12.16a3.84,3.84,0,0,0,1.43-3.37V74.25A11.6,11.6,0,0,0,211.39,66.81Z"/><path class="cls-17" d="M193.25,86.58a85.43,85.43,0,0,0-8,16.77l6.74,8,21.1-12.16a3.84,3.84,0,0,0,1.43-3.37V74.27Z"/><path class="cls-61" d="M211.39,66.81C197.31,52,181.6,42.88,167.51,41.48a2.62,2.62,0,0,0-1.91.52L144.08,54.51,192,111.35l21.1-12.16a3.84,3.84,0,0,0,1.43-3.37V74.25A11.6,11.6,0,0,0,211.39,66.81Z"/><path class="cls-8" d="M190.07,111.91h0c-14.08-1.4-29.79-10.47-43.88-25.33h0A11.63,11.63,0,0,1,143,79.14V57.58c0-2.47,1.26-4,3.17-3.77h0c14.09,1.4,29.8,10.47,43.88,25.33h0a11.59,11.59,0,0,1,3.18,7.44v21.56C193.25,110.61,192,112.11,190.07,111.91Z"/><path class="cls-62" d="M190.07,111.91h0c-14.08-1.4-29.79-10.47-43.88-25.33h0A11.63,11.63,0,0,1,143,79.14V57.58c0-2.47,1.26-4,3.17-3.77h0c14.09,1.4,29.8,10.47,43.88,25.33h0a11.59,11.59,0,0,1,3.18,7.44v21.56C193.25,110.61,192,112.11,190.07,111.91Z"/><path class="cls-63" d="M162.86,65.46h0c1.75-1,4-.89,6.49.54,5.52,3.18,10,11.73,10,19.08,0,4-1.33,6.83-3.44,8v0l-12.31,7.18L150.53,72.67Z"/><path class="cls-64" d="M162.86,65.46h0c1.75-1,4-.89,6.49.54,5.52,3.18,10,11.73,10,19.08,0,4-1.33,6.83-3.44,8v0l-12.31,7.18L150.53,72.67Z"/><path class="cls-65" d="M147.28,80.62c0,7.36,4.47,15.9,10,19.09s10-.2,10-7.56-4.47-15.89-10-19.08S147.28,73.27,147.28,80.62Z"/><path class="cls-10" d="M147.28,80.62c0,7.36,4.47,15.9,10,19.09s10-.2,10-7.56-4.47-15.89-10-19.08S147.28,73.27,147.28,80.62Z"/><path class="cls-66" d="M152.14,83.43c0,3.77,2.3,8.16,5.13,9.8s5.13-.1,5.13-3.88-2.3-8.17-5.13-9.8S152.14,79.65,152.14,83.43Z"/><path class="cls-8" d="M154,81.1a9.55,9.55,0,0,0-.12,4.07l2-.53.19-4.09Z"/><path class="cls-17" d="M233.16,127l-1.2.1a6.1,6.1,0,0,0-1.26-.95c-3.65-2.11-10-1.84-14.24.59a8.69,8.69,0,0,0-2.42,2l-1.07.1v2.67h0a4.25,4.25,0,0,0,2.46,3.47c3.65,2.11,10,1.84,14.24-.59,2.32-1.34,3.5-3.06,3.47-4.69h0Z"/><path class="cls-55" d="M233.16,127l-1.2.1a6.1,6.1,0,0,0-1.26-.95c-3.65-2.11-10-1.84-14.24.59a8.69,8.69,0,0,0-2.42,2l-1.07.1v2.67h0a4.25,4.25,0,0,0,2.46,3.47c3.65,2.11,10,1.84,14.24-.59,2.32-1.34,3.5-3.06,3.47-4.69h0Z"/><path class="cls-6" d="M229.68,131.67c-4.22,2.43-10.59,2.69-14.24.59s-3.2-5.79,1-8.22,10.59-2.7,14.24-.59S233.89,129.23,229.68,131.67Z"/><path class="cls-57" d="M229.68,131.67c-4.22,2.43-10.59,2.69-14.24.59s-3.2-5.79,1-8.22,10.59-2.7,14.24-.59S233.89,129.23,229.68,131.67Z"/><path class="cls-17" d="M222.75,100.07h0a4.34,4.34,0,0,0-4,4.33V128a1.79,1.79,0,0,0,1.05,1.61,6.8,6.8,0,0,0,6.13-.25,2.48,2.48,0,0,0,1.5-2h0v-23A4.34,4.34,0,0,0,222.75,100.07Z"/><path class="cls-67" d="M222.75,100.07h0a4.34,4.34,0,0,0-4,4.33V128a1.79,1.79,0,0,0,1.05,1.61,6.8,6.8,0,0,0,6.13-.25,2.48,2.48,0,0,0,1.5-2h0v-23A4.34,4.34,0,0,0,222.75,100.07Z"/><path class="cls-6" d="M227,80.81a18.76,18.76,0,1,0,19.38,31.36Z"/><path class="cls-68" d="M227,80.81a18.76,18.76,0,1,0,19.38,31.36Z"/><ellipse class="cls-8" cx="235.87" cy="97.03" rx="9.99" ry="18.55" transform="matrix(0.86, -0.52, 0.52, 0.86, -16.24, 135.64)"/><ellipse class="cls-8" cx="235.87" cy="97.03" rx="9.99" ry="18.55" transform="matrix(0.86, -0.52, 0.52, 0.86, -16.24, 135.64)"/><ellipse class="cls-69" cx="235.87" cy="97.03" rx="9.99" ry="18.55" transform="matrix(0.86, -0.52, 0.52, 0.86, -16.24, 135.64)"/><path class="cls-21" d="M236.37,86c5.6,4,9.91,12.15,9.63,18.26s-5,7.83-10.64,3.85-9.9-12.15-9.62-18.25S230.78,82,236.37,86Z"/><path class="cls-10" d="M236.37,86c5.6,4,9.91,12.15,9.63,18.26s-5,7.83-10.64,3.85-9.9-12.15-9.62-18.25S230.78,82,236.37,86Z"/><path class="cls-6" d="M250.56,88.17a2.22,2.22,0,0,0-3.07-.63l-19,12.5a26,26,0,0,0,2.42,3.71l19-12.51A2.2,2.2,0,0,0,250.56,88.17Z"/><path class="cls-8" d="M253.75,88.87a4.22,4.22,0,1,1-4.22-4.21A4.22,4.22,0,0,1,253.75,88.87Z"/><path class="cls-70" d="M249.53,84.66a4.22,4.22,0,0,0-4.21,4.21s0,.06,0,.1L228.53,100a26,26,0,0,0,2.42,3.71l16.8-11.07a4.26,4.26,0,0,0,1.78.41,4.22,4.22,0,1,0,0-8.43Z"/><polygon class="cls-6" points="187.78 148.34 187.78 141.44 199.72 148.34 199.72 155.23 187.78 148.34"/><polygon class="cls-3" points="187.78 141.44 203.63 132.29 215.57 139.19 199.72 148.34 187.78 141.44"/><polygon class="cls-71" points="187.78 141.44 203.63 132.29 215.57 139.19 199.72 148.34 187.78 141.44"/><path class="cls-52" d="M199.72,148.91l-12.44-7.18v-.58l16.35-9.44,12.44,7.19v.58Zm-10.94-7.47,10.94,6.32,14.85-8.57-10.94-6.32Z"/><polygon class="cls-17" points="199.72 155.23 215.57 146.08 215.57 139.19 199.72 148.34 199.72 155.23"/><polygon class="cls-72" points="199.72 155.23 215.57 146.08 215.57 139.19 199.72 148.34 199.72 155.23"/><path class="cls-52" d="M199.26,155.54l0-7.49,16.35-9.44.5.29v7.47l-16.35,9.44Zm1-6.92v5.75l14.85-8.57v-5.75Z"/><polygon class="cls-72" points="188.28 148.05 199.22 154.37 199.22 148.63 188.28 142.31 188.28 148.05"/><path class="cls-52" d="M200.22,155.52v-7.47l-12.44-7.19-.5.29v7.47l12.45,7.19h0Zm-12.44-14.08,11.94,6.9v6.89l-11.94-6.89Z"/><path class="cls-52" d="M199.72,148.34l-11.94-6.9v6.9l11.94,6.89Zm-.5,6-10.94-6.32v-5.74l10.94,6.31Z"/><polygon class="cls-6" points="155.3 126.6 155.3 119.7 143.35 126.6 143.35 133.49 155.3 126.6"/><polygon class="cls-39" points="155.3 126.6 155.3 119.7 143.35 126.6 143.35 133.49 155.3 126.6"/><polygon class="cls-3" points="155.3 119.7 139.45 110.55 127.51 117.45 143.35 126.6 155.3 119.7"/><polygon class="cls-11" points="155.3 119.7 139.45 110.55 127.51 117.45 143.35 126.6 155.3 119.7"/><polygon class="cls-17" points="143.35 133.49 127.51 124.35 127.51 117.45 143.35 126.6 143.35 133.49"/><polygon class="cls-39" points="143.35 133.49 127.51 124.35 127.51 117.45 143.35 126.6 143.35 133.49"/><path class="cls-3" d="M156.72,192.39a3.66,3.66,0,0,1-2.53-1A3.71,3.71,0,0,1,153,188.7V162.76a3.7,3.7,0,1,1,7.39,0v22l25.28-1.55a3.69,3.69,0,0,1,.45,7.37L157,192.39Z"/><path class="cls-73" d="M156.72,192.39a3.66,3.66,0,0,1-2.53-1A3.71,3.71,0,0,1,153,188.7V162.76a3.7,3.7,0,1,1,7.39,0v22l25.28-1.55a3.69,3.69,0,0,1,.45,7.37L157,192.39Z"/><path class="cls-6" d="M160.3,150.44h0a3.47,3.47,0,0,1,3.53.29c3,1.74,5.44,6.39,5.44,10.39,0,2.18-.73,3.71-1.87,4.38h0l-20.28,11.62L140,162.08Z"/><path class="cls-74" d="M160.3,150.44h0a3.47,3.47,0,0,1,3.53.29c3,1.74,5.44,6.39,5.44,10.39,0,2.18-.73,3.71-1.87,4.38h0l-20.28,11.62L140,162.08Z"/><path class="cls-8" d="M138.24,166.41c0,4,2.43,8.65,5.43,10.38s5.44-.1,5.44-4.11-2.44-8.65-5.44-10.38S138.24,162.4,138.24,166.41Z"/><path class="cls-75" d="M138.24,166.41c0,4,2.43,8.65,5.43,10.38s5.44-.1,5.44-4.11-2.44-8.65-5.44-10.38S138.24,162.4,138.24,166.41Z"/><path class="cls-52" d="M140.88,167.93a6.69,6.69,0,0,0,2.79,5.34c1.54.89,2.79-.06,2.79-2.11a6.69,6.69,0,0,0-2.79-5.34C142.13,164.93,140.88,165.88,140.88,167.93Z"/><path class="cls-6" d="M188.3,178.65h0a3.32,3.32,0,0,0-3.36.28c-2.86,1.65-5.17,6.08-5.17,9.88,0,2.08.69,3.53,1.78,4.17h0l3.77,2.27,6.76-14.32Z"/><path class="cls-76" d="M188.3,178.65h0a3.32,3.32,0,0,0-3.36.28c-2.86,1.65-5.17,6.08-5.17,9.88,0,2.08.69,3.53,1.78,4.17h0l3.77,2.27,6.76-14.32Z"/><path class="cls-8" d="M193.75,185.06c0,3.8-2.31,8.23-5.17,9.87s-5.17-.1-5.17-3.9,2.32-8.23,5.17-9.88S193.75,181.25,193.75,185.06Z"/><path class="cls-77" d="M193.75,185.06c0,3.8-2.31,8.23-5.17,9.87s-5.17-.1-5.17-3.9,2.32-8.23,5.17-9.88S193.75,181.25,193.75,185.06Z"/><path class="cls-52" d="M191.24,186.51a6.36,6.36,0,0,1-2.66,5.07c-1.46.85-2.65-.05-2.65-2a6.38,6.38,0,0,1,2.65-5.07C190.05,183.65,191.24,184.55,191.24,186.51Z"/><path class="cls-6" d="M161,183.45h0a2.27,2.27,0,0,0-2.28.19c-1.94,1.12-3.52,4.13-3.52,6.71a3.11,3.11,0,0,0,1.21,2.83h0l2.55,1.54,4.6-9.73Z"/><path class="cls-78" d="M161,183.45h0a2.27,2.27,0,0,0-2.28.19c-1.94,1.12-3.52,4.13-3.52,6.71a3.11,3.11,0,0,0,1.21,2.83h0l2.55,1.54,4.6-9.73Z"/><path class="cls-8" d="M164.65,187.8c0,2.59-1.57,5.59-3.51,6.71s-3.51-.07-3.51-2.66,1.57-5.59,3.51-6.71S164.65,185.21,164.65,187.8Z"/><path class="cls-79" d="M164.65,187.8c0,2.59-1.57,5.59-3.51,6.71s-3.51-.07-3.51-2.66,1.57-5.59,3.51-6.71S164.65,185.21,164.65,187.8Z"/><path class="cls-52" d="M162.94,188.79a4.3,4.3,0,0,1-1.8,3.44c-1,.58-1.8,0-1.8-1.36a4.32,4.32,0,0,1,1.8-3.45C162.14,186.85,162.94,187.46,162.94,188.79Z"/><path class="cls-6" d="M109.34,136.23h0a2.22,2.22,0,0,0-2.28.19c-1.94,1.12-3.51,4.12-3.51,6.71a3.15,3.15,0,0,0,1.2,2.83h0l2.56,1.55,4.59-9.73Z"/><path class="cls-80" d="M109.34,136.23h0a2.22,2.22,0,0,0-2.28.19c-1.94,1.12-3.51,4.12-3.51,6.71a3.15,3.15,0,0,0,1.2,2.83h0l2.56,1.55,4.59-9.73Z"/><ellipse class="cls-8" cx="109.53" cy="142.61" rx="5.39" ry="3.05" transform="translate(-64.58 187.56) rotate(-66.95)"/><ellipse class="cls-81" cx="109.53" cy="142.61" rx="5.39" ry="3.05" transform="translate(-64.58 187.56) rotate(-66.95)"/><path class="cls-10" d="M111.34,141.57a4.33,4.33,0,0,1-1.81,3.45c-1,.57-1.8,0-1.8-1.37a4.31,4.31,0,0,1,1.8-3.44C110.53,139.63,111.34,140.24,111.34,141.57Z"/><path class="cls-6" d="M314.78,135.28h0a2.27,2.27,0,0,1,2.28.19c1.94,1.12,3.51,4.13,3.51,6.71a3.11,3.11,0,0,1-1.21,2.83h0l-2.56,1.55-4.6-9.73Z"/><path class="cls-82" d="M314.78,135.28h0a2.27,2.27,0,0,1,2.28.19c1.94,1.12,3.51,4.13,3.51,6.71a3.11,3.11,0,0,1-1.21,2.83h0l-2.56,1.55-4.6-9.73Z"/><ellipse class="cls-8" cx="314.59" cy="141.66" rx="3.05" ry="5.39" transform="matrix(0.92, -0.39, 0.39, 0.92, -30.35, 134.49)"/><ellipse class="cls-83" cx="314.59" cy="141.66" rx="3.05" ry="5.39" transform="matrix(0.92, -0.39, 0.39, 0.92, -30.35, 134.49)"/><path class="cls-52" d="M312.78,140.62a4.29,4.29,0,0,0,1.81,3.44c1,.58,1.8,0,1.8-1.36a4.35,4.35,0,0,0-1.8-3.45C313.59,138.68,312.78,139.29,312.78,140.62Z"/><path class="cls-6" d="M42.56,122h0a2.25,2.25,0,0,0-2.28.2c-1.94,1.11-3.51,4.12-3.51,6.7A3.14,3.14,0,0,0,38,131.75h0l2.55,1.55,4.6-9.73Z"/><path class="cls-84" d="M42.56,122h0a2.25,2.25,0,0,0-2.28.2c-1.94,1.11-3.51,4.12-3.51,6.7A3.14,3.14,0,0,0,38,131.75h0l2.55,1.55,4.6-9.73Z"/><path class="cls-8" d="M46.26,126.36c0,2.59-1.57,5.59-3.51,6.71s-3.51-.07-3.51-2.65,1.57-5.59,3.51-6.71S46.26,123.78,46.26,126.36Z"/><path class="cls-85" d="M46.26,126.36c0,2.59-1.57,5.59-3.51,6.71s-3.51-.07-3.51-2.65,1.57-5.59,3.51-6.71S46.26,123.78,46.26,126.36Z"/><path class="cls-10" d="M44.55,127.35a4.35,4.35,0,0,1-1.8,3.45c-1,.57-1.81,0-1.81-1.37A4.29,4.29,0,0,1,42.75,126C43.74,125.41,44.55,126,44.55,127.35Z"/><path class="cls-6" d="M99.09,208.58h0a3.3,3.3,0,0,0-3.35.28c-2.86,1.65-5.17,6.08-5.17,9.88,0,2.08.69,3.53,1.77,4.17h0l3.76,2.27,6.77-14.32Z"/><path class="cls-86" d="M99.09,208.58h0a3.3,3.3,0,0,0-3.35.28c-2.86,1.65-5.17,6.08-5.17,9.88,0,2.08.69,3.53,1.77,4.17h0l3.76,2.27,6.77-14.32Z"/><path class="cls-8" d="M104.54,215c0,3.8-2.32,8.23-5.17,9.87s-5.17-.1-5.17-3.9,2.31-8.23,5.17-9.88S104.54,211.18,104.54,215Z"/><path class="cls-87" d="M104.54,215c0,3.8-2.32,8.23-5.17,9.87s-5.17-.1-5.17-3.9,2.31-8.23,5.17-9.88S104.54,211.18,104.54,215Z"/><path class="cls-10" d="M102,216.44a6.38,6.38,0,0,1-2.65,5.07c-1.47.85-2.66,0-2.66-2a6.36,6.36,0,0,1,2.66-5.07C100.83,213.58,102,214.48,102,216.44Z"/><polygon class="cls-10" points="142.19 200.76 159.9 210.99 159.9 202.78 142.19 192.56 142.19 200.76"/><path class="cls-17" d="M181.29,92.46h0a3.32,3.32,0,0,1,3.36.28c2.85,1.65,5.17,6.08,5.17,9.88,0,2.08-.69,3.53-1.78,4.17h0l-3.76,2.27-6.76-14.32Z"/><path class="cls-88" d="M181.29,92.46h0a3.32,3.32,0,0,1,3.36.28c2.85,1.65,5.17,6.08,5.17,9.88,0,2.08-.69,3.53-1.78,4.17h0l-3.76,2.27-6.76-14.32Z"/><path class="cls-8" d="M175.84,98.87c0,3.8,2.31,8.23,5.17,9.87s5.17-.1,5.17-3.9S183.86,96.61,181,95,175.84,95.06,175.84,98.87Z"/><path class="cls-52" d="M175.67,98.68c0,4,2.38,8.57,5.35,10.28s5.37-.12,5.38-4.08S184,96.31,181.05,94.6,175.67,94.72,175.67,98.68Z"/><path class="cls-89" d="M178.35,100.32a6.36,6.36,0,0,0,2.66,5.07c1.46.85,2.65,0,2.65-2A6.38,6.38,0,0,0,181,98.31C179.54,97.46,178.35,98.36,178.35,100.32Z"/><path class="cls-8" d="M179.69,99.34a3.86,3.86,0,0,0-.19,1.65l.84-.14.23-1.66Z"/><path class="cls-37" d="M164.1,9.75A3.68,3.68,0,1,0,159,13.11V48.43a1.48,1.48,0,1,0,3,0V13.11A3.67,3.67,0,0,0,164.1,9.75Z"/><path class="cls-6" d="M305.94,103.75h0a3.21,3.21,0,0,0-1.46,2.89c-.15,3.23,2.13,7.56,5.09,9.67,1.62,1.14,3.1,1.39,4.14.86h0L332,107.61l-7.75-13.43Z"/><path class="cls-90" d="M305.94,103.75h0a3.21,3.21,0,0,0-1.46,2.89c-.15,3.23,2.13,7.56,5.09,9.67,1.62,1.14,3.1,1.39,4.14.86h0L332,107.61l-7.75-13.43Z"/><path class="cls-91" d="M328.26,95.09c3,2.11,5.25,6.44,5.1,9.67s-2.67,4.15-5.63,2-5.25-6.43-5.1-9.67S325.3,93,328.26,95.09Z"/><ellipse class="cls-10" cx="327.99" cy="100.95" rx="2.15" ry="3.98" transform="translate(-5.04 183.75) rotate(-31.07)"/></svg>