<?xml version="1.0" encoding="utf-8"?>
<!-- Generator: Adobe Illustrator 25.4.1, SVG Export Plug-In . SVG Version: 6.00 Build 0)  -->
<svg version="1.1" id="Capa_1" xmlns="http://www.w3.org/2000/svg" xmlns:xlink="http://www.w3.org/1999/xlink" x="0px" y="0px"
	 viewBox="0 0 289 330" style="enable-background:new 0 0 289 330;" xml:space="preserve">
<style type="text/css">
	.st0{fill:none;stroke:#081E7A;stroke-width:2.5702;stroke-miterlimit:10;}
	.st1{fill:none;stroke:#081E7A;stroke-width:1.4534;stroke-miterlimit:10;}
	.st2{fill:#249DCF;}
	.st3{fill:#D268CC;}
	.st4{opacity:0.15;}
	.st5{opacity:0.3;fill:#FFFFFF;}
	.st6{fill:#FFFFFF;}
	.st7{fill:#27AAE1;stroke:#081E7A;stroke-width:1.078;stroke-miterlimit:10;}
	.st8{fill:#E3FFFF;stroke:#081E7A;stroke-width:1.078;stroke-miterlimit:10;}
	.st9{fill:#67DAFF;}
	.st10{fill:none;stroke:#081E7A;stroke-width:1.078;stroke-linecap:round;stroke-linejoin:round;stroke-miterlimit:10;}
	.st11{fill:#081E7A;}
	.st12{fill:#27AAE1;}
	.st13{fill:#E3FFFF;}
	.st14{fill:#FAFAFA;}
	.st15{fill:#193174;}
	.st16{opacity:0.4;fill:#193174;}
	.st17{fill:#D268CC;stroke:#193174;stroke-width:0.3593;stroke-miterlimit:10;}
	.st18{fill:#FFFFFF;stroke:#193174;stroke-width:0.3593;stroke-miterlimit:10;}
	.st19{fill:#67DAFF;stroke:#193174;stroke-width:0.3593;stroke-miterlimit:10;}
	.st20{fill:#93D5F0;stroke:#193174;stroke-width:0.0991;stroke-miterlimit:10;}
	.st21{enable-background:new    ;}
	.st22{clip-path:url(#SVGID_00000047061753669096401500000013853473223158922683_);}
	.st23{fill:#B3EDFF;}
	.st24{clip-path:url(#SVGID_00000167361714226555263890000004270730838119456443_);}
	.st25{clip-path:url(#SVGID_00000103975643178927318830000006766999597374877629_);}
	.st26{fill:#93D5F0;stroke:#193174;stroke-width:0.1806;stroke-miterlimit:10;}
	.st27{clip-path:url(#SVGID_00000067941501259122912910000007264590286127256994_);}
	.st28{clip-path:url(#SVGID_00000131353092245431325670000001493341377773186467_);}
</style>
<path id="Shadow_00000078033052638441207810000018404138591846435988_" class="st2" d="M235.5,313.41L216,322.61
	c-1.91,0.9-4.14,0.78-5.94-0.33l-109.05-67.04c-2.41-1.48-2.17-5.06,0.43-6.2l16.91-7.43c1.15-0.67,3.02-0.67,4.17,0l113.25,65.38
	C238.29,308.45,238.14,312.16,235.5,313.41z"/>
<g id="Speech_Bubble_00000020389228698979614010000016739621003847104673_">
	<g id="Speech_Bubble_00000057116318014495339880000000281454183251134381_">
		<g>
			<path class="st3" d="M146.47,117.37l7.42,4.3l-2.95,6.63c-0.06,0.14-0.16,0.25-0.28,0.32c-0.35,0.2-2.43,1.41-2.55,1.47
				c-0.35,0.2-0.86,0.06-1-0.4l-3.2-10.84L146.47,117.37z"/>
			<path class="st4" d="M146.47,117.37l7.42,4.3l-2.95,6.63c-0.06,0.14-0.16,0.25-0.28,0.32c-0.35,0.2-2.43,1.41-2.55,1.47
				c-0.35,0.2-0.86,0.06-1-0.4l-3.2-10.84L146.47,117.37z"/>
			<path class="st3" d="M151.34,123.14l-2.95,6.63c-0.26,0.58-1.09,0.52-1.27-0.08l-3.2-10.84L151.34,123.14z"/>
		</g>
		<g>
			<path id="XMLID_00000005256151675535709340000006607036702554377652_" class="st3" d="M137.13,75.62l27.99,16.16
				c0.35,0.2,0.64,0.7,0.64,1.11v34.74c0,0.41-0.29,0.91-0.65,1.11l-2.3,1.29c-0.36,0.2-0.93,0.2-1.29-0.01l-27.99-16.16
				c-0.35-0.2-0.64-0.7-0.64-1.11V78.01c0-0.41,0.29-0.91,0.65-1.11l2.3-1.29C136.2,75.41,136.77,75.41,137.13,75.62z"/>
			<path id="XMLID_00000013157175165872290970000014161324067205792901_" class="st5" d="M132.9,77.89
				c0.05-0.32,0.31-0.44,0.64-0.26l27.99,16.16c0.18,0.1,0.34,0.28,0.45,0.48l3.58-2.04c-0.12-0.19-0.27-0.36-0.44-0.46
				l-27.99-16.16c-0.35-0.2-0.93-0.21-1.29-0.01l-2.3,1.29C133.21,77.08,132.94,77.51,132.9,77.89z"/>
			<path id="XMLID_00000178921739910809485700000014774736222554677895_" class="st3" d="M162.17,129.65V94.91
				c0-0.41-0.29-0.91-0.64-1.11l-27.99-16.16c-0.35-0.2-0.64-0.04-0.64,0.37v34.74c0,0.41,0.29,0.91,0.64,1.11l27.99,16.16
				C161.88,130.23,162.17,130.06,162.17,129.65z"/>
			<path id="XMLID_00000146481889911246561050000016623109664883966360_" class="st4" d="M161.53,130.02
				c0.34,0.2,0.97,0.21,1.29,0.01l2.3-1.29c0.36-0.2,0.65-0.69,0.65-1.1V92.89c0-0.21-0.08-0.45-0.2-0.66l-3.58,2.04
				c0.12,0.2,0.19,0.43,0.19,0.63v34.74C162.17,130.02,161.91,130.24,161.53,130.02z"/>
		</g>
	</g>
	<g id="Check_List_00000175310308075871704470000017560822324887478962_">
		<g>
			<g>
				<path id="Check_00000134237047955143671850000010121066836946155700_" class="st6" d="M138.54,89.05
					c1.16-0.49,2.5,0.06,2.99,1.22l8.63,20.53l2.06-2c0.9-0.88,2.35-0.86,3.23,0.05c0.88,0.9,0.86,2.35-0.05,3.23l-4.45,4.33
					c-0.43,0.42-0.99,0.65-1.59,0.65c-0.15,0-0.3-0.01-0.46-0.04c-0.74-0.15-1.36-0.66-1.65-1.35l-9.92-23.61
					C136.83,90.88,137.38,89.54,138.54,89.05z"/>
			</g>
		</g>
	</g>
</g>
<path class="st7" d="M111.66,9.58l107.1,60.75c3.29,1.86,5.3,5.37,5.25,9.14l-2.37,222.82c0.05,6.51-12.11,12.69-16.18,10.28
	l-97.49-69.1c-3.4-2.02-5.48-5.67-5.48-9.62L95.36,15.12l8.47-5.34C106.2,8.29,109.21,8.21,111.66,9.58z"/>
<path class="st8" d="M98.65,15.08L208.5,76.37c3.66,2.04,5.9,5.91,5.86,10.1l-2.24,220.06c-0.05,4.73-5.2,7.62-9.26,5.21
	L98.92,250.05c-3.4-2.02-5.48-5.67-5.48-9.62V18.14C93.44,15.47,96.31,13.78,98.65,15.08z"/>
<path class="st9" d="M183.34,63.41c0,0-2.73,15.14-14.04,8.99s-37.78-21.73-37.78-21.73s-9.49-6.51-10.89-22.17L183.34,63.41z"/>
<path class="st10" d="M181.46,68.74c0,0-2.85,8.78-11.42,4.03c-8.56-4.74-36.31-20.81-36.31-20.81s-9.37-4.84-12.27-18.2"/>
<g id="Window_00000044863887391803451680000003188727658072357029_">
	<g>
		<path class="st11" d="M65.53,38.63c1.28-0.7,3.04-0.6,4.99,0.46l0.56,0.31l92.56,50.79c0.38,0.21,0.77,0.46,1.14,0.74
			c0.18,0.15,0.35,0.3,0.53,0.45c2.28,2.02,3.92,5.26,3.92,8.01v224.94c0,1.69-0.62,2.88-1.63,3.43c-0.3,0.17-1.5,0.82-1.81,0.99
			c-1.01,0.55-2.4,0.47-3.94-0.38l-94.61-51.91c-3.08-1.68-5.59-5.82-5.59-9.21V43.96c0-2.13,0.79-3.63,2.07-4.33
			C64.02,39.46,65.23,38.8,65.53,38.63z"/>
		<g>
			<path class="st12" d="M164.35,328.74c0.79,0,1.45-0.3,1.92-0.85c0.5-0.6,0.77-1.49,0.77-2.56V100.38c0-2.57-1.56-5.75-3.8-7.73
				l-0.17-0.15c-0.12-0.1-0.23-0.2-0.35-0.3c-0.35-0.26-0.72-0.5-1.08-0.7L69.08,40.72l-0.56-0.31c-1.03-0.56-2.04-0.86-2.95-0.86
				c-2.18,0-3.53,1.69-3.53,4.42v223.3c0,3.27,2.42,7.26,5.39,8.88l94.61,51.91C162.85,328.5,163.65,328.74,164.35,328.74z"/>
		</g>
	</g>
	<g>
		<g>
			<path class="st13" d="M155.67,100.69c0.1,0,0.21-0.03,0.3-0.09l1.87-1.27c0.21-0.14,0.28-0.41,0.16-0.63l-1.87-3.32
				c-0.13-0.24-0.45-0.33-0.7-0.2c-0.25,0.13-0.34,0.42-0.21,0.66l1.66,2.94l-1.5,1.02c-0.23,0.16-0.29,0.46-0.12,0.68
				C155.35,100.62,155.51,100.69,155.67,100.69z"/>
		</g>
		<g>
			<g>
				<path class="st13" d="M73.25,52.06c0.18,0,0.35-0.09,0.45-0.25c0.14-0.24,0.06-0.54-0.19-0.68l-4.23-2.32
					c-0.25-0.14-0.57-0.06-0.71,0.18c-0.14,0.24-0.06,0.54,0.19,0.68l4.23,2.32C73.07,52.04,73.16,52.06,73.25,52.06z"/>
			</g>
			<g>
				<path class="st13" d="M73.25,54.2c0.18,0,0.35-0.09,0.45-0.25c0.14-0.24,0.06-0.54-0.19-0.68l-4.23-2.32
					c-0.25-0.14-0.57-0.06-0.71,0.18c-0.14,0.24-0.06,0.54,0.19,0.68l4.23,2.32C73.07,54.18,73.16,54.2,73.25,54.2z"/>
			</g>
			<g>
				<path class="st13" d="M73.25,56.34c0.18,0,0.35-0.09,0.45-0.25c0.14-0.24,0.06-0.54-0.19-0.68l-4.23-2.32
					c-0.25-0.14-0.57-0.06-0.71,0.18c-0.14,0.24-0.06,0.54,0.19,0.68l4.23,2.32C73.07,56.31,73.16,56.34,73.25,56.34z"/>
			</g>
		</g>
		<g>
			<g>
				<polygon class="st14" points="149.46,305.69 149.46,311.26 151.68,312.48 151.68,308.59 153.71,309.7 153.71,313.59 
					155.93,314.81 155.93,309.24 152.7,303.82 				"/>
			</g>
			<g>
				<g>
					<path class="st14" d="M136.23,302.32c-1.76-0.97-3.14-3.24-3.14-5.17c0-1.07,0.42-1.89,1.18-2.31c0.76-0.42,1.72-0.35,2.7,0.18
						c1.76,0.97,3.14,3.24,3.14,5.17c0,1.07-0.42,1.89-1.18,2.31c-0.33,0.18-0.7,0.27-1.09,0.27
						C137.33,302.77,136.78,302.62,136.23,302.32z M135.01,296.05c-0.28,0.16-0.44,0.56-0.44,1.1c0,1.43,1.1,3.24,2.4,3.96
						c0.5,0.27,0.94,0.34,1.22,0.18c0.28-0.16,0.44-0.56,0.44-1.1c0-1.43-1.1-3.24-2.4-3.96c-0.32-0.18-0.62-0.27-0.87-0.27
						C135.23,295.97,135.11,295.99,135.01,296.05z"/>
				</g>
				<g>
					<path class="st14" d="M132.26,301.13c0.1,0,0.21-0.02,0.31-0.06l2.22-0.97c0.37-0.16,0.53-0.58,0.36-0.93
						c-0.17-0.35-0.61-0.51-0.98-0.34l-2.22,0.97c-0.37,0.16-0.53,0.58-0.36,0.93C131.71,300.98,131.98,301.13,132.26,301.13z"/>
				</g>
			</g>
			<g id="Location_00000159446982281968359150000006910886993806841778_">
				<path class="st14" d="M90.5,273.31l0,0.45c-0.01,1.33,1.24,4.12,2.12,5.97c0.28,0.6,0.82,0.89,1.11,0.61
					c0.9-0.88,2.18-2.28,2.19-3.61l0-0.45c0.01-1.99-1.2-4.27-2.68-5.09C91.75,270.38,90.51,271.32,90.5,273.31z M91.76,273.77
					c0.01-0.99,0.68-1.43,1.46-1c0.78,0.43,1.44,1.6,1.44,2.59c-0.01,0.99-0.68,1.43-1.46,1C92.41,275.93,91.75,274.76,91.76,273.77
					z"/>
			</g>
			<g>
				<g>
					<path class="st14" d="M76.14,271.21l1.12-0.28c2.09-0.53,3.15-1.78,3.15-3.72c0-1.68-0.99-3.59-2.21-4.26
						c-0.92-0.51-1.72-0.16-2.05,0.76c-0.33-1.29-1.12-2.5-2.05-3.01c-1.22-0.67-2.21,0.15-2.21,1.83c0,1.94,1.06,4.35,3.15,7.18
						L76.14,271.21z"/>
				</g>
			</g>
			<g>
				<g>
					<g>
						<path class="st14" d="M106,288.14v-9.8c0-0.91,0.58-1.33,1.3-0.93l2.14,1.17c0.51,0.28,0.97,0.14,1.16-0.36l0,0
							c0.27-0.73,0.93-0.93,1.67-0.52l3.08,1.69c0.74,0.41,1.4,1.33,1.67,2.36c0.19,0.71,0.64,1.35,1.16,1.63l2.14,1.17
							c0.72,0.39,1.3,1.45,1.3,2.36v9.8c0,0.91-0.58,1.33-1.3,0.93l-13.02-7.14C106.58,290.1,106,289.05,106,288.14z M118.18,284.08
							c-0.74-0.41-1.4-1.33-1.67-2.36c-0.19-0.71-0.64-1.35-1.15-1.63l-3.08-1.69c-0.51-0.28-0.97-0.14-1.15,0.36l0,0
							c-0.27,0.73-0.93,0.93-1.67,0.52l-2.14-1.17c-0.41-0.22-0.74,0.02-0.74,0.53v9.8c0,0.52,0.33,1.12,0.74,1.35l13.02,7.14
							c0.41,0.22,0.74-0.02,0.74-0.53v-9.8c0-0.52-0.33-1.12-0.74-1.35L118.18,284.08z"/>
					</g>
				</g>
				<g>
					<g>
						<path class="st14" d="M118.64,282.96l1.1,0.6c0.09,0.05,0.17,0,0.17-0.12v-0.43c0-0.12-0.07-0.25-0.17-0.3l-1.1-0.6
							c-0.09-0.05-0.17,0-0.17,0.12v0.43C118.48,282.77,118.55,282.91,118.64,282.96z"/>
					</g>
				</g>
				<g>
					<path class="st14" d="M113.55,291.33c-1.82-1-3.25-3.57-3.25-5.85c0-1.28,0.47-2.27,1.29-2.72c0.71-0.39,1.58-0.34,2.47,0.15
						c1.82,1,3.25,3.57,3.25,5.85c0,1.28-0.47,2.27-1.29,2.72c-0.31,0.17-0.66,0.26-1.02,0.26
						C114.54,291.73,114.05,291.6,113.55,291.33z M111.85,283.07c-0.57,0.31-0.89,1.1-0.89,2.16c0,2.19,1.44,4.82,3.14,5.76
						c0.45,0.25,1.1,0.48,1.66,0.17c0.57-0.31,0.89-1.1,0.89-2.16c0-2.19-1.44-4.82-3.14-5.76c-0.3-0.16-0.68-0.32-1.07-0.32
						C112.25,282.93,112.04,282.97,111.85,283.07z"/>
				</g>
			</g>
		</g>
		<g>
			<g>
				<polygon class="st13" points="149.46,305.69 149.46,311.26 151.68,312.48 151.68,308.59 153.71,309.7 153.71,313.59 
					155.93,314.81 155.93,309.24 152.7,303.82 				"/>
			</g>
			<g>
				<g>
					<path class="st13" d="M136.23,302.32c-1.76-0.97-3.14-3.24-3.14-5.17c0-1.07,0.42-1.89,1.18-2.31c0.76-0.42,1.72-0.35,2.7,0.18
						c1.76,0.97,3.14,3.24,3.14,5.17c0,1.07-0.42,1.89-1.18,2.31c-0.33,0.18-0.7,0.27-1.09,0.27
						C137.33,302.77,136.78,302.62,136.23,302.32z M135.01,296.05c-0.28,0.16-0.44,0.56-0.44,1.1c0,1.43,1.1,3.24,2.4,3.96
						c0.5,0.27,0.94,0.34,1.22,0.18c0.28-0.16,0.44-0.56,0.44-1.1c0-1.43-1.1-3.24-2.4-3.96c-0.32-0.18-0.62-0.27-0.87-0.27
						C135.23,295.97,135.11,295.99,135.01,296.05z"/>
				</g>
				<g>
					<path class="st13" d="M132.26,301.13c0.1,0,0.21-0.02,0.31-0.06l2.22-0.97c0.37-0.16,0.53-0.58,0.36-0.93
						c-0.17-0.35-0.61-0.51-0.98-0.34l-2.22,0.97c-0.37,0.16-0.53,0.58-0.36,0.93C131.71,300.98,131.98,301.13,132.26,301.13z"/>
				</g>
			</g>
			<g id="Location_00000065780773959905574620000010663633652083105951_">
				<path class="st13" d="M90.5,273.31l0,0.45c-0.01,1.33,1.24,4.12,2.12,5.97c0.28,0.6,0.82,0.89,1.11,0.61
					c0.9-0.88,2.18-2.28,2.19-3.61l0-0.45c0.01-1.99-1.2-4.27-2.68-5.09C91.75,270.38,90.51,271.32,90.5,273.31z M91.76,273.77
					c0.01-0.99,0.68-1.43,1.46-1c0.78,0.43,1.44,1.6,1.44,2.59c-0.01,0.99-0.68,1.43-1.46,1C92.41,275.93,91.75,274.76,91.76,273.77
					z"/>
			</g>
			<g>
				<g>
					<path class="st13" d="M76.14,271.21l1.12-0.28c2.09-0.53,3.15-1.78,3.15-3.72c0-1.68-0.99-3.59-2.21-4.26
						c-0.92-0.51-1.72-0.16-2.05,0.76c-0.33-1.29-1.12-2.5-2.05-3.01c-1.22-0.67-2.21,0.15-2.21,1.83c0,1.94,1.06,4.35,3.15,7.18
						L76.14,271.21z"/>
				</g>
			</g>
			<g>
				<g>
					<g>
						<path class="st13" d="M106,288.14v-9.8c0-0.91,0.58-1.33,1.3-0.93l2.14,1.17c0.51,0.28,0.97,0.14,1.16-0.36l0,0
							c0.27-0.73,0.93-0.93,1.67-0.52l3.08,1.69c0.74,0.41,1.4,1.33,1.67,2.36c0.19,0.71,0.64,1.35,1.16,1.63l2.14,1.17
							c0.72,0.39,1.3,1.45,1.3,2.36v9.8c0,0.91-0.58,1.33-1.3,0.93l-13.02-7.14C106.58,290.1,106,289.05,106,288.14z M118.18,284.08
							c-0.74-0.41-1.4-1.33-1.67-2.36c-0.19-0.71-0.64-1.35-1.15-1.63l-3.08-1.69c-0.51-0.28-0.97-0.14-1.15,0.36l0,0
							c-0.27,0.73-0.93,0.93-1.67,0.52l-2.14-1.17c-0.41-0.22-0.74,0.02-0.74,0.53v9.8c0,0.52,0.33,1.12,0.74,1.35l13.02,7.14
							c0.41,0.22,0.74-0.02,0.74-0.53v-9.8c0-0.52-0.33-1.12-0.74-1.35L118.18,284.08z"/>
					</g>
				</g>
				<g>
					<g>
						<path class="st13" d="M118.64,282.96l1.1,0.6c0.09,0.05,0.17,0,0.17-0.12v-0.43c0-0.12-0.07-0.25-0.17-0.3l-1.1-0.6
							c-0.09-0.05-0.17,0-0.17,0.12v0.43C118.48,282.77,118.55,282.91,118.64,282.96z"/>
					</g>
				</g>
				<g>
					<path class="st13" d="M113.55,291.33c-1.82-1-3.25-3.57-3.25-5.85c0-1.28,0.47-2.27,1.29-2.72c0.71-0.39,1.58-0.34,2.47,0.15
						c1.82,1,3.25,3.57,3.25,5.85c0,1.28-0.47,2.27-1.29,2.72c-0.31,0.17-0.66,0.26-1.02,0.26
						C114.54,291.73,114.05,291.6,113.55,291.33z M111.85,283.07c-0.57,0.31-0.89,1.1-0.89,2.16c0,2.19,1.44,4.82,3.14,5.76
						c0.45,0.25,1.1,0.48,1.66,0.17c0.57-0.31,0.89-1.1,0.89-2.16c0-2.19-1.44-4.82-3.14-5.76c-0.3-0.16-0.68-0.32-1.07-0.32
						C112.25,282.93,112.04,282.97,111.85,283.07z"/>
				</g>
			</g>
		</g>
		<g>
			<polygon class="st13" points="165.99,113.15 165.99,112.28 61.8,55.11 61.8,55.98 			"/>
		</g>
		<g>
			<path class="st13" d="M135.48,107.27L90.8,82.75c-1.2-0.66-2.18-0.19-2.18,1.05c0,1.24,0.98,2.78,2.18,3.44l44.68,24.52
				c1.2,0.66,2.18,0.19,2.18-1.05C137.66,109.47,136.69,107.93,135.48,107.27z"/>
			<g>
				<path class="st13" d="M155.15,127.78c0.16,0,0.32-0.08,0.41-0.22c0.13-0.21,0.05-0.48-0.17-0.61l-84.02-46.1
					c-0.22-0.12-0.51-0.05-0.64,0.16c-0.13,0.21-0.05,0.48,0.17,0.61l84.02,46.1C154.99,127.76,155.07,127.78,155.15,127.78z"/>
			</g>
			<g>
				<path class="st13" d="M139,123.67c0.16,0,0.32-0.08,0.41-0.22c0.13-0.21,0.05-0.48-0.17-0.61l-51.7-28.37
					c-0.22-0.12-0.51-0.05-0.64,0.16c-0.13,0.21-0.05,0.48,0.17,0.61l51.7,28.37C138.84,123.65,138.92,123.67,139,123.67z"/>
			</g>
		</g>
		<g>
			<path class="st15" d="M109.34,184.87c0,1.73,0.96,3.67,2.14,4.31c1.18,0.65,2.14-0.23,2.14-1.96c0-1.73-0.96-3.67-2.14-4.31
				C110.3,182.26,109.34,183.14,109.34,184.87z M68.55,125.69v68.5c0,0.02,0.01,0.03,0.01,0.05c0,0.03,0,0.06,0,0.09
				c0.01,0.04,0.03,0.08,0.05,0.11c0.01,0.01,0.01,0.03,0.02,0.04c0.05,0.07,0.11,0.13,0.19,0.18c0.01,0,0.01,0.01,0.02,0.02
				l86.43,47.42c0,0,0.01,0,0.02,0c0.08,0.04,0.18,0.07,0.27,0.07c0,0,0,0,0.01,0c0,0,0,0,0,0c0,0,0,0,0,0
				c0.09,0,0.18-0.03,0.26-0.07c0.01,0,0.02,0,0.03-0.01c0.01,0,0.01-0.01,0.01-0.01c0.01-0.01,0.02-0.01,0.03-0.02
				c0.07-0.05,0.12-0.11,0.16-0.17c0.01-0.01,0.01-0.02,0.01-0.03c0.04-0.07,0.06-0.14,0.06-0.22c0-0.01,0.01-0.02,0.01-0.03l0-68.5
				c0-0.02-0.01-0.03-0.01-0.05c0-0.03,0-0.06-0.01-0.09c-0.01-0.03-0.03-0.06-0.05-0.09c-0.01-0.03-0.02-0.05-0.04-0.07
				c-0.05-0.07-0.11-0.14-0.19-0.18c0,0,0,0,0,0L69.43,125.2c-0.01-0.01-0.03,0-0.04-0.01c-0.07-0.03-0.14-0.05-0.22-0.06
				c-0.03,0-0.05,0-0.08,0c-0.07,0-0.13,0.02-0.2,0.05c-0.02,0.01-0.04,0-0.05,0.01c-0.01,0-0.01,0.01-0.02,0.01
				c-0.01,0.01-0.02,0.01-0.03,0.01c-0.07,0.05-0.12,0.11-0.17,0.17c-0.01,0.01-0.01,0.03-0.02,0.04c-0.04,0.07-0.06,0.14-0.06,0.21
				C68.56,125.66,68.55,125.67,68.55,125.69z M69.73,127.47l31.49,42.76c0.12,0.16,0.3,0.24,0.49,0.24c0.12,0,0.23-0.03,0.34-0.1
				c0.27-0.18,0.33-0.53,0.15-0.78l-31.04-42.14l82.86,45.47l-34.06,8.31c-0.32,0.08-0.51,0.38-0.43,0.68
				c0.07,0.25,0.31,0.42,0.57,0.42c0.05,0,0.1-0.01,0.15-0.02l34.72-8.47l0,66.02l-32.54-43.36c-0.19-0.25-0.56-0.31-0.82-0.13
				c-0.27,0.18-0.33,0.53-0.14,0.78l32.03,42.68l-82.81-45.44l31.33-7.56c0.32-0.08,0.51-0.38,0.43-0.68
				c-0.08-0.3-0.41-0.48-0.72-0.41l-32,7.73V127.47z M105.82,179.17v7.55c0,1.02,0.57,2.17,1.27,2.55l8.78,4.82
				c0.7,0.38,1.27-0.13,1.27-1.16v-7.55c0-1.02-0.57-2.17-1.27-2.55l-1.56-0.86v-0.77c0-0.49-0.27-1.05-0.61-1.23l-4.43-2.43
				c-0.34-0.19-0.61,0.07-0.61,0.56v0.77l-1.56-0.86C106.39,177.62,105.82,178.14,105.82,179.17z M108.42,184.37
				c0-2.47,1.37-3.73,3.06-2.8c1.69,0.93,3.06,3.69,3.06,6.16c0,2.47-1.37,3.73-3.06,2.8C109.79,189.6,108.42,186.84,108.42,184.37z
				"/>
			<path class="st16" d="M109.34,184.87c0,1.73,0.96,3.67,2.14,4.31c1.18,0.65,2.14-0.23,2.14-1.96c0-1.73-0.96-3.67-2.14-4.31
				C110.3,182.26,109.34,183.14,109.34,184.87z M68.55,125.69v68.5c0,0.02,0.01,0.03,0.01,0.05c0,0.03,0,0.06,0,0.09
				c0.01,0.04,0.03,0.08,0.05,0.11c0.01,0.01,0.01,0.03,0.02,0.04c0.05,0.07,0.11,0.13,0.19,0.18c0.01,0,0.01,0.01,0.02,0.02
				l86.43,47.42c0,0,0.01,0,0.02,0c0.08,0.04,0.18,0.07,0.27,0.07c0,0,0,0,0.01,0c0,0,0,0,0,0c0,0,0,0,0,0
				c0.09,0,0.18-0.03,0.26-0.07c0.01,0,0.02,0,0.03-0.01c0.01,0,0.01-0.01,0.01-0.01c0.01-0.01,0.02-0.01,0.03-0.02
				c0.07-0.05,0.12-0.11,0.16-0.17c0.01-0.01,0.01-0.02,0.01-0.03c0.04-0.07,0.06-0.14,0.06-0.22c0-0.01,0.01-0.02,0.01-0.03l0-68.5
				c0-0.02-0.01-0.03-0.01-0.05c0-0.03,0-0.06-0.01-0.09c-0.01-0.03-0.03-0.06-0.05-0.09c-0.01-0.03-0.02-0.05-0.04-0.07
				c-0.05-0.07-0.11-0.14-0.19-0.18c0,0,0,0,0,0L69.43,125.2c-0.01-0.01-0.03,0-0.04-0.01c-0.07-0.03-0.14-0.05-0.22-0.06
				c-0.03,0-0.05,0-0.08,0c-0.07,0-0.13,0.02-0.2,0.05c-0.02,0.01-0.04,0-0.05,0.01c-0.01,0-0.01,0.01-0.02,0.01
				c-0.01,0.01-0.02,0.01-0.03,0.01c-0.07,0.05-0.12,0.11-0.17,0.17c-0.01,0.01-0.01,0.03-0.02,0.04c-0.04,0.07-0.06,0.14-0.06,0.21
				C68.56,125.66,68.55,125.67,68.55,125.69z M69.73,127.47l31.49,42.76c0.12,0.16,0.3,0.24,0.49,0.24c0.12,0,0.23-0.03,0.34-0.1
				c0.27-0.18,0.33-0.53,0.15-0.78l-31.04-42.14l82.86,45.47l-34.06,8.31c-0.32,0.08-0.51,0.38-0.43,0.68
				c0.07,0.25,0.31,0.42,0.57,0.42c0.05,0,0.1-0.01,0.15-0.02l34.72-8.47l0,66.02l-32.54-43.36c-0.19-0.25-0.56-0.31-0.82-0.13
				c-0.27,0.18-0.33,0.53-0.14,0.78l32.03,42.68l-82.81-45.44l31.33-7.56c0.32-0.08,0.51-0.38,0.43-0.68
				c-0.08-0.3-0.41-0.48-0.72-0.41l-32,7.73V127.47z M105.82,179.17v7.55c0,1.02,0.57,2.17,1.27,2.55l8.78,4.82
				c0.7,0.38,1.27-0.13,1.27-1.16v-7.55c0-1.02-0.57-2.17-1.27-2.55l-1.56-0.86v-0.77c0-0.49-0.27-1.05-0.61-1.23l-4.43-2.43
				c-0.34-0.19-0.61,0.07-0.61,0.56v0.77l-1.56-0.86C106.39,177.62,105.82,178.14,105.82,179.17z M108.42,184.37
				c0-2.47,1.37-3.73,3.06-2.8c1.69,0.93,3.06,3.69,3.06,6.16c0,2.47-1.37,3.73-3.06,2.8C109.79,189.6,108.42,186.84,108.42,184.37z
				"/>
		</g>
	</g>
</g>
<g id="Character_00000000916076758311671630000005318139172900621967_">
	<g id="Top_00000165217964431679322640000001636407769641639855_">
		<g id="Tab_00000000929104284546125510000003407951072797749410_">
			<g id="XMLID_00000166673102930590087380000011984912721081728390_">
				<path id="XMLID_00000006700932639369265770000010036730573393854339_" class="st17" d="M134.47,243.68l0.71-0.39
					c1.13-0.62,2.05-2.13,2.05-3.37l0-63.74c0-1.24-0.92-2.75-2.05-3.37l-79.15-43.66c-1.13-0.62-2.97-0.62-4.1,0l-0.71,0.39
					c-1.13,0.62-2.05,2.13-2.05,3.37l0,63.74c0,1.24,0.92,2.75,2.05,3.37l79.15,43.66C131.51,244.3,133.34,244.3,134.47,243.68z"/>
				<path id="XMLID_00000063603679623336267030000014195539854743451306_" class="st18" d="M134.47,243.68l0.71-0.39
					c1.13-0.62,2.05-2.13,2.05-3.37l0-63.74c0-1.24-0.92-2.75-2.05-3.37l-79.15-43.66c-1.13-0.62-2.97-0.62-4.1,0l-0.71,0.39
					c-1.13,0.62-2.05,2.13-2.05,3.37l0,63.74c0,1.24,0.92,2.75,2.05,3.37l79.15,43.66C131.51,244.3,133.34,244.3,134.47,243.68z"/>
				<path id="XMLID_00000121988999943876604850000016173862804829268667_" class="st19" d="M49.2,132.6c0.14-1.01,1-1.38,2.03-0.82
					l79.15,43.67c0.57,0.31,1.07,0.85,1.45,1.45l4.79-2.63c-0.36-0.61-0.88-1.14-1.45-1.46l-79.14-43.66c-1.14-0.62-2.97-0.62-4.1,0
					l-0.71,0.39C50.2,130.11,49.33,131.43,49.2,132.6z"/>
				<path id="XMLID_00000092438220799461567940000013564126385361599393_" class="st19" d="M130.72,243.83
					c1.13,0.46,2.72,0.41,3.74-0.15l0.72-0.39c1.13-0.62,2.04-2.13,2.04-3.37v-63.74c0-0.62-0.23-1.32-0.6-1.92l-4.79,2.63
					c0.36,0.61,0.6,1.3,0.6,1.92v63.75C132.43,243.67,131.69,244.19,130.72,243.83z"/>
				<g>
					<polyline class="st20" points="99.07,197.5 100.52,196.83 103.82,197.77 103.2,198.77 99.16,197.51 					"/>
					<polyline class="st20" points="105.53,195.08 106.92,194.43 108.24,199.8 106.79,200.49 					"/>
					<line class="st20" x1="106.81" y1="200.52" x2="105.53" y2="195.08"/>
					<polyline class="st20" points="106.79,200.49 110.72,203.14 112.09,202.4 108.24,199.8 106.79,200.49 					"/>
					<polyline class="st20" points="107.56,210.51 107.42,205.21 108.84,204.34 108.97,209.85 107.56,210.55 					"/>
					<polyline class="st20" points="107.42,205.21 108.84,204.71 112.09,202.4 110.7,203.14 					"/>
					<g>
						<g>
							<g class="st21">
								<defs>
									<polygon id="SVGID_1_" class="st21" points="99.31,208.41 98.94,193.29 110.63,196.38 111,211.51 									"/>
								</defs>
								<clipPath id="SVGID_00000027592286069027965980000007103843031999160992_">
									<use xlink:href="#SVGID_1_"  style="overflow:visible;"/>
								</clipPath>
								<g style="clip-path:url(#SVGID_00000027592286069027965980000007103843031999160992_);">
									<g>
										<g>
											<g>
												<polyline class="st23" points="105.5,195.23 103.22,198.8 103.2,198.8 99.19,197.6 101.66,202.43 101.66,202.45 
													100.43,206.97 104.23,206.39 104.25,206.4 107.51,210.39 107.39,205.2 107.4,205.19 110.64,203.13 106.76,200.51 
													106.76,200.48 105.5,195.23 												"/>
												<path class="st15" d="M103.2,198.8l0.02,0.01l2.27-3.58l1.26,5.26l0.01,0.03l3.87,2.62l-3.24,2.05l-0.01,0.01l0.13,5.19
													l-3.26-3.99l-0.02-0.01l-3.8,0.58l1.22-4.52l0.01-0.02l-2.47-4.83L103.2,198.8 M105.52,195.03l-2.33,3.67l-4.07-1.21
													l-0.07-0.02l2.53,4.96l-1.23,4.58l-0.02,0.09l3.9-0.61l3.31,4.04l0.06,0.08l-0.13-5.34l3.28-2.08l0.06-0.04l-3.97-2.69
													l-1.28-5.33L105.52,195.03"/>
											</g>
										</g>
									</g>
								</g>
							</g>
						</g>
					</g>
				</g>
				<g>
					<polyline class="st20" points="110.38,211.97 111.83,211.3 115.13,212.23 114.52,213.23 110.47,211.97 					"/>
					<polyline class="st20" points="116.84,209.54 118.24,208.89 119.55,214.26 118.11,214.95 					"/>
					<line class="st20" x1="118.13" y1="214.98" x2="116.84" y2="209.54"/>
					<polyline class="st20" points="118.11,214.95 122.03,217.6 123.41,216.86 119.55,214.26 118.11,214.95 					"/>
					<polyline class="st20" points="118.88,224.97 118.74,219.67 120.15,218.81 120.29,224.32 118.88,225.02 					"/>
					<polyline class="st20" points="118.74,219.67 120.16,219.17 123.41,216.86 122.02,217.6 					"/>
					<g>
						<g>
							<g class="st21">
								<defs>
									<polygon id="SVGID_00000117649153981935087390000000432290862129795461_" class="st21" points="110.62,222.87 
										110.26,207.75 121.95,210.85 122.32,225.97 									"/>
								</defs>
								<clipPath id="SVGID_00000145059569520125892090000004289106209068835255_">
									<use xlink:href="#SVGID_00000117649153981935087390000000432290862129795461_"  style="overflow:visible;"/>
								</clipPath>
								<g style="clip-path:url(#SVGID_00000145059569520125892090000004289106209068835255_);">
									<g>
										<g>
											<g>
												<polyline class="st23" points="116.81,209.69 114.54,213.26 114.52,213.26 110.51,212.06 112.98,216.89 112.97,216.92 
													111.75,221.43 115.55,220.85 115.56,220.86 118.83,224.85 118.7,219.66 118.72,219.65 121.95,217.6 118.08,214.97 
													118.07,214.95 116.81,209.69 												"/>
												<path class="st15" d="M114.52,213.26l0.02,0.01l2.27-3.58l1.26,5.26l0.01,0.03l3.87,2.62l-3.23,2.06l-0.02,0.01
													l0.13,5.19l-3.26-3.99l-0.01-0.01l-3.8,0.58l1.22-4.52l0.01-0.02l-2.47-4.83L114.52,213.26 M116.83,209.49l-2.33,3.67
													l-4.07-1.21l-0.07-0.02l2.54,4.96l-1.24,4.58l-0.02,0.09l3.89-0.61l3.31,4.04l0.06,0.08l-0.13-5.34l3.29-2.08l0.06-0.04
													l-3.98-2.69l-1.28-5.33L116.83,209.49"/>
											</g>
										</g>
									</g>
								</g>
							</g>
						</g>
					</g>
				</g>
				<g>
					<polyline class="st20" points="65.53,180.09 66.98,179.42 70.28,180.35 69.67,181.35 65.62,180.09 					"/>
					<polyline class="st20" points="71.99,177.66 73.38,177.01 74.7,182.38 73.25,183.07 					"/>
					<line class="st20" x1="73.28" y1="183.1" x2="71.99" y2="177.66"/>
					<polyline class="st20" points="73.25,183.07 77.18,185.72 78.56,184.98 74.7,182.38 73.25,183.07 					"/>
					<polyline class="st20" points="74.02,193.09 73.88,187.79 75.3,186.93 75.44,192.44 74.03,193.14 					"/>
					<polyline class="st20" points="73.88,187.79 75.31,187.29 78.56,184.98 77.17,185.72 					"/>
					<g>
						<g>
							<g class="st21">
								<defs>
									<polygon id="SVGID_00000036238500823954645400000006376051277893302161_" class="st21" points="65.77,191 65.4,175.86 
										77.1,178.96 77.46,194.09 									"/>
								</defs>
								<clipPath id="SVGID_00000008139571197361796710000005144771766894252967_">
									<use xlink:href="#SVGID_00000036238500823954645400000006376051277893302161_"  style="overflow:visible;"/>
								</clipPath>
								<g style="clip-path:url(#SVGID_00000008139571197361796710000005144771766894252967_);">
									<g>
										<g>
											<g>
												<polyline class="st23" points="71.95,177.81 69.69,181.39 69.67,181.38 65.65,180.18 68.13,185.01 68.12,185.04 
													66.9,189.55 70.7,188.96 70.71,188.98 73.97,192.97 73.85,187.78 73.86,187.77 77.1,185.72 73.22,183.1 73.22,183.07 
													71.95,177.81 												"/>
												<path class="st15" d="M69.67,181.38l0.02,0.01l2.27-3.58l1.26,5.26l0.01,0.03l3.87,2.62l-3.23,2.06l-0.01,0.01
													l0.12,5.19l-3.26-3.99l-0.01-0.02l-3.8,0.59l1.22-4.52l0.01-0.02l-2.48-4.83L69.67,181.38 M71.98,177.6l-2.33,3.68
													l-4.08-1.22l-0.07-0.03l2.54,4.97l-1.23,4.58l-0.02,0.08l3.9-0.6l3.31,4.04l0.05,0.07l-0.12-5.34l3.28-2.08l0.06-0.04
													l-3.98-2.69L72,177.7L71.98,177.6"/>
											</g>
										</g>
									</g>
								</g>
							</g>
						</g>
					</g>
				</g>
				<g>
					<polyline class="st26" points="78.01,173.59 80.66,172.36 86.68,174.06 85.55,175.89 78.18,173.6 					"/>
					<polyline class="st26" points="89.79,169.17 92.33,167.98 94.73,177.77 92.09,179.02 					"/>
					<line class="st26" x1="92.13" y1="179.08" x2="89.79" y2="169.17"/>
					<polyline class="st26" points="92.09,179.02 99.25,183.86 101.76,182.51 94.73,177.77 92.09,179.02 					"/>
					<polyline class="st26" points="93.5,197.29 93.24,187.63 95.82,186.05 96.07,196.09 93.5,197.37 					"/>
					<polyline class="st26" points="93.24,187.63 95.84,186.72 101.76,182.51 99.22,183.86 					"/>
					<g>
						<g>
							<g class="st21">
								<defs>
									<polygon id="SVGID_00000015338737570752023400000003447872271295329154_" class="st21" points="78.45,193.46 77.78,165.89 
										99.1,171.54 99.77,199.11 									"/>
								</defs>
								<clipPath id="SVGID_00000124157175009601526860000007368999177260988345_">
									<use xlink:href="#SVGID_00000015338737570752023400000003447872271295329154_"  style="overflow:visible;"/>
								</clipPath>
								<g style="clip-path:url(#SVGID_00000124157175009601526860000007368999177260988345_);">
									<g>
										<g>
											<g>
												<polyline class="st23" points="89.73,169.44 85.59,175.95 85.56,175.94 78.24,173.76 82.74,182.56 82.73,182.6 
													80.51,190.85 87.43,189.78 87.46,189.81 93.4,197.08 93.17,187.61 99.1,183.85 92.04,179.07 92.03,179.02 89.73,169.44 
																									"/>
												<path class="st15" d="M85.56,175.94l0.03,0.01l4.13-6.51l2.3,9.58l0.01,0.04l7.06,4.78l-5.93,3.76l0.23,9.47l-5.94-7.27
													l-0.03-0.03l-6.92,1.07l2.22-8.24l0.01-0.04l-4.51-8.8L85.56,175.94 M89.77,169.07l-4.25,6.69l-7.42-2.21l-0.13-0.04
													l4.63,9.04l-2.26,8.35l-0.04,0.15l7.11-1.1l6.03,7.37l0.11,0.13l-0.24-9.72l5.98-3.79l0.11-0.07l-7.25-4.91l-2.33-9.71
													L89.77,169.07"/>
											</g>
										</g>
									</g>
								</g>
							</g>
						</g>
					</g>
				</g>
				<g>
					<polyline class="st20" points="52.13,184.12 53.58,183.44 56.89,184.38 56.27,185.38 52.22,184.12 					"/>
					<polyline class="st20" points="58.6,181.69 59.99,181.04 61.3,186.41 59.86,187.1 					"/>
					<line class="st20" x1="59.88" y1="187.13" x2="58.6" y2="181.69"/>
					<polyline class="st20" points="59.86,187.1 63.78,189.75 65.16,189.01 61.3,186.41 59.86,187.1 					"/>
					<polyline class="st20" points="60.63,197.12 60.49,191.82 61.9,190.95 62.04,196.46 60.63,197.17 					"/>
					<polyline class="st20" points="60.49,191.82 61.91,191.32 65.16,189.01 63.77,189.75 					"/>
					<g>
						<g>
							<g class="st21">
								<defs>
									<polygon id="SVGID_00000106834474708918939460000002271923742050239663_" class="st21" points="52.37,195.02 52.01,179.89 
										63.7,182.99 64.06,198.12 									"/>
								</defs>
								<clipPath id="SVGID_00000117656355467716756560000014408204791169081999_">
									<use xlink:href="#SVGID_00000106834474708918939460000002271923742050239663_"  style="overflow:visible;"/>
								</clipPath>
								<g style="clip-path:url(#SVGID_00000117656355467716756560000014408204791169081999_);">
									<g>
										<g>
											<g>
												<polyline class="st23" points="58.56,181.84 56.29,185.41 56.27,185.41 52.26,184.21 54.73,189.05 54.72,189.06 
													53.5,193.59 57.3,192.99 57.32,193.02 60.58,197.01 60.45,191.81 60.46,191.8 63.7,189.74 59.83,187.12 59.82,187.1 
													58.56,181.84 												"/>
												<path class="st15" d="M56.27,185.41l0.01,0l2.27-3.57l1.26,5.26l0.01,0.02l3.87,2.62l-3.24,2.05l-0.01,0.01l0.13,5.2
													l-3.26-3.99l-0.02-0.02l-3.8,0.59l1.22-4.52l0.01-0.02l-2.47-4.83L56.27,185.41 M58.58,181.64l-2.33,3.67l-4.07-1.21
													l-0.07-0.02l2.54,4.96l-1.24,4.59l-0.02,0.08l3.9-0.61l3.31,4.04l0.06,0.08l-0.13-5.33l3.28-2.09l0.06-0.04l-3.97-2.69
													l-1.28-5.33L58.58,181.64"/>
											</g>
										</g>
									</g>
								</g>
							</g>
						</g>
					</g>
				</g>
			</g>
		</g>
	</g>
</g>
</svg>
