<?xml version="1.0" encoding="utf-8"?>
<!-- Generator: Adobe Illustrator 25.4.1, SVG Export Plug-In . SVG Version: 6.00 Build 0)  -->
<svg version="1.1" id="Capa_1" xmlns="http://www.w3.org/2000/svg" xmlns:xlink="http://www.w3.org/1999/xlink" x="0px" y="0px"
	 viewBox="0 0 289 330" style="enable-background:new 0 0 289 330;" xml:space="preserve">
<style type="text/css">
	.st0{fill:#249DCF;}
	.st1{fill:#E0FCFD;}
	.st2{fill:#67DAFF;}
	.st3{fill:#27AAE1;}
	.st4{fill:none;stroke:#09227D;stroke-linecap:round;stroke-miterlimit:10;}
	.st5{fill:none;stroke:#09227D;stroke-width:1.2554;stroke-linecap:round;stroke-miterlimit:10;}
	.st6{fill:#797EF6;}
	.st7{fill:#193174;}
	.st8{fill:#081F51;}
	.st9{fill:#E3FFFF;}
	.st10{fill:#081E7A;}
	.st11{opacity:0.1;}
	.st12{fill:#D268CC;}
	.st13{fill:#FFFFFF;}
	.st14{opacity:0.5;fill:#27AAE1;}
	.st15{opacity:0.3;fill:#27AAE1;}
	.st16{opacity:0.5;fill:#FFFFFF;}
	.st17{fill:#284785;}
	.st18{fill:#FAFAFA;}
	.st19{fill:#E1E1E1;}
	.st20{opacity:0.3;}
	.st21{fill:#FFFFFF;stroke:#E1E1E1;stroke-width:1.8258;stroke-miterlimit:10;}
	.st22{fill:none;stroke:#081E7A;stroke-width:4.0449;stroke-miterlimit:10;}
	.st23{fill:none;stroke:#081E7A;stroke-width:1.2481;stroke-miterlimit:10;}
	.st24{fill:#67DAFF;stroke:#1D3582;stroke-width:1.5428;stroke-miterlimit:10;}
	.st25{fill:#DFFFFF;stroke:#1D3582;stroke-width:0.9257;stroke-miterlimit:10;}
	.st26{fill:#DFFFFF;}
	.st27{fill:none;stroke:#1D3582;stroke-width:1.5428;stroke-linecap:round;stroke-linejoin:round;stroke-miterlimit:10;}
	.st28{fill:#67DAFF;stroke:#1D3582;stroke-width:1.5428;stroke-linecap:round;stroke-linejoin:round;stroke-miterlimit:10;}
	.st29{clip-path:url(#SVGID_00000114755640794124984400000000150794836258460334_);}
	.st30{fill:#E1FDFD;}
	.st31{fill:#FBFCFD;}
	.st32{fill:#66D8FD;}
	.st33{fill:#18398B;}
	.st34{fill:#1E3C8D;}
	.st35{fill:#27A9E0;}
	.st36{fill:#27A8DF;}
	.st37{fill:#09227D;}
	.st38{fill:none;stroke:#09227D;stroke-width:0.6171;stroke-linecap:round;stroke-miterlimit:10;}
	
		.st39{clip-path:url(#SVGID_00000114755640794124984400000000150794836258460334_);fill:none;stroke:#09227D;stroke-width:0.6171;stroke-linecap:round;stroke-miterlimit:10;}
	.st40{fill:#5DD4FC;stroke:#1D3582;stroke-width:0.9257;stroke-miterlimit:10;}
	.st41{fill:none;stroke:#081E7A;stroke-width:2.5702;stroke-miterlimit:10;}
	.st42{fill:none;stroke:#09227D;stroke-width:1.2495;stroke-linecap:round;stroke-miterlimit:10;}
	.st43{fill:none;stroke:#09227D;stroke-width:0.901;stroke-linecap:round;stroke-miterlimit:10;}
	.st44{fill:url(#SVGID_00000048495157418448709930000009661797437873802898_);}
	.st45{fill:#FDFDFD;}
	.st46{fill:#E4FBFD;}
	.st47{fill:#233282;}
	.st48{fill:#3A639A;}
	.st49{fill:#4EA7DD;}
	.st50{fill:#7ED6FB;}
	.st51{fill:none;stroke:#081E7A;stroke-width:1.4534;stroke-miterlimit:10;}
	.st52{opacity:0.15;}
	.st53{opacity:0.3;fill:#FFFFFF;}
	.st54{fill:#27AAE1;stroke:#081E7A;stroke-width:1.078;stroke-miterlimit:10;}
	.st55{fill:#E3FFFF;stroke:#081E7A;stroke-width:1.078;stroke-miterlimit:10;}
	.st56{fill:none;stroke:#081E7A;stroke-width:1.078;stroke-linecap:round;stroke-linejoin:round;stroke-miterlimit:10;}
	.st57{opacity:0.4;fill:#193174;}
	.st58{fill:#D268CC;stroke:#193174;stroke-width:0.3593;stroke-miterlimit:10;}
	.st59{fill:#FFFFFF;stroke:#193174;stroke-width:0.3593;stroke-miterlimit:10;}
	.st60{fill:#67DAFF;stroke:#193174;stroke-width:0.3593;stroke-miterlimit:10;}
	.st61{fill:#93D5F0;stroke:#193174;stroke-width:0.0991;stroke-miterlimit:10;}
	.st62{enable-background:new    ;}
	.st63{clip-path:url(#SVGID_00000151533168855922149710000011828373087384126883_);}
	.st64{fill:#B3EDFF;}
	.st65{clip-path:url(#SVGID_00000080907973672354161230000001844906463586742401_);}
	.st66{clip-path:url(#SVGID_00000107546604536797524660000006504139078859646349_);}
	.st67{fill:#93D5F0;stroke:#193174;stroke-width:0.1806;stroke-miterlimit:10;}
	.st68{clip-path:url(#SVGID_00000091704035121842695200000007414692667866031266_);}
	.st69{clip-path:url(#SVGID_00000049182952525320903980000007988992532546587021_);}
	.st70{fill:#6F74E2;}
	.st71{fill:#27AAE1;stroke:#081E7A;stroke-width:3;stroke-miterlimit:10;}
	.st72{fill:#E3FFFF;stroke:#081E7A;stroke-width:3;stroke-miterlimit:10;}
	.st73{fill:none;stroke:#081E7A;stroke-width:3;stroke-linecap:round;stroke-linejoin:round;stroke-miterlimit:10;}
	.st74{clip-path:url(#SVGID_00000072961179780351645900000014247441511796947086_);}
	.st75{opacity:0.47;fill-opacity:0.07;enable-background:new    ;}
	.st76{fill:#091E7A;}
	.st77{fill:#FFFFFF;stroke:#091E7A;stroke-width:0.8723;stroke-miterlimit:10;}
	.st78{fill-rule:evenodd;clip-rule:evenodd;fill:#081E7A;}
	.st79{fill:#0B267F;}
	.st80{fill-rule:evenodd;clip-rule:evenodd;fill:#091E7A;}
</style>
<g>
	<defs>
		<path id="SVGID_00000059988427681777695540000017561005068296647306_" d="M21.51-31.15h245.99c6.74,0,12.21,5.47,12.21,12.21
			V316.9c0,6.74-5.47,12.21-12.21,12.21H21.51c-6.74,0-12.21-5.47-12.21-12.21V-18.93C9.29-25.68,14.76-31.15,21.51-31.15z"/>
	</defs>
	<clipPath id="SVGID_00000020357604801207610610000004666795516379799940_">
		<use xlink:href="#SVGID_00000059988427681777695540000017561005068296647306_"  style="overflow:visible;"/>
	</clipPath>
	<g style="clip-path:url(#SVGID_00000020357604801207610610000004666795516379799940_);">
		<path class="st75" d="M251.63,224.77l-0.3-0.08l-65.3-16.62l-0.06-0.02l-26.62-36.57L16.78,254.33l26.51,36.42l0.11,0.15
			l64.89,17.16l0.21,0.26l30.17,37.59l142.56-82.84L251.63,224.77z"/>
		<path class="st76" d="M49.96,268.36l-0.01,2.75l-25.71-35.33l0.01-2.75L49.96,268.36z"/>
		<path class="st76" d="M112.64,284.94l-0.01,2.75l-62.68-16.58l0.01-2.75L112.64,284.94z"/>
		<path class="st9" d="M187.72,188.36L49.86,268.21l0.1,0.15l62.68,16.58l0.2,0.25l137.95-80.78L187.72,188.36z"/>
		<path class="st77" d="M279.68,241.47l-28.59-36.99l-0.29-0.07l-137.95,80.78l29.14,36.31L279.68,241.47z"/>
		<path class="st77" d="M187.66,188.34l-25.71-35.33l-137.7,80.02l25.61,35.18l137.86-79.86L187.66,188.34z"/>
		<path class="st78" d="M188.22,187.82l62.81,16.14l-0.22,0.84l-62.81-16.14L188.22,187.82z"/>
		<path class="st76" d="M279.68,241.47l-0.01,2.75l-137.7,80.02l0.01-2.75L279.68,241.47z"/>
		<path class="st76" d="M141.99,321.49l-0.01,2.75l-29.34-36.55l0.01-2.75L141.99,321.49z"/>
		<path class="st76" d="M172.82,135.12c0.29-0.08,0.56-0.17,0.84-0.26c0.18-0.06,0.36-0.12,0.54-0.18c0.3-0.11,0.59-0.24,0.89-0.36
			c0.14-0.06,0.29-0.12,0.43-0.18c0.43-0.2,0.85-0.42,1.26-0.65l15.39-8.94c-0.41,0.24-0.83,0.45-1.26,0.66
			c-0.14,0.07-0.29,0.12-0.43,0.18c-0.29,0.13-0.59,0.25-0.88,0.36c-0.18,0.07-0.36,0.12-0.53,0.18c-0.28,0.09-0.56,0.18-0.84,0.26
			c-0.19,0.05-0.39,0.1-0.59,0.14c-0.28,0.07-0.56,0.13-0.84,0.18c-0.22,0.04-0.44,0.07-0.66,0.11c-0.25,0.04-0.49,0.07-0.74,0.1
			c-0.23,0.03-0.47,0.05-0.7,0.06c-0.25,0.02-0.5,0.03-0.76,0.04c-0.24,0.01-0.48,0.01-0.72,0.01c-0.26,0-0.52,0-0.78-0.01
			c-0.25-0.01-0.5-0.02-0.74-0.04c-0.27-0.02-0.53-0.04-0.8-0.07c-0.27-0.03-0.55-0.06-0.82-0.1c-0.2-0.03-0.4-0.06-0.6-0.09
			c-0.31-0.05-0.61-0.11-0.92-0.17c-0.2-0.04-0.39-0.08-0.59-0.12c-0.33-0.07-0.68-0.16-1.01-0.25c-0.18-0.04-0.35-0.09-0.52-0.13
			c-0.46-0.13-0.92-0.27-1.39-0.43c-0.06-0.02-0.11-0.04-0.18-0.06c-0.53-0.18-1.06-0.38-1.59-0.59c-0.16-0.07-0.33-0.14-0.49-0.21
			c-0.37-0.16-0.74-0.31-1.12-0.48c-0.2-0.09-0.41-0.19-0.62-0.29c-0.34-0.16-0.68-0.33-1.03-0.5c-0.22-0.11-0.44-0.23-0.66-0.35
			c-0.46-0.24-0.92-0.49-1.38-0.76l-15.39,8.94c0.28,0.16,0.57,0.32,0.85,0.48c0.18,0.1,0.35,0.18,0.53,0.28
			c0.22,0.12,0.44,0.23,0.66,0.35c0.34,0.18,0.69,0.34,1.03,0.5c0.21,0.1,0.41,0.2,0.62,0.29c0.38,0.17,0.75,0.33,1.12,0.48
			c0.16,0.07,0.33,0.14,0.5,0.21c0.53,0.21,1.05,0.41,1.58,0.59c0,0,0.01,0,0.02,0c0.06,0.02,0.12,0.04,0.18,0.06
			c0.47,0.16,0.93,0.3,1.39,0.43c0.18,0.05,0.35,0.09,0.52,0.14c0.34,0.09,0.68,0.18,1.01,0.25c0.2,0.05,0.39,0.08,0.59,0.12
			c0.31,0.06,0.62,0.12,0.92,0.17c0.2,0.03,0.4,0.06,0.6,0.09c0.15,0.02,0.29,0.05,0.44,0.07c0.13,0.02,0.25,0.02,0.38,0.03
			c0.27,0.03,0.54,0.05,0.8,0.07c0.25,0.02,0.49,0.03,0.74,0.04c0.26,0.01,0.52,0.01,0.78,0.01c0.24,0,0.48,0,0.72-0.01
			c0.25-0.01,0.51-0.02,0.76-0.04c0.24-0.02,0.47-0.04,0.7-0.06c0.25-0.03,0.49-0.06,0.74-0.1c0.13-0.02,0.27-0.03,0.4-0.05
			c0.09-0.02,0.17-0.04,0.26-0.06c0.28-0.05,0.56-0.12,0.84-0.18C172.43,135.22,172.63,135.18,172.82,135.12z"/>
		<path class="st79" d="M148.53,128.52c0.22,0.16,0.43,0.31,0.65,0.46c0.37,0.25,0.74,0.5,1.12,0.74c0.18,0.12,0.36,0.25,0.55,0.36
			c0.56,0.36,1.12,0.7,1.69,1.02l15.39-8.94c-0.56-0.33-1.13-0.67-1.69-1.02c-0.18-0.12-0.37-0.24-0.55-0.36
			c-0.37-0.24-0.74-0.49-1.12-0.74c-0.22-0.15-0.43-0.31-0.65-0.47c-0.33-0.24-0.66-0.47-0.99-0.72c-0.23-0.17-0.46-0.35-0.68-0.52
			c-0.31-0.24-0.62-0.48-0.92-0.72c-0.27-0.21-0.53-0.43-0.79-0.65c-0.28-0.24-0.57-0.47-0.85-0.71c-0.26-0.23-0.52-0.45-0.77-0.68
			c-0.28-0.25-0.55-0.5-0.83-0.75c-0.26-0.24-0.51-0.48-0.76-0.72c-0.27-0.26-0.54-0.52-0.81-0.78c-0.25-0.25-0.5-0.5-0.75-0.75
			c-0.27-0.27-0.53-0.54-0.79-0.81c-0.25-0.26-0.49-0.52-0.73-0.78c-0.26-0.28-0.52-0.56-0.77-0.85c-0.24-0.27-0.48-0.54-0.71-0.81
			c-0.25-0.29-0.5-0.58-0.75-0.88c-0.23-0.28-0.46-0.56-0.69-0.83c-0.25-0.3-0.49-0.6-0.72-0.9c-0.23-0.29-0.45-0.57-0.67-0.86
			c-0.24-0.31-0.47-0.62-0.7-0.93c-0.22-0.29-0.43-0.59-0.65-0.88c-0.23-0.32-0.45-0.63-0.68-0.95c-0.21-0.3-0.42-0.6-0.63-0.9
			c-0.22-0.32-0.44-0.65-0.66-0.97c-0.2-0.31-0.4-0.61-0.61-0.92c-0.21-0.33-0.42-0.66-0.63-0.99c-0.2-0.31-0.39-0.63-0.58-0.94
			c-0.2-0.33-0.4-0.67-0.6-1.01c-0.19-0.32-0.37-0.64-0.56-0.96c-0.19-0.34-0.38-0.68-0.57-1.02c-0.18-0.32-0.36-0.65-0.53-0.97
			c-0.18-0.34-0.36-0.69-0.54-1.04c-0.17-0.33-0.33-0.66-0.5-0.98c-0.18-0.35-0.34-0.7-0.52-1.06c-0.16-0.33-0.31-0.66-0.47-0.99
			c-0.15-0.33-0.3-0.65-0.45-0.98c-0.18-0.41-0.37-0.83-0.54-1.24c-0.14-0.32-0.27-0.64-0.41-0.96c-0.17-0.41-0.34-0.83-0.5-1.24
			c-0.13-0.32-0.25-0.65-0.37-0.97c-0.16-0.42-0.31-0.84-0.46-1.26c-0.11-0.32-0.23-0.64-0.34-0.96c-0.15-0.43-0.29-0.86-0.42-1.28
			c-0.11-0.33-0.21-0.65-0.32-0.99c-0.09-0.28-0.16-0.55-0.25-0.83c-0.12-0.4-0.23-0.8-0.34-1.2c-0.08-0.29-0.15-0.57-0.23-0.86
			c-0.1-0.39-0.2-0.79-0.29-1.18c-0.07-0.29-0.13-0.57-0.2-0.86c-0.09-0.4-0.17-0.79-0.25-1.19c-0.06-0.28-0.12-0.56-0.17-0.84
			c-0.08-0.42-0.16-0.85-0.23-1.27c-0.04-0.24-0.08-0.47-0.12-0.71c-0.08-0.51-0.15-1.02-0.21-1.53c-0.02-0.15-0.04-0.3-0.06-0.45
			c-0.08-0.66-0.14-1.31-0.2-1.96c-0.01-0.17-0.02-0.34-0.03-0.5c-0.03-0.47-0.07-0.93-0.09-1.4c-0.03-0.76-0.05-1.52-0.05-2.27
			c0-0.6,0.02-1.18,0.04-1.76c0.01-0.16,0.02-0.31,0.02-0.46c0.03-0.49,0.06-0.98,0.1-1.46c0.01-0.09,0.01-0.17,0.02-0.26
			c0.05-0.54,0.12-1.06,0.19-1.58c0.03-0.19,0.06-0.37,0.09-0.56c0.06-0.36,0.12-0.72,0.18-1.08c0.04-0.2,0.08-0.39,0.12-0.58
			c0.07-0.34,0.15-0.68,0.23-1.02c0.05-0.18,0.09-0.36,0.13-0.53c0.1-0.38,0.21-0.76,0.33-1.13c0.03-0.11,0.07-0.23,0.1-0.34
			c0.16-0.47,0.32-0.94,0.49-1.39c0.04-0.11,0.09-0.22,0.14-0.34c0.14-0.34,0.27-0.66,0.42-0.99c0.07-0.15,0.14-0.3,0.21-0.45
			c0.13-0.27,0.27-0.55,0.41-0.81c0.08-0.15,0.16-0.3,0.24-0.44c0.15-0.27,0.3-0.52,0.46-0.77c0.08-0.13,0.16-0.26,0.24-0.38
			c0.2-0.32,0.42-0.62,0.64-0.91c0.04-0.05,0.07-0.11,0.12-0.16c0.26-0.34,0.53-0.68,0.81-0.99c0.08-0.09,0.17-0.18,0.25-0.27
			c0.2-0.22,0.41-0.44,0.62-0.65c0.11-0.11,0.22-0.21,0.33-0.31c0.2-0.19,0.4-0.37,0.61-0.54c0.11-0.1,0.23-0.2,0.35-0.29
			c0.22-0.18,0.45-0.35,0.68-0.51c0.11-0.08,0.21-0.16,0.31-0.23c0.34-0.23,0.68-0.45,1.03-0.66l-15.54,7.94
			c-0.35,0.2-0.54,0.28-0.87,0.51c0-1.21-0.33-0.07-0.44,0c-0.23,0.16-0.65,1.08-0.87,1.26c-0.35-0.97-0.44-1.26-0.44,0
			c-0.4-0.8-0.34,0.44-0.53,0.63c-0.11,0.1,0.11,1.04,0,1.15c-0.21,0.21-0.42,0.43-0.62,0.65c-0.08,0.09-0.17,0.18-0.25,0.27
			c-0.28,0.32-0.55,0.65-0.81,0.99c-0.04,0.05-0.08,0.11-0.11,0.16c-0.22,0.29-0.43,0.6-0.64,0.91c-0.08,0.12-0.16,0.25-0.24,0.38
			c-0.16,0.25-0.31,0.51-0.46,0.77c-0.08,0.15-0.16,0.29-0.25,0.44c-0.14,0.27-0.28,0.54-0.41,0.81c-0.07,0.15-0.14,0.29-0.21,0.45
			c-0.15,0.32-0.29,0.65-0.42,0.98c-0.05,0.11-0.09,0.23-0.14,0.34c-0.18,0.45-0.34,0.91-0.49,1.38c-0.04,0.11-0.07,0.23-0.1,0.34
			c-0.12,0.37-0.23,0.74-0.33,1.13c-0.04,0.18-0.09,0.35-0.13,0.53c-0.08,0.34-0.16,0.67-0.23,1.02c-0.04,0.19-0.08,0.38-0.12,0.58
			c-0.07,0.35-0.13,0.71-0.18,1.08c-0.03,0.19-0.06,0.37-0.09,0.56c-0.01,0.08-0.02,0.15-0.04,0.23c-0.06,0.44-0.11,0.9-0.16,1.35
			c-0.01,0.09-0.01,0.17-0.02,0.26c-0.04,0.48-0.08,0.96-0.1,1.46c-0.01,0.16-0.02,0.31-0.02,0.46c-0.02,0.58-0.04,1.16-0.05,1.76
			c0,0.75,0.02,1.51,0.05,2.27c0,0.06,0,0.12,0,0.18c0.02,0.41,0.05,0.81,0.08,1.22c0.01,0.17,0.02,0.34,0.03,0.5
			c0.05,0.65,0.12,1.31,0.2,1.96c0.02,0.15,0.04,0.3,0.06,0.45c0.07,0.51,0.14,1.02,0.21,1.53c0.04,0.24,0.08,0.47,0.12,0.71
			c0.05,0.3,0.1,0.61,0.16,0.91c0.02,0.12,0.05,0.24,0.07,0.36c0.05,0.28,0.11,0.56,0.17,0.84c0.08,0.4,0.16,0.79,0.25,1.19
			c0.07,0.28,0.13,0.57,0.2,0.85c0.09,0.4,0.19,0.79,0.29,1.19c0.07,0.29,0.15,0.57,0.23,0.86c0.11,0.4,0.23,0.8,0.34,1.2
			c0.08,0.28,0.16,0.55,0.25,0.83c0.03,0.11,0.06,0.21,0.09,0.32c0.07,0.22,0.15,0.44,0.22,0.66c0.14,0.43,0.28,0.86,0.42,1.28
			c0.11,0.32,0.23,0.64,0.34,0.96c0.15,0.42,0.3,0.84,0.46,1.26c0.12,0.32,0.25,0.65,0.37,0.97c0.16,0.42,0.33,0.83,0.5,1.24
			c0.13,0.32,0.27,0.64,0.4,0.97c0.18,0.41,0.36,0.83,0.54,1.24c0.09,0.2,0.17,0.39,0.26,0.59c0.06,0.13,0.13,0.27,0.19,0.4
			c0.15,0.33,0.31,0.66,0.47,0.99c0.17,0.36,0.34,0.71,0.52,1.06c0.16,0.33,0.33,0.65,0.5,0.98c0.18,0.35,0.36,0.7,0.54,1.04
			c0.17,0.32,0.35,0.65,0.53,0.97c0.19,0.34,0.38,0.69,0.58,1.03c0.18,0.32,0.37,0.64,0.55,0.95c0.2,0.34,0.4,0.68,0.6,1.01
			c0.19,0.31,0.38,0.63,0.58,0.94c0.21,0.33,0.42,0.66,0.63,0.99c0.2,0.31,0.4,0.62,0.61,0.93c0.22,0.33,0.43,0.65,0.66,0.97
			c0.21,0.3,0.42,0.6,0.63,0.9c0.23,0.32,0.45,0.64,0.68,0.95c0.21,0.29,0.43,0.59,0.65,0.88c0.23,0.31,0.47,0.62,0.7,0.93
			c0.22,0.29,0.45,0.57,0.67,0.86c0.24,0.3,0.48,0.61,0.73,0.9c0.23,0.28,0.46,0.56,0.69,0.83c0.25,0.29,0.5,0.59,0.75,0.88
			c0.23,0.27,0.47,0.54,0.71,0.81c0.25,0.29,0.51,0.57,0.77,0.85c0.24,0.26,0.48,0.52,0.73,0.78c0.26,0.27,0.52,0.54,0.79,0.81
			c0.25,0.25,0.5,0.5,0.75,0.75c0.27,0.27,0.54,0.52,0.81,0.78c0.25,0.24,0.51,0.48,0.76,0.72c0.27,0.25,0.55,0.5,0.83,0.75
			c0.26,0.23,0.52,0.46,0.77,0.68c0.28,0.24,0.56,0.48,0.85,0.71c0.26,0.22,0.52,0.44,0.79,0.65c0.09,0.07,0.17,0.14,0.25,0.21
			c0.22,0.18,0.45,0.34,0.67,0.51c0.23,0.18,0.45,0.35,0.68,0.52C147.87,128.04,148.2,128.28,148.53,128.52z"/>
		<path class="st76" d="M203.7,160.36l-51.56,59.88c10.19-5.92,19.31-13.5,27-22.43l39.95-46.39L203.7,160.36z"/>
		<path class="st76" d="M110.87,13.07c0.16-0.07,0.31-0.14,0.47-0.21c0.24-0.11,0.48-0.22,0.72-0.32c0.17-0.07,0.34-0.14,0.5-0.2
			c0.24-0.09,0.48-0.19,0.72-0.27c0.18-0.07,0.35-0.13,0.53-0.19c0.24-0.08,0.48-0.16,0.72-0.24c0.18-0.06,0.36-0.11,0.54-0.17
			c0.25-0.07,0.49-0.14,0.74-0.21c0.18-0.05,0.36-0.1,0.54-0.14c0.26-0.07,0.52-0.13,0.77-0.18c0.18-0.04,0.35-0.08,0.53-0.12
			c0.27-0.06,0.56-0.11,0.83-0.16c0.17-0.03,0.33-0.07,0.5-0.09c0.23-0.04,0.47-0.07,0.7-0.11c0.2-0.03,0.39-0.06,0.59-0.09
			c0.24-0.03,0.48-0.05,0.72-0.08c0.2-0.02,0.4-0.05,0.6-0.07c0.25-0.02,0.49-0.04,0.74-0.05c0.2-0.01,0.4-0.03,0.6-0.04
			c0.25-0.01,0.51-0.02,0.77-0.03c0.2-0.01,0.39-0.02,0.59-0.02c0.27,0,0.54,0,0.81,0c0.19,0,0.38,0,0.56,0
			c0.29,0,0.59,0.02,0.88,0.03c0.17,0.01,0.34,0.01,0.51,0.02c0.39,0.02,0.78,0.05,1.17,0.08c0.08,0.01,0.16,0.01,0.24,0.02
			c0.47,0.04,0.95,0.09,1.43,0.15c0.01,0,0.02,0,0.03,0c0.76,0.09,1.52,0.21,2.29,0.34c0.11,0.02,0.21,0.04,0.32,0.05
			c0.74,0.14,1.49,0.29,2.24,0.46c0.14,0.03,0.28,0.07,0.42,0.1c0.75,0.18,1.51,0.38,2.28,0.59c0.12,0.04,0.25,0.07,0.37,0.11
			c0.8,0.23,1.6,0.48,2.41,0.76c0.03,0.01,0.06,0.02,0.09,0.03c0.8,0.27,1.6,0.57,2.41,0.89c0.11,0.05,0.22,0.09,0.33,0.13
			c0.79,0.32,1.59,0.65,2.39,1c0.15,0.07,0.3,0.13,0.45,0.2c0.8,0.36,1.6,0.74,2.41,1.13c0.13,0.07,0.27,0.14,0.4,0.2
			c0.84,0.42,1.69,0.86,2.53,1.33c0.52,0.29,1.05,0.58,1.58,0.89l15.39-8.94c-0.52-0.3-1.04-0.59-1.55-0.88
			c-0.01,0-0.02-0.01-0.02-0.01c-0.85-0.47-1.69-0.9-2.54-1.33c-0.13-0.07-0.27-0.14-0.4-0.2c-0.81-0.4-1.61-0.78-2.41-1.14
			c-0.15-0.07-0.3-0.14-0.45-0.2c-0.8-0.35-1.6-0.69-2.39-1c-0.11-0.05-0.22-0.09-0.33-0.13c-0.81-0.32-1.61-0.61-2.41-0.89
			c-0.02-0.01-0.05-0.02-0.07-0.02c-0.01,0-0.01,0-0.02-0.01c-0.81-0.28-1.61-0.52-2.41-0.76c-0.12-0.04-0.25-0.07-0.37-0.11
			c-0.77-0.22-1.52-0.41-2.28-0.59c-0.14-0.03-0.28-0.07-0.42-0.1c-0.75-0.17-1.5-0.33-2.24-0.46c-0.11-0.02-0.22-0.04-0.32-0.05
			c-0.77-0.14-1.53-0.25-2.29-0.34c-0.01,0-0.02,0-0.02,0c0,0-0.01,0-0.01,0c-0.48-0.06-0.96-0.11-1.43-0.15
			c-0.08-0.01-0.16-0.01-0.24-0.02c-0.39-0.03-0.79-0.06-1.17-0.08c-0.17-0.01-0.34-0.01-0.51-0.02c-0.29-0.01-0.59-0.02-0.88-0.03
			c-0.19,0-0.38,0-0.57,0c-0.27,0-0.54,0-0.81,0c-0.2,0-0.39,0.01-0.59,0.02c-0.25,0.01-0.51,0.02-0.76,0.03
			c-0.2,0.01-0.4,0.03-0.6,0.04c-0.25,0.02-0.5,0.03-0.74,0.05c-0.2,0.02-0.4,0.04-0.6,0.07c-0.24,0.02-0.48,0.05-0.72,0.08
			c-0.2,0.02-0.4,0.06-0.59,0.09c-0.23,0.03-0.47,0.07-0.7,0.11c-0.03,0-0.07,0.01-0.1,0.02c-0.13,0.02-0.26,0.05-0.4,0.08
			c-0.28,0.05-0.56,0.1-0.83,0.16c-0.18,0.04-0.36,0.08-0.53,0.12c-0.26,0.06-0.52,0.12-0.77,0.18c-0.18,0.05-0.36,0.09-0.54,0.14
			c-0.25,0.07-0.5,0.14-0.74,0.21c-0.18,0.05-0.36,0.11-0.54,0.17c-0.24,0.08-0.48,0.16-0.72,0.24c-0.18,0.06-0.35,0.12-0.53,0.19
			c-0.24,0.09-0.48,0.18-0.72,0.27c-0.17,0.07-0.33,0.13-0.5,0.2c-0.25,0.1-0.49,0.21-0.72,0.32c-0.16,0.07-0.31,0.14-0.46,0.21
			c-0.27,0.12-0.52,0.25-0.79,0.39c-0.13,0.06-0.25,0.12-0.38,0.19c-0.38,0.2-0.76,0.41-1.13,0.63l-15.39,8.94
			c0.37-0.22,0.75-0.43,1.13-0.63c0.13-0.07,0.25-0.13,0.38-0.19C110.35,13.32,110.61,13.19,110.87,13.07z"/>
		<path class="st2" d="M152.85,18.61c-34.37-19.85-62.32-3.91-62.44,35.59c-0.04,14.97,4.76,31.13,10.75,46.97l50.96,119.07
			l51.56-59.88c6.71-10.2,11.14-19.18,11.19-34.3C215,86.56,187.23,38.45,152.85,18.61z M152.54,131.11
			c-18.81-10.86-34.01-37.19-33.95-58.8c0.06-21.61,15.82-31.88,34.63-21.02c18.81,10.86,33.55,38.74,33.49,60.35
			C186.64,133.25,171.35,141.97,152.54,131.11z"/>
		<path class="st80" d="M108.79,11.6c11.66-6.65,27.59-5.55,44.93,4.46c17.35,10.02,32.98,27.13,44.27,46.67
			c11.28,19.54,18.26,41.59,18.2,61.53c-0.05,15.35-4.57,24.49-11.33,34.78l-0.03,0.05l-52.51,60.98L100.8,99.7l-0.01-0.02
			C94.79,83.82,89.94,67.54,89.98,52.4C90.04,32.46,97.13,18.25,108.79,11.6z M91.73,52.4c-0.04,14.8,4.71,30.83,10.69,46.64
			l50.4,117.77l50.61-58.77c6.64-10.1,10.97-18.91,11.02-33.78c0.06-19.56-6.8-41.31-17.97-60.65
			c-11.17-19.35-26.61-36.21-43.63-46.04c-17.03-9.83-32.26-10.69-43.2-4.46C98.72,19.34,91.78,32.84,91.73,52.4z M129.51,49.36
			c-5.82,3.32-9.58,10.54-9.61,21.16c-0.03,10.62,3.69,22.45,9.78,33c6.09,10.54,14.49,19.71,23.73,25.05
			c9.25,5.34,17.43,5.76,23.25,2.44c5.82-3.32,9.58-10.54,9.62-21.16c0.03-10.61-3.69-22.45-9.78-32.99
			C170.41,66.31,162,57.13,152.76,51.8C143.51,46.46,135.33,46.04,129.51,49.36z M128.65,47.85c6.55-3.73,15.42-3.08,24.98,2.44
			c9.57,5.53,18.17,14.95,24.37,25.69c6.2,10.74,10.04,22.87,10.01,33.87c-0.03,10.99-3.95,18.94-10.5,22.67
			c-6.55,3.73-15.42,3.08-24.98-2.44c-9.57-5.52-18.17-14.95-24.37-25.69c-6.2-10.74-10.05-22.88-10.01-33.88
			C118.19,59.52,122.1,51.58,128.65,47.85z"/>
		<path class="st76" d="M221.29,147.95c0.12-0.2,0.25-0.4,0.36-0.6c0.24-0.4,0.48-0.8,0.72-1.2c0.11-0.18,0.21-0.36,0.31-0.54
			c0.33-0.57,0.66-1.15,0.97-1.72c0.01-0.02,0.02-0.03,0.02-0.04c0.3-0.56,0.59-1.12,0.88-1.68c0.09-0.18,0.18-0.36,0.27-0.54
			c0.2-0.41,0.4-0.81,0.59-1.23c0.09-0.2,0.19-0.41,0.28-0.62c0.19-0.42,0.37-0.83,0.54-1.26c0.08-0.18,0.16-0.37,0.23-0.56
			c0.25-0.61,0.48-1.22,0.7-1.83c0.01-0.03,0.02-0.05,0.03-0.08c0.21-0.59,0.41-1.19,0.61-1.8c0.06-0.2,0.12-0.4,0.18-0.61
			c0.14-0.45,0.27-0.9,0.39-1.36c0.06-0.23,0.12-0.46,0.18-0.69c0.12-0.47,0.23-0.95,0.34-1.43c0.05-0.21,0.09-0.41,0.14-0.62
			c0.15-0.69,0.28-1.39,0.4-2.1c0.01-0.05,0.01-0.09,0.02-0.14c0.09-0.57,0.18-1.15,0.26-1.75c0.01-0.1,0.02-0.2,0.04-0.3
			c0.03-0.24,0.06-0.49,0.08-0.73c0.06-0.52,0.11-1.05,0.16-1.59c0.02-0.27,0.05-0.55,0.07-0.83c0.04-0.55,0.07-1.11,0.1-1.69
			c0.01-0.25,0.03-0.51,0.04-0.77c0.03-0.83,0.05-1.67,0.05-2.53c0-0.69-0.01-1.38-0.02-2.07c0-0.22-0.01-0.45-0.02-0.67
			c-0.01-0.47-0.03-0.95-0.05-1.42c0-0.11,0-0.21-0.01-0.32c0-0.1-0.02-0.2-0.02-0.29c-0.05-0.96-0.11-1.93-0.19-2.9
			c-0.01-0.11-0.02-0.22-0.03-0.32c-0.08-0.96-0.18-1.93-0.29-2.89c-0.01-0.09-0.02-0.18-0.03-0.27c-0.12-0.99-0.25-1.97-0.4-2.96
			c-0.03-0.18-0.05-0.35-0.08-0.53c-0.15-0.97-0.31-1.94-0.49-2.91c-0.01-0.07-0.02-0.15-0.04-0.23c-0.02-0.1-0.04-0.2-0.06-0.29
			c-0.19-1.02-0.4-2.05-0.62-3.07c-0.02-0.12-0.05-0.23-0.08-0.35c-0.23-1.06-0.47-2.12-0.74-3.17c-0.01-0.03-0.02-0.07-0.02-0.1
			c-0.27-1.06-0.55-2.13-0.84-3.19c-0.04-0.14-0.08-0.29-0.12-0.43c-0.29-1.02-0.59-2.04-0.9-3.06c-0.03-0.09-0.05-0.19-0.09-0.29
			c-0.02-0.07-0.05-0.14-0.07-0.21c-0.4-1.26-0.81-2.52-1.25-3.79c-0.04-0.12-0.08-0.25-0.13-0.37c-0.46-1.31-0.94-2.62-1.44-3.93
			c-0.02-0.06-0.04-0.12-0.07-0.18c-0.52-1.36-1.07-2.72-1.64-4.08c-0.02-0.05-0.04-0.1-0.07-0.15c-0.55-1.31-1.13-2.61-1.72-3.91
			c-0.02-0.05-0.04-0.09-0.06-0.14c-0.04-0.08-0.08-0.16-0.11-0.25c-0.52-1.12-1.04-2.23-1.59-3.34c-0.06-0.12-0.11-0.23-0.17-0.35
			c-0.55-1.12-1.12-2.23-1.7-3.34c-0.05-0.1-0.11-0.2-0.16-0.3c-0.59-1.12-1.2-2.24-1.82-3.34c-0.04-0.08-0.09-0.17-0.14-0.25
			c-0.63-1.12-1.28-2.24-1.94-3.34c-0.04-0.06-0.07-0.12-0.11-0.18c-0.68-1.13-1.36-2.24-2.07-3.35c-0.02-0.04-0.05-0.07-0.07-0.11
			c-0.72-1.13-1.45-2.26-2.2-3.36c0-0.01-0.01-0.01-0.01-0.02c-0.75-1.11-1.51-2.21-2.3-3.31c-0.02-0.02-0.03-0.05-0.05-0.07
			c-0.77-1.07-1.55-2.13-2.34-3.18c-0.04-0.05-0.07-0.09-0.11-0.14c-0.78-1.02-1.57-2.03-2.37-3.04c-0.05-0.07-0.1-0.13-0.16-0.2
			c-0.79-0.98-1.59-1.95-2.4-2.9c-0.07-0.08-0.14-0.16-0.2-0.24c-0.8-0.94-1.61-1.86-2.43-2.77c-0.08-0.09-0.16-0.18-0.24-0.27
			c-0.81-0.9-1.63-1.78-2.46-2.64c-0.09-0.1-0.18-0.2-0.28-0.29c-0.83-0.86-1.66-1.69-2.5-2.52c-0.1-0.1-0.2-0.2-0.3-0.3
			c-0.84-0.81-1.69-1.61-2.54-2.4c-0.11-0.1-0.22-0.2-0.33-0.31c-0.85-0.77-1.71-1.53-2.57-2.27c-0.12-0.1-0.24-0.2-0.36-0.3
			c-0.86-0.73-1.73-1.45-2.61-2.15c-0.07-0.06-0.14-0.11-0.21-0.17c-0.06-0.05-0.12-0.09-0.18-0.14c-0.82-0.65-1.64-1.28-2.47-1.89
			c-0.14-0.1-0.28-0.2-0.41-0.31c-0.83-0.61-1.67-1.22-2.52-1.8c-0.13-0.09-0.25-0.17-0.38-0.26c-0.87-0.59-1.74-1.17-2.62-1.72
			c-0.09-0.05-0.17-0.11-0.26-0.16c-0.92-0.58-1.85-1.14-2.78-1.68l-15.39,8.94c0.93,0.54,1.86,1.1,2.78,1.68
			c0.09,0.05,0.17,0.11,0.26,0.16c0.88,0.56,1.75,1.13,2.62,1.72c0.13,0.09,0.25,0.17,0.38,0.26c0.84,0.58,1.68,1.18,2.52,1.79
			c0.14,0.1,0.28,0.2,0.42,0.31c0.83,0.61,1.65,1.25,2.47,1.89c0.13,0.1,0.26,0.2,0.38,0.31c0.88,0.7,1.74,1.41,2.6,2.14
			c0.12,0.1,0.24,0.2,0.36,0.31c0.86,0.74,1.72,1.5,2.57,2.27c0.11,0.1,0.22,0.2,0.33,0.31c0.85,0.78,1.7,1.58,2.54,2.4
			c0.1,0.1,0.2,0.2,0.31,0.3c0.84,0.83,1.68,1.67,2.5,2.52c0.09,0.1,0.18,0.2,0.28,0.29c0.83,0.87,1.65,1.75,2.46,2.64
			c0.08,0.09,0.16,0.18,0.24,0.27c0.82,0.91,1.63,1.83,2.43,2.77c0.07,0.08,0.14,0.16,0.2,0.24c0.81,0.95,1.61,1.92,2.4,2.9
			c0.05,0.07,0.1,0.13,0.16,0.2c0.8,1,1.59,2.01,2.37,3.04c0.04,0.05,0.07,0.09,0.11,0.14c0.79,1.05,1.57,2.1,2.34,3.18
			c0.02,0.02,0.03,0.05,0.05,0.07c0.78,1.09,1.54,2.19,2.3,3.31c0,0.01,0.01,0.01,0.01,0.02c0.75,1.11,1.48,2.23,2.2,3.36
			c0.02,0.04,0.05,0.07,0.07,0.11c0.7,1.11,1.39,2.23,2.06,3.35c0.04,0.06,0.07,0.12,0.11,0.18c0.66,1.11,1.31,2.22,1.94,3.35
			c0.05,0.08,0.09,0.16,0.14,0.25c0.62,1.11,1.22,2.22,1.82,3.34c0.05,0.1,0.11,0.2,0.16,0.3c0.58,1.11,1.15,2.22,1.7,3.34
			c0.06,0.12,0.11,0.23,0.17,0.35c0.54,1.11,1.07,2.22,1.59,3.34c0.06,0.12,0.12,0.25,0.17,0.37c0.59,1.3,1.17,2.6,1.72,3.91
			c0.02,0.05,0.04,0.1,0.07,0.15c0.57,1.35,1.12,2.72,1.64,4.08c0.02,0.06,0.05,0.12,0.07,0.18c0.5,1.31,0.98,2.62,1.44,3.94
			c0.04,0.12,0.08,0.24,0.13,0.36c0.44,1.26,0.85,2.53,1.25,3.79c0.05,0.16,0.1,0.33,0.15,0.49c0.31,1.02,0.62,2.04,0.9,3.06
			c0.04,0.14,0.08,0.29,0.12,0.43c0.29,1.06,0.58,2.13,0.84,3.19c0.01,0.03,0.02,0.07,0.02,0.1c0.26,1.06,0.51,2.12,0.74,3.17
			c0.02,0.12,0.05,0.23,0.08,0.35c0.22,1.02,0.43,2.05,0.62,3.07c0.03,0.18,0.07,0.35,0.1,0.52c0.18,0.97,0.34,1.94,0.49,2.91
			c0.03,0.18,0.05,0.35,0.08,0.53c0.15,0.99,0.28,1.98,0.4,2.96c0.01,0.09,0.02,0.18,0.03,0.27c0.11,0.97,0.21,1.93,0.29,2.89
			c0.01,0.11,0.02,0.22,0.03,0.32c0.08,0.97,0.14,1.94,0.19,2.9c0.01,0.2,0.02,0.41,0.03,0.62c0.02,0.47,0.04,0.95,0.05,1.42
			c0.01,0.23,0.02,0.45,0.02,0.67c0.02,0.69,0.02,1.38,0.02,2.07c0,0.87-0.03,1.71-0.05,2.53c-0.01,0.26-0.03,0.51-0.04,0.77
			c-0.03,0.57-0.06,1.13-0.1,1.68c-0.02,0.28-0.05,0.56-0.07,0.83c-0.05,0.54-0.1,1.06-0.16,1.59c-0.03,0.24-0.05,0.49-0.09,0.73
			c-0.09,0.7-0.19,1.38-0.3,2.05c-0.01,0.04-0.01,0.09-0.02,0.14c-0.12,0.72-0.26,1.41-0.4,2.1c-0.04,0.21-0.09,0.42-0.14,0.62
			c-0.11,0.48-0.22,0.96-0.34,1.43c-0.06,0.23-0.12,0.46-0.18,0.69c-0.12,0.46-0.25,0.91-0.39,1.36c-0.06,0.2-0.12,0.41-0.18,0.61
			c-0.19,0.61-0.39,1.21-0.61,1.8c-0.01,0.03-0.02,0.05-0.03,0.08c-0.23,0.62-0.46,1.23-0.7,1.83c-0.08,0.19-0.16,0.37-0.23,0.56
			c-0.18,0.42-0.36,0.84-0.54,1.26c-0.09,0.21-0.19,0.41-0.28,0.62c-0.19,0.41-0.38,0.82-0.59,1.23c-0.09,0.18-0.18,0.36-0.27,0.54
			c-0.28,0.56-0.57,1.12-0.88,1.68c-0.01,0.02-0.02,0.03-0.02,0.04c-0.31,0.58-0.63,1.15-0.97,1.72c-0.1,0.18-0.21,0.36-0.32,0.54
			c-0.23,0.4-0.47,0.8-0.72,1.2c-0.12,0.2-0.24,0.4-0.37,0.6c-0.25,0.41-0.5,0.81-0.76,1.22c-0.11,0.18-0.22,0.35-0.33,0.52
			c-0.36,0.57-0.74,1.15-1.12,1.73l15.39-8.94c0.38-0.58,0.75-1.15,1.12-1.73c0.11-0.18,0.22-0.35,0.33-0.52
			C220.79,148.76,221.05,148.35,221.29,147.95z"/>
	</g>
</g>
</svg>
