<svg width="314" height="353" viewBox="0 0 314 353" fill="none" xmlns="http://www.w3.org/2000/svg">
<rect y="61.647" width="314" height="290.912" rx="14" fill="#797EF6"/>
<g clip-path="url(#clip0_1701_59)">
<path opacity="0.08" d="M137.641 282C181.073 282 216.282 261.692 216.282 236.64C216.282 211.588 181.073 191.28 137.641 191.28C94.2087 191.28 59 211.588 59 236.64C59 261.692 94.2087 282 137.641 282Z" fill="black"/>
<path fill-rule="evenodd" clip-rule="evenodd" d="M265.983 83.8341C255.706 66.0552 239.74 49.526 220.954 36.0479L217.692 34.1242C218.55 32.5926 219.372 31.0977 219.826 30.2645C219.961 30.0534 220.08 29.8322 220.181 29.6029C221.003 27.7649 220.77 25.3634 219.249 22.7167C215.938 16.9947 207.882 12.3508 201.272 12.3508C197.814 12.3508 195.447 13.5761 194.43 15.6468C194.43 15.6468 193.51 17.4112 192.48 19.3227L188.985 17.252C166.912 6.80025 143.368 0.612549 121.724 0.612549C84.2613 0.612549 62.5195 19.1512 62.2742 46.1933C62.2742 46.1933 53.862 106.318 100.105 149.277L132.576 170.192L123.465 175.633L101.392 163.38L86.677 171.871L96.6344 203.729L96.3155 203.618L62.9487 230.575C62.5588 230.887 62.2512 231.289 62.0526 231.747C61.854 232.205 61.7704 232.705 61.8091 233.202C61.8477 233.7 62.0075 234.181 62.2745 234.602C62.5416 235.024 62.9077 235.375 63.3411 235.623L136.917 278.091C137.381 278.367 137.911 278.511 138.45 278.508C139.026 278.505 139.591 278.344 140.081 278.042C140.551 277.744 140.933 277.326 141.185 276.83C141.438 276.334 141.552 275.779 141.516 275.224L139.689 248.991H140.044C148.996 248.991 157.96 247.055 164.791 243.122C171.621 239.188 174.981 234.067 174.981 228.92C174.981 228.247 174.981 223.639 174.981 218.322L208.09 237.62C208.555 237.894 209.084 238.038 209.623 238.037C210.227 238.031 210.816 237.849 211.318 237.512C211.819 237.176 212.211 236.699 212.445 236.143C212.678 235.586 212.743 234.973 212.632 234.38C212.521 233.787 212.238 233.239 211.818 232.805L174.76 196.842C174.611 196.288 174.427 195.744 174.208 195.213L182.069 190.679L183.871 182.85C226.325 182.372 256.221 158.074 256.221 158.074C279.521 144.327 284.708 116.243 265.983 83.8341ZM164.276 201.878L162.093 202.209L171.719 196.646V196.806L164.276 201.878ZM135.446 269.894L70.711 232.547L98.6209 210.112L99.1114 210.308L99.2095 210.602L105.549 214.278V228.908C105.549 234.054 108.946 239.188 115.74 243.109C121.217 246.109 127.244 247.972 133.459 248.586H133.962L135.446 269.894ZM175.14 211.472C175.14 208.74 175.14 206.191 175.14 204.194L191.707 221.054L175.14 211.472Z" fill="#E3FFFF"/>
<path d="M215.816 126.205C197.274 94.1879 152.197 68.1873 115.139 68.1873C97.4313 68.1873 84.7639 74.1299 78.3505 83.8342C78.3505 83.8342 71.839 110.987 137.543 143.677C205.454 177.471 221.972 162.694 221.972 162.694C225.54 152.732 223.786 140.063 215.816 126.205Z" fill="#67DAFF"/>
<path d="M175.729 197.774L211.928 232.805C212.348 233.239 212.631 233.787 212.742 234.38C212.854 234.973 212.788 235.586 212.555 236.143C212.321 236.699 211.93 237.176 211.428 237.512C210.927 237.849 210.337 238.031 209.733 238.037C209.194 238.038 208.665 237.894 208.201 237.62L175.091 218.579L175.312 211.619L191.732 221.042L174.637 203.643L175.729 197.774Z" fill="#27AAE1"/>
<path fill-rule="evenodd" clip-rule="evenodd" d="M165.453 214.229C157.948 218.567 147.868 220.503 138.058 220.049L105.598 214.303V228.945C105.598 234.079 108.995 239.213 115.789 243.134C121.266 246.134 127.293 247.997 133.508 248.611L140.547 249.003C149.511 249.003 158.475 247.067 165.306 243.134C172.136 239.201 175.496 234.03 175.496 228.945C175.496 227.205 175.68 200.261 175.68 200.261C175.496 205.322 172.148 210.37 165.453 214.229Z" fill="#67DAFF"/>
<path d="M134.526 218.273L136.255 219.327C136.694 219.576 137.064 219.93 137.332 220.358C137.599 220.786 137.756 221.274 137.788 221.777L141.467 275.249C141.495 275.669 141.437 276.09 141.296 276.487C141.155 276.883 140.934 277.247 140.647 277.555C140.359 277.863 140.012 278.108 139.625 278.276C139.239 278.445 138.823 278.532 138.401 278.532C137.858 278.533 137.325 278.389 136.856 278.116L63.2797 235.647C62.8463 235.399 62.4802 235.049 62.2132 234.627C61.9462 234.205 61.7864 233.725 61.7477 233.227C61.709 232.729 61.7927 232.23 61.9913 231.772C62.1899 231.314 62.4975 230.911 62.8873 230.599L96.3032 203.729L134.526 218.273ZM98.2408 210.112L70.294 232.547L135.029 269.894L131.828 223.811L128.15 221.655L98.2408 210.112Z" fill="#27AAE1"/>
<path fill-rule="evenodd" clip-rule="evenodd" d="M110.969 186.06L86.7261 171.932L98.7926 210.602L123.036 224.73L110.969 186.06Z" fill="#27AAE1"/>
<path fill-rule="evenodd" clip-rule="evenodd" d="M163.245 180.791L136.917 195.985L125.856 177.471L110.969 186.06L123.036 224.73L182.069 190.679L183.908 182.641L163.245 180.791Z" fill="#67DAFF"/>
<path fill-rule="evenodd" clip-rule="evenodd" d="M217.888 167.044C164.778 167.044 100.166 129.795 73.6417 83.8342C65.8181 70.2825 62.1638 57.5028 62.2742 46.1934C62.2742 46.1934 53.862 106.318 100.105 149.277L112.846 159.618C116.071 161.897 119.48 164.103 123.11 166.21C194.896 207.956 256.197 158.062 256.197 158.062C246.448 163.809 233.548 167.044 217.888 167.044Z" fill="#27AAE1"/>
<path fill-rule="evenodd" clip-rule="evenodd" d="M101.92 137.416V175.645C101.92 176.772 103.072 177.9 105.378 178.377C106.332 178.573 107.317 178.573 108.272 178.377C110.577 177.9 111.73 176.772 111.73 175.645V139.867L101.92 137.416Z" fill="#67DAFF"/>
<path fill-rule="evenodd" clip-rule="evenodd" d="M104.581 134.965C102.128 134.965 101.172 136.607 102.386 138.641C103.123 139.722 104.102 140.616 105.245 141.254C106.388 141.892 107.663 142.256 108.971 142.317C111.423 142.317 112.367 140.675 111.166 138.641C110.428 137.561 109.449 136.666 108.306 136.028C107.164 135.39 105.888 135.026 104.581 134.965Z" fill="white"/>
<path d="M189.843 29.9093L81.1587 19.8129C80.9485 19.7752 80.7327 19.7814 80.525 19.8311C80.3173 19.8809 80.1222 19.9732 79.952 20.1021C79.7817 20.231 79.6401 20.3938 79.536 20.5802C79.432 20.7665 79.3677 20.9725 79.3473 21.1849C79.3269 21.3974 79.3508 21.6117 79.4175 21.8145C79.4841 22.0172 79.5922 22.204 79.7348 22.3629C79.8773 22.5218 80.0513 22.6495 80.2458 22.7378C80.4402 22.8262 80.6509 22.8733 80.8644 22.8762L191.597 33.2053C190.892 32.1751 190.304 31.0696 189.843 29.9093Z" fill="#081E7A"/>
<path d="M248.717 151.274L207.514 41.1942C207.246 41.2627 206.968 41.2875 206.692 41.2677C205.836 41.2269 204.983 41.1245 204.142 40.9614L245.835 152.352C245.947 152.645 246.145 152.897 246.404 153.074C246.662 153.251 246.968 153.346 247.282 153.345C247.466 153.341 247.648 153.308 247.821 153.247C248.2 153.101 248.506 152.813 248.673 152.444C248.841 152.075 248.856 151.655 248.717 151.274Z" fill="#081E7A"/>
<path d="M124.863 135.578L199.519 39.393C198.642 38.8348 197.887 38.1055 197.299 37.2488L122.312 133.838C122.447 133.936 124.52 135.358 124.863 135.578Z" fill="#081E7A"/>
<path fill-rule="evenodd" clip-rule="evenodd" d="M194.429 15.647C193.121 18.2209 191.685 20.7277 190.125 23.158C188.617 25.0572 188.617 27.8999 190.444 31.0856C193.755 36.8077 201.799 41.4515 208.421 41.4515C211.475 41.4515 213.694 40.4591 214.871 38.8294C216.245 36.9302 220.181 29.5907 220.181 29.5907L194.429 15.647Z" fill="#67DAFF"/>
<path fill-rule="evenodd" clip-rule="evenodd" d="M201.248 12.3508C194.626 12.3508 191.94 16.9947 195.251 22.7168C198.562 28.4389 206.631 33.0827 213.253 33.0827C219.875 33.0827 222.548 28.4389 219.237 22.7045C215.926 16.9702 207.882 12.3508 201.248 12.3508Z" fill="white"/>
<path fill-rule="evenodd" clip-rule="evenodd" d="M205.11 19.0042C202.731 19.0042 201.763 20.6705 202.952 22.68C203.666 23.7559 204.622 24.6492 205.745 25.2877C206.867 25.9262 208.124 26.2921 209.415 26.3559C211.781 26.3559 212.75 24.6895 211.561 22.68C210.848 21.6057 209.894 20.7134 208.773 20.075C207.653 19.4366 206.398 19.0698 205.11 19.0042Z" fill="#67DAFF"/>
<path d="M222.585 162.89L221.358 162.485C224.951 152.389 222.769 139.621 215.227 126.56C196.833 94.7024 151.902 68.7998 115.09 68.7998C98.2407 68.7998 85.4139 74.2523 78.8901 84.1649L77.8723 83.491C84.6291 73.2231 97.8606 67.5623 115.139 67.5623C152.344 67.5623 197.74 93.7467 216.343 125.935C224.069 139.327 226.288 152.45 222.585 162.89Z" fill="#081E7A"/>
<path d="M209.733 238.662C209.086 238.663 208.45 238.49 207.894 238.159L176.931 220.344L177.544 219.29L208.507 237.105C209.022 237.404 209.629 237.506 210.213 237.391C210.797 237.276 211.32 236.952 211.683 236.481C212.05 236.01 212.233 235.422 212.197 234.826C212.161 234.231 211.908 233.669 211.487 233.246L174.343 197.271L175.189 196.389L212.358 232.376C212.873 232.891 213.223 233.548 213.364 234.263C213.505 234.978 213.43 235.719 213.149 236.391C212.868 237.063 212.393 237.637 211.785 238.039C211.177 238.441 210.463 238.654 209.733 238.649V238.662ZM191.756 221.667C191.65 221.667 191.545 221.642 191.45 221.593L176.931 213.2L177.544 212.134L188.139 218.261L174.27 204.084L175.14 203.226L192.308 220.625C192.406 220.737 192.461 220.881 192.461 221.03C192.461 221.179 192.406 221.322 192.308 221.434C192.246 221.52 192.162 221.587 192.065 221.628C191.968 221.669 191.861 221.682 191.756 221.667Z" fill="#081E7A"/>
<path d="M132.773 249.224C126.474 248.599 120.367 246.707 114.82 243.661C108.051 239.752 104.323 234.532 104.323 228.957V215.847H105.549V228.957C105.598 234.03 109.056 238.931 115.409 242.607C120.81 245.568 126.753 247.409 132.883 248.023L132.773 249.224Z" fill="#081E7A"/>
<path d="M140.044 249.616H139.934V248.39H140.081C149.266 248.39 157.887 246.344 164.374 242.595C170.861 238.845 174.27 234.03 174.27 228.945C174.27 227.23 174.454 200.175 174.454 199.906H175.68C175.68 200.188 175.496 227.23 175.496 228.945C175.496 234.532 171.817 239.752 164.999 243.649C158.181 247.545 149.45 249.616 140.044 249.616Z" fill="#081E7A"/>
<path d="M140.437 220.723C139.492 220.723 138.548 220.723 137.604 220.723L137.665 219.498C147.745 219.964 157.605 217.868 164.729 213.764C173.166 208.863 176.489 202.05 173.607 195.446L174.736 194.956C177.838 202.074 174.233 209.659 165.342 214.83C158.696 218.604 149.744 220.723 140.437 220.723Z" fill="#081E7A"/>
<path d="M138.499 279.121C137.85 279.119 137.212 278.951 136.648 278.63L63.0712 236.15C62.5524 235.851 62.1144 235.431 61.7951 234.925C61.4758 234.419 61.2849 233.843 61.239 233.246C61.1931 232.65 61.2935 232.051 61.5316 231.502C61.7697 230.954 62.1382 230.471 62.6052 230.097L96.0211 203.226L96.7937 204.182L63.3287 231.052C63.016 231.302 62.7693 231.625 62.6102 231.992C62.451 232.359 62.3842 232.76 62.4157 233.159C62.4471 233.557 62.5759 233.943 62.7906 234.28C63.0053 234.618 63.2995 234.898 63.6475 235.096L137.224 277.564C137.607 277.796 138.046 277.918 138.493 277.918C138.94 277.918 139.379 277.796 139.762 277.564C140.142 277.329 140.449 276.995 140.653 276.597C140.856 276.2 140.946 275.755 140.915 275.31L137.236 221.851C137.209 221.448 137.083 221.059 136.869 220.717C136.655 220.375 136.36 220.091 136.01 219.89L134.232 218.861L134.845 217.795L136.623 218.824C137.148 219.125 137.591 219.551 137.912 220.064C138.232 220.577 138.422 221.161 138.462 221.765L142.141 275.224C142.178 275.729 142.111 276.236 141.943 276.714C141.774 277.191 141.509 277.629 141.164 277.999C140.819 278.37 140.4 278.665 139.935 278.866C139.471 279.068 138.969 279.171 138.462 279.17L138.499 279.121ZM135.029 270.544C134.92 270.546 134.814 270.516 134.722 270.458L70.0364 233.074C69.9486 233.026 69.8742 232.957 69.8201 232.872C69.7659 232.788 69.7338 232.692 69.7264 232.592C69.7191 232.492 69.7369 232.392 69.7782 232.301C69.8195 232.209 69.883 232.13 69.9628 232.069L95.7145 211.325L96.4871 212.281L71.373 232.462L134.342 268.779L131.227 224.228L127.782 222.23L128.395 221.177L132.074 223.333C132.159 223.384 132.231 223.455 132.283 223.541C132.334 223.627 132.363 223.724 132.368 223.823L135.581 269.894C135.587 270.004 135.564 270.114 135.514 270.213C135.465 270.312 135.391 270.396 135.299 270.458C135.213 270.493 135.121 270.51 135.029 270.507V270.544Z" fill="#081E7A"/>
<path d="M111.548 168.431L110.93 169.489L125.558 178.016L126.176 176.958L111.548 168.431Z" fill="#081E7A"/>
<path d="M128.278 172.182L122.792 175.356L123.406 176.416L128.893 173.242L128.278 172.182Z" fill="#081E7A"/>
<path d="M123.036 225.343C122.928 225.345 122.821 225.315 122.729 225.257L98.486 211.129C98.42 211.088 98.364 211.032 98.3216 210.966C98.2793 210.901 98.2517 210.827 98.2407 210.75L86.162 172.079C86.1214 171.947 86.1272 171.804 86.1784 171.675C86.2297 171.546 86.3233 171.438 86.444 171.369L101.343 162.792L101.956 163.845L87.4863 172.202L99.3321 210.186L123.061 224.007L181.554 190.263L183.344 182.494L184.57 182.764L182.731 190.802C182.712 190.884 182.676 190.962 182.626 191.029C182.575 191.097 182.511 191.153 182.437 191.194L123.404 225.257C123.292 225.321 123.164 225.35 123.036 225.343Z" fill="#081E7A"/>
<path d="M123.036 225.343C122.963 225.354 122.888 225.354 122.815 225.343C122.729 225.307 122.652 225.254 122.589 225.186C122.525 225.119 122.477 225.038 122.447 224.951L110.381 186.244C110.34 186.111 110.346 185.968 110.397 185.839C110.449 185.71 110.542 185.602 110.663 185.533L125.55 176.956C125.688 176.875 125.853 176.851 126.009 176.89C126.165 176.929 126.3 177.027 126.384 177.164L137.138 195.164L158.917 182.568L159.53 183.622L137.224 196.487C137.084 196.568 136.918 196.589 136.762 196.548C136.605 196.507 136.472 196.406 136.39 196.267L125.648 178.279L111.73 186.354L123.428 223.823L181.566 190.275L183.356 182.507L184.583 182.776L182.743 190.814C182.724 190.896 182.689 190.974 182.638 191.041C182.587 191.109 182.523 191.165 182.449 191.206L123.416 225.269C123.3 225.331 123.167 225.357 123.036 225.343Z" fill="#081E7A"/>
<path d="M98.2407 210.75L86.1619 172.079C86.1274 171.961 86.1287 171.835 86.1658 171.717C86.2029 171.599 86.2741 171.495 86.3704 171.418C86.4718 171.349 86.5914 171.313 86.7137 171.313C86.8361 171.313 86.9557 171.349 87.0571 171.418L111.3 185.545L110.687 186.611L87.7806 173.256L99.3811 210.419L98.2407 210.75Z" fill="#081E7A"/>
<path d="M182.719 183.413C164.889 183.413 144.336 179.26 122.803 166.737C119.234 164.666 115.764 162.436 112.49 160.121L113.201 159.116C116.451 161.419 119.884 163.625 123.416 165.683C160.315 187.138 194.344 183.793 216.404 177.201C230.596 173.039 243.938 166.402 255.817 157.597L256.589 158.54C244.587 167.455 231.098 174.171 216.748 178.377C205.709 181.697 194.246 183.393 182.719 183.413Z" fill="#081E7A"/>
<path d="M99.6878 149.73C53.7393 107.041 61.5752 46.7081 61.6611 46.1077L62.8873 46.2792C62.8015 46.8796 55.0637 106.588 100.534 148.824L99.6878 149.73Z" fill="#081E7A"/>
<path d="M217.888 167.656C164.668 167.656 99.7245 130.187 73.1144 84.1405C60.1527 61.7055 58.0803 40.5938 67.2774 24.6773C76.4744 8.76081 95.7882 0 121.724 0C142.816 0 166.176 5.77111 189.291 16.6884L188.764 17.8034C165.821 6.95963 142.632 1.22529 121.724 1.22529C96.2664 1.22529 77.3083 9.8023 68.332 25.2899C59.3556 40.7776 61.4526 61.4972 74.169 83.5279C100.583 129.243 165.06 166.431 217.888 166.431C243.358 166.431 262.316 157.854 271.28 142.366C280.244 126.879 278.172 106.171 265.443 84.1405C255.535 66.9865 240.035 50.5309 220.586 36.5503L221.309 35.5579C240.93 49.6487 256.516 66.19 266.51 83.5279C279.472 105.951 281.544 127.062 272.347 142.979C263.15 158.895 243.812 167.656 217.888 167.656Z" fill="#081E7A"/>
<path d="M106.162 179.137C105.635 179.139 105.109 179.086 104.593 178.978C101.674 178.365 100.644 176.858 100.644 175.645V137.416H101.87V175.645C101.87 176.564 103.035 177.397 104.838 177.777C105.707 177.961 106.605 177.961 107.475 177.777C109.289 177.397 110.454 176.552 110.454 175.645V139.867H111.681V175.645C111.681 176.87 110.638 178.365 107.732 178.978C107.216 179.086 106.69 179.139 106.162 179.137Z" fill="#081E7A"/>
<path d="M108.358 143.543C106.944 143.482 105.564 143.092 104.329 142.403C103.094 141.713 102.038 140.744 101.245 139.573C100.914 139.117 100.713 138.58 100.663 138.019C100.614 137.458 100.717 136.894 100.963 136.387C101.288 135.9 101.739 135.51 102.268 135.26C102.797 135.009 103.385 134.908 103.967 134.966C105.382 135.023 106.763 135.412 107.998 136.102C109.234 136.791 110.29 137.762 111.08 138.935C111.411 139.391 111.612 139.928 111.662 140.489C111.711 141.05 111.608 141.614 111.362 142.121C111.037 142.608 110.586 142.998 110.057 143.248C109.528 143.499 108.94 143.601 108.358 143.543ZM103.967 136.191C103.603 136.146 103.234 136.196 102.894 136.335C102.555 136.475 102.257 136.699 102.03 136.987C101.899 137.307 101.855 137.656 101.903 137.998C101.95 138.34 102.087 138.663 102.3 138.935C102.984 139.923 103.886 140.742 104.936 141.328C105.986 141.914 107.157 142.253 108.358 142.317C108.722 142.362 109.091 142.313 109.431 142.173C109.77 142.034 110.068 141.809 110.295 141.521C110.426 141.201 110.47 140.853 110.422 140.51C110.375 140.168 110.238 139.845 110.025 139.573C109.341 138.585 108.439 137.766 107.389 137.18C106.339 136.594 105.168 136.256 103.967 136.191Z" fill="#081E7A"/>
<path d="M208.421 42.0641C201.615 42.0641 193.314 37.2732 189.917 31.3919C188.016 28.0958 187.918 24.9591 189.647 22.8148C190.8 21.3568 193.853 15.4631 193.89 15.4019L194.969 15.9655C193.65 18.5774 192.193 21.1173 190.603 23.5745C189.206 25.3389 189.377 27.9856 190.984 30.816C194.184 36.3543 202.02 40.8756 208.421 40.8756C211.168 40.8756 213.326 40.0301 214.381 38.4985C215.705 36.6606 219.605 29.4192 219.642 29.3456L220.721 29.9215C220.561 30.2278 216.748 37.2732 215.374 39.2215C214.001 41.1697 211.573 42.0641 208.421 42.0641Z" fill="#081E7A"/>
<path d="M213.253 33.7077C206.447 33.7077 198.145 28.9168 194.748 23.0232C193.032 20.058 192.774 17.2398 194.025 15.0833C195.276 12.9268 197.839 11.7383 201.272 11.7383C208.066 11.7383 216.368 16.5292 219.777 22.4105C221.493 25.388 221.751 28.2062 220.5 30.3627C219.249 32.5192 216.674 33.7077 213.253 33.7077ZM201.248 12.9636C198.268 12.9636 196.073 13.9315 195.116 15.696C194.16 17.4604 194.356 19.8497 195.84 22.4105C199.053 27.9611 206.876 32.4824 213.29 32.4824C216.257 32.4824 218.452 31.5144 219.421 29.75C220.39 27.9856 220.181 25.5963 218.697 23.0232C215.509 17.4849 207.686 12.9636 201.248 12.9636Z" fill="#081E7A"/>
<path d="M209.415 27.0543C208.012 26.9889 206.645 26.5888 205.429 25.8874C204.213 25.1861 203.183 24.2039 202.425 23.0231C202.093 22.5575 201.894 22.0109 201.849 21.4413C201.804 20.8717 201.914 20.3005 202.167 19.7884C202.486 19.3117 202.928 18.9301 203.446 18.6841C203.964 18.4382 204.539 18.3371 205.11 18.3916C206.51 18.4556 207.874 18.8539 209.088 19.5532C210.302 20.2524 211.331 21.2322 212.088 22.4105C212.421 22.8774 212.622 23.4254 212.67 23.9969C212.717 24.5684 212.609 25.1421 212.358 25.6575C212.037 26.1323 211.595 26.5124 211.077 26.7581C210.56 27.0038 209.985 27.1061 209.415 27.0543ZM205.11 19.6046C204.754 19.5585 204.393 19.6066 204.061 19.7443C203.73 19.8819 203.44 20.1042 203.222 20.3888C203.088 20.7183 203.043 21.0769 203.09 21.4292C203.137 21.7816 203.276 22.1156 203.492 22.3982C204.145 23.3888 205.021 24.2134 206.049 24.8068C207.077 25.4003 208.229 25.7461 209.415 25.8168C209.769 25.8632 210.129 25.8151 210.458 25.6774C210.788 25.5396 211.075 25.3172 211.291 25.0326C211.426 24.702 211.473 24.3422 211.428 23.9879C211.383 23.6337 211.247 23.2971 211.033 23.0109C210.376 22.0253 209.499 21.205 208.471 20.6141C207.444 20.0232 206.294 19.6777 205.11 19.6046Z" fill="#081E7A"/>
</g>
<defs>
<clipPath id="clip0_1701_59">
<rect width="219" height="282" fill="white" transform="translate(59)"/>
</clipPath>
</defs>
</svg>
