<svg width="420" height="410" viewBox="0 0 420 410" fill="none" xmlns="http://www.w3.org/2000/svg">
<g clip-path="url(#clip0_404_47)">
<path fill-rule="evenodd" clip-rule="evenodd" d="M222.01 26.6492C221.846 26.8211 221.782 27.0658 221.843 27.2957L222.716 30.622C222.812 30.9875 223.186 31.2061 223.552 31.1101C223.918 31.0141 224.136 30.6399 224.04 30.2743L223.449 28.0238L225.809 28.5287C226.178 28.6077 226.542 28.3722 226.621 28.0026C226.7 27.633 226.465 27.2693 226.095 27.1902L222.648 26.4526C222.415 26.4029 222.174 26.4773 222.01 26.6492ZM232.177 29.1914C232.098 29.561 232.334 29.9247 232.703 30.0038L239.598 31.479C239.967 31.5581 240.331 31.3225 240.41 30.9529C240.489 30.5833 240.254 30.2196 239.884 30.1405L232.99 28.6654C232.62 28.5863 232.256 28.8218 232.177 29.1914ZM224.951 36.4388C224.586 36.5348 224.367 36.909 224.463 37.2745L226.21 43.9271C226.306 44.2927 226.68 44.5112 227.046 44.4152C227.411 44.3192 227.63 43.945 227.534 43.5795L225.787 36.9269C225.691 36.5613 225.317 36.3428 224.951 36.4388ZM245.966 32.1417C245.887 32.5113 246.123 32.875 246.492 32.9541L253.387 34.4293C253.756 34.5084 254.12 34.2729 254.199 33.9033C254.278 33.5336 254.043 33.1699 253.673 33.0908L246.779 31.6157C246.409 31.5366 246.045 31.7721 245.966 32.1417ZM228.445 49.7439C228.08 49.8399 227.861 50.2141 227.957 50.5797L229.704 57.2323C229.8 57.5978 230.174 57.8164 230.54 57.7204C230.905 57.6244 231.124 57.2502 231.028 56.8846L229.281 50.232C229.185 49.8665 228.811 49.6479 228.445 49.7439ZM259.755 35.092C259.676 35.4616 259.912 35.8254 260.281 35.9044L267.176 37.3796C267.545 37.4587 267.909 37.2232 267.988 36.8536C268.067 36.484 267.832 36.1202 267.462 36.0412L260.568 34.566C260.198 34.4869 259.834 34.7224 259.755 35.092ZM231.939 63.0491C231.573 63.1451 231.355 63.5193 231.451 63.8848L233.198 70.5374C233.294 70.903 233.668 71.1215 234.034 71.0255C234.399 70.9295 234.618 70.5553 234.522 70.1898L232.775 63.5372C232.679 63.1716 232.305 62.9531 231.939 63.0491ZM273.544 38.0423C273.465 38.412 273.701 38.7757 274.07 38.8548L280.965 40.3299C281.334 40.409 281.698 40.1735 281.777 39.8039C281.856 39.4343 281.621 39.0706 281.251 38.9915L274.357 37.5163C273.987 37.4372 273.623 37.6727 273.544 38.0423ZM235.433 76.3542C235.067 76.4502 234.849 76.8244 234.945 77.19L236.692 83.8426C236.788 84.2081 237.162 84.4267 237.527 84.3307C237.893 84.2347 238.111 83.8605 238.015 83.4949L236.269 76.8423C236.173 76.4768 235.798 76.2582 235.433 76.3542ZM287.333 40.9927C287.254 41.3623 287.489 41.726 287.859 41.8051L294.754 43.2802C295.123 43.3593 295.487 43.1238 295.566 42.7542C295.645 42.3846 295.41 42.0209 295.04 41.9418L288.145 40.4666C287.776 40.3876 287.412 40.6231 287.333 40.9927ZM34.1455 224.278C34.0261 224.528 34.0695 224.826 34.2554 225.031L36.5561 227.578C36.8095 227.858 37.2423 227.88 37.5227 227.627C37.8032 227.373 37.8251 226.94 37.5717 226.66L36.3845 225.346L38.2114 225.445C38.5888 225.466 38.9114 225.177 38.9319 224.799C38.9525 224.422 38.6631 224.099 38.2857 224.079L34.8004 223.889C34.5235 223.874 34.2649 224.028 34.1455 224.278ZM301.122 43.943C301.043 44.3126 301.278 44.6763 301.648 44.7554L308.543 46.2305C308.912 46.3096 309.276 46.0741 309.355 45.7045C309.434 45.3349 309.198 44.9712 308.829 44.8921L301.934 43.4169C301.565 43.3379 301.201 43.5734 301.122 43.943ZM238.927 89.6594C238.561 89.7554 238.343 90.1296 238.439 90.4951L240.185 97.1477C240.281 97.5133 240.656 97.7318 241.021 97.6358C241.387 97.5398 241.605 97.1656 241.509 96.8001L239.762 90.1475C239.666 89.7819 239.292 89.5634 238.927 89.6594ZM44.536 225.104C44.5155 225.481 44.8048 225.804 45.1822 225.825L52.153 226.204C52.5304 226.224 52.853 225.935 52.8736 225.557C52.8941 225.18 52.6048 224.857 52.2274 224.837L45.2566 224.458C44.8791 224.437 44.5565 224.727 44.536 225.104ZM41.2066 231.704C40.9262 231.957 40.9043 232.39 41.1576 232.67L45.7592 237.763C46.0126 238.043 46.4453 238.065 46.7258 237.812C47.0062 237.558 47.0282 237.126 46.7748 236.845L42.1732 231.753C41.9199 231.472 41.4871 231.45 41.2066 231.704ZM314.911 46.8933C314.832 47.2629 315.067 47.6266 315.437 47.7057L322.331 49.1809C322.701 49.2599 323.065 49.0244 323.144 48.6548C323.223 48.2852 322.987 47.9215 322.618 47.8424L315.723 46.3673C315.354 46.2882 314.99 46.5237 314.911 46.8933ZM58.4776 225.862C58.4571 226.24 58.7464 226.562 59.1238 226.583L66.0947 226.962C66.472 226.982 66.7946 226.693 66.8152 226.316C66.8357 225.938 66.5464 225.616 66.169 225.595L59.1982 225.216C58.8207 225.196 58.4982 225.485 58.4776 225.862ZM242.42 102.965C242.055 103.061 241.836 103.435 241.932 103.8L243.679 110.453C243.775 110.818 244.149 111.037 244.515 110.941C244.881 110.845 245.099 110.471 245.003 110.105L243.256 103.453C243.16 103.087 242.786 102.869 242.42 102.965ZM72.4192 226.62C72.3987 226.998 72.688 227.32 73.0654 227.341L80.0362 227.72C80.4136 227.741 80.7363 227.451 80.7568 227.074C80.7773 226.696 80.488 226.374 80.1106 226.353L73.1398 225.974C72.7624 225.954 72.4398 226.243 72.4192 226.62ZM328.7 49.8436C328.621 50.2132 328.856 50.5769 329.226 50.656L336.12 52.1312C336.49 52.2103 336.854 51.9748 336.933 51.6051C337.012 51.2355 336.776 50.8718 336.407 50.7927L329.512 49.3176C329.143 49.2385 328.779 49.474 328.7 49.8436ZM50.4097 241.889C50.1292 242.142 50.1073 242.575 50.3607 242.856L54.9622 247.948C55.2157 248.229 55.6484 248.251 55.9288 247.997C56.2093 247.744 56.2312 247.311 55.9778 247.031L51.3763 241.938C51.1229 241.657 50.6901 241.636 50.4097 241.889ZM245.914 116.27C245.549 116.366 245.33 116.74 245.426 117.105L247.173 123.758C247.269 124.124 247.643 124.342 248.009 124.246C248.374 124.15 248.593 123.776 248.497 123.41L246.75 116.758C246.654 116.392 246.28 116.174 245.914 116.27ZM86.3609 227.379C86.3403 227.756 86.6297 228.079 87.007 228.099L93.9778 228.478C94.3553 228.499 94.6779 228.21 94.6984 227.832C94.7189 227.455 94.4296 227.132 94.0522 227.112L87.0814 226.732C86.704 226.712 86.3814 227.001 86.3609 227.379ZM342.489 52.7939C342.41 53.1635 342.645 53.5273 343.015 53.6063L349.909 55.0815C350.279 55.1606 350.643 54.9251 350.722 54.5555C350.801 54.1859 350.565 53.8221 350.196 53.743L343.301 52.2679C342.932 52.1888 342.568 52.4243 342.489 52.7939ZM59.6127 252.074C59.3323 252.328 59.3104 252.76 59.5638 253.041L64.1653 258.133C64.4187 258.414 64.8515 258.436 65.1319 258.182C65.4123 257.929 65.4343 257.496 65.1809 257.216L60.5794 252.123C60.3259 251.843 59.8932 251.821 59.6127 252.074ZM100.302 228.137C100.282 228.514 100.571 228.837 100.949 228.857L107.919 229.237C108.297 229.257 108.619 228.968 108.64 228.59C108.661 228.213 108.371 227.89 107.994 227.87L101.023 227.491C100.646 227.47 100.323 227.76 100.302 228.137ZM356.278 55.7442C356.199 56.1138 356.434 56.4776 356.804 56.5567L363.698 58.0318C364.068 58.1109 364.432 57.8754 364.511 57.5058C364.59 57.1362 364.354 56.7724 363.985 56.6934L357.09 55.2182C356.721 55.1391 356.357 55.3746 356.278 55.7442ZM249.408 129.575C249.043 129.671 248.824 130.045 248.92 130.411L250.667 137.063C250.763 137.429 251.137 137.647 251.503 137.551C251.868 137.455 252.087 137.081 251.991 136.716L250.244 130.063C250.148 129.697 249.774 129.479 249.408 129.575ZM114.244 228.895C114.224 229.273 114.513 229.595 114.89 229.616L121.861 229.995C122.238 230.015 122.561 229.726 122.582 229.349C122.602 228.971 122.313 228.649 121.935 228.628L114.965 228.249C114.587 228.228 114.265 228.518 114.244 228.895ZM68.8158 262.259C68.5354 262.513 68.5135 262.946 68.7668 263.226L73.3684 268.319C73.6218 268.599 74.0545 268.621 74.335 268.368C74.6154 268.114 74.6374 267.682 74.3839 267.401L69.7824 262.308C69.529 262.028 69.0963 262.006 68.8158 262.259ZM370.067 58.6946C369.988 59.0642 370.223 59.4279 370.593 59.507L377.487 60.9821C377.857 61.0612 378.221 60.8257 378.3 60.4561C378.379 60.0865 378.143 59.7228 377.774 59.6437L370.879 58.1685C370.51 58.0894 370.146 58.325 370.067 58.6946ZM252.902 142.88C252.536 142.976 252.318 143.35 252.414 143.716L253.227 146.813L251.74 150.244C251.59 150.591 251.749 150.994 252.096 151.145C252.443 151.295 252.846 151.135 252.996 150.789L254.235 147.93L256.389 149.521C256.693 149.745 257.122 149.681 257.346 149.377C257.571 149.073 257.506 148.644 257.202 148.42L255.162 146.913L257.106 145.69C257.426 145.489 257.522 145.066 257.321 144.747C257.119 144.427 256.697 144.331 256.377 144.532L254.374 145.792L253.738 143.368C253.642 143.003 253.268 142.784 252.902 142.88ZM128.186 229.653C128.165 230.031 128.454 230.353 128.832 230.374L135.803 230.753C136.18 230.774 136.503 230.484 136.523 230.107C136.544 229.729 136.254 229.407 135.877 229.386L128.906 229.007C128.529 228.987 128.206 229.276 128.186 229.653ZM261.746 141.961C261.948 142.281 262.37 142.377 262.69 142.176L268.274 138.662C268.594 138.46 268.691 138.038 268.489 137.718C268.288 137.398 267.865 137.302 267.545 137.503L261.961 141.018C261.641 141.219 261.545 141.641 261.746 141.961ZM272.915 134.933C273.116 135.253 273.539 135.349 273.859 135.147L279.443 131.633C279.763 131.432 279.859 131.009 279.658 130.689C279.456 130.37 279.034 130.273 278.714 130.475L273.13 133.989C272.81 134.19 272.714 134.613 272.915 134.933ZM284.084 127.904C284.285 128.224 284.707 128.32 285.027 128.119L290.612 124.605C290.932 124.403 291.028 123.981 290.826 123.661C290.625 123.341 290.203 123.245 289.883 123.446L284.298 126.96C283.978 127.162 283.882 127.584 284.084 127.904ZM295.252 120.876C295.454 121.196 295.876 121.292 296.196 121.09L301.78 117.576C302.1 117.375 302.196 116.952 301.995 116.632C301.794 116.312 301.371 116.216 301.051 116.418L295.467 119.932C295.147 120.133 295.051 120.556 295.252 120.876ZM306.421 113.847C306.622 114.167 307.045 114.263 307.365 114.062L312.949 110.548C313.269 110.346 313.365 109.924 313.164 109.604C312.962 109.284 312.54 109.188 312.22 109.389L306.636 112.903C306.316 113.105 306.219 113.527 306.421 113.847ZM317.589 106.819C317.791 107.138 318.213 107.235 318.533 107.033L324.117 103.519C324.437 103.318 324.533 102.895 324.332 102.575C324.131 102.255 323.708 102.159 323.388 102.361L317.804 105.875C317.484 106.076 317.388 106.499 317.589 106.819ZM328.758 99.79C328.959 100.11 329.382 100.206 329.702 100.005L335.286 96.4904C335.606 96.2891 335.702 95.8666 335.501 95.5467C335.299 95.2268 334.877 95.1307 334.557 95.332L328.973 98.8463C328.653 99.0476 328.557 99.4701 328.758 99.79ZM78.0189 272.445C77.7384 272.698 77.7165 273.131 77.9699 273.411L82.5715 278.504C82.8248 278.784 83.2576 278.806 83.5381 278.553C83.8185 278.3 83.8404 277.867 83.587 277.586L78.9855 272.494C78.7321 272.213 78.2993 272.191 78.0189 272.445ZM383.856 61.6449C383.777 62.0145 384.012 62.3782 384.382 62.4573L386.183 62.8428L384.816 63.7036C384.496 63.9049 384.4 64.3274 384.601 64.6473C384.802 64.9672 385.225 65.0633 385.545 64.862L388.337 63.1049C388.572 62.9566 388.695 62.6803 388.646 62.4062C388.597 62.132 388.388 61.9147 388.115 61.8564L384.668 61.1188C384.299 61.0398 383.935 61.2753 383.856 61.6449ZM339.927 92.7615C340.128 93.0814 340.55 93.1775 340.87 92.9762L346.455 89.4619C346.774 89.2606 346.871 88.8381 346.669 88.5182C346.468 88.1983 346.045 88.1022 345.726 88.3035L340.141 91.8177C339.821 92.0191 339.725 92.4416 339.927 92.7615ZM351.095 85.7329C351.296 86.0528 351.719 86.1489 352.039 85.9476L357.623 82.4334C357.943 82.2321 358.039 81.8095 357.838 81.4896C357.637 81.1697 357.214 81.0736 356.894 81.2749L351.31 84.7892C350.99 84.9905 350.894 85.413 351.095 85.7329ZM362.264 78.7044C362.465 79.0243 362.888 79.1204 363.207 78.9191L368.792 75.4048C369.112 75.2035 369.208 74.781 369.006 74.4611C368.805 74.1412 368.383 74.0451 368.063 74.2464L362.478 77.7607C362.159 77.962 362.062 78.3845 362.264 78.7044ZM142.127 230.412C142.107 230.789 142.396 231.112 142.774 231.132L149.744 231.511C150.122 231.532 150.444 231.242 150.465 230.865C150.485 230.488 150.196 230.165 149.819 230.145L142.848 229.765C142.47 229.745 142.148 230.034 142.127 230.412ZM373.432 71.6758C373.634 71.9957 374.056 72.0919 374.376 71.8905L379.96 68.3763C380.28 68.175 380.376 67.7524 380.175 67.4325C379.974 67.1126 379.551 67.0165 379.231 67.2178L373.647 70.7321C373.327 70.9334 373.231 71.3559 373.432 71.6758ZM249.478 157.185C249.131 157.035 248.728 157.194 248.578 157.541L245.416 164.838C245.266 165.185 245.425 165.588 245.772 165.738C246.119 165.888 246.522 165.729 246.672 165.382L249.834 158.085C249.984 157.739 249.825 157.336 249.478 157.185ZM261.938 152.768C261.713 153.072 261.778 153.5 262.082 153.725L267.775 157.929C268.079 158.154 268.507 158.089 268.732 157.785C268.956 157.481 268.892 157.053 268.588 156.828L262.895 152.624C262.591 152.399 262.163 152.464 261.938 152.768ZM156.069 231.17C156.048 231.547 156.338 231.87 156.715 231.89L163.686 232.269C164.063 232.29 164.386 232.001 164.406 231.623C164.427 231.246 164.138 230.923 163.76 230.903L156.789 230.524C156.412 230.503 156.089 230.792 156.069 231.17ZM243.154 171.779C242.807 171.629 242.404 171.788 242.254 172.135L239.092 179.432C238.942 179.778 239.101 180.181 239.448 180.332C239.795 180.482 240.197 180.323 240.348 179.976L243.51 172.679C243.66 172.332 243.501 171.929 243.154 171.779ZM87.2219 282.63C86.9415 282.883 86.9196 283.316 87.173 283.597L91.7745 288.689C92.0279 288.97 92.4607 288.992 92.7411 288.738C93.0216 288.485 93.0435 288.052 92.7901 287.772L88.1885 282.679C87.9352 282.399 87.5024 282.377 87.2219 282.63ZM170.011 231.928C169.99 232.305 170.279 232.628 170.657 232.649L177.628 233.028C178.005 233.048 178.328 232.759 178.348 232.382C178.369 232.004 178.079 231.682 177.702 231.661L170.731 231.282C170.354 231.261 170.031 231.551 170.011 231.928ZM236.83 186.373C236.483 186.222 236.08 186.382 235.93 186.728L232.768 194.025C232.617 194.372 232.777 194.775 233.124 194.925C233.47 195.075 233.873 194.916 234.024 194.569L237.186 187.273C237.336 186.926 237.177 186.523 236.83 186.373ZM273.324 161.176C273.099 161.48 273.164 161.909 273.468 162.133L279.16 166.338C279.465 166.562 279.893 166.498 280.118 166.194C280.342 165.89 280.278 165.461 279.974 165.237L274.281 161.032C273.977 160.808 273.548 160.872 273.324 161.176ZM96.425 292.815C96.1446 293.069 96.1227 293.502 96.3761 293.782L100.978 298.875C101.231 299.155 101.664 299.177 101.944 298.924C102.225 298.67 102.247 298.237 101.993 297.957L97.3916 292.864C97.1382 292.584 96.7055 292.562 96.425 292.815ZM183.952 232.686C183.932 233.064 184.221 233.386 184.598 233.407L191.569 233.786C191.947 233.806 192.269 233.517 192.29 233.14C192.31 232.762 192.021 232.44 191.644 232.419L184.673 232.04C184.295 232.02 183.973 232.309 183.952 232.686ZM230.506 200.966C230.159 200.816 229.756 200.975 229.606 201.322L226.444 208.619C226.293 208.965 226.453 209.368 226.799 209.519C227.146 209.669 227.549 209.51 227.699 209.163L230.862 201.866C231.012 201.519 230.852 201.116 230.506 200.966ZM284.709 169.585C284.485 169.889 284.549 170.317 284.853 170.542L290.546 174.746C290.85 174.97 291.279 174.906 291.503 174.602C291.728 174.298 291.663 173.869 291.359 173.645L285.666 169.441C285.362 169.216 284.934 169.281 284.709 169.585ZM197.894 233.445C197.873 233.822 198.163 234.145 198.54 234.165L205.511 234.544C205.888 234.565 206.211 234.275 206.231 233.898C206.252 233.521 205.963 233.198 205.585 233.177L198.614 232.798C198.237 232.778 197.914 233.067 197.894 233.445ZM224.182 215.56C223.835 215.409 223.432 215.569 223.281 215.915L220.119 223.212C219.969 223.559 220.128 223.962 220.475 224.112C220.822 224.263 221.225 224.103 221.375 223.756L224.537 216.46C224.688 216.113 224.528 215.71 224.182 215.56ZM105.628 303.001C105.348 303.254 105.326 303.687 105.579 303.967L110.181 309.06C110.434 309.34 110.867 309.362 111.147 309.109C111.428 308.855 111.45 308.423 111.196 308.142L106.595 303.05C106.341 302.769 105.909 302.747 105.628 303.001ZM211.835 234.203C211.815 234.58 212.104 234.903 212.482 234.923L215.097 235.066L214.367 237.48C214.258 237.842 214.463 238.223 214.824 238.333C215.186 238.442 215.568 238.237 215.678 237.876L216.648 234.665L218.213 231.053C218.363 230.706 218.204 230.303 217.857 230.153C217.511 230.003 217.108 230.162 216.957 230.509L215.566 233.72L212.556 233.557C212.179 233.536 211.856 233.825 211.835 234.203ZM296.095 177.993C295.871 178.297 295.935 178.726 296.239 178.95L301.932 183.154C302.236 183.379 302.664 183.314 302.889 183.01C303.113 182.706 303.049 182.278 302.745 182.053L297.052 177.849C296.748 177.625 296.32 177.689 296.095 177.993ZM213.257 243.519C212.895 243.41 212.513 243.614 212.404 243.976L210.441 250.473C210.331 250.834 210.536 251.216 210.898 251.326C211.259 251.435 211.641 251.23 211.751 250.869L213.714 244.372C213.823 244.01 213.619 243.628 213.257 243.519ZM114.831 313.186C114.551 313.439 114.529 313.872 114.782 314.153L119.384 319.245C119.637 319.526 120.07 319.548 120.35 319.294C120.631 319.041 120.653 318.608 120.399 318.328L115.798 313.235C115.544 312.954 115.112 312.933 114.831 313.186ZM307.481 186.401C307.256 186.706 307.321 187.134 307.625 187.359L313.318 191.563C313.622 191.787 314.05 191.723 314.275 191.419C314.499 191.115 314.435 190.686 314.131 190.462L308.438 186.257C308.134 186.033 307.705 186.097 307.481 186.401ZM209.33 256.512C208.968 256.403 208.586 256.607 208.477 256.969L206.514 263.466C206.404 263.827 206.609 264.209 206.971 264.319C207.333 264.428 207.715 264.223 207.824 263.862L209.787 257.365C209.897 257.003 209.692 256.621 209.33 256.512ZM124.034 323.371C123.754 323.625 123.732 324.057 123.985 324.338L128.587 329.431C128.84 329.711 129.273 329.733 129.553 329.479C129.834 329.226 129.856 328.793 129.602 328.513L125.001 323.42C124.747 323.14 124.315 323.118 124.034 323.371ZM205.403 269.505C205.042 269.396 204.66 269.6 204.55 269.962L202.587 276.459C202.478 276.82 202.682 277.202 203.044 277.312C203.406 277.421 203.788 277.216 203.897 276.855L205.861 270.358C205.97 269.996 205.765 269.614 205.403 269.505ZM318.866 194.81C318.642 195.114 318.706 195.542 319.01 195.767L324.703 199.971C325.007 200.196 325.436 200.131 325.66 199.827C325.885 199.523 325.82 199.095 325.516 198.87L319.824 194.666C319.519 194.441 319.091 194.506 318.866 194.81ZM201.477 282.498C201.115 282.389 200.733 282.593 200.623 282.955L198.66 289.451C198.551 289.813 198.755 290.195 199.117 290.305C199.479 290.414 199.861 290.209 199.97 289.847L201.934 283.351C202.043 282.989 201.838 282.607 201.477 282.498ZM133.237 333.557C132.957 333.81 132.935 334.243 133.188 334.523L137.79 339.616C138.043 339.896 138.476 339.918 138.756 339.665C139.037 339.411 139.059 338.979 138.805 338.698L134.204 333.605C133.951 333.325 133.518 333.303 133.237 333.557ZM330.252 203.218C330.028 203.522 330.092 203.951 330.396 204.175L336.089 208.379C336.393 208.604 336.821 208.54 337.046 208.236C337.271 207.931 337.206 207.503 336.902 207.278L331.209 203.074C330.905 202.85 330.477 202.914 330.252 203.218ZM197.55 295.491C197.188 295.381 196.806 295.586 196.697 295.948L194.733 302.444C194.624 302.806 194.829 303.188 195.19 303.298C195.552 303.407 195.934 303.202 196.043 302.84L198.007 296.344C198.116 295.982 197.912 295.6 197.55 295.491ZM193.623 308.484C193.261 308.374 192.879 308.579 192.77 308.941L190.806 315.437C190.697 315.799 190.902 316.181 191.264 316.29C191.625 316.4 192.007 316.195 192.117 315.833L194.08 309.337C194.189 308.975 193.985 308.593 193.623 308.484ZM142.44 343.742C142.16 343.995 142.138 344.428 142.391 344.708L146.993 349.801C147.246 350.081 147.679 350.103 147.96 349.85C148.24 349.597 148.262 349.164 148.009 348.883L143.407 343.791C143.154 343.51 142.721 343.488 142.44 343.742ZM341.638 211.627C341.413 211.931 341.478 212.359 341.782 212.584L347.475 216.788C347.779 217.012 348.207 216.948 348.432 216.644C348.656 216.34 348.592 215.911 348.288 215.687L342.595 211.483C342.291 211.258 341.862 211.323 341.638 211.627ZM189.696 321.477C189.334 321.367 188.952 321.572 188.843 321.934L186.88 328.43C186.77 328.792 186.975 329.174 187.337 329.283C187.699 329.393 188.08 329.188 188.19 328.826L190.153 322.33C190.263 321.968 190.058 321.586 189.696 321.477ZM151.643 353.927C151.363 354.18 151.341 354.613 151.594 354.894L156.196 359.986C156.449 360.267 156.882 360.289 157.163 360.035C157.443 359.782 157.465 359.349 157.212 359.069L152.61 353.976C152.357 353.696 151.924 353.674 151.643 353.927ZM185.769 334.47C185.408 334.36 185.026 334.565 184.916 334.927L182.953 341.423C182.843 341.785 183.048 342.167 183.41 342.276C183.772 342.386 184.154 342.181 184.263 341.819L186.226 335.323C186.336 334.961 186.131 334.579 185.769 334.47ZM353.023 220.035C352.799 220.339 352.863 220.768 353.167 220.992L358.86 225.196C359.164 225.421 359.593 225.356 359.817 225.052C360.042 224.748 359.977 224.32 359.673 224.095L353.981 219.891C353.677 219.666 353.248 219.731 353.023 220.035ZM181.842 347.463C181.481 347.353 181.099 347.558 180.989 347.92L179.026 354.416C178.917 354.778 179.121 355.16 179.483 355.269C179.845 355.379 180.227 355.174 180.336 354.812L182.3 348.316C182.409 347.954 182.204 347.572 181.842 347.463ZM160.846 364.112C160.566 364.366 160.544 364.799 160.798 365.079L165.399 370.172C165.652 370.452 166.085 370.474 166.366 370.221C166.646 369.967 166.668 369.534 166.415 369.254L161.813 364.161C161.56 363.881 161.127 363.859 160.846 364.112ZM364.409 228.443C364.185 228.747 364.249 229.176 364.553 229.4L370.246 233.605C370.55 233.829 370.979 233.765 371.203 233.461C371.428 233.157 371.363 232.728 371.059 232.504L365.366 228.299C365.062 228.075 364.634 228.139 364.409 228.443ZM177.916 360.455C177.554 360.346 177.172 360.551 177.063 360.913L175.099 367.409C174.99 367.771 175.194 368.153 175.556 368.262C175.918 368.372 176.3 368.167 176.409 367.805L178.373 361.309C178.482 360.947 178.277 360.565 177.916 360.455ZM170.05 374.298C169.769 374.551 169.747 374.984 170.001 375.264L172.301 377.811C172.467 377.994 172.718 378.074 172.959 378.02C173.2 377.966 173.393 377.786 173.464 377.55L174.446 374.302C174.555 373.94 174.351 373.558 173.989 373.448C173.627 373.339 173.245 373.544 173.136 373.905L172.505 375.994L171.016 374.347C170.763 374.066 170.33 374.044 170.05 374.298ZM375.795 236.852C375.57 237.156 375.635 237.584 375.939 237.809L378.785 239.911C379.089 240.135 379.518 240.071 379.742 239.767C379.967 239.463 379.902 239.034 379.598 238.81L376.752 236.708C376.448 236.483 376.019 236.548 375.795 236.852Z" fill="#193174" fill-opacity="0.77"/>
<path fill-rule="evenodd" clip-rule="evenodd" d="M215.416 233.881C215.402 234.259 215.698 234.576 216.075 234.589L219.46 234.712C219.838 234.726 220.155 234.431 220.169 234.053C220.182 233.675 219.887 233.358 219.51 233.344L216.125 233.222C215.747 233.208 215.43 233.503 215.416 233.881ZM225.571 234.248C225.557 234.626 225.852 234.944 226.23 234.957L232.999 235.202C233.377 235.216 233.694 234.921 233.708 234.543C233.722 234.165 233.427 233.848 233.049 233.834L226.279 233.589C225.902 233.576 225.584 233.871 225.571 234.248ZM239.11 234.739C239.096 235.116 239.391 235.434 239.769 235.447L246.539 235.693C246.916 235.706 247.234 235.411 247.247 235.033C247.261 234.656 246.966 234.338 246.588 234.325L239.819 234.08C239.441 234.066 239.124 234.361 239.11 234.739ZM252.649 235.229C252.636 235.607 252.931 235.924 253.308 235.938L260.078 236.183C260.456 236.197 260.773 235.901 260.787 235.524C260.8 235.146 260.505 234.829 260.128 234.815L253.358 234.57C252.98 234.556 252.663 234.851 252.649 235.229ZM266.189 235.719C266.175 236.097 266.47 236.414 266.848 236.428L273.617 236.673C273.995 236.687 274.312 236.392 274.326 236.014C274.34 235.636 274.045 235.319 273.667 235.305L266.897 235.06C266.52 235.046 266.202 235.342 266.189 235.719ZM279.728 236.21C279.714 236.587 280.009 236.905 280.387 236.918L287.157 237.163C287.534 237.177 287.852 236.882 287.865 236.504C287.879 236.126 287.584 235.809 287.206 235.796L280.437 235.55C280.059 235.537 279.742 235.832 279.728 236.21ZM293.267 236.7C293.254 237.078 293.549 237.395 293.926 237.408L300.696 237.654C301.074 237.667 301.391 237.372 301.405 236.994C301.418 236.617 301.123 236.299 300.746 236.286L293.976 236.041C293.598 236.027 293.281 236.322 293.267 236.7ZM306.807 237.19C306.793 237.568 307.088 237.885 307.466 237.899L314.235 238.144C314.613 238.158 314.93 237.862 314.944 237.485C314.958 237.107 314.663 236.79 314.285 236.776L307.515 236.531C307.138 236.517 306.82 236.812 306.807 237.19ZM320.346 237.68C320.332 238.058 320.627 238.375 321.005 238.389L327.775 238.634C328.152 238.648 328.47 238.353 328.483 237.975C328.497 237.597 328.202 237.28 327.824 237.266L321.055 237.021C320.677 237.007 320.36 237.303 320.346 237.68ZM333.885 238.171C333.872 238.548 334.167 238.866 334.544 238.879L341.314 239.124C341.692 239.138 342.009 238.843 342.023 238.465C342.036 238.088 341.741 237.77 341.364 237.757L334.594 237.511C334.216 237.498 333.899 237.793 333.885 238.171ZM347.425 238.661C347.411 239.039 347.706 239.356 348.084 239.37L354.853 239.615C355.231 239.628 355.548 239.333 355.562 238.955C355.576 238.578 355.281 238.26 354.903 238.247L348.133 238.002C347.756 237.988 347.438 238.283 347.425 238.661ZM360.964 239.151C360.95 239.529 361.245 239.846 361.623 239.86L368.393 240.105C368.77 240.119 369.088 239.823 369.101 239.446C369.115 239.068 368.82 238.751 368.442 238.737L361.673 238.492C361.295 238.478 360.978 238.773 360.964 239.151ZM374.503 239.641C374.49 240.019 374.785 240.336 375.162 240.35L378.547 240.473C378.925 240.486 379.242 240.191 379.256 239.813C379.27 239.436 378.974 239.118 378.597 239.105L375.212 238.982C374.834 238.969 374.517 239.264 374.503 239.641Z" fill="#193174" fill-opacity="0.77"/>
<circle cx="12.8073" cy="12.8073" r="12.8073" transform="matrix(-0.822771 0.568373 0.568373 0.822771 227.786 11.5708)" fill="#193174"/>
<circle cx="12.8073" cy="12.8073" r="12.8073" transform="matrix(-0.822771 0.568373 0.568373 0.822771 388.183 43.6104)" fill="#193174"/>
<circle cx="12.8073" cy="12.8073" r="12.8073" transform="matrix(-0.822771 0.568373 0.568373 0.822771 257.495 127.48)" fill="#193174"/>
<circle cx="12.8073" cy="12.8073" r="12.8073" transform="matrix(-0.822771 0.568373 0.568373 0.822771 36.6191 204.063)" fill="#193174"/>
<circle cx="12.8073" cy="12.8073" r="12.8073" transform="matrix(-0.822771 0.568373 0.568373 0.822771 381.284 220.518)" fill="#27AAE1"/>
<circle cx="12.8073" cy="12.8073" r="12.8073" transform="matrix(-0.822771 0.568373 0.568373 0.822771 218.429 216.731)" fill="#27AAE1"/>
<circle cx="12.8073" cy="12.8073" r="12.8073" transform="matrix(-0.822771 0.568373 0.568373 0.822771 174.164 358.104)" fill="#27AAE1"/>
</g>
<defs>
<clipPath id="clip0_404_47">
<rect width="420" height="410" fill="white"/>
</clipPath>
</defs>
</svg>
