<svg width="314" height="343" viewBox="0 0 314 343" fill="none" xmlns="http://www.w3.org/2000/svg">
<rect y="52" width="314" height="290.912" rx="14" fill="#193174"/>
<path opacity="0.08" fill-rule="evenodd" clip-rule="evenodd" d="M167.014 233.132L108.7 199.469L50.387 233.132L108.7 266.794L167.014 233.132Z" fill="black"/>
<path opacity="0.08" fill-rule="evenodd" clip-rule="evenodd" d="M139.568 284.338L197.881 318L256.195 284.338L197.881 250.662L139.568 284.338Z" fill="black"/>
<path d="M215.864 131.186L281.964 81.1919L215.132 112.072L214.533 98.3359L277.092 51.9087L213.88 81.0722L213.801 79.2486L197.322 56.6207L180.857 79.2486L180.072 98.5622L128.44 136.697L126.829 79.994L192.876 29.9862L126.057 60.8667L125.498 47.1435L187.991 0.663086L124.833 31.0245L124.713 28.0562L108.527 5.32178L92.3418 27.9497L91.5698 46.9173L91.2104 47.0903H91.5565V47.2633L91.2104 47.0637L28.1849 93.7039L90.7446 65.5654L90.1855 79.395L89.906 79.2353L22.1952 128.804L89.4135 98.8817L85.4203 199.47L71.2047 234.862L108.581 256.559L145.85 234.862L131.701 199.47L130.25 171.517L177.955 150.22L173.869 250.542L159.72 285.948L197.229 307.764L234.938 286.068L220.802 250.662L215.864 131.186ZM178.701 130.641L129.984 166.38L128.653 139.891L179.366 117.077L178.701 130.641Z" fill="#E3FFFF"/>
<path d="M107.982 5.37488L91.7961 28.0561L84.8081 199.469L70.6722 234.862L108.035 256.558L107.982 5.37488Z" fill="#67DAFF"/>
<path d="M108.354 57.6722L91.2104 47.1968L28.2249 93.7039L108.354 57.6722Z" fill="#27AAE1"/>
<path d="M108.354 90.4693L89.9725 79.2352L26.175 126.474L108.354 90.4693Z" fill="#27AAE1"/>
<path d="M125.498 47.1435L187.991 0.663086L124.793 29.9862L125.498 47.1435Z" fill="#27AAE1"/>
<path d="M126.829 79.9939L191.625 30.5585L126.403 60.7069L126.829 79.9939Z" fill="#27AAE1"/>
<path d="M214.706 98.1628L277.212 51.6824L214.013 81.0055L214.706 98.1628Z" fill="#27AAE1"/>
<path d="M216.183 130.987L280.074 82.4165L215.145 112.072L216.183 130.987Z" fill="#27AAE1"/>
<path d="M197.322 56.5675L180.857 79.2487L173.869 250.662L159.72 286.068L197.216 307.764L197.322 56.5675Z" fill="#67DAFF"/>
<path d="M197.442 108.878L180.072 98.5621L119.322 143.791L197.442 108.878Z" fill="#27AAE1"/>
<path d="M197.442 141.675L179.06 130.574L111.536 179.89L197.442 141.675Z" fill="#27AAE1"/>
<path d="M128.826 45.493L128.027 44.4148L182.441 3.99069L128.28 29.0012L127.721 27.79L187.712 0.064074C187.86 -0.00613421 188.029 -0.0191504 188.186 0.0275222C188.343 0.0741948 188.478 0.17727 188.564 0.316975C188.649 0.458694 188.679 0.62723 188.647 0.789672C188.615 0.952114 188.524 1.0968 188.391 1.19547L128.826 45.493Z" fill="#081E7A"/>
<path d="M104.135 214.593L70.5208 234.291L71.1937 235.439L104.808 215.742L104.135 214.593Z" fill="#081E7A"/>
<path d="M92.6765 27.4888L92.0076 28.6395L108.026 37.9512L108.695 36.8005L92.6765 27.4888Z" fill="#081E7A"/>
<path d="M105.937 187.231L85.0297 198.877L85.6774 200.04L106.585 188.394L105.937 187.231Z" fill="#081E7A"/>
<path d="M103.674 161.779L86.1144 172.069L86.7873 173.217L104.346 162.928L103.674 161.779Z" fill="#081E7A"/>
<path d="M104.232 138.587L86.7334 148.475L87.3882 149.634L104.887 139.746L104.232 138.587Z" fill="#081E7A"/>
<path d="M105.202 19.5805L92.0021 27.4869L92.686 28.6288L105.886 20.7224L105.202 19.5805Z" fill="#081E7A"/>
<path d="M104.808 38.755L90.8777 46.6237L91.5323 47.7826L105.463 39.9139L104.808 38.755Z" fill="#081E7A"/>
<path d="M105.282 69.5586L89.6357 78.6359L90.3037 79.7872L105.95 70.7099L105.282 69.5586Z" fill="#081E7A"/>
<path d="M108.701 257.224C108.583 257.226 108.467 257.194 108.368 257.131L70.8719 235.435C70.735 235.356 70.6311 235.231 70.5797 235.081C70.5283 234.932 70.5328 234.769 70.5924 234.623L84.6883 199.323L91.6763 28.0296C91.6814 27.9009 91.7229 27.7762 91.7961 27.6702L108.168 5.04227C108.249 4.92979 108.363 4.84593 108.495 4.80286C108.627 4.75978 108.769 4.75972 108.9 4.80268C109.021 4.83551 109.13 4.90161 109.214 4.99341C109.299 5.08521 109.356 5.19901 109.379 5.32179V256.559C109.379 256.675 109.348 256.789 109.289 256.889C109.231 256.989 109.147 257.073 109.047 257.131C108.943 257.197 108.823 257.229 108.701 257.224ZM72.1098 234.583L108.048 255.401V7.42486L92.9941 28.2825L86.0194 199.496C86.0315 199.567 86.0315 199.639 86.0194 199.709L72.1098 234.583Z" fill="#081E7A"/>
<path d="M86.7726 172.077L86.1111 173.232L108.022 185.781L108.684 184.626L86.7726 172.077Z" fill="#081E7A"/>
<path d="M85.6825 198.866L85.0382 200.031L108.391 212.949L109.035 211.784L85.6825 198.866Z" fill="#081E7A"/>
<path d="M112.571 214.563L111.897 215.712L145.504 235.421L146.178 234.273L112.571 214.563Z" fill="#081E7A"/>
<path d="M124.375 27.4785L108.014 36.7808L108.671 37.9379L125.033 28.6356L124.375 27.4785Z" fill="#081E7A"/>
<path d="M131.368 200.042L110.83 188.395L111.496 187.237L132.034 198.884L131.368 200.042Z" fill="#081E7A"/>
<path d="M113.038 161.779L112.375 162.933L121.098 167.95L121.762 166.796L113.038 161.779Z" fill="#081E7A"/>
<path d="M125.176 145.769L124.521 146.928L129.319 149.639L129.974 148.48L125.176 145.769Z" fill="#081E7A"/>
<path d="M128.414 126.155L111.003 116.385L111.656 115.227L129.052 124.984L128.414 126.155Z" fill="#081E7A"/>
<path d="M111.506 19.5723L110.834 20.7218L124.387 28.6347L125.058 27.4852L111.506 19.5723Z" fill="#081E7A"/>
<path d="M112.026 38.7445L111.372 39.9036L125.246 47.7371L125.9 46.5781L112.026 38.7445Z" fill="#081E7A"/>
<path d="M111.438 69.5614L110.769 70.7123L126.409 79.8005L127.078 78.6496L111.438 69.5614Z" fill="#081E7A"/>
<path d="M108.7 161.801C108.589 161.801 108.479 161.774 108.381 161.721L86.7513 149.648L87.3902 148.477L108.687 160.363L129.345 148.49L130.011 149.635L109.06 161.707C108.953 161.776 108.827 161.808 108.7 161.801Z" fill="#081E7A"/>
<path d="M108.7 138.294C108.583 138.298 108.466 138.266 108.368 138.201L88.0823 126.142C87.9798 126.082 87.8949 125.997 87.8364 125.894C87.7779 125.791 87.7479 125.674 87.7496 125.556C87.7513 125.442 87.7829 125.33 87.8413 125.232C87.8997 125.134 87.9828 125.053 88.0823 124.997L105.107 115.227L105.759 116.385L89.7861 125.583L108.807 136.857L128.453 124.997L129.145 126.142L109.18 138.201C109.034 138.282 108.866 138.315 108.7 138.294Z" fill="#081E7A"/>
<path d="M131.369 198.874L108.378 211.812L109.031 212.972L132.022 200.033L131.369 198.874Z" fill="#081E7A"/>
<path d="M125.211 46.6202L107.998 57.0986L108.69 58.2356L125.904 47.7571L125.211 46.6202Z" fill="#081E7A"/>
<path d="M126.391 78.6542L108.003 89.8915L108.697 91.0272L127.085 79.79L126.391 78.6542Z" fill="#081E7A"/>
<path d="M28.1849 94.3694C28.0702 94.3688 27.9576 94.3391 27.8576 94.2833C27.7575 94.2274 27.6732 94.1471 27.6125 94.0499C27.5321 93.902 27.5108 93.7291 27.5528 93.5661C27.5948 93.4031 27.697 93.2621 27.8388 93.1714L90.811 46.651C90.9211 46.5766 91.0509 46.5369 91.1837 46.5369C91.3166 46.5369 91.4464 46.5766 91.5564 46.651L108.7 57.1397C108.804 57.2006 108.888 57.2887 108.944 57.3944C109.001 57.5 109.027 57.6192 109.02 57.7387C109.011 57.8613 108.97 57.9793 108.899 58.0801C108.829 58.1809 108.733 58.2607 108.621 58.3111L28.5043 94.3161C28.4035 94.3589 28.2941 94.3771 28.1849 94.3694ZM91.2503 47.9954L33.6156 90.5093L106.93 57.5923L91.2503 47.9954Z" fill="#081E7A"/>
<path d="M22.1952 129.469C22.0764 129.466 21.9607 129.431 21.86 129.368C21.7594 129.304 21.6775 129.215 21.6229 129.11C21.5395 128.969 21.5123 128.801 21.5468 128.641C21.5814 128.48 21.6751 128.339 21.8092 128.245L89.5733 78.6895C89.6833 78.6151 89.8131 78.5753 89.946 78.5753C90.0788 78.5753 90.2086 78.6151 90.3186 78.6895L108.701 89.9369C108.807 89.9977 108.894 90.0872 108.952 90.1952C109.01 90.3032 109.036 90.4253 109.028 90.5476C109.019 90.6698 108.977 90.7873 108.905 90.8864C108.833 90.9856 108.734 91.0624 108.621 91.1082L22.4614 129.416C22.378 129.454 22.2869 129.472 22.1952 129.469ZM89.9992 80.0338L27.6126 125.662L106.93 90.3761L89.9992 80.0338Z" fill="#081E7A"/>
<path d="M112.207 92.282L111.542 93.4348L127.393 102.583L128.058 101.43L112.207 92.282Z" fill="#081E7A"/>
<path d="M108.7 113.789C108.585 113.789 108.471 113.761 108.368 113.71L88.6548 102.582L89.307 101.424L108.7 112.365L127.335 101.424L128.014 102.569L108.98 113.696C108.897 113.751 108.8 113.783 108.7 113.789Z" fill="#081E7A"/>
<path d="M108.687 257.131L108.022 255.986L145.012 234.583L131.089 199.656C131.077 199.585 131.077 199.513 131.089 199.443L130.131 175.843H131.462L132.42 199.323L146.516 234.623C146.575 234.769 146.58 234.932 146.529 235.081C146.477 235.23 146.373 235.356 146.236 235.435L108.687 257.131Z" fill="#081E7A"/>
<path d="M130.07 143.478L128.74 143.532L129.45 160.981L130.78 160.927L130.07 143.478Z" fill="#081E7A"/>
<path d="M128.294 132.198L124.021 28.2825L111.948 11.4846L113.026 10.646L125.259 27.617C125.332 27.723 125.374 27.8476 125.379 27.9763L129.625 132.091L128.294 132.198Z" fill="#081E7A"/>
<path d="M186.567 1.72791H185.236V9.71424H186.567V1.72791Z" fill="#081E7A"/>
<path d="M130.916 77.7312L130.104 76.6796L187.565 33.1674L129.558 59.9882L128.999 58.7769L192.597 29.3739C192.748 29.2875 192.928 29.2641 193.096 29.3088C193.265 29.3534 193.41 29.4626 193.499 29.6127C193.588 29.7628 193.614 29.9418 193.572 30.1113C193.531 30.2807 193.424 30.427 193.275 30.5186L130.916 77.7312Z" fill="#081E7A"/>
<path d="M191.891 31.011H190.56V37.6663H191.891V31.011Z" fill="#081E7A"/>
<path d="M32.1649 92.2396H30.8339V98.8949H32.1649V92.2396Z" fill="#081E7A"/>
<path d="M26.8406 126.847H25.5095V134.833H26.8406V126.847Z" fill="#081E7A"/>
<path d="M217.914 96.6853L217.115 95.6204L271.529 55.1697L217.368 80.1935L216.809 78.9823L276.799 51.2564C276.951 51.17 277.131 51.1466 277.299 51.1912C277.468 51.2359 277.612 51.345 277.701 51.4951C277.79 51.6452 277.817 51.8243 277.775 51.9937C277.733 52.1632 277.627 52.3095 277.478 52.4011L217.914 96.6853Z" fill="#081E7A"/>
<path d="M193.236 265.764L159.622 285.462L160.295 286.61L193.909 266.913L193.236 265.764Z" fill="#081E7A"/>
<path d="M178.384 152.611L177.723 153.766L197.099 164.85L197.759 163.694L178.384 152.611Z" fill="#081E7A"/>
<path d="M181.399 78.6686L180.741 79.8256L197.101 89.1307L197.759 87.9737L181.399 78.6686Z" fill="#081E7A"/>
<path d="M174.415 251.248L173.763 250.09L194.301 238.443L194.953 239.601L174.415 251.248Z" fill="#081E7A"/>
<path d="M192.744 212.968L174.842 223.249L175.505 224.404L193.407 214.122L192.744 212.968Z" fill="#081E7A"/>
<path d="M193.313 189.803L175.813 199.688L176.467 200.846L193.968 190.961L193.313 189.803Z" fill="#081E7A"/>
<path d="M194.139 166.435L176.741 176.202L177.393 177.363L194.791 167.596L194.139 166.435Z" fill="#081E7A"/>
<path d="M194.292 70.7659L180.738 78.6764L181.409 79.826L194.963 71.9154L194.292 70.7659Z" fill="#081E7A"/>
<path d="M193.897 89.926L179.968 97.7971L180.622 98.956L194.552 91.0848L193.897 89.926Z" fill="#081E7A"/>
<path d="M194.367 120.75L178.72 129.828L179.388 130.979L195.035 121.902L194.367 120.75Z" fill="#081E7A"/>
<path d="M197.881 308.43C197.764 308.426 197.65 308.394 197.548 308.336L160.053 286.64C159.917 286.557 159.814 286.429 159.763 286.278C159.712 286.128 159.715 285.963 159.773 285.815L173.869 250.529L180.857 79.2219C180.864 79.0935 180.905 78.9694 180.977 78.8625L197.349 56.2345C197.428 56.1197 197.541 56.0332 197.673 55.9877C197.805 55.9421 197.948 55.94 198.081 55.9816C198.217 56.0243 198.335 56.1094 198.419 56.2244C198.503 56.3394 198.548 56.4782 198.547 56.6205V307.764C198.543 307.88 198.511 307.993 198.453 308.093C198.395 308.193 198.313 308.276 198.214 308.336C198.112 308.394 197.998 308.426 197.881 308.43ZM161.29 285.775L197.229 306.606V58.6304L182.188 79.4748L175.213 250.688C175.227 250.763 175.227 250.84 175.213 250.915L161.29 285.775Z" fill="#081E7A"/>
<path d="M175.514 223.267L174.861 224.426L197.112 236.969L197.765 235.81L175.514 223.267Z" fill="#081E7A"/>
<path d="M176.474 199.683L175.826 200.846L197.12 212.727L197.769 211.565L176.474 199.683Z" fill="#081E7A"/>
<path d="M177.432 176.188L176.753 177.333L197.088 189.388L197.767 188.243L177.432 176.188Z" fill="#081E7A"/>
<path d="M174.415 250.084L173.763 251.245L197.114 264.359L197.765 263.199L174.415 250.084Z" fill="#081E7A"/>
<path d="M201.662 265.766L200.989 266.914L234.596 286.623L235.269 285.475L201.662 265.766Z" fill="#081E7A"/>
<path d="M213.472 78.6881L197.111 87.9904L197.769 89.1475L214.13 79.8452L213.472 78.6881Z" fill="#081E7A"/>
<path d="M220.456 251.248L199.918 239.601L200.583 238.443L221.121 250.09L220.456 251.248Z" fill="#081E7A"/>
<path d="M202.118 212.98L201.455 214.134L219.351 224.425L220.015 223.272L202.118 212.98Z" fill="#081E7A"/>
<path d="M201.568 189.806L200.913 190.965L218.411 200.853L219.066 199.694L201.568 189.806Z" fill="#081E7A"/>
<path d="M217.488 177.347L200.091 167.591L200.743 166.419L218.14 176.189L217.488 177.347Z" fill="#081E7A"/>
<path d="M200.592 70.7764L199.921 71.9259L213.473 79.8388L214.144 78.6893L200.592 70.7764Z" fill="#081E7A"/>
<path d="M201.104 89.9454L200.449 91.1045L214.323 98.938L214.978 97.779L201.104 89.9454Z" fill="#081E7A"/>
<path d="M200.517 120.777L199.848 121.928L215.488 131.016L216.157 129.865L200.517 120.777Z" fill="#081E7A"/>
<path d="M219.377 223.259L197.117 235.787L197.77 236.947L220.03 224.419L219.377 223.259Z" fill="#081E7A"/>
<path d="M218.411 199.691L197.108 211.558L197.756 212.721L219.058 200.854L218.411 199.691Z" fill="#081E7A"/>
<path d="M217.429 176.183L197.098 188.245L197.777 189.389L218.108 177.328L217.429 176.183Z" fill="#081E7A"/>
<path d="M220.452 250.081L197.113 263.215L197.766 264.375L221.105 251.241L220.452 250.081Z" fill="#081E7A"/>
<path d="M214.304 97.8248L197.09 108.303L197.782 109.44L214.996 98.9617L214.304 97.8248Z" fill="#081E7A"/>
<path d="M215.476 129.867L197.086 141.101L197.78 142.237L216.17 131.003L215.476 129.867Z" fill="#081E7A"/>
<path d="M117.365 145.575C117.226 145.575 117.09 145.531 116.976 145.449C116.863 145.368 116.778 145.252 116.734 145.12C116.69 144.987 116.689 144.844 116.73 144.711C116.772 144.578 116.854 144.461 116.966 144.377L179.925 97.8567C180.035 97.7823 180.165 97.7426 180.298 97.7426C180.431 97.7426 180.56 97.7823 180.67 97.8567L197.814 108.332C197.918 108.396 198.002 108.487 198.058 108.595C198.114 108.702 198.14 108.823 198.134 108.944C198.124 109.065 198.082 109.181 198.012 109.279C197.942 109.378 197.846 109.455 197.735 109.503L117.592 145.508C117.521 145.543 117.444 145.565 117.365 145.575ZM180.324 99.1877L122.69 141.755L196.004 108.785L180.324 99.1877Z" fill="#081E7A"/>
<path d="M111.283 180.675C111.166 180.677 111.051 180.647 110.95 180.589C110.849 180.53 110.766 180.445 110.71 180.342C110.628 180.2 110.6 180.032 110.631 179.87C110.663 179.709 110.753 179.564 110.883 179.464L178.661 129.895C178.771 129.821 178.901 129.781 179.033 129.781C179.166 129.781 179.296 129.821 179.406 129.895L197.788 141.089C197.891 141.154 197.975 141.244 198.031 141.352C198.088 141.46 198.114 141.58 198.107 141.702C198.096 141.824 198.053 141.94 197.983 142.041C197.913 142.141 197.819 142.221 197.708 142.274L111.549 180.608C111.466 180.651 111.375 180.673 111.283 180.675ZM179.087 131.226L116.7 176.868L196.018 141.582L179.087 131.226Z" fill="#081E7A"/>
<path d="M201.3 143.488L200.635 144.641L216.486 153.789L217.152 152.636L201.3 143.488Z" fill="#081E7A"/>
<path d="M216.487 152.631L197.111 163.714L197.772 164.87L217.148 153.787L216.487 152.631Z" fill="#081E7A"/>
<path d="M197.775 308.337L197.109 307.179L234.099 285.775L220.176 250.915C220.157 250.841 220.157 250.763 220.176 250.689L213.202 79.4749L196.896 56.9534L197.974 56.1814L214.346 78.8093C214.418 78.9163 214.459 79.0404 214.466 79.1687L221.454 250.476L235.55 285.762C235.609 285.912 235.612 286.078 235.559 286.229C235.505 286.381 235.398 286.508 235.257 286.587L197.775 308.337Z" fill="#081E7A"/>
<path d="M275.748 53.6389H274.417V61.6252H275.748V53.6389Z" fill="#081E7A"/>
<path d="M219.99 128.937L219.192 127.872L276.64 84.3732L218.646 111.181L218.087 109.969L281.685 80.5797C281.833 80.5157 281.999 80.5076 282.153 80.557C282.306 80.6064 282.437 80.7098 282.52 80.8481C282.603 80.9865 282.632 81.1502 282.604 81.3089C282.575 81.4677 282.49 81.6106 282.364 81.7111L219.99 128.937Z" fill="#081E7A"/>
<path d="M281.072 82.9222H279.741V90.9086H281.072V82.9222Z" fill="#081E7A"/>
<path d="M121.345 142.82H120.014V152.137H121.345V142.82Z" fill="#081E7A"/>
<path d="M116.021 177.427H114.69V186.745H116.021V177.427Z" fill="#081E7A"/>
</svg>
