<?xml version="1.0" encoding="UTF-8"?>
<svg xmlns="http://www.w3.org/2000/svg" xmlns:xlink="http://www.w3.org/1999/xlink" width="280px" height="66px" viewBox="0 0 278 66" version="1.1">
<g id="surface1">
<path style=" stroke:none;fill-rule:nonzero;fill:rgb(30.980392%,68.235294%,87.058824%);fill-opacity:1;" d="M 22.660156 0.4375 C 25.097656 0.667969 28.988281 1.527344 33.113281 2.570312 L 33.113281 15.171875 C 30.417969 14.726562 28.144531 14.394531 27.023438 14.300781 C 22.792969 13.949219 13.515625 17.351562 13.867188 28.828125 C 14.222656 40.308594 23.964844 42.625 25.425781 42.625 C 25.941406 42.625 29.144531 42.230469 33.125 41.710938 L 33.125 54.5 C 30.890625 55.148438 28.695312 55.824219 26.660156 56.496094 C 16.804688 59.789062 0.953125 53.082031 0.0390625 29.109375 C -0.878906 5.140625 15.269531 -0.265625 22.660156 0.4375 Z M 22.660156 0.4375 "/>
<path style=" stroke:none;fill-rule:nonzero;fill:rgb(30.980392%,68.235294%,87.058824%);fill-opacity:1;" d="M 50.839844 7.601562 L 50.839844 18.296875 C 50.839844 18.296875 43.777344 16.988281 37.214844 15.863281 L 37.214844 3.652344 C 44.28125 5.558594 50.839844 7.601562 50.839844 7.601562 Z M 50.839844 7.601562 "/>
<path style=" stroke:none;fill-rule:nonzero;fill:rgb(30.980392%,68.235294%,87.058824%);fill-opacity:1;" d="M 37.214844 41.175781 C 43.875 40.289062 50.839844 39.335938 50.839844 39.335938 L 50.839844 49.914062 C 50.839844 49.914062 44.417969 51.382812 37.214844 53.355469 Z M 37.214844 41.175781 "/>
<path style=" stroke:none;fill-rule:nonzero;fill:rgb(30.980392%,68.235294%,87.058824%);fill-opacity:1;" d="M 56.851562 2.25 L 68.515625 0.132812 L 68.515625 40.46875 C 68.515625 40.46875 67.796875 45.898438 74.128906 45.765625 L 72.289062 55.34375 C 72.289062 55.34375 59.09375 57.59375 56.851562 44.398438 Z M 56.851562 2.25 "/>
<path style=" stroke:none;fill-rule:nonzero;fill:rgb(30.980392%,68.235294%,87.058824%);fill-opacity:1;" d="M 89.675781 17.429688 L 77.582031 17.429688 L 77.582031 53.757812 L 89.675781 53.757812 Z M 89.675781 17.429688 "/>
<path style=" stroke:none;fill-rule:nonzero;fill:rgb(30.980392%,68.235294%,87.058824%);fill-opacity:1;" d="M 111.203125 15.730469 C 91.75 14.742188 90.273438 39.621094 96.210938 48.558594 C 102.144531 57.492188 121.128906 56.292969 125.648438 53.21875 L 123.871094 43.738281 C 123.871094 43.738281 106.773438 48.253906 104.644531 39.855469 L 127.511719 39.855469 C 127.511719 39.855469 130.5625 16.722656 111.203125 15.730469 Z M 104.234375 31.351562 C 104.234375 31.351562 105.117188 25.746094 110.300781 25.746094 C 115.488281 25.746094 116.375 31.351562 116.375 31.351562 Z M 104.234375 31.351562 "/>
<path style=" stroke:none;fill-rule:nonzero;fill:rgb(30.980392%,68.235294%,87.058824%);fill-opacity:1;" d="M 132.871094 17.507812 L 132.871094 53.757812 L 144.183594 53.757812 L 144.183594 26.085938 C 144.183594 26.085938 152.832031 24.671875 152.832031 30.769531 L 152.832031 53.757812 L 163.96875 53.757812 L 163.96875 29.796875 C 163.96875 29.796875 163.453125 14.855469 148.421875 15.738281 C 133.386719 16.621094 132.871094 17.507812 132.871094 17.507812 Z M 132.871094 17.507812 "/>
<path style=" stroke:none;fill-rule:nonzero;fill:rgb(30.980392%,68.235294%,87.058824%);fill-opacity:1;" d="M 167.425781 9.085938 L 179.394531 7.050781 L 179.394531 17.675781 L 191.71875 17.675781 L 191.71875 27.417969 L 179.570312 27.417969 L 179.570312 40.699219 C 179.570312 40.699219 178.945312 48.667969 191.71875 44.238281 L 193.339844 53.625 C 193.339844 53.625 188.707031 55.972656 181.371094 55.398438 C 174.035156 54.820312 167.695312 51.777344 167.695312 38.398438 C 167.695312 25.015625 167.425781 9.085938 167.425781 9.085938 Z M 167.425781 9.085938 "/>
<path style=" stroke:none;fill-rule:nonzero;fill:rgb(30.980392%,68.235294%,87.058824%);fill-opacity:1;" d="M 214.121094 53.757812 L 225.480469 53.757812 L 225.480469 26.816406 L 237.800781 26.816406 L 237.800781 16.722656 L 225.128906 16.722656 C 225.128906 16.722656 224.78125 5.410156 237.105469 11.371094 L 239.988281 2.066406 C 239.988281 2.066406 226.964844 -2.671875 220.0625 2.683594 C 213.160156 8.035156 214.121094 17.691406 214.121094 17.691406 Z M 214.121094 53.757812 "/>
<path style=" stroke:none;fill-rule:nonzero;fill:rgb(30.980392%,68.235294%,87.058824%);fill-opacity:1;" d="M 239.988281 17.429688 L 252.527344 17.429688 L 259.421875 39.089844 L 266.316406 17.429688 L 278 17.429688 L 266.320312 50.484375 C 265.269531 53.585938 263.828125 56.550781 262.027344 59.308594 C 260.566406 61.488281 258.527344 63.242188 256.125 64.386719 C 253.722656 65.535156 251.046875 66.03125 248.378906 65.820312 C 245.382812 65.597656 241.773438 65.394531 239.992188 64.664062 L 242.050781 55.441406 C 242.050781 55.441406 250.828125 59.097656 254.140625 51.886719 Z M 239.988281 17.429688 "/>
<path style=" stroke:none;fill-rule:nonzero;fill:rgb(30.980392%,68.235294%,87.058824%);fill-opacity:1;" d="M 84.492188 13.972656 C 88.308594 13.972656 91.40625 10.875 91.40625 7.050781 C 91.40625 3.230469 88.308594 0.132812 84.492188 0.132812 C 80.675781 0.132812 77.582031 3.230469 77.582031 7.050781 C 77.582031 10.875 80.675781 13.972656 84.492188 13.972656 Z M 84.492188 13.972656 "/>
<path style=" stroke:none;fill-rule:nonzero;fill:rgb(30.980392%,68.235294%,87.058824%);fill-opacity:1;" d="M 207.164062 17.429688 L 196.796875 17.429688 L 196.796875 53.757812 L 207.164062 53.757812 Z M 207.164062 17.429688 "/>
<path style=" stroke:none;fill-rule:nonzero;fill:rgb(30.980392%,68.235294%,87.058824%);fill-opacity:1;" d="M 201.980469 13.972656 C 205.796875 13.972656 208.890625 10.875 208.890625 7.050781 C 208.890625 3.230469 205.796875 0.132812 201.980469 0.132812 C 198.164062 0.132812 195.070312 3.230469 195.070312 7.050781 C 195.070312 10.875 198.164062 13.972656 201.980469 13.972656 Z M 201.980469 13.972656 "/>
</g>
</svg>
