<svg width="220" height="32" viewBox="0 0 220 32" fill="none" xmlns="http://www.w3.org/2000/svg">
<path d="M6.84123 12.3568V12.4909L5.09453 14.2204L0 9.16795V8.83566L5.09453 3.7832L6.84123 5.51464V5.64678L3.34783 9.01833L6.84123 12.3568Z" fill="white"/>
<path d="M25.1193 14.0164C23.524 15.5923 21.4648 16.3249 19.2271 16.3249C13.4669 16.3249 11.0293 12.3529 11.006 8.31486C10.9827 4.27678 13.6202 0.129887 19.2271 0.129887C20.2858 0.128857 21.3341 0.338031 22.3115 0.745301C23.2889 1.15257 24.176 1.74986 24.9214 2.5026L22.9806 4.3895C21.9717 3.43019 20.628 2.90427 19.2368 2.92428C15.4911 2.92428 13.8745 5.72062 13.8958 8.31486C13.9172 10.9091 15.4038 13.5733 19.2368 13.5733C20.6895 13.5643 22.084 13.0006 23.1359 11.9973L25.1193 14.0164Z" fill="white"/>
<path d="M42.734 15.9734H39.2542L34.7341 10.783H31.9219V15.9734H28.9972V0.413818C31.4562 0.413818 33.9151 0.437136 36.3721 0.437136C40.0286 0.458512 41.9557 2.89923 41.9557 5.58287C41.9557 7.72045 40.9854 9.85802 38.0334 10.4643L42.734 15.7655V15.9734ZM31.9219 3.17324V8.14214H36.3741C38.2353 8.14214 39.0329 6.90039 39.0329 5.65671C39.0329 4.41303 38.2139 3.17324 36.3741 3.17324H31.9219Z" fill="white"/>
<path d="M57.1551 13.0449H49.0563L47.7268 15.9734H44.5498L51.5055 0.444824H54.6962L61.6538 15.9734H58.4632L57.1551 13.0449ZM53.1009 3.70561L50.2207 10.3243H55.981L53.1009 3.70561Z" fill="white"/>
<path d="M65.154 0.444824H77.0742V1.82065L69.0317 13.2003H77.0742V15.9734H64.9541V14.2866L72.8201 3.19453H65.154V0.444824Z" fill="white"/>
<path d="M87.5963 6.8556L91.7185 0.442871H95.2469V0.575011L89.0655 9.56061V15.9733H86.1349V9.56061L80.1748 0.575011V0.442871H83.6527L87.5963 6.8556Z" fill="white"/>
<path d="M105.456 15.9734V0.444824H108.358V15.9734H105.456Z" fill="white"/>
<path d="M126.835 4.72592L121.789 11.471H121.207L116.266 4.70455V15.9949H113.343V0.466309H116.71L121.562 7.14333L126.414 0.466309H129.76V15.9949H126.835V4.72592Z" fill="white"/>
<path d="M145.733 13.0449H137.625L136.295 15.9734H133.128L140.08 0.444824H143.27L150.228 15.9734H147.037L145.733 13.0449ZM141.679 3.70561L138.799 10.3127H144.559L141.679 3.70561Z" fill="white"/>
<path d="M164.587 4.23823C163.508 3.25169 162.104 2.69817 160.643 2.68363C157.321 2.68363 155.304 5.20986 155.304 8.4065C155.304 10.958 156.789 13.5969 160.643 13.5969C161.921 13.6307 163.166 13.1882 164.136 12.3552V9.60743H160.172V6.98793H166.817V13.5328C165.289 15.2817 163.362 16.3291 160.635 16.3291C154.813 16.3291 152.439 12.4912 152.439 8.40845C152.439 4.03808 155.157 0 160.635 0C162.793 0.000137775 164.863 0.853617 166.396 2.37466L164.587 4.23823Z" fill="white"/>
<path d="M171.455 15.9734V0.444824H174.366V15.9734H171.455Z" fill="white"/>
<path d="M189.513 0.413818H192.437V15.9598H190.621V15.9812L182.47 5.48765V15.9579H179.545V0.444905H181.917L189.515 10.0718L189.513 0.413818Z" fill="white"/>
<path d="M208.899 15.9734H197.289V0.444824H208.899V3.28393H200.191V6.85563H208.588V9.57619H200.191V13.074H208.899V15.9734Z" fill="white"/>
<path d="M216.653 9.00684L213.159 5.6353V5.50316L214.906 3.77173L220 8.82418V9.15842L214.906 14.2109L213.159 12.4814V12.3473L216.653 9.00684Z" fill="white"/>
<path d="M44.7208 29.9378L45.1516 29.4481C45.7222 30.1943 46.8983 30.7189 48.0492 30.7189C49.6018 30.7189 50.5722 30.101 50.5722 29.1099C50.5722 28.1888 49.9317 27.7807 47.9638 27.4076C45.7649 27.019 44.9265 26.3699 44.9265 25.0874C44.9265 23.8048 46.1725 22.9304 48.0007 22.9304C48.5367 22.9149 49.0705 23.007 49.5704 23.2012C50.0704 23.3955 50.5265 23.6879 50.9118 24.0614L50.5237 24.5511C50.1896 24.2269 49.7945 23.9724 49.3614 23.8022C48.9283 23.6321 48.4658 23.5498 48.0007 23.56C46.58 23.56 45.6252 24.178 45.6252 25.0991C45.6252 25.9852 46.2656 26.4166 48.0822 26.7664C50.4674 27.1978 51.2825 27.7924 51.2825 29.0866C51.2825 30.4858 50.0365 31.3719 48.0686 31.3719C46.7469 31.3719 45.4544 30.8122 44.7208 29.9378Z" fill="white"/>
<path d="M61.7217 27.1509C61.7217 24.6557 63.4102 22.9185 65.842 22.9185C68.2738 22.9185 69.9642 24.6557 69.9642 27.1509C69.9642 29.646 68.2641 31.3833 65.842 31.3833C63.4199 31.3833 61.7217 29.646 61.7217 27.1509ZM69.2655 27.1509C69.2655 25.0521 67.8565 23.583 65.842 23.583C63.8275 23.583 62.4088 25.0521 62.4088 27.1509C62.4088 29.2496 63.8294 30.7187 65.842 30.7187C67.8546 30.7187 69.2655 29.2496 69.2655 27.1509Z" fill="white"/>
<path d="M81.7261 23.7329V26.951H86.1899V27.6039H81.7261V31.23H81.041V23.0684H86.4538V23.7329H81.7261Z" fill="white"/>
<path d="M103.117 23.7329H100.194V31.23H99.5165V23.7329H96.5859V23.0684H103.117V23.7329Z" fill="white"/>
<path d="M124.858 23.0703L122.052 31.2319H121.237L120.049 27.5592L118.919 24.108L116.567 31.2319H115.775L112.98 23.0703H113.714L115.17 27.431L116.159 30.3575L118.547 23.0703H119.28L121.644 30.3808L124.124 23.0703H124.858Z" fill="white"/>
<path d="M140.508 29.2498H135.656L134.771 31.2319H134.025L137.682 23.0703H138.474L142.13 31.2319H141.373L140.508 29.2498ZM135.955 28.5969H140.224L138.089 23.7932L135.955 28.5969Z" fill="white"/>
<path d="M155.774 28.1772H153.562V31.2319H152.875V23.0703H156.462C158.092 23.0703 159.163 24.0963 159.163 25.6237C159.163 27.0812 158.193 28.0955 156.659 28.1772L159.454 31.2319H158.558L155.774 28.1772ZM153.562 23.7349V27.5126H156.473C157.707 27.5126 158.476 26.778 158.476 25.6237C158.476 24.4694 157.7 23.7349 156.473 23.7349H153.562Z" fill="white"/>
<path d="M176.187 30.5674V31.2319H170.376V23.0703H176.047V23.733H171.063V26.7877H175.826V27.4251H171.063V30.5615L176.187 30.5674Z" fill="white"/>
<path d="M42.2045 27.2656H0.992188V28.1168H42.2045V27.2656Z" fill="white"/>
<path d="M219.649 26.8401H178.437V27.6912H219.649V26.8401Z" fill="white"/>
</svg>
