<svg width="307" height="407" viewBox="0 0 307 407" fill="none" xmlns="http://www.w3.org/2000/svg">
<g clip-path="url(#clip0_662_5653)">
<g clip-path="url(#clip1_662_5653)">
<path opacity="0.08" fill-rule="evenodd" clip-rule="evenodd" d="M107.763 446.952C152.325 449.061 196.982 445.446 241.168 439.232C294.578 431.701 356.009 420.404 401.024 385.194C409.439 378.604 416.781 369.02 417.967 357.61C418.553 349.042 416.253 340.524 411.435 333.416C401.231 317.788 383.59 307.884 367.851 301.049C333.248 285.784 297.054 274.417 259.938 267.158C215.3 258.666 139.316 247.369 106.257 291.71C96.015 305.399 83.3259 313.269 69.9779 320.141C56.6299 327.014 42.2088 332.813 29.162 342.246C8.4528 357.309 -10.6185 382.765 6.87137 409.125C29.4444 443.186 73.4231 445.257 107.763 446.952Z" fill="black"/>
<path d="M410.418 324.566C400.327 309.126 382.856 299.354 367.287 292.557C333.033 277.485 297.213 266.257 260.484 259.08C250.449 257.197 238.833 255.145 226.464 253.639L222.417 253.356V8.24559H221.795C221.344 5.9485 219.216 3.76439 215.338 2.46521C211.788 1.2795 207.949 1.2795 204.4 2.46521C200.521 3.76439 198.394 5.9485 197.942 8.24559L197.773 40.0471L29.0306 139.161L67.3803 194.649L29.0306 295.325L196.135 197.228C196.135 197.228 196.135 226.168 196.135 251.511L194.008 251.36C160.816 251.097 127.569 258.044 108.573 283.369C98.444 296.869 85.8867 304.702 72.6705 311.424C59.4543 318.145 45.1838 323.945 32.1935 333.246C11.6349 348.064 -7.17278 373.238 10.1476 399.259C32.4759 432.811 76.0405 434.92 109.928 436.521C139.198 437.762 168.519 436.963 197.679 434.129C212.495 432.755 227.312 430.985 242.053 428.914C294.918 421.495 355.633 410.424 400.196 375.572C408.536 369.077 415.803 359.625 416.895 348.365C417.469 339.93 415.187 331.547 410.418 324.566Z" fill="#E3FFFF"/>
<path d="M192.463 315.378C170.907 316.3 155.205 325.037 155.168 336.748C155.152 339.222 155.802 341.654 157.05 343.79C150.556 345.561 144.174 347.723 137.941 350.267C133.729 351.713 129.849 353.988 126.528 356.956C123.208 359.924 120.514 363.527 118.607 367.552C114.107 377.135 118.908 385.853 133.197 392.387C143.598 397.289 154.929 399.909 166.426 400.069C191.992 400.069 212.269 394.947 220.006 392.085C230.719 388.113 239.379 384.723 242.447 378.19C246.947 368.606 238.927 361.489 224.656 354.937L223.131 354.202C232.676 350.098 238.776 343.828 238.814 336.805C238.852 329.782 232.432 323.474 222.416 319.633L192.463 315.378Z" fill="#67DAFF"/>
<path d="M223.432 299.882C227.264 301.287 231.254 302.216 235.312 302.649C237.891 304.834 243.106 306.17 249.752 306.17C259.165 306.17 266.959 304.739 269.934 302.631C273.699 299.957 275.055 295.099 267.58 292.331C262.045 290.223 262.987 287.85 258.167 286.099C252.609 283.924 246.702 282.775 240.734 282.71C234.637 282.814 228.606 284 222.924 286.212L223.432 299.882Z" fill="#67DAFF"/>
<path d="M104.506 343.093C97.5401 337.2 80.3515 334.978 67.0411 338.066C53.7308 341.154 33.8876 348.704 48.9488 362.43C61.7509 374.066 74.0634 368.323 80.9539 368.323C91.2332 368.323 95.5821 363.428 95.2809 360.415C106.84 357.064 111.076 348.629 104.506 343.093Z" fill="#27AAE1"/>
<path d="M330.386 337.746C323.251 339.384 315.701 338.838 308.773 338.48C299.83 338.01 292.507 336.598 288.516 333.152C281.418 327.164 288.516 319.972 304.763 316.206C311.851 314.524 319.135 313.821 326.414 314.116C333.631 314.236 340.627 316.628 346.407 320.951C353.448 326.957 346.69 333.98 330.386 337.746Z" fill="#27AAE1"/>
<path fill-rule="evenodd" clip-rule="evenodd" d="M198.016 34.6059V8.24585H222.491V325.677C222.491 328.539 219.516 331.326 213.567 332.7C210.763 333.303 207.862 333.303 205.058 332.7C199.108 331.401 196.134 328.539 196.134 325.677V204.063L198.016 34.6059Z" fill="#27AAE1"/>
<path d="M210.255 15.7772C217.013 15.7772 222.492 12.4053 222.492 8.24579C222.492 4.08629 217.013 0.714355 210.255 0.714355C203.496 0.714355 198.018 4.08629 198.018 8.24579C198.018 12.4053 203.496 15.7772 210.255 15.7772Z" fill="white"/>
<path fill-rule="evenodd" clip-rule="evenodd" d="M25.3789 294.855L207.431 189.735V33.5703L25.3789 138.69L64.3498 194.253L25.3789 294.855Z" fill="#E3FFFF"/>
<path d="M109.645 436.992C75.0039 435.353 31.8912 433.226 9.337 399.334C-11.9935 367.175 20.953 339.629 31.5523 332.097C41.0081 325.631 51.0266 320.029 61.4865 315.359C64.9317 313.683 68.5088 311.97 71.9729 310.2C84.3042 303.911 97.1439 296.191 107.442 282.428C123.765 260.605 152.758 249.704 193.385 250.024V251.907C153.285 251.586 124.913 262.243 108.967 283.539C98.443 297.622 85.3773 305.474 72.8389 311.876C69.356 313.645 65.7789 315.378 62.3148 317.053C51.9641 321.684 42.0472 327.229 32.6819 333.623C22.4026 340.947 -9.41423 367.533 10.8996 398.261C32.9266 431.456 75.5122 433.489 109.739 435.109L109.645 436.992Z" fill="#081E7A"/>
<path d="M241.469 429.366L241.224 427.483C293.938 420.083 353.957 409.238 398.52 374.349C404.055 369.999 413.581 360.792 414.824 347.782C415.395 339.556 413.18 331.378 408.536 324.566C400.421 312.101 386.885 302.066 365.95 292.972C331.865 277.929 296.215 266.72 259.655 259.551C250.769 257.856 238.946 255.785 225.768 254.128L225.994 252.245C239.172 253.865 251.748 256.124 259.881 257.706C296.575 264.904 332.357 276.151 366.571 291.239C387.864 300.503 401.664 310.765 409.985 323.549C414.885 330.729 417.208 339.357 416.574 348.026C415.238 361.715 405.279 371.355 399.631 375.893C354.748 411.027 294.447 421.929 241.469 429.366Z" fill="#081E7A"/>
<path d="M166.972 401.01H166.37C154.735 400.866 143.267 398.221 132.746 393.253C124.179 389.317 118.814 384.573 116.837 379.131C116.153 377.182 115.877 375.114 116.026 373.054C116.175 370.993 116.746 368.986 117.703 367.156C119.676 363.004 122.465 359.292 125.903 356.242C129.341 353.191 133.359 350.865 137.716 349.401L141.18 348.083C145.944 346.179 150.808 344.539 155.752 343.168C154.751 341.176 154.229 338.978 154.227 336.748C154.227 324.566 169.984 315.396 192.426 314.436V316.319C171.378 317.241 156.072 325.733 156.034 336.767C156.063 339.086 156.713 341.355 157.917 343.338C157.981 343.47 158.015 343.615 158.015 343.762C158.015 343.908 157.981 344.053 157.917 344.185C157.857 344.318 157.769 344.436 157.658 344.53C157.547 344.625 157.417 344.694 157.276 344.731C152.002 346.106 146.82 347.817 141.763 349.853L138.281 351.171C134.153 352.56 130.347 354.764 127.087 357.653C123.827 360.541 121.18 364.054 119.303 367.985C118.462 369.593 117.958 371.356 117.822 373.166C117.686 374.975 117.921 376.794 118.513 378.51C120.395 383.462 125.347 387.924 133.423 391.558C143.709 396.39 154.912 398.959 166.276 399.089H166.878C191.541 399.089 211.553 394.119 219.592 391.163C231.02 386.926 238.72 383.631 241.506 377.757C242.152 376.55 242.539 375.222 242.643 373.857C242.747 372.492 242.565 371.12 242.109 369.83C240.358 365.028 234.578 360.547 224.186 355.746L222.642 355.012C222.476 354.939 222.337 354.816 222.242 354.662C222.148 354.507 222.104 354.327 222.115 354.146C222.118 353.965 222.173 353.789 222.273 353.639C222.373 353.489 222.514 353.37 222.68 353.298C232.263 349.175 237.741 343.15 237.741 336.767C237.741 330.384 232.093 324.321 221.946 320.461L222.623 318.71C233.449 322.871 239.567 329.442 239.567 336.767C239.567 343.507 234.315 349.777 225.184 354.183C235.934 359.154 241.845 363.936 243.766 369.246C244.305 370.777 244.524 372.402 244.411 374.021C244.298 375.641 243.854 377.219 243.107 378.66C239.774 385.74 230.229 389.28 220.138 393.027C212.175 395.964 191.898 401.01 166.972 401.01Z" fill="#081E7A"/>
<path d="M249.808 307.112C243.182 307.112 237.797 305.813 234.935 303.572C230.899 303.099 226.931 302.158 223.112 300.767L223.771 298.997C227.531 300.376 231.444 301.293 235.425 301.727C235.605 301.748 235.775 301.819 235.914 301.934C238.362 304.005 243.445 305.229 249.752 305.229C258.676 305.229 266.545 303.892 269.388 301.878C270.18 301.438 270.842 300.798 271.308 300.021C271.774 299.244 272.027 298.359 272.043 297.453C271.817 295.796 270.16 294.327 267.242 293.216C265.171 292.492 263.314 291.263 261.839 289.639C260.803 288.392 259.45 287.449 257.923 286.909C252.473 284.773 246.681 283.644 240.828 283.576C234.841 283.687 228.92 284.854 223.338 287.022L222.698 285.252C228.481 283.016 234.611 281.812 240.809 281.693C246.893 281.757 252.915 282.925 258.582 285.139C260.371 285.762 261.971 286.831 263.232 288.246C264.506 289.687 266.135 290.771 267.957 291.39C272.513 293.122 273.737 295.476 273.944 297.133C273.983 298.378 273.685 299.611 273.082 300.701C272.479 301.791 271.593 302.698 270.518 303.327C267.336 305.737 259.184 307.112 249.808 307.112Z" fill="#081E7A"/>
<path d="M67.192 370.696C60.1726 370.747 53.4131 368.043 48.3655 363.165C43.7342 358.985 41.8892 354.937 42.887 351.171C44.9014 343.376 58.7954 339.064 66.872 337.181L67.305 339.064C54.2394 342.095 45.9934 346.69 44.7132 351.698C43.9225 354.729 45.5792 358.137 49.6457 361.809C59.3037 370.602 68.717 369.133 75.6075 368.06C77.3913 367.727 79.1973 367.525 81.0107 367.458C88.7108 367.458 92.0619 364.69 93.135 363.485C93.5308 363.112 93.8467 362.663 94.0635 362.165C94.2803 361.666 94.3936 361.129 94.3964 360.585C94.3783 360.366 94.4357 360.148 94.559 359.966C94.6823 359.785 94.8641 359.651 95.0741 359.587C101.362 357.704 105.768 354.24 106.596 350.38C106.824 349.16 106.698 347.901 106.235 346.75C105.771 345.6 104.988 344.605 103.979 343.884L105.203 342.453C106.466 343.395 107.439 344.673 108.011 346.141C108.584 347.609 108.732 349.208 108.441 350.757C107.481 355.219 102.962 359.098 96.279 361.188C96.0945 362.532 95.4803 363.78 94.5282 364.746C91.8925 367.665 86.9976 369.34 81.0107 369.34C79.2915 369.405 77.5797 369.601 75.8899 369.924C73.0154 370.409 70.1071 370.668 67.192 370.696Z" fill="#081E7A"/>
<path d="M319.052 339.855C316.059 339.855 313.065 339.704 310.128 339.554L308.716 339.46C298.475 338.932 291.66 337.125 287.894 333.924C284.75 331.25 284.562 328.652 284.976 326.939C286.143 322.137 293.279 317.882 304.537 315.265L304.97 317.148C294.728 319.52 287.781 323.474 286.821 327.447C286.663 328.429 286.796 329.436 287.204 330.343C287.613 331.25 288.278 332.017 289.118 332.549C292.563 335.468 299.002 337.125 308.81 337.652H310.241C316.891 338.321 323.602 338.055 330.179 336.861C340.458 334.47 347.122 330.723 348.101 326.788C348.246 325.798 348.1 324.788 347.683 323.879C347.265 322.97 346.593 322.202 345.748 321.667C341.305 317.901 334.057 315.415 326.357 315.02L326.47 313.137C334.565 313.551 342.228 316.206 346.972 320.217C350.172 322.928 350.342 325.526 349.928 327.24C348.798 331.928 341.738 336.108 330.593 338.688C326.803 339.516 322.931 339.908 319.052 339.855Z" fill="#081E7A"/>
<path d="M198.016 8.24585H196.134V34.6059H198.016V8.24585Z" fill="#081E7A"/>
<path d="M208.371 333.623C206.871 333.626 205.375 333.469 203.909 333.152C197.96 331.853 194.251 328.803 194.251 325.206V204.063H196.134V325.206C196.134 327.842 199.334 330.234 204.323 331.307C206.99 331.89 209.752 331.89 212.419 331.307C217.389 330.234 220.608 327.842 220.608 325.206V8.24585H222.491V325.206C222.491 328.803 218.725 331.853 212.814 333.152C211.354 333.469 209.865 333.626 208.371 333.623Z" fill="#081E7A"/>
<path d="M209.312 17.66C206.107 17.7249 202.945 16.9179 200.163 15.3253C199.015 14.7458 198.04 13.876 197.333 12.8025C196.626 11.7289 196.213 10.4889 196.134 9.20596C196.213 7.92298 196.626 6.68304 197.333 5.60947C198.04 4.5359 199.015 3.66613 200.163 3.08667C202.97 1.55737 206.116 0.756104 209.312 0.756104C212.509 0.756104 215.655 1.55737 218.462 3.08667C219.609 3.66613 220.585 4.5359 221.292 5.60947C221.999 6.68304 222.412 7.92298 222.491 9.20596C222.401 10.4934 221.975 11.7346 221.255 12.8053C220.535 13.876 219.545 14.7385 218.387 15.3064C215.628 16.8925 212.494 17.7056 209.312 17.66ZM209.312 2.59713C206.45 2.54312 203.627 3.26534 201.142 4.6871C200.279 5.11204 199.54 5.75011 198.993 6.54089C198.446 7.33168 198.11 8.24899 198.016 9.20596C198.11 10.1629 198.446 11.0802 198.993 11.871C199.54 12.6618 200.279 13.2999 201.142 13.7248C203.646 15.0877 206.452 15.8017 209.303 15.8017C212.154 15.8017 214.96 15.0877 217.464 13.7248C218.33 13.3023 219.074 12.6653 219.624 11.8744C220.174 11.0834 220.513 10.1648 220.608 9.20596C220.513 8.24708 220.174 7.32849 219.624 6.53754C219.074 5.74659 218.33 5.10958 217.464 4.6871C214.987 3.26335 212.169 2.54087 209.312 2.59713Z" fill="#081E7A"/>
<path d="M26.3566 295.796C26.2032 295.797 26.0518 295.76 25.9157 295.69C25.7796 295.619 25.6628 295.516 25.5756 295.39C25.4884 295.263 25.4333 295.118 25.4152 294.965C25.3971 294.813 25.4165 294.659 25.4717 294.515L64.2732 194.385L25.5471 139.217C25.472 139.112 25.4198 138.993 25.3938 138.866C25.3679 138.74 25.3688 138.609 25.3964 138.483C25.4215 138.353 25.475 138.229 25.5531 138.122C25.6312 138.015 25.7319 137.926 25.8483 137.862L207.901 32.7228C208.044 32.6402 208.206 32.5967 208.371 32.5967C208.537 32.5967 208.699 32.6402 208.842 32.7228C208.985 32.8094 209.103 32.9309 209.185 33.0759C209.267 33.2209 209.311 33.3845 209.313 33.5513V149.46H207.43V35.1894L27.6745 138.991L66.0617 193.707C66.1523 193.834 66.21 193.981 66.2297 194.135C66.2494 194.29 66.2305 194.447 66.1747 194.592L28.2392 292.708L207.524 189.151V166.406H209.407V189.734C209.406 189.899 209.362 190.06 209.279 190.202C209.197 190.344 209.079 190.462 208.936 190.544L26.8837 295.664C26.7262 295.762 26.5418 295.808 26.3566 295.796Z" fill="#081E7A"/>
<path d="M206.862 32.7826L24.79 137.871L25.7311 139.502L207.803 34.4134L206.862 32.7826Z" fill="#081E7A"/>
<path d="M134.593 106.888L133.831 116.465C120.878 114.722 108.534 124.748 106.12 137.911C104.828 144.97 105.941 151.616 109.749 157.714C113.556 163.812 119.063 167.669 126.155 169.236C126.077 169.382 120.217 174.649 117.768 176.851L116.698 176.312C105.774 170.865 99.034 162.077 96.9965 150.135C94.4494 135.201 99.1784 122.706 111.239 113.354C117.721 108.321 125.26 106.265 133.461 106.72C133.718 106.74 133.975 106.761 134.232 106.781C134.355 106.807 134.476 106.843 134.593 106.888Z" fill="#67DAFF"/>
<path d="M158.673 141.018L162.189 137.259C162.918 144.74 161.78 151.646 158.509 158.165C155.238 164.683 150.309 169.701 143.738 173.337L149.325 173.781C145.069 176.632 140.213 178.461 135.136 179.125C130.048 179.811 124.871 179.293 120.02 177.611C120.271 177.443 131.892 169.648 131.892 169.648L132.858 169.606C143.688 168.659 153.053 160.649 155.717 149.123C158.08 137.495 153.239 129.55 153.237 129.347C153.433 129.389 158.139 134.449 158.584 140.465C158.598 140.587 158.628 140.711 158.673 141.018Z" fill="#27AAE1"/>
<path d="M167.399 132.919C167.721 135.261 168.147 137.445 168.288 139.642C168.863 148.082 167.106 155.993 162.68 163.251C160.444 166.927 157.593 170.191 154.252 172.899C153.922 173.184 153.505 173.349 153.069 173.366C150.815 173.239 148.568 173.034 146.106 172.838C146.435 172.584 146.613 172.432 146.794 172.311C155.209 166.993 160.475 159.438 162.66 149.754C163.697 145.109 163.867 140.312 163.159 135.606L163.052 134.828C164.216 134.362 166.056 133.52 167.399 132.919Z" fill="#67DAFF"/>
<path d="M161.368 132.436C164.259 132.666 166.789 130.506 167.02 127.611C167.25 124.716 165.093 122.183 162.202 121.953C159.311 121.723 156.78 123.884 156.55 126.778C156.32 129.673 158.477 132.206 161.368 132.436Z" fill="#27AAE1"/>
<path d="M152.537 120.56C154.701 120.732 156.596 119.115 156.768 116.948C156.941 114.78 155.326 112.884 153.161 112.712C150.997 112.539 149.102 114.157 148.93 116.324C148.758 118.491 150.372 120.388 152.537 120.56Z" fill="#27AAE1"/>
<path d="M142.097 114.369C143.533 114.483 144.79 113.409 144.905 111.971C145.019 110.533 143.948 109.274 142.511 109.16C141.075 109.046 139.817 110.119 139.703 111.557C139.589 112.996 140.66 114.254 142.097 114.369Z" fill="#27AAE1"/>
<path d="M143.223 182.764C143.003 185.324 142.408 192.467 142.255 193.586C141.832 196.702 139.66 199.364 135.681 198.965C134.841 198.879 134.444 199.09 134.132 199.911C133.582 201.422 132.544 202.707 131.181 203.56C129.819 204.414 128.211 204.787 126.613 204.62C123.389 204.312 120.806 201.932 120.19 198.616C120.07 197.967 119.859 197.701 119.194 197.682C115.996 197.584 112.762 194.834 113.278 190.558L114.097 180.254L143.223 182.764ZM115.605 187.4L115.371 190.342C122.869 190.95 131.547 191.717 139.042 192.365L140.221 192.459L140.472 189.538L115.605 187.4ZM140.942 184.614L116.109 182.47L115.867 185.273L140.7 187.417L140.942 184.614ZM135.9 197.086C136.792 197.141 137.678 196.913 138.433 196.434C139.188 195.954 139.773 195.249 140.103 194.417C140.103 194.417 115.823 192.383 115.352 192.341C115.429 192.649 115.527 192.951 115.646 193.246C116.312 194.561 117.348 195.415 118.841 195.555C123.752 196.017 134.809 196.956 135.9 197.086Z" fill="#27AAE1"/>
<path d="M129.959 165.148C142.125 166.116 152.774 157.025 153.743 144.843C154.712 132.661 145.635 122.001 133.468 121.034C121.302 120.066 110.654 129.157 109.685 141.338C108.716 153.52 117.793 164.18 129.959 165.148Z" fill="#27AAE1"/>
<path d="M118.931 142.511L124.452 144.97L124.23 147.763L115.936 143.437L116.124 141.076L124.995 138.116L124.772 140.916L118.931 142.511Z" fill="white"/>
<path d="M129.35 150.803L127.207 150.632L133.805 135.276L135.949 135.447L129.35 150.803Z" fill="white"/>
<path d="M144.576 144.511L138.946 142.025L139.166 139.26L147.559 143.594L147.372 145.938L138.399 148.9L138.621 146.116L144.576 144.511Z" fill="white"/>
</g>
</g>
<defs>
<clipPath id="clip0_662_5653">
<rect y="0.714355" width="307" height="406.286" rx="14" fill="white"/>
</clipPath>
<clipPath id="clip1_662_5653">
<rect width="418.043" height="446.784" fill="white" transform="translate(0 0.714355)"/>
</clipPath>
</defs>
</svg>
