<svg width="314" height="357" viewBox="0 0 314 357" fill="none" xmlns="http://www.w3.org/2000/svg">
<rect y="65.3677" width="314" height="290.912" rx="14" fill="#797EF6"/>
<g clip-path="url(#clip0_662_2765)">
<path opacity="0.08" fill-rule="evenodd" clip-rule="evenodd" d="M129.296 304.806C145.697 314.383 172.48 314.383 188.881 304.806C205.282 295.23 205.32 279.816 188.881 270.24C172.441 260.663 145.748 260.702 129.296 270.24C112.844 279.777 112.857 295.269 129.296 304.806Z" fill="black"/>
<path d="M249.639 94.8194C249.639 42.8796 206.277 0.157562 154.281 1.361C104.887 2.56444 64.0753 44.9024 63.4376 94.5122C63.1826 116.276 71.179 136.978 83.4351 152.892C98.9051 172.992 109.031 193.373 114.209 217.212H112.653C108.687 221.577 106.991 226.468 107.552 231.294H107.093C107.093 231.294 107.348 231.896 107.093 239.078C107.032 241.455 107.466 243.819 108.368 246.017C107.684 247.861 107.321 249.81 107.297 251.778H106.965C107.155 255.057 107.155 258.345 106.965 261.624C106.71 269.228 111.582 276.884 121.594 282.684C125.189 284.735 128.995 286.392 132.944 287.625H123.507C123.507 287.625 127.945 293.015 131.835 295.307C145.443 303.193 167.544 303.193 181.101 295.307C183.916 293.454 186.528 291.308 188.894 288.906L177.875 288.778C182.531 287.516 187.013 285.675 191.215 283.298C200.908 277.678 205.741 270.329 205.741 262.968V254.825C206.066 252.069 205.721 249.275 204.734 246.683H204.109C204.85 244.75 205.234 242.698 205.244 240.627C205.244 236.031 205.244 233.663 205.244 232.549C205.971 227.018 203.879 221.385 199.02 216.431C204.53 192.784 215.077 172.3 230.279 152.098C242.635 135.557 249.417 115.493 249.639 94.8194Z" fill="#E3FFFF"/>
<path d="M155.9 162.161C190.062 162.161 217.755 134.361 217.755 100.068C217.755 65.7757 190.062 37.9761 155.9 37.9761C121.739 37.9761 94.0459 65.7757 94.0459 100.068C94.0459 134.361 121.739 162.161 155.9 162.161Z" fill="white"/>
<path d="M123.558 287.408C125.636 290.639 128.503 293.284 131.886 295.089C145.494 302.976 167.596 302.976 181.153 295.089C184.233 293.41 186.896 291.056 188.945 288.201L193.536 281.173L120.931 280.904L123.558 287.408Z" fill="#67DAFF"/>
<path d="M156.525 239.309C176.31 239.309 192.349 230.012 192.349 218.543C192.349 207.074 176.31 197.777 156.525 197.777C136.739 197.777 120.7 207.074 120.7 218.543C120.7 230.012 136.739 239.309 156.525 239.309Z" fill="#67DAFF"/>
<path d="M191.062 250.754C171.817 261.892 140.596 261.892 121.39 250.754C112.653 245.633 107.884 239.232 107.08 232.574H106.825C106.825 232.574 107.08 233.163 106.825 240.256C106.557 247.758 111.365 255.299 121.237 261.022C140.482 272.173 171.677 272.173 190.909 261.022C200.525 255.453 205.346 248.142 205.346 240.832C205.346 236.07 205.346 233.688 205.346 232.6C204.53 239.232 199.773 245.71 191.062 250.754Z" fill="#27AAE1"/>
<path d="M204.555 246.657H204.363C202.425 251.778 197.987 256.72 191.087 260.74C171.842 271.891 140.647 271.891 121.415 260.74C114.566 256.771 110.166 251.932 108.189 246.836C104.861 255.965 109.312 265.861 121.542 272.941C140.787 284.092 171.982 284.092 191.215 272.941C203.573 265.81 207.998 255.837 204.555 246.657Z" fill="#67DAFF"/>
<path d="M191.33 273.415C172.085 284.566 140.889 284.566 121.657 273.415C111.939 267.781 107.156 260.382 107.259 253.007H107.093C107.273 256.24 107.273 259.479 107.093 262.712C106.825 270.214 111.633 277.767 121.504 283.49C140.749 294.641 171.944 294.641 191.177 283.49C200.793 277.908 205.614 270.611 205.614 263.301C205.614 259.69 205.614 257.002 205.614 255.209C204.823 261.892 200.078 268.396 191.33 273.415Z" fill="#27AAE1"/>
<path d="M196.993 227.94L195.794 231.307C194.021 235.148 190.501 238.886 185.234 241.933C169.317 251.164 143.517 251.164 127.601 241.933C122.334 238.886 118.826 235.199 117.041 231.307L115.676 227.594C115.141 224.061 114.503 220.591 113.763 217.211H112.794C103.025 227.978 105.958 241.613 121.581 250.677C140.826 261.828 172.021 261.828 191.253 250.677C207.285 241.408 209.95 227.325 199.263 216.392C198.383 220.169 197.617 224.01 196.993 227.94Z" fill="#67DAFF"/>
<path d="M179.342 92.1435C179.336 92.1183 179.336 92.092 179.342 92.0667C179.348 91.9644 179.348 91.8618 179.342 91.7595C179.354 91.6746 179.354 91.5883 179.342 91.5034C179.328 91.4163 179.307 91.3307 179.278 91.2474C179.257 91.145 179.223 91.046 179.176 90.9529C179.176 90.9529 179.087 90.8633 179.048 90.8121C178.987 90.7294 178.919 90.6523 178.844 90.5816C178.769 90.5252 178.688 90.478 178.602 90.4408C178.545 90.3979 178.486 90.3594 178.423 90.3256H178.347H178.054C177.964 90.3192 177.875 90.3192 177.786 90.3256H177.518C177.425 90.3483 177.335 90.3828 177.25 90.428H177.174C175.794 91.3046 174.146 91.6545 172.531 91.4138C170.328 91.1635 168.103 91.6568 166.21 92.8158C164.316 93.9749 162.861 95.7338 162.073 97.8151C161.541 99.362 160.473 100.666 159.064 101.489C157.691 102.373 156.045 102.723 154.434 102.475C152.231 102.227 150.008 102.721 148.114 103.88C146.221 105.039 144.766 106.796 143.976 108.876C143.428 110.417 142.368 111.72 140.974 112.567C139.58 113.414 137.938 113.752 136.324 113.524C134.1 113.222 131.84 113.721 129.947 114.932C129.743 115.056 129.574 115.231 129.455 115.439C129.337 115.648 129.274 115.883 129.271 116.123C129.265 116.178 129.265 116.234 129.271 116.289C129.271 116.289 129.271 116.379 129.271 116.43C129.275 116.726 129.373 117.013 129.552 117.249L149.958 143.674V159.318L142.51 176.115V208.506C142.203 208.672 141.897 208.813 141.604 208.979C137.344 211.45 134.998 214.83 134.998 218.479C134.998 222.128 137.344 225.507 141.604 227.978C146.196 230.434 151.337 231.668 156.538 231.563C161.74 231.668 166.881 230.434 171.473 227.978C175.732 225.507 178.079 222.14 178.079 218.479C178.079 214.817 175.732 211.45 171.473 208.979C171.179 208.813 170.873 208.672 170.567 208.506V161.38L162.915 153.34V137.708L179.342 92.1435ZM135.725 116.34C137.981 116.602 140.26 116.101 142.2 114.916C144.141 113.731 145.632 111.93 146.438 109.798C147.006 108.235 148.087 106.912 149.503 106.046C150.919 105.181 152.586 104.825 154.23 105.036C156.485 105.299 158.763 104.799 160.703 103.617C162.643 102.434 164.135 100.636 164.943 98.5064C165.512 96.9372 166.596 95.6093 168.017 94.7413C169.438 93.8732 171.111 93.517 172.761 93.7311C173.82 93.8361 174.888 93.7974 175.936 93.6158L160.339 136.824L156.513 138.706V129.156C157.074 128.336 156.411 127.658 155.582 127.658C155.185 127.682 154.809 127.841 154.514 128.108C154.22 128.376 154.025 128.736 153.962 129.13V140.371L151.845 141.728L132.422 116.635C133.487 116.292 134.616 116.191 135.725 116.34ZM137.191 218.543C137.191 216.136 139.551 213.422 142.51 211.502V225.584C139.551 223.715 137.191 220.924 137.191 218.543ZM175.949 218.543C175.949 221.103 174.125 223.561 170.848 225.482C164.114 229.323 153.554 229.719 146.144 226.519C146.283 226.301 146.358 226.048 146.361 225.789V210.426C149.883 209.024 153.642 208.319 157.431 208.352C161.539 208.302 165.609 209.135 169.368 210.797C169.891 211.041 170.376 211.297 170.835 211.566C174.125 213.524 175.949 215.982 175.949 218.543ZM168.017 162.545V207.353C160.984 204.972 153.368 204.972 146.336 207.353V176.525L152.712 160.138V143.93L160.364 139.5V154.492L168.017 162.545Z" fill="#081E7A"/>
<path d="M156.525 301.81C147.483 301.81 138.453 299.813 131.566 295.832C128.084 293.953 125.138 291.212 123.009 287.868L124.106 287.216C126.123 290.369 128.911 292.952 132.204 294.718C145.608 302.489 167.429 302.489 180.833 294.718C183.856 293.097 186.473 290.807 188.485 288.022L189.544 288.752C187.435 291.683 184.698 294.102 181.535 295.832C174.597 299.813 165.555 301.81 156.525 301.81Z" fill="#081E7A"/>
<path d="M156.385 291.773C143.631 291.773 130.878 288.97 121.236 283.349C111.594 277.729 106.161 270.099 106.493 261.995C106.664 258.788 106.664 255.574 106.493 252.367L107.768 252.239C107.961 255.505 107.961 258.78 107.768 262.046C107.5 269.638 112.513 276.807 121.874 282.236C140.902 293.271 171.867 293.271 190.908 282.236C200.002 276.961 205.014 269.996 205.014 262.609C205.014 255.222 205.014 251.778 205.014 251.778H206.289C206.289 251.778 206.289 255.312 206.289 262.622C206.289 270.483 201.047 277.844 191.546 283.362C181.853 288.97 169.113 291.773 156.385 291.773Z" fill="#081E7A"/>
<path d="M156.525 281.698C143.772 281.698 131.018 278.894 121.364 273.274C109.159 266.194 104.083 256.08 107.794 246.196L108.98 246.657C105.511 255.888 110.383 265.426 122.002 272.16C141.043 283.196 172.008 283.196 191.036 272.16C202.668 265.426 207.527 255.888 204.058 246.657L205.244 246.196C208.955 256.08 203.892 266.194 191.674 273.274C181.981 278.894 169.253 281.698 156.525 281.698Z" fill="#081E7A"/>
<path d="M156.385 269.497C143.631 269.497 130.878 266.68 121.236 261.06C111.594 255.44 106.161 247.809 106.493 239.718C106.691 237.221 106.691 234.713 106.493 232.216L107.692 231.781C107.899 234.44 107.899 237.111 107.692 239.769C107.424 247.361 112.436 254.531 121.797 259.959C140.825 270.982 171.791 270.982 190.832 259.959C199.925 254.684 204.937 247.707 204.937 240.32C204.937 232.933 204.937 231.294 204.937 231.294H206.213C206.213 231.294 206.213 233.023 206.213 240.333C206.213 248.206 200.971 255.568 191.47 261.073C181.853 266.68 169.113 269.497 156.385 269.497Z" fill="#081E7A"/>
<path d="M156.525 259.204C143.772 259.204 131.018 256.387 121.364 250.767C113.049 245.953 107.883 239.526 106.825 232.69C105.945 226.993 107.871 221.334 112.424 216.315L113.367 217.186C109.095 221.897 107.259 227.197 108.088 232.549C109.082 238.95 114.031 245.095 122.002 249.717C141.043 260.74 172.008 260.74 191.036 249.717C199.224 244.967 204.198 238.707 205.065 232.075C205.767 226.429 203.509 220.873 198.535 216.008L199.415 215.086C204.695 220.207 207.067 226.173 206.328 232.229C205.448 239.27 200.257 245.863 191.712 250.818C181.981 256.387 169.253 259.204 156.525 259.204Z" fill="#081E7A"/>
<path d="M156.525 249C145.965 249 135.418 246.67 127.384 242.023C122.193 239.014 118.456 235.237 116.569 231.102L115.178 227.325C110.944 199.698 100.512 175.885 82.3254 152.264C70.3069 136.663 63.4939 117.656 62.8551 97.9448C62.2163 78.2335 67.7843 58.8218 78.7672 42.4698L79.8257 43.1739C68.9911 59.3046 63.4981 78.4535 64.1277 97.8981C64.7574 117.343 71.4776 136.093 83.3329 151.483C101.66 175.283 112.169 199.288 116.416 227.018L117.691 230.603C119.451 234.444 123.009 238.028 127.97 240.845C143.683 249.96 169.253 249.96 184.966 240.845C189.927 237.977 193.485 234.444 195.27 230.5L196.444 227.197C200.729 199.992 211.506 175.616 230.33 150.6C243.861 132.579 250.386 110.225 248.684 87.723C246.982 65.2209 237.17 44.1126 221.083 28.3486C205.815 13.3387 185.824 4.12155 164.532 2.27427C143.241 0.426978 121.972 6.06434 104.363 18.2218L103.637 17.1592C117.711 7.4631 134.158 1.81303 151.199 0.819725C168.24 -0.173579 185.228 3.52767 200.325 11.5234C215.423 19.5191 228.057 31.5051 236.86 46.1859C245.664 60.8667 250.303 77.6838 250.276 94.8193C250.335 115.261 243.704 135.156 231.401 151.445C212.704 176.282 202.068 200.466 197.732 227.569L196.456 231.051C194.556 235.237 190.807 239.014 185.616 242.023C177.581 246.67 167.072 249 156.525 249Z" fill="#081E7A"/>
<path d="M156.525 239.923C147.228 239.923 137.943 237.875 130.878 233.778C123.812 229.681 120.063 224.33 120.063 218.543C120.063 212.756 123.889 207.353 130.878 203.308C145.008 195.114 168.028 195.114 182.172 203.308C189.136 207.353 192.974 212.756 192.974 218.543C192.974 224.33 189.148 229.732 182.172 233.778C175.196 237.823 165.809 239.923 156.525 239.923ZM156.525 198.417C147.457 198.417 138.402 200.414 131.515 204.422C124.947 208.262 121.312 213.23 121.312 218.504C121.312 223.779 124.922 228.823 131.515 232.587C145.302 240.589 167.748 240.576 181.534 232.587C188.09 228.746 191.737 223.766 191.737 218.504C191.737 213.243 188.128 208.186 181.534 204.422C174.635 200.44 165.58 198.417 156.525 198.417Z" fill="#081E7A"/>
</g>
<defs>
<clipPath id="clip0_662_2765">
<rect width="187.476" height="311.229" fill="white" transform="translate(62.7998 0.720703)"/>
</clipPath>
</defs>
</svg>
