<svg width="1280" height="667" viewBox="0 0 1280 667" fill="none" xmlns="http://www.w3.org/2000/svg">
<g clip-path="url(#clip0_3_34)">
<path d="M1280 0H0V667H1280V0Z" fill="#F9F9F9"/>
<path opacity="0.08" fill-rule="evenodd" clip-rule="evenodd" d="M1165.04 370.782L1175.45 365.136C1182.8 361.114 1194.8 361.114 1202.24 365.136L1360.62 451.892C1368.06 455.928 1368.06 462.477 1360.62 466.527L1330.57 470.606C1324.5 471.436 1318.3 470.286 1313 467.345L1165.04 385.488C1157.65 381.38 1157.65 374.832 1165.04 370.782Z" fill="#EEEEEE"/>
<path opacity="0.08" fill-rule="evenodd" clip-rule="evenodd" d="M1186.09 472.2C1200.97 480.344 1210.63 490.83 1207.71 495.615C1204.8 500.399 1190.38 497.704 1175.51 489.575C1160.65 481.445 1150.97 470.945 1153.89 466.146C1156.81 461.347 1171.21 464.057 1186.09 472.2Z" fill="#EEEEEE"/>
<path d="M1150.05 305.041C1152.23 305.384 1154.39 305.855 1156.51 306.453V196.142C1156.88 185.19 1172.62 172.883 1173.87 171.444C1176.67 168.198 1181.63 167.718 1187.18 170.823L1340.14 254.529C1348.85 259.3 1355.92 270.859 1355.92 280.357V447.178C1355.92 451.806 1354.25 455.081 1351.45 456.704C1348.66 458.328 1330.04 460.36 1326.44 460.741C1323.83 461.658 1320.49 461.235 1316.87 459.244L1205.75 398.345C1201.69 412.458 1198.04 425.062 1197.73 425.626C1196.58 427.488 1194.9 429.007 1192.89 430.016C1185.77 433.911 1174.47 434.151 1166.85 430.721V442.012C1166.85 442.012 1173.1 460.924 1187.07 468.954C1201.96 477.55 1220.89 476.66 1241.66 466.386C1261.56 456.507 1279.04 454.446 1293.61 460.148C1313.13 467.769 1319.65 486.554 1319.92 487.344C1320.19 488.026 1320.3 488.751 1320.27 489.477C1320.23 490.203 1320.04 490.914 1319.7 491.567C1319.37 492.221 1318.9 492.803 1318.32 493.279C1317.74 493.754 1317.06 494.114 1316.33 494.335C1315.6 494.557 1314.83 494.636 1314.07 494.567C1313.31 494.499 1312.57 494.285 1311.89 493.937C1311.22 493.589 1310.63 493.117 1310.15 492.546C1309.68 491.975 1309.33 491.32 1309.13 490.618C1309.13 490.463 1304 475.828 1289.29 470.084C1277.95 465.652 1263.7 467.613 1246.9 475.927C1215.97 491.212 1194.1 485.566 1181.2 478.142C1165.26 468.983 1156.43 442.012 1156.43 442.012V424.949L1149.98 421.492L1150.05 305.041Z" fill="#FDFDFD"/>
<path d="M1332.11 450.988V292.283C1332.11 283.25 1325.38 272.241 1317.09 267.712L1171.51 187.999C1167.68 185.896 1162.89 185.402 1160.23 186.517C1163.4 182.579 1172.62 172.883 1173.88 171.444C1176.67 168.198 1181.63 167.718 1187.18 170.823L1340.14 254.529C1348.85 259.3 1355.92 270.859 1355.92 280.357V447.107C1355.92 451.722 1354.25 454.982 1351.56 456.591C1348.86 458.2 1330.22 460.233 1326.63 460.628C1329.98 459.456 1332.11 456.069 1332.11 450.988Z" fill="#FDFDFD"/>
<path d="M1249.06 259.977C1281.33 277.619 1307.39 320.425 1307.39 355.497C1307.39 390.569 1281.33 404.781 1249.06 387.139C1238.84 381.341 1229.74 373.939 1222.14 365.249L1190.74 337.587V291.62C1190.74 256.505 1216.84 242.335 1249.06 259.977Z" fill="#FDFDFD"/>
<path d="M1264.63 338.988C1261.39 333.831 1261.33 328.205 1264.48 326.423C1267.64 324.641 1272.82 327.376 1276.06 332.533C1279.3 337.69 1279.37 343.315 1276.21 345.098C1273.05 346.881 1267.87 344.145 1264.63 338.988Z" fill="#FDFDFD"/>
<path d="M1221.48 315.003C1218.24 309.846 1218.17 304.22 1221.33 302.438C1224.49 300.655 1229.67 303.391 1232.91 308.548C1236.14 313.705 1236.21 319.33 1233.05 321.113C1229.9 322.896 1224.71 320.16 1221.48 315.003Z" fill="#FDFDFD"/>
<path d="M1155.02 424.68V441.984C1155.02 452.541 1164.59 468.954 1180.53 478.114C1193.43 485.538 1215.3 491.184 1246.23 475.898C1263.03 467.585 1277.28 465.624 1288.62 470.027C1303.33 475.772 1308.4 490.407 1308.46 490.562C1308.82 491.649 1309.54 492.597 1310.51 493.27C1311.48 493.942 1312.65 494.304 1313.85 494.302C1314.75 494.305 1315.63 494.105 1316.43 493.719C1317.23 493.333 1317.92 492.773 1318.45 492.084C1318.98 491.395 1319.33 490.598 1319.47 489.756C1319.6 488.915 1319.53 488.054 1319.25 487.245C1318.98 486.456 1312.46 467.671 1292.94 460.049C1278.37 454.404 1260.89 456.464 1240.99 466.287C1220.16 476.562 1201.35 477.451 1186.4 468.856C1172.43 460.825 1166.39 447.121 1166.92 441.914V430.256L1155.02 424.68Z" fill="#FDFDFD"/>
<path d="M1117.31 347.099C1117.31 347.099 1131.6 408.21 1132 409.1C1133.09 411.232 1134.88 412.97 1137.1 414.054L1166.26 430.016C1173.8 434.151 1186.05 434.151 1193.61 430.016C1195.61 429.003 1197.27 427.49 1198.43 425.641C1198.99 424.624 1213.58 373.534 1213.58 373.534L1117.31 347.099Z" fill="#FDFDFD"/>
<path d="M1109.05 321.653L1219.17 343.232L1222 348.468V361.594C1222 368.001 1215.65 374.423 1202.97 377.768C1196.57 379.4 1189.89 379.808 1183.33 378.967C1176.76 378.125 1170.44 376.054 1164.72 372.87L1118.31 347.466C1111.86 343.938 1108.71 339.28 1108.86 334.652C1108.99 330.304 1109.05 321.653 1109.05 321.653Z" fill="#FDFDFD"/>
<path d="M1118.84 309.684C1122.95 307.46 1127.44 305.941 1132.1 305.196L1146.84 304.632C1152.93 305.086 1158.85 306.766 1164.2 309.558L1212.37 336.218C1224.03 342.667 1224.52 353.945 1213.07 360.718C1200.69 368.058 1179.89 368.199 1167.16 361.156L1119.01 334.538C1106.8 327.75 1106.7 316.543 1118.84 309.684Z" fill="#FDFDFD"/>
<path d="M1183.29 348.243V300.736C1183.26 299.066 1183.83 297.435 1184.91 296.119C1186 294.802 1187.53 293.881 1189.25 293.51C1190.33 293.3 1191.45 293.323 1192.53 293.576C1193.61 293.831 1194.61 294.309 1195.46 294.977C1196.32 295.645 1197.01 296.486 1197.48 297.439C1197.95 298.391 1198.18 299.432 1198.18 300.483V348.468C1197.98 349.88 1196.51 351.291 1193.52 352.068C1191.69 352.505 1189.77 352.505 1187.94 352.068C1184.96 351.347 1183.47 349.922 1183.32 348.468C1183.29 348.468 1183.29 348.243 1183.29 348.243Z" fill="#FDFDFD"/>
<path d="M1132.7 273.667C1132.69 272.616 1132.93 271.576 1133.4 270.624C1133.87 269.671 1134.55 268.829 1135.41 268.161C1136.27 267.493 1137.27 267.014 1138.34 266.761C1139.42 266.507 1140.54 266.485 1141.63 266.695C1143.34 267.068 1144.87 267.989 1145.96 269.306C1147.04 270.622 1147.61 272.252 1147.58 273.921V321.653C1147.58 323.191 1146.09 324.758 1143.03 325.534C1141.12 326.014 1139.12 326.014 1137.22 325.534C1134.13 324.758 1132.64 323.191 1132.76 321.653C1132.7 321.653 1132.7 273.667 1132.7 273.667Z" fill="#FDFDFD"/>
<path d="M1324 461.743C1326.48 461.46 1348.27 458.92 1351.2 457.198C1354.13 455.476 1355.92 451.807 1355.92 447.107V280.357C1355.92 270.662 1348.67 258.792 1339.77 253.922L1186.81 170.159C1181.05 167.012 1175.72 167.337 1172.55 170.992L1158.92 186.94L1160.08 187.815L1173.7 171.895C1176.38 168.79 1180.99 168.607 1186.06 171.387L1339.03 255.151C1347.51 259.738 1354.43 271.099 1354.43 280.357V447.107C1354.43 451.341 1352.94 454.46 1350.41 455.998C1348.4 457.184 1333.42 459.244 1323.83 460.346L1324 461.743Z" fill="#EEEEEE"/>
<path d="M1323 461.799C1324.5 461.816 1325.98 461.451 1327.29 460.741C1330.34 459.075 1332.03 455.603 1332.03 450.988V292.283C1332.03 283.039 1325.13 271.734 1316.65 267.09L1171.06 187.378C1166.81 185.049 1162.76 184.696 1159.68 186.376C1156.6 188.055 1154.95 191.513 1154.95 196.142V299.071H1156.43V196.142C1156.43 192.049 1157.85 189.015 1160.42 187.604C1163 186.192 1166.54 186.531 1170.32 188.606L1315.98 268.318C1324.04 272.736 1330.62 283.49 1330.62 292.311V450.988C1330.62 455.082 1329.13 458.116 1326.62 459.527C1324.1 460.938 1320.5 460.585 1316.72 458.525L1209.9 400.067L1209.16 401.281L1315.98 459.739C1318.09 460.989 1320.51 461.699 1323 461.799Z" fill="#EEEEEE"/>
<path d="M1310.96 436.988C1311.76 436.996 1312.55 436.801 1313.24 436.423C1314.09 435.867 1314.78 435.104 1315.22 434.213C1315.65 433.322 1315.84 432.336 1315.74 431.356V293.172C1315.59 290.657 1314.83 288.209 1313.51 286.025C1312.18 283.84 1310.34 281.982 1308.12 280.597L1181.3 211.187C1180.44 210.614 1179.44 210.267 1178.39 210.18C1177.35 210.094 1176.3 210.271 1175.35 210.693C1174.49 211.248 1173.81 212.01 1173.37 212.902C1172.93 213.793 1172.75 214.78 1172.85 215.76V307.497H1174.34V215.76C1174.25 215.03 1174.37 214.293 1174.68 213.62C1174.99 212.947 1175.47 212.362 1176.09 211.921C1176.82 211.622 1177.61 211.509 1178.39 211.596C1179.18 211.683 1179.93 211.966 1180.56 212.415L1307.32 281.825C1309.32 283.061 1310.99 284.727 1312.2 286.688C1313.4 288.649 1314.11 290.85 1314.25 293.115V431.356C1314.33 432.086 1314.22 432.823 1313.91 433.496C1313.6 434.169 1313.11 434.754 1312.49 435.195C1311.77 435.496 1310.98 435.611 1310.19 435.527C1309.41 435.442 1308.66 435.162 1308.03 434.716L1216.03 384.345L1215.29 385.559L1307.32 435.929C1308.41 436.582 1309.67 436.947 1310.96 436.988Z" fill="#EEEEEE"/>
<path d="M1190.41 291.62H1191.9C1191.9 274.966 1197.85 262.546 1208.52 256.689C1219.19 250.832 1233.71 252.158 1249.1 260.584L1249.84 259.371C1233.98 250.676 1219.04 249.293 1207.77 255.46C1196.51 261.628 1190.41 274.429 1190.41 291.62Z" fill="#EEEEEE"/>
<path d="M1275.62 395.452C1281.07 395.52 1286.44 394.214 1291.18 391.669C1302.39 385.53 1308.55 372.687 1308.55 355.497H1307.06C1307.06 372.165 1301.11 384.57 1290.44 390.442C1279.77 396.313 1265.25 394.958 1249.84 386.532C1239.69 380.767 1230.63 373.414 1223.06 364.783L1221.93 365.701C1229.59 374.447 1238.75 381.904 1249.03 387.76C1258.46 392.869 1267.48 395.452 1275.62 395.452Z" fill="#EEEEEE"/>
<path d="M1274.76 345.645C1275.64 345.653 1276.51 345.439 1277.28 345.025C1278.22 344.416 1278.97 343.583 1279.45 342.611C1279.93 341.639 1280.13 340.562 1280.02 339.492C1279.85 336.702 1278.99 333.989 1277.5 331.578C1276.01 329.166 1273.93 327.124 1271.45 325.618C1270.51 324.984 1269.4 324.6 1268.25 324.506C1267.09 324.412 1265.93 324.611 1264.89 325.082C1263.96 325.691 1263.21 326.525 1262.73 327.497C1262.26 328.47 1262.06 329.546 1262.17 330.615C1262.34 333.403 1263.2 336.115 1264.69 338.525C1266.17 340.937 1268.24 342.98 1270.72 344.488C1271.94 345.203 1273.33 345.602 1274.76 345.645ZM1267.42 325.886C1268.59 325.932 1269.73 326.268 1270.72 326.86C1272.99 328.24 1274.88 330.11 1276.24 332.319C1277.6 334.528 1278.39 337.01 1278.54 339.563C1278.62 340.372 1278.48 341.188 1278.13 341.93C1277.78 342.672 1277.23 343.315 1276.54 343.797C1275.72 344.139 1274.81 344.27 1273.92 344.176C1273.03 344.082 1272.18 343.766 1271.45 343.261C1269.18 341.88 1267.29 340.009 1265.94 337.8C1264.58 335.593 1263.8 333.11 1263.65 330.558C1263.57 329.751 1263.71 328.935 1264.05 328.193C1264.4 327.451 1264.94 326.807 1265.63 326.324C1266.17 326.023 1266.79 325.867 1267.42 325.873V325.886Z" fill="#EEEEEE"/>
<path d="M1231.6 321.653C1232.49 321.66 1233.36 321.446 1234.13 321.031C1235.06 320.424 1235.81 319.591 1236.29 318.618C1236.77 317.645 1236.97 316.569 1236.87 315.5C1236.7 312.709 1235.83 309.997 1234.34 307.585C1232.85 305.174 1230.78 303.131 1228.3 301.626C1227.35 300.992 1226.24 300.608 1225.09 300.514C1223.94 300.419 1222.78 300.618 1221.73 301.09C1220.8 301.698 1220.06 302.532 1219.58 303.504C1219.1 304.477 1218.9 305.554 1219.01 306.622C1219.18 309.411 1220.04 312.121 1221.53 314.533C1223.02 316.944 1225.09 318.988 1227.57 320.495C1228.78 321.21 1230.17 321.609 1231.6 321.653ZM1224.26 301.894C1225.43 301.939 1226.57 302.275 1227.57 302.868C1229.84 304.247 1231.73 306.118 1233.09 308.326C1234.45 310.534 1235.23 313.017 1235.38 315.57C1235.46 316.379 1235.32 317.195 1234.97 317.938C1234.62 318.68 1234.08 319.323 1233.39 319.804C1232.56 320.146 1231.66 320.276 1230.77 320.182C1229.87 320.088 1229.02 319.773 1228.3 319.268C1226.03 317.888 1224.14 316.016 1222.78 313.808C1221.43 311.599 1220.64 309.117 1220.5 306.565C1220.41 305.757 1220.55 304.943 1220.9 304.201C1221.24 303.458 1221.79 302.814 1222.48 302.332C1223.02 302.031 1223.64 301.875 1224.26 301.88V301.894Z" fill="#EEEEEE"/>
<path d="M1314.59 495.036C1315.25 495.036 1315.91 494.937 1316.54 494.739C1317.35 494.499 1318.09 494.111 1318.73 493.597C1319.38 493.082 1319.91 492.452 1320.3 491.743C1320.68 491.033 1320.92 490.259 1320.99 489.463C1321.06 488.667 1320.97 487.865 1320.71 487.104C1320.43 486.3 1313.82 467.219 1293.92 459.471C1279.15 453.684 1261.45 455.801 1241.35 465.736C1220.81 475.884 1202.19 476.787 1187.49 468.334C1173.96 460.557 1167.85 447.093 1168.35 442.055V430.326H1166.87V441.984C1166.3 447.417 1172.46 461.347 1186.7 469.533C1201.88 478.256 1220.93 477.381 1242.02 466.993C1261.72 457.255 1279 455.166 1293.34 460.769C1312.55 468.277 1318.97 486.752 1319.22 487.584C1319.42 488.168 1319.49 488.781 1319.44 489.391C1319.38 490.001 1319.2 490.595 1318.91 491.139C1318.61 491.683 1318.21 492.166 1317.71 492.561C1317.22 492.957 1316.65 493.255 1316.04 493.441C1315.56 493.592 1315.05 493.668 1314.55 493.667C1313.51 493.667 1312.49 493.352 1311.65 492.768C1310.8 492.185 1310.18 491.363 1309.86 490.421C1309.86 490.266 1304.65 475.32 1289.61 469.449C1278.06 464.932 1263.58 466.908 1246.59 475.306C1215.96 490.449 1194.35 484.889 1181.61 477.55C1165.93 468.531 1156.51 452.4 1156.46 442.026V424.68H1154.98V441.984C1154.98 452.752 1164.71 469.434 1180.84 478.679C1193.91 486.201 1216.05 491.918 1247.27 476.477C1263.86 468.277 1277.91 466.315 1289.04 470.662C1303.37 476.308 1308.39 490.618 1308.39 490.76C1308.79 492.014 1309.62 493.11 1310.74 493.881C1311.86 494.652 1313.21 495.057 1314.59 495.036Z" fill="#EEEEEE"/>
<path d="M1179.93 433.812C1184.82 433.9 1189.66 432.802 1193.98 430.623C1196.1 429.548 1197.87 427.935 1199.08 425.965C1199.66 424.935 1211.85 382.213 1214.29 373.745L1212.8 373.378C1208.8 387.379 1198.29 424.017 1197.68 425.358C1196.62 427.081 1195.07 428.492 1193.22 429.437C1185.88 433.446 1173.87 433.446 1166.61 429.437L1137.46 413.475C1135.38 412.461 1133.7 410.837 1132.67 408.845C1132.24 407.618 1122.91 367.916 1118.03 346.986L1116.54 347.283C1118.93 357.5 1130.85 408.493 1131.27 409.382C1132.42 411.658 1134.32 413.517 1136.69 414.674L1165.84 430.637C1170.17 432.818 1175.03 433.911 1179.93 433.812Z" fill="#EEEEEE"/>
<path d="M1190.94 380.11C1195.32 380.114 1199.67 379.558 1203.89 378.46C1216.15 375.213 1223.47 368.905 1223.47 361.523V348.397H1221.99V361.523C1221.99 368.072 1214.9 374.013 1203.49 377.048C1197.19 378.645 1190.61 379.04 1184.15 378.212C1177.68 377.383 1171.45 375.347 1165.82 372.221L1119.41 346.817C1113.46 343.542 1110.18 339.21 1110.33 334.652C1110.48 330.093 1110.33 320.241 1110.33 320.143H1108.84C1108.84 320.241 1108.92 330.234 1108.84 334.594C1108.68 339.704 1112.18 344.474 1118.67 348.031L1165.08 373.435C1172.94 377.762 1181.86 380.064 1190.94 380.11Z" fill="#EEEEEE"/>
<path d="M1146.45 350.515L1147.21 349.301L1119.38 333.903C1113.69 330.756 1110.55 326.564 1110.54 322.104C1110.53 317.645 1113.61 313.467 1119.22 310.291C1123.25 308.116 1127.66 306.625 1132.24 305.888L1131.97 304.477C1127.22 305.236 1122.64 306.784 1118.46 309.049C1112.37 312.493 1109.02 317.122 1109.05 322.076C1109.08 327.03 1112.47 331.687 1118.64 335.089L1146.45 350.515Z" fill="#EEEEEE"/>
<path d="M1189.72 367.07C1198.37 367.07 1207 365.15 1213.53 361.312C1219.19 357.967 1222.27 353.422 1222.19 348.511C1222.12 343.599 1218.7 338.871 1212.82 335.611L1199.43 328.159L1198.67 329.373L1212.06 336.825C1217.48 339.831 1220.63 344.093 1220.71 348.539C1220.78 352.984 1217.94 357.007 1212.74 360.126C1200.72 367.182 1180.01 367.437 1167.59 360.549L1160.68 356.725L1159.93 357.938L1166.75 361.778C1173.8 365.389 1181.71 367.212 1189.72 367.07Z" fill="#EEEEEE"/>
<path d="M1182.67 320.594L1183.43 319.381L1164.57 308.951C1159.13 306.098 1153.1 304.389 1146.89 303.941L1146.76 305.352C1152.73 305.794 1158.52 307.435 1163.77 310.165L1182.67 320.594Z" fill="#EEEEEE"/>
<path d="M1189.98 353.098C1190.98 353.101 1191.98 352.983 1192.95 352.744C1196.02 352.01 1197.92 350.472 1198.16 348.511V300.525C1198.17 299.368 1197.9 298.225 1197.39 297.178C1196.87 296.131 1196.11 295.206 1195.17 294.472C1194.22 293.738 1193.12 293.212 1191.94 292.934C1190.75 292.655 1189.52 292.631 1188.33 292.862C1186.44 293.262 1184.76 294.27 1183.57 295.713C1182.38 297.156 1181.75 298.946 1181.79 300.779V348.285C1181.77 348.411 1181.77 348.54 1181.79 348.666C1182.05 350.557 1183.91 352.053 1186.96 352.787C1187.94 353.014 1188.96 353.119 1189.98 353.098ZM1189.98 294.075C1191.53 294.062 1193.03 294.561 1194.23 295.486C1195.01 296.089 1195.63 296.847 1196.06 297.707C1196.49 298.566 1196.71 299.504 1196.7 300.455V348.44C1196.54 349.654 1195.01 350.768 1192.61 351.347C1190.9 351.757 1189.1 351.757 1187.39 351.347C1184.98 350.768 1183.46 349.654 1183.34 348.369C1183.35 348.318 1183.35 348.265 1183.34 348.215V300.736C1183.29 299.878 1183.43 299.02 1183.74 298.213C1184.05 297.406 1184.54 296.669 1185.16 296.045C1185.79 295.422 1186.54 294.925 1187.37 294.586C1188.2 294.248 1189.1 294.074 1190.01 294.075H1189.98Z" fill="#EEEEEE"/>
<path d="M1139.38 326.607C1140.42 326.607 1141.47 326.479 1142.48 326.225C1145.73 325.407 1147.64 323.685 1147.58 321.625V273.921C1147.62 272.088 1146.99 270.298 1145.8 268.854C1144.6 267.411 1142.92 266.404 1141.03 266.004C1139.84 265.773 1138.6 265.797 1137.42 266.076C1136.24 266.354 1135.14 266.88 1134.19 267.615C1133.25 268.349 1132.5 269.274 1131.98 270.321C1131.46 271.368 1131.2 272.511 1131.21 273.667V314.144C1131.21 318.689 1131.21 320.722 1131.34 321.625H1131.23C1131.14 323.671 1133.04 325.393 1136.3 326.225C1137.3 326.48 1138.34 326.608 1139.38 326.607ZM1139.38 267.33C1139.83 267.331 1140.28 267.373 1140.72 267.457C1142.27 267.795 1143.65 268.631 1144.62 269.821C1145.59 271.012 1146.1 272.485 1146.06 273.992V321.724C1146.06 323.135 1144.57 324.292 1142.07 324.927C1140.29 325.379 1138.42 325.379 1136.64 324.927C1134.14 324.292 1132.62 323.078 1132.68 321.737C1132.68 320.75 1132.68 274.204 1132.68 273.752C1132.68 272.802 1132.9 271.861 1133.32 271.002C1133.75 270.142 1134.38 269.385 1135.15 268.784C1136.34 267.814 1137.85 267.274 1139.41 267.26L1139.38 267.33Z" fill="#EEEEEE"/>
</g>
<defs>
<clipPath id="clip0_3_34">
<rect width="1280" height="667" fill="white"/>
</clipPath>
</defs>
</svg>
