<svg width="405" height="292" viewBox="0 0 405 292" fill="none" xmlns="http://www.w3.org/2000/svg">
<path d="M0 152C0 144.268 6.26801 138 14 138H391C398.732 138 405 144.268 405 152V292H0V152Z" fill="#797EF6"/>
<path opacity="0.08" d="M227.665 171.177L216.752 166.566C213.741 165.315 209.391 165.687 207.149 167.482L131.918 225.937C129.661 227.696 130.307 230.115 133.365 231.36L144.277 235.971C147.289 237.222 151.632 236.803 153.88 235.055L229.111 176.59C231.322 174.847 230.675 172.419 227.665 171.177Z" fill="black"/>
<path fill-rule="evenodd" clip-rule="evenodd" d="M150.431 232.615L219.842 178.69C221.929 177.077 223.278 173.333 222.866 170.343L200.811 10.1941C200.398 7.19418 198.351 6.0754 196.293 7.69322L126.883 61.6187C124.805 63.2298 123.455 66.9647 123.868 69.9646L145.922 230.113C146.336 233.113 148.335 234.229 150.431 232.615Z" fill="#E3FFFF"/>
<path fill-rule="evenodd" clip-rule="evenodd" d="M145.973 230.475L123.845 69.7974C123.541 68.2904 123.632 66.7301 124.111 65.2692C124.59 63.8082 125.44 62.4964 126.577 61.462L196.242 7.38797C196.669 7.04312 197.171 6.80517 197.708 6.69396C195.639 5.82434 191.451 4.07292 190.695 3.8742C190.273 3.77326 189.833 3.77157 189.409 3.86928C188.986 3.96698 188.591 4.16141 188.255 4.43733L118.866 58.3789C116.788 59.9899 115.438 63.7248 115.851 66.7248L137.899 226.827C137.92 227.431 138.087 228.021 138.385 228.547C138.683 229.073 139.104 229.518 139.612 229.847C139.694 229.892 144.063 231.656 146.399 232.612C146.19 232.302 146.044 231.954 145.971 231.587C145.897 231.22 145.898 230.842 145.973 230.475Z" fill="#27AAE1"/>
<path fill-rule="evenodd" clip-rule="evenodd" d="M182.873 18.1346L182.329 23.5283C181.762 29.1711 178.688 35.093 174.729 38.165L153.245 54.8557C149.287 57.937 145.342 57.4677 143.472 53.7126L141.697 50.1714L182.873 18.1346Z" fill="#67DAFF"/>
<path d="M201.314 134.985C212.217 108.738 208.753 82.3495 193.576 76.0446C178.399 69.7398 157.256 85.9059 146.353 112.153C135.449 138.399 138.914 164.788 154.091 171.093C169.268 177.397 190.411 161.231 201.314 134.985Z" fill="white"/>
<path d="M194.87 138.86C194.743 138.878 194.613 138.869 194.489 138.834C194.365 138.8 194.249 138.74 194.149 138.659C194.049 138.578 193.967 138.477 193.908 138.362C193.848 138.248 193.813 138.122 193.805 137.994L188.673 100.731C187.917 95.2424 185.657 91.4084 182.324 89.9464C178.99 88.4843 174.851 89.5653 170.704 92.9188C167.069 96.0815 164.133 99.9668 162.083 104.327C162.028 104.442 161.951 104.545 161.855 104.63C161.76 104.714 161.648 104.778 161.527 104.818C161.406 104.858 161.277 104.872 161.15 104.861C161.023 104.85 160.9 104.812 160.788 104.751C160.563 104.62 160.397 104.407 160.324 104.156C160.25 103.906 160.276 103.637 160.394 103.405C162.566 98.7876 165.682 94.6768 169.54 91.3377C174.224 87.4844 179.006 86.3338 183.016 88.1002C187.026 89.8667 189.674 94.2528 190.531 100.476L195.671 137.803C195.705 138.049 195.64 138.299 195.49 138.497C195.34 138.695 195.117 138.826 194.87 138.86Z" fill="#081E7A"/>
<path d="M160.958 160.631C160.831 160.649 160.701 160.64 160.577 160.606C160.453 160.571 160.337 160.511 160.237 160.43C160.137 160.349 160.055 160.248 159.996 160.134C159.936 160.019 159.901 159.894 159.893 159.765L155.384 127.026C154.859 122.671 155.084 118.258 156.048 113.978C156.072 113.856 156.121 113.74 156.191 113.637C156.261 113.534 156.35 113.446 156.455 113.378C156.559 113.31 156.676 113.263 156.798 113.241C156.921 113.218 157.046 113.22 157.168 113.247C157.417 113.321 157.629 113.487 157.76 113.711C157.892 113.936 157.932 114.202 157.874 114.456C156.963 118.495 156.749 122.659 157.242 126.77L161.75 159.509C161.777 159.635 161.777 159.766 161.751 159.892C161.725 160.018 161.673 160.137 161.599 160.243C161.524 160.348 161.429 160.437 161.319 160.504C161.209 160.57 161.086 160.614 160.958 160.631Z" fill="#081E7A"/>
<path d="M185.818 134.977C185.571 135.011 185.322 134.946 185.123 134.795C184.925 134.645 184.795 134.422 184.761 134.176L181.039 107.149C180.889 105.641 180.331 104.203 179.425 102.989C179.346 102.894 179.287 102.784 179.251 102.666C179.215 102.548 179.202 102.423 179.215 102.3C179.227 102.177 179.263 102.058 179.321 101.949C179.38 101.84 179.459 101.743 179.555 101.665C179.651 101.587 179.761 101.528 179.88 101.493C179.999 101.457 180.123 101.446 180.247 101.459C180.37 101.472 180.489 101.509 180.598 101.568C180.707 101.628 180.803 101.708 180.88 101.805C182.01 103.282 182.708 105.043 182.896 106.893L186.618 133.92C186.652 134.167 186.587 134.416 186.437 134.614C186.287 134.813 186.064 134.943 185.818 134.977V134.977Z" fill="#081E7A"/>
<path d="M164.795 140.38C164.549 140.414 164.299 140.349 164.101 140.198C163.903 140.048 163.773 139.825 163.739 139.579L161.315 121.979C160.376 115.162 164.048 106.157 169.512 101.922C170.815 100.853 172.354 100.109 174.002 99.7519C174.123 99.729 174.247 99.7302 174.368 99.7554C174.489 99.7806 174.603 99.8293 174.705 99.8988C174.807 99.9682 174.894 100.057 174.962 100.16C175.029 100.263 175.076 100.379 175.099 100.5C175.121 100.621 175.12 100.745 175.095 100.866C175.07 100.987 175.021 101.101 174.952 101.203C174.882 101.305 174.793 101.392 174.69 101.46C174.587 101.527 174.472 101.574 174.351 101.597C172.999 101.902 171.736 102.517 170.661 103.392C165.668 107.269 162.314 115.491 163.172 121.723L165.596 139.323C165.63 139.57 165.565 139.819 165.415 140.018C165.264 140.216 165.042 140.346 164.795 140.38Z" fill="#081E7A"/>
<path d="M173.801 143.929C173.555 143.962 173.305 143.897 173.107 143.747C172.909 143.597 172.779 143.374 172.745 143.128L169.278 117.958C169.072 116.644 169.178 115.3 169.59 114.035C170.794 110.547 173.359 108.964 175.214 109.721C175.73 109.966 176.171 110.345 176.491 110.819C176.811 111.293 176.998 111.843 177.032 112.414L178.29 121.544C178.324 121.79 178.258 122.04 178.108 122.238C177.958 122.436 177.735 122.566 177.489 122.6C177.243 122.634 176.993 122.569 176.795 122.419C176.596 122.268 176.466 122.046 176.432 121.799L175.174 112.66C175.172 112.419 175.112 112.182 174.997 111.97C174.881 111.758 174.716 111.577 174.514 111.445C173.933 111.213 172.86 111.872 171.995 113.221C171.195 114.504 170.882 116.031 171.112 117.526L174.603 142.881C174.635 143.126 174.568 143.374 174.418 143.57C174.268 143.766 174.046 143.895 173.801 143.929V143.929Z" fill="#081E7A"/>
<path d="M180.732 146.145C180.485 146.178 180.236 146.113 180.037 145.963C179.839 145.813 179.709 145.59 179.675 145.344L177.35 128.459C177.316 128.212 177.381 127.963 177.531 127.764C177.681 127.566 177.904 127.436 178.15 127.402C178.397 127.368 178.646 127.433 178.845 127.583C179.043 127.734 179.173 127.956 179.207 128.203L181.532 145.088C181.566 145.334 181.501 145.584 181.351 145.782C181.201 145.98 180.978 146.111 180.732 146.145Z" fill="#081E7A"/>
<path d="M167.397 159.271C167.151 159.305 166.901 159.24 166.703 159.09C166.505 158.939 166.374 158.717 166.341 158.47L165.061 149.183C165.028 148.936 165.093 148.687 165.243 148.488C165.393 148.29 165.616 148.16 165.862 148.126C166.109 148.092 166.358 148.157 166.557 148.308C166.755 148.458 166.885 148.681 166.919 148.927L168.198 158.215C168.232 158.461 168.167 158.711 168.017 158.909C167.866 159.107 167.644 159.237 167.397 159.271Z" fill="#081E7A"/>
<path d="M149.038 57.29C147.808 57.4757 146.551 57.245 145.468 56.6346C144.384 56.0242 143.535 55.0692 143.057 53.9212L143.889 53.5038C144.182 54.1827 144.624 54.7871 145.182 55.2721C145.74 55.7571 146.4 56.1104 147.114 56.3057C148.843 56.7016 150.866 56.0635 152.921 54.4934L174.442 37.7975C178.324 34.7834 181.307 29.0255 181.874 23.5246L182.833 23.6103C182.244 29.3697 179.121 35.4212 175.052 38.5842L153.533 55.223C152.24 56.2913 150.69 57.0038 149.038 57.29Z" fill="#081E7A"/>
<path d="M147.325 233.772L139.831 230.204C139.255 229.843 138.776 229.347 138.434 228.759C138.093 228.172 137.899 227.51 137.871 226.831L115.822 66.7287C115.39 63.5894 116.815 59.6454 119.013 57.9421L188.436 4.03391C188.81 3.69819 189.256 3.45439 189.741 3.32194C190.226 3.18949 190.734 3.17205 191.227 3.27101C192.306 3.54826 199.24 6.48298 199.495 6.61818L199.131 7.47287C197.122 6.63273 191.836 4.39845 190.993 4.18337C190.639 4.12359 190.276 4.14614 189.933 4.24926C189.589 4.35239 189.274 4.53331 189.012 4.77799L119.617 58.6824C117.659 60.2012 116.388 63.7549 116.785 66.6434L138.827 226.699C138.848 227.221 138.991 227.731 139.242 228.189C139.494 228.647 139.849 229.041 140.279 229.338L147.753 232.889L147.325 233.772Z" fill="#081E7A"/>
<path d="M148.464 233.861C148.015 233.925 147.557 233.871 147.136 233.703C146.013 233.243 145.233 231.978 144.99 230.213L122.939 70.0925C122.507 66.9532 123.932 63.0092 126.13 61.3059L195.541 7.38043C195.954 7.0016 196.462 6.74149 197.011 6.62756C197.56 6.51364 198.13 6.55014 198.66 6.73321C199.783 7.19366 200.571 8.44796 200.815 10.2219L222.866 170.342C223.298 173.482 221.862 177.418 219.665 179.121L150.25 233.019C149.741 233.454 149.124 233.745 148.464 233.861V233.861ZM197.466 7.55057C196.971 7.63372 196.507 7.84792 196.123 8.17095L126.705 62.05C124.747 63.5689 123.476 67.1225 123.868 69.9646L145.922 230.113C146.115 231.515 146.687 232.506 147.489 232.831C147.867 232.947 148.27 232.961 148.655 232.869C149.04 232.778 149.394 232.585 149.679 232.312L149.967 232.679L149.679 232.312L219.09 178.386C221.048 176.867 222.329 173.312 221.937 170.47L199.883 10.322C199.689 8.91951 199.118 7.92883 198.305 7.59591C198.037 7.49111 197.745 7.45944 197.46 7.50413L197.466 7.55057Z" fill="#081E7A"/>
<path fill-rule="evenodd" clip-rule="evenodd" d="M156.048 47.173L169.642 36.6131C169.828 36.4342 169.97 36.2142 170.056 35.9706C170.143 35.727 170.171 35.4666 170.139 35.2102C170.07 34.7087 169.732 34.5187 169.38 34.7847L155.796 45.3433C155.608 45.5215 155.464 45.7413 155.376 45.9852C155.288 46.229 155.258 46.4901 155.289 46.7475C155.358 47.249 155.734 47.4339 156.048 47.173Z" fill="#081E7A"/>
<path d="M163.98 172.944C160.587 173.463 157.118 173.065 153.931 171.791C146.451 168.743 141.491 160.899 139.948 149.698L140.877 149.57C142.372 160.427 147.136 168.014 154.286 170.929C161.435 173.843 170.316 171.74 179.106 164.927C197.415 150.812 209.656 120.811 206.527 98.0929C205.033 87.2448 200.269 79.6578 193.12 76.7433C185.971 73.8287 177.09 75.9318 168.3 82.745L167.724 82.0009C176.789 74.9796 185.934 72.8022 193.473 75.8713C201.013 78.9403 205.915 86.7732 207.456 97.965C210.626 120.98 198.172 151.295 179.718 165.657C174.383 169.798 169.023 172.249 163.98 172.944Z" fill="#081E7A"/>
<path opacity="0.08" d="M280.126 188.487L269.944 182.43C267.132 180.78 262.772 180.555 260.307 182.027L177.803 229.673C175.328 231.107 175.637 233.592 178.497 235.242L188.679 241.298C191.491 242.948 195.851 243.126 198.316 241.701L280.82 194.046C283.248 192.621 282.939 190.127 280.126 188.487Z" fill="black"/>
<path fill-rule="evenodd" clip-rule="evenodd" d="M195.232 238.814L271.35 194.862C273.638 193.549 275.485 190.024 275.485 187.005V25.3455C275.485 22.3172 273.61 20.9296 271.35 22.2516L195.232 66.2034C192.953 67.516 191.106 71.0317 191.106 74.06V235.72C191.106 238.748 192.935 240.126 195.232 238.814Z" fill="#E3FFFF"/>
<path fill-rule="evenodd" clip-rule="evenodd" d="M191.107 236.086V73.8912C191.011 72.3568 191.315 70.8236 191.988 69.4416C192.662 68.0596 193.683 66.8761 194.951 66.0065L271.341 21.9422C271.811 21.6587 272.341 21.4916 272.888 21.4547C270.957 20.3109 267.047 18.0045 266.326 17.7045C265.921 17.5468 265.485 17.4851 265.052 17.5242C264.62 17.5632 264.202 17.7019 263.832 17.9295L187.732 61.9001C185.453 63.2127 183.606 66.7284 183.606 69.7567V231.37C183.545 231.971 183.629 232.578 183.853 233.14C184.077 233.701 184.433 234.201 184.891 234.595C184.966 234.651 189.054 236.995 191.238 238.261C191.073 237.925 190.976 237.56 190.953 237.186C190.931 236.813 190.983 236.439 191.107 236.086Z" fill="#27AAE1"/>
<path fill-rule="evenodd" clip-rule="evenodd" d="M256.631 30.7644L255.356 36.0334C254.025 41.5461 250.171 46.9932 245.831 49.4964L222.27 63.1001C217.929 65.6127 214.086 64.6096 212.745 60.6344L211.47 56.8842L256.631 30.7644Z" fill="#67DAFF"/>
<path d="M258.959 149.038C273.341 124.524 273.509 97.9097 259.334 89.5932C245.159 81.2767 222.008 94.4073 207.626 118.921C193.244 143.435 193.076 170.049 207.251 178.366C221.426 186.682 244.577 173.552 258.959 149.038Z" fill="white"/>
<path d="M252.046 151.998C251.918 151.998 251.79 151.972 251.672 151.921C251.554 151.869 251.447 151.794 251.359 151.7C251.271 151.606 251.204 151.495 251.16 151.373C251.117 151.252 251.1 151.123 251.109 150.994V113.38C251.109 107.839 249.393 103.733 246.29 101.83C243.187 99.9267 238.94 100.433 234.374 103.189C230.341 105.827 226.903 109.275 224.277 113.315C224.207 113.422 224.116 113.513 224.01 113.584C223.904 113.654 223.784 113.703 223.659 113.725C223.533 113.748 223.404 113.745 223.28 113.716C223.156 113.688 223.039 113.634 222.936 113.558C222.731 113.397 222.595 113.164 222.557 112.906C222.519 112.648 222.58 112.385 222.73 112.171C225.511 107.893 229.158 104.246 233.436 101.464C238.602 98.286 243.496 97.7984 247.227 100.095C250.959 102.392 252.984 107.099 252.984 113.38V151.06C252.984 151.309 252.885 151.547 252.709 151.723C252.534 151.899 252.295 151.998 252.046 151.998Z" fill="#081E7A"/>
<path d="M215.482 168.939C215.353 168.939 215.225 168.913 215.107 168.862C214.989 168.811 214.883 168.736 214.795 168.642C214.707 168.547 214.639 168.436 214.596 168.315C214.553 168.193 214.535 168.064 214.544 167.936V134.888C214.619 130.501 215.443 126.16 216.982 122.053C217.023 121.935 217.087 121.827 217.17 121.734C217.253 121.641 217.354 121.566 217.467 121.513C217.579 121.46 217.701 121.429 217.826 121.424C217.95 121.418 218.074 121.438 218.191 121.481C218.428 121.588 218.616 121.781 218.715 122.022C218.814 122.262 218.818 122.531 218.726 122.775C217.273 126.651 216.493 130.748 216.419 134.888V167.936C216.428 168.064 216.411 168.193 216.368 168.315C216.325 168.436 216.257 168.547 216.169 168.642C216.081 168.736 215.975 168.811 215.856 168.862C215.738 168.913 215.611 168.939 215.482 168.939Z" fill="#081E7A"/>
<path d="M243.609 146.916C243.36 146.916 243.122 146.817 242.946 146.642C242.77 146.466 242.672 146.227 242.672 145.979V118.696C242.729 117.182 242.372 115.682 241.64 114.355C241.575 114.25 241.532 114.133 241.512 114.011C241.492 113.889 241.497 113.764 241.526 113.644C241.554 113.524 241.607 113.41 241.679 113.31C241.752 113.211 241.844 113.126 241.95 113.062C242.055 112.997 242.173 112.954 242.295 112.935C242.418 112.916 242.543 112.921 242.663 112.951C242.783 112.981 242.897 113.034 242.996 113.108C243.096 113.181 243.18 113.274 243.243 113.38C244.161 114.998 244.612 116.838 244.547 118.696V145.979C244.547 146.227 244.448 146.466 244.272 146.642C244.096 146.817 243.858 146.916 243.609 146.916V146.916Z" fill="#081E7A"/>
<path d="M222.045 149.401C221.796 149.401 221.558 149.302 221.382 149.126C221.206 148.95 221.107 148.712 221.107 148.463V130.697C221.107 123.815 225.973 115.396 231.964 111.946C233.401 111.064 235.027 110.537 236.708 110.408C236.831 110.402 236.954 110.42 237.07 110.462C237.187 110.503 237.293 110.567 237.385 110.65C237.476 110.733 237.55 110.832 237.603 110.944C237.656 111.055 237.686 111.176 237.692 111.299C237.699 111.422 237.68 111.545 237.639 111.661C237.598 111.777 237.534 111.884 237.451 111.976C237.368 112.067 237.268 112.141 237.157 112.194C237.046 112.247 236.925 112.277 236.802 112.283C235.421 112.402 234.086 112.838 232.902 113.559C227.426 116.718 222.983 124.406 222.983 130.697V148.463C222.983 148.712 222.884 148.95 222.708 149.126C222.532 149.302 222.294 149.401 222.045 149.401Z" fill="#081E7A"/>
<path d="M230.483 154.145C230.234 154.145 229.996 154.046 229.82 153.87C229.644 153.694 229.546 153.456 229.546 153.207V127.8C229.52 126.47 229.809 125.153 230.389 123.956C232.058 120.665 234.814 119.446 236.549 120.449C237.027 120.763 237.412 121.199 237.664 121.711C237.916 122.224 238.027 122.795 237.983 123.365V132.581C237.983 132.83 237.885 133.068 237.709 133.244C237.533 133.42 237.294 133.519 237.046 133.519C236.797 133.519 236.559 133.42 236.383 133.244C236.207 133.068 236.108 132.83 236.108 132.581V123.356C236.14 123.117 236.112 122.873 236.027 122.648C235.942 122.422 235.802 122.221 235.621 122.062C235.077 121.753 233.924 122.259 232.883 123.478C231.916 124.64 231.397 126.11 231.421 127.622V153.216C231.418 153.463 231.318 153.7 231.143 153.873C230.967 154.047 230.73 154.145 230.483 154.145V154.145Z" fill="#081E7A"/>
<path d="M237.046 157.285C236.797 157.285 236.559 157.187 236.383 157.011C236.207 156.835 236.108 156.596 236.108 156.348V139.303C236.108 139.055 236.207 138.816 236.383 138.64C236.559 138.465 236.797 138.366 237.046 138.366C237.295 138.366 237.533 138.465 237.709 138.64C237.885 138.816 237.983 139.055 237.983 139.303V156.348C237.983 156.596 237.885 156.835 237.709 157.011C237.533 157.187 237.295 157.285 237.046 157.285Z" fill="#081E7A"/>
<path d="M222.045 168.47C221.796 168.47 221.558 168.371 221.382 168.196C221.206 168.02 221.107 167.781 221.107 167.533V158.157C221.107 157.909 221.206 157.67 221.382 157.494C221.558 157.319 221.796 157.22 222.045 157.22C222.294 157.22 222.532 157.319 222.708 157.494C222.884 157.67 222.983 157.909 222.983 158.157V167.533C222.983 167.781 222.884 168.02 222.708 168.196C222.532 168.371 222.294 168.47 222.045 168.47Z" fill="#081E7A"/>
<path d="M217.771 64.9377C216.527 64.9539 215.313 64.5539 214.323 63.8014C213.333 63.0489 212.622 61.987 212.305 60.7844L213.186 60.4844C213.384 61.197 213.739 61.856 214.226 62.4127C214.713 62.9693 215.319 63.4093 215.999 63.7002C217.658 64.3283 219.749 63.972 221.999 62.697L245.597 49.0933C249.853 46.6369 253.594 41.3398 254.906 35.9677L255.844 36.1834C254.475 41.8086 250.556 47.3776 246.094 49.9558L222.505 63.5033C221.079 64.3852 219.447 64.8796 217.771 64.9377Z" fill="#081E7A"/>
<path d="M191.997 239.536L185.06 234.979C184.539 234.543 184.131 233.986 183.873 233.357C183.615 232.729 183.514 232.046 183.578 231.37V69.7567C183.578 66.5878 185.528 62.8751 187.938 61.4876L264.066 17.5545C264.482 17.2729 264.958 17.0923 265.456 17.0272C265.954 16.9621 266.461 17.0142 266.935 17.1795C267.966 17.6013 274.435 21.4546 274.67 21.6234L274.192 22.4203C272.316 21.314 267.385 18.3795 266.579 18.0514C266.236 17.9439 265.874 17.9167 265.52 17.972C265.165 18.0273 264.828 18.1635 264.535 18.3701L188.435 62.3032C186.288 63.5408 184.544 66.8878 184.544 69.8035V231.37C184.494 231.89 184.565 232.415 184.752 232.903C184.939 233.391 185.237 233.829 185.622 234.182L192.541 238.72L191.997 239.536Z" fill="#081E7A"/>
<path d="M193.114 239.779C192.66 239.782 192.214 239.666 191.82 239.442C190.77 238.833 190.17 237.473 190.17 235.692V74.06C190.17 70.8911 192.12 67.1784 194.529 65.7909L270.648 21.839C271.11 21.5202 271.648 21.3318 272.208 21.2938C272.767 21.2559 273.326 21.3697 273.827 21.6234C274.877 22.2328 275.486 23.5829 275.486 25.3736V187.005C275.486 190.174 273.527 193.878 271.117 195.265L194.998 239.189C194.434 239.55 193.783 239.754 193.114 239.779V239.779ZM272.533 22.2703C272.031 22.2851 271.542 22.434 271.117 22.7016L194.998 66.6065C192.851 67.8441 191.107 71.1911 191.107 74.06V235.72C191.107 237.136 191.539 238.195 192.289 238.626C192.648 238.793 193.045 238.861 193.438 238.823C193.832 238.785 194.209 238.643 194.529 238.411L194.764 238.814L194.529 238.411L270.648 194.459C272.795 193.221 274.548 189.874 274.548 187.005V25.3454C274.548 23.9297 274.117 22.8703 273.358 22.4297C273.106 22.2892 272.821 22.218 272.533 22.2234V22.2703Z" fill="#081E7A"/>
<path fill-rule="evenodd" clip-rule="evenodd" d="M226.096 55.8717L241.003 47.2651C241.212 47.1133 241.383 46.9147 241.502 46.6852C241.621 46.4557 241.684 46.2016 241.687 45.9432C241.687 45.4369 241.378 45.2025 240.994 45.4181L226.096 54.0248C225.885 54.1756 225.713 54.3737 225.592 54.6033C225.472 54.8329 225.407 55.0875 225.402 55.3467C225.402 55.853 225.749 56.0873 226.096 55.8717Z" fill="#081E7A"/>
<path d="M216.795 181.549C213.364 181.601 209.981 180.733 206.998 179.036C200.004 174.995 196.16 166.548 196.16 155.242H197.098C197.098 166.201 200.782 174.367 207.467 178.23C214.152 182.093 223.236 181.221 232.874 175.67C252.938 164.186 269.157 136.134 269.157 113.202C269.157 102.252 265.472 94.0858 258.788 90.2231C252.103 86.3605 243.018 87.2324 233.38 92.7826L232.912 91.967C242.85 86.248 252.206 85.3386 259.257 89.4075C266.307 93.4764 270.095 101.905 270.095 113.202C270.095 136.434 253.622 164.767 233.38 176.477C227.53 179.852 221.886 181.549 216.795 181.549Z" fill="#081E7A"/>
</svg>