<svg width="314" height="373" viewBox="0 0 314 373" fill="none" xmlns="http://www.w3.org/2000/svg">
<rect y="81.647" width="314" height="290.912" rx="14" fill="#27AAE1"/>
<path opacity="0.08" d="M195.457 219.231L181.145 213.214C177.195 211.581 171.506 212.033 168.584 214.333L70.523 289.245C67.5821 291.498 68.4432 294.623 72.4534 296.247L86.766 302.264C90.7155 303.897 96.3965 303.386 99.327 301.145L197.386 226.222C200.268 223.988 199.405 220.852 195.457 219.231Z" fill="black"/>
<path fill-rule="evenodd" clip-rule="evenodd" d="M95.5336 297.935L185.363 229.189C188.064 227.134 189.792 222.339 189.236 218.499L159.505 12.8802C158.948 9.02852 156.281 7.58001 153.617 9.6426L63.7881 78.3881C61.099 80.4419 59.3698 85.2253 59.9267 89.077L89.6583 294.696C90.2152 298.547 92.8204 299.992 95.5336 297.935Z" fill="#E3FFFF"/>
<path fill-rule="evenodd" clip-rule="evenodd" d="M89.6651 295.209L59.8262 88.8948C59.4204 86.9591 59.5291 84.9577 60.1418 83.0861C60.7545 81.2145 61.8501 79.5368 63.3216 78.2168L153.508 9.277C154.059 8.83723 154.711 8.53513 155.408 8.39586C152.713 7.26679 147.258 4.99271 146.274 4.73289C145.724 4.60067 145.152 4.59569 144.602 4.71835C144.053 4.84102 143.541 5.08798 143.107 5.43988L53.2773 74.2114C50.5874 76.2653 48.8577 81.0491 49.4148 84.9011L79.1469 290.476C79.1781 291.251 79.3987 292.01 79.7898 292.686C80.1808 293.363 80.7308 293.938 81.3929 294.362C81.4997 294.421 87.1906 296.712 90.2342 297.954C89.9595 297.555 89.7678 297.107 89.6701 296.635C89.5723 296.164 89.5707 295.679 89.6651 295.209Z" fill="#27AAE1"/>
<path fill-rule="evenodd" clip-rule="evenodd" d="M136.839 23.0475L136.164 29.9913C135.461 37.2558 131.481 44.8637 126.325 48.7952L98.3416 70.1557C93.1872 74.0992 88.0252 73.4693 85.5538 68.6206L83.209 64.0481L136.839 23.0475Z" fill="#67DAFF"/>
<path d="M161.453 172.96C175.631 139.416 170.89 105.598 150.864 97.4268C130.838 89.2554 103.11 109.824 88.9326 143.369C74.755 176.913 79.4959 210.731 99.5219 218.902C119.548 227.074 147.275 206.505 161.453 172.96Z" fill="white"/>
<path d="M152.791 177.937C152.625 177.959 152.456 177.947 152.294 177.902C152.132 177.857 151.981 177.779 151.85 177.674C151.719 177.569 151.611 177.439 151.533 177.292C151.455 177.145 151.409 176.983 151.397 176.818L144.461 128.937C143.44 121.884 140.47 116.946 136.117 115.047C131.764 113.148 126.38 114.51 121.001 118.79C116.286 122.828 112.488 127.798 109.846 133.384C109.776 133.532 109.676 133.664 109.552 133.771C109.428 133.879 109.282 133.961 109.125 134.011C108.967 134.061 108.8 134.079 108.635 134.064C108.469 134.048 108.308 133.999 108.162 133.921C107.868 133.75 107.65 133.476 107.553 133.154C107.456 132.832 107.487 132.487 107.64 132.189C110.438 126.274 114.469 121.015 119.473 116.752C125.549 111.834 131.771 110.387 137.006 112.681C142.242 114.975 145.721 120.624 146.88 128.62L153.827 176.585C153.873 176.902 153.79 177.222 153.595 177.475C153.401 177.729 153.112 177.895 152.791 177.937Z" fill="#081E7A"/>
<path d="M108.405 205.667C108.242 205.689 108.075 205.677 107.916 205.632C107.756 205.587 107.607 205.51 107.479 205.405C107.35 205.301 107.244 205.171 107.167 205.024C107.09 204.877 107.045 204.716 107.033 204.551L101.033 162.576C100.331 156.992 100.59 151.34 101.798 145.863C101.828 145.707 101.89 145.558 101.979 145.427C102.068 145.295 102.182 145.183 102.315 145.096C102.449 145.009 102.598 144.95 102.755 144.922C102.912 144.894 103.074 144.898 103.23 144.933C103.55 145.029 103.823 145.243 103.993 145.532C104.162 145.821 104.216 146.162 104.143 146.486C103.002 151.655 102.755 156.99 103.414 162.26L109.414 204.235C109.448 204.397 109.45 204.564 109.417 204.725C109.384 204.887 109.319 205.039 109.224 205.174C109.129 205.308 109.008 205.421 108.867 205.506C108.726 205.591 108.569 205.646 108.405 205.667Z" fill="#081E7A"/>
<path d="M140.938 172.798C140.622 172.84 140.301 172.754 140.046 172.561C139.791 172.367 139.622 172.081 139.577 171.765L134.624 137.113C134.421 135.181 133.696 133.335 132.526 131.774C132.424 131.651 132.348 131.51 132.3 131.358C132.253 131.207 132.237 131.047 132.251 130.89C132.266 130.732 132.312 130.579 132.386 130.44C132.46 130.301 132.561 130.178 132.684 130.078C132.806 129.979 132.948 129.904 133.1 129.859C133.252 129.815 133.411 129.801 133.57 129.818C133.728 129.835 133.881 129.884 134.021 129.961C134.161 130.037 134.285 130.141 134.385 130.265C135.843 132.165 136.75 134.426 137.005 136.797L141.958 171.449C142.003 171.765 141.921 172.084 141.729 172.337C141.538 172.59 141.253 172.756 140.938 172.798Z" fill="#081E7A"/>
<path d="M113.528 179.714C113.208 179.756 112.883 179.671 112.624 179.477C112.366 179.283 112.195 178.996 112.149 178.68L108.879 156.079C107.613 147.324 112.327 135.793 119.403 130.393C121.09 129.029 123.086 128.084 125.226 127.637C125.383 127.608 125.545 127.61 125.702 127.644C125.859 127.677 126.009 127.74 126.142 127.83C126.274 127.919 126.388 128.034 126.477 128.167C126.565 128.3 126.627 128.448 126.657 128.604C126.688 128.759 126.687 128.919 126.655 129.074C126.623 129.228 126.56 129.375 126.471 129.505C126.381 129.635 126.266 129.747 126.133 129.833C125.999 129.919 125.849 129.978 125.692 130.006C123.936 130.39 122.298 131.17 120.906 132.286C114.44 137.23 110.135 147.759 111.293 155.762L114.562 178.364C114.608 178.68 114.525 179 114.331 179.253C114.137 179.507 113.848 179.673 113.528 179.714Z" fill="#081E7A"/>
<path d="M125.282 184.262C124.964 184.304 124.64 184.219 124.382 184.025C124.125 183.831 123.955 183.545 123.909 183.229L119.253 150.933C118.976 149.247 119.106 147.524 119.63 145.905C121.166 141.441 124.475 139.427 126.882 140.41C127.552 140.728 128.126 141.217 128.543 141.826C128.96 142.435 129.206 143.142 129.255 143.874L130.944 155.588C130.99 155.905 130.907 156.224 130.714 156.477C130.52 156.731 130.233 156.896 129.914 156.938C129.596 156.98 129.272 156.895 129.014 156.701C128.757 156.507 128.586 156.221 128.541 155.905L126.85 144.178C126.847 143.869 126.767 143.564 126.616 143.292C126.466 143.019 126.25 142.787 125.988 142.616C125.234 142.314 123.849 143.152 122.739 144.877C121.711 146.517 121.316 148.473 121.624 150.391L126.314 182.924C126.356 183.239 126.271 183.556 126.078 183.806C125.885 184.057 125.599 184.221 125.282 184.262Z" fill="#081E7A"/>
<path d="M134.266 187.102C133.95 187.144 133.629 187.059 133.374 186.865C133.118 186.671 132.95 186.385 132.904 186.069L129.807 164.42C129.762 164.104 129.844 163.784 130.036 163.531C130.227 163.278 130.512 163.113 130.828 163.071C131.144 163.029 131.465 163.114 131.721 163.308C131.976 163.502 132.145 163.788 132.19 164.104L135.287 185.753C135.333 186.069 135.25 186.389 135.059 186.642C134.867 186.895 134.582 187.06 134.266 187.102Z" fill="#081E7A"/>
<path d="M116.773 203.924C116.455 203.966 116.133 203.881 115.876 203.687C115.619 203.493 115.45 203.207 115.404 202.891L113.692 190.979C113.647 190.663 113.729 190.343 113.922 190.09C114.114 189.837 114.401 189.671 114.718 189.63C115.036 189.588 115.358 189.673 115.615 189.867C115.872 190.061 116.041 190.347 116.087 190.663L117.799 202.575C117.844 202.891 117.762 203.211 117.569 203.464C117.377 203.717 117.09 203.882 116.773 203.924Z" fill="#081E7A"/>
<path d="M92.833 73.2556C91.2254 73.487 89.5799 73.1817 88.158 72.3881C86.7362 71.5945 85.6195 70.3582 84.9855 68.8756L86.0712 68.343C86.4592 69.2199 87.0416 70.0016 87.7751 70.6303C88.5087 71.259 89.3747 71.7185 90.3091 71.9748C92.5745 72.4961 95.2161 71.6866 97.894 69.6763L125.935 48.2971C130.993 44.4375 134.856 37.0359 135.562 29.95L136.816 30.0666C136.085 37.4855 132.041 45.2646 126.739 49.3148L98.6989 70.6206C97.0148 71.9891 94.9929 72.8974 92.833 73.2556Z" fill="#081E7A"/>
<path d="M91.4519 299.445L81.6859 294.819C80.9351 294.352 80.3087 293.713 79.8609 292.956C79.4132 292.2 79.1574 291.349 79.1157 290.478L49.3811 84.8979C48.7981 80.8669 50.6244 75.8152 53.4696 73.6436L143.35 4.91353C143.833 4.48513 144.412 4.17515 145.041 4.00828C145.67 3.84142 146.332 3.8223 146.972 3.95243C148.377 4.31509 157.41 8.12515 157.743 8.30027L157.274 9.39465C154.658 8.30377 147.772 5.40302 146.674 5.12165C146.214 5.04268 145.743 5.0693 145.297 5.19943C144.851 5.32956 144.442 5.5597 144.103 5.87199L54.2591 74.5973C51.7241 76.5338 50.0959 81.0856 50.6324 84.7946L80.3583 290.315C80.3892 290.985 80.5774 291.641 80.9079 292.23C81.2385 292.819 81.7024 293.326 82.2632 293.711L92.0016 298.315L91.4519 299.445Z" fill="#081E7A"/>
<path d="M92.9777 299.525C92.395 299.605 91.7997 299.533 91.2513 299.314C89.7885 298.716 88.7666 297.088 88.439 294.823L58.7111 89.2371C58.1283 85.2064 59.954 80.1552 62.7983 77.9838L152.632 9.23738C153.167 8.75397 153.825 8.42347 154.538 8.28081C155.25 8.13815 155.991 8.18862 156.681 8.42689C158.144 9.02486 159.176 10.6392 159.505 12.9169L189.233 218.503C189.816 222.533 187.976 227.574 185.132 229.746L95.2932 298.456C94.6341 299.011 93.8345 299.381 92.9777 299.525ZM155.136 9.468C154.493 9.57151 153.891 9.84339 153.394 10.2554L63.5513 78.9421C61.0171 80.8785 59.3895 85.4299 59.9172 89.0789L89.6502 294.7C89.9106 296.501 90.6602 297.776 91.7043 298.198C92.1966 298.349 92.7197 298.369 93.2195 298.254C93.7193 298.14 94.1776 297.895 94.5471 297.545L94.9227 298.019L94.5471 297.545L184.381 228.799C186.915 226.863 188.555 222.31 188.027 218.661L158.294 13.0393C158.034 11.2386 157.284 9.96387 156.226 9.53153C155.876 9.39534 155.497 9.35284 155.127 9.40837L155.136 9.468Z" fill="#081E7A"/>
<path fill-rule="evenodd" clip-rule="evenodd" d="M101.932 60.2643L119.644 46.7404C119.887 46.5109 120.071 46.2282 120.183 45.9149C120.294 45.6015 120.329 45.266 120.286 44.9353C120.192 44.2884 119.748 44.0413 119.29 44.382L101.59 57.9043C101.344 58.1328 101.158 58.4152 101.044 58.7289C100.931 59.0427 100.893 59.379 100.936 59.711C101.03 60.3579 101.522 60.5986 101.932 60.2643Z" fill="#081E7A"/>
<path d="M112.665 221.561C108.241 222.207 103.711 221.673 99.5444 220.015C89.7632 216.049 83.2374 205.936 81.1491 191.53L82.3602 191.372C84.3845 205.336 90.6524 215.117 100.001 218.909C109.35 222.701 120.924 220.054 132.349 211.354C156.146 193.33 171.917 154.849 167.682 125.631C165.659 111.679 159.391 101.897 150.043 98.1056C140.694 94.3139 129.119 96.9601 117.694 105.661L116.938 104.701C128.719 95.7344 140.638 92.9944 150.497 96.9871C160.357 100.98 166.806 111.079 168.893 125.473C173.184 155.073 157.137 193.955 133.152 212.296C126.218 217.585 119.241 220.701 112.665 221.561Z" fill="#081E7A"/>
<path opacity="0.08" d="M264.59 241.359L251.238 233.597C247.549 231.483 241.832 231.194 238.598 233.081L130.398 294.14C127.152 295.978 127.558 299.162 131.308 301.277L144.661 309.038C148.349 311.153 154.067 311.381 157.3 309.555L265.5 248.484C268.685 246.657 268.279 243.462 264.59 241.359Z" fill="black"/>
<path fill-rule="evenodd" clip-rule="evenodd" d="M153.254 305.855L253.081 249.529C256.081 247.847 258.504 243.329 258.504 239.46V32.2882C258.504 28.4074 256.044 26.6292 253.081 28.3233L153.254 84.649C150.267 86.3311 147.844 90.8366 147.844 94.7174V301.89C147.844 305.77 150.242 307.537 153.254 305.855Z" fill="#E3FFFF"/>
<path fill-rule="evenodd" clip-rule="evenodd" d="M147.845 302.358V94.5012C147.719 92.5347 148.118 90.57 149.001 88.7989C149.885 87.0279 151.223 85.5111 152.886 84.3967L253.07 27.9269C253.685 27.5637 254.381 27.3495 255.098 27.3022C252.566 25.8364 247.438 22.8807 246.492 22.4962C245.961 22.2942 245.389 22.2151 244.822 22.2651C244.254 22.3152 243.706 22.493 243.221 22.7846L143.419 79.1342C140.431 80.8163 138.009 85.3219 138.009 89.2027V296.315C137.928 297.085 138.039 297.863 138.332 298.583C138.625 299.303 139.092 299.943 139.693 300.448C139.792 300.52 145.152 303.524 148.017 305.146C147.8 304.715 147.673 304.247 147.644 303.769C147.614 303.29 147.683 302.811 147.845 302.358Z" fill="#27AAE1"/>
<path fill-rule="evenodd" clip-rule="evenodd" d="M233.777 39.233L232.105 45.9853C230.359 53.05 225.306 60.0306 219.613 63.2386L188.714 80.6721C183.022 83.8921 177.98 82.6065 176.222 77.5122L174.55 72.7063L233.777 39.233Z" fill="#67DAFF"/>
<path d="M236.831 190.804C255.692 159.389 255.912 125.282 237.322 114.624C218.732 103.966 188.372 120.793 169.51 152.208C150.648 183.624 150.428 217.731 169.018 228.389C187.608 239.046 217.969 222.219 236.831 190.804Z" fill="white"/>
<path d="M227.765 194.597C227.596 194.597 227.429 194.564 227.274 194.498C227.119 194.433 226.979 194.337 226.864 194.216C226.748 194.095 226.66 193.953 226.603 193.797C226.547 193.641 226.524 193.476 226.536 193.311V145.108C226.536 138.007 224.286 132.744 220.216 130.305C216.146 127.866 210.576 128.515 204.588 132.047C199.3 135.427 194.79 139.846 191.346 145.023C191.255 145.16 191.136 145.278 190.996 145.368C190.857 145.459 190.7 145.521 190.536 145.55C190.371 145.579 190.202 145.575 190.039 145.538C189.876 145.502 189.723 145.433 189.588 145.336C189.319 145.129 189.141 144.83 189.091 144.499C189.041 144.169 189.122 143.832 189.317 143.558C192.965 138.075 197.748 133.401 203.359 129.837C210.133 125.764 216.552 125.139 221.445 128.082C226.339 131.026 228.995 137.058 228.995 145.108V193.395C228.995 193.714 228.865 194.02 228.635 194.245C228.404 194.47 228.091 194.597 227.765 194.597Z" fill="#081E7A"/>
<path d="M179.812 216.308C179.643 216.308 179.476 216.274 179.321 216.209C179.166 216.143 179.026 216.047 178.911 215.927C178.795 215.806 178.707 215.663 178.65 215.508C178.594 215.352 178.571 215.187 178.582 215.022V172.67C178.68 167.049 179.761 161.486 181.779 156.221C181.833 156.071 181.917 155.932 182.026 155.813C182.135 155.694 182.267 155.598 182.415 155.53C182.563 155.462 182.723 155.423 182.886 155.416C183.049 155.409 183.212 155.433 183.365 155.489C183.676 155.626 183.922 155.874 184.052 156.182C184.182 156.49 184.187 156.835 184.066 157.147C182.16 162.115 181.137 167.365 181.041 172.67V215.022C181.053 215.187 181.03 215.352 180.974 215.508C180.917 215.663 180.829 215.806 180.713 215.927C180.598 216.047 180.458 216.143 180.303 216.209C180.148 216.274 179.981 216.308 179.812 216.308Z" fill="#081E7A"/>
<path d="M216.7 188.085C216.374 188.085 216.061 187.958 215.83 187.733C215.6 187.508 215.47 187.202 215.47 186.883V151.92C215.545 149.98 215.078 148.057 214.118 146.357C214.032 146.223 213.975 146.073 213.949 145.916C213.924 145.76 213.93 145.6 213.968 145.446C214.005 145.292 214.074 145.146 214.169 145.018C214.265 144.89 214.385 144.782 214.523 144.699C214.662 144.616 214.816 144.561 214.977 144.537C215.137 144.513 215.301 144.52 215.459 144.558C215.617 144.596 215.765 144.664 215.896 144.758C216.027 144.853 216.137 144.971 216.22 145.108C217.423 147.181 218.015 149.539 217.929 151.92V186.883C217.929 187.202 217.8 187.508 217.569 187.733C217.339 187.958 217.026 188.085 216.7 188.085Z" fill="#081E7A"/>
<path d="M188.419 191.269C188.093 191.269 187.78 191.142 187.55 190.917C187.319 190.692 187.19 190.386 187.19 190.067V167.299C187.19 158.48 193.571 147.691 201.428 143.269C203.312 142.139 205.445 141.464 207.649 141.299C207.811 141.291 207.972 141.314 208.125 141.367C208.277 141.42 208.417 141.502 208.537 141.608C208.657 141.714 208.754 141.842 208.823 141.985C208.892 142.128 208.932 142.283 208.94 142.44C208.948 142.598 208.925 142.756 208.87 142.905C208.816 143.053 208.732 143.19 208.624 143.308C208.515 143.425 208.384 143.52 208.238 143.587C208.092 143.655 207.934 143.694 207.772 143.702C205.961 143.854 204.21 144.413 202.657 145.336C195.477 149.385 189.649 159.237 189.649 167.299V190.067C189.649 190.386 189.519 190.692 189.289 190.917C189.058 191.142 188.745 191.269 188.419 191.269Z" fill="#081E7A"/>
<path d="M199.486 197.348C199.16 197.348 198.847 197.222 198.616 196.997C198.386 196.771 198.256 196.466 198.256 196.147V163.587C198.223 161.882 198.602 160.194 199.363 158.661C201.551 154.443 205.166 152.882 207.441 154.167C208.068 154.569 208.573 155.127 208.904 155.784C209.234 156.442 209.379 157.173 209.322 157.904V169.714C209.322 170.033 209.193 170.339 208.962 170.564C208.731 170.789 208.419 170.916 208.093 170.916C207.766 170.916 207.454 170.789 207.223 170.564C206.993 170.339 206.863 170.033 206.863 169.714V157.892C206.905 157.585 206.868 157.273 206.757 156.984C206.645 156.695 206.462 156.437 206.224 156.234C205.511 155.837 203.998 156.486 202.633 158.048C201.364 159.537 200.684 161.421 200.715 163.358V196.159C200.712 196.476 200.581 196.778 200.351 197.001C200.121 197.224 199.81 197.348 199.486 197.348Z" fill="#081E7A"/>
<path d="M208.093 201.373C207.766 201.373 207.454 201.247 207.223 201.021C206.993 200.796 206.863 200.491 206.863 200.172V178.329C206.863 178.01 206.993 177.704 207.223 177.479C207.454 177.254 207.766 177.127 208.093 177.127C208.419 177.127 208.731 177.254 208.962 177.479C209.193 177.704 209.322 178.01 209.322 178.329V200.172C209.322 200.491 209.193 200.796 208.962 201.021C208.731 201.247 208.419 201.373 208.093 201.373Z" fill="#081E7A"/>
<path d="M188.419 215.707C188.093 215.707 187.78 215.58 187.55 215.355C187.319 215.13 187.19 214.824 187.19 214.506V202.491C187.19 202.172 187.319 201.867 187.55 201.641C187.78 201.416 188.093 201.289 188.419 201.289C188.745 201.289 189.058 201.416 189.289 201.641C189.519 201.867 189.649 202.172 189.649 202.491V214.506C189.649 214.824 189.519 215.13 189.289 215.355C189.058 215.58 188.745 215.707 188.419 215.707Z" fill="#081E7A"/>
<path d="M182.814 83.0268C181.182 83.0475 179.591 82.535 178.292 81.5706C176.994 80.6062 176.062 79.2453 175.645 77.7042L176.801 77.3198C177.06 78.233 177.526 79.0775 178.165 79.7909C178.803 80.5042 179.598 81.0681 180.49 81.4408C182.666 82.2458 185.408 81.7893 188.359 80.1553L219.306 62.7217C224.889 59.5738 229.794 52.7854 231.516 45.9009L232.745 46.1773C230.95 53.3862 225.811 60.523 219.958 63.8271L189.023 81.1885C187.152 82.3188 185.012 82.9524 182.814 83.0268Z" fill="#081E7A"/>
<path d="M149.013 306.78L139.915 300.94C139.231 300.381 138.697 299.668 138.359 298.862C138.021 298.056 137.888 297.182 137.972 296.315V89.2026C137.972 85.1416 140.53 80.3837 143.69 78.6055L243.529 22.3039C244.074 21.943 244.698 21.7116 245.352 21.6282C246.005 21.5448 246.669 21.6116 247.291 21.8233C248.644 22.364 257.127 27.3021 257.435 27.5183L256.808 28.5396C254.349 27.1219 247.881 23.3612 246.824 22.9407C246.375 22.8029 245.9 22.7681 245.435 22.839C244.97 22.9098 244.528 23.0844 244.143 23.3492L144.341 79.6508C141.526 81.2368 139.239 85.5261 139.239 89.2627V296.315C139.173 296.981 139.266 297.654 139.511 298.28C139.757 298.905 140.147 299.466 140.653 299.919L149.727 305.734L149.013 306.78Z" fill="#081E7A"/>
<path d="M150.477 307.092C149.882 307.096 149.297 306.946 148.78 306.66C147.403 305.879 146.616 304.136 146.616 301.854V94.7175C146.616 90.6565 149.174 85.8986 152.334 84.1204L252.16 27.7948C252.765 27.3862 253.472 27.1448 254.206 27.0961C254.939 27.0475 255.673 27.1934 256.329 27.5185C257.706 28.2995 258.505 30.0296 258.505 32.3244V239.46C258.505 243.521 255.935 248.267 252.775 250.046L152.948 306.335C152.209 306.799 151.355 307.06 150.477 307.092ZM254.632 28.3475C253.973 28.3665 253.332 28.5573 252.775 28.9002L152.948 85.1657C150.133 86.7517 147.846 91.041 147.846 94.7175V301.89C147.846 303.704 148.411 305.062 149.395 305.614C149.866 305.828 150.386 305.915 150.903 305.867C151.419 305.818 151.913 305.635 152.334 305.338L152.641 305.855L152.334 305.338L252.16 249.012C254.976 247.426 257.275 243.137 257.275 239.46V32.2884C257.275 30.4741 256.71 29.1165 255.714 28.5518C255.383 28.3717 255.01 28.2805 254.632 28.2874V28.3475Z" fill="#081E7A"/>
<path fill-rule="evenodd" clip-rule="evenodd" d="M193.732 71.4086L213.282 60.3789C213.556 60.1843 213.78 59.9298 213.936 59.6357C214.092 59.3416 214.175 59.0159 214.179 58.6848C214.179 58.036 213.774 57.7356 213.27 58.0119L193.732 69.0416C193.456 69.2349 193.229 69.4889 193.071 69.7831C192.913 70.0773 192.828 70.4036 192.822 70.7358C192.822 71.3846 193.277 71.6849 193.732 71.4086Z" fill="#081E7A"/>
<path d="M181.535 232.468C177.034 232.534 172.598 231.422 168.686 229.248C159.514 224.069 154.472 213.244 154.472 198.754H155.702C155.702 212.799 160.534 223.264 169.301 228.214C178.067 233.165 189.982 232.047 202.621 224.934C228.934 210.216 250.205 174.268 250.205 144.879C250.205 130.846 245.373 120.381 236.606 115.431C227.839 110.481 215.925 111.598 203.285 118.711L202.671 117.666C215.704 110.337 227.975 109.171 237.221 114.386C246.467 119.6 251.434 130.402 251.434 144.879C251.434 174.652 229.831 210.961 203.285 225.968C195.613 230.293 188.211 232.468 181.535 232.468Z" fill="#081E7A"/>
</svg>
