<svg width="377" height="287" viewBox="0 0 377 287" fill="none" xmlns="http://www.w3.org/2000/svg">
<path opacity="0.08" fill-rule="evenodd" clip-rule="evenodd" d="M325.588 305.478L216.205 368.804C197.021 378.404 165.901 378.404 146.717 368.804L14.3879 290.67C-4.79608 281.087 -4.79608 265.54 14.3879 255.941L123.771 192.614C142.955 183.015 174.075 183.015 193.259 192.614L325.588 270.748C344.772 280.332 344.772 295.878 325.588 305.478Z" fill="black"/>
<path d="M38.4295 186.82C47.5126 181.597 55.8246 180.657 62.1781 183.369L110.847 156.081V120.381C109.961 119.415 109.325 118.245 108.997 116.976L64.5838 90.4587V130.196C65.7094 131.521 66.3749 133.176 66.4807 134.911L76.3965 140.103C77.02 140.432 77.5419 140.924 77.9061 141.526C78.2702 142.129 78.4628 142.82 78.4629 143.524V155.08C78.4618 155.667 78.3269 156.246 78.0683 156.774C77.8097 157.301 77.4344 157.763 76.9706 158.124C76.5069 158.485 75.967 158.735 75.392 158.857C74.8169 158.978 74.2217 158.967 73.6515 158.824C72.7998 158.584 72.0523 158.068 71.5273 157.357C71.0022 156.645 70.7295 155.779 70.7523 154.895V145.835L63.2268 141.891C61.8363 142.908 60.154 143.448 58.4308 143.431C56.6981 143.448 55.006 142.908 53.6039 141.891L46.0784 145.835V155.08C46.0773 155.667 45.9423 156.246 45.6837 156.774C45.4252 157.301 45.0498 157.763 44.5861 158.124C44.1224 158.485 43.5825 158.735 43.0074 158.857C42.4323 158.978 41.8371 158.967 41.267 158.824C40.4153 158.584 39.6678 158.068 39.1427 157.357C38.6176 156.645 38.345 155.779 38.3678 154.895V143.524C38.368 142.82 38.5605 142.129 38.9247 141.526C39.2888 140.924 39.8108 140.432 40.4342 140.103L50.3809 134.926C50.492 133.226 51.146 131.606 52.2469 130.304V85.7439C51.4478 84.8119 50.8738 83.7089 50.569 82.5201C50.2642 81.3313 50.2368 80.0884 50.4889 78.8873C50.8447 77.1652 51.7504 75.6049 53.0699 74.4412C54.3893 73.2775 56.0512 72.5733 57.8057 72.4343C59.5602 72.2953 61.3124 72.7291 62.7989 73.6705C64.2854 74.6119 65.4259 76.0101 66.0489 77.6547L65.9563 77.8088C66.2632 77.9162 66.5578 78.0556 66.8354 78.2248L115.15 107.115C117.617 106.591 120.378 106.576 123.956 111.46C124.648 112.348 125.067 113.419 125.158 114.541C125.271 116.517 124.65 118.464 123.416 120.011V135.296L127.148 121.321C133.173 112.413 141.066 104.921 150.28 99.3646C150.28 99.3646 183.651 80.274 184.777 79.9197C184.623 79.1339 184.53 64.8352 184.53 64.8352C184.458 63.9183 184.61 62.9977 184.973 62.1523C185.335 61.307 185.898 60.5621 186.612 59.9817C186.859 59.8122 202.604 51.0605 203.807 50.2901C205.611 49.1037 208.433 49.2886 211.517 51.0759L247.449 71.6918C252.908 74.7734 257.349 81.8457 257.349 87.3155V100.027C257.349 100.027 256.115 104.357 254.527 105.189C253.74 105.589 250.44 107.438 246.909 109.426L246.832 113.478C251.073 115.867 260.433 120.597 260.433 120.597V99.9963C260.433 99.9963 260.125 97.4232 261.281 96.7452L262.731 95.8978C262.452 94.7636 262.262 93.6098 262.16 92.4464C262.16 89.827 263.132 88.0397 264.674 87.2847L270.596 83.8333L266.787 40.0592L293.897 1.77026L348.118 33.0485L375.229 102.693L348.118 140.905L281.93 102.939C281.745 103.062 275.531 106.714 275.114 106.868C274.266 107.103 273.377 107.15 272.509 107.006C271.641 106.862 270.814 106.531 270.087 106.036C268.89 105.1 267.742 104.102 266.648 103.047V124.526C277.443 130.489 286.696 135.466 290.967 137.777C294.051 138.609 295.948 141.351 295.948 145.666V182.306C301.901 185.588 305.201 190.01 305.078 194.494H305.201V212.475C305.525 212.583 326.174 223.877 326.174 223.877C332.049 227.883 335.627 235.618 335.627 246.388C335.627 269.269 319.419 297.234 299.511 308.713C289.934 314.229 281.236 314.876 274.837 311.687C274.837 311.764 264.335 305.524 257.873 302.334C250.78 298.852 246.338 290.609 246.338 278.621C246.463 270.794 247.923 263.046 250.656 255.71L219.613 272.951C224.733 275.832 230.532 279.361 230.532 279.361C236.407 283.367 239.985 291.102 239.985 301.857C239.985 324.737 223.777 352.703 203.853 364.197C194.292 369.713 185.594 370.438 179.179 367.171C179.179 367.171 168.723 360.915 162.216 357.741C155.122 354.259 150.68 346 150.68 334.028C150.68 324.214 153.657 313.474 158.638 303.49L155.754 305.154C144.959 306.34 133.255 304.846 124.912 300.655L69.7191 268.067C65.4854 272.298 60.7764 276.026 55.6858 279.176C46.1246 284.692 37.4117 285.339 31.0118 282.15C31.0118 282.15 20.5563 275.894 14.0485 272.72C6.95477 269.238 2.51346 260.979 2.51346 249.007C2.31299 226.28 18.5207 198.315 38.4295 186.82Z" fill="#E3FFFF"/>
<path d="M348.118 33.0486L375.229 102.6L281.884 97.6698L279.324 90.2277L348.118 33.0486Z" fill="#67DAFF"/>
<path d="M375.368 102.6L348.257 140.889L282.023 102.939V97.6697L375.368 102.6Z" fill="#27AAE1"/>
<path d="M293.897 1.77026L274.266 86.314L270.58 83.5714L266.802 40.0592L293.897 1.77026Z" fill="#67DAFF"/>
<path d="M275.053 106.853C275.053 106.853 279.926 103.956 281.329 103.263C282.732 102.57 283.843 100.705 283.843 98.0704C283.692 95.3456 282.899 92.6948 281.53 90.3335C280.161 87.9722 278.253 85.9669 275.963 84.4805C275.169 83.9 274.235 83.5411 273.256 83.4409C272.278 83.3407 271.29 83.5028 270.395 83.9104C268.961 84.7271 264.674 87.254 264.674 87.254L275.053 106.853Z" fill="#67DAFF"/>
<path d="M266.602 102.261L268.576 101.152C269.016 100.901 269.403 100.566 269.714 100.166C270.025 99.7653 270.254 99.3079 270.387 98.8193C270.521 98.3307 270.558 97.8205 270.494 97.3179C270.431 96.8153 270.269 96.3301 270.018 95.89C269.51 95.0012 268.671 94.3501 267.683 94.0799C267.194 93.9461 266.683 93.9099 266.18 93.9733C265.677 94.0367 265.192 94.1984 264.751 94.4493L262.207 95.9901L262.099 95.7898C261.809 94.725 261.658 93.6269 261.652 92.5233C261.652 87.5311 265.168 85.5127 269.532 88.0242C271.822 89.5114 273.728 91.517 275.098 93.8781C276.467 96.2392 277.26 98.8895 277.412 101.614C277.412 106.622 273.881 108.64 269.532 106.129C268.834 105.714 268.174 105.239 267.558 104.711L266.602 103.17V102.261Z" fill="#27AAE1"/>
<path d="M25.1365 235.109L29.0226 243.075L69.4417 268.683C65.5433 272.779 61.0956 276.315 56.2257 279.191C36.4248 290.67 20.2788 281.426 20.2788 258.622C20.3301 250.541 21.981 242.55 25.1365 235.109Z" fill="#27AAE1"/>
<path d="M203.915 281.133C223.762 269.685 239.908 278.914 239.908 301.702C239.908 324.491 223.762 352.349 203.915 363.797C184.068 375.245 167.937 366.015 167.937 343.227C167.937 320.439 184.083 292.581 203.915 281.133Z" fill="#27AAE1"/>
<path d="M299.233 225.957C319.065 214.509 335.211 223.738 335.211 246.526C335.211 269.315 319.065 297.157 299.233 308.605C279.401 320.053 263.24 310.701 263.24 287.959C263.24 265.216 279.386 237.328 299.233 225.957Z" fill="#27AAE1"/>
<path d="M309.781 261.071C309.574 264.804 308.489 268.434 306.613 271.669C304.737 274.903 302.124 277.649 298.986 279.684C293.018 283.12 288.192 280.362 288.192 273.521C288.396 269.788 289.481 266.157 291.357 262.922C293.233 259.688 295.847 256.942 298.986 254.908C304.954 251.472 309.781 254.23 309.781 261.071Z" fill="#67DAFF"/>
<path d="M150.742 99.3184L181.492 81.5838C182.71 80.8703 184.01 80.3064 185.363 79.9043C185.294 80.2864 185.294 80.6778 185.363 81.0599C186.396 86.2524 191.238 90.5512 195.587 93.263L196.065 93.8948L188.57 119.41L222.728 138.763L249.546 122.723C249.546 122.723 244.411 111.213 246.338 110.212L249.546 113.478C274.05 127.669 293.62 139.04 293.62 139.04L200.476 237.574L145.453 205.926L124.727 194.324L124.033 132.692L127.718 121.182C133.721 112.317 141.576 104.858 150.742 99.3184Z" fill="white"/>
<path d="M200.414 237.574L295.902 182.491V145.373C295.902 137.777 289.734 135.173 282.116 139.564L251.366 157.299C240.571 163.462 230.454 174.248 223.823 186.574L200.414 237.574Z" fill="#67DAFF"/>
<path d="M63.9208 142.245L70.7524 145.835V154.864C70.7288 155.75 71.0009 156.618 71.5258 157.333C72.0508 158.047 72.7987 158.566 73.6516 158.809C74.2218 158.951 74.817 158.963 75.392 158.841C75.9671 158.72 76.507 158.469 76.9707 158.108C77.4345 157.748 77.8098 157.286 78.0684 156.759C78.3269 156.231 78.4619 155.652 78.463 155.065V143.509C78.4617 142.807 78.2686 142.119 77.9044 141.518C77.5402 140.918 77.0188 140.429 76.3966 140.103L67.3443 135.342L63.9208 142.245Z" fill="#67DAFF"/>
<path d="M49.4866 135.342L40.4344 140.103C39.8121 140.429 39.2908 140.918 38.9266 141.518C38.5624 142.119 38.3692 142.807 38.3679 143.509V154.864C38.3443 155.75 38.6164 156.618 39.1413 157.333C39.6663 158.047 40.4142 158.566 41.2671 158.809C41.8373 158.951 42.4325 158.963 43.0076 158.841C43.5827 158.72 44.1225 158.469 44.5863 158.108C45.05 157.748 45.4253 157.286 45.6839 156.759C45.9425 156.231 46.0774 155.652 46.0785 155.065V145.835L52.9102 142.245L49.4866 135.342Z" fill="#67DAFF"/>
<path fill-rule="evenodd" clip-rule="evenodd" d="M110.755 171.335C110.832 171.335 110.832 176.451 110.832 176.451C110.812 177.612 111.13 178.753 111.745 179.737C112.361 180.722 113.249 181.507 114.302 181.998C115.246 182.457 116.292 182.668 117.341 182.61C118.389 182.552 119.406 182.228 120.294 181.667C121.182 181.107 121.912 180.33 122.415 179.409C122.918 178.488 123.178 177.454 123.169 176.405V171.32C128.044 172.668 132.343 175.575 135.406 179.596C138.47 183.617 140.13 188.531 140.132 193.585V218.053C140.132 222.783 135.799 227.513 127.117 230.102C120.515 232.058 113.486 232.058 106.884 230.102C98.2022 227.513 93.8688 222.783 93.8688 218.053V193.6C93.8664 188.556 95.5154 183.65 98.5643 179.63C101.613 175.61 105.894 172.697 110.755 171.335Z" fill="#67DAFF"/>
<path fill-rule="evenodd" clip-rule="evenodd" d="M86.8522 221.073C86.5747 227.236 92.0492 233.568 103.384 237.02C112.098 239.647 121.394 239.647 130.109 237.02C139.469 234.216 144.805 229.47 146.316 224.431V228.669C146.316 234.493 141.274 240.317 131.188 243.768C121.5 247.072 110.99 247.072 101.302 243.768C91.2164 240.333 86.1737 234.524 86.1737 228.684V221.073H86.8522Z" fill="#27AAE1"/>
<path fill-rule="evenodd" clip-rule="evenodd" d="M124.634 190.518C127.33 190.536 129.922 191.561 131.899 193.392C133.877 195.222 135.098 197.726 135.321 200.41V226.804C132.46 228.21 129.52 229.45 126.516 230.518C122.491 231.55 113.901 231.38 113.901 231.38V200.41C114.125 197.718 115.352 195.208 117.34 193.376C119.327 191.544 121.93 190.524 124.634 190.518Z" fill="#27AAE1"/>
<path d="M58.9552 72.4931C60.5943 72.4948 62.1943 72.9936 63.5436 73.9236C64.8928 74.8535 65.9278 76.1707 66.5116 77.701L66.3728 77.9783C59.2791 75.9444 55.9018 81.63 61.3455 88.2092C60.96 88.2092 59.3562 88.6869 58.9552 88.6869C57.8613 88.7346 56.769 88.5605 55.7442 88.1751C54.7194 87.7897 53.7833 87.2009 52.9923 86.4444C52.2013 85.6878 51.5718 84.7791 51.1418 83.7729C50.7118 82.7668 50.4901 81.684 50.4901 80.59C50.4901 79.4959 50.7118 78.4132 51.1418 77.407C51.5718 76.4009 52.2013 75.4921 52.9923 74.7356C53.7833 73.979 54.7194 73.3903 55.7442 73.0049C56.769 72.6195 57.8613 72.4454 58.9552 72.4931Z" fill="#27AAE1"/>
<path d="M109.213 114.927C109.213 116.53 109.689 118.097 110.58 119.429C111.471 120.762 112.738 121.801 114.22 122.414C115.703 123.028 117.333 123.188 118.907 122.876C120.48 122.563 121.926 121.791 123.06 120.657C124.195 119.524 124.967 118.08 125.28 116.508C125.593 114.936 125.433 113.306 124.819 111.825C124.205 110.344 123.165 109.078 121.831 108.188C120.497 107.297 118.929 106.822 117.324 106.822C116.259 106.82 115.203 107.028 114.218 107.435C113.233 107.841 112.338 108.438 111.584 109.191C110.831 109.944 110.233 110.839 109.826 111.823C109.419 112.807 109.211 113.862 109.213 114.927Z" fill="#27AAE1"/>
<path d="M50.8437 135.404C50.8345 137.009 51.3025 138.58 52.1882 139.919C53.0739 141.258 54.3375 142.304 55.8189 142.924C57.3002 143.545 58.9326 143.712 60.5092 143.405C62.0857 143.097 63.5353 142.329 64.6744 141.197C65.8134 140.066 66.5906 138.622 66.9074 137.048C67.2241 135.475 67.0662 133.843 66.4536 132.359C65.8411 130.876 64.8014 129.607 63.4665 128.715C62.1316 127.822 60.5615 127.345 58.9552 127.345C56.8119 127.345 54.7557 128.193 53.2358 129.703C51.7159 131.213 50.8559 133.262 50.8437 135.404Z" fill="#27AAE1"/>
<path d="M240.386 109.688V96.9611C240.386 91.5066 235.96 84.5422 230.501 81.399L194.754 60.7677C192.025 59.2269 189.557 58.8725 187.769 59.6275C191.053 57.7939 202.928 51.1685 204.13 50.3827C205.935 49.2117 208.757 49.3811 211.841 51.1531L247.479 71.769C252.923 74.8506 257.349 81.8766 257.349 87.3157V100.027C257.453 101.043 257.266 102.067 256.81 102.981C256.354 103.895 255.648 104.66 254.774 105.189C253.232 105.944 242.56 112.015 238.766 114.172C239.329 113.575 239.763 112.869 240.041 112.098C240.32 111.326 240.437 110.506 240.386 109.688Z" fill="white"/>
<path d="M195.757 78.841C195.809 79.6072 196.038 80.3508 196.426 81.0137C196.814 81.6766 197.35 82.2408 197.993 82.6622C199.242 83.371 200.244 82.8009 200.244 81.3834C200.205 80.6041 199.98 79.8454 199.588 79.1702C199.196 78.4951 198.65 77.9227 197.993 77.5005C196.759 76.8534 195.757 77.4235 195.757 78.841Z" fill="#081E7A"/>
<path d="M225.073 103.771C224.861 100.156 223.801 96.6404 221.98 93.509C220.158 90.3776 217.626 87.7177 214.586 85.744C211.826 84.2032 209.312 83.9412 207.431 84.8657C207.431 84.8657 213.152 81.4914 215.049 80.3974C216.946 79.3034 219.567 79.4729 222.466 81.1524C225.516 83.1337 228.055 85.8057 229.877 88.9514C231.699 92.0971 232.753 95.6278 232.953 99.2568C232.953 102.739 231.673 105.127 229.606 106.144C228.311 106.776 224.795 108.841 222.775 110.042C223.591 109.227 224.219 108.243 224.616 107.16C225.013 106.077 225.169 104.921 225.073 103.771Z" fill="#67DAFF"/>
<path d="M199.335 96.9148C199.485 99.6399 200.276 102.291 201.646 104.653C203.015 107.014 204.923 109.019 207.215 110.505C211.564 113.016 215.08 110.998 215.08 106.006C214.93 103.282 214.14 100.632 212.774 98.271C211.407 95.9098 209.503 93.9037 207.215 92.4157C202.851 89.9042 199.335 91.9072 199.335 96.9148Z" fill="#27AAE1"/>
<path d="M281.452 89.9964L348.612 33.634C348.708 33.5563 348.784 33.4561 348.833 33.3423C348.881 33.2285 348.901 33.1045 348.89 32.9812C348.88 32.858 348.839 32.7392 348.772 32.6354C348.704 32.5316 348.612 32.4459 348.504 32.3859L294.268 1.10767L293.496 2.43275L346.7 33.1563L280.388 88.8254L281.452 89.9964Z" fill="#081E7A"/>
<path d="M375.229 103.386C375.352 103.384 375.473 103.354 375.583 103.298C375.692 103.242 375.788 103.161 375.861 103.063C375.941 102.959 375.995 102.838 376.019 102.709C376.043 102.581 376.037 102.448 376 102.323L348.843 32.7712L347.409 33.3259L374.072 101.768L288.855 97.2537L288.762 98.7945L375.121 103.417L375.229 103.386Z" fill="#081E7A"/>
<path d="M348.118 141.66C348.242 141.662 348.365 141.633 348.475 141.577C348.585 141.52 348.68 141.438 348.751 141.336L375.861 103.047L374.597 102.169L347.902 139.872L282.27 102.261L281.499 103.602L347.733 141.567C347.853 141.627 347.984 141.659 348.118 141.66Z" fill="#081E7A"/>
<path d="M269.809 83.6484L271.352 83.5098L267.589 40.2749L292.263 5.422L275.762 76.607L277.304 76.9459L294.653 1.93979C294.714 1.76305 294.708 1.57028 294.637 1.39737C294.566 1.22446 294.435 1.0832 294.267 0.9999C294.104 0.931257 293.922 0.919778 293.752 0.967323C293.581 1.01487 293.431 1.11865 293.327 1.26184L266.17 39.6124C266.064 39.7597 266.015 39.9402 266.031 40.1208L269.809 83.6484Z" fill="#081E7A"/>
<path d="M275.454 107.515C275.454 107.515 280.311 104.619 281.622 103.956C282.628 103.36 283.443 102.489 283.973 101.447C284.503 100.405 284.725 99.2339 284.614 98.0703C284.455 95.2105 283.624 92.4283 282.188 89.9494C280.751 87.4705 278.751 85.3646 276.348 83.8025C275.438 83.1526 274.369 82.7584 273.255 82.6608C272.14 82.5633 271.02 82.766 270.01 83.2478C268.576 84.0645 264.289 86.5914 264.289 86.5914L265.075 87.9165C265.075 87.9165 269.347 85.3895 270.781 84.5729C271.56 84.2387 272.413 84.1154 273.255 84.2155C274.097 84.3156 274.898 84.6355 275.577 85.143C277.754 86.5588 279.567 88.4668 280.869 90.7126C282.171 92.9584 282.926 95.479 283.072 98.0703C283.185 98.9379 283.049 99.8199 282.681 100.614C282.312 101.407 281.726 102.08 280.99 102.554C279.571 103.247 274.821 106.067 274.667 106.175L275.454 107.515Z" fill="#081E7A"/>
<path d="M273.588 107.885C274.436 107.916 275.278 107.719 276.024 107.315C276.945 106.689 277.68 105.826 278.15 104.817C278.619 103.808 278.807 102.69 278.692 101.583C278.538 98.7181 277.709 95.9298 276.273 93.4451C274.836 90.9605 272.833 88.8498 270.426 87.2846C269.559 86.5495 268.486 86.099 267.354 85.9944C266.221 85.8899 265.084 86.1363 264.097 86.7003C263.11 87.2642 262.32 88.1183 261.836 89.1464C261.351 90.1745 261.195 91.3267 261.389 92.4463C261.409 93.6128 261.575 94.7723 261.883 95.8977L263.425 95.5125C263.153 94.5074 263.008 93.4721 262.993 92.4309C262.897 91.5955 263.023 90.7496 263.359 89.9785C263.695 89.2075 264.228 88.5386 264.905 88.0396C265.687 87.7041 266.543 87.5801 267.388 87.6802C268.232 87.7803 269.036 88.1009 269.717 88.6097C271.893 90.023 273.705 91.9284 275.007 94.1716C276.309 96.4147 277.064 98.9327 277.212 101.522C277.306 102.358 277.181 103.204 276.848 103.976C276.516 104.749 275.987 105.422 275.315 105.928C274.531 106.263 273.674 106.387 272.828 106.29C271.981 106.193 271.175 105.877 270.488 105.374C269.838 104.982 269.224 104.533 268.653 104.033L267.635 105.189C268.275 105.771 268.973 106.287 269.717 106.73C270.888 107.438 272.22 107.836 273.588 107.885Z" fill="#081E7A"/>
<path d="M266.602 124.002H268.144V101.66L269.193 101.876C269.378 101.907 269.568 101.874 269.732 101.784C270.26 101.48 270.722 101.076 271.093 100.594C271.465 100.111 271.737 99.5611 271.895 98.9737C272.054 98.3864 272.094 97.7737 272.016 97.1706C271.937 96.5674 271.74 95.9857 271.436 95.4586C271.133 94.9315 270.728 94.4694 270.245 94.0985C269.763 93.7277 269.212 93.4555 268.624 93.2974C268.036 93.1393 267.423 93.0984 266.819 93.1771C266.216 93.2558 265.633 93.4525 265.106 93.756L261.127 96.0672C260.443 96.4723 259.875 97.0467 259.478 97.7349C259.081 98.4231 258.868 99.2019 258.86 99.9963V119.38H260.402V99.9963C260.416 99.469 260.565 98.9541 260.835 98.5009C261.105 98.0477 261.487 97.6713 261.945 97.4077L265.923 95.0811C266.345 94.8351 266.82 94.6928 267.308 94.6661C267.796 94.6393 268.283 94.7287 268.73 94.927C269.186 95.1365 269.586 95.451 269.897 95.8447C270.208 96.2384 270.421 96.7001 270.519 97.192C270.621 97.7773 270.551 98.3795 270.319 98.9262C270.086 99.4729 269.7 99.9409 269.208 100.274L267.542 99.9346C267.43 99.9135 267.314 99.9163 267.202 99.9428C267.091 99.9694 266.986 100.019 266.895 100.089C266.809 100.164 266.74 100.256 266.692 100.36C266.644 100.463 266.619 100.576 266.617 100.69L266.602 124.002Z" fill="#081E7A"/>
<path d="M31.197 282.874L31.9835 281.564C31.8756 281.564 21.4662 275.278 15.0973 272.135C8.06522 268.683 4.02485 260.332 4.02485 249.207C4.02485 226.666 20.0012 199.116 39.6324 187.791C48.1141 182.907 56.2565 181.628 62.5946 184.401L63.196 182.984C56.4107 180.087 47.7748 181.32 38.8614 186.466C18.8138 198.022 2.48273 226.173 2.48273 249.207C2.48273 260.933 6.83153 269.793 14.4033 273.521C20.7415 276.634 31.0891 282.812 31.197 282.874Z" fill="#081E7A"/>
<path d="M40.1721 284.892C46.0046 284.683 51.6816 282.957 56.642 279.885C61.579 276.977 66.0846 273.393 70.0276 269.238L68.9173 268.175C65.0722 272.22 60.6811 275.711 55.8709 278.544C46.4948 283.952 37.7202 284.862 31.197 281.071C24.6738 277.281 21.0961 269.346 21.0961 258.653C21.1433 250.672 22.7734 242.78 25.8921 235.433L24.4579 234.863C21.2632 242.39 19.5963 250.476 19.554 258.653C19.554 269.916 23.4093 278.359 30.3488 282.396C33.3401 284.093 36.7329 284.955 40.1721 284.892Z" fill="#081E7A"/>
<path d="M303.613 194.879H305.155V213.369H303.613V194.879Z" fill="#081E7A"/>
<path d="M246.636 256.592L247.405 257.928L223.809 271.484L223.041 270.148L246.636 256.592Z" fill="#081E7A"/>
<path d="M148.198 306.217C150.65 306.222 153.101 306.088 155.538 305.816L155.369 304.276C144.327 305.493 132.992 303.844 125.035 299.869L35.407 246.958C29.3464 243.876 26.0309 239.993 26.0309 235.864V213.368H24.4888V235.879C24.4888 240.625 28.0973 245.047 34.6668 248.329L124.295 301.24C131.788 304.67 139.957 306.371 148.198 306.217Z" fill="#081E7A"/>
<path d="M148.136 282.674C156.362 282.832 164.519 281.147 172.008 277.743L296.01 206.481C302.086 203.399 305.494 199.208 305.587 194.571C305.679 189.933 302.194 185.018 295.995 181.612L295.254 182.953C300.929 186.035 304.137 190.303 304.044 194.54C303.952 198.777 300.852 202.336 295.285 205.125L171.268 276.372C158.514 282.751 137.711 282.751 124.912 276.372L35.191 223.445C29.5623 220.625 26.4472 216.851 26.3701 212.767C26.293 208.684 29.4544 204.324 35.1756 201.258L105.512 160.842L104.741 159.502L34.42 199.917C28.2515 203.245 24.7509 207.945 24.828 212.798C24.9051 217.652 28.3286 221.735 34.4662 224.801L124.171 277.712C131.689 281.132 139.877 282.828 148.136 282.674Z" fill="#081E7A"/>
<path d="M178.855 367.495L179.642 366.17C179.534 366.17 169.124 359.883 162.678 356.755C155.662 353.289 151.621 344.937 151.621 333.813C151.621 311.271 167.598 283.721 187.229 272.397C195.695 267.512 203.853 266.31 210.176 269.007C217.018 272.242 223.666 275.874 230.084 279.885L230.902 278.591C224.446 274.506 217.752 270.812 210.854 267.528C204.069 264.631 195.433 265.864 186.519 271.01C166.472 282.566 150.141 310.716 150.141 333.751C150.141 345.477 154.49 354.336 162.061 358.065C168.384 361.239 178.747 367.418 178.855 367.495Z" fill="#081E7A"/>
<path d="M187.861 369.498C193.702 369.282 199.384 367.545 204.346 364.459C224.394 352.888 240.725 324.737 240.725 301.703C240.725 290.439 236.854 281.996 229.838 277.943C222.821 273.891 213.46 274.769 203.622 280.47C183.574 292.042 167.258 320.192 167.258 343.227C167.258 354.49 171.114 362.934 178.053 366.986C181.041 368.68 184.426 369.546 187.861 369.498ZM220.061 277.05C223.215 277.008 226.323 277.805 229.067 279.361C235.59 283.12 239.183 291.086 239.183 301.78C239.183 324.321 223.206 351.871 203.575 363.196C194.199 368.604 185.425 369.513 178.901 365.723C172.378 361.932 168.8 353.997 168.8 343.304C168.8 320.762 184.761 293.213 204.393 281.888C209.087 278.928 214.469 277.234 220.014 276.973L220.061 277.05Z" fill="#081E7A"/>
<path d="M274.22 312.242L275.006 310.917C274.914 310.917 264.504 304.645 258.043 301.502C251.011 298.051 246.986 289.684 246.986 278.575C246.986 256.033 262.947 228.484 282.578 217.159C291.06 212.259 299.218 210.996 305.54 213.754C312.361 217.013 318.983 220.671 325.372 224.709L326.189 223.399C319.73 219.321 313.036 215.627 306.142 212.336C299.356 209.455 290.721 210.687 281.807 215.818C261.76 227.39 245.444 255.54 245.444 278.575C245.444 290.301 249.777 299.16 257.364 302.889C263.703 305.986 274.05 312.242 274.22 312.242Z" fill="#081E7A"/>
<path d="M283.133 314.229C288.978 314.011 294.663 312.263 299.619 309.16C319.666 297.635 335.905 269.484 335.905 246.449C335.905 235.171 332.049 226.743 325.033 222.69C318.016 218.638 308.64 219.516 298.817 225.202C278.769 236.773 262.438 264.924 262.438 287.959C262.438 299.237 266.309 307.665 273.326 311.718C276.313 313.411 279.699 314.278 283.133 314.229ZM315.317 221.781C318.477 221.731 321.593 222.529 324.339 224.092C330.862 227.852 334.44 235.803 334.44 246.511C334.363 268.991 318.479 296.541 298.894 307.866C289.518 313.274 280.728 314.168 274.22 310.377C267.712 306.587 264.104 298.667 264.104 287.959C264.104 265.417 280.08 237.867 299.711 226.542C304.407 223.611 309.785 221.95 315.317 221.72V221.781Z" fill="#081E7A"/>
<path d="M294.915 282.704C296.762 282.65 298.563 282.119 300.143 281.164C303.39 279.053 306.094 276.208 308.037 272.86C309.979 269.511 311.105 265.752 311.323 261.888C311.323 258.298 310.074 255.602 307.792 254.292C305.51 252.982 302.518 253.244 299.372 255.047C294.806 257.98 291.341 262.342 289.518 267.45L290.967 267.99C292.679 263.205 295.934 259.123 300.22 256.387C302.857 254.847 305.309 254.585 307.098 255.617C308.887 256.649 309.858 258.868 309.858 261.888C309.655 265.484 308.607 268.982 306.799 272.098C304.99 275.214 302.472 277.861 299.449 279.823C296.797 281.364 294.36 281.626 292.571 280.593C290.782 279.561 289.811 277.342 289.811 274.322H288.269C288.269 277.912 289.518 280.609 291.8 281.919C292.753 282.446 293.826 282.717 294.915 282.704Z" fill="#081E7A"/>
<path d="M145.505 205.239L200.023 236.929L199.247 238.261L144.729 206.571L145.505 205.239Z" fill="#081E7A"/>
<path d="M128.058 121.629C133.996 112.849 141.773 105.462 150.85 99.981L181.538 82.2464C182.717 81.5875 183.97 81.0703 185.27 80.7056L184.854 79.1648C183.423 79.5825 182.05 80.1778 180.767 80.9367L150.033 98.6713C140.775 104.26 132.845 111.794 126.793 120.751L128.058 121.629Z" fill="#081E7A"/>
<path d="M292.895 139.672L293.681 138.347C293.681 138.347 274.096 126.976 249.669 112.847L248.898 114.172C273.325 128.332 292.895 139.672 292.895 139.672Z" fill="#081E7A"/>
<path d="M199.643 238.283C199.779 238.284 199.913 238.247 200.028 238.175L295.517 183.153C295.631 183.084 295.726 182.987 295.794 182.871C295.861 182.755 295.898 182.625 295.902 182.491V145.373C295.902 141.783 294.576 139.025 292.155 137.669C289.286 136.02 285.2 136.467 280.959 138.917L250.209 156.621C239.26 162.938 229.113 173.739 222.374 186.235L198.934 237.251C198.867 237.401 198.85 237.567 198.883 237.727C198.916 237.888 198.998 238.033 199.119 238.145C199.269 238.257 199.457 238.307 199.643 238.283ZM294.36 182.044L201.339 235.695L223.746 186.928C230.331 174.71 240.278 164.14 250.98 157.961L281.73 140.227C285.493 138.054 289.009 137.607 291.384 138.979C293.296 140.073 294.36 142.353 294.36 145.373V182.044Z" fill="#081E7A"/>
<path d="M222.651 139.533C222.788 139.536 222.922 139.498 223.037 139.425C223.153 139.358 223.25 139.262 223.318 139.145C223.386 139.029 223.422 138.897 223.422 138.763V114.757H221.88V137.438L189.496 119.056L196.189 98.8561L194.646 98.3784L187.753 119.164C187.697 119.335 187.702 119.521 187.766 119.689C187.831 119.857 187.952 119.998 188.108 120.088L222.266 139.425C222.381 139.498 222.515 139.536 222.651 139.533Z" fill="#081E7A"/>
<path d="M222.435 139.425L249.669 123.709C249.818 123.626 249.934 123.497 250.001 123.341C250.068 123.185 250.082 123.011 250.039 122.846L246.755 110.073L245.213 110.458L248.297 122.677L221.556 138.085L222.435 139.425Z" fill="#081E7A"/>
<path d="M75.3788 159.702C76.6058 159.702 77.7825 159.215 78.6501 158.348C79.5177 157.482 80.0051 156.306 80.0051 155.08V143.524C80.0055 142.679 79.7743 141.851 79.3366 141.128C78.8989 140.406 78.2714 139.817 77.5223 139.425L68.4855 134.68L67.7607 136.051L76.8284 140.781C77.326 141.042 77.7428 141.435 78.0336 141.915C78.3245 142.396 78.4783 142.947 78.4784 143.508V155.08C78.4786 155.545 78.3733 156.005 78.1703 156.424C77.9673 156.843 77.6719 157.21 77.3064 157.499C76.9335 157.794 76.4972 158 76.0317 158.098C75.5662 158.197 75.0841 158.187 74.6231 158.069C73.9387 157.868 73.3402 157.446 72.9216 156.869C72.503 156.292 72.2879 155.592 72.31 154.88V145.835C72.3106 145.695 72.2719 145.557 72.1984 145.437C72.1248 145.317 72.0193 145.22 71.8936 145.157L65.062 141.567L64.3526 142.938L70.7678 146.297V154.864C70.7582 155.913 71.0964 156.935 71.7297 157.771C72.3631 158.608 73.2558 159.211 74.2684 159.487C74.6283 159.604 75.0012 159.676 75.3788 159.702Z" fill="#081E7A"/>
<path d="M42.9943 159.702C44.2213 159.702 45.398 159.215 46.2656 158.348C47.1332 157.482 47.6207 156.306 47.6207 155.08V146.297L54.0359 142.938L53.3265 141.567L46.4949 145.157C46.3692 145.22 46.2637 145.317 46.1901 145.437C46.1166 145.557 46.0779 145.695 46.0785 145.835V155.08C46.0787 155.545 45.9734 156.005 45.7704 156.424C45.5674 156.843 45.2721 157.21 44.9065 157.499C44.5336 157.794 44.0973 158 43.6318 158.099C43.1663 158.197 42.6842 158.187 42.2232 158.069C41.5387 157.868 40.9403 157.446 40.5217 156.869C40.1031 156.292 39.888 155.592 39.9101 154.88V143.508C39.9102 142.947 40.064 142.396 40.3549 141.915C40.6457 141.435 41.0625 141.042 41.5601 140.781L50.6124 136.036L49.8876 134.664L40.8508 139.41C40.1016 139.801 39.4742 140.39 39.0365 141.113C38.5987 141.835 38.3675 142.664 38.3679 143.508V154.864C38.3583 155.913 38.6965 156.935 39.3298 157.771C39.9632 158.608 40.8559 159.211 41.8686 159.487C42.2334 159.605 42.6116 159.677 42.9943 159.702Z" fill="#081E7A"/>
<path d="M117.016 246.634C122.183 246.633 127.314 245.784 132.206 244.123C141.998 240.764 147.858 234.878 147.858 228.299C147.858 223.954 148.043 221.827 148.043 221.797L146.501 221.658C146.501 221.75 146.301 223.877 146.301 228.299C146.301 234.169 140.842 239.531 131.682 242.659C122.157 245.895 111.829 245.895 102.304 242.659C93.1594 239.577 87.7003 234.154 87.7003 228.299C87.6938 225.786 87.8328 223.276 88.1167 220.78L86.5745 220.579C86.2763 223.136 86.1321 225.709 86.1427 228.283C86.1427 234.832 91.9874 240.748 101.795 244.092C106.693 245.775 111.837 246.634 117.016 246.634Z" fill="#081E7A"/>
<path d="M117.324 239.146C124.843 239.3 132.275 237.528 138.914 234C144.574 230.749 147.828 226.296 148.074 221.673C148.306 217.328 145.9 213.091 141.304 209.748L140.395 210.996C144.558 214.077 146.733 217.791 146.563 221.596C146.347 225.741 143.371 229.67 138.174 232.675C126.701 239.285 108.025 239.285 96.5367 232.675C91.2934 229.593 88.3172 225.679 88.1475 221.489C87.9779 217.59 90.3065 213.785 94.7015 210.703L93.8225 209.439C88.9803 212.798 86.4203 217.143 86.6054 221.566C86.8059 226.296 90.0598 230.718 95.7656 234C102.396 237.52 109.817 239.292 117.324 239.146Z" fill="#081E7A"/>
<path d="M117.787 232.336C121.288 232.323 124.768 231.804 128.119 230.795C136.616 228.268 141.69 223.492 141.69 218.006V193.6C141.699 188.353 139.982 183.249 136.802 179.072C133.623 174.896 129.158 171.88 124.094 170.488L123.693 172.029C128.422 173.328 132.593 176.142 135.565 180.039C138.538 183.936 140.148 188.7 140.148 193.6V218.068C140.148 222.829 135.522 227.051 127.688 229.377C121.228 231.303 114.346 231.303 107.887 229.377C100.084 227.051 95.4264 222.829 95.4264 218.068V193.6C95.4215 188.717 97.0147 183.966 99.9631 180.072C102.911 176.177 107.053 173.353 111.757 172.029L111.341 170.488C106.304 171.906 101.869 174.933 98.7169 179.107C95.5643 183.28 93.8669 188.371 93.8842 193.6V218.068C93.8842 223.553 98.9578 228.33 107.44 230.857C110.8 231.844 114.285 232.342 117.787 232.336Z" fill="#081E7A"/>
<path d="M64.584 97.8083H66.1261V130.165H64.584V97.8083Z" fill="#081E7A"/>
<path d="M52.2469 93.186H53.7891V130.165H52.2469V93.186Z" fill="#081E7A"/>
<path d="M53.897 87.8856L54.776 86.6222C53.8203 85.9716 53.0319 85.1047 52.4752 84.092C51.9184 83.0793 51.609 81.9495 51.5722 80.7947C51.5353 79.6399 51.772 78.4927 52.2631 77.4466C52.7541 76.4006 53.4855 75.4852 54.3978 74.7751C55.3101 74.0651 56.3773 73.5804 57.5126 73.3606C58.6479 73.1408 59.8191 73.1922 60.9308 73.5104C62.0424 73.8287 63.0631 74.4048 63.9097 75.1919C64.7562 75.9791 65.4047 76.9549 65.8022 78.0399L67.2363 77.4852C66.7418 76.184 65.9478 75.0173 64.9186 74.0792C63.8894 73.1412 62.6538 72.4582 61.3117 72.0853C59.9695 71.7125 58.5584 71.6603 57.1923 71.9329C55.8262 72.2056 54.5434 72.7955 53.4476 73.6549C52.3518 74.5143 51.4737 75.6192 50.8842 76.8803C50.2947 78.1415 50.0103 79.5234 50.0541 80.9146C50.0978 82.3058 50.4684 83.6672 51.136 84.8889C51.8036 86.1106 52.7493 87.1582 53.897 87.9473V87.8856Z" fill="#081E7A"/>
<path d="M117.787 183.338C119.142 183.343 120.467 182.946 121.596 182.198C122.548 181.561 123.328 180.699 123.866 179.688C124.404 178.677 124.684 177.549 124.68 176.405V119.395H123.138V176.405C123.139 177.298 122.917 178.178 122.492 178.963C122.066 179.749 121.451 180.416 120.702 180.904C119.917 181.405 119.018 181.702 118.089 181.767C117.159 181.831 116.228 181.662 115.381 181.274C114.463 180.848 113.689 180.163 113.155 179.303C112.621 178.444 112.349 177.447 112.374 176.435V125.589H110.832V176.435C110.803 177.75 111.162 179.044 111.864 180.157C112.566 181.269 113.58 182.15 114.78 182.691C115.729 183.106 116.751 183.327 117.787 183.338Z" fill="#081E7A"/>
<path d="M103.769 114.464L104.571 113.155L61.7464 87.5466C60.6467 86.8416 59.8649 85.7364 59.5667 84.4652C59.2686 83.1941 59.4775 81.8569 60.1492 80.7371C60.8209 79.6172 61.9026 78.8026 63.1651 78.466C64.4276 78.1293 65.7717 78.297 66.9125 78.9336L115.042 107.716L115.829 106.391L67.699 77.6085C66.2191 76.8636 64.5121 76.7051 62.9201 77.1647C61.3281 77.6243 59.9687 78.668 59.1144 80.0867C58.2601 81.5054 57.974 83.1943 58.3134 84.8149C58.6528 86.4355 59.5926 87.868 60.9445 88.8255L103.769 114.464Z" fill="#081E7A"/>
<path d="M117.324 123.786C119.082 123.786 120.8 123.265 122.261 122.289C123.722 121.313 124.86 119.926 125.532 118.304C126.204 116.681 126.379 114.896 126.035 113.174C125.691 111.452 124.844 109.871 123.6 108.63C122.356 107.39 120.772 106.545 119.048 106.205C117.324 105.864 115.537 106.042 113.915 106.716C112.292 107.39 110.905 108.53 109.931 109.992C108.957 111.453 108.439 113.171 108.442 114.927C108.446 117.278 109.384 119.531 111.049 121.192C112.714 122.853 114.971 123.786 117.324 123.786ZM117.324 107.592C118.776 107.592 120.195 108.022 121.403 108.828C122.61 109.634 123.551 110.78 124.106 112.12C124.662 113.46 124.807 114.935 124.524 116.357C124.241 117.78 123.542 119.087 122.515 120.113C121.488 121.138 120.18 121.837 118.756 122.12C117.333 122.403 115.857 122.258 114.515 121.702C113.174 121.147 112.028 120.207 111.221 119.001C110.414 117.795 109.984 116.377 109.984 114.927C109.984 112.981 110.757 111.116 112.134 109.74C113.511 108.365 115.378 107.592 117.324 107.592Z" fill="#081E7A"/>
<path d="M58.9553 144.294C60.7121 144.294 62.4295 143.774 63.8902 142.799C65.3509 141.823 66.4894 140.437 67.1617 138.816C67.834 137.194 68.0099 135.409 67.6672 133.688C67.3245 131.966 66.4785 130.385 65.2362 129.144C63.994 127.902 62.4112 127.057 60.6882 126.715C58.9651 126.372 57.1791 126.548 55.556 127.22C53.933 127.891 52.5457 129.029 51.5696 130.489C50.5936 131.948 50.0726 133.664 50.0726 135.419C50.0767 137.772 51.0139 140.027 52.6788 141.69C54.3437 143.354 56.6007 144.29 58.9553 144.294ZM58.9553 128.1C60.4077 128.1 61.8276 128.531 63.035 129.338C64.2425 130.144 65.1833 131.29 65.7385 132.631C66.2936 133.973 66.438 135.448 66.1536 136.871C65.8691 138.294 65.1684 139.601 64.1403 140.626C63.1122 141.651 61.8028 142.349 60.3779 142.63C58.9529 142.911 57.4765 142.764 56.1355 142.206C54.7944 141.649 53.6491 140.706 52.8444 139.498C52.0396 138.29 51.6117 136.87 51.6148 135.419C51.6127 134.455 51.8012 133.501 52.1694 132.61C52.5376 131.719 53.0782 130.91 53.7602 130.229C54.4422 129.547 55.2523 129.007 56.1438 128.639C57.0353 128.271 57.9907 128.083 58.9553 128.085V128.1Z" fill="#081E7A"/>
<path d="M237.024 115.589C237.209 115.497 252.63 106.791 254.357 105.867C255.356 105.274 256.166 104.411 256.695 103.378C257.225 102.345 257.451 101.183 257.349 100.027V87.2847C257.349 81.6146 252.723 74.3266 247.094 71.0755L211.394 50.475C208.155 48.6106 205.071 48.3333 202.943 49.72C201.586 50.5829 185.98 59.3038 185.779 59.3962L186.535 60.7367C187.183 60.3823 202.388 51.9079 203.776 51.0143C205.41 49.9511 207.909 50.2439 210.623 51.8155L246.323 72.4314C251.551 75.513 255.807 82.1385 255.807 87.3155V100.027C255.909 100.9 255.761 101.784 255.378 102.575C254.996 103.367 254.396 104.033 253.648 104.495C251.844 105.435 236.901 113.894 236.268 114.249L237.024 115.589Z" fill="#081E7A"/>
<path d="M234.68 116.159C235.7 116.177 236.706 115.922 237.594 115.42C238.538 114.809 239.297 113.953 239.789 112.942C240.281 111.932 240.487 110.807 240.386 109.688V96.961C240.386 91.2755 235.759 83.9875 230.115 80.721L194.369 60.1051C191.285 58.3023 188.2 57.9788 186.118 59.196C185.179 59.815 184.424 60.6754 183.933 61.6868C183.442 62.6981 183.233 63.823 183.327 64.9432V77.6548C183.327 83.3557 187.954 90.6283 193.598 93.8948L194.369 92.5697C189.126 89.4881 184.869 82.8627 184.869 77.6548V64.9432C184.784 64.0955 184.926 63.2404 185.281 62.4658C185.636 61.6913 186.191 61.0253 186.89 60.5365C188.524 59.5966 190.961 59.9202 193.598 61.4302L229.344 82.0615C234.587 85.1431 238.844 91.7685 238.844 96.961V109.688C238.928 110.536 238.785 111.39 238.43 112.164C238.075 112.939 237.521 113.605 236.823 114.095C235.189 115.035 232.737 114.711 230.115 113.186L226.784 111.26L226.013 112.6L229.344 114.526C230.951 115.523 232.79 116.085 234.68 116.159Z" fill="#081E7A"/>
<path d="M199.011 83.8025C199.352 83.8012 199.687 83.7109 199.982 83.5405C200.325 83.3144 200.602 83.0011 200.783 82.6328C200.965 82.2645 201.045 81.8545 201.015 81.445C200.985 80.5184 200.729 79.6131 200.27 78.8076C199.81 78.0022 199.161 77.3208 198.378 76.8226C198.048 76.5653 197.648 76.4121 197.23 76.3825C196.811 76.3529 196.394 76.4482 196.03 76.6564C195.667 76.8645 195.373 77.1761 195.187 77.5514C195.001 77.9267 194.931 78.3488 194.986 78.7641C195.03 79.6752 195.291 80.5627 195.747 81.353C196.203 82.1434 196.841 82.814 197.607 83.3094C198.022 83.5962 198.507 83.7665 199.011 83.8025ZM196.99 78.0399C197.209 78.0587 197.42 78.1272 197.607 78.2402C198.147 78.5954 198.597 79.0713 198.921 79.6303C199.245 80.1892 199.434 80.8158 199.473 81.4605C199.473 81.8457 199.381 82.1384 199.211 82.2309C199.069 82.2675 198.921 82.2726 198.778 82.246C198.634 82.2194 198.497 82.1616 198.378 82.0768C197.844 81.7173 197.399 81.24 197.078 80.6817C196.757 80.1234 196.569 79.499 196.528 78.8565C196.528 78.4713 196.62 78.1785 196.79 78.0861C196.852 78.0548 196.921 78.0389 196.99 78.0399Z" fill="#081E7A"/>
<path d="M221.649 111.537C221.649 111.537 228.126 107.669 229.946 106.776C232.351 105.589 233.724 102.831 233.724 99.195C233.523 95.4402 232.442 91.7851 230.567 88.5251C228.692 85.265 226.075 82.4913 222.929 80.4281C219.845 78.6561 216.976 78.3942 214.74 79.6731C212.843 80.7516 207.122 84.1414 207.122 84.1414L207.909 85.4665C207.909 85.4665 213.614 82.0921 215.511 81.0136C217.408 79.935 219.598 80.274 222.158 81.7531C225.093 83.6648 227.537 86.2397 229.291 89.2698C231.046 92.2998 232.063 95.6998 232.259 99.195C232.259 102.277 231.226 104.465 229.344 105.358C227.463 106.252 221.202 109.981 220.94 110.181L221.649 111.537Z" fill="#081E7A"/>
<path d="M219.29 111.938C220.37 111.945 221.434 111.669 222.374 111.136C224.594 109.858 225.813 107.223 225.813 103.725C225.61 99.9709 224.527 96.3168 222.652 93.057C220.777 89.7973 218.162 87.0232 215.018 84.9582C211.934 83.2017 209.05 82.9398 206.814 84.2186C204.578 85.4975 203.282 88.1785 203.282 91.6761H204.824C204.824 88.7486 205.765 86.5915 207.492 85.6053C209.22 84.6192 211.594 84.8658 214.154 86.3449C217.096 88.2499 219.547 90.8202 221.31 93.8476C223.073 96.8751 224.098 100.275 224.301 103.771C224.301 106.699 223.361 108.856 221.634 109.842C219.906 110.828 217.532 110.582 214.972 109.103L214.201 110.443C215.737 111.377 217.492 111.892 219.29 111.938Z" fill="#081E7A"/>
<path d="M212.535 111.937C212.535 111.937 217.393 109.041 218.703 108.363C220.585 107.454 221.649 105.281 221.649 102.492C221.489 99.6349 220.657 96.8553 219.221 94.3791C217.785 91.9028 215.785 89.7996 213.383 88.2399C212.472 87.592 211.405 87.1978 210.291 87.0977C209.178 86.9975 208.057 87.1949 207.045 87.6698C205.626 88.4864 201.324 91.0288 201.324 91.0288L202.11 92.3538L207.909 89.0719C208.687 88.7371 209.539 88.6121 210.381 88.7095C211.222 88.8068 212.024 89.1231 212.705 89.6266C214.89 91.0372 216.712 92.943 218.023 95.1891C219.333 97.4353 220.094 99.9585 220.246 102.554C220.351 103.423 220.212 104.304 219.844 105.099C219.476 105.894 218.895 106.57 218.164 107.053C216.745 107.746 211.995 110.551 211.841 110.674L212.535 111.937Z" fill="#081E7A"/>
<path d="M210.746 112.369C211.6 112.374 212.439 112.156 213.183 111.737C214.104 111.112 214.838 110.248 215.308 109.239C215.778 108.23 215.965 107.113 215.851 106.006C215.691 103.148 214.861 100.367 213.428 97.8888C211.995 95.4104 209.999 93.3034 207.6 91.7377C206.684 91.0882 205.611 90.6944 204.491 90.5969C203.372 90.4994 202.246 90.7017 201.231 91.1831C200.31 91.8087 199.576 92.672 199.106 93.6812C198.636 94.6904 198.449 95.8078 198.563 96.9148C198.722 99.7747 199.554 102.557 200.99 105.036C202.426 107.515 204.426 109.621 206.829 111.183C208.009 111.913 209.359 112.322 210.746 112.369ZM203.683 92.0921C204.778 92.1579 205.838 92.4969 206.768 93.0782C208.943 94.4948 210.753 96.4033 212.053 98.6493C213.352 100.895 214.104 103.415 214.247 106.006C214.439 106.849 214.355 107.732 214.007 108.524C213.659 109.316 213.066 109.976 212.315 110.406C211.563 110.835 210.693 111.013 209.834 110.911C208.974 110.81 208.169 110.435 207.539 109.842C205.361 108.426 203.548 106.518 202.246 104.273C200.944 102.027 200.19 99.5061 200.044 96.9148C199.947 96.081 200.072 95.2365 200.405 94.4658C200.738 93.6952 201.267 93.0254 201.941 92.5236C202.473 92.2267 203.074 92.0777 203.683 92.0921Z" fill="#081E7A"/>
</svg>