<svg width="361" height="331" viewBox="0 0 361 331" fill="none" xmlns="http://www.w3.org/2000/svg">
<g clip-path="url(#clip0_903_273)">
<g clip-path="url(#clip1_903_273)">
<path opacity="0.08" d="M275.41 368.372C298.781 354.344 311.16 332.031 303.06 318.535C294.959 305.039 269.446 305.471 246.075 319.499C222.703 333.527 210.324 355.84 218.425 369.336C226.526 382.832 252.039 382.4 275.41 368.372Z" fill="#193174"/>
<path fill-rule="evenodd" clip-rule="evenodd" d="M313.292 245.895L280.624 233.062L280.998 230.998L273.73 182.238C273.515 180.803 273.003 179.429 272.227 178.203C271.45 176.978 270.426 175.928 269.22 175.121C268.014 174.315 266.652 173.769 265.223 173.519C263.793 173.27 262.328 173.322 260.919 173.672L231.02 181.088L230.229 181.562C217.731 164.064 204.746 147.084 190.616 129.699C178.517 114.878 164.013 102.195 147.711 92.1806L143.657 90.2247C143.718 88.4716 143.279 86.7374 142.391 85.2248C140.86 82.6741 140.171 81.3528 139.893 80.7737C139.893 80.7737 139.839 80.6844 139.808 80.6334C139.783 80.5849 139.755 80.5381 139.724 80.4931C138.282 77.8888 135.394 75.9964 131.259 75.0609C127.641 72.4442 115.145 64.3136 84.9664 52.5356C81.2066 84.6844 82.4286 99.5822 83.0365 104.006C81.68 107.873 81.9102 111.205 83.4846 113.712C84.3116 115.519 85.2668 117.265 86.3426 118.936C87.4983 120.436 88.8304 121.792 90.3102 122.974C91.1271 143.351 95.5708 163.42 103.433 182.237C111.768 202.136 120.715 221.753 130.275 241.09L109.692 263.854C108.713 264.934 107.973 266.206 107.517 267.59C107.061 268.974 106.901 270.438 107.047 271.888C107.193 273.337 107.641 274.74 108.363 276.005C109.085 277.271 110.064 278.371 111.238 279.234L149.569 307.631L153.618 309.087L149.459 345.136C149.089 348.357 149.762 351.612 151.378 354.423C152.993 357.234 155.467 359.454 158.436 360.757L203.215 380.443L209.353 378.702L182.307 335.551L185.529 320.484L186.036 320.665C189.42 326.302 197.102 329.36 208.285 328.511C208.387 328.45 210.637 328.123 210.757 328.12L216.516 332.54C234.891 346.909 256.087 359.1 270.985 361.868C276.339 344.775 278.891 316.769 271.246 290.043C276.663 281.032 277.393 273.203 274.14 267.782L273.022 265.92L290.512 267.774L315.197 315.171L319.234 309.902L322.92 261.126C323.146 257.893 322.334 254.672 320.602 251.932C318.871 249.193 316.31 247.078 313.292 245.895Z" fill="#E3FFFF"/>
<path fill-rule="evenodd" clip-rule="evenodd" d="M261.379 173.309L230.459 180.991L259.561 224.244L282.002 235.184L274.181 181.863C273.965 180.43 273.452 179.058 272.675 177.835C271.899 176.611 270.875 175.563 269.67 174.758C268.465 173.953 267.105 173.408 265.677 173.159C264.249 172.909 262.785 172.961 261.379 173.309Z" fill="#67DAFF"/>
<path fill-rule="evenodd" clip-rule="evenodd" d="M110.179 263.51C109.208 264.588 108.473 265.857 108.021 267.236C107.569 268.614 107.41 270.073 107.555 271.516C107.699 272.96 108.144 274.358 108.86 275.62C109.577 276.881 110.549 277.98 111.715 278.844L155.062 311.03L158.044 291.892L130.675 240.659L110.179 263.51Z" fill="#67DAFF"/>
<path fill-rule="evenodd" clip-rule="evenodd" d="M214.934 333.489C233.296 347.866 256.52 358.753 271.419 361.521C276.773 344.428 279.329 316.315 271.603 289.569L207.527 326.381L214.934 333.489Z" fill="#27AAE1"/>
<path fill-rule="evenodd" clip-rule="evenodd" d="M225.229 329.34C233.42 337.435 243.405 342.944 248.454 343.435C249.456 338.948 246.887 327.356 241.605 315.694L220.537 324.124L225.229 329.34Z" fill="#67DAFF"/>
<path fill-rule="evenodd" clip-rule="evenodd" d="M186.059 320.53C189.45 326.18 197.132 329.237 208.321 328.368C230.693 326.65 258.586 309.908 270.623 290.972C276.652 281.506 277.567 273.289 274.176 267.639L272.379 263.982L266.026 272.531L236.097 300.332L183.969 317.048L186.059 320.53Z" fill="#67DAFF"/>
<path fill-rule="evenodd" clip-rule="evenodd" d="M185.237 319.045C188.41 319.277 191.595 319.301 194.771 319.118C221.633 317.047 255.137 296.936 269.598 274.204C271.317 271.539 272.784 268.718 273.979 265.78L265.172 262.669C265.172 262.669 252.734 283.164 230.343 295.458C216.342 303.228 201.011 308.311 185.142 310.446L185.237 319.045Z" fill="white"/>
<path d="M200.852 242.568C207.543 238.551 209.712 229.871 205.696 223.179C201.679 216.487 192.998 214.319 186.307 218.335C179.615 222.352 177.447 231.033 181.463 237.724C185.48 244.416 194.16 246.584 200.852 242.568Z" fill="#27AAE1"/>
<path fill-rule="evenodd" clip-rule="evenodd" d="M136.609 136.058C130.192 139.91 125.061 145.578 121.865 152.346C118.669 159.114 117.552 166.677 118.655 174.08C119.758 181.483 123.031 188.392 128.061 193.934C133.091 199.477 139.651 203.403 146.912 205.217C154.173 207.031 161.81 206.651 168.855 204.125C175.9 201.6 182.038 197.041 186.493 191.027C190.948 185.012 193.519 177.812 193.881 170.337C194.244 162.861 192.381 155.446 188.53 149.028C185.974 144.766 182.602 141.049 178.609 138.09C174.616 135.132 170.079 132.989 165.257 131.784C160.435 130.579 155.423 130.337 150.508 131.07C145.592 131.803 140.869 133.498 136.609 136.058ZM169.833 191.41C165.292 194.135 160.046 195.453 154.756 195.196C149.467 194.94 144.372 193.12 140.117 189.968C135.861 186.817 132.636 182.474 130.849 177.489C129.062 172.504 128.793 167.101 130.077 161.963C131.36 156.826 134.138 152.184 138.06 148.625C141.981 145.066 146.87 142.75 152.108 141.97C157.346 141.19 162.697 141.98 167.486 144.241C172.274 146.502 176.285 150.133 179.01 154.673C180.829 157.688 182.035 161.032 182.56 164.514C183.085 167.996 182.917 171.547 182.068 174.964C181.218 178.381 179.703 181.597 177.609 184.428C175.514 187.259 172.882 189.648 169.863 191.461L169.833 191.41Z" fill="white"/>
<path fill-rule="evenodd" clip-rule="evenodd" d="M140.239 80.0798C140.261 80.1297 140.29 80.1766 140.323 80.2196C140.298 80.1713 140.27 80.1246 140.239 80.0798Z" fill="#67DAFF"/>
<path fill-rule="evenodd" clip-rule="evenodd" d="M137.79 94.3533C130.101 106.429 112.309 117.108 98.0365 118.215C90.9855 118.752 86.1356 116.857 83.936 113.337C84.7638 115.144 85.7189 116.89 86.7941 118.561C89.7873 123.548 98.0403 125.36 110.185 121.748C119.485 118.995 127.932 113.924 134.736 107.012C143.635 97.9926 145.92 89.8901 142.911 84.8778C141.38 82.327 140.691 81.0057 140.421 80.4394C142.128 83.8907 141.402 88.6638 137.79 94.3533Z" fill="#27AAE1"/>
<path fill-rule="evenodd" clip-rule="evenodd" d="M132.978 75.5555C132.978 75.5555 122.431 66.6542 85.4179 52.1605C80.7639 91.6641 83.7357 105.113 83.7357 105.113C84.5302 111.87 92.541 115.129 105.885 111.145C114.197 108.654 121.752 104.119 127.86 97.9545C137.6 88.0828 138.53 79.4576 132.978 75.5555Z" fill="#67DAFF"/>
<path fill-rule="evenodd" clip-rule="evenodd" d="M158.194 273.065L149.918 344.774C149.549 347.995 150.221 351.25 151.837 354.061C153.452 356.872 155.926 359.092 158.895 360.395L203.674 380.081L209.812 378.34L168.803 345.252L165.094 272.133L158.194 273.065Z" fill="#27AAE1"/>
<path fill-rule="evenodd" clip-rule="evenodd" d="M313.743 245.52L246.619 219.157L242.893 225.435L301.756 262.084L315.63 314.824L319.66 309.543L323.346 260.766C323.577 257.534 322.771 254.312 321.044 251.569C319.316 248.827 316.759 246.708 313.743 245.52Z" fill="#27AAE1"/>
<path fill-rule="evenodd" clip-rule="evenodd" d="M165.528 271.873L187.843 309.05L184.286 334.918L210.192 378.077L166.425 358.807C163.459 357.5 160.988 355.279 159.373 352.469C157.758 349.659 157.084 346.406 157.448 343.186L165.528 271.873Z" fill="#67DAFF"/>
<path fill-rule="evenodd" clip-rule="evenodd" d="M243.326 225.175L265.641 262.353L290.143 271.379L316.049 314.538L319.609 266.826C319.851 263.593 319.054 260.368 317.333 257.622C315.613 254.875 313.059 252.75 310.045 251.557L243.326 225.175Z" fill="#67DAFF"/>
<path d="M282.202 230.518L280.725 230.745L273.457 181.986C273.255 180.654 272.779 179.378 272.057 178.241C271.335 177.103 270.384 176.128 269.265 175.379C268.146 174.629 266.883 174.12 265.556 173.886C264.229 173.651 262.868 173.696 261.56 174.016L235.145 180.59L234.749 179.092L261.172 172.531C262.675 172.16 264.239 172.105 265.764 172.372C267.289 172.639 268.742 173.22 270.03 174.079C271.318 174.939 272.412 176.057 273.244 177.363C274.076 178.669 274.626 180.134 274.86 181.664L282.202 230.518Z" fill="#193174"/>
<path d="M149.613 307.847L111.337 279.4C110.097 278.474 109.063 277.299 108.301 275.951C107.54 274.603 107.067 273.111 106.915 271.57C106.762 270.03 106.932 268.474 107.414 267.003C107.896 265.531 108.68 264.177 109.715 263.025L126.625 244.201L127.76 245.254L110.756 263.979C109.853 264.981 109.17 266.161 108.75 267.443C108.33 268.724 108.183 270.08 108.317 271.422C108.451 272.764 108.864 274.063 109.53 275.236C110.195 276.409 111.098 277.43 112.182 278.234L150.513 306.63L149.613 307.847Z" fill="#193174"/>
<path d="M271.789 362.166C271.712 362.214 271.627 362.247 271.537 362.262C271.448 362.276 271.357 362.273 271.268 362.253C255.199 359.268 231.865 347.737 214.46 334.086L215.37 332.915C232.347 346.198 255.058 357.531 270.893 360.674C275.783 344.658 278.676 316.759 270.917 289.755L272.391 289.321C280.337 317.011 277.245 345.619 272.161 361.717C272.134 361.814 272.087 361.904 272.023 361.981C271.959 362.059 271.879 362.122 271.789 362.166Z" fill="#193174"/>
<path d="M248.837 344.073C248.7 344.159 248.538 344.195 248.377 344.175C243.428 343.676 233.463 338.519 224.709 329.86L225.793 328.776C233.629 336.512 242.931 341.719 247.938 342.548C248.57 338.109 246.967 328.645 241.812 317.253L243.179 316.64C248.793 328.884 250.249 339.2 249.283 343.545C249.256 343.662 249.201 343.771 249.123 343.863C249.046 343.954 248.948 344.027 248.837 344.073Z" fill="#193174"/>
<path d="M244.245 316.451C232.856 323.287 220.178 327.948 208.903 328.817C197.627 329.686 189.642 326.759 185.944 320.599L187.22 319.833C190.603 325.471 198.254 328.13 208.78 327.312C230.907 325.619 258.609 308.992 270.521 290.253C276.181 281.356 277.444 273.346 274.061 267.708L272.66 265.374L273.935 264.609L275.336 266.943C279.026 273.09 277.765 281.654 271.771 291.064C265.778 300.473 255.634 309.615 244.245 316.451Z" fill="#193174"/>
<path d="M237.2 305.031C223.553 313.222 208.363 318.871 194.822 319.868L194.707 318.375C221.237 316.33 254.614 296.296 268.973 273.799L270.223 274.61C262.944 286.039 250.859 296.832 237.2 305.031Z" fill="#193174"/>
<path d="M231.351 295.287C217.704 303.478 202.514 309.127 188.966 310.111C188.269 310.165 187.585 310.211 186.907 310.236L186.845 308.747C187.511 308.729 188.174 308.678 188.858 308.631C215.389 306.586 248.765 286.552 263.124 264.055L264.366 264.853C257.095 276.296 245.01 287.088 231.351 295.287Z" fill="#193174"/>
<path d="M257.183 221.785C236.692 189.892 214.397 159.194 190.406 129.842C178.39 115.077 163.972 102.441 147.759 92.4638L148.542 91.1958C164.897 101.262 179.44 114.01 191.562 128.905C215.591 158.297 237.919 189.039 258.435 220.981L257.183 221.785Z" fill="#193174"/>
<path d="M154.364 284.316L153.089 285.081C134.624 251.683 117.986 217.307 103.249 182.105C95.3556 163.203 90.8938 143.046 90.0729 122.578L91.5627 122.517C92.3717 142.81 96.8001 162.795 104.639 181.53C119.34 216.668 135.939 250.98 154.364 284.316Z" fill="#193174"/>
<path d="M200.98 244.226C198.457 245.74 195.542 246.472 192.604 246.33C189.665 246.187 186.835 245.176 184.471 243.425C182.107 241.674 180.315 239.262 179.322 236.492C178.329 233.723 178.18 230.721 178.893 227.867C179.606 225.013 181.149 222.434 183.328 220.457C185.507 218.48 188.223 217.193 191.133 216.759C194.042 216.326 197.016 216.765 199.676 218.021C202.336 219.277 204.564 221.294 206.078 223.817C208.109 227.199 208.712 231.25 207.756 235.077C206.8 238.905 204.362 242.196 200.98 244.226ZM186.435 219.994C184.164 221.356 182.349 223.362 181.219 225.756C180.088 228.15 179.693 230.826 180.083 233.445C180.473 236.064 181.631 238.508 183.411 240.469C185.19 242.43 187.511 243.819 190.08 244.46C192.649 245.102 195.35 244.968 197.843 244.074C200.335 243.181 202.506 241.568 204.082 239.44C205.658 237.312 206.568 234.765 206.696 232.121C206.824 229.476 206.166 226.853 204.803 224.582C202.976 221.538 200.014 219.344 196.569 218.484C193.124 217.623 189.479 218.166 186.435 219.994Z" fill="#193174"/>
<path d="M175.934 201.574C169.39 205.502 161.828 207.401 154.205 207.031C146.582 206.661 139.24 204.039 133.107 199.495C126.975 194.952 122.327 188.692 119.752 181.508C117.178 174.323 116.791 166.536 118.643 159.132C120.494 151.727 124.499 145.039 130.152 139.911C135.805 134.783 142.852 131.447 150.401 130.325C157.951 129.202 165.663 130.344 172.563 133.605C179.464 136.866 185.242 142.1 189.167 148.646C194.405 157.426 195.954 167.923 193.474 177.841C190.994 187.76 184.688 196.293 175.934 201.574ZM136.991 136.696C130.7 140.472 125.67 146.028 122.537 152.663C119.404 159.298 118.309 166.713 119.391 173.97C120.472 181.227 123.681 188.001 128.612 193.435C133.542 198.868 139.974 202.717 147.092 204.496C154.211 206.274 161.697 205.902 168.604 203.425C175.511 200.949 181.528 196.48 185.895 190.584C190.262 184.688 192.783 177.629 193.138 170.301C193.494 162.972 191.668 155.702 187.892 149.411C182.812 140.994 174.605 134.93 165.066 132.547C155.528 130.164 145.433 131.656 136.991 136.696Z" fill="#193174"/>
<path d="M180.367 155.663L179.092 156.428C178.839 156.007 178.594 155.599 178.327 155.153L179.602 154.387C179.888 154.806 180.135 155.247 180.367 155.663Z" fill="#193174"/>
<path d="M173.97 189.342L172.988 188.197C173.727 187.567 174.43 186.895 175.095 186.187L176.217 187.248C175.505 187.985 174.755 188.684 173.97 189.342ZM178.191 184.814L177.002 183.931C177.575 183.149 178.107 182.337 178.596 181.5L179.887 182.234C179.364 183.137 178.785 184.006 178.153 184.837L178.191 184.814ZM181.277 179.492L179.91 178.89C180.288 178.005 180.613 177.097 180.881 176.173L182.31 176.616C182.004 177.601 181.646 178.568 181.239 179.515L181.277 179.492ZM183.092 173.614L181.631 173.346C181.816 172.39 181.949 171.424 182.028 170.453L183.505 170.573C183.409 171.601 183.258 172.624 183.054 173.637L183.092 173.614ZM183.561 167.486L182.084 167.54C182.046 166.571 181.958 165.605 181.821 164.645L183.285 164.425C183.431 165.447 183.511 166.477 183.523 167.509L183.561 167.486ZM182.664 161.397L181.182 161.818C180.927 160.876 180.619 159.948 180.261 159.04L181.666 158.491C182.037 159.45 182.358 160.428 182.626 161.42L182.664 161.397Z" fill="#193174"/>
<path d="M170.215 192.047L169.45 190.772C169.871 190.519 170.279 190.274 170.725 190.006L171.491 191.282C171.088 191.506 170.662 191.779 170.215 192.047Z" fill="#193174"/>
<path d="M170.215 192.047C165.557 194.847 160.173 196.202 154.744 195.941C149.315 195.68 144.085 193.814 139.717 190.581C135.349 187.347 132.037 182.89 130.202 177.774C128.367 172.658 128.091 167.113 129.408 161.84C130.726 156.567 133.577 151.803 137.603 148.151C141.628 144.499 146.646 142.123 152.022 141.323C157.398 140.524 162.891 141.337 167.804 143.66C172.718 145.982 176.833 149.71 179.627 154.372L178.352 155.137C175.706 150.735 171.815 147.216 167.169 145.026C162.524 142.835 157.333 142.071 152.253 142.83C147.174 143.589 142.433 145.837 138.631 149.29C134.829 152.743 132.136 157.246 130.892 162.229C129.649 167.212 129.911 172.452 131.645 177.287C133.38 182.121 136.509 186.333 140.636 189.389C144.764 192.445 149.705 194.209 154.835 194.458C159.965 194.706 165.054 193.428 169.458 190.785L170.215 192.047Z" fill="#193174"/>
<path d="M123.74 116.527C119.547 119.045 115.052 121.026 110.364 122.422C98.6092 125.904 89.5477 124.594 86.1258 118.893C85.0706 117.21 84.1122 115.468 83.255 113.677L84.6222 113.064C85.4613 114.798 86.3889 116.488 87.4012 118.127C90.4021 123.127 99.0401 124.222 109.94 120.993C119.114 118.263 127.449 113.26 134.172 106.448C142.148 98.3475 145.244 90.2091 142.243 85.2096C141.248 83.6527 140.352 82.0349 139.561 80.3657L140.943 79.7787C141.714 81.3804 142.574 82.9379 143.518 84.4441C146.94 90.1451 143.834 98.7579 135.234 107.494C131.797 110.975 127.935 114.01 123.74 116.527Z" fill="#193174"/>
<path d="M120.747 111.02C113.885 115.321 106.147 118.033 98.1004 118.957C91.4678 119.469 86.4139 117.87 83.7959 114.462C81.5965 111.636 81.2412 107.807 82.7634 103.406L84.1691 103.898C82.828 107.791 83.0989 111.133 84.9744 113.564C87.2734 116.556 91.9037 117.94 97.9726 117.473C112.021 116.396 129.596 105.847 137.152 93.9554C140.348 88.9319 141.309 84.521 139.921 81.2253C138.772 78.4448 135.864 76.3739 131.578 75.3899L131.907 73.9434C136.687 75.0294 139.923 77.3554 141.285 80.6664C142.845 84.4493 141.833 89.3245 138.377 94.7817C133.782 101.438 127.759 106.986 120.747 111.02Z" fill="#193174"/>
<path d="M118.075 106.569C114.318 108.83 110.29 110.607 106.086 111.856C97.8368 114.327 91.0128 114.173 86.8745 111.469C85.7855 110.781 84.867 109.854 84.1885 108.758C83.5099 107.663 83.0891 106.428 82.9576 105.146C82.8478 104.674 80.0725 91.2637 84.6831 52.0637C84.7018 51.9536 84.744 51.8489 84.8069 51.7567C84.8698 51.6644 84.952 51.5869 85.0477 51.5295C85.1435 51.472 85.2505 51.436 85.3615 51.4238C85.4725 51.4116 85.5848 51.4236 85.6907 51.459C118.958 64.4533 131.067 73.0074 133.274 75.0657L133.363 75.0121C134.445 75.7134 135.352 76.6525 136.015 77.7576C136.679 78.8628 137.081 80.1048 137.191 81.389C137.651 86.3175 134.571 92.3998 128.505 98.5386C125.384 101.648 121.879 104.346 118.075 106.569ZM86.0456 53.2064C81.6185 91.3247 84.4269 104.819 84.4576 104.957C84.5488 106.023 84.8825 107.054 85.4331 107.971C85.9837 108.889 86.7367 109.668 87.6345 110.25C91.4079 112.721 97.8391 112.799 105.612 110.458C113.82 108.016 121.277 103.539 127.293 97.4444C133.037 91.6373 136.008 85.9505 135.551 81.4888C135.461 80.433 135.131 79.4117 134.585 78.5031C134.04 77.5946 133.294 76.8228 132.404 76.247L132.343 76.1449C132.022 75.7827 121.788 67.2309 86.0456 53.2064Z" fill="#193174"/>
<path d="M209.96 379.049L203.822 380.79C203.653 380.845 203.47 380.83 203.312 380.749L158.612 361.05C155.491 359.693 152.89 357.368 151.194 354.417C149.498 351.467 148.798 348.049 149.196 344.669L157.523 273.017C157.54 272.853 157.612 272.7 157.726 272.581C157.84 272.463 157.99 272.385 158.153 272.361L165.01 271.385L165.229 272.85L158.934 273.749L150.632 344.865C150.277 347.93 150.916 351.028 152.452 353.703C153.989 356.378 156.344 358.489 159.17 359.726L203.697 379.339L209.618 377.641L209.96 379.049Z" fill="#193174"/>
<path d="M316.225 315.265L315.041 314.362L318.925 309.272L322.562 260.733C322.802 257.657 322.047 254.585 320.409 251.97C318.771 249.355 316.336 247.335 313.463 246.209L246.943 220.072L243.472 225.851L242.186 225.096L245.925 218.81C246.014 218.659 246.153 218.545 246.319 218.487C246.484 218.429 246.664 218.431 246.828 218.493L313.947 244.877C317.117 246.115 319.804 248.341 321.61 251.225C323.416 254.11 324.246 257.499 323.976 260.891L320.29 309.667C320.283 309.811 320.233 309.95 320.147 310.065L316.225 315.265Z" fill="#193174"/>
<path d="M209.921 379.072C209.818 379.133 209.7 379.168 209.58 379.174C209.459 379.18 209.339 379.156 209.23 379.105L165.487 359.873C162.369 358.512 159.771 356.186 158.075 353.236C156.38 350.287 155.677 346.871 156.071 343.492L164.143 272.166C164.164 272.012 164.231 271.869 164.335 271.753C164.439 271.638 164.576 271.557 164.727 271.521C164.88 271.489 165.04 271.506 165.183 271.569C165.326 271.632 165.447 271.738 165.528 271.873L187.843 309.05C187.932 309.198 187.969 309.371 187.948 309.542L184.439 335.173L210.207 378.103C210.288 378.237 210.323 378.394 210.308 378.551C210.292 378.707 210.226 378.854 210.12 378.97C210.061 379.016 209.994 379.051 209.921 379.072ZM165.347 274.462L157.545 343.665C157.191 346.733 157.831 349.834 159.372 352.51C160.913 355.186 163.273 357.297 166.104 358.531L207.753 376.904L183.026 335.709C182.942 335.564 182.908 335.396 182.929 335.23L186.453 309.624L165.347 274.462Z" fill="#193174"/>
<path d="M315.778 315.533C315.723 315.583 315.658 315.622 315.587 315.648C315.435 315.687 315.274 315.676 315.129 315.616C314.984 315.556 314.862 315.451 314.781 315.316L289.021 272.4L264.83 263.429C264.669 263.367 264.534 263.253 264.445 263.105L242.115 225.902C242.031 225.769 241.992 225.613 242.002 225.456C242.013 225.299 242.074 225.149 242.175 225.028C242.276 224.908 242.413 224.823 242.566 224.785C242.719 224.747 242.879 224.759 243.025 224.818L309.767 251.238C312.933 252.482 315.616 254.709 317.421 257.592C319.226 260.474 320.059 263.86 319.796 267.251L316.227 314.951C316.209 315.079 316.158 315.2 316.08 315.301C316.001 315.403 315.897 315.483 315.778 315.533ZM265.496 262.11L289.75 271.042C289.907 271.102 290.04 271.211 290.128 271.354L314.885 312.6L318.257 267.203C318.497 264.127 317.742 261.055 316.104 258.44C314.466 255.825 312.031 253.806 309.158 252.679L244.452 227.05L265.496 262.11Z" fill="#193174"/>
</g>
</g>
<defs>
<clipPath id="clip0_903_273">
<rect width="361" height="331" fill="white"/>
</clipPath>
<clipPath id="clip1_903_273">
<rect width="199.325" height="369.628" fill="white" transform="translate(0 102.581) rotate(-30.9736)"/>
</clipPath>
</defs>
</svg>
