<svg width="352" height="234" viewBox="0 0 352 234" fill="none" xmlns="http://www.w3.org/2000/svg">
<path d="M0 138C0 130.268 6.26801 124 14 124H338C345.732 124 352 130.268 352 138V234H0V138Z" fill="#27AAE1"/>
<g clip-path="url(#clip0_662_1400)">
<path opacity="0.08" fill-rule="evenodd" clip-rule="evenodd" d="M257.901 153.758L144.943 75.1023C139.436 71.2815 130.122 70.5058 124.022 73.3599L88.7134 89.9943C82.6609 92.8429 82.2108 98.2476 87.7079 102.068L200.676 180.724C206.182 184.545 215.496 185.32 221.597 182.466L256.905 165.832C262.964 163.012 263.417 157.579 257.901 153.758Z" fill="black"/>
<path d="M295.981 74.6312L300.502 20.3481L215.446 60.4208L198.935 83.8823C195.867 81.9267 191.792 81.4449 187.107 82.7073C178.017 72.0536 168.915 61.5414 167.611 60.6635C167.32 60.4633 167.018 60.2797 166.706 60.1133C166.706 60.1133 136.987 39.4215 132.978 36.6657C128.97 33.9099 123.127 33.7843 116.392 36.956C102.93 43.3096 91.0157 60.4105 89.7863 75.1721C89.1925 82.3029 91.1959 87.5701 94.9503 90.4091C95.2625 90.6536 116.18 104.99 116.18 104.99L119.403 106.911L59.0762 135.29L54.5554 189.573L139.607 149.557L154.693 128.142L155.888 128.859C156.491 133.031 158.296 136.221 160.925 138.207C161.193 138.409 184.644 154.495 193.068 160.259C193.938 161.097 194.94 161.787 196.033 162.301C199.5 163.919 203.995 163.914 209.089 161.964L209.959 160.649C211.324 161.599 215.218 164.583 216.132 165.02C219.087 166.396 223.027 166.202 227.481 164.065C227.481 164.065 230.75 161.327 231.02 161.511C232.564 162.589 234.817 162.587 237.396 161.396C242.586 158.979 247.161 152.531 247.626 146.947C247.867 144.061 246.947 141.98 245.274 140.967L247.581 135.166C248.078 129.205 246.17 124.952 242.73 123.023C242.038 122.538 239.805 120.946 237.343 119.24L237.922 118.339C237.525 112.607 235.143 108.467 231.41 106.399L230.179 105.546L295.981 74.6312Z" fill="#FBFBFF"/>
<path d="M151.213 60.9695C157.453 58.0321 162.869 57.9228 166.876 60.1275C166.876 60.1275 137.138 39.4342 133.129 36.6784C129.121 33.9226 123.278 33.7969 116.543 36.9686C103.081 43.3223 91.1667 60.4232 89.9373 75.1848C89.3434 82.3156 91.3468 87.5827 95.1013 90.4218C95.423 90.6671 119.535 106.922 119.535 106.922L124.588 104.55C124.588 104.55 124.597 99.1943 124.858 97.4305C127.29 80.6606 138.286 67.0637 151.213 60.9695Z" fill="#B3B6FF"/>
<path d="M139.607 149.557L54.5554 189.573L59.0762 135.29L144.127 95.274L139.607 149.557Z" fill="white"/>
<path d="M84.6514 147.668L86.2743 128.181L64.5159 138.431L62.893 157.918L84.6514 147.668Z" fill="#797EF6"/>
<path d="M62.4483 163.257L60.9008 181.839L82.6592 171.589L84.2068 153.007L62.4483 163.257Z" fill="#797EF6"/>
<path d="M137.108 122.508L138.731 103.021L116.972 113.281L115.349 132.768L137.108 122.508Z" fill="#797EF6"/>
<path d="M114.904 138.107L113.358 156.679L135.116 146.429L136.664 127.847L114.904 138.107Z" fill="#797EF6"/>
<path d="M110.408 135.054L112.031 115.566L90.2721 125.816L88.6492 145.304L110.408 135.054Z" fill="#797EF6"/>
<path d="M88.2046 150.642L86.657 169.224L108.416 158.965L109.963 140.392L88.2046 150.642Z" fill="#797EF6"/>
<path d="M215.446 60.4208L212.699 93.3963L230.279 105.593L295.981 74.6312L300.502 20.3482L215.446 60.4208Z" fill="white"/>
<path d="M241.023 72.78L242.645 53.3022L220.886 63.5523L219.263 83.0395L241.023 72.78Z" fill="#797EF6"/>
<path d="M226.598 102.56L239.03 96.7004L240.577 78.1282L218.819 88.3782L218.087 97.1692L226.598 102.56Z" fill="#797EF6"/>
<path d="M293.479 47.6298L295.102 28.1426L273.343 38.3926L271.72 57.8798L293.479 47.6298Z" fill="#797EF6"/>
<path d="M271.276 63.2183L269.728 81.8L291.486 71.5499L293.034 52.9683L271.276 63.2183Z" fill="#797EF6"/>
<path d="M267.722 60.244L269.345 40.7568L247.587 51.0069L245.964 70.4941L267.722 60.244Z" fill="#797EF6"/>
<path d="M245.519 75.8328L243.972 94.4145L265.73 84.1644L267.278 65.5828L245.519 75.8328Z" fill="#797EF6"/>
<path d="M199.429 84.1039C195.385 81.3262 189.503 81.2068 182.718 84.4028C174.805 88.1507 166.12 97.7325 161.104 106.271L167.411 110.406L155.737 127.593C156.339 131.765 158.466 136.235 161.104 138.222C161.426 138.467 196.213 162.316 196.213 162.316C196.213 162.316 194.134 133.308 199.069 125.513C204.125 117.509 231.92 106.66 231.92 106.66C231.92 106.66 203.464 86.8809 199.429 84.1039Z" fill="#B3B6FF"/>
<path d="M203.005 155.834C199.693 153.849 197.819 149.647 198.306 143.799C199.236 132.631 208.248 119.695 218.434 114.902C223.52 112.476 227.948 112.589 230.977 114.674C232.37 115.635 235.535 117.903 238.033 119.63L238.134 118.423C237.3 106.529 227.986 101.527 215.781 107.282C202.222 113.666 190.23 130.893 188.992 145.759C187.814 159.907 196.745 166.767 209.249 161.977L210.119 160.663C207.374 158.715 204.399 156.672 203.005 155.834Z" fill="#797EF6"/>
<path d="M225.623 157.053C223.967 156.06 223.028 153.988 223.273 151.045C223.736 145.48 228.228 139.015 233.311 136.627C235.852 135.433 238.053 135.474 239.573 136.512C240.597 137.225 245.421 140.913 246.875 141.936L247.777 135.211C248.706 124.052 241.202 118.887 231.015 123.69C220.828 128.493 211.826 141.42 210.896 152.588C209.966 163.756 217.471 168.911 227.649 164.108L231.745 162.046C230.45 160.931 226.627 157.669 225.623 157.053Z" fill="#797EF6"/>
<path d="M244.688 155.418C248.744 149.822 249.388 143.371 246.127 141.009C242.865 138.648 236.934 141.27 232.878 146.866C228.822 152.462 228.178 158.913 231.439 161.275C234.7 163.636 240.632 161.014 244.688 155.418Z" fill="#797EF6"/>
<path d="M116.061 105.388C115.16 104.8 95.1344 91.0515 94.8127 90.8062C90.7822 87.7447 88.8787 82.1915 89.4639 75.1644C90.7035 60.2802 102.76 42.9631 116.339 36.5623C123.015 33.4142 129.075 33.33 133.398 36.3019C137.361 39.0349 166.849 59.5459 167.145 59.751L166.605 60.5323C166.31 60.3083 136.823 39.7879 132.822 37.0612C128.821 34.3345 123.066 34.4061 116.707 37.4002C103.405 43.6626 91.5866 60.6291 90.3714 75.2209C89.8129 81.9273 91.5788 87.1937 95.3513 90.0438C95.673 90.289 109.373 99.674 116.564 104.604L116.061 105.388Z" fill="#081E7A"/>
<path d="M125.144 99.1352L124.2 99.0567C125.437 84.2007 137.462 66.919 151.012 60.5348C157.667 57.4039 163.719 57.3095 168.032 60.2807C169.883 61.5556 176.514 68.9937 187.743 82.3803L187.018 82.9848C176.005 69.8536 169.254 62.2724 167.494 61.0337C163.469 58.2575 157.757 58.3802 151.417 61.3664C138.142 67.65 126.356 84.5812 125.144 99.1352Z" fill="#081E7A"/>
<path d="M54.9879 190.084C54.9044 190.079 54.8242 190.049 54.7575 189.998C54.6896 189.951 54.6352 189.887 54.5998 189.813C54.5643 189.738 54.549 189.656 54.5554 189.573L59.0762 135.29C59.0839 135.207 59.1127 135.127 59.1601 135.057C59.2074 134.988 59.2716 134.932 59.3467 134.895L144.398 94.8788C144.473 94.8434 144.556 94.8284 144.639 94.8353C144.722 94.8422 144.802 94.8707 144.87 94.9181C144.938 94.9674 144.992 95.0332 145.027 95.1093C145.062 95.1854 145.077 95.2692 145.071 95.3528L140.55 149.636C140.543 149.718 140.514 149.797 140.467 149.865C140.42 149.932 140.355 149.987 140.281 150.022L55.2293 190.038C55.1552 190.077 55.0712 190.093 54.9879 190.084ZM59.9955 135.661L55.565 188.86L139.626 149.321L144.057 96.1231L59.9955 135.661Z" fill="#081E7A"/>
<path d="M140.144 149.839L139.372 149.3L166.773 110.542L144.017 95.6829L144.54 94.8905L167.701 110.012C167.754 110.047 167.8 110.093 167.834 110.146C167.869 110.2 167.892 110.26 167.903 110.323C167.923 110.383 167.931 110.447 167.926 110.51C167.92 110.573 167.902 110.635 167.872 110.691L140.144 149.839Z" fill="#081E7A"/>
<path d="M62.8592 158.324L61.9155 158.245L63.5722 138.352C63.5796 138.27 63.6083 138.191 63.6557 138.123C63.703 138.056 63.7672 138.002 63.8419 137.966L85.6004 127.716C85.6755 127.681 85.7587 127.666 85.8415 127.673C85.9244 127.68 86.0039 127.708 86.0722 127.756C86.1401 127.803 86.1944 127.867 86.2299 127.941C86.2654 128.016 86.2807 128.099 86.2743 128.181L84.6412 147.791L83.6975 147.712L85.2623 128.923L64.4931 138.704L62.8592 158.324Z" fill="#081E7A"/>
<path d="M60.3928 182.233C60.3093 182.228 60.2291 182.198 60.1624 182.147C60.0945 182.1 60.0402 182.036 60.0047 181.962C59.9692 181.887 59.9539 181.804 59.9603 181.722L61.5078 163.14C61.5152 163.058 61.5439 162.979 61.5912 162.912C61.6385 162.844 61.7028 162.79 61.7775 162.755L83.5359 152.504C83.6111 152.469 83.6943 152.454 83.7771 152.461C83.8599 152.468 83.9395 152.496 84.0078 152.544C84.0757 152.591 84.13 152.655 84.1655 152.729C84.201 152.804 84.2163 152.887 84.2099 152.969L82.6624 171.551C82.6533 171.632 82.6238 171.711 82.5767 171.778C82.5296 171.845 82.4663 171.9 82.3927 171.937L60.6288 182.253C60.5498 182.269 60.468 182.262 60.3928 182.233ZM62.4256 163.53L60.9692 181.018L81.7383 171.236L83.1955 153.739L62.4256 163.53Z" fill="#081E7A"/>
<path d="M115.388 132.306L114.444 132.227L116.029 113.193C116.038 113.111 116.068 113.033 116.115 112.965C116.162 112.898 116.225 112.843 116.299 112.807L138.057 102.557C138.132 102.521 138.216 102.506 138.298 102.513C138.381 102.52 138.461 102.549 138.529 102.596C138.597 102.643 138.651 102.707 138.687 102.782C138.722 102.856 138.738 102.939 138.731 103.021L137.091 122.716L136.147 122.637L137.718 103.773L116.95 113.545L115.388 132.306Z" fill="#081E7A"/>
<path d="M112.843 157.158C112.759 157.153 112.679 157.123 112.612 157.073C112.544 157.026 112.489 156.962 112.453 156.888C112.418 156.813 112.403 156.73 112.41 156.647L113.961 138.028C113.968 137.945 113.997 137.864 114.045 137.795C114.092 137.726 114.156 137.67 114.231 137.633L135.99 127.383C136.065 127.347 136.148 127.332 136.231 127.339C136.314 127.346 136.393 127.375 136.462 127.422C136.528 127.47 136.581 127.535 136.617 127.609C136.652 127.683 136.668 127.765 136.664 127.847L135.116 146.429C135.109 146.511 135.08 146.59 135.033 146.658C134.985 146.725 134.921 146.78 134.846 146.815L113.088 157.065C113.018 157.121 112.932 157.154 112.843 157.158ZM114.886 138.333L113.428 155.83L134.198 146.039L135.652 128.589L114.886 138.333Z" fill="#081E7A"/>
<path d="M88.1381 145.736C88.0545 145.731 87.9744 145.701 87.9076 145.65C87.8398 145.603 87.7854 145.539 87.7499 145.465C87.7145 145.39 87.6992 145.307 87.7055 145.225L89.3269 125.757C89.3345 125.673 89.3634 125.593 89.4108 125.524C89.4581 125.455 89.5223 125.399 89.5974 125.361L111.356 115.111C111.431 115.076 111.514 115.061 111.597 115.068C111.68 115.075 111.759 115.103 111.828 115.151C111.895 115.2 111.95 115.266 111.985 115.342C112.02 115.418 112.035 115.502 112.029 115.585L110.406 135.073C110.399 135.155 110.37 135.234 110.323 135.301C110.275 135.369 110.211 135.423 110.136 135.458L88.3779 145.709C88.3023 145.741 88.219 145.75 88.1381 145.736ZM90.2493 126.09L88.7175 144.483L109.487 134.702L111.019 116.299L90.2493 126.09Z" fill="#081E7A"/>
<path d="M86.1467 169.647C86.0646 169.641 85.9853 169.614 85.9155 169.571C85.8489 169.522 85.7956 169.458 85.7602 169.384C85.7249 169.31 85.7088 169.228 85.7133 169.146L87.2365 150.856L88.1802 150.935L86.7253 168.404L107.495 158.613L109.019 140.323L109.962 140.402L108.416 158.965C108.409 159.048 108.38 159.128 108.332 159.197C108.285 159.267 108.221 159.323 108.146 159.36L86.3873 169.61C86.3112 169.642 86.2287 169.654 86.1467 169.647Z" fill="#081E7A"/>
<path d="M233.099 105.049L232.696 104.189L295.997 74.3192L300.424 21.1681L216.367 60.773L213.84 91.1168L212.896 91.0382L215.446 60.4209C215.453 60.3386 215.482 60.2597 215.529 60.192C215.576 60.1243 215.641 60.0701 215.715 60.0349L300.771 19.9623C300.847 19.9269 300.93 19.9119 301.013 19.9188C301.095 19.9256 301.175 19.9542 301.243 20.0016C301.311 20.0487 301.366 20.1127 301.401 20.1873C301.437 20.2619 301.452 20.3445 301.445 20.4268L296.925 74.7099C296.917 74.7933 296.888 74.8735 296.841 74.9426C296.793 75.0118 296.729 75.0678 296.654 75.1052L233.099 105.049Z" fill="#081E7A"/>
<path d="M215.217 60.1726L201.109 80.3047L201.885 80.8478L215.993 60.7157L215.217 60.1726Z" fill="#081E7A"/>
<path d="M219.265 83.0206L218.321 82.942L219.94 63.5019C219.948 63.4185 219.977 63.3383 220.024 63.2691C220.071 63.1999 220.136 63.144 220.211 63.1066L241.969 52.8565C242.044 52.8211 242.127 52.8061 242.21 52.813C242.293 52.8199 242.373 52.8484 242.441 52.8958C242.508 52.9442 242.561 53.0084 242.596 53.0827C242.632 53.157 242.648 53.2389 242.643 53.321L241.047 72.4875L240.103 72.4089L241.633 54.0348L220.863 63.8258L219.265 83.0206Z" fill="#081E7A"/>
<path d="M226.326 102.975L225.922 102.124L238.109 96.3577L239.566 78.8608L218.796 88.6518L218.089 97.1409L217.145 97.0623L217.875 88.2996C217.882 88.2174 217.911 88.1385 217.958 88.0708C218.006 88.0031 218.07 87.9489 218.145 87.9137L239.903 77.6637C239.978 77.6283 240.061 77.6133 240.144 77.6201C240.226 77.6268 240.306 77.6551 240.374 77.7021C240.442 77.7492 240.497 77.8133 240.532 77.888C240.568 77.9628 240.584 78.0456 240.577 78.1282L239.03 96.7004C239.023 96.7839 238.994 96.864 238.947 96.9332C238.899 97.0024 238.835 97.0584 238.76 97.0958L226.326 102.975Z" fill="#081E7A"/>
<path d="M271.715 57.9459L270.771 57.8673L272.399 38.314C272.407 38.2318 272.436 38.1529 272.483 38.0852C272.53 38.0175 272.594 37.9633 272.669 37.9281L294.428 27.6686C294.505 27.6374 294.587 27.6248 294.669 27.6316C294.751 27.6384 294.83 27.6646 294.9 27.7079C294.968 27.7572 295.022 27.8231 295.057 27.8991C295.093 27.9752 295.108 28.059 295.102 28.1426L293.497 47.4128L292.553 47.3342L294.093 28.8375L273.32 38.6662L271.715 57.9459Z" fill="#081E7A"/>
<path d="M269.217 82.2323C269.134 82.2225 269.055 82.1932 268.987 82.1466C268.919 82.0995 268.864 82.0355 268.829 81.9609C268.793 81.8863 268.778 81.8037 268.784 81.7214L270.332 63.1397C270.339 63.0575 270.368 62.9785 270.415 62.9108C270.463 62.8431 270.527 62.789 270.602 62.7538L292.36 52.5037C292.435 52.4683 292.518 52.4533 292.601 52.4602C292.684 52.4671 292.764 52.4957 292.832 52.543C292.9 52.5901 292.954 52.6541 292.99 52.7287C293.025 52.8033 293.04 52.8859 293.034 52.9683L291.487 71.5405C291.48 71.624 291.451 71.7041 291.403 71.7733C291.356 71.8425 291.292 71.8985 291.217 71.9359L269.458 82.1859C269.383 82.2204 269.3 82.2363 269.217 82.2323ZM271.253 63.4918L269.799 80.9511L290.568 71.1695L292.022 53.7103L271.253 63.4918Z" fill="#081E7A"/>
<path d="M245.453 70.9264C245.371 70.9199 245.291 70.8938 245.222 70.8501C245.154 70.8008 245.1 70.735 245.065 70.6589C245.029 70.5829 245.014 70.4991 245.02 70.4155L246.643 50.9283C246.651 50.846 246.679 50.7671 246.727 50.6994C246.774 50.6317 246.838 50.5776 246.913 50.5424L268.671 40.2923C268.747 40.2569 268.83 40.2419 268.913 40.2488C268.995 40.2557 269.075 40.2842 269.143 40.3316C269.211 40.3787 269.265 40.4427 269.301 40.5173C269.336 40.5919 269.352 40.6745 269.345 40.7568L267.722 60.244C267.715 60.3275 267.686 60.4076 267.639 60.4768C267.591 60.546 267.527 60.602 267.452 60.6394L245.694 70.8894C245.617 70.9209 245.535 70.9336 245.453 70.9264ZM247.564 51.2804L246.032 69.6829L266.802 59.8919L268.333 41.4989L247.564 51.2804Z" fill="#081E7A"/>
<path d="M243.461 94.8469C243.377 94.8416 243.297 94.8118 243.23 94.7612C243.162 94.7141 243.108 94.6501 243.073 94.5755C243.037 94.5009 243.022 94.4183 243.028 94.336L244.586 75.6317L245.53 75.7102L244.037 93.6317L264.806 83.8501L266.368 65.0986L267.312 65.1772L265.73 84.1645C265.723 84.2468 265.694 84.3257 265.647 84.3934C265.6 84.4611 265.535 84.5152 265.461 84.5504L243.702 94.8005C243.628 94.8393 243.544 94.8554 243.461 94.8469Z" fill="#081E7A"/>
<path d="M162.741 104.413L161.926 103.937C167.222 94.8801 174.685 87.6469 182.516 83.9777C189.241 80.8146 195.34 80.7242 199.689 83.7173C203.68 86.4621 231.931 106.072 232.215 106.314L231.675 107.096C231.388 106.891 203.145 87.2913 199.155 84.5466C195.164 81.8018 189.318 81.8278 182.917 84.8753C175.295 88.429 167.945 95.5576 162.741 104.413Z" fill="#081E7A"/>
<path d="M195.971 162.704C192.373 160.268 161.166 138.844 160.844 138.608C158.066 136.477 156.261 133.164 155.614 128.95L156.576 128.812C157.196 132.777 158.837 135.896 161.429 137.85C161.931 138.214 196.179 161.696 196.483 161.921L195.971 162.704Z" fill="#081E7A"/>
<path d="M200.527 163.91C198.161 163.749 195.89 162.918 193.98 161.513C189.893 158.446 187.966 152.834 188.558 145.722C189.806 130.734 201.948 113.301 215.617 106.851C221.937 103.882 227.783 103.628 232.087 106.142C235.921 108.361 238.255 112.744 238.667 118.401L237.712 118.464C237.339 113.133 235.17 109.049 231.619 106.968C227.596 104.609 222.063 104.871 216.03 107.711C202.639 114.023 190.734 131.116 189.511 145.802C188.946 152.583 190.738 157.89 194.556 160.753C198.131 163.473 203.352 163.756 209.124 161.539L209.469 162.423C206.638 163.584 203.582 164.092 200.527 163.91Z" fill="#081E7A"/>
<path d="M216.061 165.413C215.953 165.347 205.722 158.008 202.762 156.242C199.144 154.041 197.4 149.545 197.881 143.763C198.824 132.445 207.965 119.33 218.271 114.47C223.357 112.045 227.978 112.012 231.284 114.291C234.286 116.355 243.339 122.779 243.429 122.844L242.88 123.615C242.79 123.55 233.745 117.155 230.744 115.072C227.744 112.989 223.441 113.087 218.674 115.33C208.645 120.061 199.741 132.844 198.825 143.842C198.374 149.256 199.993 153.437 203.248 155.427C206.244 157.215 216.189 164.341 216.609 164.651L216.061 165.413Z" fill="#081E7A"/>
<path d="M219.555 166.359C217.864 166.236 216.235 165.664 214.838 164.703C211.55 162.425 209.99 158.107 210.453 152.551C211.395 141.232 220.545 128.118 230.842 123.258C235.947 120.834 240.549 120.799 243.892 123.1C247.235 125.402 248.74 129.697 248.277 135.252L247.333 135.174C247.767 129.967 246.353 125.955 243.352 123.872C240.352 121.789 236.032 121.866 231.245 124.118C221.217 128.839 212.312 141.631 211.396 152.629C210.963 157.836 212.377 161.848 215.377 163.931C218.377 166.014 222.698 165.937 227.475 163.685L227.878 164.545C225.309 165.863 222.44 166.488 219.555 166.359Z" fill="#081E7A"/>
<path d="M230.91 161.92C229.143 160.343 227.297 158.858 225.379 157.47C223.505 156.364 222.58 153.998 222.829 151.017C223.3 145.358 227.924 138.667 233.136 136.214C235.757 134.979 238.144 134.95 239.87 136.139C241.377 137.214 245.925 140.442 245.925 140.442L245.377 141.213C245.377 141.213 240.837 137.986 239.33 136.91C237.824 135.835 235.836 135.974 233.541 137.055C228.596 139.379 224.271 145.676 223.82 151.091C223.603 153.694 224.384 155.725 225.913 156.65C227.881 158.071 229.775 159.592 231.587 161.207L230.91 161.92Z" fill="#081E7A"/>
<path d="M233.26 163.018C232.343 162.953 231.46 162.643 230.703 162.121C228.978 160.923 228.137 158.697 228.375 155.848C228.851 150.123 233.568 143.468 238.875 141.013C241.582 139.767 244.034 139.762 245.794 140.991C247.554 142.221 248.359 144.425 248.122 147.264C247.646 152.989 242.929 159.653 237.622 162.099C236.272 162.775 234.769 163.091 233.26 163.018ZM243.186 141.05C241.845 140.992 240.512 141.28 239.315 141.886C234.275 144.211 229.807 150.516 229.355 155.939C229.148 158.43 229.824 160.357 231.251 161.359C232.678 162.361 234.846 162.352 237.227 161.249C242.267 158.924 246.736 152.619 247.187 147.195C247.395 144.705 246.718 142.787 245.291 141.785C244.669 141.353 243.942 141.096 243.186 141.04L243.186 141.05Z" fill="#081E7A"/>
</g>
<defs>
<clipPath id="clip0_662_1400">
<rect width="232" height="190" fill="white" transform="translate(70.2852 0.700195) rotate(4.76074)"/>
</clipPath>
</defs>
</svg>