<svg width="1280" height="997" viewBox="0 0 1280 997" fill="none" xmlns="http://www.w3.org/2000/svg">
<path d="M1280 0H0V997H1280V0Z" fill="#F9F9F9"/>
<g clip-path="url(#clip0_3_98)">
<path opacity="0.08" fill-rule="evenodd" clip-rule="evenodd" d="M976.606 361.941L988.953 354.927C997.667 349.929 1011.88 349.929 1020.7 354.927L1208.44 462.714C1217.26 467.729 1217.26 475.865 1208.44 480.897L1172.82 485.965C1165.62 486.996 1158.28 485.568 1151.99 481.914L976.606 380.212C967.856 375.11 967.856 366.973 976.606 361.941Z" fill="#EEEEEE"/>
<path opacity="0.08" fill-rule="evenodd" clip-rule="evenodd" d="M1001.56 487.946C1019.2 498.064 1030.65 511.092 1027.19 517.037C1023.74 522.981 1006.64 519.632 989.023 509.532C971.402 499.432 959.936 486.386 963.394 480.424C966.851 474.462 983.926 477.829 1001.56 487.946Z" fill="#EEEEEE"/>
<path d="M958.843 280.263C961.429 280.689 963.986 281.274 966.498 282.017V144.965C966.939 131.358 985.602 116.067 987.083 114.279C990.4 110.246 996.273 109.649 1002.85 113.507L1184.17 217.506C1194.49 223.433 1202.86 237.794 1202.86 249.595V456.857C1202.86 462.608 1200.89 466.677 1197.57 468.693C1194.26 470.71 1172.19 473.235 1167.92 473.708C1164.83 474.848 1160.86 474.322 1156.58 471.849L1024.87 396.186C1020.05 413.721 1015.73 429.38 1015.36 430.081C1013.99 432.394 1012.01 434.282 1009.63 435.535C1001.18 440.374 987.789 440.672 978.758 436.411V450.439C978.758 450.439 986.166 473.936 1002.73 483.913C1020.37 494.592 1042.81 493.487 1067.43 480.722C1091.01 468.448 1111.74 465.887 1129.01 472.972C1152.15 482.44 1159.88 505.779 1160.2 506.761C1160.51 507.608 1160.65 508.509 1160.61 509.411C1160.56 510.313 1160.33 511.196 1159.94 512.008C1159.54 512.82 1158.98 513.543 1158.29 514.134C1157.61 514.725 1156.81 515.172 1155.94 515.447C1155.08 515.722 1154.16 515.82 1153.26 515.735C1152.36 515.65 1151.48 515.384 1150.68 514.952C1149.88 514.52 1149.18 513.933 1148.62 513.224C1148.06 512.515 1147.64 511.701 1147.41 510.829C1147.41 510.636 1141.32 492.453 1123.89 485.316C1110.45 479.81 1093.55 482.247 1073.64 492.576C1036.99 511.566 1011.05 504.552 995.762 495.328C976.87 483.948 966.41 450.439 966.41 450.439V429.24L958.755 424.944L958.843 280.263Z" fill="#FDFDFD"/>
<path d="M1174.64 461.591V264.412C1174.64 253.19 1166.67 239.512 1156.84 233.884L984.279 134.847C979.745 132.234 974.066 131.621 970.908 133.006C974.665 128.114 985.602 116.067 987.083 114.279C990.4 110.246 996.273 109.649 1002.85 113.507L1184.17 217.506C1194.49 223.433 1202.86 237.794 1202.86 249.595V456.769C1202.86 462.503 1200.89 466.554 1197.7 468.553C1194.5 470.552 1172.4 473.077 1168.15 473.568C1172.12 472.112 1174.64 467.904 1174.64 461.591Z" fill="#FDFDFD"/>
<path d="M1076.2 224.275C1114.46 246.193 1145.34 299.377 1145.34 342.951C1145.34 386.525 1114.46 404.182 1076.2 382.264C1064.09 375.06 1053.3 365.863 1044.29 355.067L1007.07 320.699V263.588C1007.07 219.961 1038.01 202.356 1076.2 224.275Z" fill="#FDFDFD"/>
<path d="M1094.66 322.44C1090.82 316.033 1090.74 309.043 1094.48 306.829C1098.23 304.614 1104.37 308.013 1108.21 314.42C1112.05 320.827 1112.12 327.816 1108.38 330.031C1104.64 332.246 1098.5 328.847 1094.66 322.44Z" fill="#FDFDFD"/>
<path d="M1043.51 292.64C1039.67 286.233 1039.59 279.243 1043.33 277.029C1047.07 274.814 1053.22 278.213 1057.05 284.62C1060.89 291.027 1060.97 298.016 1057.23 300.231C1053.49 302.446 1047.34 299.047 1043.51 292.64Z" fill="#FDFDFD"/>
<path d="M964.733 428.906V450.404C964.733 463.52 976.076 483.913 994.967 495.293C1010.26 504.517 1036.19 511.531 1072.84 492.541C1092.76 482.212 1109.66 479.775 1123.1 485.246C1140.53 492.383 1146.54 510.566 1146.61 510.759C1147.04 512.109 1147.89 513.287 1149.04 514.123C1150.19 514.958 1151.57 515.408 1153 515.406C1154.06 515.409 1155.11 515.161 1156.06 514.681C1157.01 514.202 1157.83 513.506 1158.45 512.65C1159.08 511.794 1159.49 510.803 1159.66 509.758C1159.82 508.712 1159.73 507.643 1159.4 506.639C1159.08 505.657 1151.36 482.318 1128.21 472.849C1110.94 465.835 1090.22 468.395 1066.63 480.599C1041.94 493.365 1019.64 494.469 1001.93 483.791C985.371 473.813 978.21 456.787 978.845 450.317V435.833L964.733 428.906Z" fill="#FDFDFD"/>
<path d="M920.036 332.517C920.036 332.517 936.97 408.443 937.446 409.548C938.739 412.197 940.862 414.357 943.496 415.703L978.052 435.535C986.995 440.672 1001.51 440.672 1010.47 435.535C1012.84 434.278 1014.82 432.397 1016.19 430.099C1016.86 428.836 1034.14 365.36 1034.14 365.36L920.036 332.517Z" fill="#FDFDFD"/>
<path d="M910.247 300.902L1040.78 327.713L1044.13 334.218V350.526C1044.13 358.486 1036.6 366.465 1021.57 370.621C1013.98 372.648 1006.07 373.155 998.286 372.11C990.503 371.065 983.007 368.491 976.235 364.536L921.219 332.973C913.581 328.59 909.841 322.803 910.018 317.052C910.177 311.651 910.247 300.902 910.247 300.902Z" fill="#FDFDFD"/>
<path d="M921.853 286.032C926.721 283.269 932.042 281.381 937.57 280.456L955.033 279.755C962.253 280.319 969.271 282.406 975.618 285.875L1032.72 318.998C1046.53 327.011 1047.11 341.022 1033.54 349.438C1018.87 358.557 994.209 358.732 979.128 349.982L922.047 316.911C907.583 308.477 907.46 294.554 921.853 286.032Z" fill="#FDFDFD"/>
<path d="M998.248 333.938V274.915C998.204 272.84 998.883 270.813 1000.17 269.178C1001.45 267.542 1003.27 266.397 1005.3 265.938C1006.59 265.676 1007.92 265.704 1009.2 266.019C1010.47 266.335 1011.66 266.929 1012.67 267.759C1013.69 268.589 1014.5 269.635 1015.06 270.818C1015.61 272.002 1015.9 273.294 1015.89 274.6V334.218C1015.66 335.972 1013.91 337.725 1010.37 338.69C1008.2 339.233 1005.92 339.233 1003.75 338.69C1000.22 337.795 998.46 336.024 998.283 334.218C998.248 334.218 998.248 333.938 998.248 333.938Z" fill="#FDFDFD"/>
<path d="M938.276 241.284C938.265 239.977 938.548 238.685 939.104 237.502C939.66 236.318 940.475 235.273 941.489 234.443C942.504 233.613 943.692 233.018 944.967 232.703C946.242 232.388 947.572 232.36 948.86 232.621C950.894 233.084 952.706 234.23 953.991 235.865C955.276 237.5 955.956 239.525 955.915 241.599V300.902C955.915 302.813 954.151 304.76 950.518 305.724C948.264 306.321 945.892 306.321 943.638 305.724C939.969 304.76 938.205 302.813 938.347 300.902C938.276 300.902 938.276 241.284 938.276 241.284Z" fill="#FDFDFD"/>
<path d="M1165.03 474.953C1167.97 474.602 1193.8 471.446 1197.27 469.307C1200.75 467.168 1202.86 462.608 1202.86 456.769V249.595C1202.86 237.549 1194.27 222.802 1183.73 216.752L1002.41 112.683C995.585 108.773 989.271 109.176 985.513 113.717L969.356 133.532L970.732 134.619L986.872 114.84C990.047 110.982 995.515 110.754 1001.53 114.208L1182.84 218.278C1192.9 223.977 1201.1 238.092 1201.1 249.595V456.769C1201.1 462.03 1199.34 465.905 1196.34 467.816C1193.96 469.289 1176.19 471.849 1164.83 473.217L1165.03 474.953Z" fill="#EEEEEE"/>
<path d="M1163.85 475.023C1165.63 475.044 1167.38 474.59 1168.93 473.708C1172.54 471.639 1174.55 467.325 1174.55 461.592V264.412C1174.55 252.927 1166.37 238.881 1156.31 233.112L983.749 134.075C978.704 131.182 973.906 130.744 970.255 132.83C966.604 134.917 964.646 139.213 964.646 144.965V272.846H966.41V144.965C966.41 139.879 968.085 136.109 971.137 134.356C974.189 132.603 978.387 133.023 982.867 135.601L1155.52 234.638C1165.08 240.126 1172.88 253.488 1172.88 264.447V461.592C1172.88 466.677 1171.11 470.447 1168.13 472.2C1165.15 473.954 1160.88 473.515 1156.4 470.955L1029.79 398.326L1028.91 399.834L1155.52 472.463C1158.03 474.017 1160.89 474.899 1163.85 475.023Z" fill="#EEEEEE"/>
<path d="M1149.58 444.197C1150.52 444.207 1151.45 443.965 1152.27 443.495C1153.29 442.804 1154.1 441.856 1154.62 440.749C1155.14 439.642 1155.35 438.417 1155.24 437.2V265.517C1155.07 262.392 1154.16 259.35 1152.59 256.637C1151.02 253.924 1148.84 251.614 1146.21 249.893L995.885 163.657C994.868 162.945 993.68 162.514 992.441 162.406C991.201 162.298 989.956 162.518 988.83 163.043C987.813 163.732 987.002 164.68 986.481 165.787C985.96 166.895 985.747 168.121 985.866 169.338V283.315H987.63V169.338C987.532 168.432 987.672 167.516 988.037 166.68C988.402 165.844 988.979 165.116 989.712 164.568C990.569 164.196 991.511 164.057 992.441 164.165C993.37 164.273 994.255 164.624 995.003 165.182L1145.25 251.419C1147.63 252.955 1149.61 255.024 1151.04 257.461C1152.47 259.897 1153.3 262.632 1153.47 265.447V437.2C1153.57 438.107 1153.43 439.023 1153.07 439.859C1152.7 440.695 1152.13 441.422 1151.39 441.97C1150.54 442.344 1149.6 442.487 1148.67 442.382C1147.74 442.277 1146.85 441.929 1146.1 441.374L1037.05 378.792L1036.17 380.3L1145.25 442.882C1146.55 443.693 1148.04 444.146 1149.58 444.197Z" fill="#EEEEEE"/>
<path d="M1006.68 263.588H1008.44C1008.44 242.897 1015.5 227.466 1028.15 220.189C1040.79 212.912 1058.01 214.56 1076.25 225.029L1077.13 223.521C1058.33 212.719 1040.62 211.001 1027.27 218.664C1013.91 226.326 1006.68 242.23 1006.68 263.588Z" fill="#EEEEEE"/>
<path d="M1107.68 392.592C1114.14 392.676 1120.51 391.054 1126.13 387.892C1139.41 380.265 1146.72 364.308 1146.72 342.951H1144.95C1144.95 363.659 1137.9 379.072 1125.25 386.367C1112.6 393.661 1095.39 391.978 1077.13 381.51C1065.09 374.347 1054.35 365.211 1045.38 354.489L1044.04 355.628C1053.12 366.495 1063.98 375.76 1076.16 383.035C1087.34 389.383 1098.03 392.592 1107.68 392.592Z" fill="#EEEEEE"/>
<path d="M1106.66 330.711C1107.71 330.72 1108.74 330.454 1109.66 329.94C1110.76 329.184 1111.65 328.149 1112.22 326.941C1112.79 325.733 1113.03 324.395 1112.9 323.066C1112.7 319.599 1111.67 316.23 1109.91 313.233C1108.14 310.237 1105.69 307.7 1102.74 305.829C1101.62 305.041 1100.31 304.565 1098.94 304.447C1097.58 304.33 1096.2 304.577 1094.96 305.163C1093.86 305.919 1092.98 306.955 1092.41 308.163C1091.84 309.372 1091.61 310.709 1091.74 312.037C1091.94 315.502 1092.96 318.87 1094.73 321.866C1096.49 324.861 1098.94 327.4 1101.88 329.273C1103.32 330.161 1104.97 330.657 1106.66 330.711ZM1097.96 306.162C1099.35 306.219 1100.7 306.636 1101.88 307.372C1104.57 309.086 1106.81 311.411 1108.42 314.154C1110.03 316.898 1110.96 319.982 1111.14 323.154C1111.24 324.159 1111.07 325.173 1110.66 326.095C1110.24 327.017 1109.6 327.817 1108.78 328.414C1107.8 328.839 1106.73 329.002 1105.67 328.885C1104.61 328.768 1103.6 328.376 1102.74 327.748C1100.06 326.033 1097.82 323.708 1096.21 320.964C1094.6 318.221 1093.67 315.137 1093.5 311.966C1093.4 310.963 1093.56 309.95 1093.97 309.028C1094.39 308.106 1095.03 307.306 1095.85 306.706C1096.49 306.332 1097.22 306.138 1097.96 306.145V306.162Z" fill="#EEEEEE"/>
<path d="M1055.51 300.902C1056.56 300.911 1057.59 300.645 1058.5 300.13C1059.61 299.375 1060.5 298.34 1061.07 297.132C1061.64 295.924 1061.87 294.586 1061.75 293.257C1061.55 289.79 1060.52 286.42 1058.75 283.424C1056.99 280.428 1054.53 277.89 1051.59 276.02C1050.47 275.232 1049.16 274.755 1047.79 274.638C1046.42 274.521 1045.05 274.768 1043.81 275.354C1042.71 276.11 1041.82 277.146 1041.26 278.354C1040.69 279.562 1040.46 280.9 1040.58 282.227C1040.79 285.692 1041.81 289.06 1043.57 292.056C1045.34 295.052 1047.79 297.591 1050.73 299.464C1052.16 300.352 1053.81 300.848 1055.51 300.902ZM1046.81 276.353C1048.2 276.409 1049.55 276.827 1050.73 277.563C1053.42 279.277 1055.66 281.601 1057.27 284.345C1058.88 287.089 1059.81 290.173 1059.99 293.344C1060.09 294.35 1059.92 295.363 1059.5 296.286C1059.09 297.208 1058.44 298.007 1057.62 298.605C1056.65 299.03 1055.58 299.192 1054.52 299.075C1053.46 298.959 1052.45 298.566 1051.59 297.939C1048.9 296.224 1046.66 293.899 1045.06 291.155C1043.45 288.411 1042.52 285.327 1042.35 282.157C1042.25 281.153 1042.41 280.141 1042.82 279.219C1043.23 278.297 1043.88 277.496 1044.69 276.897C1045.33 276.523 1046.07 276.329 1046.81 276.336V276.353Z" fill="#EEEEEE"/>
<path d="M1153.88 516.318C1154.66 516.318 1155.44 516.194 1156.19 515.95C1157.14 515.651 1158.03 515.168 1158.79 514.529C1159.55 513.89 1160.18 513.107 1160.64 512.226C1161.1 511.344 1161.38 510.382 1161.46 509.393C1161.55 508.404 1161.43 507.408 1161.13 506.463C1160.79 505.464 1152.96 481.757 1129.38 472.13C1111.86 464.941 1090.89 467.571 1067.06 479.915C1042.72 492.523 1020.65 493.645 1003.22 483.142C987.189 473.48 979.94 456.752 980.539 450.492V435.92H978.775V450.404C978.105 457.155 985.408 474.462 1002.29 484.632C1020.28 495.469 1042.86 494.382 1067.85 481.476C1091.21 469.377 1111.69 466.782 1128.69 473.743C1151.46 483.072 1159.07 506.025 1159.37 507.059C1159.6 507.784 1159.69 508.546 1159.62 509.304C1159.56 510.062 1159.35 510.8 1159 511.476C1158.64 512.151 1158.16 512.752 1157.58 513.243C1157 513.734 1156.32 514.105 1155.59 514.336C1155.02 514.523 1154.43 514.618 1153.83 514.617C1152.59 514.616 1151.39 514.225 1150.39 513.5C1149.39 512.776 1148.65 511.754 1148.27 510.584C1148.27 510.391 1142.1 491.822 1124.26 484.527C1110.58 478.916 1093.41 481.371 1073.27 491.804C1036.97 510.619 1011.35 503.71 996.256 494.592C977.664 483.387 966.498 463.345 966.445 450.457V428.906H964.682V450.404C964.682 463.783 976.218 484.51 995.339 495.995C1010.83 505.341 1037.07 512.443 1074.08 493.259C1093.75 483.072 1110.4 480.634 1123.59 486.035C1140.58 493.049 1146.52 510.829 1146.52 511.005C1147.01 512.563 1147.98 513.924 1149.31 514.882C1150.64 515.84 1152.24 516.344 1153.88 516.318Z" fill="#EEEEEE"/>
<path d="M994.262 440.251C1000.06 440.36 1005.79 438.996 1010.91 436.289C1013.43 434.953 1015.52 432.95 1016.96 430.502C1017.65 429.222 1032.1 376.144 1034.99 365.623L1033.23 365.167C1028.48 382.562 1016.03 428.082 1015.31 429.748C1014.04 431.888 1012.21 433.641 1010.01 434.816C1001.32 439.796 987.083 439.796 978.475 434.816L943.92 414.984C941.454 413.724 939.462 411.707 938.24 409.232C937.729 407.707 926.669 358.381 920.883 332.377L919.119 332.745C921.959 345.441 936.088 408.794 936.582 409.899C937.945 412.727 940.199 415.036 943.003 416.474L977.558 436.306C982.696 439.016 988.447 440.374 994.262 440.251Z" fill="#EEEEEE"/>
<path d="M1007.32 373.531C1012.5 373.535 1017.66 372.845 1022.66 371.48C1037.2 367.447 1045.87 359.609 1045.87 350.438V334.131H1044.11V350.438C1044.11 358.574 1035.71 365.956 1022.19 369.726C1014.71 371.71 1006.92 372.201 999.259 371.172C991.596 370.143 984.214 367.613 977.541 363.729L922.524 332.167C915.468 328.099 911.588 322.715 911.764 317.052C911.94 311.388 911.764 299.149 911.764 299.026H910C910 299.149 910.088 311.563 910 316.981C909.806 323.329 913.951 329.256 921.642 333.675L976.659 365.237C985.975 370.613 996.544 373.473 1007.32 373.531Z" fill="#EEEEEE"/>
<path d="M954.574 336.761L955.474 335.253L922.488 316.122C915.75 312.212 912.028 307.004 912.011 301.463C911.993 295.922 915.644 290.732 922.294 286.786C927.079 284.083 932.302 282.231 937.729 281.316L937.411 279.562C931.778 280.505 926.356 282.429 921.395 285.243C914.18 289.522 910.211 295.273 910.247 301.428C910.282 307.583 914.304 313.369 921.606 317.595L954.574 336.761Z" fill="#EEEEEE"/>
<path d="M1005.87 357.329C1016.12 357.329 1026.35 354.944 1034.09 350.175C1040.79 346.019 1044.45 340.373 1044.36 334.271C1044.27 328.169 1040.21 322.295 1033.24 318.244L1017.37 308.986L1016.47 310.494L1032.34 319.752C1038.77 323.487 1042.51 328.782 1042.59 334.306C1042.68 339.829 1039.31 344.827 1033.16 348.702C1018.9 357.469 994.351 357.785 979.639 349.228L971.437 344.476L970.555 345.984L978.634 350.754C986.991 355.241 996.372 357.506 1005.87 357.329Z" fill="#EEEEEE"/>
<path d="M997.508 299.587L998.407 298.079L976.058 285.121C969.603 281.576 962.456 279.453 955.103 278.896L954.944 280.649C962.015 281.2 968.887 283.238 975.106 286.629L997.508 299.587Z" fill="#EEEEEE"/>
<path d="M1006.17 339.97C1007.36 339.974 1008.54 339.827 1009.7 339.531C1013.33 338.619 1015.59 336.708 1015.87 334.271V274.652C1015.88 273.215 1015.56 271.795 1014.95 270.494C1014.34 269.193 1013.44 268.045 1012.32 267.132C1011.2 266.22 1009.9 265.567 1008.49 265.221C1007.09 264.875 1005.63 264.844 1004.21 265.131C1001.98 265.629 999.983 266.881 998.571 268.674C997.16 270.467 996.416 272.691 996.468 274.968V333.99C996.446 334.147 996.446 334.307 996.468 334.464C996.768 336.813 998.972 338.672 1002.59 339.584C1003.76 339.866 1004.96 339.996 1006.17 339.97ZM1006.17 266.639C1008 266.622 1009.79 267.242 1011.21 268.392C1012.13 269.141 1012.87 270.083 1013.38 271.151C1013.88 272.218 1014.14 273.384 1014.14 274.565V334.183C1013.95 335.691 1012.13 337.076 1009.29 337.795C1007.26 338.304 1005.13 338.304 1003.1 337.795C1000.24 337.076 998.443 335.691 998.302 334.095C998.312 334.032 998.312 333.966 998.302 333.903V274.915C998.245 273.849 998.406 272.782 998.778 271.78C999.149 270.778 999.722 269.861 1000.46 269.086C1001.2 268.312 1002.09 267.695 1003.08 267.274C1004.07 266.854 1005.13 266.637 1006.2 266.639H1006.17Z" fill="#EEEEEE"/>
<path d="M946.196 307.057C947.434 307.057 948.667 306.898 949.865 306.583C953.728 305.566 955.985 303.427 955.915 300.867V241.599C955.962 239.321 955.215 237.097 953.8 235.304C952.386 233.511 950.391 232.259 948.154 231.762C946.738 231.475 945.276 231.505 943.874 231.852C942.472 232.198 941.165 232.851 940.049 233.764C938.934 234.676 938.037 235.825 937.425 237.126C936.813 238.427 936.501 239.847 936.512 241.284V291.573C936.512 297.22 936.512 299.745 936.67 300.867H936.529C936.424 303.41 938.681 305.549 942.544 306.583C943.735 306.899 944.963 307.058 946.196 307.057ZM946.196 233.41C946.729 233.411 947.261 233.464 947.783 233.568C949.618 233.988 951.251 235.026 952.405 236.505C953.559 237.985 954.164 239.815 954.116 241.687V300.99C954.116 302.743 952.352 304.181 949.388 304.97C947.279 305.531 945.059 305.531 942.95 304.97C939.987 304.181 938.187 302.673 938.258 301.007C938.258 299.78 938.258 241.95 938.258 241.389C938.252 240.208 938.511 239.041 939.018 237.972C939.525 236.904 940.265 235.963 941.186 235.216C942.589 234.011 944.377 233.34 946.231 233.323L946.196 233.41Z" fill="#EEEEEE"/>
</g>
<defs>
<clipPath id="clip0_3_98">
<rect width="305" height="410" fill="white" transform="translate(910 110)"/>
</clipPath>
</defs>
</svg>
